<svg id="b339bd08-8578-409c-9961-236d4f9e8a89" data-name="Layer 1" xmlns="http://www.w3.org/2000/svg" viewBox="0 0 270 270"><g id="b83921d7-1fe8-4587-9351-3aa85d4ac627" data-name="Serving Spatula"><path d="M153,97.9a.8.8,0,0,1,.2.6A.8.8,0,0,0,153,97.9Z" fill="#606060"/><path d="M152.9,97.7c0,.1.1.1.1.2S152.9,97.8,152.9,97.7Z" fill="#606060"/><path d="M6.9,48.8A1.2,1.2,0,0,0,5.7,50v8.2a1.2,1.2,0,0,0,1.2,1.3,1.3,1.3,0,0,0,1.2-1.3V50A1.2,1.2,0,0,0,6.9,48.8Z" fill="#606060"/><path d="M13.5,52.8A1.2,1.2,0,0,0,12.3,54v8.2a1.2,1.2,0,0,0,2.4,0V54A1.2,1.2,0,0,0,13.5,52.8Z" fill="#606060"/><path d="M20.1,56.7a1.3,1.3,0,0,0-1.2,1.2v8.3a1.2,1.2,0,0,0,1.2,1.2,1.2,1.2,0,0,0,1.2-1.2V57.9A1.2,1.2,0,0,0,20.1,56.7Z" fill="#606060"/><path d="M216.7,199.7a1.2,1.2,0,0,0-1.2-1.2H142.3a1.2,1.2,0,0,0,0,2.4h73.2A1.2,1.2,0,0,0,216.7,199.7Z" fill="#606060"/><path d="M229.6,208.1h-56a1.2,1.2,0,0,0,0,2.4h56A1.2,1.2,0,0,0,229.6,208.1Z" fill="#606060"/><path d="M140.1,139.2l.8,33.5-19,13c-10.1,6.3-7.7,22.8,3.7,26.1l127.5,40.7c12.7,4.4,23.4-11.9,14.1-21.8l-60.1-67a34.5,34.5,0,0,0-44.9-5.5l-6.2,4.2c-.1,0,0-33.1-.1-33.2a2.1,2.1,0,0,0-.1-.6c-.3-.3-5-7-5-7s3.2-1.8,3-2.8l-.6-20.3h0a1.9,1.9,0,0,0-.4-.9h-.1l-.4-.3C143,91.5,23.1,19.2,23,19,14,13.2.8,19.3-.4,29.6c-.1.8-.3,3.4-.3,3.4V55.6a8.9,8.9,0,0,0,4.2,7.6C23.8,75.8,119,133.9,125,137.3h0a3.6,3.6,0,0,0,1.9.7h.1l.7-.2,7.6-5.4.2.4h0Zm13.5-7.6v32.5l-10.3,7-.8-31.7Zm-4.2-12-3.2-4.5a1.3,1.3,0,0,0-1.7-.3l-13.4,9.6a1.2,1.2,0,0,0-.3,1.7l2.7,3.8h0l.4.6-6.4,4.4V117.1l23.3-16.3.6,17.4Zm2.7-22.3ZM7.4,21.6a13,13,0,0,1,14.3-.5L149.8,98.6,126.2,115,8.1,43.6C.1,39-.4,26.6,7.4,21.6Zm117.7,95.6v17.4C113.9,127.7,24,73.2,4.8,61.2a6.6,6.6,0,0,1-3.1-5.6V40.5a15.9,15.9,0,0,0,5.2,5.1Zm12,13.7h0l-1-1.5-2.7-3.7,11.5-8.2,8.2,11.5-11.5,8.1ZM266.5,245.7a10.9,10.9,0,0,1-12.7,4.5L126.4,209.5c-9.6-2.7-11.6-16.6-3.2-21.8l40.4-27.5a32,32,0,0,1,41.7,5.1l60.1,67A10.8,10.8,0,0,1,266.5,245.7Z" fill="#606060"/><path d="M148.4,164.1a1.2,1.2,0,0,0,1.2-1.2V140.4a1.2,1.2,0,1,0-2.4,0v22.5A1.2,1.2,0,0,0,148.4,164.1Z" fill="#606060"/></g></svg>