<svg id="aa489284-74df-48c0-8680-27cf0b6ed3eb" data-name="Layer 1" xmlns="http://www.w3.org/2000/svg" viewBox="0 0 270 270"><path d="M263.6,128.2c.4-13.4-13-26.4-21.3-29.3-9.5-28.4-39.3-40.4-58.1-40.4C146.9,26,78.3,50.6,60.5,62.9a17.5,17.5,0,0,0-7.4,9.4,17.2,17.2,0,0,0-.4,9.7,40.2,40.2,0,0,0-13.9,6.5c-16,10.7-34.4,34-27,57.1-14.5,11.2-14.1,40.5-7.1,52.7C.9,227.8,40.9,240.6,51,210.2c6.6.2,22.5-6.7,24.7-17.2,14.3,2.7,33.1-1.3,43.4-12.9h0c23.7,4.4,50.3,1,69.6-13.9,13.3,2.7,28.2.3,38.8-8.4,3.4,2.6,12.2,4.9,17.7,2.4h-.1c10.7,9.2,27,.9,24.7-15A36.2,36.2,0,0,0,263.6,128.2Zm-216.1,83c-.1,0-.1,0-.1.1a6.1,6.1,0,0,1-.5,1.2l-.9,1.7a20.7,20.7,0,0,1-7.5,7.9h-.2l-1.6.8-.6.3-2.4.8a19.2,19.2,0,0,1-16.3-3l-.6-.5h0A24.4,24.4,0,0,1,8,207.3a20.5,20.5,0,0,1-.4-8.5A22.1,22.1,0,0,1,21.7,191a24.9,24.9,0,0,1,15.4,2.9l2.2,1.4.4.3,1.2,1a22.8,22.8,0,0,1,7.4,12.2C48.1,209.3,47.9,210.2,47.5,211.2Zm20.6-11.6a.2.2,0,0,0-.2.2l-.4.3a27.8,27.8,0,0,1-16.6,7.2,25.9,25.9,0,0,0-8.2-13.1l-1.4-1.1-.2-.2a27.8,27.8,0,0,0-20-4.8,25.4,25.4,0,0,0-14.4,7.4c-4.1-8.7-5-20.4-2.4-30.7C8,150,18.9,138.1,37.8,142.1a42.8,42.8,0,0,1,19,11l.2.2c7.1,7,12.7,16.6,16,28.1a12.9,12.9,0,0,1,.4,1.9C74.7,189.9,72.2,195.4,68.1,199.6Zm40.8-15c-10.1,5.8-23.9,7.4-32.5,5.5a45,45,0,0,0-1.8-13.6,57.9,57.9,0,0,0-15.4-25.2l-.6-.6-1.2-1.1a64.2,64.2,0,0,0-8.1-5.9l-.9-.5-1.4-.7-1.7-.9-.9-.4-2.1-.8-1-.3-1.1-.4a32.4,32.4,0,0,0-9.7-1.3H28.1l-1.7.2-.9.2A25.7,25.7,0,0,0,17,142a22.6,22.6,0,0,0-2.6,1.6c-4.5-15.7,3.5-31.1,14-42.2l.9-1,.2-.2a62.7,62.7,0,0,1,5.4-5c1.9-1.6,3.8-3,5.6-4.3a37.7,37.7,0,0,1,13.7-6.2,38.5,38.5,0,0,1,4.9-.7,37.3,37.3,0,0,1,19.3,3.5,69.8,69.8,0,0,1,15.3,9.4l1.1.8.4.3a77.3,77.3,0,0,1,23.3,35,73.9,73.9,0,0,1,3.3,32.1l-.3,2.2C120.7,175.1,115.6,180.7,108.9,184.6Zm73.7-17.3-.4.2a87.2,87.2,0,0,1-29.6,10.4c-2.5.4-5.2.7-7.8.9a68.9,68.9,0,0,1-7.9.2,69.7,69.7,0,0,1-7.9-.4,73.2,73.2,0,0,1-8-1.1,36.1,36.1,0,0,0,3.8-12.4c1.3-8.6.5-18.7-2.2-28.7a80.1,80.1,0,0,0-7-17.9l-.3-.7a4.3,4.3,0,0,0-.4-.7,84.3,84.3,0,0,0-13-16.8l-.9-.9-1.2-1.2A69.8,69.8,0,0,0,80.1,85.1l-.4-.3L78,84.1a42.9,42.9,0,0,0-22.5-2.6h.1a14.9,14.9,0,0,1,.3-8.3,15.3,15.3,0,0,1,6.2-7.8c9.8-6.4,25.2-12.7,42.1-16.5,26.8-5.9,57.6-5.5,77.3,11.2,10.6,9.1,18,22.9,19.8,43a.9.9,0,0,0,.1.5,113.8,113.8,0,0,1-.2,21c-1,10.5-3.5,21-7.5,29.2C190.8,159.9,187.1,164.7,182.6,167.3Zm46.2-14.6-.8.7-1.3,1.2-.5.5a40.4,40.4,0,0,1-21.1,9h-.3l-3,.3h-3.7l-3.2-.2-3.6-.5a57.5,57.5,0,0,0,5.4-9.5,97.4,97.4,0,0,0,7.2-26.3,100.9,100.9,0,0,0,.9-13.5v-1c0-1.5-.1-2.9-.1-4.4l-.3-4.9c-.1-.6-.1-1.1-.2-1.7A87.2,87.2,0,0,0,200,83.1c-.4-1.3-.8-2.6-1.3-3.8a5.4,5.4,0,0,1-.5-1.1,55.6,55.6,0,0,0-10.6-16.5,53.3,53.3,0,0,1,14.9,3,63.6,63.6,0,0,1,24.7,15.4l.7.7,1,1.1a51.5,51.5,0,0,1,10.8,18.6,53.7,53.7,0,0,1,2.7,14.8v.4a22.6,22.6,0,0,1,.1,2.6c0,.6-.1,1.3-.1,1.9a4.5,4.5,0,0,1-.1,1.1,50.1,50.1,0,0,1-9.6,26.9c-.1,0-.1.1-.2.2a18.3,18.3,0,0,1-1.3,1.6l-.5.6-1,1.1Zm12.9,5.4a14.5,14.5,0,0,1-11.8-2.3,33.9,33.9,0,0,0,9.2-11.8c4.3-8.4,6.2-18.6,6.2-27.6a43,43,0,0,0-1.9-13.6,26.1,26.1,0,0,1,7.7,5.5,32.7,32.7,0,0,1,9.4,18.1,23,23,0,0,1-.8,10.4h0l-.3,1.1a39.7,39.7,0,0,1-4.3,9.4C251.8,152.6,247.1,156.9,241.7,158.1Zm25.2-9.3c-.2,4.5-1.8,8.5-5.8,10.9l-.7.3a10.6,10.6,0,0,1-6.4,1c-2.6-.2-4.9-1.1-5.9-2.1a32.3,32.3,0,0,0,5.6-4.8,37.5,37.5,0,0,0,2.6-3.3l1.1-1.6.5-.7,1.8-3.2c0-.1.1-.2.2-.3l.9-2.2.7-1.8v-.2a35.9,35.9,0,0,0,1.7-7.2,32.3,32.3,0,0,1,3.6,14A4.8,4.8,0,0,1,266.9,148.8Z" fill="#606060"/><path d="M83,161.7a67.3,67.3,0,0,0-5.2-10.4c-7.3-11.8-17.6-20.1-29.4-23.1a1,1,0,0,0-1.1.1h-.2a1.6,1.6,0,0,0-.5,1.7,1.2,1.2,0,0,0,1,.9l3,1a32.8,32.8,0,0,1,5.8,2.5,48.3,48.3,0,0,1,14.9,12.7,59.5,59.5,0,0,1,4,5.8,57.1,57.1,0,0,1,3.5,6.5c.8,1.6,1.5,3.4,2.2,5.2a52.2,52.2,0,0,1,1.8,5.6l.3.5a1.5,1.5,0,0,0,1.5.5,1.4,1.4,0,0,0,1.1-1.8Q84.5,165.5,83,161.7Z" fill="#606060"/><path d="M36.2,179.2a26.5,26.5,0,0,0-22.4,3.3,1.5,1.5,0,0,0-.5.7h-.1v.8a.3.3,0,0,1,.1.2l.3.5.2.2.8.2h.1l3-1.5a30.2,30.2,0,0,1,9.2-2.6h1.3a22,22,0,0,1,7.1.9m0,0h0a12.5,12.5,0,0,1,3.1,1.2,21.7,21.7,0,0,1,3.9,2.5,19.8,19.8,0,0,0,3.4,2.2h0c1.7-.6,1.7-1.5.9-2.6s-3.7-3.1-6.1-4.3a20.8,20.8,0,0,0-4.3-1.8" fill="#606060"/><path d="M111.6,83.9a1.3,1.3,0,0,0-1-.4h-.2a1.8,1.8,0,0,0-1.2,1.3,1.2,1.2,0,0,0,.4,1.2h.1a86.3,86.3,0,0,1,16.7,20.4l.6,1.1a82.9,82.9,0,0,1,10.1,33.1,84,84,0,0,1-.4,19.7h0a1.7,1.7,0,0,0,.4,1.2,1.6,1.6,0,0,0,1.1.5h.2a1.1,1.1,0,0,0,.8-.3h0a2,2,0,0,0,.5-.9,88.1,88.1,0,0,0-10.1-54.6A81,81,0,0,0,111.6,83.9Z" fill="#606060"/><path d="M90.7,70.1a1.6,1.6,0,0,0-2,.7,1.6,1.6,0,0,0,.7,2,97.8,97.8,0,0,1,11.8,6.8l.8.2a1.4,1.4,0,0,0,1.2-.6,1.5,1.5,0,0,0-.4-2.1A95.5,95.5,0,0,0,90.7,70.1Z" fill="#606060"/></svg>