<svg id="b534ed53-d387-439f-bf29-0afd8f18af54" data-name="Layer 1" xmlns="http://www.w3.org/2000/svg" viewBox="0 0 270 270"><path d="M263.3,64.2C243,38.7,201.2,31.4,171.8,41.7c-26.8,9.2-41.5,29.2-47.1,38.6l-4.6-1.7c-14.3-6.1-63.7-24.1-97.6-.4C9.1,86.7-10.4,107.4,6.7,129v26.7c0,10.1,6.4,17.5,11.1,22.8,12.2,14.2,28.3,19.4,60.3,29.8,6.6,2.4,26.8,7.5,38.4,8.8l92.3,15.6h1.1a6.7,6.7,0,0,0,5.8-3.2l31.6-49.7c9.8-14.6,15.5-30.2,15.9-43.9V118C272.1,97.5,272.4,77.9,263.3,64.2ZM212.2,228.9a3.8,3.8,0,0,1-2.9.7L116.9,214c-11.4-1.3-31.3-6.3-37.8-8.7-31.5-10.2-47.3-15.3-59-28.8-4.6-5.3-10.3-11.8-10.3-20.8V132.9c14,17,30,21.8,65.3,33.3a228.6,228.6,0,0,0,40.4,9.3l95.9,16.2a7.4,7.4,0,0,0,2.1.1ZM260.1,136c-.4,13-5.9,28-15.4,42.2l-29.2,46,1.1-33.2a9,9,0,0,0,4.1-3.4l32.5-51.2a120.3,120.3,0,0,0,6.9-11.8Zm-9.5-1.3L218,186a6.1,6.1,0,0,1-6.1,2.7L116,172.4a229.5,229.5,0,0,1-39.9-9.1c-33.2-10.8-49.9-16.2-62.2-30.4a43,43,0,0,1-4.1-4.7H9.7C-5.2,108.5,8.3,91.5,24.3,80.8c26.6-20.4,74.9-8.5,94.7.7l7.1,2.6a86.8,86.8,0,0,1,46.8-39.4C195.1,37,221,39.4,242.1,51,274.5,66,273.1,100.4,250.6,134.7Z" fill="#606060"/><path d="M214.8,46.6c-18.3-.8-32.8-4.9-57.3,9.7a69.9,69.9,0,0,0-26,30.8,2,2,0,0,1-2.6,1h0c-25.2-13-75.4-21.7-112.3,4.5-17.6,16.3-.3,37.6,24.9,48.7a593.1,593.1,0,0,0,167.4,36.2,9.3,9.3,0,0,0,7.9-4.5L257,103.9C266.5,77.5,248.6,47.6,214.8,46.6Zm-202,57.5A17.3,17.3,0,0,1,18.5,95c35.4-24.2,78.7-18.2,110.9-3.7v50.1c-17.6-8.5-57.5-20.6-92.9-5.9C20.5,126.9,10.7,114.4,12.8,104.1Zm201.3,67.3a6.2,6.2,0,0,1-5.7,3,588.2,588.2,0,0,1-165.7-36l-2.3-1c34.7-12.8,70.5-1.3,87.2,6.7a5.1,5.1,0,0,0,6.8-2.6c11.3-27.9,42.6-43.2,69-39.4,3.8.4,7.6.7,11.3.8,12.3.4,23.7,5.3,31.5,13.5Zm40.1-68.8-6.4,11c-8.3-8.4-20.2-13.4-33-13.8a107.4,107.4,0,0,1-11.1-.8c-26.2-3.8-58.5,10.8-71.2,39.1V90.4a4.8,4.8,0,0,0,1.9-2.1A66.5,66.5,0,0,1,159.1,59c23.8-14.3,37.6-10,55.6-9.3C246.1,50.6,262.8,78.2,254.2,102.6Z" fill="#606060"/></svg>