<svg id="eae03830-67b8-446f-bdee-a178db3ac008" data-name="Layer 1" xmlns="http://www.w3.org/2000/svg" viewBox="0 0 270 270"><g id="ada88e08-cbda-419b-a1f4-b858be6ac9e3" data-name="Ink Pen"><path d="M135.9,27.6a3.8,3.8,0,0,0-2.1,0c-5.3,1.2-4.4,9.2,1.1,9.1A4.6,4.6,0,0,0,135.9,27.6Zm-1,7c-3.3,0-3.4-5,0-5.1h0C138.2,29.5,138.2,34.6,134.9,34.6Z" fill="#606060"/><path d="M143.4,63.8c.6,0,1.7.1,1.9-.7m0,0c.1-.1.1-.2.1-.4V51.2l4.8-14.4a5.1,5.1,0,0,0-.7-4.5A66.8,66.8,0,0,1,136.3.9a1.1,1.1,0,0,0-2.1-.1,86.9,86.9,0,0,1-13.6,31.7,4.7,4.7,0,0,0-.7,4.3l4.4,14v.5s.1,11.8.1,11.9c-4.4,6.8-4.5,20.2.1,27.2-1.6,18.1-3.3,47.5-3.1,84.9.1,23.1,1,45.6,2.6,66.9a55.4,55.4,0,0,0,6.1,21.4c3.4,7.2,6.5,9.5,10.8.7a53.8,53.8,0,0,0,6.4-22.8c1.2-20.9,1.8-42.7,1.7-65,0-37.5-1.9-67.6-3.5-86.3,4.3-7.6,3.6-20.9-.2-27.1-.2.8-1.3.7-1.9.7,3.3,5.8,4.4,18,.4,25.2H126.1c-4.3-6.9-3.8-18.7.3-25.2h17M121.9,36.1a2.6,2.6,0,0,1,.4-2.4,89.7,89.7,0,0,0,11.6-23.4V27.7l1.1-.2,1,.2V9.7a69.2,69.2,0,0,0,11.7,23.9,2.8,2.8,0,0,1,.4,2.5l-4.4,13.2H126Zm21.3,15.3v2.1H126.4V51.5Zm-16.8,4.3h16.9v6.1H126.4Zm9.2,212.2c-.9.1-2.7-3.4-3.6-5.3a51.9,51.9,0,0,1-5.9-20.5c-3.8-42.2-3-118.3.4-150.9h17c3.3,32.9,4.7,107.7,1.7,150.2a52.9,52.9,0,0,1-6.1,22C138.4,264.5,136.6,267.9,135.6,267.9Z" fill="#606060"/></g></svg>