<svg id="a4f85008-7ba6-45a7-b9e1-26d682fc403e" data-name="Layer 1" xmlns="http://www.w3.org/2000/svg" viewBox="0 0 270 270"><path d="M268,190.3,202.5,41c-8.3-19-27.4-30.4-47.6-28.3L19.2,26.5C6.6,27.6-2.5,41.2.6,53.4l39,171.5c4.5,19.5,21.1,32.7,39.8,32.7a39.1,39.1,0,0,0,8.3-.9l164.4-34.4C265.9,219.7,274,202.9,268,190.3Zm-16.3,30.4L87.4,255.1c-21,4.4-41.3-9-46.2-30.6L2.2,53.1c-2.9-11.3,5.5-24,17.2-25L155.1,14.3c19.4-2,37.9,9,45.9,27.4l65.5,149.2a22,22,0,0,1-.6,18.9A20.9,20.9,0,0,1,251.7,220.7Z" fill="#606060"/><path d="M106.2,190.5a34.5,34.5,0,0,0-22.4-5.9c-23,1.3-38,25.2-23.2,42,.1.1.1.1.1.2h0c11.2,13.2,36.1,13.4,48.3.8A23.5,23.5,0,0,0,106.2,190.5ZM62.1,225.8a13,13,0,0,1-.3-4.8c4.3-22,47.7-15.3,44,7.2C93.9,238.4,71.9,237.3,62.1,225.8Zm45.6.8c.8-11-10.6-19.1-21.3-20.5s-26.8,4.4-26.3,17.2c-11.8-17.2,5.5-37.7,26.5-37.2S125.5,209.1,107.7,226.6Z" fill="#606060"/><path d="M176.3,181.2a32.9,32.9,0,0,0-21.7-5.7c-22.2,1.3-36.7,24.4-22.4,40.7a.1.1,0,0,0,.1.1h0c16.8,19.2,55.7,8.3,54.2-17.8C186,191.7,182.4,185.6,176.3,181.2Zm-42.6,34.2a12.6,12.6,0,0,1-.3-4.7c1.2-8.7,11.8-14.4,23.5-12.8s21,10.5,19,19.7C164.5,227.4,143.2,226.5,133.7,215.4Zm44.1.6c.6-9.2-8.4-18-20.6-19.7s-25.8,5.3-25.5,16.5c-11.2-16.5,5.4-36.3,25.7-35.8S194.8,199.2,177.8,216Z" fill="#606060"/><path d="M228,167.1c-20.3-2.4-37.2,16.2-26.8,33.4h.1c11.6,19.7,49,17.1,52.1-7.6C254.6,180.2,243.3,168.6,228,167.1ZM202.8,200a12.4,12.4,0,0,1,.5-4.3c2.5-7.6,12.9-11.1,23.3-7.8s17.7,11.8,14,20.8C228.6,215.6,210.2,211.9,202.8,200Zm39.9,7.4c4-22-37-31.8-41.4-10.3-7-15.8,9.4-30.5,26.6-28.4C249.7,170.5,261,194.8,242.7,207.4Z" fill="#606060"/><path d="M73.8,177.1c37.9-4.3,34.3-49.8-3.7-48.2-21.3,1.2-35.1,23.2-21.4,38.8h.1C54.3,174.2,64.2,178,73.8,177.1Zm-1.1-46.7c21.7-.3,35.2,21.8,19.5,37.1.7-22.5-43.1-26.7-44-3.1C37.6,148.6,53.5,129.9,72.7,130.4ZM50.2,166.9a11.1,11.1,0,0,1-.3-4.4c3.9-20.1,43.8-14.1,40.5,6.6C79.6,178.4,59.1,177.5,50.2,166.9Z" fill="#606060"/><path d="M114.8,158.2h0c15.5,17.8,51.5,7.7,50.1-16.5-1-12.9-14.2-22.4-29.5-21.2-19.2.9-34.5,21.5-20.7,37.6Zm1.4-.9a12.5,12.5,0,0,1-.2-4.3c4.3-20.1,42.6-12.7,39,6.4C144.6,168.4,124.8,167.5,116.2,157.3ZM138,122c20.9-.3,33.9,21,18.9,35.7.5-8.5-7.8-16.5-19.1-18s-23.7,3.8-23.6,15C103.7,138.6,120.7,121.4,138,122Z" fill="#606060"/><path d="M175.6,131.8a19,19,0,0,0,2.8,11.8h0c11.2,18.7,45.7,15.3,48.2-7C228,108,179.7,103.3,175.6,131.8Zm4.4,11.3a10.4,10.4,0,0,1,.4-3.9c6.5-16.9,40.3-5.6,34.3,11.9C203.9,157.4,186.7,154.1,180,143.1Zm36.8,6.7a8.1,8.1,0,0,1-.7,2.2,8.1,8.1,0,0,0,.7-2.2c3.7-19.4-33.5-29.7-38.3-9.5-6.3-14.6,8.8-27.9,24.5-26C223.1,116,233.4,138.2,216.8,149.8Z" fill="#606060"/><path d="M78.5,84.6a28.7,28.7,0,0,0-18.9-4.9c-19.3,1.1-31.9,21-19.4,35.3h.1c5,5.6,12.4,8.5,20.3,8.5C83.4,124,97.6,98.7,78.5,84.6ZM62,81.2c18.5-.5,32.2,18.9,17.8,33.3-.1-20.9-39.4-23.3-40.1-2.8C30.5,97.4,44.8,80.8,62,81.2Zm-20.3,33a9.1,9.1,0,0,1-.3-4c1.1-7.4,10.1-12.3,20.2-10.9s18.2,7.9,16.3,16.8C68.2,124.3,50.3,124.1,41.7,114.2Z" fill="#606060"/><path d="M139.3,107c15.9-16.1-.4-37-20.5-34.9S88,92.5,100,106.2h.1C109,117,129.6,117.2,139.3,107ZM121.1,73.6c17.7-.5,31.1,18.1,17.2,32.1.4-7.7-7.1-14.8-17.3-16.2s-21.4,3.3-21.4,13.4C90.7,89.2,104.5,73.2,121.1,73.6Zm-19.6,31.9a10.3,10.3,0,0,1-.2-3.9c3.8-18.1,38.5-11.4,35.2,5.8C127.1,115.5,109.1,114.6,101.5,105.5Z" fill="#606060"/><path d="M155.1,82.4a17.1,17.1,0,0,0,2.6,10.7h0c10.1,17,41.5,13.9,43.8-6.3C202.6,60.2,158.5,57,155.1,82.4Zm4.2,10.3a11,11,0,0,1,.3-3.6c5.7-15.2,36.5-4.9,31,10.8C180.8,105.5,165.3,102.5,159.3,92.7Zm33.4,5.8c2.9-17.5-30.2-26.6-34.9-8.7-5.4-13.1,8.2-24.9,22.3-23.2C197,67.8,208,87.3,192.7,98.5Z" fill="#606060"/><path d="M69.9,69.5C84.2,55.1,69.5,36.1,51.4,38S23.7,56.4,34.5,68.8h.1C42.5,78.5,61.1,78.7,69.9,69.5ZM36,68a7.8,7.8,0,0,1-.2-3.4c3-15.6,33.8-10.9,31.4,5.1C58.8,76.9,42.8,76.1,36,68Zm-4.1-9.3c-1-10.2,9.7-19.3,21.6-19.2C69.1,39.1,81.2,55.5,69,68c-.1-17.2-33.3-20.5-34.9-2.5A13.7,13.7,0,0,1,31.9,58.7Z" fill="#606060"/><path d="M86.3,61.2h.1c12.2,14.2,40.7,6.2,39.6-13-.8-10.2-11.2-17.7-23.3-16.8-16.3.9-26.8,17.8-16.4,29.8Zm1.5-.8a7.4,7.4,0,0,1-.2-3.3c2.3-14.4,32.5-11,30.3,4.9C110,68.9,94.3,68.3,87.8,60.4ZM104.7,33c15.9-.3,26.3,15.9,15,27.4-.6-17.2-32.6-19.2-33.8-2.5C78.7,46.1,90.5,32.7,104.7,33Z" fill="#606060"/><path d="M140.9,50.1h.1c5.3,9.6,21.7,12.9,31,6,14.3-9.9,5.6-29.1-11.4-30.5C146.7,23.7,133,36.8,140.9,50Zm1.6-.6a7,7,0,0,1,.4-2.9c5-13,31-4.3,26.6,9.2C161.1,60.8,147.3,57.6,142.5,49.5Zm17.9-22.3c15.2,1.2,23.6,18.1,11.1,27.2,2.2-15-26-22.9-30.3-7.6C136.6,35.2,149.3,25.6,160.4,27.2Z" fill="#606060"/><path d="M60.5,66,41.8,63.4a.8.8,0,0,0-.2,1.6l18.6,2.6C61.3,67.8,61.5,66.1,60.5,66Z" fill="#606060"/><path d="M58.1,69.5l-14.9-2a.8.8,0,0,0-1,.6,1,1,0,0,0,.7,1l14.9,2A.8.8,0,0,0,58.1,69.5Z" fill="#606060"/><path d="M113.2,58.2,94.6,55.6a.7.7,0,0,0-.9.7.8.8,0,0,0,.7.9L113,59.8C114,59.9,114.3,58.3,113.2,58.2Z" fill="#606060"/><path d="M110.8,61.7,95.9,59.6c-.4-.1-.8.3-.9.7s.3.9.7.9l14.9,2.1A.8.8,0,0,0,110.8,61.7Z" fill="#606060"/><path d="M166,50.1l-18.6-2.6a.8.8,0,1,0-.2,1.6l18.6,2.6A.8.8,0,0,0,166,50.1Z" fill="#606060"/><path d="M163.6,53.6l-14.9-2c-1-.2-1.2,1.4-.2,1.6l14.9,2C164.4,55.4,164.7,53.8,163.6,53.6Z" fill="#606060"/><path d="M70.5,112.2l-20.3-2.9a1,1,0,0,0-.9.7.8.8,0,0,0,.7.9l20.3,2.9C71.3,113.9,71.6,112.3,70.5,112.2Z" fill="#606060"/><path d="M67.9,116l-16.2-2.3a1,1,0,0,0-.9.7.7.7,0,0,0,.7.9l16.2,2.3C68.7,117.7,69,116.1,67.9,116Z" fill="#606060"/><path d="M129.6,104l-20.3-2.8c-.4-.1-.8.3-.9.7a.8.8,0,0,0,.7.9l20.3,2.9A.9.9,0,0,0,129.6,104Z" fill="#606060"/><path d="M127,107.9l-16.2-2.3a.7.7,0,0,0-.9.7.7.7,0,0,0,.7.9l16.2,2.3C127.8,109.6,128.1,108,127,107.9Z" fill="#606060"/><path d="M185.6,93.4l-20.3-2.8a.8.8,0,1,0-.2,1.6L185.3,95C186.4,95.1,186.6,93.5,185.6,93.4Z" fill="#606060"/><path d="M183,97.2l-16.3-2.3c-1-.1-1.2,1.5-.2,1.6l16.2,2.3C183.8,99,184,97.3,183,97.2Z" fill="#606060"/><path d="M81.2,165.5l-21.8-3a.7.7,0,0,0-.9.6.8.8,0,0,0,.6,1l21.9,3A.8.8,0,0,0,81.2,165.5Z" fill="#606060"/><path d="M78.4,169.6l-17.5-2.4a.8.8,0,0,0-.9.7,1,1,0,0,0,.7.9l17.5,2.4C79.2,171.4,79.4,169.7,78.4,169.6Z" fill="#606060"/><path d="M146.5,154.9l-21.8-3a.7.7,0,0,0-.9.7.8.8,0,0,0,.7.9l21.8,3C147.3,156.7,147.6,155.1,146.5,154.9Z" fill="#606060"/><path d="M143.7,159.1l-17.4-2.5a.8.8,0,0,0-.9.7.7.7,0,0,0,.6.9l17.5,2.5C144.5,160.8,144.8,159.2,143.7,159.1Z" fill="#606060"/><path d="M209.7,144l-21.8-3a.7.7,0,0,0-.9.6.8.8,0,0,0,.7,1l21.8,3A.8.8,0,1,0,209.7,144Z" fill="#606060"/><path d="M206.9,148.1l-17.4-2.4a.8.8,0,1,0-.2,1.6l17.4,2.4A.8.8,0,0,0,206.9,148.1Z" fill="#606060"/><path d="M95.3,226l-23.7-3.3c-1-.1-1.2,1.5-.2,1.6l23.7,3.3A.8.8,0,1,0,95.3,226Z" fill="#606060"/><path d="M92.3,230.5l-19-2.6a.8.8,0,0,0-.9.7,1,1,0,0,0,.7.9l19,2.6C93.1,232.3,93.3,230.6,92.3,230.5Z" fill="#606060"/><path d="M166.1,214.6l-23.7-3.3c-.5-.1-.8.2-.9.7a.8.8,0,0,0,.7.9l23.7,3.3C166.9,216.3,167.2,214.7,166.1,214.6Z" fill="#606060"/><path d="M163.1,219l-19-2.6a.8.8,0,0,0-.9.7c-.1.4.3.8.7.9l18.9,2.6A.8.8,0,0,0,163.1,219Z" fill="#606060"/><path d="M234.8,201.1,211,197.8a1,1,0,0,0-.9.7.8.8,0,0,0,.7.9l23.7,3.3A.8.8,0,0,0,234.8,201.1Z" fill="#606060"/><path d="M231.7,205.6,212.8,203a.8.8,0,0,0-.3,1.6l19,2.6C232.5,207.4,232.7,205.7,231.7,205.6Z" fill="#606060"/></svg>