<svg id="b3302fec-39d3-43ea-9abf-280d0e8f36e9" data-name="Layer 1" xmlns="http://www.w3.org/2000/svg" viewBox="0 0 270 270"><g id="bd1d93d5-bbf2-4485-b689-9989e7d57b33" data-name="Internet Browser"><path d="M143.7,59.5H93c-1.1,0-1.1,1.8,0,1.7h50.7C144.8,61.3,144.8,59.5,143.7,59.5Z" fill="#606060"/><path d="M228.8,54.2H216.4a4.2,4.2,0,0,0-3,1.2c-1.5,1.3-1.2,3.8-1.2,5.6a4.1,4.1,0,0,0,4.2,4.2c.9-.1,13.5.3,13.9-.3a4.1,4.1,0,0,0,2.7-3.9V58.5A4.2,4.2,0,0,0,228.8,54.2Zm2.5,4.3v2.6a2.5,2.5,0,0,1-2.5,2.5H216.4a2.9,2.9,0,0,1-1.8-.7c-1.1-.9-.6-3.2-.7-4.4a2.4,2.4,0,0,1,2.5-2.5h12.4A2.5,2.5,0,0,1,231.3,58.5Z" fill="#606060"/><path d="M255,54.2H242.6a4.3,4.3,0,0,0-4.3,4.3c0,1.8-.3,4.2,1.3,5.5a4.2,4.2,0,0,0,3,1.3H255a4.2,4.2,0,0,0,4.2-4.3c0-1.8.3-4.3-1.2-5.6A4.2,4.2,0,0,0,255,54.2Zm2.5,4.2V61a2.5,2.5,0,0,1-2.5,2.5H242.6a2.5,2.5,0,0,1-1.8-.8c-1.1-.9-.7-3.1-.8-4.3a2.6,2.6,0,0,1,2.6-2.6H255A2.6,2.6,0,0,1,257.5,58.4Z" fill="#606060"/><path d="M267.8,44.6a6,6,0,0,0-4.4-1.9L7.3,43.2A7.3,7.3,0,0,0,0,50.5L.3,219.9a7.4,7.4,0,0,0,7.4,7.4l255.9-.5a6,6,0,0,0,4.5-1.9,6.4,6.4,0,0,0,1.9-4.5L269.7,49A6.3,6.3,0,0,0,267.8,44.6ZM1.8,75.9h30v20H1.8Zm0,21.8h30v19.9H1.8Zm0,21.6H31.9v19.9H1.9ZM1.9,153V140.9h30v19.9H1.9Zm0,28.2V162.6H32v19.9H2Zm.1,8.4v-5.4H32V204H2Zm28.5,35.9H7.7A5.7,5.7,0,0,1,2,219.9V205.8H32v19.7Zm237.8-5.1a4.8,4.8,0,0,1-4.7,4.7L37,225.5H33.8v-8.9L33.5,75.9l231.6-.4H268ZM268,49V73.8l-232.9.4H1.8V50.5a5.5,5.5,0,0,1,3.6-5.2c2.4-1.2,255.6-.4,258.1-.8A4.6,4.6,0,0,1,268,49Z" fill="#606060"/><path d="M15.7,55.7c-6.7.1-6.7,10.1,0,10.2S22.5,55.8,15.7,55.7Zm3.4,5.1c0,4.5-6.7,4.5-6.8,0S19.1,56.3,19.1,60.8Z" fill="#606060"/><path d="M30.5,55.6c-6.7.2-6.7,10.2,0,10.3S37.3,55.8,30.5,55.6Zm3.4,5.2c0,4.4-6.7,4.5-6.8,0S33.9,56.3,33.9,60.8Z" fill="#606060"/><path d="M45.3,55.6c-6.7.1-6.7,10.2,0,10.3S52.1,55.8,45.3,55.6Zm3.4,5.1c0,4.5-6.7,4.5-6.8.1S48.6,56.3,48.7,60.7Z" fill="#606060"/><path d="M80.2,59.6h-22a.9.9,0,1,0,0,1.7h22A.9.9,0,0,0,80.2,59.6Z" fill="#606060"/><path d="M202.7,53.9H190.3a4.2,4.2,0,0,0-3,1.2c-1.5,1.3-1.2,3.8-1.2,5.6a4.2,4.2,0,0,0,4.3,4.2c.9,0,13.4.3,13.9-.3a4.1,4.1,0,0,0,2.7-3.9V58.1A4.2,4.2,0,0,0,202.7,53.9Zm2.6,4.2v2.6a2.5,2.5,0,0,1-2.5,2.5H190.4a2.3,2.3,0,0,1-1.8-.7c-1.1-.9-.7-3.2-.8-4.4a2.6,2.6,0,0,1,2.5-2.5h12.4A2.6,2.6,0,0,1,205.3,58.1Z" fill="#606060"/><path d="M216.1,188.9a2.5,2.5,0,0,0,2.2-.2l3.6-2.6h.5l.4.2,6.6,10.1a3.2,3.2,0,0,0,4.1,1.1l5.3-2.9a3.6,3.6,0,0,0,1.5-2.1,3.1,3.1,0,0,0-.5-2.5l-7-9.5a.6.6,0,0,1,.2-.8l3.2-2a2,2,0,0,0-.1-3.4l-19-10.5a2.5,2.5,0,0,0-3.7,2.4l1.5,21A2.3,2.3,0,0,0,216.1,188.9Zm-1.9-22.8Zm.9-.1h0a.6.6,0,0,1,.3-.7.9.9,0,0,1,.9-.1l19,10.5v.4c-1.1.9-4.1,2.1-4.3,3.6a3,3,0,0,0,.4,1.8l7,9.4a1.4,1.4,0,0,1-.5,2l-5.2,2.9a1.4,1.4,0,0,1-1.9-.4l-6.6-10.1a2.2,2.2,0,0,0-3.2-.6l-3.7,2.6a.5.5,0,0,1-.7-.3Z" fill="#606060"/></g></svg>