<svg id="eebea571-3870-4e0a-9a53-e541cdfbccd6" data-name="Layer 1" xmlns="http://www.w3.org/2000/svg" viewBox="0 0 270 270"><g id="a7d4a841-c143-4a91-8612-23f62987f796" data-name="Slate"><path d="M227.1,242.5,44.6,243.9a.7.7,0,0,0-.7.6.7.7,0,0,0,.7.7l182.5-1.4a.7.7,0,0,0,.7-.7A.7.7,0,0,0,227.1,242.5Z" fill="#606060"/><path d="M45.9,107.9a2.8,2.8,0,0,0,0,5.6C49.5,113.4,49.5,108,45.9,107.9Zm0,4.2a1.4,1.4,0,0,1,0-2.8A1.4,1.4,0,0,1,45.9,112.1Z" fill="#606060"/><path d="M69.8,129.5c-3.7.1-3.7,5.5,0,5.5S73.4,129.6,69.8,129.5Zm1.3,2.8a1.4,1.4,0,0,1-2.7,0A1.4,1.4,0,0,1,71.1,132.3Z" fill="#606060"/><path d="M236.7,254.5l-.3-111.3a5.5,5.5,0,0,0-.7-2.5,2.7,2.7,0,0,0,.9-2.1l.2-13.8a3.1,3.1,0,0,0-.7-1.8,2.9,2.9,0,0,0-1.8-.7L69.9,120.5,62,113.2c.3-.3,139.1-96.8,139.2-97.2l1.6-3.9c1.5-2.7-5.6-8-6.9-9.1s-6.7-2.7-9-1.1L36.7,106a5.4,5.4,0,0,0-2.1,7.2l2.1,4.3v2.6a2.1,2.1,0,0,0-1.9,2.1l-.6,14.4a2.8,2.8,0,0,0,1.1,2.3,3.5,3.5,0,0,0-.4,1.7l-3,114a14.5,14.5,0,0,0,4.1,10.5,17.7,17.7,0,0,0,12.6,5H221.1C229.5,270.4,236.9,262.9,236.7,254.5ZM82.3,138.5l12.6-16.4,15.5.2L98,138.7Zm46-16-12.5,16.4-16.1-.2,12.5-16.4Zm35.3.4-12.5,16.3H135l12.3-16.4Zm34.7.4-12.5,16.3-15.6-.2,12.4-16.3Zm11.6.1h5.6l-12.3,16.2H187.5L200,123.3Zm23.2.3-12.5,16.2-15.6-.2,12.2-16.2Zm2.1,14.9a1.4,1.4,0,0,1-.6,1.2,1.1,1.1,0,0,0-.8.2H222.3l12.4-16.1a1.2,1.2,0,0,1,.7,1Zm-66.7.8-15.7-.2,12.5-16.3,15.5.2Zm-35.3-.4H117.5l12.6-16.4,15.5.2Zm-91.4-5.3a1.4,1.4,0,1,1,0-2.7A1.4,1.4,0,1,1,41.8,133.7Zm31.5-6.8v8.7L42.4,135a2.7,2.7,0,1,0-1.4,0,4,4,0,0,1-3.5-4.1l1-22.2a3,3,0,0,1,3-2.8H51a2.8,2.8,0,0,1,2,.8l19.6,18.1A2.6,2.6,0,0,1,73.3,126.9ZM61,112.2l-1.1-1L200.6,13.7l-.6,1.6ZM187.7,3c1.7-1.2,5.9-.7,7.3,1s6.7,5.9,6.6,7.3L58.9,110.2,54,105.7a5.3,5.3,0,0,0-2.9-1.2H41.3ZM35.9,112.6a4.2,4.2,0,0,1,1.6-5.5c-.6,1-.5,6.4-.6,7.5Zm-.4,24.1.6-14.5a.8.8,0,0,1,.5-.7l-.5,9.3a5.4,5.4,0,0,0,5.5,5.6c1.8,0,25.5.6,32.3.6a.7.7,0,0,0,.7-.6c.1-.1.1-9.7.1-9.7.2-2.1-2-3.6-3.3-4.8l21.8.2L80.5,138.5l-43.6-.4c-.3-.1-.6-.4-.9-.3A1.4,1.4,0,0,1,35.5,136.7Zm195.6,128a14.3,14.3,0,0,1-10,4.1H48.5c-8.1.2-15.6-5.8-15.3-14l3-114a3.2,3.2,0,0,1,.2-1.3c6.8.2,56.6.7,62.1.7l135.3,1.3h.6a3.3,3.3,0,0,1,.6,1.9l.3,111.3A14.5,14.5,0,0,1,231.1,264.7Z" fill="#606060"/><path d="M134.1,205.2l.4-.2,91.8-.4a.7.7,0,1,0,0-1.4l-91.5.4,1.5-40.6,89.6-.2a.7.7,0,0,0,0-1.4l-90.2.2h0l-90.3.2a.7.7,0,0,0,0,1.4l89.5-.2-1.4,40.6-88.7.4a.7.7,0,0,0,0,1.4l88.9-.4Z" fill="#606060"/><path d="M48.6,192.4a.7.7,0,0,0,.9.5l30.3-7.2a.7.7,0,0,0-.3-1.3l-30.3,7.2A.8.8,0,0,0,48.6,192.4Z" fill="#606060"/><path d="M82.5,180.3l-30.3,7.2a.7.7,0,0,0,.3,1.4l30.3-7.2C83.6,181.5,83.3,180.1,82.5,180.3Z" fill="#606060"/><path d="M55.3,193.9a.8.8,0,0,0,.9.5l30.3-7.2c.8-.2.5-1.6-.3-1.4L55.9,193A.9.9,0,0,0,55.3,193.9Z" fill="#606060"/><path d="M144.7,191.4a.7.7,0,0,0,.8.5l30.3-7.2a.7.7,0,1,0-.3-1.3l-30.3,7.2A.6.6,0,0,0,144.7,191.4Z" fill="#606060"/><path d="M148.4,187.8c.1.1,30.3-7.2,30.4-7.2s.6-1.6-.3-1.3l-30.3,7.2C147.4,186.6,147.6,187.9,148.4,187.8Z" fill="#606060"/><path d="M152.1,193.4l30.4-7.3a.7.7,0,1,0-.3-1.3L151.9,192A.7.7,0,0,0,152.1,193.4Z" fill="#606060"/></g></svg>