<svg id="b8340c2f-acc7-4d51-b67e-937de166c28a" data-name="Layer 1" xmlns="http://www.w3.org/2000/svg" viewBox="0 0 270 270"><g id="a76867bc-f629-4ebf-a67e-db46cd0f4692" data-name="Egg Timer"><path d="M184.4,2C171.3,1,153.8.3,135.1.1,73-.4,64.1.5,64.1,4a1.2,1.2,0,0,0,.4,1.1c.6,4.5,3.1,20.6,8.5,22.6,3,1.1,7.7,1.9,13.4,2.6l2,184.3c-5.9,3-10.2,6.2-12.4,9.1-.5.4-5.4,6-6.5,23.8-.1.1,0,.2,0,.3,4,18.8,61.8,22.1,64.4,22.2s60.4-2.4,64.7-21.1c-.4-17-5.8-24.6-6-24.6-2.1-3.5-6.8-7.1-13.6-10.3l4.2-181.5a56.3,56.3,0,0,0,13.6-2c5.5-1.9,8.2-18.2,8.8-22.5C206.5,5.3,206.4,4,184.4,2ZM135,2.7c33.5.3,57.9,2.1,65.9,4C181.2,8.1,84.3,7,69.1,3.8,78.8,2.3,112.1,2.5,135,2.7ZM91,215.4h0L89,30.6l10.6.8.9,58.4a2.2,2.2,0,0,0,0,1.4l1.8,117.4v2.2h.1l.2,19.3c0,2-.9,3-5.7,3-2.7-.1-5.9-.1-5.7-3.4ZM151.8,37.8c6.6,2.2,12.1,11.4,15,19.2L166,86.9c-3.2-1-11.1-2.1-31.1-3.6-22.8-1.7-29.6-1.2-31.9-.4l-.4-24.6c3.4-8.6,10.2-18.8,16.5-20.8a9.7,9.7,0,0,0,5.7-5.1l21.5.3A9.2,9.2,0,0,0,151.8,37.8Zm-2.5-5,18.1.2-.5,17.9c-2.7-5.7-7.5-13.3-14.2-15.6A6.3,6.3,0,0,1,149.3,32.8Zm-1.5,82.9c-5,6.5-14.5,13.4-10.8,18.3,11.5,14.1,25.3,31.7,26.7,35.4l-.9,32.7c-6.7-4.3-24.2-12.2-24.4-12.3a19.3,19.3,0,0,0-5.6-.3c-.9-.1-3.9-.3-5.6.8s-13.6,6-22.4,9.7l-.5-28.7c1.8-4.5,22.1-30.3,28-37.3,3.9-4.9-6-12.3-11.2-19-7.6-8.5-17-18.9-18-24V86.6c5.6,3.2,25.3,6.5,29.3,6.6s29.1-.8,33.5-2.3C165.8,95.6,155.4,107.2,147.8,115.7ZM165.6,98l-1.8,66.5c-5.5-8.3-18.5-24.5-24.8-32.1a1.7,1.7,0,0,1-.1-1.9C144.4,122.2,160.6,106.6,165.6,98Zm-2.9,107v.3l-.3,6.4c-6,8.8-20.8,12.6-28.2,11.7-5.2.6-22.9-3.2-29.3-13v-7.6c4.5-1.9,22.2-9.4,23.7-10.3s3.1-.4,4.3-.4a16.1,16.1,0,0,1,4.8.2C139.3,192.8,159.4,202.8,162.7,205Zm-58.4-38.7-1.1-69c5.1,8.7,21.9,24.8,27.3,33.2a1.5,1.5,0,0,1-.2,1.8C126.7,136.6,110.6,156.7,104.3,166.3ZM105.4,85c2.8-.3,10.2-.5,29.3.9,17.1,1.2,24.8,2.2,28.3,2.9-7.2,1.1-25.7,1.9-30.6,1.8S110.5,87,105.4,85Zm12.9-50c-5.8,1.9-11.8,9.4-15.8,17.1l-.3-20.5c6.4.3,13.1.6,19.7.7A7,7,0,0,1,118.3,35ZM196,248.5c-3.5,13.8-46,18.3-62.1,18.9s-58.6-6.1-61.8-20a56.3,56.3,0,0,1,3.1-16.9c12.5,21.6,107.1,23.2,118,1.1A59.8,59.8,0,0,1,196,248.5Zm-4.6-20c-.1,8.3-23.1,16.9-57.3,16.6-32.7-.2-57.1-10.8-57.1-17.5,0-2.1,3.6-6,11.5-10.1v12.3a5.5,5.5,0,0,0,1.3,4c1.7,1.7,4.5,1.9,7,2s8.2,0,8.4-5.6l-.3-15.7c6.5,7.5,20.1,11.8,29.1,11.5s21.2-2.8,28.3-10.2l-.4,14.6c-.3,4.8,4.2,6.1,8.3,6s8.2,0,8.4-5.6l.3-14C186.7,220.7,191.4,225.1,191.4,228.5Zm-15-13.8h0l-.3,16c-.1,2-1,3-5.8,3-1.8,0-4.1-.2-5.1-1.2a3.3,3.3,0,0,1-.6-2.1l.7-25.3v-.8L170,33l10.6-.3ZM195.9,28c-4.6,1.9-18.1,2.2-24.7,2.3-16.1.2-32-.4-47.5-.6-8.3-.1-15.8-.4-22.3-.8H101c-.3,0-13.2-1.1-13.4-1-6.3-.7-10.9-1.5-13.7-2.6S68.5,14,67.3,6.1C92.4,10.6,194.8,10.4,202.8,9,201.5,16.9,198.8,27,195.9,28Z" fill="#606060"/><path d="M134.4,138.8a1.3,1.3,0,0,0-1.3,1.3l-.4,41.4a1.3,1.3,0,0,0,2.6,0l.4-41.4A1.3,1.3,0,0,0,134.4,138.8Z" fill="#606060"/><path d="M139.8,146.2l-.2,24.2a1.3,1.3,0,0,0,2.6,0l.2-24.2A1.3,1.3,0,0,0,139.8,146.2Z" fill="#606060"/><path d="M127.6,155a1.3,1.3,0,0,0-1.3,1.3v19.3a1.2,1.2,0,0,0,1.2,1.4,1.3,1.3,0,0,0,1.4-1.3V156.4A1.3,1.3,0,0,0,127.6,155Z" fill="#606060"/><path d="M133.5,118.9c-1.4-.1-1.4,2.2,0,2.2S134.9,118.8,133.5,118.9Z" fill="#606060"/><path d="M141.7,199.6a1.1,1.1,0,0,0,0,2.2C143.1,201.9,143.1,199.6,141.7,199.6Z" fill="#606060"/><path d="M126.4,210.1a1.1,1.1,0,0,0,0,2.2A1.1,1.1,0,0,0,126.4,210.1Z" fill="#606060"/><path d="M117.8,206.8a1.1,1.1,0,0,0,0,2.2A1.1,1.1,0,0,0,117.8,206.8Z" fill="#606060"/><path d="M147.6,216.5a1.1,1.1,0,0,0-.3,2.2C148.7,219,149.1,216.8,147.6,216.5Z" fill="#606060"/><path d="M125,113.7a1.1,1.1,0,0,0-.1,2.2A1.1,1.1,0,0,0,125,113.7Z" fill="#606060"/><path d="M131.5,112.1c-1.5,0-1.5,2.3-.1,2.2A1.1,1.1,0,0,0,131.5,112.1Z" fill="#606060"/><path d="M114.8,97.9c-1.5-.1-1.5,2.2,0,2.2A1.1,1.1,0,0,0,114.8,97.9Z" fill="#606060"/></g></svg>