<svg id="Layer_1" data-name="Layer 1" xmlns="http://www.w3.org/2000/svg" viewBox="0 0 430 270"><defs><style>.cls-1{fill:#055171;}</style></defs><path class="cls-1" d="M145.87,81.17c-1-9.52-8-15.51-17.35-16.6a40.82,40.82,0,0,0-5.64-.1c-1-.12-36.13,5.78-38,6L74.42,127.23l35-5.66,1.68-.35,2.67-14.46h0l25.44-4.12h0C143.58,96.56,146.57,88.76,145.87,81.17Z"/><path class="cls-1" d="M222.09,97.21l-1.27-6.06-1.95-5.67-2.6-5.25L213,75.43,184.21,39.16l3.22,4.8,2.6,5.25L192,54.87l1.28,6.06.56,6.43-.17,6.76-.94,7.08c-2.61,13.86-9.57,27.71-18,39-14.57,19.13-35.26,34.61-58.09,42.42-10.3,3.78-39.44,7.51-50.49,9.51h0l-9.7,52.51h0L0,233.74c.1,0,28.75,36.32,28.9,36.26l56.38-9.13h0L95,208.36h0c11.25-2,40.16-5.74,50.49-9.5a130.7,130.7,0,0,0,21.92-10.12C198.09,170.28,226.62,134.8,222.09,97.21Z"/><path class="cls-1" d="M340.38,118.5c-.89,8.74-7.68,16-15.36,19.74a30.51,30.51,0,0,1-4.8,1.72c-6.83,1.3-32.41,5.27-39.66,6.5l6.33-34.31L324.71,106l1.73-.2a18.75,18.75,0,0,1,4.79.35A11.38,11.38,0,0,1,340.38,118.5Zm3.78-76.13c-.9,8.74-7.68,16-15.37,19.74A29.43,29.43,0,0,1,324,63.83l-1.85.38-27.22,4.4,6.34-34.3c3.88-.4,29.1-5.34,32.42-4.56C340.43,30.52,344.74,35.58,344.16,42.37Z"/><path class="cls-1" d="M429.52,53.81,428.46,49l-1.6-4.56-2.13-4.24c-5-7.62-26-33-31.46-40.16l2.63,3.89L398,8.13l1.61,4.55,1.06,4.86.49,5.12L401.07,28l-.73,5.6L399,39.27c-3.48,11.78-10.8,23.12-19,32.21l.06,0h0a55.84,55.84,0,0,1,4.88,3.89l3.63,3.94.25.32-.25-.32,3,4.42L394,88.64,395.42,93l.95,4.64.43,4.88-.12,5.09-.7,5.3-1.34,5.64a82.58,82.58,0,0,1-6.27,14.8c-9.55,16.84-24.83,30.88-42,39.74a99.74,99.74,0,0,1-18,6.81l-6.12,1.26-106,17.17c.21.08,28.64,36.38,29,36.25l105.88-17.14,6.13-1.27a96,96,0,0,0,23.74-10c24-14.4,47.89-42.71,44.28-72.28-1.89-12.27-7.85-18.35-15.18-27.58C422.52,92.22,432.3,73.09,429.52,53.81Zm-39.71,27.1.63.79Zm.94,1.18.06.07Z"/></svg>