<svg id="b5f95240-8ef8-4ce2-bb4f-39df867c4363" data-name="Layer 1" xmlns="http://www.w3.org/2000/svg" viewBox="0 0 270 270"><path d="M232.1,72.9a1,1,0,0,0-.4-.5L161.5,31.6l8.8-25.5a3.1,3.1,0,0,0-.2-2.5A2.8,2.8,0,0,0,168.3,2a3.1,3.1,0,0,0-2.5.1A2.8,2.8,0,0,0,164.2,4l-8.4,24.3-6.7-3.9h-.2a10.4,10.4,0,0,0-7.9,1L95.2,51.8h-.1L80,43.4a3.2,3.2,0,0,0-4.4,1.3,2.7,2.7,0,0,0-.3,2.5,3.2,3.2,0,0,0,1.5,1.9l11.7,6.5L46.6,79.8a27.6,27.6,0,0,0-13.7,23.9L33.4,212a10.8,10.8,0,0,0,4,8.1l80.1,47.3h.4l1.3.9a10.7,10.7,0,0,0,5.2,1.4,9.8,9.8,0,0,0,5.2-1.5l88.6-51.4a37.8,37.8,0,0,0,18.9-32.8V81.8A10.4,10.4,0,0,0,232.1,72.9ZM77.1,45.6a1.6,1.6,0,0,1,1.3-.8l.7.2,36.6,20.3a1.3,1.3,0,0,1,.7.9,1.4,1.4,0,0,1-.1,1.1,1.5,1.5,0,0,1-2,.6L77.7,47.5a1.1,1.1,0,0,1-.7-.8A1.4,1.4,0,0,1,77.1,45.6ZM148.3,26l6.9,4-7.7,22.3a28.3,28.3,0,0,0-14-3.8h-.2a30,30,0,0,0-23.1,11.7L96.9,52.8l44.9-25.9A8.3,8.3,0,0,1,148.3,26Zm-15,24.3h.2c14.4,0,27,12.1,28.2,26.9a8.7,8.7,0,0,1-2.5,6.8,36.7,36.7,0,0,1-19.6,10.4c-14.3,2.6-25.6-4.5-31.1-8.9a9,9,0,0,1-3.3-7,28.8,28.8,0,0,1,3.1-11.9l5.1,2.8a2.9,2.9,0,0,0,1.6.4,3.1,3.1,0,0,0,2.8-1.6,2.8,2.8,0,0,0,.3-2.5,3.2,3.2,0,0,0-1.5-1.9l-4.9-2.7A28.3,28.3,0,0,1,133.3,50.3ZM90.4,56.6l16.3,9.1a29.8,29.8,0,0,0-3.2,12.7,10.1,10.1,0,0,0,3.9,8.4c4.6,3.7,14,10,26.1,10a34.7,34.7,0,0,0,6.4-.6,38.9,38.9,0,0,0,20.5-10.9,10.3,10.3,0,0,0,3.1-8.3A31.8,31.8,0,0,0,153,56.2l7.9-22.9,65.5,38.1a9.6,9.6,0,0,0-4.9,1.4l-94.3,54.4a27.9,27.9,0,0,0-13.8,24l.6,108.2a9.8,9.8,0,0,0,1,4.4L38.4,218.6a8.4,8.4,0,0,1-3.2-6.6l-.5-108.3A25.5,25.5,0,0,1,47.5,81.4Zm37.7,72.2,94.3-54.5a9,9,0,0,1,8.6,0,8.6,8.6,0,0,1,4.3,7.5V184.1a36.4,36.4,0,0,1-18,31.3l-88.6,51.4a8.6,8.6,0,0,1-12.9-7.4l-.6-108.3A25.7,25.7,0,0,1,128.1,128.8ZM168.6,5.5,151.5,55l-2.4-1.8L165.8,4.5h0a2,2,0,0,1,.8-.8,1.4,1.4,0,0,1,1.1-.1c.4.2.7.4.8.8A1.4,1.4,0,0,1,168.6,5.5Z" fill="#606060"/><path d="M94.8,128.2l15.4,9h.5a.8.8,0,0,0,.7-.5.7.7,0,0,0,.1-.6.9.9,0,0,0-.4-.6l-15.4-8.9a.8.8,0,0,0-.7-.1,1,1,0,0,0-.5.4,1.5,1.5,0,0,0-.1.7A1,1,0,0,0,94.8,128.2Z" fill="#606060"/><path d="M41.1,95.3a.7.7,0,0,0-.5.4.8.8,0,0,0-.1.7,1,1,0,0,0,.4.5l49.4,28.7h.4a1,1,0,0,0,.8-.5.9.9,0,0,0-.3-1.2L41.8,95.4A.6.6,0,0,0,41.1,95.3Z" fill="#606060"/><path d="M125.4,258.1a10,10,0,0,0,4.7,1.2,8.4,8.4,0,0,0,4.6-1.3l78.6-45.6a33.6,33.6,0,0,0,16.8-29.1V92.6a9.4,9.4,0,0,0-14-8.1l-83.6,48.3a24.2,24.2,0,0,0-12.2,21.3l.4,95.9A9.5,9.5,0,0,0,125.4,258.1ZM122,154a22.7,22.7,0,0,1,11.4-19.7L217,86a7.7,7.7,0,0,1,7.6,0,7.6,7.6,0,0,1,3.7,6.6v90.7a32.1,32.1,0,0,1-15.9,27.6l-78.6,45.6a7.2,7.2,0,0,1-7.5,0,7.4,7.4,0,0,1-3.8-6.5Z" fill="#606060"/><path d="M129.9,230.8l1,.2a4.1,4.1,0,0,0,1.7-.5l8.8-5.1a7.8,7.8,0,0,0,3.5-6.1V206.8L153,202c11.4-6.5,20.6-22.5,20.5-35.7,0-1.3-.1-2.5-.2-3.8-.8-4.8-3-8.2-6.5-9.8s-9.4-1.3-15,1.9l-19.6,11.3a8.1,8.1,0,0,0-3.5,6.1v56.4A3.1,3.1,0,0,0,129.9,230.8Zm13.3-10.7a4.4,4.4,0,0,1-2,3.5l-8.8,5.1a1.2,1.2,0,0,1-1.3.1,1.2,1.2,0,0,1-.6-1.2V171.3a4.4,4.4,0,0,1,2-3.5L152,156.5a18.3,18.3,0,0,1,9.2-2.8,11,11,0,0,1,4.5.9c3.2,1.6,5.2,4.6,5.9,9a32.8,32.8,0,0,1,.2,3.4,39.1,39.1,0,0,1-5.5,18.9h0c-3.6,6.3-8.4,11.4-13.5,14.3l-8.9,5.1-.5.6a1.1,1.1,0,0,0-.3.7Z" fill="#606060"/><path d="M143.7,193.1h.4l8.8-5.1a17.9,17.9,0,0,0,6.1-6.4,17.6,17.6,0,0,0,2.5-8.4c0-2.8-.9-4.8-2.6-5.7s-3.9-.7-6.2.6l-8.9,5.1-.5.6a1,1,0,0,0-.2.7v18a.6.6,0,0,0,.3.6Zm1.1-18.5,8.1-4.7c1.9-1.1,3.6-1.3,4.9-.6s2,2.4,2,4.5a15.4,15.4,0,0,1-7.1,12.2l-7.9,4.6Z" fill="#606060"/><path d="M181.4,201a1.9,1.9,0,0,0,1,.3,3.7,3.7,0,0,0,1.7-.5l23.2-13.4c6.5-3.8,12.5-11.1,15.5-19.1a29.6,29.6,0,0,0,2.1-10.4c0-5.4-2.2-9.5-5.9-11.2a31.1,31.1,0,0,0,3.1-12.9,15.9,15.9,0,0,0-1.2-6.4,8.8,8.8,0,0,0-5.4-5c-3.2-1.1-7.3-.3-11.5,2.1l-20.3,11.7a7.8,7.8,0,0,0-3.6,6.2l.2,56.2A2.7,2.7,0,0,0,181.4,201Zm35.7-53.8a1.8,1.8,0,0,0-.1,1l.3.3c3.7,1.2,5.9,5,5.9,10.2a26.6,26.6,0,0,1-1.9,9.4h0c-2.8,7.3-8.2,14-14.2,17.4l-23.2,13.4a1.3,1.3,0,0,1-1.3.2,1.4,1.4,0,0,1-.6-1.3l-.2-56.1a4.9,4.9,0,0,1,2.1-3.7l20.3-11.7a16.1,16.1,0,0,1,7.6-2.3,8.6,8.6,0,0,1,2.8.4,7.8,7.8,0,0,1,4.7,4.4,15,15,0,0,1,1.1,5.8A29.2,29.2,0,0,1,217.1,147.2Z" fill="#606060"/><path d="M208.9,162a4.2,4.2,0,0,0-4,.3l-9.6,5.6a1.2,1.2,0,0,0-.5.5,2.4,2.4,0,0,0-.2.8V180a.6.6,0,0,0,.3.6h.7l9.6-5.6a10.8,10.8,0,0,0,3.8-4.1,10.1,10.1,0,0,0,1.6-5.3A3.9,3.9,0,0,0,208.9,162Zm-3.9,2h.2a2.7,2.7,0,0,1,2.6-.2,2.7,2.7,0,0,1,1.1,2.4,8.8,8.8,0,0,1-3.9,6.9l-8.7,5v-8.9l8.8-5.1V164Z" fill="#606060"/><path d="M194.8,156h.7l6.9-4a11,11,0,0,0,3.9-4.1,10.9,10.9,0,0,0,1.6-5.4,4.1,4.1,0,0,0-1.7-3.6,3.9,3.9,0,0,0-4,.4l-6.9,4-.6.5a2.4,2.4,0,0,0-.2.8v10.9A.9.9,0,0,0,194.8,156Zm1.4-11.4,6.2-3.6a2.7,2.7,0,0,1,2.7-.2,2.5,2.5,0,0,1,1.1,2.4,8.9,8.9,0,0,1-4,6.9l-6,3.4Z" fill="#606060"/></svg>