<svg id="f83589de-ad21-4687-b12e-e0ab031551a8" data-name="Layer 1" xmlns="http://www.w3.org/2000/svg" viewBox="0 0 270 270"><path d="M90.7,106.8c30.1,0,54.5-13.6,54.5-30.3S120.8,46.3,90.7,46.3,36.2,59.8,36.2,76.5,60.7,106.8,90.7,106.8Zm0-1.9c-15,0-28.5-3.4-38.1-8.8a77.9,77.9,0,0,1,75.4.4C118.4,101.7,105.3,104.9,90.7,104.9Zm0-56.8c29,0,52.6,12.8,52.6,28.4,0,7.3-5.1,13.9-13.4,19A80.1,80.1,0,0,0,50.7,95c-7.8-5-12.6-11.5-12.6-18.5C38.1,60.9,61.7,48.1,90.7,48.1Z" fill="#606060"/><path d="M123.6,124.5c0,16.6,24.4,30.2,54.5,30.2s54.4-13.6,54.4-30.2-24.4-30.3-54.4-30.3S123.6,107.8,123.6,124.5Zm54.5,28.3c-15,0-28.6-3.3-38.2-8.8a78.3,78.3,0,0,1,75.4.5C205.8,149.6,192.6,152.8,178.1,152.8Zm0-56.7c29,0,52.6,12.7,52.6,28.4,0,7.2-5.1,13.9-13.5,18.9a82,82,0,0,0-37.9-10.7h-2.1a80.9,80.9,0,0,0-39.1,10.2h0c-7.9-5-12.7-11.4-12.7-18.4C125.4,108.8,149,96.1,178.1,96.1Z" fill="#606060"/><path d="M269.3,179l-10.1-57.1a26.3,26.3,0,0,0-1.3-6.2A26.9,26.9,0,0,0,245,100.8L154,52.1A146.5,146.5,0,0,0,95.2,34.9c-41.5-2.8-73.3,8.5-82.9,29.5v.2a23.6,23.6,0,0,0-2.1,8.2.8.8,0,0,0-.2.4L1,125.9a38.3,38.3,0,0,0,20,40.2l101.4,53.4a137.4,137.4,0,0,0,64.1,16H188a136.6,136.6,0,0,0,61-15.2,39.4,39.4,0,0,0,18.2-19.9,36,36,0,0,0,2.7-11.2A39.9,39.9,0,0,0,269.3,179ZM14,65.2c8.2-18.1,33.9-28.8,68.6-28.8,4.1,0,8.3.1,12.5.4a142.6,142.6,0,0,1,58,17l91,48.6a25.1,25.1,0,0,1,12,13.9,20,20,0,0,1,1.2,5.8c1.3,16.5-14.9,33.5-38.4,40.3a141.7,141.7,0,0,1-59.3,2.1h-.3a107.1,107.1,0,0,1-32.9-11.8L24.3,95.5A23.9,23.9,0,0,1,12,77.6,23.1,23.1,0,0,1,14,65.2ZM268,189.1a35.6,35.6,0,0,1-2.5,10.6,38.4,38.4,0,0,1-17.4,19A135.2,135.2,0,0,1,188,233.6a134.1,134.1,0,0,1-64.7-15.8L21.9,164.5a36.5,36.5,0,0,1-19-38.3l7.7-45.9A25.9,25.9,0,0,0,23.4,97.1l102.1,57.2a105,105,0,0,0,33.5,12h.3a145.3,145.3,0,0,0,24.7,2.1,148.4,148.4,0,0,0,35.4-4.3c20.8-6,36.1-19.9,39.3-34.7l8.8,49.8A36.5,36.5,0,0,1,268,189.1Z" fill="#606060"/><path d="M121.8,169.4,52,132.1a7.5,7.5,0,0,0-7.4.2,7.3,7.3,0,0,0-3.6,6.3v15.2a7.1,7.1,0,0,0,3.9,6.6l69.8,38.1a7.4,7.4,0,0,0,3.6.9,6.9,6.9,0,0,0,3.7-1,7.4,7.4,0,0,0,3.7-6.4V176A7.3,7.3,0,0,0,121.8,169.4Zm2,22.6a5.8,5.8,0,0,1-2.8,4.8,5.7,5.7,0,0,1-5.5.1L45.7,158.8a5.5,5.5,0,0,1-3-4.9V138.6a5.8,5.8,0,0,1,2.8-4.7,5.7,5.7,0,0,1,5.5-.2L120.9,171a5.6,5.6,0,0,1,3,5Z" fill="#606060"/><path d="M114.1,175.2,53.9,142.4a2.1,2.1,0,0,0-1.9,0,2,2,0,0,0-.9,1.7v9.1a2,2,0,0,0,1.1,1.9l60.7,33.1a1.2,1.2,0,0,0,.8.2l.9-.2a1.6,1.6,0,0,0,.8-1.4v-9.5A2.3,2.3,0,0,0,114.1,175.2Zm-.7,11.2L53.1,153.5c-.1,0-.2-.2-.2-.3v-9.1H53l60.2,32.8a.5.5,0,0,1,.3.5Z" fill="#606060"/><path d="M84.3,82.4a.9.9,0,0,0,.9-.9V53.7a.9.9,0,0,0-1.8,0V81.5A.9.9,0,0,0,84.3,82.4Z" fill="#606060"/><path d="M177.4,131.1a.9.9,0,0,0,.9-.9V102.4a.9.9,0,0,0-1.8,0v27.8A.9.9,0,0,0,177.4,131.1Z" fill="#606060"/></svg>