<svg id="b6770696-cbde-424f-aeaf-ca2d8894089b" data-name="Layer 1" xmlns="http://www.w3.org/2000/svg" viewBox="0 0 270 270"><path d="M134.6,129.6l2.3,110a1,1,0,0,0,1.7.7c.9-.4-2.3-110-2-110.7A1,1,0,0,0,134.6,129.6Z" fill="#606060"/><path d="M130.8,255.7c-.1,6.3,8.3,9.7,12.6,5.2s1.4-13.2-5.3-12.9A7.5,7.5,0,0,0,130.8,255.7Zm13-.3c0,7.2-10.8,7.5-11.1.2S143.5,248.1,143.8,255.4Z" fill="#606060"/><path d="M127.8,0,108.6.4a6.8,6.8,0,0,0-4.7,2.1A6.5,6.5,0,0,0,102,7.4l2,96.2a6.9,6.9,0,0,0,7,6.7l13.4-.3.3,146.4A13.7,13.7,0,0,0,138.6,270a13.5,13.5,0,0,0,13.2-14.1L146,109.5l15.4-.3a6.8,6.8,0,0,0,6.6-6.9l-1.4-65.1C166.6,16.8,148.2-.8,127.8,0Zm22.1,255.9c.7,10.3-12.6,16.2-19.7,8.8a11.7,11.7,0,0,1-3.6-8.3l-.3-146.5,17.7-.3ZM164.7,37.3l1.4,65a4.9,4.9,0,0,1-4.8,5l-50.4,1a4.8,4.8,0,0,1-4.9-4.7L103.9,7.3a5.5,5.5,0,0,1,1.5-3.6,5.1,5.1,0,0,1,3.3-1.3L127.9,2C147.2,1.2,164.7,17.9,164.7,37.3Z" fill="#606060"/><path d="M138.9,7.9a1,1,0,1,0-.9,1.7A37.8,37.8,0,0,1,157.8,42c-.1.8,1,1.2,1.6.6C160.4,28.4,151.3,14.6,138.9,7.9Z" fill="#606060"/></svg>