<svg id="b11880a7-67ae-46ff-b599-6a50801deec1" data-name="Layer 1" xmlns="http://www.w3.org/2000/svg" viewBox="0 0 270 270"><g id="a5683b59-2b3f-4d66-b270-9bcee0afd701" data-name="Headphones"><path d="M132.2,88.9c-19.2-3-29.5,25.5-22.2,40.5,9.3,20,31.5,9,35.3-11.3C147.9,106.7,144,91.5,132.2,88.9Zm11.8,29c-3.7,19.4-24.3,29.4-32.8,10.9-6.4-13.6,1.4-38,18.1-38.9C142.2,90.2,146.7,106.4,144,117.9Z" fill="#606060"/><path d="M263.4,131.4a34.3,34.3,0,0,0-3.1-6.7,36.7,36.7,0,0,0-7.5-16.1c21.2-44.3,1.8-92-41.4-103.9A54.7,54.7,0,0,0,195.1.3c-51.6-4.2-76.4,40-78.4,69.5-37.7,6-50.4,54-21.9,79l6.6,5.6c22.4,19.9,51.6.1,59.9-29.6,6-20.5.7-47.2-19.5-55.2,2.8-20.1,18.4-53.9,52.5-62.7,16.4,1.8,32.8,14.7,38.3,30.7a106.5,106.5,0,0,1-3.3,59.7v-.2c-23-5-44.2,13.2-50.4,35.8-6.1,20.9,1,45.8,20.7,55.2l-4.6,7.5a4.8,4.8,0,0,0,1,6.4c-14.9,21.9-36.7,45.8-63.9,57.8-22.9,9.8-38.4,11.5-43.7,4.9s.4-21.5,5.5-29.8,10.4-12.4,15.2-16.3,10.2-8.4,9.8-14.4a13.4,13.4,0,0,0-6.1-9.9c-11.7-7.9-35.7,9.2-44.7,23.4s-30.1,32-54.6,27.3c-15.7-8.4-4.3-30.1,14-47.3v-.2c4.7-6.9,5.2-18.9,2.6-25.2a5.8,5.8,0,0,0,1.9-6.8L25.6,150a3.1,3.1,0,0,0-4.1-1.7l-2.4-5.9a2.5,2.5,0,0,0-3.3-1.3l-.9.3a2.6,2.6,0,0,0-1.4,3.3l2.5,6a3.1,3.1,0,0,0-1.1,3.8L21.4,170a5.8,5.8,0,0,0,7.7,3c2.6,6.7,2.1,20-4.6,25.8C6.7,216.5-3.2,237.5,13.1,246.2h.2c25.1,4.9,47.1-14.2,56-27.8s31.8-30.3,42.9-23.1a12.3,12.3,0,0,1,5.4,8.9c.4,5.3-3.7,8.7-9.3,13.3s-10.7,8.9-15.5,16.6c-7.2,11.7-15.6,36.1,6.8,35.8,8,0,19.1-3,33.1-9,27.5-12.1,49.4-36.2,64.5-58.3a4.9,4.9,0,0,0,6.2-1.9l6.1-9.7c11,1.6,21.6-1.7,30.8-9.3C258.8,174.9,269.7,149.9,263.4,131.4Zm-240.7,18c1.2,0,1.8,1.1,2.1,2L16.6,155l-.5-1a1.9,1.9,0,0,1,1-2.4C17.5,151.5,22.4,149.2,22.7,149.4Zm-5.5.7-1.6-3.8,3.1-1.3,1.6,3.8Zm-1.8-7.4c.5-.2,1.3-.7,1.8-.4s.8,1,1,1.4l-3.1,1.4C14.7,144.2,14.3,143.2,15.4,142.7Zm9.7,29.2a4.3,4.3,0,0,1-2.4-2.4l-5.6-13.2,8.2-3.6L30.9,166C32.5,169.5,28.6,173.5,25.1,171.9ZM256,116.1a38.3,38.3,0,0,1,2.2,5.6,18.8,18.8,0,0,0-3.4-3.5,38.3,38.3,0,0,0-3.6-6.3l.9-2A36,36,0,0,1,256,116.1Zm-5.6-2.9a32.8,32.8,0,0,1,2,3.1l-2.8-1.6A10.9,10.9,0,0,0,250.4,113.2Zm-2.5-81.8c16.1,22.5,16.2,55,.5,82.8-6.2-2.8-13.1-2.6-19.7,0,12.5-26,16.4-51.3,11-77.2a53,53,0,0,0-15.4-24,64.8,64.8,0,0,0-5.6-4.3A67.6,67.6,0,0,1,247.9,31.4ZM210.2,180.6c-31-15.8-18.3-64.2,13.5-70.3-.2.7-1.3,1.7-.4,2.2l4.3,2.1c-17.9,7.3-28.2,31.8-22,49.9,3.1,9.8,10,16.7,19.3,18.7A29.6,29.6,0,0,1,210.2,180.6ZM81.4,105a43.4,43.4,0,0,1,36.7-34c-25.6,11.6-37.7,53.5-21.8,77.3A45.1,45.1,0,0,1,81.4,105ZM159,89.8c4,10.3,4.4,22.6,1,34.7-8.3,29-35.6,47-56.5,30l-1.2-1c-22-21.2-11.1-66.8,14.4-80.3C133.2,63.6,152.3,71.3,159,89.8Zm14-74.5c-23.7,16.2-30.6,42.8-32.5,53.8a28.6,28.6,0,0,0-15.9-.5c-.2-.1-.8.1-1,.1,1-6.9,7-39.7,35.4-54.7,4.4-2.3,17.3-9.2,32.2-7.6A71.5,71.5,0,0,0,173,15.3Zm63.5,53.9a108,108,0,0,0-2.6-32c-5.8-16.7-22.6-29.7-39.5-31.7s-31.2,4.8-36.1,7.4c-29.2,15.5-35.2,49.1-36,56l-4.2.7c2.3-30,27.1-72,76.9-68,18.7,1.5,37.8,15.8,43.4,35.7,5.3,25.4,1.6,50.3-10.7,75.8l-3.2-1.5A106.8,106.8,0,0,0,236.5,69.2ZM183.6,170.5c-16.9-30.7,8-79.3,45.3-72.2a97.5,97.5,0,0,1-4.5,10.5c-31.3,5-46.4,50.9-19.1,70.4l-4.8,7.8A36.9,36.9,0,0,1,183.6,170.5Zm18.7,29.6a3.6,3.6,0,0,1-6.6-1.1,3.7,3.7,0,0,1,.5-2.7L206.4,180a25.9,25.9,0,0,0,6.5,3.1Zm8-10.3,4-6.3a30.9,30.9,0,0,0,15.4.3,26.3,26.3,0,0,0,6.8-.8C228.4,188.6,219.3,191,210.3,189.8Zm50.6-31.6c-5.6,15.8-23,28.9-39.1,22.7-7-2.7-12.4-8.7-15-16.8-5.6-16.2,3-38.4,18-46.6,9.3-5.6,20.8-5.5,29,1.5h.1C264.6,128.4,266.2,144.7,260.9,158.2Z" fill="#606060"/><path d="M247.5,138.6c-6.8-5.6-16.2-2.3-19.3,4.2-6,9.1-1.4,20.1,8.2,21.4C248.7,168.4,258.7,144.1,247.5,138.6Zm-18.3,20.2c-3.2-4.1-3.1-10.2.1-15.3,1.6-3.6,8-8.5,14.6-5.5-9.3.7-16.3,16.7-10.4,23.9A12,12,0,0,1,229.2,158.8Zm20.3-4.1c-7,15.1-21.6,8.7-15.3-6.7S255.9,138.8,249.5,154.7Z" fill="#606060"/><path d="M130.6,109.1l4.5-5.9c.5-.7-.6-1.5-1.1-.8l-4.2,5.6-2.6-3.4,3.5-4.7c.5-.7-.6-1.5-1.1-.8l-3.2,4.4-3.2-4.4a.7.7,0,0,0-1.1.8l3.5,4.7L123,108l-4.2-5.6c-.5-.7-1.6.1-1.1.8l4.5,5.9-2.6,3.5-5.2-7c-.5-.7-1.6.1-1.1.8l5.5,7.3-5.5,7.3c-.5.7.6,1.5,1.1.8l5.2-7,2.6,3.5-4.5,5.9c-.5.7.6,1.5,1.1.8l4.2-5.6,2.6,3.4-3.5,4.7a.7.7,0,0,0,1.1.8l3.2-4.4,3.2,4.4c.5.7,1.6-.1,1.1-.8l-3.5-4.7,2.6-3.4L134,125c.5.7,1.6-.1,1.1-.8l-4.5-5.9,2.6-3.5,5.2,7a.6.6,0,1,0,1-.8l-5.4-7.3,5.4-7.3a.6.6,0,1,0-1-.8l-5.2,7Zm-4.2-3.4,2.6,3.4-2.6,3.5-2.6-3.5Zm-6,8,2.6-3.4,2.6,3.4-2.6,3.4Zm6,8-2.6-3.4,2.6-3.5,2.6,3.5Zm3.4-4.6-2.6-3.4,2.6-3.4,2.6,3.4Z" fill="#606060"/></g></svg>