<svg id="f5d946e4-3848-428c-ac6b-92aed87548ae" data-name="Layer 1" xmlns="http://www.w3.org/2000/svg" viewBox="0 0 270 270"><path d="M134.8,0h.1c-22.3,1.1-32.1,26.2-28,48.1l23.3,107.4-1.7.8c-1.1.2-1.5,98.6-1.9,99.1A8.6,8.6,0,0,0,131,263c-.4,9.6,11,9.1,10.4,0a8.7,8.7,0,0,0,4.3-7.6l-2.5-98.5c-.3-1.1-1.6-1.1-2.8-1.7L163.2,48.3C167.1,25.4,156.7.7,134.9,0m-.1,1.5h.1c6.5,3.3,7.7,29.9,7,46.7l-6.5,99.9C136,123.9,118.9,17,134.8,1.5Zm0,0Zm-2.9.5c-5.8,11.6-5.7,27.1-5.2,45.9l7.7,106.6h-.3L117.6,47.8C115.9,29.5,118,8.9,131.9,2Zm4.6,152.4C136.4,125,151.1,26,137.8,2c12.7,5.3,16.7,26.7,14.8,46.1L136.7,154.4ZM134.8,0h0M108.3,47.8c-3.2-18.8,2.8-38.2,19-44.9-10.7,9.8-13,26.8-11.2,45.1l16.6,106.7-1.1.3Zm30.5,219.4c-2.5,3.1-6.4.5-6.4-3.5a10,10,0,0,0,7.6,0A5.5,5.5,0,0,1,138.8,267.2Zm5.4-11.8c0,9.9-15.9,10-16.1.1l1.5-98.1c2.5-1.9,9.9-1.8,12.1,0ZM142.4,2.8c15.4,5.8,22.7,25.7,19.4,45.2L139,154.8l-.9-.2L154,48.3C156.2,29.5,151.6,10,142.4,2.8Z" fill="#606060"/></svg>