<svg id="f9e6875e-3617-4389-875e-4a7a263301ed" data-name="Layer 1" xmlns="http://www.w3.org/2000/svg" viewBox="0 0 270 270"><path d="M62.8,102.9c-.3-.1-.7-.1-.8.2l-2.4,3.5a.7.7,0,0,0,.2.9.6.6,0,0,0,.8-.2l2.3-3.5A.6.6,0,0,0,62.8,102.9Z" fill="#606060"/><path d="M51.6,92.7a.7.7,0,0,0-.9.2l-2.2,3.3a.6.6,0,1,0,1,.7l2.2-3.4A.6.6,0,0,0,51.6,92.7Z" fill="#606060"/><path d="M170.9,42.5c-6.4-14.3-27.1-15.2-35-1.8l-3.1,5.1a11.7,11.7,0,0,0,1,13.8l28.7,37.1a10.1,10.1,0,0,0,17.8-5.8,101.1,101.1,0,0,0-9.4-48.4Zm8.2,48.3c-.2,7.9-10.9,11.3-15.7,5.1l-28.7-37a10.7,10.7,0,0,1-.9-12.5l3.1-5.1a18.8,18.8,0,0,1,17.2-9A18.5,18.5,0,0,1,169.9,43,100.9,100.9,0,0,1,179.1,90.8Z" fill="#606060"/><path d="M164.3,118.2,65.1,53.8a.8.8,0,0,0-1,.2.7.7,0,0,0,.2,1.1l99.1,64.4C164.2,120.1,165.2,118.8,164.3,118.2Z" fill="#606060"/><path d="M71.1,46.9,96.2,63.3c.7.4,1.3-.6.7-1L71.7,45.9C71.1,45.5,70.4,46.5,71.1,46.9Z" fill="#606060"/><path d="M73.5,43.9,98.4,60c.6.5,1.3-.5.6-1L74.2,42.9C73.5,42.5,72.9,43.5,73.5,43.9Z" fill="#606060"/><path d="M76.1,40.9l24.4,15.9h.3a.6.6,0,0,0,.3-1.1L76.7,39.9C76.1,39.5,75.4,40.5,76.1,40.9Z" fill="#606060"/><path d="M78.6,38l23.7,15.3h.3a.6.6,0,0,0,.3-1.1L79.3,37C78.6,36.5,78,37.5,78.6,38Z" fill="#606060"/><path d="M199.2,174.6c4.6-1,8,2.1,12.8,6.5s9,8.3,16.4,11.5,22.1,7.2,28.1.8c7.3-8.9-1.9-25.9-9.5-39-14.1-22.6-37.7-38.8-59-49.3C223.9,26.8,120.7-42,68.1,31L57.2,47.7a14.9,14.9,0,0,0,4.4,20.5l3,2-11.9,18a3.6,3.6,0,0,0-3.3,1.6l-4,6-2.5-1.7a2.7,2.7,0,0,0-3.6.5L14.4,122.9a14.6,14.6,0,0,0,.9,20.1c.2.8,1.3,1.3,1.8,1.7s1.4,1.1,2.3,1.1l.6.2a15.1,15.1,0,0,0,4.6,9.8c.3.8,1.4,1.3,2,1.8s1.4,1.1,2.3,1.1a15.4,15.4,0,0,0,20-7.3l17.2-35.6a3,3,0,0,0-1-3.7l-2.7-1.8,4.2-6.3a3.5,3.5,0,0,0,.1-3.7L80,80.2l75.9,49.3a14,14,0,0,0,10.7,2,14.3,14.3,0,0,0,9-6.2c2.9-4.7,9.6-14.2,11.9-19.2,21,10.4,44.6,26.5,58.5,48.9,11.3,18.8,14.8,32.1,9.7,37.6s-18.9,2.4-26.8-1.1-12.2-7.7-16.1-11.3-8.7-7.9-13.9-6.8a11.6,11.6,0,0,0-7.9,6.5c-5.5,11.2,12.4,30.2,26,36.3s31.7,22.5,30.6,44.5c-5.4,14.7-25.8,7.4-43.1-6.5h-.2c-6.9-3.3-17.6-2.1-22.9,1.1a5.4,5.4,0,0,0-6.4-1.8,1.4,1.4,0,0,0-1.7-.4c-.6.3-1.4.5-1.6,1.2s.9,2.7,1.2,3.5l-2.1,1a.5.5,0,0,0-.3.7.6.6,0,0,0,.8.3l2-.9h.1l1.1,2.4-2.9,1.3a.6.6,0,0,0-.3.8.5.5,0,0,0,.8.2l2.9-1.3c.6,1,1.2,3.1,2.1,3.3s1.3-.2,1.9-.4h0a1.6,1.6,0,0,0,.8-1.7,5.8,5.8,0,0,0,2.2-7.2c5.4-3.2,17.8-4.7,23.8.6,17.7,13.4,37.3,19.5,43,4.2v-.2c1.2-22.6-18.3-39.6-31.2-45.7a60.5,60.5,0,0,1-13.8-9.3C191.5,194.4,185.1,179.4,199.2,174.6ZM65.6,70.8l.9.6L54.7,89.1l-.8-.5ZM63.8,98.3a3.9,3.9,0,0,0-3.4,1.6l-4.2,6.4-1.5-1.1a2.8,2.8,0,0,0-.8-3.8l-2.6-1.7,4-6a3.6,3.6,0,0,0,.2-3.6L67.4,72l9.7,6.3Zm1.1,1.6a.8.8,0,0,1,.4.4c-.3.3-.8,1.6-1.4,1.2s.3-1.4.5-1.9ZM54.5,114.3l-7.4,6.6,7.1-14.6,2.3,1.6C55.8,110.1,55.2,112.2,54.5,114.3Zm3-5.8,2.1,1.4-3.4,2.9C56.7,111.4,57.1,109.9,57.5,108.5ZM25.7,145.9a12,12,0,0,1-3.8-.5c6.4-1.8,12.8-14.1,17.9-27.3l10.9-12.3a1.7,1.7,0,0,1,2.5-.1l-8.5,17.4C36.7,130.8,29.1,139.1,25.7,145.9Zm17.6-19.7-5.9,12.1a13.4,13.4,0,0,1-10.3,7.5C29.8,140.6,35.3,133.9,43.3,126.2ZM49.7,100l3.5,2.4a1.6,1.6,0,0,1,.5,2.2,2.8,2.8,0,0,0-3.9.4L41,115c1.4-3.7,2.6-7.4,3.8-10.9Zm-4.2,2,1.2-4,1.9,1.3Zm7.1-11.5.6-1,.8.6-.6,1C53.1,91.6,52.2,91.1,52.6,90.5Zm-2.2-.1a2.7,2.7,0,0,1,1.5-1c-1.9,2.3,1.4,4.5,2.8,1.9a2.1,2.1,0,0,1-.4,1.7l-3.8,5.8-3.9-2.6ZM14.6,140.5a13.5,13.5,0,0,1,.7-16.8L40.2,95.3a1.5,1.5,0,0,1,2-.2l3.4,2.3c-.6,2.1-1.2,4.1-1.9,6.1C30.3,115.1,13.7,131.5,14.6,140.5Zm5.3,4-.8-.2a7.8,7.8,0,0,1-2.4-1.6c-4.1-6.4,6-19,26.3-37.1-1.4,4.3-2.8,8.3-4.2,11.9L23.7,134.7A15.6,15.6,0,0,0,19.9,144.5Zm4.7-9,12.9-14.8c-5.9,14.5-11.6,22.8-16.4,23.7A14.2,14.2,0,0,1,24.6,135.5Zm-.7,17.8a15,15,0,0,1-2.7-6.8,13.4,13.4,0,0,0,4,.6A12.6,12.6,0,0,0,23.9,153.3Zm5.5,4.1-.8-.2a8.5,8.5,0,0,1-2.5-1.7c-1.7-2.2-1.3-4.8.4-8.5a14.6,14.6,0,0,0,12-8.1l7.2-15.1c2.5-2.3,5.2-4.8,8.1-7.3C45,143.3,36.2,158.1,29.4,157.4Zm35.1-44.3a1.7,1.7,0,0,1,.5,2.1L47.8,150.9a14.1,14.1,0,0,1-16.4,7.4c9.2-2.4,18.3-25.4,24.1-43.3l5.2-4.4Zm1.1-9.7-4,6-4.2-2.8,4-6A2.5,2.5,0,0,1,63,99.5c-2,2.4,1.5,4.8,2.9,2A2.2,2.2,0,0,1,65.6,103.4Zm.4-4.1-1-.7L78.1,78.9l.9.6Zm116.4,13.4-7.8,12a12.8,12.8,0,0,1-8.2,5.6,12.6,12.6,0,0,1-9.8-1.8L62.2,67.2h0a13.7,13.7,0,0,1-4-18.9L69.1,31.6A66.6,66.6,0,0,1,161,12.1C194.4,33.8,204.3,79,182.4,112.7ZM178.5,264l-.9.4h-.3l-4.5-9.5v-.2c0-.2.9-.5,1-.6s.3,0,.3.2l4.5,9.5C178.7,263.8,178.6,263.9,178.5,264Zm.8-1.7-3.7-7.9A4.4,4.4,0,0,1,179.3,262.3Z" fill="#606060"/></svg>