<svg id="Layer_1" data-name="Layer 1" xmlns="http://www.w3.org/2000/svg" viewBox="0 0 270 270"><defs><style>.cls-1{fill:#efe8f2;}</style></defs><g id="Frosting_Squirt" data-name="Frosting Squirt"><path class="cls-1" d="M28.73,132.63a16.74,16.74,0,0,1-.19-3.39.55.55,0,0,0-.5-.57h0a.54.54,0,0,0-.4.15.55.55,0,0,0-.18.38,18.25,18.25,0,0,0,.21,3.62,17.52,17.52,0,0,0,9.63,12.93.5.5,0,0,0,.21,0h.11a.56.56,0,0,0,.42-.31.61.61,0,0,0,0-.42.57.57,0,0,0-.29-.32A16.42,16.42,0,0,1,28.73,132.63Z"/><path class="cls-1" d="M52.44,107.49a17.5,17.5,0,0,0-3.62-.14.6.6,0,0,0-.38.19.55.55,0,0,0-.14.4.56.56,0,0,0,.59.52,17.51,17.51,0,0,1,3.39.12,16.41,16.41,0,0,1,12.3,8.77.55.55,0,0,0,.46.3h.11a.41.41,0,0,0,.18,0,.53.53,0,0,0,.27-.32.58.58,0,0,0,0-.43A17.51,17.51,0,0,0,52.44,107.49Z"/><path class="cls-1" d="M269.9,186a.6.6,0,0,0-.84-.09c-1.28,1-5.94,4.31-6,4.34a15.42,15.42,0,0,1-21-2.7,25.88,25.88,0,0,0-36.66-3.41l-5.17,4.34a16.8,16.8,0,0,1-23.64-2.06l-8.2-9.76a18.21,18.21,0,0,0-27.54-.37l-11.63,13.13a10.89,10.89,0,0,1-15.2,1l-2.74-2.37,1.19-1.22a.55.55,0,0,0,.06-.72s-17.3-23.5-17.39-23.54L69.86,112.5a20.07,20.07,0,0,0-19.58-11l-16.49,1.32a.5.5,0,0,0-.35.16l0,0-3.95-3.87a.6.6,0,0,0-.39-.16.54.54,0,0,0-.39.17l-.87.89L17.11,76a.53.53,0,0,0-.58-.32.56.56,0,0,0-.48.47l-.94,6.94a1.62,1.62,0,0,1-.86,1.24,1.64,1.64,0,0,1-1.51.05L7.64,82a.56.56,0,0,0-.73.77l3.33,6.13a1.2,1.2,0,0,1-1.3,1.75L3.23,89.47a.57.57,0,0,0-.59.26.54.54,0,0,0,.06.64l5,6a2.11,2.11,0,0,1-1.32,3.45H6.33l-5.83.6h0a.55.55,0,0,0-.48.49.56.56,0,0,0,.38.58l19.72,6.42-.53.54a.55.55,0,0,0,0,.78l4,3.87-.24.25a.52.52,0,0,0-.16.36l-.77,16.6a20.11,20.11,0,0,0,11.32,19L84.48,174h0a.54.54,0,0,0,.21.05h.09l23.46,16.48h0a.55.55,0,0,0,.28.09h.11a.58.58,0,0,0,.32-.16l1.6-1.64,2.79,2.42a12,12,0,0,0,16.76-1.11l11.64-13.12a17.07,17.07,0,0,1,25.85.34l8.2,9.77a17.92,17.92,0,0,0,25.2,2.19l5.17-4.34a24.78,24.78,0,0,1,35.09,3.27,16.51,16.51,0,0,0,22.46,2.89s4.22-2.84,6-4.35C270.08,186.52,270,186.2,269.9,186ZM91.33,166,70,136.43a.55.55,0,0,0-.78-.13.57.57,0,0,0-.12.78s21.36,29.61,21.48,29.67L88,169.37c-.56-1.09-27.13-18.72-27.13-18.72a.56.56,0,0,0-.77.14.55.55,0,0,0,.14.77L87.09,170a.53.53,0,0,0,.24.08l-2.73,2.78L34.17,148.38a19,19,0,0,1-10.7-18L24.23,114l9.85-10.06,16.29-1.31A19,19,0,0,1,68.87,113L94.2,163.06Zm3.59-2.05,16.49,22.47-2.91,3-22.8-16ZM24.16,112.18l-3.41-3.33,8.31-8.49,3.41,3.34ZM9.09,98.94a3.16,3.16,0,0,0-.51-3.28l-4-4.79,4.16.85a2.31,2.31,0,0,0,2.49-3.37L8.69,83.71l3.57,1.69a2.8,2.8,0,0,0,2.52-.07,2.77,2.77,0,0,0,1.43-2.08l.68-5,9.81,22.1L24.09,103l-9.2-9a.55.55,0,0,0-.39-.16.56.56,0,0,0-.39.17.51.51,0,0,0-.16.39.52.52,0,0,0,.17.39l9.19,9-3,3L3.21,101.27l3.23-.34A3.15,3.15,0,0,0,9.09,98.94Z"/></g></svg>