<svg id="Layer_1" data-name="Layer 1" xmlns="http://www.w3.org/2000/svg" viewBox="0 0 270 270"><defs><style>.cls-1{fill:#efe8f2;}</style></defs><g id="Measuring_Spoons" data-name="Measuring Spoons"><path class="cls-1" d="M269.73,83.17c-.36-5.24-2.59-9.3-6.27-11.45C251.2,64.51,234,82.83,234.6,97.18a18,18,0,0,0-6.86,4.21l-5.42.4-124-24.18c-3.67-.83-7.52.12-11,1.4-9.24-23.29-50.54-31.1-72.65-16.6C-10,77.47-1.18,105.86,26.05,115c-17.26,20.45,6.08,44.76,32.81,44.42-9.58,14.13,3,30.55,21.9,34.7,18.67,4.81,41.92-8.2,32.5-27.58.12-2.31,1.2-4.56,3.53-5.35L186,136.27,152.9,164c-.88.73-4.94,8.13-5.32,12.52-12.68-5.35-32.62-2.27-36.05,12.21-2.34,10.79,7.57,22.14,22.11,25.3,11.84,3,28.74-1.5,30.91-16.22.57-3.86-1-7.85-3.65-11.47,1.32-2.35.46-9.25,3.93-11.27L244,118.3a14.3,14.3,0,0,0,4.94-6.74C260.29,110.83,270.91,94.6,269.73,83.17ZM113,175.23c-2.15,3.54-5.9,6.25-11.09,7.79a1.16,1.16,0,0,0,.2-1.45c-5.61-9.71-20.78-9.67-26.44,0-9.77-3.79-14.75-9.83-16.94-16.7C68,142.05,112.24,151.24,113,175.23Zm-12.15,8.11a40.94,40.94,0,0,1-22.9-1c5-7.79,17.49-7.59,22.15.47A1.16,1.16,0,0,0,100.83,183.34Zm3-28.23-.3.81a39.5,39.5,0,0,0-16.51-6.13c7.13-6.41,10-15.49,7.13-24.26a9.07,9.07,0,0,1,6.56-3.42l104.62-7.35-98.23,37A5.52,5.52,0,0,0,103.88,155.11ZM74.47,144.38c-6.43-11.45-24.28-11.51-31-.31C32.94,140.9,25,135,22.68,128a20.93,20.93,0,0,1,6.07-12.42,1.06,1.06,0,0,0,.7-.74c17.41-17,59-10.76,63.33,15.43C90.07,136.59,83.57,141.66,74.47,144.38Zm-2.39.66a54.17,54.17,0,0,1-26.2-.31C51.87,135.75,66.32,135.85,72.08,145ZM44.9,104.19a76.71,76.71,0,0,1-14.84-2c7.26-12,26.18-12.31,33.68-.38q-2.28.69-4.68,1.23A48.7,48.7,0,0,0,45,104.21Zm43,11.18a36.53,36.53,0,0,0-9.48-7c6.8-5.52,10.8-12.57,10.67-20.29a14.24,14.24,0,0,1,7.1-.21l77.52,17.57L96.4,111.18C93.16,111.26,90.34,113.42,87.93,115.37Zm-11.81-8.19a47.19,47.19,0,0,0-10.86-3.37c9.66-3.1,17.58-8.27,21.45-14C86.15,96.32,82.41,102.46,76.12,107.18ZM217,110.39l-3.88,1.46-112.49,7.9a11.07,11.07,0,0,0-7.36,3.36,26.78,26.78,0,0,0-3.77-6c2-1.59,4.38-3.57,7.09-3.63l125.62-9.36a.44.44,0,0,0,.3,0l2.14-.16Zm-126.2-30a14.22,14.22,0,0,1,7.06-.44l115.55,22.54-31.61,2.35-85-19.28a16.56,16.56,0,0,0-7.73.11,23.87,23.87,0,0,0-.93-4.41ZM15.89,64.42C38.31,49.5,83,59.51,86.58,85.28c-2.84,6.33-10,12.16-20.49,15.77-8.3-14.09-30.5-13.71-38.45.52h0C15,98.11,5.53,91.55,2.57,83.65,3.23,76.15,7.92,69.34,15.89,64.42ZM2.77,89c6.14,8.79,19.92,15.4,36.17,17.15a35.34,35.34,0,0,0-11.11,7C14,108.51,4.56,99.23,2.77,89Zm53,68c-17.1-1.28-30.7-11.36-32.92-23.47,12.79,18.74,56.17,21.21,69.81,1.73-.81,5.4-3.94,10.42-9,14.3-8.48-.43-17,1.79-22.84,7.55A45.44,45.44,0,0,1,55.81,156.93ZM81.26,191.8C67.65,188.88,57.93,179.21,58,169.38c6.74,16.54,40.75,23.94,54.17,10.57C108.68,189.57,95.37,194.84,81.26,191.8ZM116,159a7.54,7.54,0,0,0-4.52,4.55,28.41,28.41,0,0,0-5.9-6.15c.44-1.3,1-2.9,2.41-3.35l103.5-39-20.17,16.87Zm36.41,51.3c-13.74,6.87-38.21-2.72-38.82-17.46,7.19,13.85,34.36,19.81,47.25,9.95A16.73,16.73,0,0,1,152.4,210.26Zm-20.58-6.78c5-6.61,14-5.33,18.4,1.15A37.37,37.37,0,0,1,131.82,203.48Zm30.37-5.5c-1.92,3-5.84,5.21-10.71,6.38a1.16,1.16,0,0,0,.17-1.43c-4.67-8.07-17.25-8.17-22.13-.27-8.05-3.21-14.17-9-15.29-14.78C122.56,167.48,162.71,176.26,162.19,198Zm85-89.26a11.65,11.65,0,0,1-4.6,7.67l-79.14,56.76c-3.75,2.38-3.58,7.23-4.34,11a29.87,29.87,0,0,0-9.18-6.67c-.46-2.71,3.61-10.75,4.47-11.72,0,0,77-65.75,80.32-66.15a16.1,16.1,0,0,0,2,6.52,1.18,1.18,0,0,0,2-1.21,13.9,13.9,0,0,1-1.74-5.89A8.54,8.54,0,0,1,247.2,108.72Zm16.44-11c-3.51,6-8.89,10.35-14.14,11.5,1.41-7.35-5.26-13.69-12.51-12.55-.36-12.34,14.94-29.12,25.28-22.91C269.79,78.56,268.08,90.31,263.64,97.72Z"/><path class="cls-1" d="M154.72,174.47a1.18,1.18,0,0,0-1.33,2c1.3.68,3.2,2.94,4.23,1.44S155.86,175.45,154.72,174.47Z"/></g></svg>