<svg id="Layer_1" data-name="Layer 1" xmlns="http://www.w3.org/2000/svg" viewBox="0 0 270 270"><defs><style>.cls-1{fill:#efe8f2;}</style></defs><path class="cls-1" d="M137.84,267.58c.74-4.62,5.15-23.86,4.92-28.12V7.73a7.75,7.75,0,0,0-2.27-5.49C135.9-2.61,127,1,127.24,7.73V239.62a29.94,29.94,0,0,0,.49,5.42l4.14,22.51C132.39,270.76,137.27,270.87,137.84,267.58ZM135,2.27a5.48,5.48,0,0,1,5.46,5.46V23H129.54V7.73A5.47,5.47,0,0,1,135,2.27Zm5.46,23v7H129.54v-7ZM129.53,239.62V34.5h10.93v205c.15,3.71-1.84,11.52-2.45,15.21h-6.17C131.28,251,129.4,243.18,129.53,239.62Zm5.32,28.12a.71.71,0,0,1-.72-.61L132.26,257h5.3l-2,10.17A.71.71,0,0,1,134.85,267.74Z"/></svg>