<svg id="Layer_1" data-name="Layer 1" xmlns="http://www.w3.org/2000/svg" viewBox="0 0 270 270"><defs><style>.cls-1{fill:#efe8f2;}</style></defs><path class="cls-1" d="M268,190.29,202.5,41c-8.34-19-27.44-30.39-47.6-28.33L19.24,26.53C6.62,27.58-2.51,41.21.62,53.44l39,171.44c4.45,19.55,21.09,32.68,39.78,32.68a40.89,40.89,0,0,0,8.32-.86l164.34-34.41C265.89,219.73,274,202.93,268,190.29ZM251.75,220.7,87.41,255.11c-21,4.41-41.29-9-46.19-30.59L2.19,53.08c-2.87-11.3,5.52-24,17.22-24.94L155.06,14.29c19.45-2,37.9,9,45.95,27.37l65.5,149.28a21.8,21.8,0,0,1-.61,18.82A20.73,20.73,0,0,1,251.75,220.7Z"/><path class="cls-1" d="M106.19,190.52a34,34,0,0,0-22.43-5.92c-23,1.3-38,25.17-23.12,42l0,.13.08,0c11.18,13.19,36,13.39,48.27.78A23.47,23.47,0,0,0,106.19,190.52ZM62.11,225.81a12.4,12.4,0,0,1-.3-4.84c4.27-21.93,47.65-15.28,44,7.24C93.85,238.41,71.87,237.28,62.11,225.81Zm45.57.74c.8-11-10.55-19.1-21.27-20.41-11.66-2-26.77,4.39-26.31,17.11-11.75-17.13,5.51-37.65,26.53-37.14C109,185.57,125.51,209.09,107.68,226.55Z"/><path class="cls-1" d="M176.3,181.23a33,33,0,0,0-21.7-5.73c-22.24,1.26-36.72,24.36-22.37,40.67l0,.12.07,0c16.76,19.28,55.69,8.3,54.17-17.81C186,191.69,182.36,185.57,176.3,181.23Zm-42.6,34.15a12,12,0,0,1-.29-4.69c1.21-8.68,11.77-14.39,23.53-12.76,12.16,1.75,21,10.48,19,19.72C164.45,227.45,143.17,226.5,133.7,215.38Zm44.06.63c.69-9.25-8.32-18-20.59-19.68-13.57-1.8-25.74,5.31-25.47,16.49-11.24-16.55,5.41-36.28,25.67-35.81C179.07,176.52,194.82,199.2,177.76,216Z"/><path class="cls-1" d="M228.05,167.08c-20.38-2.36-37.26,16.23-26.82,33.42a.45.45,0,0,1,0,.11h0c11.65,19.73,49,17.1,52.11-7.57C254.65,180.21,243.27,168.56,228.05,167.08ZM202.82,200a11,11,0,0,1,.47-4.29c2.47-7.65,12.92-11.14,23.3-7.8,8.88,2.66,17.7,11.75,14,20.81C228.61,215.57,210.18,211.94,202.82,200Zm39.9,7.43c4-22.07-37.05-31.84-41.4-10.29-7-15.88,9.41-30.58,26.57-28.46C249.71,170.49,261,194.8,242.72,207.44Z"/><path class="cls-1" d="M73.78,177.12c37.92-4.28,34.37-49.81-3.69-48.27C48.85,130.06,35,152.13,48.72,167.72c0,0,0,.07,0,.11l.06,0C54.31,174.17,64.18,178,73.78,177.12Zm-1.07-46.75c21.68-.27,35.18,21.81,19.52,37.09.69-22.47-43.12-26.69-44-3.09C37.64,148.61,53.47,130,72.71,130.37ZM50.19,166.92a11.36,11.36,0,0,1-.28-4.45c3.93-20.12,43.75-14,40.47,6.62C79.58,178.4,59.11,177.49,50.19,166.92Z"/><path class="cls-1" d="M114.77,158.17h0c15.49,17.84,51.5,7.7,50.1-16.46-1-12.87-14.24-22.41-29.49-21.23-19.25.89-34.54,21.52-20.68,37.6C114.76,158.11,114.76,158.14,114.77,158.17Zm1.45-.89A10.92,10.92,0,0,1,116,153c4.31-20.05,42.64-12.68,39.07,6.38C144.59,168.35,124.83,167.5,116.22,157.28ZM138,122c20.9-.27,34,21,18.9,35.75.53-8.5-7.77-16.49-19.05-18.06-10.35-1.74-23.73,3.81-23.56,15.06C103.74,138.56,120.73,121.38,138,122Z"/><path class="cls-1" d="M175.56,131.76a19,19,0,0,0,2.83,11.85v.09h0c11.12,18.71,45.63,15.26,48.19-7C228,108,179.69,103.33,175.56,131.76ZM180,143.12a9.92,9.92,0,0,1,.44-3.92c6.5-16.91,40.25-5.57,34.31,11.92C203.9,157.38,186.67,154.1,180,143.12Zm36.85,6.7a10.36,10.36,0,0,1-.69,2.15,10.36,10.36,0,0,0,.69-2.15c3.71-19.43-33.52-29.73-38.33-9.54-6.25-14.57,8.84-27.89,24.54-26C223.06,116,233.38,138.24,216.82,149.82Z"/><path class="cls-1" d="M78.46,84.64a28.57,28.57,0,0,0-18.83-5C40.35,80.79,27.75,100.74,40.2,115c0,0,0,.07,0,.1l.05,0c5,5.68,12.47,8.56,20.31,8.58C83.38,124,97.57,98.69,78.46,84.64ZM62,81.19c18.43-.52,32.15,18.9,17.76,33.31-.09-20.92-39.34-23.27-40.06-2.83C30.47,97.39,44.76,80.82,62,81.19Zm-20.35,33a10.31,10.31,0,0,1-.25-4c1-7.43,10.1-12.33,20.22-10.93,8.6,1,18.19,7.94,16.3,16.87C68.19,124.32,50.32,124.05,41.68,114.22Z"/><path class="cls-1" d="M139.35,107c15.85-16.09-.42-37-20.53-34.94C100.15,73.12,88,92.53,100,106.24c0,0,0,.05,0,.08l0,0C109,117,129.58,117.24,139.35,107Zm-18.2-33.41c17.66-.49,31.06,18.1,17.19,32.12.33-7.67-7.17-14.83-17.35-16.25-9.35-1.56-21.35,3.38-21.43,13.48C90.72,89.18,104.51,73.22,121.15,73.59ZM101.5,105.47a9.89,9.89,0,0,1-.24-3.86c3.84-18.06,38.51-11.36,35.24,5.74C127.11,115.47,109.11,114.57,101.5,105.47Z"/><path class="cls-1" d="M155.11,82.36a17.3,17.3,0,0,0,2.56,10.77v.06h0c10.09,17,41.49,13.91,43.82-6.32C202.58,60.18,158.49,57.05,155.11,82.36Zm4.16,10.31a9.35,9.35,0,0,1,.37-3.54c5.67-15.2,36.42-4.9,31,10.72C180.84,105.48,165.34,102.53,159.27,92.67Zm33.41,5.87c2.9-17.52-30.18-26.68-34.88-8.73-5.35-13.1,8.2-24.89,22.26-23.17C197,67.76,208,87.34,192.68,98.54Z"/><path class="cls-1" d="M69.88,69.45C84.17,55.07,69.45,36.1,51.42,38,34.63,39,23.7,56.41,34.51,68.76a.07.07,0,0,1,0,0h0C42.52,78.47,61.09,78.67,69.88,69.45ZM36,68a8.86,8.86,0,0,1-.23-3.43c3.06-15.53,33.84-10.87,31.42,5.08C58.83,76.87,42.83,76.09,36,68Zm-4.15-9.29c-.95-10.27,9.72-19.35,21.66-19.18C69.14,39.1,81.16,55.46,69,68c-.14-17.23-33.31-20.5-34.94-2.53A15,15,0,0,1,31.86,58.72Z"/><path class="cls-1" d="M86.33,61.23h0c12.22,14.2,40.78,6.18,39.67-13-.78-10.2-11.25-17.71-23.33-16.82-16.25.93-26.83,17.82-16.37,29.77A.06.06,0,0,0,86.33,61.23Zm1.48-.81a8.67,8.67,0,0,1-.22-3.28C89.92,42.75,120.1,46.07,117.92,62,110,68.94,94.34,68.25,87.81,60.42ZM104.69,33c15.93-.28,26.27,15.91,15,27.39-.59-17.2-32.63-19.11-33.83-2.45C78.72,46.08,90.51,32.68,104.69,33Z"/><path class="cls-1" d="M140.94,50.07h0c5.38,9.65,21.72,12.92,31,6.06,14.27-9.87,5.66-29.16-11.4-30.56C146.71,23.71,133,36.78,140.93,50,140.94,50,140.93,50.05,140.94,50.07Zm1.6-.52a7.65,7.65,0,0,1,.32-3c5-13,31.07-4.3,26.61,9.19C161.07,60.75,147.27,57.63,142.54,49.55Zm17.88-22.38c15.22,1.18,23.54,18.11,11.11,27.27,2.21-15-26.06-22.89-30.37-7.6C136.62,35.24,149.29,25.57,160.42,27.17Z"/><path class="cls-1" d="M60.46,66,41.81,63.42a.81.81,0,0,0-.23,1.6l18.66,2.6A.81.81,0,0,0,60.46,66Z"/><path class="cls-1" d="M58.06,69.53l-14.9-2.08a.81.81,0,0,0-.22,1.6l14.89,2.08A.81.81,0,0,0,58.06,69.53Z"/><path class="cls-1" d="M113.23,58.17l-18.65-2.6a.8.8,0,0,0-.92.69.81.81,0,0,0,.69.91L113,59.78A.81.81,0,0,0,113.23,58.17Z"/><path class="cls-1" d="M110.83,61.69l-14.9-2.08a.81.81,0,1,0-.22,1.6l14.9,2.08A.81.81,0,0,0,110.83,61.69Z"/><path class="cls-1" d="M166,50.12l-18.65-2.6a.81.81,0,0,0-.23,1.6l18.66,2.6A.81.81,0,0,0,166,50.12Z"/><path class="cls-1" d="M163.63,53.63l-14.9-2.08a.81.81,0,0,0-.22,1.61l14.9,2.07A.81.81,0,0,0,163.63,53.63Z"/><path class="cls-1" d="M70.53,112.16l-20.3-2.83a.79.79,0,0,0-.91.69.81.81,0,0,0,.69.91l20.29,2.83A.81.81,0,0,0,70.53,112.16Z"/><path class="cls-1" d="M67.91,116,51.7,113.72a.81.81,0,0,0-.22,1.6l16.21,2.26A.81.81,0,0,0,67.91,116Z"/><path class="cls-1" d="M129.62,104.05l-20.29-2.83a.81.81,0,0,0-.22,1.6l20.29,2.83A.81.81,0,0,0,129.62,104.05Z"/><path class="cls-1" d="M127,107.87l-16.21-2.26a.81.81,0,0,0-.22,1.6l16.2,2.26A.81.81,0,0,0,127,107.87Z"/><path class="cls-1" d="M185.57,93.38l-20.3-2.83a.81.81,0,0,0-.22,1.6L185.34,95A.81.81,0,0,0,185.57,93.38Z"/><path class="cls-1" d="M183,97.2l-16.2-2.26a.81.81,0,0,0-.23,1.6l16.21,2.26A.81.81,0,0,0,183,97.2Z"/><path class="cls-1" d="M81.21,165.5l-21.84-3a.8.8,0,0,0-.92.69.81.81,0,0,0,.69.91l21.85,3A.81.81,0,0,0,81.21,165.5Z"/><path class="cls-1" d="M78.4,169.62,61,167.18a.81.81,0,0,0-.22,1.61l17.45,2.43A.81.81,0,0,0,78.4,169.62Z"/><path class="cls-1" d="M146.54,154.94l-21.85-3.05a.81.81,0,0,0-.22,1.61l21.84,3A.81.81,0,0,0,146.54,154.94Z"/><path class="cls-1" d="M143.72,159.05l-17.45-2.43a.79.79,0,0,0-.91.69.81.81,0,0,0,.69.91l17.45,2.44A.81.81,0,0,0,143.72,159.05Z"/><path class="cls-1" d="M209.74,144,187.9,141a.8.8,0,0,0-.92.69.81.81,0,0,0,.69.91l21.85,3A.81.81,0,0,0,209.74,144Z"/><path class="cls-1" d="M206.93,148.11l-17.45-2.43a.81.81,0,0,0-.22,1.6l17.45,2.43A.81.81,0,0,0,206.93,148.11Z"/><path class="cls-1" d="M95.34,226l-23.72-3.31a.81.81,0,0,0-.22,1.61l23.72,3.3A.81.81,0,0,0,95.34,226Z"/><path class="cls-1" d="M92.28,230.51l-18.94-2.64a.81.81,0,1,0-.22,1.6l18.94,2.64A.81.81,0,0,0,92.28,230.51Z"/><path class="cls-1" d="M166.12,214.57l-23.72-3.3a.79.79,0,0,0-.91.69.81.81,0,0,0,.69.91l23.72,3.31A.81.81,0,0,0,166.12,214.57Z"/><path class="cls-1" d="M163.07,219l-18.95-2.64a.81.81,0,0,0-.22,1.6l18.94,2.64A.81.81,0,0,0,163.07,219Z"/><path class="cls-1" d="M234.75,201.14,211,197.83a.81.81,0,0,0-.22,1.6l23.72,3.31A.81.81,0,0,0,234.75,201.14Z"/><path class="cls-1" d="M231.7,205.61,212.75,203a.81.81,0,0,0-.22,1.61l18.94,2.64A.81.81,0,0,0,231.7,205.61Z"/></svg>