<svg id="Layer_1" data-name="Layer 1" xmlns="http://www.w3.org/2000/svg" viewBox="0 0 270 270"><defs><style>.cls-1{fill:#efe8f2;}</style></defs><path class="cls-1" d="M132.17,191.06c20.57,9.56,47,4.85,62.93-11.62,35.35-35.11,9.91-96.36-39.94-96.2C94.18,84.22,77.54,165.9,132.17,191.06Zm23-104.53c28.68-.19,53.2,23.52,53.13,53,.62,28.53-24.5,53.69-53,53.13C84.83,189.85,84.76,89.49,155.16,86.53Z"/><path class="cls-1" d="M135.75,157.73c15.8,16.3,44.62,4.34,44.23-18.37.28-13.93-12-26.19-25.94-25.89C131.29,113.21,119.43,141.89,135.75,157.73Zm18.29-41c19.83-.34,30.27,24.81,16,38.61-13.78,14.26-39,3.86-38.64-16A22.64,22.64,0,0,1,154,116.76Z"/><path class="cls-1" d="M75.78,80.27c9.4,4.23,17.82-8,10.5-15.25C75.17,55.19,62.7,73.5,75.78,80.27Zm3.84-14.71c8,.11,8.06,12.09,0,12.24C71.58,77.68,71.58,65.68,79.62,65.56Z"/><path class="cls-1" d="M208.24,80.41a1.66,1.66,0,0,0,1.65,1.64L243,82a1.63,1.63,0,0,0,1.64-1.64V63A1.65,1.65,0,0,0,243,61.39l-33.14,0a1.64,1.64,0,0,0-1.64,1.64Zm33.13-15.73V78.74l-29.85,0V64.71Z"/><path class="cls-1" d="M265.73,207l-.1-113.14h1.07c1.46,0,3.3.1,3.3-1.65l0-27.53a20.22,20.22,0,0,0-20.19-20.16L81.25,44.7c-.2-2.07.81-5.52-1.65-5.59l-46.7,0c-2.47.08-1.44,3.52-1.64,5.59H20.16A20.2,20.2,0,0,0,0,64.94L0,92.47a1.66,1.66,0,0,0,1.65,1.64H5.89L6,207.25a23.67,23.67,0,0,0,23.68,23.64l212.42-.18C254.8,231,266,219.75,265.73,207ZM78,42.4v2.3H76.48L35,44.74h-.47v-2.3ZM3.31,90.82l0-25.88A16.9,16.9,0,0,1,20.16,48l229.63-.19a16.9,16.9,0,0,1,16.9,16.86l0,25.88-61.18.06a1.68,1.68,0,0,0-.83.25c-25.61-27.09-72.23-27.13-97.93-.14C106.71,90.67,3.41,90.85,3.31,90.82ZM109.19,93C150.43,51.76,221.25,81,221.35,139.33c.76,35.3-30.32,66.43-65.62,65.73C97.43,205.05,68.05,134.28,109.19,93ZM242.08,227.42l-212.41.18A20.39,20.39,0,0,1,9.28,207.24L9.18,94.1,103.82,94A68.44,68.44,0,0,0,86.7,139.44c-.72,37.08,31.93,69.69,69,68.91,59,0,90.76-70.17,51.72-114.42l54.89,0,.1,113.14C262.67,218,253,227.64,242.08,227.42Z"/></svg>