<svg id="Layer_1" data-name="Layer 1" xmlns="http://www.w3.org/2000/svg" viewBox="0 0 270 270"><defs><style>.cls-1{fill:#efe8f2;}</style></defs><path class="cls-1" d="M134.61,129.62l2.33,110a1,1,0,0,0,1.65.69c.91-.43-2.34-110.06-2-110.73A1,1,0,0,0,134.61,129.62Z"/><path class="cls-1" d="M130.78,255.66c-.11,6.3,8.27,9.73,12.61,5.26,4.93-4.44,1.42-13.18-5.3-12.89A7.48,7.48,0,0,0,130.78,255.66Zm13-.27c0,7.26-10.78,7.48-11.05.23C132.71,248.35,143.49,248.13,143.78,255.39Z"/><path class="cls-1" d="M127.82,0,108.63.44a6.54,6.54,0,0,0-4.76,2.09A6.75,6.75,0,0,0,102,7.37l2,96.26a6.81,6.81,0,0,0,6.93,6.64l13.41-.28.33,146.46a13.58,13.58,0,1,0,27.14-.58L146,109.53l15.42-.32a6.83,6.83,0,0,0,6.64-6.94l-1.38-65C166.62,16.8,148.24-.83,127.82,0ZM149.89,256c.66,10.26-12.56,16.15-19.74,8.78a11.51,11.51,0,0,1-3.5-8.29L126.32,110l17.69-.38ZM164.68,37.27l1.38,65a4.86,4.86,0,0,1-4.73,4.94l-50.41,1.07a4.89,4.89,0,0,1-5-4.74l-2-96.26a4.83,4.83,0,0,1,4.74-4.94L127.86,2C147.23,1.17,164.67,17.88,164.68,37.27Z"/><path class="cls-1" d="M138.9,7.86A1,1,0,0,0,138,9.58,37.8,37.8,0,0,1,157.76,42a1,1,0,0,0,1.64.69C160.38,28.44,151.28,14.64,138.9,7.86Z"/></svg>