<svg id="Layer_1" data-name="Layer 1" xmlns="http://www.w3.org/2000/svg" viewBox="0 0 270 270"><defs><style>.cls-1{fill:#efe8f2;}</style></defs><path class="cls-1" d="M209.27,245c-1.72-12.08-3.22-24.37-4.46-36.51-2.7-26.33-4.31-53.12-4.77-79.66a12.89,12.89,0,0,0,9-3.07c4.41-4,5.27-11.26,2-17.34l-9.16-14.34c-4.25-7.7-3.95-16.44.72-21.25A12.94,12.94,0,0,1,209,69.37l1.58.46c.32.33.64.68.95,1a32.28,32.28,0,0,1,6.24,11.3,30,30,0,0,0,3.5,7.21l.57.85a9.39,9.39,0,0,0,17.46-2.29.86.86,0,0,0-.38-.94l-4.21-2.58a.94.94,0,0,0-.67-.08.85.85,0,0,0-.63.81c0,.35-.13,3.45-1.8,4.38-1.31.72-3.91.22-6.16-2.12a9.62,9.62,0,0,1-2.29-4.51c-1.09-4.73-4-13-11-15.53a10.24,10.24,0,0,0-3.69-.6c-4.18.09-7.6,1.28-9.87,3.44-7.12,6.75-4.86,22.27,5.26,36.07.45.83.93,1.63,1.35,2.33a20.12,20.12,0,0,1,2,3.93,9.84,9.84,0,0,1,.06,6.59c-.88,2.44-5.06,5.09-11.09,5.2a77.34,77.34,0,0,1-22.82-35,74.78,74.78,0,0,1-3.18-18.56,3.88,3.88,0,0,0-2.83-3.59c.16-2.51,3.38-57.07-20.34-66A19.54,19.54,0,0,0,140,0a16,16,0,0,0-5,.77c-9.15,3-15.32,14.45-18.32,34.07A192.35,192.35,0,0,0,114.91,67a4,4,0,0,0-2.5,4c.48,8.34-.24,24.62-10.52,39.92a62.33,62.33,0,0,1-19.15,18.36c-8.44,0-18.77,1.2-23.84,6.57a.81.81,0,0,0-.35.38l0,0A11.26,11.26,0,0,0,57,138.64l0,.05a7.61,7.61,0,0,0-.34.81v0c-1.83,4.9.56,10.75,3.56,14.1a11.73,11.73,0,0,0,4.81,3.29,11.82,11.82,0,0,1,4.3,2.78,9,9,0,0,1,1.54,2.09c-1.83,6.59-7.19,11.89-13.05,12.89C50,176,42.11,170.92,39.3,162.88a7.66,7.66,0,0,0-2-3.23A8.2,8.2,0,0,0,35,158.18a.88.88,0,0,0-.32-.07,5.53,5.53,0,0,0-1.48.22,4.24,4.24,0,0,0-1.29.95,5.19,5.19,0,0,0-1.08,4.43.87.87,0,0,0,.62.66,4,4,0,0,1,1.93,1.19,4.26,4.26,0,0,1,.82,1.54A43.64,43.64,0,0,0,40,176.39a14.59,14.59,0,0,0,4,3.43,14,14,0,0,0,6.44,1.86,27.28,27.28,0,0,0,19.24-6.85,11.73,11.73,0,0,0,1.15-1.19A14.35,14.35,0,0,0,76,164.71c.7-5.65-2.36-11.33-7.82-14.47a28.73,28.73,0,0,1-5.68-4.78h0l-.08-.95a5.68,5.68,0,0,1,.27-1c2.2-5.67,13.93-6.24,18.78-6.23-1.5,16.33-2.67,32.83-3.47,49.14-1,20.86-1.52,42-1.43,62.88a6.14,6.14,0,0,0,3.1,5.29,116.43,116.43,0,0,0,27.8,11.49c42.07,11.24,79.92-4.47,98.74-14.83A6.07,6.07,0,0,0,209.27,245Zm-126-108.32a.85.85,0,0,0,0-.42c.18-1.89.35-3.77.54-5.66a64.06,64.06,0,0,0,19.52-18.76c10.56-15.72,11.3-32.42,10.81-41a2.27,2.27,0,0,1,2.09-2.42l3.92-.34a.93.93,0,0,0,.29.05.79.79,0,0,0,.42-.12l19.59-1.72a7.22,7.22,0,0,1,1.23,0l24.85,2.46a2.17,2.17,0,0,1,2,2.07,75.77,75.77,0,0,0,3.25,19c5.75,18.75,17.6,31.27,26.56,38.5.45,26.73,2.06,53.76,4.79,80.32,1.24,12.17,2.75,24.48,4.47,36.58a4.35,4.35,0,0,1-2.22,4.46c-18.59,10.24-56,25.77-97.47,14.68a114.58,114.58,0,0,1-27.39-11.32,4.43,4.43,0,0,1-2.23-3.81c-.09-20.84.39-42,1.42-62.79C80.5,170,81.69,153.26,83.22,136.71Zm-22.16,6.17c-.06.16-.12.33-.17.5a7.19,7.19,0,0,1-1.25-4.95A5.68,5.68,0,0,1,60,137.2C64.69,132,75.2,131,82,131c-.15,1.52-.29,3-.44,4.57C75.69,135.52,63.62,136.27,61.06,142.88Zm8.6,29.56a.9.9,0,0,0-.22.26,9.41,9.41,0,0,1-.83.84,25.44,25.44,0,0,1-6.87,4.37A25.71,25.71,0,0,1,50.57,180a12.73,12.73,0,0,1-9.26-4.71,42.14,42.14,0,0,1-5.53-8.76,5.58,5.58,0,0,0-1.13-2.07,5.51,5.51,0,0,0-1.42-1.16,5.74,5.74,0,0,0-.79-.38,3.21,3.21,0,0,1,.71-2.44,2.68,2.68,0,0,1,.64-.51,2.82,2.82,0,0,1,.7-.1,6.12,6.12,0,0,1,1.67,1.1,6,6,0,0,1,1.52,2.5c3.07,8.84,11.82,14.39,20.34,12.93,5.77-1,11.2-5.77,13.69-12a9.27,9.27,0,0,1,.17,2.17,9.81,9.81,0,0,1-2.2,5.87Zm3.94-5.83a11.1,11.1,0,0,0-3.23-8.22,13.35,13.35,0,0,0-4.76-3.07,10.09,10.09,0,0,1-4.2-2.85c-2.53-2.83-4.59-7.62-3.43-11.74,1,5.51,7.76,10,9.29,11,4.87,2.81,7.61,7.83,7,12.79a11.08,11.08,0,0,1-.69,2.68Zm66.69-102-19,1.67C121,17.84,129.66,5.09,137,3l.6-.16a13.4,13.4,0,0,1,4.94.55c20,6.3,18,60.74,17.94,63.05v.07l-18.61-1.84A8,8,0,0,0,140.29,64.63Zm21.85,2a1,1,0,0,0,0-.17,190.66,190.66,0,0,0-1.58-31.21c-2.67-18.57-8.17-29.69-16.36-33.1a16.41,16.41,0,0,1,2.2.66c11.65,4.38,16.26,21.5,18.08,35.08A170.48,170.48,0,0,1,165.67,67Zm-42.58-.2-2.94.26c-.2-7.94-.51-48.65,13.77-61.26C123,14,119.38,34.42,119.56,66.45Zm89.36,53.26a11.64,11.64,0,0,0-.09-7.82,21.18,21.18,0,0,0-2.14-4.17l0-.08c-.43-.7-.86-1.42-1.34-2.28C197,94,192.66,78.21,199.79,71.45a11.24,11.24,0,0,1,5.68-2.66,14,14,0,0,0-4,2.87c-5.2,5.35-5.6,14.94-1,23.33l9.16,14.33c2.83,5.35,2.11,11.75-1.72,15.2a11.41,11.41,0,0,1-8.4,2.59c-.47-.37-.95-.77-1.43-1.17C203.35,125.39,207.76,122.92,208.92,119.71Zm12.53-36.42a11.26,11.26,0,0,0,2.73,5.31c2.54,2.64,6,3.67,8.24,2.43,1.65-.92,2.3-2.84,2.55-4.41l2.46,1.51a7.75,7.75,0,0,1-5.79,5.23,8,8,0,0,1-8.37-4l-.59-.9a28.68,28.68,0,0,1-3.31-6.79,33.87,33.87,0,0,0-6.57-11.9l-.37-.42C218.05,71.89,220.49,79.1,221.45,83.29Z"/><path class="cls-1" d="M109.59,155.2a85.27,85.27,0,0,0,1.54,17.89.88.88,0,0,0,.42.58.51.51,0,0,0,.17.07,114.16,114.16,0,0,0,67.16-.1.82.82,0,0,0,.51-.42.84.84,0,0,0,.06-.66c-.26-.83-.52-1.7-.77-2.58a105.08,105.08,0,0,1-3.79-32.55.85.85,0,0,0-.29-.67.82.82,0,0,0-.7-.21A210.4,210.4,0,0,1,119.17,138c-2.13-.22-4.31-.49-6.48-.79a.85.85,0,0,0-1,.66A85.35,85.35,0,0,0,109.59,155.2ZM113.24,139c1.9.26,3.84.49,5.75.69a212.45,212.45,0,0,0,54.14-1.28,107,107,0,0,0,3.9,32c.17.6.35,1.2.53,1.8a112.62,112.62,0,0,1-64.84,0,83.33,83.33,0,0,1,.52-33.26Z"/><path class="cls-1" d="M128.43,71.34l-8.56.75a.86.86,0,0,0-.78.93.84.84,0,0,0,.43.67.79.79,0,0,0,.5.11l8.56-.75a.86.86,0,0,0,.78-.93A.86.86,0,0,0,128.43,71.34Z"/><path class="cls-1" d="M150.33,72.73a.8.8,0,0,0,.34.11l8.55.85a.85.85,0,0,0,.94-.77.8.8,0,0,0-.19-.63.84.84,0,0,0-.58-.31l-8.55-.85a.87.87,0,0,0-.94.77A.85.85,0,0,0,150.33,72.73Z"/><path class="cls-1" d="M144.58,70.76a.87.87,0,0,0-.58-.3l-1.94-.19a6.77,6.77,0,0,0-1.35,0l-5.43.48a.86.86,0,0,0-.78.93.84.84,0,0,0,.43.67.94.94,0,0,0,.5.11l5.43-.48a5.06,5.06,0,0,1,1,0l1.94.19a.87.87,0,0,0,.94-.77A.92.92,0,0,0,144.58,70.76Z"/></svg>