<svg id="Layer_1" data-name="Layer 1" xmlns="http://www.w3.org/2000/svg" viewBox="0 0 270 270"><defs><style>.cls-1{fill:#efe8f2;}</style></defs><g id="Egg_Timer" data-name="Egg Timer"><path class="cls-1" d="M184.36,2c-13-1-30.53-1.71-49.3-1.86C73-.38,64.14.5,64.11,4a1.22,1.22,0,0,0,.44,1.1c.59,4.48,3,20.55,8.43,22.54a65.2,65.2,0,0,0,13.44,2.63l2,184.34c-6,3-10.26,6.14-12.41,9.06-.52.44-5.41,6-6.57,23.78a1.87,1.87,0,0,0,0,.34c4,18.78,61.85,22.06,64.43,22.19,2.46-.09,60.38-2.4,64.67-21.11-.39-17-5.81-24.62-6-24.56-2.13-3.52-6.81-7.12-13.58-10.35l4.16-181.45c5.77-.36,10.58-1,13.59-2.05,5.45-1.9,8.18-18.14,8.82-22.48C206.51,5.31,206.39,4,184.36,2ZM135,2.74c33.47.28,57.88,2.1,65.83,3.92C181.24,8.12,84.26,7,69.07,3.84,78.76,2.27,112.07,2.55,135,2.74ZM91,215.4h0L89,30.57c3.29.34,6.84.62,10.56.85l.9,58.35a3.15,3.15,0,0,0,0,1.43l1.81,117.44v2.18s0,.07,0,.1l.3,19.26c-.05,2-.92,3-5.75,3-2.75-.09-5.91-.08-5.7-3.33Zm60.8-177.61c6.6,2.25,12,11.38,14.94,19.26L166,86.92c-3.14-1-11.07-2.17-31-3.63-22.81-1.68-29.65-1.21-31.95-.44l-.38-24.58c3.35-8.6,10.22-18.73,16.49-20.76a9.44,9.44,0,0,0,5.7-5.14c7.46.11,13.57.14,21.49.33A9.21,9.21,0,0,0,151.84,37.79Zm-2.58-5c6,.11,12.17.22,18.18.2L167,50.86c-2.76-5.67-7.54-13.23-14.27-15.54A6.68,6.68,0,0,1,149.26,32.76Zm-1.42,82.91c-5,6.53-14.57,13.39-10.84,18.34,11.51,14.07,25.29,31.65,26.68,35.43l-.9,32.68c-6.66-4.3-24.13-12.24-24.35-12.3a17.64,17.64,0,0,0-5.61-.29c-.89-.1-3.9-.32-5.59.72-1,.6-13.64,6-22.44,9.76l-.45-28.74c1.73-4.48,22-30.27,28-37.3,3.93-4.86-6-12.24-11.23-19-7.63-8.5-17-19-18-24L103,86.64c5.58,3.14,25.21,6.44,29.27,6.54,4.67.14,29.12-.81,33.51-2.32C165.78,95.64,155.41,107.22,147.84,115.67ZM165.65,98l-1.83,66.55c-5.49-8.32-18.56-24.51-24.8-32.14a1.57,1.57,0,0,1-.14-1.81C144.41,122.19,160.61,106.6,165.65,98Zm-3,107v.33l-.25,6.42c-6,8.78-20.83,12.56-28.25,11.67-5.17.62-22.9-3.18-29.24-13,0-1.15,0-6.36,0-7.61,4.46-1.89,22.23-9.43,23.67-10.31.86-.54,3.06-.42,4.36-.34a15.7,15.7,0,0,1,4.78.19C139.34,192.77,159.42,202.8,162.7,205Zm-58.43-38.69-1.07-69c5.09,8.72,21.91,24.81,27.3,33.2a1.57,1.57,0,0,1-.17,1.81C126.69,136.6,110.57,156.72,104.27,166.29Zm1.1-81.3c2.84-.34,10.21-.51,29.37.89,17,1.26,24.76,2.26,28.24,2.94-7.2,1.13-25.67,1.84-30.61,1.75C126.38,90.43,110.48,87,105.37,85ZM118.28,35c-5.81,1.88-11.79,9.33-15.77,17.11l-.32-20.57c6.37.36,13.1.58,19.67.73A6.69,6.69,0,0,1,118.28,35ZM196,248.47c-3.48,13.8-46,18.34-62.07,18.93-16.15-.85-58.61-6.1-61.87-20a58.37,58.37,0,0,1,3.18-16.91c12.5,21.58,107.1,23.2,118,1.09A62,62,0,0,1,196,248.47Zm-4.63-20c-.07,8.25-23.12,16.9-57.31,16.61-32.62-.27-57.09-10.84-57-17.56,0-2.05,3.62-6,11.43-10.05l.13,12.33a5.55,5.55,0,0,0,1.36,4c1.63,1.69,4.42,1.94,6.93,2,2.67,0,8.24.07,8.37-5.57L105,214.53c6.52,7.48,20.1,11.77,29.09,11.46,9.93.69,21.25-2.76,28.3-10.23l-.4,14.66c-.29,4.77,4.23,6.09,8.28,6,2.68,0,8.25.07,8.38-5.52l.32-14C186.7,220.68,191.4,225.08,191.37,228.51Zm-14.94-13.76h0l-.36,16c-.05,2.05-.92,3-5.76,3-1.85,0-4.1-.16-5.07-1.17a2.76,2.76,0,0,1-.63-2.11l.7-25.24s0-.84,0-.86L170,33c3.61-.07,7.27-.12,10.56-.28ZM196,28c-4.64,1.84-18.1,2.14-24.72,2.29-16.12.13-32-.45-47.5-.58q-12.57-.24-22.32-.8a1.36,1.36,0,0,0-.45-.12c-.25,0-13.11-1.09-13.34-1-6.3-.71-10.93-1.58-13.74-2.62S68.48,14,67.32,6.13C92.4,10.58,194.79,10.43,202.83,9,201.55,16.85,198.79,27,196,28Z"/><path class="cls-1" d="M134.38,138.84a1.3,1.3,0,0,0-1.31,1.29l-.34,41.35a1.3,1.3,0,0,0,2.6,0l.34-41.35A1.29,1.29,0,0,0,134.38,138.84Z"/><path class="cls-1" d="M139.79,146.19l-.2,24.23a1.3,1.3,0,0,0,2.6,0l.2-24.23A1.3,1.3,0,0,0,139.79,146.19Z"/><path class="cls-1" d="M127.63,155a1.31,1.31,0,0,0-1.32,1.29l-.16,19.32a1.31,1.31,0,0,0,2.61,0l.16-19.32A1.31,1.31,0,0,0,127.63,155Z"/><path class="cls-1" d="M133.5,118.86a1.11,1.11,0,0,0,0,2.21A1.11,1.11,0,0,0,133.5,118.86Z"/><path class="cls-1" d="M141.72,199.62a1.11,1.11,0,0,0,0,2.21A1.11,1.11,0,0,0,141.72,199.62Z"/><path class="cls-1" d="M126.39,210.09a1.11,1.11,0,0,0,0,2.22A1.11,1.11,0,0,0,126.39,210.09Z"/><path class="cls-1" d="M117.81,206.78a1.11,1.11,0,0,0,0,2.21A1.11,1.11,0,0,0,117.81,206.78Z"/><path class="cls-1" d="M147.65,216.54a1.11,1.11,0,0,0-.38,2.18A1.11,1.11,0,0,0,147.65,216.54Z"/><path class="cls-1" d="M125,113.69a1.11,1.11,0,0,0,0,2.21A1.11,1.11,0,0,0,125,113.69Z"/><path class="cls-1" d="M131.46,112.14a1.11,1.11,0,0,0,0,2.21A1.11,1.11,0,0,0,131.46,112.14Z"/><path class="cls-1" d="M114.77,97.87a1.11,1.11,0,0,0,0,2.21A1.11,1.11,0,0,0,114.77,97.87Z"/></g></svg>