<svg id="Layer_1" data-name="Layer 1" xmlns="http://www.w3.org/2000/svg" viewBox="0 0 270 270"><defs><style>.cls-1{fill:#efe8f2;}</style></defs><path class="cls-1" d="M269.48,161.91c-3.36-21.86-23-38.15-45.05-37.81,14.15-48.49-36.89-92.23-82.22-68.38a61.35,61.35,0,0,0-35.42,33.76,38.37,38.37,0,0,0-33.67,4.16c-14.58,4-26.71,20.28-30.21,32.85-4,1.47-12,6.4-12,6.42h0c-.29.12-.54.26-.82.38l-.54.26c-47.74,22-34.76,86.17,18.2,87.44H222.11c22.15,0,42.3-16,45.43-38A43,43,0,0,0,269.48,161.91Zm-144-93.49a58.16,58.16,0,0,0-13.1,23.42c-1-.54-2.11-1-3.18-1.42A58.47,58.47,0,0,1,125.49,68.42ZM66.18,99.56c-6.28,6.66-9.81,17-10.36,24A50.61,50.61,0,0,0,46,125.47C49,116.45,56.61,105.13,66.18,99.56ZM222.11,218.4H47.76a48.85,48.85,0,0,1-17.67-3.24C-3.56,201.61-7,160,23.09,140c-20.77,22.36-11.09,57.9,17,68.47a49.35,49.35,0,0,0,18,3.3H225.71A44.94,44.94,0,0,0,261.49,194,43.86,43.86,0,0,1,222.11,218.4Zm3.6-9.21H58a44.29,44.29,0,0,1-31-12.07c-21.74-20-13.39-54.19,12.25-66.3a47.24,47.24,0,0,1,17.87-4.72,1.29,1.29,0,0,0,1.21-1.25c.22-7.72,5.54-22.78,16-28.92.39-.27.77-.54,1.18-.79a36.16,36.16,0,0,1,37-.25,1.31,1.31,0,0,0,1.91-.8c5.26-21.9,25-39.1,47.15-41.93,30.33-4.84,60.16,20.17,62.33,50.48.86,7.7-.46,15.44-2.55,23a1.23,1.23,0,0,0,1.34,1.07c23.65-1.45,44.93,18.16,44.68,41.95C267.66,191.1,248,209.39,225.71,209.19Z"/></svg>