<svg id="Layer_1" data-name="Layer 1" xmlns="http://www.w3.org/2000/svg" viewBox="0 0 270 270"><defs><style>.cls-1{fill:#efe8f2;}</style></defs><g id="Serving_Spatula" data-name="Serving Spatula"><path class="cls-1" d="M153,97.86a1.14,1.14,0,0,1,.18.6A1.14,1.14,0,0,0,153,97.86Z"/><path class="cls-1" d="M152.86,97.73s.1.08.13.13S152.9,97.78,152.86,97.73Z"/><path class="cls-1" d="M6.87,48.78A1.21,1.21,0,0,0,5.66,50v8.26a1.21,1.21,0,0,0,2.42,0V50A1.21,1.21,0,0,0,6.87,48.78Z"/><path class="cls-1" d="M13.5,52.76A1.21,1.21,0,0,0,12.29,54v8.25a1.21,1.21,0,0,0,2.42,0V54A1.21,1.21,0,0,0,13.5,52.76Z"/><path class="cls-1" d="M20.13,56.74a1.21,1.21,0,0,0-1.21,1.2V66.2a1.21,1.21,0,1,0,2.41,0V57.94A1.2,1.2,0,0,0,20.13,56.74Z"/><path class="cls-1" d="M216.71,199.69a1.21,1.21,0,0,0-1.21-1.21H142.35a1.21,1.21,0,0,0,0,2.42H215.5A1.21,1.21,0,0,0,216.71,199.69Z"/><path class="cls-1" d="M229.57,208.08h-56a1.21,1.21,0,0,0,0,2.42h56A1.21,1.21,0,0,0,229.57,208.08Z"/><path class="cls-1" d="M140.1,139.22l.8,33.48-19.05,13c-10,6.33-7.64,22.88,3.79,26.1L253.1,252.5c12.66,4.42,23.43-11.85,14.11-21.79l-60.14-67a34.46,34.46,0,0,0-44.88-5.46L156,162.45c0-.09.05-33.2,0-33.26a1.28,1.28,0,0,0-.18-.57c-.23-.31-5-7-5-7.05.67-.61,3.26-1.81,3.06-2.81l-.67-20.3s0,.06,0,.1a1.31,1.31,0,0,0-.36-.87l.07,0-.11-.08a1.24,1.24,0,0,0-.48-.31C143,91.47,23.08,19.21,23,19,14,13.18.81,19.27-.42,29.56-.52,30.42-.7,33-.7,33a5.62,5.62,0,0,0,0,.58v22a8.91,8.91,0,0,0,4.21,7.61C23.84,75.8,119,133.87,125,137.25h0A3,3,0,0,0,127,138l0,0a1.19,1.19,0,0,0,.68-.19l7.62-5.34.26.36h0Zm13.45-7.61v32.48l-10.27,7-.76-31.64Zm-4.17-12-3.19-4.49a1.2,1.2,0,0,0-1.68-.28l-13.46,9.55a1.21,1.21,0,0,0-.29,1.68l2.74,3.85h0l.38.55-6.37,4.47V117.11l23.32-16.34.58,17.41Zm2.75-22.3s0,0,0,0ZM7.37,21.56a13.15,13.15,0,0,1,14.36-.45l128,77.46L126.21,115,8.14,43.57C.12,39.05-.35,26.62,7.37,21.56Zm117.72,95.6v17.4C113.88,127.75,24,73.15,4.78,61.19a6.55,6.55,0,0,1-3.09-5.56V40.47a15.67,15.67,0,0,0,5.2,5.17Zm12,13.7h0l-1.06-1.49-2.64-3.72,11.49-8.15L153.08,129l-11.49,8.15ZM266.46,245.69a10.82,10.82,0,0,1-12.63,4.51L126.37,209.46c-9.55-2.64-11.58-16.55-3.16-21.8l40.34-27.45a32,32,0,0,1,41.72,5.08l60.14,67A10.83,10.83,0,0,1,266.46,245.69Z"/><path class="cls-1" d="M148.41,164.1a1.21,1.21,0,0,0,1.21-1.21V140.44a1.21,1.21,0,1,0-2.41,0v22.45A1.21,1.21,0,0,0,148.41,164.1Z"/></g></svg>