<svg id="Layer_1" data-name="Layer 1" xmlns="http://www.w3.org/2000/svg" viewBox="0 0 270 270"><defs><style>.cls-1{fill:#efe8f2;}</style></defs><g id="Color_Swatches" data-name="Color Swatches"><path class="cls-1" d="M255.09,106.92a17.56,17.56,0,0,0-5-12.6L208,50.7C198.87,41.08,185.26,45.64,178,55c5.87-12.42,10.2-27.54-5.69-34.37L121.66,1.07a17.65,17.65,0,0,0-21.83,8C95.46,4.87,41.25,7.76,35,7A20.15,20.15,0,0,0,14.86,27.08V249.35A20.15,20.15,0,0,0,35,269.47H90.82a20.14,20.14,0,0,0,19.68-16,1.85,1.85,0,0,0,.92-.45l38.43-37.16a1.8,1.8,0,0,0,1.14-1.1l74.37-71.9C231.47,135.29,256.33,118.2,255.09,106.92ZM120.29,4.61c67,29,70.47,9,42.67,78.82l-52-20V27.08A20.08,20.08,0,0,0,103,11.14,13.87,13.87,0,0,1,120.29,4.61Zm64.65,172.06-38.57-39.78L165.65,87a2.31,2.31,0,0,0,.2-.24l55.34,54.85Zm-35.77,34.59-22.36-23.73,2.39-6.19a1.78,1.78,0,0,0,1-2.64l14.65-37.91,37.34,38.52ZM126.79,177l-15.85-5.35V122.13l32.56,11.66Zm18.08-46.78L110.94,118.1V67.48L161.6,87Zm-33.93,45.43,14.49,4.89-2.34,6.06a1.83,1.83,0,0,0-.47,1.22l-11.68,30.22Zm-20.12,90H35a16.34,16.34,0,0,1-16.32-16.32V27.08A16.34,16.34,0,0,1,35,10.76c5.9.75,60.32-2.2,64.14,2.34a1.47,1.47,0,0,0,1,.6,16.3,16.3,0,0,1,7,13.38V228a1.85,1.85,0,0,0,0,1C107,242.61,110.9,265.16,90.82,265.67Zm20.12-17.46V228.6l14.35-37.15,21.15,22.44ZM223.92,139c-.51-.34-56.09-55.92-56.7-56l7.54-19.5c7.9-8,19.15-21.43,30.46-10.11L247.39,97a14,14,0,0,1-.33,19.66Z"/><path class="cls-1" d="M64.14,216.24c-19.18.1-19.18,29.23,0,29.33C83.32,245.47,83.31,216.34,64.14,216.24Zm0,25.54C50,242,50,219.83,64.14,220,78.24,219.84,78.24,242,64.14,241.78Z"/></g></svg>