<svg id="Layer_1" data-name="Layer 1" xmlns="http://www.w3.org/2000/svg" viewBox="0 0 270 270"><defs><style>.cls-1{fill:#efe8f2;}</style></defs><path class="cls-1" d="M232.1,72.91a.89.89,0,0,0-.4-.53L161.48,31.6l8.79-25.53A3.24,3.24,0,0,0,164.15,4l-8.38,24.32-6.67-3.87a1,1,0,0,0-.21-.09,10.27,10.27,0,0,0-7.93,1L95.19,51.78l-.1.06L80,43.43a3.25,3.25,0,0,0-4.4,1.26,3.2,3.2,0,0,0-.28,2.46,3.25,3.25,0,0,0,1.54,1.94l11.74,6.52L46.62,79.81A27.52,27.52,0,0,0,32.9,103.72L33.44,212a10.43,10.43,0,0,0,4,8.1l80.16,47.29a1.17,1.17,0,0,0,.33.11,12.19,12.19,0,0,0,1.34.91,10.29,10.29,0,0,0,10.38,0l88.6-51.43a38.06,38.06,0,0,0,18.9-32.82V81.79A10.3,10.3,0,0,0,232.1,72.91Zm-155-27.36a1.45,1.45,0,0,1,1.28-.75,1.43,1.43,0,0,1,.7.18l36.62,20.34a1.5,1.5,0,0,1,.7.88,1.47,1.47,0,0,1-2.12,1.68L77.67,47.54a1.46,1.46,0,0,1-.56-2ZM148.31,26l6.88,4-7.68,22.29a28.84,28.84,0,0,0-14-3.73h-.17a29.73,29.73,0,0,0-23.16,11.67L96.89,52.84l45-25.95A8.47,8.47,0,0,1,148.31,26Zm-15,24.32h.17c14.36,0,27,12,28.24,26.86A8.65,8.65,0,0,1,159.16,84a37.14,37.14,0,0,1-19.58,10.42C125.3,97,114,89.9,108.5,85.46a8.74,8.74,0,0,1-3.27-7,29.11,29.11,0,0,1,3-11.9l5.17,2.87a3.19,3.19,0,0,0,1.56.41,3.23,3.23,0,0,0,3.12-4.13,3.21,3.21,0,0,0-1.54-1.94l-4.82-2.68A27.94,27.94,0,0,1,133.33,50.32Zm-43,6.29L106.7,65.7a30.9,30.9,0,0,0-3.24,12.7,10.47,10.47,0,0,0,3.93,8.44c4.56,3.7,14,9.91,26.14,9.91a35.9,35.9,0,0,0,6.36-.57,38.86,38.86,0,0,0,20.52-10.9,10.44,10.44,0,0,0,3.1-8.25A31.62,31.62,0,0,0,153,56.2l7.89-22.89,65.56,38.07a10.51,10.51,0,0,0-4.95,1.41l-94.33,54.46a27.49,27.49,0,0,0-13.72,23.9L114,259.41a10.51,10.51,0,0,0,1,4.36L38.39,218.6A8.43,8.43,0,0,1,35.22,212l-.54-108.25A25.71,25.71,0,0,1,47.51,81.35Zm37.71,72.18,94.33-54.47a8.62,8.62,0,0,1,12.93,7.47V184.1a36.27,36.27,0,0,1-18,31.28l-88.6,51.43a8.62,8.62,0,0,1-13-7.41l-.54-108.26A25.71,25.71,0,0,1,128.06,128.79ZM168.59,5.5,151.55,55a30,30,0,0,0-2.49-1.76L165.83,4.54h0a1.49,1.49,0,0,1,.74-.84,1.46,1.46,0,0,1,2,1.8Z"/><path class="cls-1" d="M94.82,128.22l15.39,8.93a.83.83,0,0,0,.44.12.89.89,0,0,0,.77-.44.87.87,0,0,0,.09-.67.89.89,0,0,0-.41-.54l-15.38-8.94a.9.9,0,0,0-.68-.09.9.9,0,0,0-.63,1.09A.89.89,0,0,0,94.82,128.22Z"/><path class="cls-1" d="M41.12,95.28a.84.84,0,0,0-.53.41.87.87,0,0,0-.1.67.91.91,0,0,0,.42.54l49.35,28.67a.9.9,0,0,0,1.22-.32.87.87,0,0,0,.09-.67.89.89,0,0,0-.41-.54L41.8,95.37A.86.86,0,0,0,41.12,95.28Z"/><path class="cls-1" d="M125.43,258.08a9.26,9.26,0,0,0,9.31,0l78.56-45.6a33.86,33.86,0,0,0,16.8-29.18V92.55a9.32,9.32,0,0,0-14-8.07l-83.64,48.29a24.5,24.5,0,0,0-12.22,21.28l.48,96A9.23,9.23,0,0,0,125.43,258.08ZM122,154a22.7,22.7,0,0,1,11.33-19.73L217,86a7.54,7.54,0,0,1,11.31,6.53v90.72a32.06,32.06,0,0,1-15.92,27.64l-78.55,45.6A7.54,7.54,0,0,1,122.52,250Z"/><path class="cls-1" d="M130,230.75a2,2,0,0,0,1,.26,3.33,3.33,0,0,0,1.64-.5l8.78-5.07a7.76,7.76,0,0,0,3.52-6.1l0-12.58,8.2-4.73c11.32-6.54,20.51-22.57,20.49-35.74a26,26,0,0,0-.29-3.74c-.75-4.8-3-8.22-6.47-9.88-4.09-2-9.4-1.27-15,1.94l-19.61,11.33a7.75,7.75,0,0,0-3.52,6.1l.16,56.34A2.57,2.57,0,0,0,130,230.75Zm13.24-10.65a4.5,4.5,0,0,1-2,3.5l-8.78,5.06a1.11,1.11,0,0,1-1.85-1l-.15-56.35a4.43,4.43,0,0,1,2-3.49L152,156.46a18.67,18.67,0,0,1,9.15-2.81,10.42,10.42,0,0,1,4.58,1c3.14,1.5,5.16,4.6,5.83,8.94a23.28,23.28,0,0,1,.27,3.46c0,5.89-2,12.59-5.58,18.86h0c-3.6,6.29-8.36,11.36-13.41,14.27l-8.95,5.17a1.62,1.62,0,0,0-.54.56,1.6,1.6,0,0,0-.21.74Z"/><path class="cls-1" d="M143.67,193.09a.86.86,0,0,0,.39-.11l8.87-5.13a17.43,17.43,0,0,0,6.1-6.37,17.13,17.13,0,0,0,2.49-8.42c0-2.71-.93-4.72-2.6-5.66s-3.89-.73-6.23.62l-8.88,5.13a1.53,1.53,0,0,0-.54.56,1.49,1.49,0,0,0-.21.74l.05,18a.64.64,0,0,0,.28.59A.55.55,0,0,0,143.67,193.09Zm1.09-18.53,8.12-4.69c1.89-1.09,3.64-1.28,4.94-.53s2,2.33,2,4.48A15.35,15.35,0,0,1,152.74,186l-7.94,4.58Z"/><path class="cls-1" d="M181.42,201a2,2,0,0,0,1,.26,3.33,3.33,0,0,0,1.68-.52l23.18-13.38c6.54-3.77,12.48-11.08,15.51-19.08a29.7,29.7,0,0,0,2.11-10.37c0-5.46-2.19-9.52-5.93-11.18a31.74,31.74,0,0,0,3.15-12.94,15.73,15.73,0,0,0-1.26-6.41,8.8,8.8,0,0,0-5.37-5c-3.24-1-7.33-.3-11.5,2.11l-20.26,11.69a8,8,0,0,0-3.6,6.25l.16,56.16A2.64,2.64,0,0,0,181.42,201Zm35.71-53.77a1.16,1.16,0,0,0-.09.93.54.54,0,0,0,.31.32c3.65,1.25,5.84,5.06,5.86,10.19a26.66,26.66,0,0,1-1.92,9.39h0c-2.76,7.31-8.19,14-14.19,17.46l-23.18,13.38a1.4,1.4,0,0,1-1.37.16,1.37,1.37,0,0,1-.56-1.24l-.15-56.16a4.64,4.64,0,0,1,2.1-3.64l20.26-11.7a15.54,15.54,0,0,1,7.64-2.34,9,9,0,0,1,2.74.41,7.79,7.79,0,0,1,4.73,4.42,14,14,0,0,1,1.12,5.74A29.9,29.9,0,0,1,217.13,147.24Z"/><path class="cls-1" d="M208.93,162a4,4,0,0,0-4,.34l-9.61,5.55a1.62,1.62,0,0,0-.74,1.3l0,10.88a.62.62,0,0,0,.28.59.58.58,0,0,0,.26.06.89.89,0,0,0,.4-.11l9.61-5.55a12,12,0,0,0,5.47-9.48A3.92,3.92,0,0,0,208.93,162ZM205,164l.14.14a2.69,2.69,0,0,1,2.6-.25,2.58,2.58,0,0,1,1.16,2.43,8.74,8.74,0,0,1-4,6.87l-8.66,5,0-8.92,8.85-5.11L205,164Z"/><path class="cls-1" d="M194.84,156a.54.54,0,0,0,.25.06.89.89,0,0,0,.4-.11l6.92-4a12,12,0,0,0,5.46-9.47,3.47,3.47,0,0,0-5.69-3.25l-6.92,4a1.54,1.54,0,0,0-.53.57,1.43,1.43,0,0,0-.21.74l0,10.88A.61.61,0,0,0,194.84,156Zm1.38-11.36,6.16-3.55a2.29,2.29,0,0,1,3.79,2.15,8.75,8.75,0,0,1-4,6.87l-6,3.45Z"/></svg>