<svg id="Layer_1" data-name="Layer 1" xmlns="http://www.w3.org/2000/svg" viewBox="0 0 270 270"><defs><style>.cls-1{fill:#efe8f2;}</style></defs><path class="cls-1" d="M90.71,106.76c30,0,54.48-13.57,54.48-30.25S120.75,46.25,90.71,46.25,36.22,59.83,36.22,76.51,60.67,106.76,90.71,106.76Zm0-1.86c-15,0-28.52-3.39-38.12-8.83a78.16,78.16,0,0,1,75.39.47C118.44,101.7,105.25,104.9,90.71,104.9Zm0-56.78c29,0,52.62,12.73,52.62,28.39,0,7.28-5.1,13.92-13.47,18.95A80.07,80.07,0,0,0,50.74,95c-7.88-5-12.65-11.41-12.65-18.45C38.09,60.85,61.69,48.12,90.71,48.12Z"/><path class="cls-1" d="M123.57,124.46c0,16.68,24.44,30.25,54.48,30.25s54.48-13.57,54.48-30.25S208.09,94.2,178.05,94.2,123.57,107.77,123.57,124.46Zm54.48,28.39c-15,0-28.52-3.4-38.12-8.84a78.23,78.23,0,0,1,75.39.47C205.78,149.65,192.6,152.85,178.05,152.85Zm0-56.79c29,0,52.62,12.74,52.62,28.4,0,7.27-5.1,13.92-13.47,19a80.51,80.51,0,0,0-37.91-10.68l-2.06,0a80.76,80.76,0,0,0-39.09,10.17l0,0c-7.89-5-12.66-11.41-12.66-18.45C125.43,108.8,149,96.06,178.05,96.06Z"/><path class="cls-1" d="M269.33,179l-10.15-57.11a25.06,25.06,0,0,0-1.29-6.17A26.82,26.82,0,0,0,245,100.81L154,52.14a145.29,145.29,0,0,0-58.81-17.2c-41.53-2.88-73.31,8.41-82.94,29.48l-.08.17a25.08,25.08,0,0,0-2.12,8.2,1,1,0,0,0-.2.43L1,125.88a38.23,38.23,0,0,0,20,40.25l101.45,53.33a136.94,136.94,0,0,0,64.09,16H188a136.89,136.89,0,0,0,61-15.18,39.65,39.65,0,0,0,18.27-19.93,38,38,0,0,0,2.64-11.17A40,40,0,0,0,269.33,179ZM14,65.2c8.25-18.06,33.91-28.85,68.64-28.85,4,0,8.25.15,12.48.45a143.33,143.33,0,0,1,58.06,17l90.94,48.67a25,25,0,0,1,12,13.85,23.28,23.28,0,0,1,1.2,5.77c1.28,16.55-14.9,33.51-38.45,40.33a143.09,143.09,0,0,1-59.29,2.13l-.26-.05a104.85,104.85,0,0,1-32.94-11.79L24.29,95.46A23.19,23.19,0,0,1,14,65.2ZM268,189.07a36.27,36.27,0,0,1-2.51,10.62,37.76,37.76,0,0,1-17.41,19,134.09,134.09,0,0,1-124.8-.86L21.85,164.48a36.39,36.39,0,0,1-19-38.3l7.7-45.85A26,26,0,0,0,23.38,97.08l102.1,57.24a106.83,106.83,0,0,0,33.52,12l.27.05A142,142,0,0,0,184,168.53a149.34,149.34,0,0,0,35.36-4.33c20.87-6,36.14-19.9,39.3-34.68l8.84,49.79A38.07,38.07,0,0,1,268,189.07Z"/><path class="cls-1" d="M121.79,169.38,52,132.1a7.47,7.47,0,0,0-11,6.53l-.11,15.21a7.45,7.45,0,0,0,3.89,6.61l69.82,38.05a7.43,7.43,0,0,0,7.37-.12,7.4,7.4,0,0,0,3.67-6.38l.12-16A7.44,7.44,0,0,0,121.79,169.38Zm2,22.61a5.6,5.6,0,0,1-8.29,4.88L45.65,158.82a5.6,5.6,0,0,1-2.92-5l.11-15.2a5.61,5.61,0,0,1,8.25-4.91L120.91,171a5.61,5.61,0,0,1,3,5Z"/><path class="cls-1" d="M114.1,175.19,53.92,142.4a1.93,1.93,0,0,0-2.85,1.69v9.12a2.21,2.21,0,0,0,1.15,1.94l60.69,33.07a1.63,1.63,0,0,0,1.65,0,1.65,1.65,0,0,0,.81-1.43v-9.43A2.45,2.45,0,0,0,114.1,175.19Zm-.66,11.2L53.11,153.51a.34.34,0,0,1-.18-.3v-9.12a.09.09,0,0,1,0-.06h0l60.21,32.8a.61.61,0,0,1,.3.51Z"/><path class="cls-1" d="M84.29,82.44a.93.93,0,0,0,.93-.93V53.73a.93.93,0,1,0-1.86,0V81.51A.93.93,0,0,0,84.29,82.44Z"/><path class="cls-1" d="M177.39,131.15a.93.93,0,0,0,.93-.93V102.43a.93.93,0,0,0-1.86,0v27.79A.93.93,0,0,0,177.39,131.15Z"/></svg>