<svg id="Layer_1" data-name="Layer 1" xmlns="http://www.w3.org/2000/svg" viewBox="0 0 270 270"><defs><style>.cls-1{fill:#efe8f2;}</style></defs><path class="cls-1" d="M134.85,0h0c-22.25,1.08-32,26.18-28,48.06l23.32,107.43a14,14,0,0,0-1.73.85c-1.09.2-1.49,98.57-1.89,99.11A8.63,8.63,0,0,0,131,263c-.36,9.62,11.09,9.08,10.47,0a8.76,8.76,0,0,0,4.3-7.62l-2.54-98.46c-.31-1.08-1.56-1.09-2.78-1.7L163.23,48.28C167.11,25.4,156.69.73,134.86,0m0,1.49h0c6.52,3.27,7.72,29.93,7.08,46.71l-6.52,99.94C136,123.87,118.91,17,134.83,1.49Zm0,0ZM131.9,2c-5.83,11.64-5.66,27.08-5.19,45.84l7.67,106.61-.26,0L117.55,47.76C115.86,29.5,118,8.86,131.9,2Zm4.6,152.41C136.42,125,151.06,26,137.82,2c12.69,5.27,16.69,26.66,14.74,46.09l-15.9,106.35ZM134.81,0h0M108.33,47.77C105.12,29,111.09,9.62,127.25,2.94c-10.62,9.71-13,26.73-11.17,45l16.57,106.76c-.36.08-.71.16-1.05.26Zm30.51,219.4c-2.52,3.17-6.44.53-6.44-3.44a10.19,10.19,0,0,0,7.58-.05A5.72,5.72,0,0,1,138.84,267.17Zm5.4-11.78c-.09,9.92-16,10-16.18.08l1.51-98.05c2.51-2,9.91-1.82,12.14-.06ZM142.43,2.84C157.8,8.62,165.11,28.54,161.77,48L139,154.78l-.83-.16L154,48.29C156.22,29.47,151.6,10,142.43,2.84Z"/></svg>