<svg id="Layer_1" data-name="Layer 1" xmlns="http://www.w3.org/2000/svg" viewBox="0 0 270 270"><defs><style>.cls-1{fill:#efe8f2;}</style></defs><path class="cls-1" d="M263.32,64.22C243,38.66,201.19,31.44,171.85,41.72,145.05,50.94,130.33,71,124.7,80.26l-4.58-1.67c-14.32-6.09-63.67-24.1-97.58-.38-13.48,8.54-33,29.21-15.8,50.79v26.74c0,10.08,6.35,17.41,11,22.8C30,192.68,46.08,197.89,78.11,208.27c6.64,2.45,26.82,7.52,38.37,8.8l92.28,15.62a6.57,6.57,0,0,0,1.16.1,6.88,6.88,0,0,0,5.82-3.21l31.52-49.67c9.84-14.64,15.52-30.21,16-43.9v-18C272.1,97.5,272.38,77.9,263.32,64.22ZM212.21,228.88a3.76,3.76,0,0,1-2.93.75L117,214c-11.45-1.26-31.31-6.26-37.88-8.67-31.48-10.21-47.28-15.33-59-28.85-4.56-5.26-10.24-11.81-10.24-20.73V132.93c14,17,30,21.76,65.26,33.3a230,230,0,0,0,40.41,9.26l95.91,16.25a6.49,6.49,0,0,0,2.06.06ZM260.14,136c-.45,13.07-5.94,28.07-15.48,42.26l-29.18,46L216.62,191a9.16,9.16,0,0,0,4-3.41l32.5-51.22a119.27,119.27,0,0,0,7-11.8Zm-9.57-1.25L218.05,186a6,6,0,0,1-6.11,2.72l-96-16.25a227.17,227.17,0,0,1-39.92-9.14c-33.17-10.75-49.82-16.15-62.16-30.4a49.11,49.11,0,0,1-4.06-4.66v-.14h-.1c-15-19.56-1.46-36.63,14.58-47.32C51,60.42,99.19,72.25,119,81.48l7.09,2.58c5.61-9.64,18.91-29.51,46.79-39.4C195.1,37,221,39.36,242.09,51,274.5,66,273.15,100.35,250.57,134.7Z"/><path class="cls-1" d="M214.8,46.64c-18.33-.85-32.82-5-57.34,9.71a69.79,69.79,0,0,0-26,30.75,1.92,1.92,0,0,1-2.56,1h0c-25.27-12.93-75.45-21.64-112.29,4.5C-1,108.92,16.31,130.2,41.51,141.28A591.08,591.08,0,0,0,208.89,177.5a9.1,9.1,0,0,0,7.9-4.54L257,103.91C266.49,77.5,248.58,47.59,214.8,46.64Zm-202,57.43a16.89,16.89,0,0,1,5.68-9c35.35-24.18,78.72-18.26,110.92-3.7v50.05c-17.64-8.46-57.5-20.54-92.89-5.91C20.46,127,10.7,114.36,12.84,104.07ZM214.1,171.4a6.08,6.08,0,0,1-5.66,3,589.12,589.12,0,0,1-165.78-36c-.77-.32-1.52-.68-2.27-1,34.7-12.72,70.53-1.25,87.24,6.71a5,5,0,0,0,6.72-2.55c11.37-27.93,42.61-43.2,69.05-39.41,3.82.43,7.62.7,11.3.81,12.32.37,23.69,5.28,31.45,13.45Zm40.06-68.76-6.39,11c-8.3-8.37-20.17-13.4-33-13.78-3.6-.11-7.32-.38-11.06-.8-26.25-3.8-58.58,10.74-71.19,39V90.39a4.87,4.87,0,0,0,1.8-2A66.67,66.67,0,0,1,159.14,59c23.79-14.22,37.55-10,55.56-9.22C246.11,50.59,262.8,78.16,254.16,102.64Z"/></svg>