<svg id="Layer_1" data-name="Layer 1" xmlns="http://www.w3.org/2000/svg" viewBox="0 0 270 270"><defs><style>.cls-1{fill:#efe8f2;}</style></defs><path class="cls-1" d="M263,49.62c-14.65-20.49-59-23.39-73.9-1.68-6,9.08-6.39,22.58-6.91,39.67-.16,3.6,0,12.44-1,13.46-1-.18-3.88-5.77-6.16-10.26-4.21-8.29-9.44-18.59-14.38-20.47a15.46,15.46,0,0,0-6-.93c-12.09.59-8.29,11.42-4.27,26.81,3.15,10.74,6,24.38,8.18,35.91,2.18,10.48,2.11,22.79-.18,36.58-14.26-19.9-20.32-35.15-23.31-54.12-2-9.43-3.72-21.33-4.74-30.18-2.2-16.54-2.76-28.54-14.69-24.4a16.2,16.2,0,0,0-5.5,3.3c-4.06,3.78-5.06,15.89-5.86,25.62-.44,5.25-1,11.78-1.91,12.46-1.55-.65-4.81-9.26-6.43-12.7-7.29-16.44-13-29.41-22.48-35.88C59.66,43.35,37.67,48,23.09,57.48c-33.38,22.24-23.8,49.84-3.57,77.83,12.75,19,28,33.85,40.18,45.8C73.33,194.43,84.09,205,84.25,214.19a44,44,0,0,0,.52,5.21c.78,5.25,3.19,13.25,8.74,15.85,10.11,5.45,21.94-2.49,32.6-7.31,9.57-4.75,19.74-9.13,28.69-15.08,16.34,5.84,33.72,7.4,50.87,8.2,12.05.49,24.37,3.05,31.42-5.36,5.89-6,.95-21.3.52-21.82-3.16-8.18,2.53-21.3,9.74-37.91C257.26,133.5,282,73.33,263,49.62ZM94.26,234l-.17-.1c-6.33-2.9-8.27-14.49-8.4-19.77-.18-9.83-10.58-20-25-34.07-12.18-11.91-27.34-26.72-40-45.58C10,118.56-1.06,102.08,3.6,84.14,6.67,69.26,25.34,54.82,40.92,51,75.36,42.55,83,62.78,96,92.33c3.14,7.2,4.79,10.94,6.77,10.46,1.81-.49,2.24-4.84,3-13.74.78-9.49,1.76-21.29,5.41-24.69a15.23,15.23,0,0,1,5-3c10.44-3.84,10.61,7.66,12.78,23.23,1,8.87,2.7,20.83,4.75,30.29,3.91,25.79,15.08,46.72,39.69,74.77a5.46,5.46,0,0,1-.4,7.69,151.82,151.82,0,0,1-37.37,24.42C123,227.28,103.32,240.22,94.26,234Zm142-39.63c0,.11,4.36,11.49,1,18.44a10.66,10.66,0,0,1-1.43,2.09c-4.8,6.58-16.52,5.71-30.08,4.7-16.63-.8-33.52-2.23-49.41-7.78a154.47,154.47,0,0,0,17.53-13.43,6.9,6.9,0,0,0,.53-9.72q-8.33-9.36-14.86-18.33c4.41-22.86.77-38.58-3.71-58.75-1.41-6-2.84-11.17-4.09-15.78-3.7-14.46-7.63-24.71,2.93-25a14.39,14.39,0,0,1,5.42.85c4.42,1.67,9.73,12.13,13.61,19.77,4,7.87,5.84,11.34,7.64,11s2-4.21,2.18-11.67c.43-16.49.66-33.29,6.75-42.09,14.31-20.85,57.46-18,71.55,1.74,18.51,23.13-6.11,83-15.82,104.93C238.4,173,232.9,185.67,236.27,194.4Z"/><path class="cls-1" d="M227.79,118.06l-5,6.36-3.49-2.73,5-6.37a.72.72,0,0,0-1.13-.88l-5,6.36-3.5-2.73,5-6.37a.72.72,0,0,0-1.13-.89l-5,6.37-6.37-5a.72.72,0,0,0-.88,1.13l6.37,5-2.74,3.49-6.37-5a.72.72,0,0,0-.88,1.13l6.37,5-2.74,3.49-6.37-5c-.72-.58-1.63.57-.88,1.13l6.37,5-5,6.37a.72.72,0,0,0,.75,1.14.75.75,0,0,0,.38-.25l5-6.37,3.49,2.73-5,6.37a.72.72,0,0,0,1.13.89l5-6.37,3.49,2.73-5,6.37a.72.72,0,0,0,1.13.89l5-6.37,6.37,5a.72.72,0,0,0,.89-1.13l-6.37-5,2.73-3.5,6.37,5a.72.72,0,0,0,.89-1.13l-6.37-5,2.73-3.49,6.37,5a.72.72,0,0,0,.89-1.13l-6.37-5,5-6.37A.71.71,0,0,0,227.79,118.06Zm-14,1.14,3.49,2.74-2.74,3.49-3.49-2.74Zm-6.36,8.12,2.74-3.5,3.49,2.74-2.74,3.49Zm8.12,6.35-3.5-2.73,2.74-3.5,3.49,2.74Zm3.62-4.62-3.5-2.74,2.74-3.49,3.49,2.74Z"/><path class="cls-1" d="M97.81,142.84l.63-1.1.28-.49h0l3.33-5.83a.72.72,0,0,0-.26-1,.74.74,0,0,0-1,.27l-2.61,4.58v0l-1.63,2.85-4.1-2.34L94,137.1h0l2.71-4.74a.72.72,0,0,0-1.25-.71l-2.92,5.1-1.32,2.32-4.11-2.36,4.24-7.42a.72.72,0,0,0-1.25-.71s-1.19,2.09-2.32,4h0L85.84,136l-7.42-4.24a.72.72,0,0,0-.71,1.25l7.42,4.24-1.71,3-.65,1.12-7.41-4.24a.72.72,0,0,0-.72,1.25l7.42,4.24-.32.56-2,3.56-7.42-4.24a.71.71,0,0,0-.71,1.24L79,148l-1.84,3.22h0l-2.4,4.21a.72.72,0,0,0,1.25.71l4.24-7.42L84.36,151l-.34.59-1.7,3h0l-2.2,3.85a.72.72,0,0,0,1.25.71l2.83-5,.17-.28c.43-.77.81-1.43,1-1.81l.21-.37,4.11,2.35-2,3.57h0l-2.2,3.85a.72.72,0,0,0,1.25.72L91,154.82l7.42,4.24a.72.72,0,0,0,.72-1.25l-7.42-4.24,1.23-2.17,1.12-2,7.41,4.24a.72.72,0,0,0,.72-1.24l-7.42-4.24,1.35-2.37,1-1.75,7.42,4.24a.72.72,0,0,0,.71-1.25Zm-4.32,4.65-4.1-2.35L91.74,141l4.1,2.34Zm-3-7.18-2.35,4.12L84,142.08l1.3-2.27L86.37,138ZM81,147.44l2.35-4.11,4.11,2.35L86,148.22l-.9,1.57Zm5.36,3.06,2.35-4.11,4.11,2.35-2.35,4.11Z"/></svg>