<svg id="Layer_1" data-name="Layer 1" xmlns="http://www.w3.org/2000/svg" viewBox="0 0 270 270"><defs><style>.cls-1{fill:#efe8f2;}</style></defs><path class="cls-1" d="M270,125c-.91-46.46-83.94-64.69-130.63-45.27L19.09,9.13C11.24,4-1.18,7.32.09,17.56L.16,29a11.29,11.29,0,0,0,5.5,9.58L108.48,99.69c-12.83,13.9-13.94,33.31-2.12,48,23.35,69.89,132.47,70.09,155.18.22C267,140.94,270,133.16,270,125ZM6.14,9.71c3.36-1.63,7.93-1.18,11.92,1.16L137,80.63a87.07,87.07,0,0,0-18.81,10.31L8.86,26.56c-3.75-2.21-6.26-5.68-6.75-9.15A6,6,0,0,0,2,16.07,6.86,6.86,0,0,1,6.14,9.71Zm.55,27.1A9.25,9.25,0,0,1,2.19,29l0-6A17.22,17.22,0,0,0,7.84,28.3l108.59,64a62.27,62.27,0,0,0-6.54,5.9ZM184,74c46.29,0,84,22.87,84,51-4.11,67.53-163.83,67.49-167.9,0C100.08,96.85,137.74,74,184,74Zm0,124.5c-32.79,0-62.39-18.87-73.91-46.47,32,34.34,115.9,34.31,147.82,0C246.92,179.57,217.26,198.48,184.05,198.48Z"/><path class="cls-1" d="M182.92,163.32c23.58,0,44.49-6.48,57.34-16.42a5.53,5.53,0,0,0,1.38-1.09c34.41-31.32-10.66-61.93-58.72-61.46C85.35,87.87,92.54,162,182.92,163.32ZM126,144.77c1.58-11.74,11.35-17.51,23.32-18a19.12,19.12,0,0,0,12.1-5.37c12.45-12.11,33.56-10.14,43.67,1.44a15.35,15.35,0,0,0,10.66,4.71c12.1.51,21.89,6.67,23.22,17.84C213.11,166.5,151.61,166.43,126,144.77Zm115.4-1.32c-2.13-11.4-12.38-17.75-25-18.28a13.33,13.33,0,0,1-9.27-4.09c-11.51-13-34-14.06-47.73-.69a15,15,0,0,1-9.57,4C137.77,125,126,130.93,123.92,143a33.51,33.51,0,0,1-6.7-8.28c15-40.67,117.49-40.17,131.14.55A34.1,34.1,0,0,1,241.41,143.45ZM182.92,86.37c40.74.4,77.22,19.19,66.62,46.59-15.94-40.48-116.68-40.8-133.52-.7C106.38,105.26,142.41,86.78,182.92,86.37Z"/><path class="cls-1" d="M178.54,123a1.43,1.43,0,0,0,0,2.85A1.43,1.43,0,0,0,178.54,123Zm-.6,1.42a.6.6,0,0,1,1.2,0C179.14,125.05,177.94,125.05,177.94,124.39Z"/><path class="cls-1" d="M189.71,126.18a1.43,1.43,0,0,0,0,2.85A1.43,1.43,0,0,0,189.71,126.18Zm-.6,1.42a.6.6,0,0,1,1.2,0C190.31,128.26,189.11,128.26,189.11,127.6Z"/><path class="cls-1" d="M140.79,135.26a1.43,1.43,0,0,0,0,2.85A1.43,1.43,0,0,0,140.79,135.26Zm-.59,1.43a.6.6,0,0,1,1.19,0C141.39,137.35,140.2,137.35,140.2,136.69Z"/><path class="cls-1" d="M219.45,140a1.43,1.43,0,0,0,0,2.85A1.43,1.43,0,0,0,219.45,140Zm-.6,1.43a.6.6,0,0,1,1.19,0C220,142.1,218.85,142.1,218.85,141.44Z"/><path class="cls-1" d="M206.91,147.18a1.43,1.43,0,0,0,0,2.85A1.43,1.43,0,0,0,206.91,147.18Zm-.59,1.43a.6.6,0,0,1,1.19,0C207.51,149.26,206.32,149.26,206.32,148.61Z"/><path class="cls-1" d="M150.26,141.78a1.43,1.43,0,0,0,0,2.86A1.43,1.43,0,0,0,150.26,141.78Zm-.6,1.43a.6.6,0,0,1,1.2,0C150.86,143.87,149.66,143.87,149.66,143.21Z"/><path class="cls-1" d="M128.83,170.93a1.43,1.43,0,0,0,.62,2.79A1.43,1.43,0,0,0,128.83,170.93Zm.89,1.27a.6.6,0,0,1-1.17.25.6.6,0,0,1,1.17-.25h0l-.18,0Z"/><path class="cls-1" d="M145.65,182.61a1.42,1.42,0,0,0-2.78.61,1.42,1.42,0,0,0,2.78-.61Zm-.89.63a.61.61,0,0,1-1.09-.2l1-.21-1,.21C143.52,181.92,145.29,182.25,144.76,183.24Z"/><path class="cls-1" d="M238.94,169.15a1.43,1.43,0,0,0,2.21,1.81A1.43,1.43,0,0,0,238.94,169.15Zm1.57,1.28c-.49.61-1.43-.16-.93-.75A.6.6,0,0,1,240.51,170.43Z"/><path class="cls-1" d="M189.61,190a1.42,1.42,0,0,0,2.2,1.81A1.42,1.42,0,0,0,189.61,190Zm1.56,1.28c-.48.61-1.42-.17-.92-.76S191.67,190.69,191.17,191.28Z"/><path class="cls-1" d="M169,206.65a1.42,1.42,0,0,0,2.2,1.81A1.42,1.42,0,0,0,169,206.65Zm1.56,1.29a.6.6,0,0,1-.92-.76h0A.6.6,0,0,1,170.6,207.94Z"/><path class="cls-1" d="M210.55,212.13a1.43,1.43,0,0,0,.14,2.85A1.43,1.43,0,1,0,210.55,212.13Zm.6,1.8c-.48.6-1.43-.16-.93-.75S211.65,213.34,211.15,213.93Z"/><path class="cls-1" d="M188.59,229.42a1.43,1.43,0,0,0,.14,2.84A1.43,1.43,0,1,0,188.59,229.42Zm.61,1.8c-.5.6-1.43-.17-.93-.76S189.69,230.62,189.2,231.22Z"/><path class="cls-1" d="M194,218.63a1.42,1.42,0,0,0,.28,2.83A1.42,1.42,0,0,0,194,218.63Zm.6,1.79a.6.6,0,0,1-.93-.75C194.14,219.06,195.09,219.83,194.59,220.42Z"/><path class="cls-1" d="M207.48,242.91a1.43,1.43,0,0,0,.14,2.84A1.43,1.43,0,1,0,207.48,242.91Zm.6,1.8a.6.6,0,0,1-.92-.77A.6.6,0,0,1,208.08,244.71Z"/><path class="cls-1" d="M166.05,221.84a1.42,1.42,0,0,0,2.2,1.81A1.42,1.42,0,0,0,166.05,221.84Zm1.56,1.28a.6.6,0,0,1-.93-.75C167.16,221.76,168.11,222.53,167.61,223.12Z"/><path class="cls-1" d="M220.61,256.89a1.42,1.42,0,0,0,2.2,1.81A1.42,1.42,0,0,0,220.61,256.89Zm1.55,1.29a.6.6,0,0,1-.92-.76h0A.6.6,0,0,1,222.16,258.18Z"/><path class="cls-1" d="M177.17,252.4a1.47,1.47,0,0,0-1,.51,1.43,1.43,0,1,0,1-.51Zm.61,1.8-.79-.64.78.64c-.48.61-1.42-.17-.92-.76A.6.6,0,0,1,177.78,254.2Z"/><path class="cls-1" d="M151.9,239.72a1.42,1.42,0,0,0,2.2,1.81A1.42,1.42,0,0,0,151.9,239.72Zm1.56,1.28a.6.6,0,0,1-.92-.76A.6.6,0,0,1,153.46,241Z"/><path class="cls-1" d="M226.56,233.94a1.43,1.43,0,0,0,2.21,1.81A1.43,1.43,0,0,0,226.56,233.94Zm1.57,1.28a.6.6,0,0,1-.93-.76A.6.6,0,0,1,228.13,235.22Z"/><path class="cls-1" d="M199.58,260.92a1.43,1.43,0,0,0,2.21,1.8A1.43,1.43,0,0,0,199.58,260.92Zm1.57,1.28a.6.6,0,0,1-.92-.76C200.71,260.84,201.64,261.61,201.15,262.2Z"/></svg>