<svg id="Layer_1" data-name="Layer 1" xmlns="http://www.w3.org/2000/svg" viewBox="0 0 270 270"><defs><style>.cls-1{fill:#efe8f2;}</style></defs><g id="Pie_Tin" data-name="Pie Tin"><path class="cls-1" d="M135,63.33c-80.25-1.66-163.41,43.59-95,86.39l.86.49c42.62,25.91,137.92,26.8,183,2.81.67-.33,1.31-.67,2-1,18.2-9.41,29.26-21.65,29.26-35C255.05,87.4,201.19,63.33,135,63.33ZM42.72,148.52c11.49-21,48-35.52,89.37-35.52,43.13,0,80.75,15.85,90.57,37.91C178.76,174.15,84.5,173.39,42.72,148.52ZM225,149.75c-23.76-51.21-157.42-51.93-184.5-2.5-64.32-41,17.46-82.92,94.52-81.33,64.78,0,117.47,22.9,117.47,51.05C252.46,129.44,242.11,140.88,225,149.75Z"/><path class="cls-1" d="M208.65,128.94a1.29,1.29,0,0,0,1.75-.53L229.65,92.6a1.29,1.29,0,1,0-2.27-1.22l-19.25,35.81A1.3,1.3,0,0,0,208.65,128.94Z"/><path class="cls-1" d="M215.92,131.17a1.29,1.29,0,0,0,1.75-.53l15.81-29.41A1.29,1.29,0,0,0,231.2,100l-15.8,29.41A1.29,1.29,0,0,0,215.92,131.17Z"/><path class="cls-1" d="M49.2,129.62a1.29,1.29,0,0,0,1.2-1.75L38.17,95.71a1.29,1.29,0,0,0-2.42.92L48,128.78A1.29,1.29,0,0,0,49.2,129.62Z"/><path class="cls-1" d="M270,115.81c-5.83-79.66-264.26-79.56-270,0C0,127.23,7.19,137.92,19.62,147L32,183a16.67,16.67,0,0,0,8.31,9.66,205.33,205.33,0,0,0,90.3,21.25,205.29,205.29,0,0,0,91.55-22,16.2,16.2,0,0,0,7-6.91L249.06,148C262.28,138.64,270,127.62,270,115.81Zm-267.4,0c5.62-76.21,259.28-76.14,264.82,0,0,31.78-59.4,57.64-132.41,57.64S2.58,147.59,2.58,115.81Zm224.3,68a13.61,13.61,0,0,1-5.84,5.82,200.28,200.28,0,0,1-179.55.7,14.08,14.08,0,0,1-7-8.18l-11.3-32.62c49,34.5,171.16,34.87,221.45,1.36Z"/></g></svg>