<svg id="Layer_1" data-name="Layer 1" xmlns="http://www.w3.org/2000/svg" viewBox="0 0 270 270"><defs><style>.cls-1{fill:#efe8f2;}</style></defs><path class="cls-1" d="M199.5,89.32,248.62,13c2.57-3.86.81-9.34-3.14-11.66-3.86-2.49-9.54-1.58-11.83,2.46L187.72,82.08a13.83,13.83,0,0,0,1.59,2.39l-32,33.22a736,736,0,0,0-125.9,6.7c-6.73.55-17.08,1.56-17.81,7.42a5.14,5.14,0,0,0-.09.87l-.06,24.06a4.32,4.32,0,0,0,4.1,4.41l.05,0c.95,31.29,13.62,60.67,35.61,80.36a9.55,9.55,0,0,1,3,7.15l0,9.2c0,2.89,2.12,5.24,4.62,5.23a411.7,411.7,0,0,0,147.67.39,5,5,0,0,0,4.72-5.22c.25-4.71-1.23-13.08,3.09-16.34,22-19.57,34.93-48.81,36-80.08.11-.33.41-.25.67-.3a4.14,4.14,0,0,0,3.53-4.22l.06-24.06a4.49,4.49,0,0,0-.79-2.56c-1.76-3.1-7.13-5.28-13.66-5.3-18.37-2.76-37.07-4.84-55.6-6.19h0c.06-.18,10.68-29.92,10.75-30.12A13.26,13.26,0,0,0,199.5,89.32Zm-9.44-3.67a4.07,4.07,0,0,0,.56.54l-43.81,51.48c-2.3.07-4.61,0-6.92,0Zm3.28,2.65a.89.89,0,0,0,.22.1l-20.65,48.49c-1.76.09-3.52.15-5.28.22C169.32,133.91,193.39,88.32,193.34,88.3Zm-27.28,48.87h0c-2.88.11-5.76.22-8.64.3l32.11-44.8Zm-10.37.33h-.07l-7,.13,43-50.57s.07.06.1.1ZM31.58,125.75A730.39,730.39,0,0,1,156,119l-.55.56L138,137.71A775.1,775.1,0,0,1,17.92,128.5C21.12,126.38,27.47,126.34,31.58,125.75ZM212.52,245.33c-1.09,2.78-.51,10.2-.66,13-.15,2.11-1,3.61-3.53,3.87A410.78,410.78,0,0,1,61,261.78a3.66,3.66,0,0,1-3.38-3.88c-.14-2.94.55-10.63-.72-13.3l.3,0h0a565.21,565.21,0,0,0,155.13.49h0l.33,0Zm2.88-4.39a10,10,0,0,0-2.12,2.68,564.07,564.07,0,0,1-156.64-.43l-.64-.25c-21.9-20.7-36.5-49.08-37-81.53a773.7,773.7,0,0,0,125.54,9.08H145a775.24,775.24,0,0,0,105.83-8.4C249.94,192.93,237,221.67,215.4,240.94ZM254.09,131c.26.19.44.34.44.34a3.59,3.59,0,0,1,.27.47h0a2.88,2.88,0,0,1,.37,1.16c.08.48-.07,23.93,0,24.38a2.74,2.74,0,0,1-2.54,2.91,1.65,1.65,0,0,0-.94.33,769.88,769.88,0,0,1-233.53-.7h0a1.58,1.58,0,0,0-.78-.23,2.74,2.74,0,0,1-2.52-2.91l.06-24.06c0-.11.06-.56.07-.67a2.71,2.71,0,0,1,2.36-2.24,773,773,0,0,0,235.42.6A3,3,0,0,1,254.09,131Zm-12-4.21a20.67,20.67,0,0,1,10,2.3c-23.7,3.58-47.7,6-71.71,7.4l5.25-14.71.43-1.2h0C204.69,121.93,223.61,124,242.1,126.79Zm-63.23,9.78q-2.22.13-4.44.24l20.44-48a3.38,3.38,0,0,0,1,.24Zm13.57-51-.06,0A12.41,12.41,0,0,1,190.72,84c-.16-.19-.32-.37-.46-.55a11.81,11.81,0,0,1-1-1.38L234.83,4.53c1.93-3.38,6.7-4.07,9.93-2s4.86,6.52,2.71,9.76L198.78,87.93c-.32,0-.68-.06-1.05-.12s-.58-.11-.88-.18A11.75,11.75,0,0,1,192.44,85.59Z"/></svg>