<svg id="Layer_1" data-name="Layer 1" xmlns="http://www.w3.org/2000/svg" viewBox="0 0 270 270"><defs><style>.cls-1{fill:#efe8f2;}</style></defs><path class="cls-1" d="M246.78,120.2c-10.62-6.82-17.65-7.06-23.31-7.25-7.78.08-12.36-1.84-19.47-10l8.27-2.9a5.51,5.51,0,0,0,2-.73c4.74-2.59,6.4-10.85,5-19l.45-.52,28.38-5c11.05-3.58,6.28-19.81-5-16.77L216.81,69.92l-.69-.06s0,0,0,0h0s0,0,0,0-.09-.18-.13-.27l0-.09h0c-4.48-9-10.7-14-16.7-11l-19.37,5.87h0l-2.17.66c-6.87-16.85-18.95-34.18-34.41-20.5-11.17,9-23.59,12.28-37.3,8.66-19-5.62-62.85,2.18-67.53,24.48-1.17,7.2,5.23,14.47,18.25,26-2.82,3.64-4,9.88-3.17,17.3-.55.64-1.71,2-2.27,2.65L9,131c-15.93,5.23-9.08,28.44,7.14,24.17l39.27-17.55,3.7.35c4.84,8.22,11.68,13.57,18.35,9.28l19.14-6.71c4.88,8,3.53,15.73,3.37,24.79,0,10.6.16,38.77,15,53.47,19.67,19.39,65.25,12.58,81.92-7.64,11.88-14.64,35.5-24,50.45-25.9,9-1.67,15.47-2.89,19.51-9.67C275.61,161,265.1,132,246.78,120.2ZM217.27,71.46l26.48-11.84c9.13-2.36,13,10.75,4.08,13.73-.34.1-28.55,4.89-28.84,5.08l-.13-.58s-1.73-5.87-2-6.32A.74.74,0,0,0,217.27,71.46ZM39.64,77.91c2.5-15.43,28.74-23.57,44.7-25.09,9.16-.87,15.67.44,21.42,1.59,14.06,3.7,26.8.32,38.25-8.88,14.75-13,25.86,3.76,32.54,19.9-.2.09-1.84.59-2.18.69v0C158.64,71.06,63.25,100,60,101a6.25,6.25,0,0,0-2.47,1.78C44.81,91.58,38.56,84.57,39.64,77.91Zm15.75,58.14c-.73,0-39.13,17.48-39.75,17.67-14.08,3.63-20-16.59-6.24-21.13l42.43-7.42a.76.76,0,0,0,.47-.26l5.58-6.54c2-2.08,6.91,5.11,7.46,8.5.83,3,.21,10.15-2.07,9.94Zm21.36,9.81c-5.53,3.66-11-.66-15.64-7.66l.61.06h0c1.66.29,3.58.23,4.3-1.59a16.53,16.53,0,0,0-5.45-19.74c-2.53-1.76-4.14.62-5.6,2.39-1.3-13.9,6.36-23.39,16.45-13.16C80.44,114.62,85.5,139.11,76.75,145.86Zm3.13-1.1c7.44-10.77.42-39.16-14-44.09L172.81,68.23h0l7.06-2.11v0l19.92-6a8,8,0,0,1,1.34-.6c4.67-1.74,11.45,5.24,14.44,13,3.31,8.13,4.26,22-2.06,25.51a4.06,4.06,0,0,1-1.32.5l-.33.06Zm186,30.26c-3.76,6.32-10,7.49-18.7,9.1-15.65,2.07-38.66,11.21-51.12,26.27-17.41,20.53-61.64,26-80.18,7.6-14.49-14.35-14.6-42.16-14.65-52.63.2-9.15,1.45-17-3.42-25.18l105-36.78,1.1,1.21h0c7.08,7.74,11.73,9.58,19.58,9.54C252.12,112.79,277.79,151.66,265.85,175Z"/><path class="cls-1" d="M54.36,127.32c-.25-.57-.72-1.32-1.43-.91a.8.8,0,0,0-.29,1.09c.2.33.5.92.68,1.27a14.05,14.05,0,0,1,1.23,4.93c0,.62.06,1.45.85,1.43,1.52-.21.44-3,.34-4.11A9.68,9.68,0,0,0,54.36,127.32Z"/><path class="cls-1" d="M202.51,65.13,160.59,78.94a.81.81,0,0,0,.25,1.56c.2,0,41.95-13.82,42.17-13.85A.8.8,0,0,0,202.51,65.13Z"/><path class="cls-1" d="M209.35,70.19,167.43,84a.8.8,0,0,0,.5,1.51L209.84,71.7A.79.79,0,0,0,209.35,70.19Z"/></svg>