<svg id="Layer_1" data-name="Layer 1" xmlns="http://www.w3.org/2000/svg" viewBox="0 0 270 270"><defs><style>.cls-1{fill:#efe8f2;}</style></defs><g id="Internet_Browser" data-name="Internet Browser"><path class="cls-1" d="M143.68,59.52,93,59.61a.87.87,0,0,0,0,1.73l50.69-.09A.87.87,0,0,0,143.68,59.52Z"/><path class="cls-1" d="M228.79,54.24l-12.4,0a4.2,4.2,0,0,0-3,1.24c-1.53,1.31-1.23,3.8-1.23,5.59a4.25,4.25,0,0,0,4.24,4.23c.9-.09,13.5.24,13.94-.3a4.27,4.27,0,0,0,2.71-4V58.47A4.25,4.25,0,0,0,228.79,54.24Zm2.53,4.23v2.59a2.51,2.51,0,0,1-2.51,2.52l-12.41,0a2.5,2.5,0,0,1-1.78-.74c-1.09-.88-.65-3.15-.74-4.36A2.54,2.54,0,0,1,216.39,56l12.41,0A2.53,2.53,0,0,1,231.32,58.47Z"/><path class="cls-1" d="M255,54.19l-12.41,0a4.26,4.26,0,0,0-4.23,4.25c0,1.79-.29,4.28,1.26,5.58a4.2,4.2,0,0,0,3,1.24l12.41,0A4.26,4.26,0,0,0,259.22,61c0-1.79.28-4.28-1.26-5.58A4.2,4.2,0,0,0,255,54.19Zm2.53,4.24V61A2.52,2.52,0,0,1,255,63.53l-12.41,0a2.53,2.53,0,0,1-1.78-.73c-1.09-.88-.65-3.16-.74-4.36a2.51,2.51,0,0,1,2.51-2.52l12.41,0A2.53,2.53,0,0,1,257.49,58.43Z"/><path class="cls-1" d="M267.85,44.58a6.19,6.19,0,0,0-4.47-1.84L7.26,43.17A7.28,7.28,0,0,0,0,50.46L.29,219.91a7.39,7.39,0,0,0,7.38,7.35l256-.44a6.38,6.38,0,0,0,6.38-6.4L269.71,49A6.27,6.27,0,0,0,267.85,44.58ZM1.77,75.94l27.81,0H31.8v1l0,19-30,0Zm0,21.73,30,0,0,19.9-30,0Zm0,21.63,30-.06,0,19.91-30,0Zm.06,33.75,0-12.13,30,0,0,19.9-30,.06ZM2,181.17l0-18.62,30-.05,0,9.55,0,10.35-30,0Zm0,8.45v-5.44l30-.05v7.74L32,204l-30,.05ZM30.49,225.5l-22.82,0A5.65,5.65,0,0,1,2,219.9l0-14.09,30-.06,0,19.74Zm237.78-5.08a4.68,4.68,0,0,1-4.65,4.68L37,225.49H33.79l0-8.9-.24-140.7,231.56-.4H268ZM268,49l0,24.72-233,.4h-.39l-32.89.06,0-23.76a5.54,5.54,0,0,1,3.54-5.18c2.41-1.15,255.66-.4,258.12-.82A4.62,4.62,0,0,1,268,49Z"/><path class="cls-1" d="M15.73,55.66C9,55.79,9,65.84,15.74,65.93,22.49,65.76,22.52,55.82,15.73,55.66Zm3.41,5.13c-.07,4.48-6.73,4.48-6.81,0C12.41,56.3,19.06,56.33,19.14,60.79Z"/><path class="cls-1" d="M30.52,55.64c-6.75.11-6.73,10.17,0,10.26C37.27,65.74,37.32,55.81,30.52,55.64Zm3.42,5.12c-.07,4.48-6.73,4.5-6.82,0C27.19,56.3,33.86,56.29,33.94,60.76Z"/><path class="cls-1" d="M45.31,55.61c-6.74.12-6.73,10.18,0,10.27C52.1,65.7,52.09,55.77,45.31,55.61Zm3.42,5.13c-.06,4.47-6.74,4.49-6.81,0S48.64,56.28,48.73,60.74Z"/><path class="cls-1" d="M80.24,59.63l-22.07,0a.87.87,0,0,0,0,1.73l22.07,0A.87.87,0,0,0,80.24,59.63Z"/><path class="cls-1" d="M202.74,53.86l-12.4,0a4.26,4.26,0,0,0-3,1.25c-1.53,1.3-1.23,3.8-1.23,5.58A4.26,4.26,0,0,0,190.36,65c.9-.09,13.49.24,13.93-.31a4.25,4.25,0,0,0,2.71-4V58.09A4.26,4.26,0,0,0,202.74,53.86Zm2.53,4.24v2.58a2.51,2.51,0,0,1-2.51,2.52l-12.41,0a2.49,2.49,0,0,1-1.77-.73c-1.1-.88-.66-3.16-.75-4.36a2.52,2.52,0,0,1,2.51-2.52l12.41,0A2.53,2.53,0,0,1,205.27,58.1Z"/><path class="cls-1" d="M216.13,188.86a2.13,2.13,0,0,0,2.14-.18l3.68-2.59a.55.55,0,0,1,.45-.1.58.58,0,0,1,.37.26l6.63,10.08a3.11,3.11,0,0,0,4.09,1l5.27-2.89a3.1,3.1,0,0,0,1-4.56l-6.93-9.46a.6.6,0,0,1,.16-.85l3.21-2a2,2,0,0,0-.11-3.35l-19-10.47a2.55,2.55,0,0,0-3.76,2.41l1.57,21A2.13,2.13,0,0,0,216.13,188.86Zm-1.9-22.79h0Zm.84-.06h0a.82.82,0,0,1,1.21-.77l19,10.47a.2.2,0,0,1,.12.19.22.22,0,0,1-.1.19c-1.13.88-4.12,2.07-4.24,3.57a2.32,2.32,0,0,0,.41,1.8l6.93,9.46a1.39,1.39,0,0,1-.45,2l-5.27,2.89a1.39,1.39,0,0,1-1.82-.45l-6.62-10.09a2.32,2.32,0,0,0-3.27-.62l-3.68,2.58a.4.4,0,0,1-.63-.3Z"/></g></svg>