<svg id="ec3466e0-8840-4d3b-89e7-71359a911e9a" data-name="Layer 1" xmlns="http://www.w3.org/2000/svg" viewBox="0 0 270 270"><g id="b7a677eb-76a3-4ec8-a0eb-4ea7800a985c" data-name="Coffee Cup"><path d="M225.5,39.7l-.6-7.4h0c0-2.5-2.5-4.6-8-6.6l-2.5-.8h0L210.6,9.4a1,1,0,0,0-.8-.8h.1C208.5,2.9,170.8,0,134.2,0S60.7,2.8,60,8.9h-.1a1,1,0,0,0-.1.3L55.2,24.5c-5.4,1.7-8.7,3.4-10,5.3a3.7,3.7,0,0,0-.7,2.4h-.1c-.3.3-.2,4.2-.2,8.5v2.8a4.1,4.1,0,0,0,3,3.9l8.9,2.1,1.1.3c0,.2.5,4.5,3.4,27.3.9,6.7,1.5,12.1,1.5,12.2h0a1,1,0,0,0,.2.9h0c.2.4,3.3,25.5,6.8,54.5,6.1,48.9,13.6,109.8,14.4,110.1C98.4,264.6,117,270,136,270a90.1,90.1,0,0,0,50.8-15.2c.8-.2,8.5-62.3,17.8-137.3,4.4-35.7,8.2-66.5,8.5-67.8h0c4.1-1.2,7.9-2.5,11.2-3.8a2.4,2.4,0,0,0,1.5-2.5ZM134.9,2.3c44.3,0,71.1,4,72.7,6.8-3.3,4.4-40,6.5-72.6,6.5s-69.8-2-72.8-6.4C63.4,6.4,90,2.3,134.9,2.3ZM61.5,11.4c9.7,4.7,44.1,6.8,73.9,6.8,27.6,0,63.4-1.9,73.3-7.1l4.8,19.1a322.1,322.1,0,0,1-81.4,10.3,328.1,328.1,0,0,1-76.6-9ZM47,31.9v-.2a.8.8,0,0,1,.2-.5c.1-.1.1-.1.1-.2s3.3-2.6,7.1-3.9L53,31.9a.9.9,0,0,0,.1.9c22,6.4,47.9,9.6,79,10h0a332,332,0,0,0,83-10.6,1.1,1.1,0,0,0,.8-1.4l-.9-3.6c3.8,1.3,6.1,2.6,7,3.8s0,.1.1.2l.2.5v.2a.5.5,0,0,1,0,.5,2.5,2.5,0,0,1-.6,1.3h-.1l-.6.6h-.2l-.8.5-.3.2a24.4,24.4,0,0,1-3.5,1.5l-.5.2-1.4.4-.5.2-1.6.5h-.3c-15.8,4.2-46.9,6.9-75.1,6.9h-4.4c-28.1,0-59.1-2.7-74.9-6.8h-.4l-1.6-.5-.6-.2-1.3-.4-.5-.2a14.5,14.5,0,0,1-2.5-1h-.1l-.9-.5-.4-.2-.7-.5h-.2a1.7,1.7,0,0,1-.6-.6h-.1a2.8,2.8,0,0,1-.7-1.3A.9.9,0,0,1,47,31.9ZM185.1,253.1c-14,9.6-31,14.6-48.9,14.6h-.1c-18.4,0-37-5.3-50.9-14.6l-5.9-44.2h.2a207.6,207.6,0,0,0,51.5,6.4,209.4,209.4,0,0,0,60-8.7Zm6.2-48.9h0a210.9,210.9,0,0,1-59.9,8.8H131a209.8,209.8,0,0,1-51.7-6.4h0L64.7,91.2a230.3,230.3,0,0,0,66.1,9.6A232.9,232.9,0,0,0,206,88.4Zm15-118.3h0a233.3,233.3,0,0,1-75.5,12.7c-3.5,0-7.1-.1-10.6-.3a226.5,226.5,0,0,1-55.8-9.5h0L59.5,50.3c21.5,5.2,52.8,8.4,81.8,8.4,19.7,0,47.6-1.4,69.5-8.3Zm5-37.8Zm.9-.3Zm1.6-.4-1.6.4H212a.6.6,0,0,0-.6.3h-.1c-18.3,5.4-42.7,8.2-70.5,8.2-33.6,0-69.3-4.2-93-11.1a1.7,1.7,0,0,1-1.3-1.7v-8C56.8,43.4,98.2,47,134.7,47c14.1,0,28.9-.5,42.4-1.7h.3l2.7-.2h1l2-.2,1.4-.2h1.6l1.6-.2,1.5-.2,1.5-.2h1.5l1.3-.2,1.6-.2,1.2-.2,1.7-.3h.8l2-.3h.5l2.2-.4h.2c8.9-1.7,15.7-3.8,19.2-6.5l.5,8.3C220.5,45,217.2,46.2,213.8,47.4Z" fill="#606060"/><path d="M145,126.2a16.6,16.6,0,0,0-13.9,7.4,15.6,15.6,0,0,0-2.9-3.3,16,16,0,0,0-10.6-4.2,18.7,18.7,0,0,0-5.6.9,14.1,14.1,0,0,0-8.9,8.3,23.2,23.2,0,0,0,1.2,18.9c3.8,6.4,10.1,11.7,16.2,16.9a106.7,106.7,0,0,1,9.8,8.8l1,.5h0c3.7-3.5,7.6-6.9,11.4-10.3l4.8-4.2c4.8-4.1,9.9-9.1,11.6-14.5s2.5-15.2-2.9-20.5A14.8,14.8,0,0,0,145,126.2Zm12,24.5c-1.7,5.1-6.4,9.4-11,13.5l-4.9,4.3c-3.3,2.9-6.8,6-10,9-2.9-2.9-6.3-5.8-9.5-8.5s-7.3-6.4-10.7-9.7c-5.2-4.7-8.1-13.1-6.7-20a12.7,12.7,0,0,1,8.6-10.1,14.4,14.4,0,0,1,4.6-.8c5.1,0,9.8,2.9,12.7,7.7l1,1.5c2.9-5.6,8.4-9.2,14-9.2a13.3,13.3,0,0,1,9.5,4.1C160.4,138.2,157.9,147.9,157,150.7Z" fill="#606060"/></g></svg>