<svg id="aa06465e-ec42-47d7-9785-c70afdeab426" data-name="Layer 1" xmlns="http://www.w3.org/2000/svg" viewBox="0 0 270 270"><path d="M209.3,245c-1.7-12.1-3.2-24.3-4.5-36.5-2.7-26.3-4.3-53.1-4.8-79.6a13.3,13.3,0,0,0,9.1-3.1c4.4-4,5.2-11.3,2-17.3l-9.2-14.4c-4.2-7.7-3.9-16.4.8-21.2a12.2,12.2,0,0,1,6.3-3.5l1.6.4.9,1.1a30.4,30.4,0,0,1,6.2,11.3,34,34,0,0,0,3.5,7.2l.6.8a9.4,9.4,0,0,0,17.5-2.3.9.9,0,0,0-.4-.9l-4.2-2.6H234a.8.8,0,0,0-.6.8c0,.4-.2,3.5-1.8,4.4s-3.9.3-6.2-2.1a9.2,9.2,0,0,1-2.3-4.5c-1.1-4.7-3.9-13-10.9-15.5a8,8,0,0,0-3.7-.6c-4.2.1-7.6,1.3-9.9,3.4-7.1,6.8-4.8,22.3,5.3,36.1l1.3,2.3a20.7,20.7,0,0,1,2,3.9,9.9,9.9,0,0,1,.1,6.6c-.9,2.5-5.1,5.1-11.1,5.2a78,78,0,0,1-22.8-34.9,77.9,77.9,0,0,1-3.2-18.6,4,4,0,0,0-2.8-3.6c.1-2.5,3.4-57.1-20.4-66A19.8,19.8,0,0,0,140,0a15.7,15.7,0,0,0-4.9.8c-9.2,3-15.4,14.4-18.4,34A197.1,197.1,0,0,0,114.9,67a4,4,0,0,0-2.5,4c.5,8.3-.2,24.6-10.5,39.9a62.5,62.5,0,0,1-19.2,18.4c-8.4,0-18.7,1.2-23.8,6.5l-.4.4h0a18.8,18.8,0,0,0-1.6,2.3h0l-.3.8h0c-1.9,4.9.5,10.8,3.5,14.1a11.5,11.5,0,0,0,4.8,3.3,10.8,10.8,0,0,1,4.3,2.8,6.5,6.5,0,0,1,1.6,2.1c-1.9,6.6-7.2,11.9-13.1,12.9-7.7,1.3-15.6-3.8-18.4-11.8a7.3,7.3,0,0,0-2-3.2,6.5,6.5,0,0,0-2.3-1.5h-.3l-1.5.2a4.5,4.5,0,0,0-1.3,1,5.2,5.2,0,0,0-1.1,4.4,1.1,1.1,0,0,0,.6.7,3.3,3.3,0,0,1,2,1.2,5.3,5.3,0,0,1,.8,1.5,42.6,42.6,0,0,0,5.8,9.3,14.9,14.9,0,0,0,4.1,3.4,13.6,13.6,0,0,0,6.4,1.9,28,28,0,0,0,11.9-2.2,25.4,25.4,0,0,0,7.3-4.7,4.6,4.6,0,0,0,1.2-1.2,13.9,13.9,0,0,0,5.1-8.9c.7-5.6-2.4-11.3-7.8-14.5a25,25,0,0,1-5.7-4.7h0v-.9a1.9,1.9,0,0,1,.3-1c2.2-5.7,13.9-6.2,18.7-6.2-1.5,16.3-2.6,32.8-3.4,49.1-1.1,20.9-1.5,42-1.5,62.9a6.1,6.1,0,0,0,3.1,5.3,121.9,121.9,0,0,0,27.8,11.5c42.1,11.2,80-4.5,98.8-14.9A6.1,6.1,0,0,0,209.3,245ZM83.2,136.7a.4.4,0,0,0,.1-.3h0c.1-1.9.3-3.8.5-5.7a63.4,63.4,0,0,0,19.5-18.7c10.6-15.7,11.3-32.5,10.8-41a2.3,2.3,0,0,1,2.1-2.4l3.9-.4h.8l19.5-1.8h1.3l24.8,2.5a2.2,2.2,0,0,1,2,2.1,80.4,80.4,0,0,0,3.2,19c5.8,18.7,17.7,31.2,26.6,38.5.5,26.7,2.1,53.7,4.8,80.3,1.2,12.2,2.7,24.5,4.5,36.6a4.3,4.3,0,0,1-2.3,4.4c-18.5,10.3-55.9,25.8-97.4,14.7a112.4,112.4,0,0,1-27.4-11.3,4.4,4.4,0,0,1-2.2-3.8c-.1-20.9.4-42,1.4-62.8C80.5,170,81.7,153.3,83.2,136.7Zm-22.1,6.2a.8.8,0,0,0-.2.5,7.7,7.7,0,0,1-1.3-5,5.6,5.6,0,0,1,.4-1.2c4.7-5.2,15.2-6.2,22-6.2-.1,1.5-.3,3-.4,4.6C75.7,135.5,63.6,136.3,61.1,142.9Zm8.6,29.5-.3.3a3,3,0,0,1-.8.8,23.8,23.8,0,0,1-6.9,4.4A26.1,26.1,0,0,1,50.6,180a13.2,13.2,0,0,1-9.3-4.7,40.5,40.5,0,0,1-5.5-8.8,5.3,5.3,0,0,0-1.1-2.1,8.3,8.3,0,0,0-1.5-1.1,2,2,0,0,0-.8-.4,3.7,3.7,0,0,1,.7-2.5l.7-.5h.7l1.7,1.1a7.6,7.6,0,0,1,1.5,2.5c3.1,8.9,11.8,14.4,20.3,13,5.8-1,11.2-5.8,13.7-12a15,15,0,0,1,.2,2.2,10.1,10.1,0,0,1-2.2,5.8Zm3.9-5.8a10.9,10.9,0,0,0-3.2-8.2,14.6,14.6,0,0,0-4.8-3.1,9.9,9.9,0,0,1-4.2-2.8c-2.5-2.9-4.6-7.6-3.4-11.8,1,5.5,7.7,10.1,9.3,11,4.8,2.8,7.6,7.8,7,12.8a17.6,17.6,0,0,1-.7,2.7Zm66.7-102-19,1.7C121,17.8,129.7,5.1,137,3l.6-.2a13.2,13.2,0,0,1,4.9.6c20,6.3,18,60.7,17.9,63h.1l-18.7-1.9Zm21.8,2h.1a206.3,206.3,0,0,0-1.6-31.2c-2.7-18.6-8.2-29.7-16.4-33.1a14.1,14.1,0,0,1,2.2.6c11.7,4.4,16.3,21.5,18.1,35.1A171.6,171.6,0,0,1,165.7,67Zm-42.5-.1-3,.2c-.2-7.9-.5-48.6,13.8-61.2C123,14,119.4,34.4,119.6,66.5Zm89.3,53.2a11.4,11.4,0,0,0-.1-7.8,18.3,18.3,0,0,0-2.1-4.2h-.1l-1.3-2.2C197,94,192.7,78.2,199.8,71.5a10.2,10.2,0,0,1,5.7-2.7,13.3,13.3,0,0,0-4.1,2.9c-5.2,5.3-5.6,14.9-.9,23.3l9.1,14.3c2.8,5.4,2.1,11.8-1.7,15.2s-6.7,2.7-8.4,2.6l-1.4-1.2C203.4,125.4,207.8,122.9,208.9,119.7Zm12.6-36.4a10.7,10.7,0,0,0,2.7,5.3c2.5,2.6,6,3.7,8.2,2.4s2.3-2.8,2.6-4.4l2.4,1.5a7.6,7.6,0,0,1-14.1,1.2l-.6-.9a25.1,25.1,0,0,1-3.3-6.8,34,34,0,0,0-6.6-11.8l-.4-.5C218,71.9,220.5,79.1,221.5,83.3Z" fill="#606060"/><path d="M109.6,155.2a89.5,89.5,0,0,0,1.5,17.9,2.1,2.1,0,0,0,.4.6h.2a109.4,109.4,0,0,0,26.5,4.8,112.7,112.7,0,0,0,40.7-4.9.7.7,0,0,0,.5-.4,1.3,1.3,0,0,0,.1-.6,25.8,25.8,0,0,1-.8-2.6,106.8,106.8,0,0,1-3.8-32.6.7.7,0,0,0-.3-.6.9.9,0,0,0-.7-.3,209.4,209.4,0,0,1-54.7,1.5l-6.5-.8a.9.9,0,0,0-1,.6A85.3,85.3,0,0,0,109.6,155.2Zm3.6-16.2,5.8.7a213.5,213.5,0,0,0,54.1-1.3,106.4,106.4,0,0,0,3.9,32,18.9,18.9,0,0,0,.6,1.8,111.8,111.8,0,0,1-39.3,4.6,112.7,112.7,0,0,1-25.6-4.5,84.5,84.5,0,0,1,.5-33.3Z" fill="#606060"/><path d="M128.4,71.3l-8.5.8a.8.8,0,0,0-.8.9.8.8,0,0,0,.4.7h.5l8.6-.8a.9.9,0,0,0,.6-.3,1.1,1.1,0,0,0,.2-.6A1,1,0,0,0,128.4,71.3Z" fill="#606060"/><path d="M150.3,72.7h.4l8.5.9a1,1,0,0,0,1-.8,1.4,1.4,0,0,0-.2-.6.9.9,0,0,0-.6-.3l-8.6-.9a.9.9,0,0,0-.9.8C149.9,72.2,150,72.6,150.3,72.7Z" fill="#606060"/><path d="M144.6,70.8a.9.9,0,0,0-.6-.3l-1.9-.2h-1.4l-5.4.4a1,1,0,0,0-.8,1,.8.8,0,0,0,.4.6c.2.1.4.2.5.1l5.5-.4h1l1.9.2a1,1,0,0,0,1-.8A1.1,1.1,0,0,0,144.6,70.8Z" fill="#606060"/></svg>