<svg id="fe21b6e3-bd60-46f5-84d4-8205755322c2" data-name="Layer 1" xmlns="http://www.w3.org/2000/svg" viewBox="0 0 270 270"><path d="M269.5,161.9c-3.4-21.9-23-38.1-45.1-37.8,14.2-48.5-36.9-92.2-82.2-68.4a61.4,61.4,0,0,0-35.4,33.8,38.6,38.6,0,0,0-33.7,4.1c-14.6,4-26.7,20.3-30.2,32.9-4,1.5-12,6.4-12,6.4h0l-.8.4-.5.3C-18.2,155.5-5.2,219.7,47.8,221H222.1c22.2,0,42.3-16,45.4-38A42.1,42.1,0,0,0,269.5,161.9Zm-144-93.5a59,59,0,0,0-13.1,23.4l-3.2-1.4A58.9,58.9,0,0,1,125.5,68.4ZM66.2,99.6c-6.3,6.6-9.8,17-10.4,24a47.2,47.2,0,0,0-9.8,1.9C49,116.5,56.6,105.1,66.2,99.6ZM222.1,218.4H47.8a49.2,49.2,0,0,1-17.7-3.2C-3.6,201.6-7,160,23.1,140c-20.8,22.4-11.1,57.9,17,68.5A50.4,50.4,0,0,0,58,211.8H225.7A45,45,0,0,0,261.5,194,44,44,0,0,1,222.1,218.4Zm3.6-9.2H58a44.3,44.3,0,0,1-31-12.1c-21.7-20-13.4-54.2,12.2-66.3a47.5,47.5,0,0,1,17.9-4.7,1.2,1.2,0,0,0,1.2-1.2c.2-7.8,5.6-22.8,16-29l1.2-.7c11.1-7,25.8-6.9,37.1-.3a1.3,1.3,0,0,0,1.9-.8c5.2-21.9,24.9-39.1,47.1-41.9,30.3-4.9,60.2,20.1,62.3,50.4.9,7.8-.4,15.5-2.5,23.1a1.3,1.3,0,0,0,1.3,1.1c23.7-1.5,45,18.1,44.7,41.9S248,209.4,225.7,209.2Z" fill="#606060"/></svg>