<svg id="f50c4684-4a5b-4579-8318-c8af801bbfc9" data-name="Layer 1" xmlns="http://www.w3.org/2000/svg" viewBox="0 0 270 270"><path d="M270,125c-.9-46.5-83.9-64.7-130.6-45.3L19.1,9.1C11.2,4-1.2,7.3.1,17.6V29a11.2,11.2,0,0,0,5.5,9.6L108.5,99.7c-12.9,13.9-14,33.3-2.1,48,23.3,69.8,132.4,70.1,155.1.2C267,140.9,270,133.2,270,125ZM6.1,9.7c3.4-1.6,8-1.2,12,1.2L137,80.6a90.6,90.6,0,0,0-18.8,10.3L8.9,26.6c-3.8-2.3-6.3-5.7-6.8-9.2,0-.3.1-1.1-.1-1.3A7,7,0,0,1,6.1,9.7Zm.6,27.1A9,9,0,0,1,2.2,29V22.9a17.4,17.4,0,0,0,5.7,5.4l108.6,64a52.4,52.4,0,0,0-6.5,5.9ZM184,74c46.3,0,84,22.9,84,51-4.1,67.5-163.8,67.4-167.9,0C100.1,96.9,137.7,74,184,74Zm0,124.5c-32.7,0-62.3-18.9-73.9-46.5,32,34.4,115.9,34.3,147.9,0C246.9,179.6,217.3,198.5,184,198.5Z" fill="#606060"/><path d="M182.9,163.3c23.6,0,44.5-6.5,57.4-16.4l.6-.4a1,1,0,0,0,.7-.7C276,114.5,231,83.9,182.9,84.3,85.3,87.9,92.5,162,182.9,163.3ZM126,144.8c1.6-11.8,11.4-17.5,23.3-18a18.7,18.7,0,0,0,12.1-5.4c12.5-12.1,33.6-10.1,43.7,1.5a15.3,15.3,0,0,0,10.7,4.7c12.1.5,21.8,6.7,23.2,17.8C213.1,166.5,151.6,166.4,126,144.8Zm115.4-1.3c-2.1-11.5-12.4-17.8-25-18.3a13.3,13.3,0,0,1-9.2-4.1c-11.5-13-34.1-14.1-47.8-.7a14.8,14.8,0,0,1-9.5,4c-12.1.6-23.9,6.5-26,18.5a34,34,0,0,1-6.7-8.2c15-40.7,117.5-40.2,131.2.5A38.1,38.1,0,0,1,241.4,143.5ZM182.9,86.4c40.8.4,77.2,19.2,66.6,46.6-15.9-40.5-116.6-40.8-133.5-.7C106.4,105.3,142.4,86.8,182.9,86.4Z" fill="#606060"/><path d="M178.5,123a1.4,1.4,0,0,0,0,2.8A1.4,1.4,0,1,0,178.5,123Zm-.6,1.4a.6.6,0,0,1,1.2,0C179.1,125.1,177.9,125.1,177.9,124.4Z" fill="#606060"/><path d="M189.7,126.2a1.4,1.4,0,1,0,0,2.8A1.4,1.4,0,1,0,189.7,126.2Zm-.6,1.4a.6.6,0,0,1,1.2,0C190.3,128.3,189.1,128.3,189.1,127.6Z" fill="#606060"/><path d="M140.8,135.3a1.4,1.4,0,1,0,0,2.8A1.4,1.4,0,1,0,140.8,135.3Zm-.6,1.4a.6.6,0,1,1,1.2,0C141.4,137.3,140.2,137.3,140.2,136.7Z" fill="#606060"/><path d="M219.4,140a1.5,1.5,0,0,0,0,2.9A1.5,1.5,0,0,0,219.4,140Zm-.6,1.4c0-.7,1.3-.7,1.2,0S218.8,142.1,218.8,141.4Z" fill="#606060"/><path d="M206.9,147.2a1.4,1.4,0,0,0,0,2.8A1.4,1.4,0,1,0,206.9,147.2Zm-.6,1.4a.6.6,0,0,1,1.2,0C207.5,149.3,206.3,149.3,206.3,148.6Z" fill="#606060"/><path d="M150.3,141.8a1.4,1.4,0,1,0,0,2.8A1.4,1.4,0,0,0,150.3,141.8Zm-.6,1.4c-.1-.8,1.2-.8,1.2,0S149.7,143.9,149.7,143.2Z" fill="#606060"/><path d="M128.8,170.9a1.4,1.4,0,0,0,.6,2.8A1.4,1.4,0,1,0,128.8,170.9Zm.9,1.3c.2.8-1,1-1.1.3s1-1.1,1.1-.3Z" fill="#606060"/><path d="M145.6,182.6a1.4,1.4,0,1,0-2.7.6,1.4,1.4,0,1,0,2.7-.6Zm-.8.6a.6.6,0,0,1-1.1-.2l1-.2-1,.2C143.5,181.9,145.3,182.3,144.8,183.2Z" fill="#606060"/><path d="M238.9,169.2c-1.1,1.4,1.1,3.2,2.2,1.8A1.4,1.4,0,1,0,238.9,169.2Zm1.6,1.2a.6.6,0,1,1-.9-.7A.6.6,0,1,1,240.5,170.4Z" fill="#606060"/><path d="M189.6,190c-1.2,1.4,1.1,3.3,2.2,1.8S190.8,188.6,189.6,190Zm1.6,1.3c-.5.6-1.5-.2-1-.8S191.7,190.7,191.2,191.3Z" fill="#606060"/><path d="M169,206.6c-1.1,1.5,1,3.3,2.2,1.9S170.2,205.2,169,206.6Zm1.6,1.3a.6.6,0,1,1-.9-.7h0A.6.6,0,1,1,170.6,207.9Z" fill="#606060"/><path d="M210.6,212.1a1.5,1.5,0,0,0,.1,2.9A1.5,1.5,0,0,0,210.6,212.1Zm.5,1.8c-.4.6-1.4-.1-.9-.7A.6.6,0,1,1,211.1,213.9Z" fill="#606060"/><path d="M188.6,229.4a1.5,1.5,0,0,0,.1,2.9A1.5,1.5,0,1,0,188.6,229.4Zm.6,1.8c-.5.6-1.4-.2-.9-.7A.6.6,0,1,1,189.2,231.2Z" fill="#606060"/><path d="M194,218.6a1.5,1.5,0,0,0,.3,2.9C196.1,221.3,195.8,218.5,194,218.6Zm.6,1.8a.6.6,0,1,1-.9-.7C194.1,219.1,195.1,219.8,194.6,220.4Z" fill="#606060"/><path d="M207.5,242.9c-1.8.1-1.6,2.9.1,2.9S209.4,242.7,207.5,242.9Zm.6,1.8c-.5.6-1.4-.2-.9-.8S208.6,244.1,208.1,244.7Z" fill="#606060"/><path d="M166,221.8a1.5,1.5,0,0,0,2.3,1.8C169.4,222.2,167.2,220.4,166,221.8Zm1.6,1.3a.6.6,0,1,1-.9-.7A.6.6,0,1,1,167.6,223.1Z" fill="#606060"/><path d="M220.6,256.9c-1.2,1.4,1,3.2,2.2,1.8S221.8,255.5,220.6,256.9Zm1.6,1.3c-.5.6-1.5-.2-1-.8h0C221.7,256.8,222.7,257.6,222.2,258.2Z" fill="#606060"/><path d="M177.2,252.4a1.4,1.4,0,0,0-1,.5,1.4,1.4,0,1,0,1-.5Zm.6,1.8-.8-.6.8.6c-.5.6-1.4-.2-1-.8S178.3,253.6,177.8,254.2Z" fill="#606060"/><path d="M151.9,239.7a1.4,1.4,0,0,0,2.2,1.8C155.3,240.1,153.1,238.3,151.9,239.7Zm1.6,1.3c-.5.6-1.5-.2-1-.8S154,240.4,153.5,241Z" fill="#606060"/><path d="M226.6,233.9a1.4,1.4,0,0,0,2.2,1.8C230,234.3,227.7,232.5,226.6,233.9Zm1.5,1.3a.6.6,0,1,1-.9-.7A.6.6,0,1,1,228.1,235.2Z" fill="#606060"/><path d="M199.6,260.9a1.4,1.4,0,1,0,2.2,1.8C203,261.3,200.8,259.5,199.6,260.9Zm1.5,1.3c-.4.6-1.4-.2-.9-.8S201.6,261.6,201.1,262.2Z" fill="#606060"/></svg>