<svg xmlns="http://www.w3.org/2000/svg" width="31.501" height="27.238" viewBox="0 0 31.501 27.238"><path d="M31.486,10.8q-.211,4.6-6.427,12.593-6.423,8.353-10.87,8.353-2.753,0-4.662-5.084C7.052,17.578,6,12.255,3.952,12.255a9.813,9.813,0,0,0-2.475,1.484L0,11.827C3.628,8.641,7.095,5.1,9.267,4.9q3.681-.359,4.528,5.027c2.018,12.762,2.911,14.688,6.581,8.909A12.414,12.414,0,0,0,22.5,14.084c.337-3.227-2.517-3.009-4.451-2.18q2.32-7.6,8.873-7.39c3.22.084,4.746,2.187,4.563,6.286Z" transform="translate(0 -4.508)" fill="#efe8f2"/></svg>