<?xml version="1.0" encoding="UTF-8"?><svg id="Layer_1" xmlns="http://www.w3.org/2000/svg" viewBox="0 0 100 100"><defs><style>.cls-1{fill:#eee7f2;}</style></defs><path class="cls-1" d="M48.69,29.23c0,9.91-6.67,17.44-15.52,17.44-4.23,0-7.27-1.45-9.38-3.96v16.25H12.82V12.72h10.97v3.04c2.11-2.51,5.15-3.96,9.38-3.96,8.85,0,15.52,7.53,15.52,17.44Zm-11.03,0c0-4.29-2.84-7.2-6.94-7.2s-6.94,2.91-6.94,7.2,2.84,7.2,6.94,7.2,6.94-2.91,6.94-7.2Z"/><path class="cls-1" d="M89.67,29.73c0,9.91-6.67,17.44-15.52,17.44-4.23,0-7.27-1.45-9.38-3.96v3.04h-10.97V0h10.97V16.25c2.11-2.51,5.15-3.96,9.38-3.96,8.85,0,15.52,7.53,15.52,17.44Zm-11.03,0c0-4.29-2.84-7.2-6.94-7.2s-6.94,2.91-6.94,7.2,2.84,7.2,6.94,7.2,6.94-2.91,6.94-7.2Z"/><path class="cls-1" d="M46.2,52.75v46.24h-10.97v-3.04c-2.11,2.51-5.15,3.96-9.38,3.96-8.85,0-15.52-7.53-15.52-17.44s6.67-17.44,15.52-17.44c4.23,0,7.27,1.45,9.38,3.96v-16.25h10.97Zm-10.97,29.73c0-4.29-2.84-7.2-6.94-7.2s-6.94,2.91-6.94,7.2,2.84,7.2,6.94,7.2,6.94-2.91,6.94-7.2Z"/><path class="cls-1" d="M81.43,88.5c0,8.56-7.8,11.5-14.79,11.5s-12.6-2.33-15.33-8.15l9.93-5c.89,2.53,2.67,3.76,5.34,3.76,1.98,0,3.08-.62,3.08-1.85,0-3.56-16.7-1.3-16.7-13.42,0-7.74,6.78-11.5,13.76-11.5,6.16,0,11.3,2.33,14.1,7.94l-9.58,4.31c-.96-1.92-2.33-2.94-4.24-2.94-1.57,0-2.53,.62-2.53,1.64,0,3.77,16.98,.69,16.98,13.69Z"/></svg>