<svg id="ae4f2da8-1d80-452d-89ea-d8720b6095c0" data-name="Layer 1" xmlns="http://www.w3.org/2000/svg" viewBox="0 0 270 270"><g id="f30dd044-9009-4329-bd4d-118bae7a7662" data-name="Measuring Cup"><path d="M169.9,120.1c-1.2-2.1-5-1.7-7.1-1.8l1.5-7.6c0-.1-.1-.3-.2-.3a55.5,55.5,0,0,0-15.8-6.5,59.3,59.3,0,0,0-36.2,3.5c-2,.9-8.2,1.1-10.3,1.4h-.3c-1.8,0-2.5,1.6-1.7,3.1l9.3,19.4a34.1,34.1,0,0,1,3.1,11.1,114.3,114.3,0,0,0,3.5,19.4c1.9,5.4,20,6.7,27.8,5,1.7-.4,10.3-2.2,10.5-4.8l2.3-11.6h1.8c2.4-.3,4.3-2.8,4.9-4.7l7.4-23.1A2.8,2.8,0,0,0,169.9,120.1Zm-68.2-10.4c2.2-.4,8.7-.6,10.7-1.5,12.7-6,34.7-7.4,50.6,2.5-14.9,7-35.7,10.7-55.4.2h-5.9C101,110.8,101.3,109.8,101.7,109.7Zm41.6,56.2c-11,2-24.3-.1-26.8-4.2.1-1.8,9.5-3.7,18.4-3.8s18.4,2.3,18.3,4S148.2,165,143.3,165.9Zm10.1-5.2c-6.3-4.7-30.1-4.8-37.1-.1a113.2,113.2,0,0,1-3.3-18.3,32.3,32.3,0,0,0-3.1-11.3l-9.4-19.5a1.6,1.6,0,0,1,0-1.5,1.4,1.4,0,0,0,1.2,1.7h5.9c19.7,10.7,40.9,6.8,55.7-.3l-1.4,6.9h-2.2c-1.8-.2-3.1,2.1-4.1,3.2s0,1.5.8,1.5l4.6.2-4.5,22.1c-4.7,0-4.2-.5-6.6,3.6a1,1,0,0,0,.9,1.6h4.7Zm9.8-37.5c1.5.1,3,1.2,2.6,2.7l-5.6,19.3h-2.8l4.4-22Zm6.4-.8-7.3,23.1a7.3,7.3,0,0,1-3.3,3.9c-.3.5-7.6.1-8.2.2s-.3-.1-.3-.2l1.7-2.8a1.3,1.3,0,0,1,1.2-.6h6.5l-.2.9a2.1,2.1,0,0,1-2,1.2.4.4,0,1,0,0,.8,2.6,2.6,0,0,0,2.7-1.7l6.2-21.2a2.5,2.5,0,0,0-.4-2.2,3.8,3.8,0,0,0-2.9-1.5l-6.9-.3-.2-.2,2-2.3a1.5,1.5,0,0,1,1.4-.5h2.6s.1.1.1,0h4.2C168.3,119.3,170.1,120.6,169.6,122.4Z" fill="#efe8f2"/><path d="M107.3,112.8a.4.4,0,0,0-.4.4v8.2a.4.4,0,0,0,.8,0v-8.2A.4.4,0,0,0,107.3,112.8Z" fill="#efe8f2"/><path d="M104.9,112.8a.4.4,0,0,0-.4.4v3.9a.4.4,0,0,0,.4.4.4.4,0,0,0,.4-.4v-3.9A.5.5,0,0,0,104.9,112.8Z" fill="#efe8f2"/></g><path d="M139,136.6a53.2,53.2,0,0,1-13.2.6c-.4-.1-.6.7.1.7a43.4,43.4,0,0,0,13.3-.5C140.1,137.2,139.6,136.5,139,136.6Z" fill="#efe8f2"/><path d="M139.5,146.3a52.4,52.4,0,0,1-13.1.6c-.5-.1-.7.7,0,.7a43.2,43.2,0,0,0,13.3-.5C140.6,146.9,140.1,146.2,139.5,146.3Z" fill="#efe8f2"/><path d="M139,141.7c-7.2,1.3-15.4.9-20.9-.7-.1-.1-.3,0-.3.3s.2.4.4.5h0c6.5,1.7,15.9,1.9,21,.7C140.1,142.3,139.6,141.6,139,141.7Z" fill="#efe8f2"/><path d="M140.3,151c-7.3,1.3-15.6.8-21.1-.9a.4.4,0,0,0-.4.4c0,.2.2.4.5.5h0c6.5,1.8,16.1,2,21.2.8C141.4,151.6,140.9,150.9,140.3,151Z" fill="#efe8f2"/></svg>