<svg id="aa614902-8bf5-4fdb-80c1-7997e4454f98" data-name="Layer 1" xmlns="http://www.w3.org/2000/svg" viewBox="0 0 270 270"><g id="bf7cb3d7-25c7-410c-a361-ed238e3228b9" data-name="Egg Timer"><path d="M154.2,83.3c-5.1-.4-11.9-.7-19.2-.7-24.1-.2-27.6.1-27.6,1.5a.4.4,0,0,0,.2.4c.2,1.7,1.2,8,3.3,8.8a29.9,29.9,0,0,0,5.2,1l.8,71.7a13.2,13.2,0,0,0-4.8,3.5c-.2.2-2.1,2.3-2.6,9.2v.2c1.6,7.3,24.1,8.5,25.1,8.6s23.5-.9,25.1-8.2c-.1-6.6-2.2-9.6-2.3-9.6s-2.6-2.7-5.3-4l1.6-70.5a24.8,24.8,0,0,0,5.3-.8c2.2-.8,3.2-7.1,3.5-8.8S162.8,84,154.2,83.3Zm-19.2.3c13,.1,22.5.8,25.6,1.5-7.6.6-45.3.1-51.2-1.1C113.1,83.4,126.1,83.5,135,83.6Zm-17.1,82.7h0l-.8-71.9,4.1.3.4,22.7c-.1.2,0,.4,0,.6l.7,45.6v.9h0V172c0,.8-.3,1.2-2.2,1.2s-2.3-.1-2.2-1.3Zm23.6-69.1c2.6.9,4.7,4.4,5.9,7.5l-.4,11.6c-1.2-.4-4.3-.8-12-1.4s-11.6-.5-12.5-.2v-9.5c1.3-3.4,4-7.3,6.4-8.1a3.4,3.4,0,0,0,2.2-2h8.4A3.4,3.4,0,0,0,141.5,97.2Zm-1-2h7.1l-.2,7c-1-2.2-2.9-5.2-5.5-6.1A2.6,2.6,0,0,1,140.5,95.2Zm-.5,32.3c-2,2.5-5.7,5.2-4.2,7.1,4.5,5.5,9.8,12.3,10.4,13.8l-.4,12.7a92.6,92.6,0,0,0-9.5-4.8,8.2,8.2,0,0,0-2.1-.1,4.5,4.5,0,0,0-2.2.3l-8.8,3.8V149.1c.7-1.7,8.5-11.8,10.9-14.5s-2.4-4.8-4.4-7.4-6.6-7.3-7-9.3v-1.7c2.1,1.2,9.8,2.5,11.4,2.5s11.3-.3,13-.9C147,119.7,142.9,124.2,140,127.5Zm6.9-6.9-.7,25.9c-2.1-3.3-7.2-9.6-9.6-12.5a.6.6,0,0,1-.1-.7C138.7,130,145,124,146.9,120.6Zm-1.1,41.6h0v2.5c-2.4,3.5-8.1,4.9-11,4.6s-8.9-1.3-11.4-5.1v-2.9c1.7-.8,8.6-3.7,9.2-4.1a4.6,4.6,0,0,1,1.7-.1,6.5,6.5,0,0,1,1.9.1C136.7,157.5,144.5,161.4,145.8,162.2Zm-22.8-15-.4-26.9c2,3.4,8.6,9.7,10.6,12.9.2.3.2.5,0,.7S125.5,143.4,123,147.2Zm.5-31.7c1.1-.1,3.9-.1,11.4.4s9.6.9,11,1.1a86.5,86.5,0,0,1-11.9.7A44.5,44.5,0,0,1,123.5,115.5Zm5-19.4c-2.3.8-4.6,3.7-6.1,6.7l-.2-8,7.7.3A3.2,3.2,0,0,1,128.5,96.1Zm30.2,83c-1.3,5.4-17.9,7.2-24.1,7.4s-22.8-2.4-24.1-7.8a23.6,23.6,0,0,1,1.3-6.6c4.8,8.4,41.6,9.1,45.8.5A21.4,21.4,0,0,1,158.7,179.1Zm-1.8-7.7c0,3.2-9,6.5-22.3,6.4s-22.2-4.2-22.1-6.8c0-.8,1.4-2.3,4.4-3.9v4.8a2.1,2.1,0,0,0,.5,1.5,3.5,3.5,0,0,0,2.7.8c1,0,3.2,0,3.2-2.2v-6.1c2.6,2.9,7.9,4.6,11.4,4.5a14.3,14.3,0,0,0,11-4l-.2,5.7c-.1,1.9,1.6,2.4,3.2,2.3s3.2,0,3.3-2.1v-5.5C155.1,168.3,156.9,170,156.9,171.4Zm-5.8-5.4h0v6.3c-.1.7-.4,1.1-2.3,1.1a3.4,3.4,0,0,1-1.9-.4,1.2,1.2,0,0,1-.3-.9l.3-9.8V162l1.8-66.7h4.1Zm7.6-72.6c-1.8.7-7,.8-9.6.9l-18.5-.2-8.7-.3h-.1l-5.2-.4a27.6,27.6,0,0,1-5.4-1c-1.1-.4-2.1-4.4-2.5-7.4,9.7,1.7,49.6,1.7,52.7,1.1C160.9,89.1,159.8,93,158.7,93.4Z" fill="#efe8f2"/><path d="M134.8,136.5a.6.6,0,0,0-.6.5v16.1a.5.5,0,0,0,1,0l.2-16.1A.5.5,0,0,0,134.8,136.5Z" fill="#efe8f2"/><path d="M136.9,139.4v9.4a.5.5,0,0,0,1,0v-9.4A.5.5,0,1,0,136.9,139.4Z" fill="#efe8f2"/><path d="M132.1,142.8a.5.5,0,0,0-.5.5v7.5a.5.5,0,0,0,.5.5.5.5,0,0,0,.5-.5v-7.5A.5.5,0,0,0,132.1,142.8Z" fill="#efe8f2"/><path d="M134.4,128.7c-.5,0-.5.9,0,.9A.5.5,0,0,0,134.4,128.7Z" fill="#efe8f2"/><path d="M137.6,160.1c-.5,0-.5.9,0,.9A.5.5,0,1,0,137.6,160.1Z" fill="#efe8f2"/><path d="M131.7,164.2c-.6,0-.6.9-.1.9S132.2,164.2,131.7,164.2Z" fill="#efe8f2"/><path d="M128.3,162.9c-.5,0-.5.9,0,.9A.5.5,0,0,0,128.3,162.9Z" fill="#efe8f2"/><path d="M139.9,166.7c-.5-.1-.7.8-.1.9S140.5,166.8,139.9,166.7Z" fill="#efe8f2"/><path d="M131.1,126.7a.5.5,0,0,0,0,.9C131.6,127.6,131.7,126.7,131.1,126.7Z" fill="#efe8f2"/><path d="M133.6,126.1c-.5,0-.5.9,0,.9A.4.4,0,1,0,133.6,126.1Z" fill="#efe8f2"/><path d="M127.1,120.6c-.5-.1-.5.8,0,.8A.4.4,0,1,0,127.1,120.6Z" fill="#efe8f2"/></g></svg>