<svg id="bfb8f66c-2b69-4b9e-89c5-ab73f8619e09" data-name="Layer 1" xmlns="http://www.w3.org/2000/svg" viewBox="0 0 270 270"><g id="ff13f585-aa52-48d2-9aee-453b93ebfc6b" data-name="Measuring Spoons"><path d="M182.4,116.7a4.8,4.8,0,0,0-2.2-4c-4.3-2.5-10.3,3.9-10.1,9a5.1,5.1,0,0,0-2.4,1.5h-2l-43.6-8.5a6.5,6.5,0,0,0-3.9.5c-3.3-8.2-17.8-11-25.6-5.9s-5.6,15.3,4,18.6c-6,7.2,2.2,15.7,11.6,15.6-3.4,5,1.1,10.8,7.7,12.2s14.8-2.9,11.4-9.7a2.2,2.2,0,0,1,1.3-1.9l24.4-8.8-11.7,9.8a13.2,13.2,0,0,0-1.9,4.4c-4.4-1.9-11.5-.8-12.7,4.3s2.7,7.8,7.8,8.9,10.1-.5,10.9-5.7a5.8,5.8,0,0,0-1.3-4c.5-.9.2-3.3,1.4-4l27.9-20a4.6,4.6,0,0,0,1.7-2.4C179.1,126.5,182.9,120.8,182.4,116.7Zm-55.2,32.5a6.1,6.1,0,0,1-3.9,2.7c.2-.1.2-.3.1-.5a5.5,5.5,0,0,0-9.3,0c-3.4-1.4-5.2-3.5-6-5.9C111.4,137.5,127,140.7,127.2,149.2ZM123,152a14.1,14.1,0,0,1-8.1-.3,4.7,4.7,0,0,1,7.8.1Zm1-9.9v.3a14,14,0,0,0-5.8-2.2,7.9,7.9,0,0,0,2.5-8.5,3.1,3.1,0,0,1,2.3-1.2l36.9-2.6-34.6,13A2,2,0,0,0,124,142.1Zm-10.3-3.8c-2.3-4-8.6-4.1-10.9-.1-3.7-1.1-6.5-3.2-7.4-5.7a7.5,7.5,0,0,1,2.2-4.3l.2-.3c6.2-6,20.8-3.8,22.3,5.4C119.2,135.6,116.9,137.3,113.7,138.3Zm-.9.2a17.9,17.9,0,0,1-9.2-.1A5.7,5.7,0,0,1,112.8,138.5Zm-9.5-14.4a30.7,30.7,0,0,1-5.3-.6c2.6-4.3,9.3-4.4,11.9-.2l-1.6.4a16.4,16.4,0,0,0-5,.5Zm15.1,4a13.7,13.7,0,0,0-3.3-2.5,8.7,8.7,0,0,0,3.7-7.1,4.3,4.3,0,0,1,2.5-.1l27.3,6.2-27.2,2A5.4,5.4,0,0,0,118.4,128.1Zm-4.1-2.9a22.2,22.2,0,0,0-3.9-1.2c3.4-1.1,6.2-2.9,7.6-4.9A8.8,8.8,0,0,1,114.3,125.2Zm49.6,1.1-1.4.5-39.6,2.8a4.2,4.2,0,0,0-2.6,1.2,12,12,0,0,0-1.3-2.1,5.5,5.5,0,0,1,2.5-1.3l44.2-3.3c0,.1.1.1.1,0h.8Zm-44.5-10.5a4.3,4.3,0,0,1,2.5-.2l40.7,7.9-11.1.9-30-6.8a6.2,6.2,0,0,0-2.7,0,8,8,0,0,0-.3-1.5Zm-26.3-5.7c7.9-5.2,23.6-1.7,24.8,7.4-1,2.2-3.5,4.3-7.2,5.5-2.9-4.9-10.7-4.8-13.5.2h0c-4.4-1.2-7.8-3.5-8.8-6.3S90.2,111.9,93.1,110.1Zm-4.7,8.7c2.2,3.1,7.1,5.4,12.8,6a11.4,11.4,0,0,0-3.9,2.5C92.4,125.7,89.1,122.4,88.4,118.8Zm18.7,23.9c-6-.4-10.8-4-11.6-8.2,4.5,6.6,19.8,7.4,24.6.6a7.9,7.9,0,0,1-3.2,5c-2.9-.1-6,.6-8,2.7Zm9,12.3c-4.8-1-8.2-4.4-8.2-7.9,2.3,5.8,14.3,8.4,19.1,3.7C125.7,154.2,121,156.1,116.1,155Zm12.2-11.6a3.1,3.1,0,0,0-1.6,1.6,10.4,10.4,0,0,0-2.1-2.1,1.9,1.9,0,0,1,.9-1.2L161.9,128l-7.1,5.9Zm12.8,18.1c-4.8,2.4-13.4-1-13.6-6.1,2.5,4.8,12.1,6.9,16.6,3.5A6,6,0,0,1,141.1,161.5Zm-7.2-2.4c1.7-2.3,4.9-1.9,6.5.4A13.1,13.1,0,0,1,133.9,159.1Zm10.7-1.9a6.4,6.4,0,0,1-3.8,2.2.4.4,0,0,0,.1-.5,4.7,4.7,0,0,0-7.8-.1c-2.9-1.1-5-3.1-5.4-5.2C130.6,146.4,144.8,149.5,144.6,157.2Zm29.9-31.5a3.7,3.7,0,0,1-1.6,2.7l-27.9,20c-1.3.9-1.2,2.6-1.5,3.9a12.4,12.4,0,0,0-3.2-2.3c-.2-1,1.2-3.8,1.5-4.2s27.2-23.1,28.3-23.2a5.2,5.2,0,0,0,.7,2.2.5.5,0,0,0,.6.2.4.4,0,0,0,.1-.6,6.5,6.5,0,0,1-.6-2.1A3,3,0,0,1,174.5,125.7Zm5.8-3.8a8,8,0,0,1-5,4,3.8,3.8,0,0,0-4.4-4.4c-.1-4.3,5.3-10.3,8.9-8.1S181.9,119.3,180.3,121.9Z" fill="#efe8f2"/><path d="M141.9,148.9c-.4-.3-.9.4-.4.7s1.1,1,1.5.5S142.3,149.2,141.9,148.9Z" fill="#efe8f2"/></g></svg>