<svg id="e901dde1-a69e-47ad-8f07-62873e673c30" data-name="Layer 1" xmlns="http://www.w3.org/2000/svg" viewBox="0 0 270 270"><path d="M134.9,60h0c-12.3.6-17.8,14.5-15.5,26.7l12.9,59.7-.9.5c-.6.1-.9,54.7-1.1,55a4.9,4.9,0,0,0,2.5,4.2c-.2,5.4,6.1,5,5.8,0a5.1,5.1,0,0,0,2.4-4.2l-1.5-54.7c-.1-.6-.8-.6-1.5-1l12.7-59.4c2.1-12.7-3.6-26.4-15.8-26.8m0,.8h0c3.6,1.8,4.3,16.7,4,26l-3.7,55.5C135.6,128.8,126.1,69.5,134.9,60.8Zm0,0Zm-1.6.3c-3.3,6.5-3.2,15.1-2.9,25.5l4.3,59.2h-.2l-9.2-59.3C124.4,76.4,125.5,64.9,133.3,61.1Zm2.5,84.7c0-16.4,8.1-71.4.8-84.7,7,2.9,9.2,14.8,8.2,25.6l-8.9,59.1ZM134.9,60h0M120.2,86.5c-1.8-10.4,1.5-21.2,10.5-24.9-5.9,5.4-7.2,14.9-6.2,25.1l9.2,59.3h-.6Zm16.9,121.9c-1.4,1.8-3.5.3-3.5-1.9a6.1,6.1,0,0,0,4.2,0A3.2,3.2,0,0,1,137.1,208.4Zm3-6.5c0,5.5-8.8,5.5-9,0l.9-54.4c1.4-1.1,5.5-1.1,6.7-.1Zm-1-140.3c8.6,3.2,12.6,14.3,10.8,25.1L137.2,146h-.5l8.9-59.1C146.8,76.4,144.2,65.6,139.1,61.6Z" fill="#efe8f2"/></svg>