<svg id="a9061ebe-da2b-49ec-908f-c9ed28fd78f0" data-name="Layer 1" xmlns="http://www.w3.org/2000/svg" viewBox="0 0 270 270"><path d="M156.3,166.9h-.1l-19.1-11.7c-.2-.2-.4-.1-.6,0a42.1,42.1,0,0,1-15.2,11,64.5,64.5,0,0,1-6.2,2.1c-4.1-12.2,2.5-28.9,5.1-34.6l3.7,3.4c.2.1.3.2.5.1s.3-.2.3-.4l2.5-21.8h0c0-.1,0-.1-.1-.1h0a.1.1,0,0,0-.1-.1h0l-19.7-11.8h-.4l-17.3,6.6h-.2v.2h.1l3.6,4.6c-7,13.4-13.9,33.6-7.6,53.9a25.1,25.1,0,0,0,4.6,8.3,10.5,10.5,0,0,0,3,2.5l23.5,13.1h.2a22.8,22.8,0,0,0,9.9,2.3h.6c17.2-.4,30-12.9,36.1-20.3.2-.2.1-.4,0-.6Zm-46.9-45.5L90.8,109.9l16.2-6.2,18.7,11.2Zm-.4.8,1.2,1.2-16.4-9.1-2.1-2.8Zm3.3,3.4h.1l.3.4c-13.2,24.9-14.2,49.8-2.5,61.9l.3.2-17.1-9.5a10,10,0,0,1-2.7-2.3,22.8,22.8,0,0,1-4.4-8.1c-6.2-19.8.5-39.6,7.4-52.9Zm.5,63.4-1.9-1.8c-11.5-11.8-10.4-36.4,2.8-61.1.1-.1,0-.4-.1-.5l-3.5-3.6,16.1-6.3-2.3,20.1-3.6-3.2h-.4l-.3.2c-3.1,6.7-12.3,29.5-2,42.1a17.2,17.2,0,0,0,2.7,2.7,17.5,17.5,0,0,0,4.6,2.6c5.6,2.1,12.2,1,19.8-3.4a60.7,60.7,0,0,0,11.3-8.8l6.3,6.3c-6,7.2-18.5,19.3-35.1,19.7A21.7,21.7,0,0,1,112.8,189Zm32.4-13.7c-9.5,5.9-16.1,5.4-20,4a15.6,15.6,0,0,1-4.3-2.5,19.7,19.7,0,0,1-2.5-2.5,19,19,0,0,1-3-5.1,44.6,44.6,0,0,0,21.5-13.1l18.4,11.2A64.8,64.8,0,0,1,145.2,175.3Z" fill="#efe8f2"/><path d="M176.1,155.7c6-10,12.7-25.9,10.6-44.4-.3-2.1-.6-4.3-1.1-6.4a26.2,26.2,0,0,0-3.4-8.6,22,22,0,0,0-6.9-7h0L155.2,77.9a22.7,22.7,0,0,0-5.5-2c-19.3-4.6-38.2,14.3-43.6,20.2H106v.2h.1l6.6,6.6h.1l20,10.9h.5c2.1-2.2,11-11,21-12.8a26.7,26.7,0,0,1,.8,4.8c1.2,9.7-.6,19.7-5.3,29.6l-4.5-2.5h-.5a.5.5,0,0,0-.2.4l-2.9,21.7a.5.5,0,0,0,.3.5l19.7,11.1h.4l17.4-7c.2-.1.3-.2.3-.4a.6.6,0,0,0-.1-.4Zm-33.4-.4,2.7-20.8,18.8,10.3L161.6,166Zm19.9-53.4a18.6,18.6,0,0,1,4.3,2,17,17,0,0,1,3.8,3.3c10.7,12.1.5,35.9-1.9,41l-3.8-4h-.1l-14.3-7.8c4.8-10,6.7-20.2,5.5-30.1a40.5,40.5,0,0,0-.9-4.8A18.6,18.6,0,0,1,162.6,101.9Zm-.1,64.1,2.5-20.5,3.6,3.8c.1.1.3.2.4.1l.4-.2c1.4-3,13.6-29.3,2-42.6a19.9,19.9,0,0,0-4.1-3.5,19.7,19.7,0,0,0-4.4-2.1c-5.6-1.6-11.9-.5-18.7,3.5a52.3,52.3,0,0,0-11.2,8.8l-5.9-6c15.1-17.3,35-24.6,47.4-17.4a20.9,20.9,0,0,1,7,6.9,29.3,29.3,0,0,1,3.2,8.3c.5,2.1.8,4.2,1.1,6.3,2.1,18.4-4.7,34.2-10.6,44.2-.2.1-.1.4,0,.5l3.3,3.5Zm-36.1-59.3L107.2,96.3c5.3-5.8,23.8-24,42.2-19.6a24.9,24.9,0,0,1,5.4,2l14.3,8.1C156.5,84,139.6,91.6,126.4,106.7Zm-.2.9,4.4,4.5-17.3-9.3-4.4-4.5Z" fill="#efe8f2"/></svg>