<svg id="fe810dbd-77da-4eb0-aba0-d5ccd712d121" data-name="Layer 1" xmlns="http://www.w3.org/2000/svg" viewBox="0 0 270 270"><path d="M110.6,113.1h.3a.7.7,0,0,0,.5-.4l.4-.9a.3.3,0,0,0,0-.4c0-.2-.2-.3-.3-.4a.6.6,0,0,0-.8.3l-.4.9a.6.6,0,0,0,.3.8Z" fill="#efe8f2"/><path d="M226.5,140.3l-37.9-12.1a58,58,0,0,0-7.5-8.9,64.1,64.1,0,0,0-11.3-8.7,13.1,13.1,0,0,0-6.5-2h-4.7c-.1-.2-.2-.5-.5-.6l-6.4-1.4a80.6,80.6,0,0,0-14.8-1,4.7,4.7,0,0,0-3.3,1.7,16,16,0,0,0-3.2,8.5,11.3,11.3,0,0,0,0,2.6,10,10,0,0,0-.8-1.4,8.2,8.2,0,0,0-6-2.9l-6,.5h-.1l-2.6-4.4a4.2,4.2,0,0,0-3.6-2.1l-15.2.2a4.6,4.6,0,0,0-3.1,1.3,59.5,59.5,0,0,0-6.3,7,58.3,58.3,0,0,0-7.2,12.3,7.3,7.3,0,0,1-2.6,2.9c-2.6,1.5-5.2,3-7.8,4.3a122,122,0,0,1-25.5,9.4c-.2,0-.3.1-.4.3a.7.7,0,0,0-.1.5.7.7,0,0,0,.6.4h.2a121.9,121.9,0,0,0,25.7-9.5c2.7-1.3,5.4-2.8,7.9-4.3a7.1,7.1,0,0,0,3.1-3.5,60.2,60.2,0,0,1,7.1-12,50.9,50.9,0,0,1,6.2-6.9,3.1,3.1,0,0,1,2.2-.9l15.2-.2a3.1,3.1,0,0,1,2.5,1.4l2.4,4H116a103.1,103.1,0,0,1-14.7-.4h-.4c-.2.1-.2.3-.3.5a.9.9,0,0,0,.6.7,121.9,121.9,0,0,0,14.8.4c2.6-.1,5.2-.4,7.6-.6a6.5,6.5,0,0,1,5,2.4,7.1,7.1,0,0,1,1.1,6,.4.4,0,0,0-.1.3,6.9,6.9,0,0,0-1.6,1.8,6.2,6.2,0,0,0-.9,2.7c0,.2-.2,3.6,1.3,5.6a3.9,3.9,0,0,1,.5,2,5.7,5.7,0,0,1-.3,1.5l-.3.7v.2c-.1.1-.2.3-.1.4a5.8,5.8,0,0,0-.3,1.9,6.3,6.3,0,0,0,1.1,3.5v.2a3.8,3.8,0,0,1-2.6,5.2l-.4.3a3.1,3.1,0,0,0-.2,1.9c.8,3.4-.2,6.6-2.4,8.1a6.3,6.3,0,0,1-3.7,1,.7.7,0,0,0-.6.3,9.5,9.5,0,0,1-3,3,10.9,10.9,0,0,1-4.7,1.5L92.1,165a20.2,20.2,0,0,0-8.1,1.2L53.8,177.1a.7.7,0,0,0-.4.8.6.6,0,0,0,.6.5h.2l30.2-10.9a19.6,19.6,0,0,1,7.6-1.2l19.2.9a9.9,9.9,0,0,0,5.4-1.6,12.2,12.2,0,0,0,3.3-3.1h.1a7.6,7.6,0,0,0,4-1.2c2.7-1.9,3.9-5.6,3-9.5a1.1,1.1,0,0,1,0-.8,5.2,5.2,0,0,0,3.5-4.8h0a6.4,6.4,0,0,0,3.5,1.4h0a3.4,3.4,0,0,0-2.3,3.2V154a3.6,3.6,0,0,0,1.3,2.6l1.4,1a19.8,19.8,0,0,0,11.7,2.9,47.6,47.6,0,0,0,31-.4h1.2l36.2,9.5h.2a.7.7,0,0,0,.6-.5.9.9,0,0,0-.1-.5l-.4-.3-36.2-9.4a3.1,3.1,0,0,0-1.9,0,44.1,44.1,0,0,1-16,2.7,47.1,47.1,0,0,1-14.4-2.3.1.1,0,0,0-.2,0,19.2,19.2,0,0,1-11-2.8l-1.4-.9a2.4,2.4,0,0,1-.7-1.6v-3.3a2,2,0,0,1,1.4-2l18.2-5.8a3.5,3.5,0,0,1,1.9,1c1.1,1.3.8,3.7-.6,5.6l-11.1,4.1a.7.7,0,0,0-.4.8.8.8,0,0,0,.6.4h.3l11.2-4.1.3-.2c1.9-2.5,2.2-5.6.6-7.4a4,4,0,0,0-1.2-1,4.1,4.1,0,0,0,1.8-2.7,4.5,4.5,0,0,0-2.7-4.7,14.4,14.4,0,0,0,1.9-3.1,12.6,12.6,0,0,0,.6-6.7h.5c0,3.1.8,12.3,8.4,19.1a25.8,25.8,0,0,0,12.9,6h.1c.3,0,.5-.3.6-.6a.6.6,0,0,0-.1-.4.5.5,0,0,0-.4-.3,23.3,23.3,0,0,1-12.2-5.7c-7.2-6.4-8-15.2-8-18.1h3.2a.6.6,0,0,0,.6-.6.7.7,0,0,0-.6-.7H155a3.7,3.7,0,0,0-3.1,1.8l-4,6.9c-3.2,2.8-7.2,2.6-8.9.7s-1-3.8-.8-4.6a24.7,24.7,0,0,0,1.9-5c.2-1.2.4-2.4.5-3.7a5.7,5.7,0,0,1,2.4-4.2,30.2,30.2,0,0,1,6.4-3.4,30.6,30.6,0,0,1,13.8-2.2,11.7,11.7,0,0,1,5.9,1.8,61.6,61.6,0,0,1,11.1,8.5,58,58,0,0,1,7.5,8.9l.3.2,38.1,12.2h.2a.7.7,0,0,0,.6-.4A.6.6,0,0,0,226.5,140.3Zm-79.3-28.7h-.1l-1.9-.7a16,16,0,0,0-4.9-.5l-.4.2c-.1.2-.2.3-.2.5s.1.3.3.5h.4a12.9,12.9,0,0,1,4.4.4l.9.3-3.4,2.1a6.8,6.8,0,0,0-2.9,5.2,23,23,0,0,1-2.4,8.3v.2c-.2.8-.7,3.8,1.1,5.8l.8.7h-4.7l-1.7-.2h-.4l-2-.4-.6-.5-.2-.3-.2-.2a9.4,9.4,0,0,1-.7-4.3,5.2,5.2,0,0,1,.7-2.2c1.4-2.3,4.9-3.5,8.9-2.9.4,0,.7-.2.7-.6a.6.6,0,0,0-.1-.4c-.1-.2-.3-.2-.4-.3a12,12,0,0,0-5.4.3v-.2a15.7,15.7,0,0,1-1.2-6.5,15.3,15.3,0,0,1,3-7.8,3.1,3.1,0,0,1,2.3-1.2,71.3,71.3,0,0,1,14.6,1l4.8,1a32.5,32.5,0,0,0-7.4,2Zm7.3,13.4a10.3,10.3,0,0,1-.5,6.1,11.6,11.6,0,0,1-2,3.2h-5l1.8-1.2V133l4.1-7A2.5,2.5,0,0,1,154.5,125Zm-2,16.6-16,4.5a6,6,0,0,1-5.2-1,5.3,5.3,0,0,1-2.2-4.3,5.7,5.7,0,0,1,.3-1.8l.4-.9a6.4,6.4,0,0,1,2.5-2.4l2,.3,17.9-.4a3.4,3.4,0,0,1,2.5,3.6A3,3,0,0,1,152.5,141.6Zm-22-6.2-.4.3v-.4Zm1.1-12.5h0l-.5.3a5.3,5.3,0,0,0,.1-1.3A10.4,10.4,0,0,1,131.6,122.9Z" fill="#efe8f2"/><path d="M178.7,151.9c-.1-.1-.3,0-.4.1a.5.5,0,0,0-.3.4c0,.7-.1,1.3-.1,1.9a.7.7,0,0,0,.1.5l.5.2h0a.6.6,0,0,0,.6-.6c.1-.6.1-1.2.2-1.8S179.1,151.9,178.7,151.9Z" fill="#efe8f2"/><path d="M179.7,146.1h.2a.6.6,0,0,0,.6-.5l.9-3c.5-1.5,1.1-2.9,1.7-4.4a.6.6,0,0,0-.3-.8h-.5a.5.5,0,0,0-.3.3,42.2,42.2,0,0,0-1.8,4.5l-.9,3.1C179.2,145.7,179.4,146.1,179.7,146.1Z" fill="#efe8f2"/><path d="M135.4,113.9a.4.4,0,0,0-.5.1.3.3,0,0,0-.3.3,10.6,10.6,0,0,0-.1,5.3.8.8,0,0,0,.6.4h.2a.8.8,0,0,0,.5-.7,9,9,0,0,1,0-4.6.4.4,0,0,0-.1-.5A.3.3,0,0,0,135.4,113.9Z" fill="#efe8f2"/><path d="M131.7,126.8h-.5l-.3.4a10.9,10.9,0,0,0,0,4.6.6.6,0,0,0,.6.5h.1l.4-.3a1.1,1.1,0,0,0,.1-.5,8.8,8.8,0,0,1,.1-4,.9.9,0,0,0-.1-.5Z" fill="#efe8f2"/><path d="M136.7,150.3c-.1-.2-.2-.2-.4-.3h-.4a.5.5,0,0,0-.3.5,6.6,6.6,0,0,0,.4,3.7.8.8,0,0,0,.6.4h.3l.3-.3c.1-.2,0-.4,0-.5a6.5,6.5,0,0,1-.4-3A.4.4,0,0,0,136.7,150.3Z" fill="#efe8f2"/><path d="M133.7,139.4a.4.4,0,0,0-.1-.5l-.4-.3h-.4a.5.5,0,0,0-.3.4,6.4,6.4,0,0,0,.6,4.3.5.5,0,0,0,.6.4c.1,0,.2,0,.2-.1a.5.5,0,0,0,.3-.8A6,6,0,0,1,133.7,139.4Z" fill="#efe8f2"/><path d="M150.1,117.7a.6.6,0,0,0-.9.1.7.7,0,0,0,.1.9,7.6,7.6,0,0,1,1.9,2.1,5,5,0,0,1,.5,1.3.8.8,0,0,0,.6.4h.2l.4-.3a.4.4,0,0,0,0-.5,4.7,4.7,0,0,0-.6-1.5A7.5,7.5,0,0,0,150.1,117.7Z" fill="#efe8f2"/><path d="M125.1,125.2h.2c.3,0,.6-.2.6-.4a6.1,6.1,0,0,0,0-3.6,6.8,6.8,0,0,0-2.5-3.2.7.7,0,0,0-.7,1.1,4.9,4.9,0,0,1,2,2.5,4.3,4.3,0,0,1,0,2.8A.6.6,0,0,0,125.1,125.2Z" fill="#efe8f2"/><path d="M119,157.5c-.2.1-.3.2-.3.4a.6.6,0,0,0,.1.4.5.5,0,0,0,.5.3h.4c1.9-1.3,2.7-3.9,2.1-6.6l-.3-.4H121l-.4.3a.9.9,0,0,0-.1.5C121,154.4,120.4,156.5,119,157.5Z" fill="#efe8f2"/><path d="M85,139.7a.6.6,0,0,0-.8-1l-1.5,1.1a13.9,13.9,0,0,1-8.8,1.9h-.4c-.2.1-.2.3-.3.5l.2.4c.1.2.2.2.4.3h1.8a14.7,14.7,0,0,0,7.8-2.1Z" fill="#efe8f2"/><path d="M82.9,159.2c-1-.6-3.8-.5-6-.1a7.6,7.6,0,0,0-2,.6.6.6,0,0,0-.2.9.5.5,0,0,0,.5.3h.3l1.6-.5c2.6-.5,4.7-.3,5.1,0h.4l.4-.3a.4.4,0,0,0,.1-.5Z" fill="#efe8f2"/><path d="M115,92.4a.6.6,0,0,0,.6.5h.1l.5-.3c0-.2.1-.3,0-.5l-2.4-12.6a.8.8,0,0,0-.2-.4h-.5c-.2.1-.3.1-.4.3a.7.7,0,0,0-.1.5Z" fill="#efe8f2"/><path d="M132.7,177.7l-.3-.5h-.5a.8.8,0,0,0-.5.8l2.4,12.6a.8.8,0,0,0,.7.5h.1c.1-.1.3-.1.4-.3a.7.7,0,0,0,.1-.5Z" fill="#efe8f2"/><path d="M158.4,174.3l-10.6-7.2a.7.7,0,0,0-.9.2.4.4,0,0,0-.1.5l.2.4,10.7,7.2h.3a.5.5,0,0,0,.5-.3.4.4,0,0,0,.1-.5Z" fill="#efe8f2"/><path d="M89.3,95.7l10.6,7.2h.4a.5.5,0,0,0,.5-.3.7.7,0,0,0,.1-.5.5.5,0,0,0-.3-.4L90,94.6a.7.7,0,0,0-.9.2.7.7,0,0,0-.1.5Z" fill="#efe8f2"/><path d="M133.3,96.5h.3a.9.9,0,0,0,.6-.3l7.2-10.6a.8.8,0,0,0-.2-.9.7.7,0,0,0-.9.2l-7.2,10.6a.7.7,0,0,0-.1.5A.5.5,0,0,0,133.3,96.5Z" fill="#efe8f2"/><path d="M114.4,173.5h-.5l-.4.3-7.2,10.6a.9.9,0,0,0-.1.5c.1.2.1.3.3.4h.3a.6.6,0,0,0,.6-.3l7.2-10.6a.7.7,0,0,0,.1-.5Z" fill="#efe8f2"/><path d="M124.6,92.9h.1a.6.6,0,0,0,.6-.5l2.4-12.6a.6.6,0,0,0-.5-.8h-.4a.5.5,0,0,0-.3.4l-2.4,12.6A.6.6,0,0,0,124.6,92.9Z" fill="#efe8f2"/><path d="M123.1,177.1h-.5a.8.8,0,0,0-.2.5l-2.5,12.5a.7.7,0,0,0,.1.5c.1.2.3.2.4.3h.2a.6.6,0,0,0,.6-.5l2.4-12.6a.9.9,0,0,0-.1-.5Z" fill="#efe8f2"/><path d="M141.5,173.7a.7.7,0,0,0-.9-.2.6.6,0,0,0-.1.9l7.2,10.6a.5.5,0,0,0,.5.3h.3a.7.7,0,0,0,.2-.9Z" fill="#efe8f2"/><path d="M106.1,96.3a.9.9,0,0,0,.6.3h.3a.7.7,0,0,0,.2-.9L100,85c-.1-.2-.2-.3-.4-.3h-.5a.6.6,0,0,0-.1.9Z" fill="#efe8f2"/></svg>