<svg id="a36fa015-3694-4fa2-80f6-3ced7a375e80" data-name="Layer 1" xmlns="http://www.w3.org/2000/svg" viewBox="0 0 270 270"><path d="M190.5,130.9c-.4-19.1-34.5-26.6-53.7-18.6l-49.4-29c-3.3-2.1-8.4-.8-7.9,3.4v4.7a5,5,0,0,0,2.2,4l42.3,25.1a14.7,14.7,0,0,0-.9,19.7c9.6,28.7,54.5,28.8,63.8.1A15.6,15.6,0,0,0,190.5,130.9ZM82,83.5a5.1,5.1,0,0,1,4.9.5l48.9,28.7a33.2,33.2,0,0,0-7.7,4.2L83.2,90.4a5.3,5.3,0,0,1-2.8-3.7v-.6A2.7,2.7,0,0,1,82,83.5Zm.3,11.1a3.6,3.6,0,0,1-1.9-3.2V88.9a6.1,6.1,0,0,0,2.3,2.2l44.7,26.3a21.6,21.6,0,0,0-2.7,2.5Zm72.9,15.3c19,0,34.5,9.4,34.5,21-1.7,27.7-67.4,27.7-69.1,0C120.6,119.3,136.1,109.9,155.2,109.9Zm0,51.2c-13.5,0-25.7-7.8-30.4-19.1,13.1,14.1,47.6,14.1,60.7,0C181,153.3,168.8,161.1,155.2,161.1Z" fill="#efe8f2"/><path d="M154.7,146.6c9.7,0,18.3-2.6,23.6-6.7a.2.2,0,0,0,.2-.2.3.3,0,0,0,.3-.3c14.2-12.8-4.4-25.4-24.1-25.2C114.6,115.6,117.5,146.1,154.7,146.6ZM131.3,139c.7-4.8,4.7-7.2,9.6-7.4a7.6,7.6,0,0,0,5-2.2c5.1-4.9,13.8-4.1,17.9.6a6.7,6.7,0,0,0,4.4,2c5,.2,9,2.7,9.5,7.3C167.1,147.9,141.8,147.9,131.3,139Zm47.4-.5c-.8-4.7-5.1-7.3-10.2-7.5a5.8,5.8,0,0,1-3.8-1.7c-4.8-5.4-14-5.8-19.7-.3a5.7,5.7,0,0,1-3.9,1.6c-5,.3-9.8,2.7-10.7,7.7a16.8,16.8,0,0,1-2.7-3.4c6.2-16.8,48.3-16.5,53.9.2A15,15,0,0,1,178.7,138.5Zm-24-23.5c16.7.2,31.7,7.9,27.4,19.2-6.6-16.7-48-16.8-54.9-.3C123.2,122.8,138,115.2,154.7,115Z" fill="#efe8f2"/><path d="M152.9,130.1a.6.6,0,1,0,0,1.1A.6.6,0,1,0,152.9,130.1Zm-.2.5c-.1-.3.4-.3.4,0A.2.2,0,1,1,152.7,130.6Z" fill="#efe8f2"/><path d="M157.5,131.4a.6.6,0,1,0,0,1.1A.6.6,0,1,0,157.5,131.4Zm-.3.6c0-.4.5-.4.5,0S157.2,132.2,157.2,132Z" fill="#efe8f2"/><path d="M137.4,135.1a.6.6,0,0,0,0,1.2C138.1,136.3,138.1,135.1,137.4,135.1Zm-.3.6a.3.3,0,0,1,.5,0A.3.3,0,0,1,137.1,135.7Z" fill="#efe8f2"/><path d="M169.7,137.1a.6.6,0,1,0,0,1.1A.6.6,0,1,0,169.7,137.1Zm-.2.5a.3.3,0,0,1,.5,0A.3.3,0,0,1,169.5,137.6Z" fill="#efe8f2"/><path d="M164.6,140a.6.6,0,0,0,0,1.2C165.3,141.2,165.3,140,164.6,140Zm-.3.6a.3.3,0,0,1,.5,0A.3.3,0,0,1,164.3,140.6Z" fill="#efe8f2"/><path d="M141.3,137.8a.6.6,0,1,0,0,1.2C142,139,142,137.8,141.3,137.8Zm-.3.6a.3.3,0,0,1,.5,0C141.5,138.6,141,138.6,141,138.4Z" fill="#efe8f2"/><path d="M132.5,149.8c-.8.1-.5,1.3.2,1.1A.6.6,0,1,0,132.5,149.8Zm.3.5c.1.3-.4.4-.4.1s.4-.4.4-.1Z" fill="#efe8f2"/><path d="M139.4,154.6a.6.6,0,0,0-1.2.2.6.6,0,0,0,1.2-.2Zm-.4.2c-.1.2-.4.2-.4-.1h0C138.5,154.3,139.2,154.4,139,154.8Z" fill="#efe8f2"/><path d="M177.7,149c-.5.6.4,1.4.9.8S178.2,148.4,177.7,149Zm.7.6c-.2.2-.6-.1-.4-.3A.3.3,0,1,1,178.4,149.6Z" fill="#efe8f2"/><path d="M157.4,157.6a.6.6,0,0,0,1,.7C158.8,157.8,157.9,157,157.4,157.6Zm.7.5a.3.3,0,1,1-.4-.3C157.9,157.6,158.3,157.9,158.1,158.1Z" fill="#efe8f2"/><path d="M149,164.4c-.5.6.4,1.4.9.8S149.5,163.9,149,164.4Zm.6.6c-.2.2-.6-.1-.3-.3h0C149.5,164.4,149.8,164.7,149.6,165Z" fill="#efe8f2"/><path d="M166.1,166.7a.6.6,0,0,0,0,1.2C166.9,167.9,166.9,166.6,166.1,166.7Zm.2.7a.3.3,0,1,1-.4-.3C166.1,166.9,166.5,167.2,166.3,167.4Z" fill="#efe8f2"/><path d="M157,173.8a.6.6,0,0,0,.1,1.2C157.9,175,157.8,173.7,157,173.8Zm.3.7a.3.3,0,1,1-.4-.3C157.1,174,157.5,174.3,157.3,174.5Z" fill="#efe8f2"/><path d="M159.2,169.4c-.7,0-.6,1.2.2,1.1S160,169.3,159.2,169.4Zm.3.7c-.2.3-.6-.1-.4-.3S159.7,169.9,159.5,170.1Z" fill="#efe8f2"/><path d="M164.8,179.4a.6.6,0,0,0,0,1.1C165.6,180.5,165.6,179.3,164.8,179.4Zm.2.7a.2.2,0,1,1-.3-.3C164.9,179.5,165.2,179.9,165,180.1Z" fill="#efe8f2"/><path d="M147.8,170.7a.6.6,0,1,0,.9.7C149.2,170.9,148.2,170.1,147.8,170.7Zm.6.5a.3.3,0,1,1-.4-.3C148.2,170.7,148.6,171,148.4,171.2Z" fill="#efe8f2"/><path d="M170.2,185.1a.6.6,0,1,0,.9.7C171.6,185.3,170.7,184.5,170.2,185.1Zm.6.5a.3.3,0,1,1-.4-.3h0C170.6,185.1,171,185.4,170.8,185.6Z" fill="#efe8f2"/><path d="M152.3,183.3a.4.4,0,0,0-.4.2c-.4.6.5,1.3.9.7A.5.5,0,0,0,152.3,183.3Zm.3.7-.3-.3.3.3c-.2.2-.6-.1-.4-.3S152.8,183.8,152.6,184Z" fill="#efe8f2"/><path d="M141.9,178c-.4.6.5,1.4,1,.8S142.4,177.5,141.9,178Zm.7.6c-.2.2-.6-.1-.4-.3A.3.3,0,1,1,142.6,178.6Z" fill="#efe8f2"/><path d="M172.6,175.7c-.5.5.5,1.3.9.7A.6.6,0,1,0,172.6,175.7Zm.7.5c-.2.2-.6-.1-.4-.3A.3.3,0,1,1,173.3,176.2Z" fill="#efe8f2"/><path d="M161.5,186.8a.6.6,0,0,0,1,.7A.6.6,0,0,0,161.5,186.8Zm.7.5c-.2.2-.6-.1-.4-.3A.3.3,0,1,1,162.2,187.3Z" fill="#efe8f2"/></svg>