<svg id="e64e5cb6-70f0-42e3-96f0-194dd37309f3" data-name="Layer 1" xmlns="http://www.w3.org/2000/svg" viewBox="0 0 270 270"><g id="f28426d8-55f7-40b3-afd2-69d7b0deea65" data-name="Podcast Mic"><path d="M268.3,253.3l-36.7-37.2h.1A1382.1,1382.1,0,0,0,164.3,78.3a181.3,181.3,0,0,0-35.7-45.6c-13.9-12.7-26.4-19.8-35-20.1S73.4,15,72.2,27.2a2.5,2.5,0,0,0-2.5,2.5v9c-4.2-.4-8.5.7-8.6,5.7V75.3l-3.7.9a1.9,1.9,0,0,0-2,1.9v6.3c.2,2.7,3.8,2.1,5.7,2.6v4.7a2,2,0,0,0-2.4,1.9c.2.5-.4,6.6.4,6.7L56.9,124c-1.6,6.1,3.3,14,11.3,13.2h8.5a10.8,10.8,0,0,0,8.7-3c4-3.9,3.1-9.2,3-9.8l-2.7-24.1c.8-.1.3-6.2.4-6.7s-1.5-2.1-2.9-1.9V87c1.9-.6,5.3-.1,5.3-2.7.2-.1,6.4.2,6.2-.2L200.5,191.4l-4.7,4.7,2.5,2.4-6.4,6.4a2.4,2.4,0,0,0,0,3.5c-10.5,8.9-19.1-4.2-26.9-9.8a32,32,0,0,0-24.3-8.2l-88.5,7.4c-19,2-36.9-14.3-36.7-33.4a2.9,2.9,0,0,0,2.4-2.8v-6.8c15.4,1.7,14.9-72.6.7-72.1H11.8c-14.3-.4-14.6,73.2.3,72.1v6.8a2.9,2.9,0,0,0,2.5,2.8c-.2,19.6,18.1,36.3,37.6,34.3l88.5-7.5a31.7,31.7,0,0,1,23.7,8c8,6.1,17.3,19.3,28.1,9.8a2.6,2.6,0,0,0,3.5,0l6.3-6.4,2.5,2.4,4.5-4.6,55.6,56.3C267,259,270.5,255.5,268.3,253.3ZM18.6,83.6c12.8.5,15.4,76.8-4.4,70.3,11.1-6.5,11.1-63.8,0-70.3Zm-6.8,70.3c-13.2-.4-13.1-69.9,0-70.3S24.9,153.5,11.8,153.9Zm1.2,7.7v-6.8h4v6.8C17.1,164.2,13,164.2,13,161.6ZM70.6,29.7c0-1.3,1.3-1.8,2.4-1.6a1.6,1.6,0,0,1,1.6,1.6v9h-4ZM61.9,44.4c.2-4.5,4.2-5.2,7.8-4.9h5.8c3.3-.4,6.8,1,6.9,4.9V76.7a100.3,100.3,0,0,1-20.5,0Zm-.8,31.8v.5l-1.3-.2Zm26.5,48.3c1.3,5.8-3.7,12.7-10.8,11.8H68.2a10.2,10.2,0,0,1-7.9-2.7c-3.8-3.8-2.6-9.2-2.5-9.5L60,100.4H84.9Zm-3.4-32a1.1,1.1,0,0,1,1.1,1.1v5.9H59.6v-6a1.1,1.1,0,0,1,1.1-1.1ZM61.9,91.2V87.1a70.4,70.4,0,0,0,20.5,0v4.1Zm25.8-6.8a1.1,1.1,0,0,1-.8,1,71.3,71.3,0,0,1-29.8,0,1,1,0,0,1-.8-1V78.1a.9.9,0,0,1,1.1-1,128.1,128.1,0,0,0,13.8,1c5.3.4,10.9-1,16.1-.7C88,77.5,87.5,83.9,87.7,84.4Zm-4.5-7.8v-.3l1,.2Zm5.6,6.8V78.5h5.1v4.9Zm5.8-5.7H88.5a2,2,0,0,0-2-1.4l-3.3-.8v-31c0-4.3-3.9-6.2-7.7-5.7v-9a2.6,2.6,0,0,0-2.4-2.5c1.1-11.4,12.5-14.6,20.4-13.7s20.7,7.3,34.5,19.9a179.4,179.4,0,0,1,35.6,45.3A1397,1397,0,0,1,230,214.5C229.4,214.5,95.4,76.7,94.6,77.7Zm.2,5.3h0V78.5L203.3,188.6l-2.2,2.2ZM195.3,208.4c-.9.9-2.1.3-2.8-.6a1.7,1.7,0,0,1,0-2.3l6.4-6.4,2.8,2.9Zm9.5-4.6L203,202h0l-4.1-4.1h0l-1.9-1.8,4.1-4.1,7.6,7.8Zm-3.1-12.4,2-2,7.7,7.7-2.1,2.1Zm65.4,65.1a1.4,1.4,0,0,1-1.6-.4l-55.6-56.3,2.2-2.2,55.6,56.3A1.7,1.7,0,0,1,267.1,256.5Z" fill="#efe8f2"/><path d="M82.1,111a.4.4,0,0,0-.7.1l-4.1,5.4-2-2.7,3.5-4.7c.4-.5-.5-1.1-.9-.6l-3.3,4.4-2-2.7,2.8-3.6c.4-.5-.5-1.2-.9-.6L72,109.4,69.5,106c-.4-.6-1.3.1-.9.6l2.7,3.6-2,2.7L66,108.5c-.4-.5-1.2.1-.8.6l3.5,4.7-2,2.7-4.1-5.4c-.4-.6-1.2.1-.8.6l4.2,5.7-4.2,5.7c-.4.5.4,1.2.8.6l4.1-5.4,2,2.7-3.5,4.6c-.4.6.4,1.2.8.7l3.3-4.5,2,2.7-2.7,3.7c-.4.5.5,1.2.9.6l2.5-3.4,2.5,3.4c.4.6,1.3-.1.9-.6l-2.8-3.7,2-2.7,3.3,4.5a.6.6,0,0,0,.9-.7L75.3,121l2-2.7,4.1,5.4c.4.6,1.2-.1.8-.6L78,117.4l4.2-5.7A.5.5,0,0,0,82.1,111Zm-10.1.1,2,2.7-2,2.7-2-2.7Zm-4.7,6.3,2-2.7,2,2.7-2,2.7Zm4.7,6.3L70,121l2-2.7,2,2.7Zm2.6-3.6-2-2.7,2-2.7,2.1,2.7Z" fill="#efe8f2"/><path d="M92.5,79.2c-.3.1-3-.3-2.9.4s2.6.4,2.9.5A.5.5,0,0,0,92.5,79.2Z" fill="#efe8f2"/><path d="M92.5,81.1c-.3.1-3-.3-2.9.5s2.6.3,2.9.4A.5.5,0,0,0,92.5,81.1Z" fill="#efe8f2"/></g></svg>