<svg id="b82d0189-fddb-4525-833f-645756f7f9bf" data-name="Layer 1" xmlns="http://www.w3.org/2000/svg" viewBox="0 0 270 270"><g id="a67e0464-002c-437d-91b6-efb60b8aa334" data-name="Pie Tin"><path d="M135,82.8c-58.5-1.2-119.1,31.7-69.2,62.9l.6.4c31.1,18.9,100.5,19.5,133.3,2l1.5-.7c13.2-6.9,21.3-15.8,21.3-25.5C222.5,100.3,183.2,82.8,135,82.8ZM67.8,144.9c8.3-15.3,34.9-25.9,65.1-25.9s58.8,11.5,66,27.6C166.9,163.5,98.2,163,67.8,144.9Zm132.8.9c-17.3-37.4-114.8-37.9-134.5-1.9C19.2,114.1,78.8,83.5,135,84.6c47.2,0,85.6,16.7,85.6,37.3C220.6,130.9,213.1,139.3,200.6,145.8Z" fill="#efe8f2"/><path d="M188.7,130.6a1,1,0,0,0,1.3-.4l14-26.1a1,1,0,0,0-.4-1.3,1,1,0,0,0-1.3.4l-14,26.1A1,1,0,0,0,188.7,130.6Z" fill="#efe8f2"/><path d="M194,132.2a.9.9,0,0,0,1.3-.4l11.5-21.4a1,1,0,1,0-1.7-.9l-11.5,21.4A1,1,0,0,0,194,132.2Z" fill="#efe8f2"/><path d="M72.5,131.1a1,1,0,0,0,.9-1.3l-9-23.4a.9.9,0,0,0-1.2-.6.9.9,0,0,0-.5,1.2l8.9,23.5A1,1,0,0,0,72.5,131.1Z" fill="#efe8f2"/><path d="M233.4,121c-4.3-58-192.6-58-196.8,0,0,8.3,5.3,16.1,14.3,22.8L60,170a12.3,12.3,0,0,0,6,7,148.9,148.9,0,0,0,65.8,15.5,150.6,150.6,0,0,0,66.8-16,12,12,0,0,0,5-5l14.5-27.1C227.8,137.7,233.4,129.6,233.4,121ZM38.5,121c4.1-55.5,189-55.5,193,0,0,23.2-43.3,42-96.5,42S38.5,144.2,38.5,121ZM202,170.6a9.7,9.7,0,0,1-4.3,4.2,145.8,145.8,0,0,1-130.8.5,10.5,10.5,0,0,1-5.2-5.9l-8.2-23.8c35.7,25.1,124.8,25.4,161.4,1Z" fill="#efe8f2"/></g></svg>