<svg xmlns="http://www.w3.org/2000/svg" width="40.5" height="25.39" viewBox="0 0 40.5 25.39"><path d="M16.313,16.678a5.336,5.336,0,0,0,3.4-5.2c0-4.964-3.7-6.173-7.966-6.173H0V30.22H12.08c4.528,0,8.782-2.173,8.782-7.235,0-3.129-1.484-5.442-4.549-6.307ZM5.477,9.555h5.14c1.976,0,3.755.555,3.755,2.848,0,2.116-1.385,2.967-3.34,2.967H5.477V9.555Zm5.857,16.432H5.477V19.125h5.97c2.412,0,3.938,1.005,3.938,3.558,0,2.517-1.821,3.3-4.05,3.3ZM36.541,9.063h-10.1V6.609h10.1V9.063Zm3.959,12.4c0-5.337-3.122-9.788-8.782-9.788-5.5,0-9.232,4.134-9.232,9.548,0,5.618,3.537,9.471,9.232,9.471,4.31,0,7.1-1.941,8.445-6.068H35.789c-.471,1.54-2.412,2.355-3.916,2.355-2.9,0-4.43-1.7-4.43-4.591H40.458C40.479,22.092,40.5,21.776,40.5,21.459ZM27.45,19.266a3.873,3.873,0,0,1,4.113-3.853c2.489,0,3.741,1.462,3.952,3.853Z" transform="translate(0 -5.302)" fill="#efe8f2"/></svg>