<svg id="a0248781-47a7-4dca-8ec4-f0a1e8b9af0e" data-name="Layer 1" xmlns="http://www.w3.org/2000/svg" viewBox="0 0 270 270"><path d="M199.5,89.3,248.6,13c2.6-3.8.8-9.3-3.1-11.6s-9.6-1.6-11.8,2.4l-46,78.3a12.4,12.4,0,0,0,1.6,2.4l-32,33.2a726.1,726.1,0,0,0-125.9,6.7c-6.7.5-17.1,1.6-17.8,7.4a2.8,2.8,0,0,0-.1.9v24a4.3,4.3,0,0,0,4.1,4.4h.1c.9,31.3,13.6,60.7,35.6,80.3a9.9,9.9,0,0,1,3,7.2v9.2c0,2.9,2.1,5.2,4.6,5.2a411.9,411.9,0,0,0,147.7.4,5,5,0,0,0,4.7-5.2c.3-4.7-1.2-13.1,3.1-16.3,22-19.6,34.9-48.9,36-80.1.1-.3.4-.3.7-.3a4.1,4.1,0,0,0,3.5-4.2V133.3a4.7,4.7,0,0,0-.8-2.6c-1.8-3.1-7.2-5.2-13.7-5.3-18.4-2.7-37.1-4.8-55.6-6.2h0c.1-.1,10.7-29.9,10.8-30.1A8.6,8.6,0,0,0,199.5,89.3Zm-9.4-3.6c.1.2.3.3.5.5l-43.8,51.5h-6.9Zm3.2,2.6h.3l-20.7,48.5-5.3.2C169.3,133.9,193.4,88.3,193.3,88.3Zm-27.2,48.9H166l-8.6.3,32.1-44.8Zm-10.4.3h-7.1l43.1-50.5h.1ZM31.6,125.7A739.2,739.2,0,0,1,156,119l-.5.6L138,137.7a767.4,767.4,0,0,1-120.1-9.2C21.1,126.4,27.5,126.3,31.6,125.7ZM212.5,245.3c-1.1,2.8-.5,10.2-.6,13s-1.1,3.6-3.6,3.9A411.9,411.9,0,0,1,61,261.8a3.7,3.7,0,0,1-3.4-3.9c-.2-2.9.5-10.6-.8-13.3h.3a564.2,564.2,0,0,0,155.2.5h.3Zm2.9-4.4a9,9,0,0,0-2.1,2.7,563.3,563.3,0,0,1-156.7-.4l-.6-.3c-21.9-20.7-36.5-49-37-81.5a777.4,777.4,0,0,0,125.6,9.1h.4a783.2,783.2,0,0,0,105.9-8.4C249.9,192.9,237,221.7,215.4,240.9ZM254.1,131l.4.3.3.5h0a5.6,5.6,0,0,1,.4,1.2c.1.5-.1,23.9-.1,24.4a2.7,2.7,0,0,1-2.5,2.9,1.7,1.7,0,0,0-1,.3,771.3,771.3,0,0,1-233.5-.7h0l-.8-.2a2.7,2.7,0,0,1-2.5-3V132a2.8,2.8,0,0,1,2.4-2.2,774.1,774.1,0,0,0,235.4.6A2.8,2.8,0,0,1,254.1,131Zm-12-4.2a20.5,20.5,0,0,1,10,2.3c-23.7,3.6-47.7,6-71.7,7.4l5.2-14.7.4-1.2h0C204.7,121.9,223.6,124,242.1,126.8Zm-63.2,9.8-4.5.2,20.5-48,.9.3Zm13.5-51h0a8.3,8.3,0,0,1-1.7-1.5l-.4-.5a5.3,5.3,0,0,1-1-1.4L234.8,4.5c2-3.4,6.7-4,10-2s4.8,6.6,2.7,9.8L198.8,87.9h-1.1l-.9-.2A10.8,10.8,0,0,1,192.4,85.6Z" fill="#606060"/></svg>