<svg id="ffe1506b-0c94-4a94-a71e-17dae485cd0b" data-name="Layer 1" xmlns="http://www.w3.org/2000/svg" viewBox="0 0 270 270"><path d="M183.1,207h-.2l-43.2-26.4a1,1,0,0,0-1.3.2,97.9,97.9,0,0,1-34.2,24.6,83.6,83.6,0,0,1-14.1,4.8c-9.2-27.6,5.7-65.2,11.4-78l8.6,7.7c.2.3.6.3,1,.2a1.1,1.1,0,0,0,.7-.9l5.5-49.2c.1,0,0-.1,0-.1h0v-.2h0l-.2-.2h-.3L72.4,62.5a.9.9,0,0,0-.9-.1L32.6,77.2h-.2l-.2.2h0c-.1,0-.1.1-.1.2H32v.3h0v.2h0v.2h.1l8,10.3c-15.7,30.4-31.3,76-17,121.6a54.7,54.7,0,0,0,10.2,18.8,22.9,22.9,0,0,0,6.8,5.6l53.1,29.6.5.2a51.7,51.7,0,0,0,22.3,5.1h1.4c38.8-1.1,67.6-29.2,81.4-45.9a1.1,1.1,0,0,0-.1-1.4ZM77.2,104.2,35.3,78.4,71.8,64.5,114,89.6Zm-.8,2,2.6,2.6L42.1,88.2,37.3,82Zm7.3,7.6c.1,0,.2,0,.2.1l.8.8c-29.7,56.2-32,112.2-5.5,139.5l.5.6L41.2,233.3a20.7,20.7,0,0,1-6.2-5.2A51.6,51.6,0,0,1,25.1,210c-14-44.7,1.3-89.5,16.7-119.5Zm1.2,143-4.3-4C54.7,226,57.2,170.7,86.9,115a1,1,0,0,0-.1-1.2l-7.9-8,36.2-14.4L110,136.9l-8.1-7.3-.9-.3a1.2,1.2,0,0,0-.8.6c-6.9,15.1-27.7,66.5-4.3,94.9a41.8,41.8,0,0,0,5.9,6,36.5,36.5,0,0,0,10.4,6c12.6,4.8,27.6,2.1,44.6-7.8a135.3,135.3,0,0,0,25.6-19.8l14.3,14.3c-13.6,16.2-41.8,43.4-79.4,44.4A48.8,48.8,0,0,1,84.9,256.8Zm73.2-30.9c-21.6,13.3-36.5,12.3-45.2,9a38.1,38.1,0,0,1-15.4-11.4A40.3,40.3,0,0,1,90.8,212a84.7,84.7,0,0,0,14.2-4.8,100.6,100.6,0,0,0,34.4-24.5l41.3,25.2A130.8,130.8,0,0,1,158.1,225.9Z" fill="#606060"/><path d="M227.7,181.8c13.5-22.7,28.6-58.5,23.9-100.2A143.6,143.6,0,0,0,249.1,67a59.8,59.8,0,0,0-7.6-19.2A48.8,48.8,0,0,0,226,32l-.2-.2L180.6,6.1A63.1,63.1,0,0,0,168,1.6C124.6-8.8,82,33.9,69.9,47.3h-.1a.1.1,0,0,1-.1.1h0a.1.1,0,0,1-.1.1h0c0,.2,0,.3.1.4h0a.1.1,0,0,0,.1.1h.1l14.8,15,.3.2,45,24.5h1.1a.1.1,0,0,1,.1-.1h0c4.7-4.9,24.7-24.9,47.4-28.8a99.6,99.6,0,0,1,1.8,10.7c2.7,22-1.3,44.5-12,66.8l-10.2-5.6h-1a1.6,1.6,0,0,0-.6.8l-6.4,49.1a.9.9,0,0,0,.5,1l44.6,25.2h.9l39.2-15.8c.3-.2.6-.4.6-.8a1,1,0,0,0-.2-.9Zm-75.4-1,6.2-46.8,42.3,23.1L195,204.9Zm45-120.4a35.9,35.9,0,0,1,9.5,4.5,38.4,38.4,0,0,1,8.7,7.3c24.1,27.5,1.1,81.1-4.2,92.5l-8.6-8.9h-.3L170.2,138c10.9-22.7,15-45.6,12.3-68a97.5,97.5,0,0,0-1.9-10.8A38,38,0,0,1,197.3,60.4ZM197,205l5.7-46.2,8.2,8.4a1,1,0,0,0,1.6-.2c3.2-6.7,30.8-66.2,4.5-96.2a44.6,44.6,0,0,0-9-7.7,44.1,44.1,0,0,0-10.1-4.7c-12.6-3.8-26.8-1.2-42.2,7.8a117.4,117.4,0,0,0-25.2,19.9L117.2,72.4c34.1-38.8,79-55.3,106.8-39.2a46.4,46.4,0,0,1,15.8,15.7,58.3,58.3,0,0,1,7.3,18.6,115.3,115.3,0,0,1,2.4,14.3c4.7,41.5-10.4,77.1-23.9,99.6a.9.9,0,0,0,.1,1.2l7.5,7.8ZM115.6,71.2,72.3,47.8C84.4,34.6,125.9-6.3,167.6,3.6a57.6,57.6,0,0,1,12,4.4l32.3,18.3C183.6,19.9,145.4,37.1,115.6,71.2Zm-.4,2.1L125,83.4,86.1,62.3,76.2,52.2Z" fill="#606060"/></svg>