<svg id="e95f5023-c2c7-48a2-b4a8-afa7b20b8df3" data-name="Layer 1" xmlns="http://www.w3.org/2000/svg" viewBox="0 0 270 270"><g id="f75e0237-fa91-4582-b82f-f27669fa41eb" data-name="Frosting Squirt"><path d="M28.7,132.6c-.1-1.1-.2-2.2-.2-3.4s-.2-.5-.5-.5h-.4a.5.5,0,0,0-.2.4,21.7,21.7,0,0,0,.2,3.6,17.7,17.7,0,0,0,9.7,12.9c0,.1.1.1.2.1h.1c.2,0,.3-.2.4-.3s.1-.3,0-.4a.5.5,0,0,0-.2-.4A16.5,16.5,0,0,1,28.7,132.6Z" fill="#606060"/><path d="M52.4,107.5a14.5,14.5,0,0,0-3.6-.1h-.4a.8.8,0,0,0-.1.4.6.6,0,0,0,.6.6,12.9,12.9,0,0,1,3.4.1,16.2,16.2,0,0,1,12.3,8.7c.1.2.2.3.4.3s.1,0,.2,0h.1q.3-.1.3-.3v-.5A17.6,17.6,0,0,0,52.4,107.5Z" fill="#606060"/><path d="M269.9,186a.6.6,0,0,0-.8-.1c-1.3,1.1-6,4.3-6,4.4a15.5,15.5,0,0,1-21-2.7,25.9,25.9,0,0,0-17.6-9.4,25.6,25.6,0,0,0-19,6l-5.2,4.3a16.9,16.9,0,0,1-23.7-2.1l-8.2-9.7a18.1,18.1,0,0,0-13.6-6.5,18.3,18.3,0,0,0-13.9,6.1l-11.6,13.1a10.8,10.8,0,0,1-15.2,1l-2.8-2.3,1.2-1.3c.2-.1.2-.4.1-.7s-17.3-23.5-17.4-23.5L69.9,112.5a20.2,20.2,0,0,0-19.6-11l-16.5,1.3-.4.2h0l-4-3.8L29,99l-.3.2-.9.9L17.1,76a.6.6,0,0,0-.6-.3.5.5,0,0,0-.4.5l-1,6.9a2.2,2.2,0,0,1-.8,1.3,2.2,2.2,0,0,1-1.6,0L7.6,82a.5.5,0,0,0-.7.7l3.3,6.2a1.2,1.2,0,0,1,0,1.3,1.5,1.5,0,0,1-1.3.4L3.2,89.5c-.2-.1-.4,0-.6.2a.6.6,0,0,0,.1.7l5,6a2,2,0,0,1,.4,2.1,2.1,2.1,0,0,1-1.7,1.3H6.3l-5.8.6h0c-.3.1-.5.3-.5.5a.5.5,0,0,0,.4.6l19.7,6.4-.5.6a.6.6,0,0,0,0,.8l3.9,3.8-.2.3c-.1.1-.2.2-.2.3l-.7,16.6a20,20,0,0,0,11.3,19.1L84.5,174h.3l23.4,16.5h.4l.4-.2,1.6-1.6,2.8,2.4a11.9,11.9,0,0,0,7,2.9,12.1,12.1,0,0,0,9.7-4L141.7,177a17.2,17.2,0,0,1,25.9.4l8.2,9.8a18,18,0,0,0,25.2,2.2l5.2-4.4a24.7,24.7,0,0,1,35.1,3.3,16.3,16.3,0,0,0,15.1,5.8,15.8,15.8,0,0,0,7.3-2.9c.1-.1,4.2-2.9,6-4.4A.6.6,0,0,0,269.9,186ZM91.3,166,70,136.4a.5.5,0,0,0-.4-.2h-.4a.6.6,0,0,0-.1.8s21.4,29.6,21.5,29.6L88,169.4c-.5-1.1-27.1-18.7-27.1-18.7a.5.5,0,0,0-.8.1.6.6,0,0,0,.2.8L87.1,170h.2l-2.7,2.8L34.2,148.4a18.8,18.8,0,0,1-10.7-18l.7-16.4,9.9-10.1,16.3-1.3A19.1,19.1,0,0,1,68.9,113l25.3,50.1Zm3.6-2.1,16.5,22.5-2.9,3-22.8-16ZM24.2,112.2l-3.4-3.4,8.3-8.4,3.4,3.3ZM9.1,98.9a3.1,3.1,0,0,0-.5-3.2l-4-4.8,4.1.8a2.1,2.1,0,0,0,2.3-.9,2.1,2.1,0,0,0,.2-2.4L8.7,83.7l3.6,1.7a2.5,2.5,0,0,0,2.5-.1,2.6,2.6,0,0,0,1.4-2l.7-5,9.8,22.1L24.1,103l-9.2-9h-.8a.8.8,0,0,0-.2.4c.1.2.1.3.2.4l9.2,9-3,3L3.2,101.3l3.2-.4A3,3,0,0,0,9.1,98.9Z" fill="#606060"/></g></svg>