<svg id="ebb414f1-5a8f-4915-b7c2-a1e4db20e451" data-name="Layer 1" xmlns="http://www.w3.org/2000/svg" viewBox="0 0 270 270"><line x1="151.6" y1="146.9" x2="151.6" y2="146.9" fill="#606060"/><path d="M151.7,146.5h0m-10.8,49.6a.8.8,0,0,1-.8.7A.8.8,0,0,0,140.9,196.1Zm10.8-49.6c.1-.1,3-126.7,3-126.8-.8-26.2-38.4-26.3-39.4-.2.1.3,1.6,126.7,1.9,126.9a.8.8,0,0,0,.1.4l10.3,23.1a66,66,0,0,0-.1,26.2h0c-1.5,10.1-1.2,24-1.1,36.2.1,10.2-.5,21.5.8,30.7a7,7,0,0,0,6.9,7h0c3.2,0,6.2-2.9,7-6.8,1.2-8.9.9-19.7,1.1-29.4.1-14.6,1-27.2-1.1-38.4a56.3,56.3,0,0,0-.1-25.5l.8-1.6-.7,1.6.7-1.6,6.5-14.3,3.3-7.1v-.4h0m-1.7-.3-10.3,22.5H129c-.1,0-10.1-22.6-10.2-22.6L117,19.5c.9-23.8,35.3-23.6,36,.1l-3,126.6m-10.4,24.9a57.1,57.1,0,0,1-.2,24H129.1a64,64,0,0,1,0-23.9Zm-12,24.5a.9.9,0,0,1,.8-.5A.9.9,0,0,0,127.6,195.6Zm.3,1h0Zm6.2,71.7a5.3,5.3,0,0,1-5.1-5.4c-1.4-9.3-.8-20.4-.8-30.6-.1-11.9-.5-25.5.9-35.4h10.6c1.3,10.8,1.1,22.9.8,36.8-.2,9.6.1,20.5-1.1,29.2C138.8,266,136.5,268.3,134.1,268.3Z" fill="#606060"/><path d="M144.6,146a.9.9,0,0,0-.9-.8H123.9a.9.9,0,0,0-.9.9.9.9,0,0,0,.9.8h19.8A.9.9,0,0,0,144.6,146Z" fill="#606060"/><path d="M142.1,150.1l-6.7,14.7a.9.9,0,0,0,.4,1.2.9.9,0,0,0,1.2-.5l6.7-14.7a.8.8,0,0,0-.4-1.1A1,1,0,0,0,142.1,150.1Z" fill="#606060"/><path d="M138.5,149.6a.9.9,0,0,0-1.2.5l-6.7,14.7a1,1,0,0,0,.4,1.2.9.9,0,0,0,1.2-.5l6.7-14.7A1,1,0,0,0,138.5,149.6Z" fill="#606060"/><path d="M133.7,149.6a.9.9,0,0,0-1.2.5l-4.5,9.8a.8.8,0,0,0,.4,1.1.9.9,0,0,0,1.2-.4l4.5-9.8A.9.9,0,0,0,133.7,149.6Z" fill="#606060"/><path d="M128.8,149.6a.8.8,0,0,0-1.1.4l-2.2,4.7a.8.8,0,0,0,.5,1.1.8.8,0,0,0,1.1-.4l2.2-4.6A.9.9,0,0,0,128.8,149.6Z" fill="#606060"/></svg>