<svg id="fbaca3d4-9dd3-4b0f-bef1-4c788cff2793" data-name="Layer 1" xmlns="http://www.w3.org/2000/svg" viewBox="0 0 270 270"><path d="M246.8,120.2c-10.6-6.8-17.7-7.1-23.3-7.2-7.8,0-12.4-1.9-19.5-10l8.3-2.9a5.6,5.6,0,0,0,2-.8c4.8-2.6,6.4-10.8,5.1-18.9l.4-.5,28.4-5c11-3.6,6.3-19.8-5-16.8L216.8,69.9h-.7c0-.1-.1-.2-.1-.3h-.1c-4.4-9-10.7-14-16.7-11l-19.3,5.9h0l-2.2.7c-6.9-16.9-18.9-34.2-34.4-20.5-11.2,9-23.6,12.3-37.3,8.6-19-5.6-62.9,2.2-67.5,24.5-1.2,7.2,5.2,14.5,18.2,26-2.8,3.6-4,9.9-3.2,17.3l-2.2,2.7L9,131c-15.9,5.3-9,28.5,7.2,24.2l39.3-17.5,3.7.3c4.8,8.2,11.6,13.6,18.3,9.3l19.1-6.7c4.9,8,3.6,15.7,3.4,24.8.1,10.6.2,38.7,15,53.4,19.7,19.4,65.3,12.6,81.9-7.6,11.9-14.6,35.5-24.1,50.5-25.9,8.9-1.7,15.4-2.9,19.5-9.7C275.6,161,265.1,132,246.8,120.2ZM217.3,71.5l26.4-11.9c9.2-2.3,13,10.8,4.1,13.7-.3.2-28.5,4.9-28.8,5.1s-.1-.6-.1-.6-1.8-5.8-2.1-6.3ZM39.6,77.9c2.5-15.4,28.8-23.6,44.7-25.1,9.2-.8,15.7.5,21.5,1.6,14,3.7,26.8.3,38.2-8.9,14.8-13,25.9,3.8,32.5,19.9l-2.1.7h0C158.6,71.1,63.3,100,60,101a5.6,5.6,0,0,0-2.5,1.8C44.8,91.6,38.6,84.6,39.6,77.9Zm15.8,58.2c-.7,0-39.1,17.4-39.8,17.6-14,3.7-19.9-16.6-6.2-21.1l42.4-7.4.5-.3,5.6-6.5c2-2.1,6.9,5.1,7.4,8.5s.2,10.1-2,9.9Zm21.3,9.8c-5.5,3.6-10.9-.7-15.6-7.7h.6c1.7.3,3.6.2,4.3-1.6a16.3,16.3,0,0,0,.9-10.2,17.4,17.4,0,0,0-6.3-9.6c-2.6-1.7-4.2.6-5.6,2.4-1.3-13.9,6.3-23.4,16.4-13.1C80.4,114.6,85.5,139.1,76.7,145.9Zm3.2-1.1c7.4-10.8.4-39.2-14-44.1L172.8,68.2h0l7.1-2.1h0L199.8,60a4.3,4.3,0,0,1,1.3-.5c4.7-1.8,11.5,5.2,14.5,12.9s4.2,22.1-2.1,25.6l-1.3.5h-.3Zm186,30.2c-3.8,6.3-10.1,7.5-18.8,9.1-15.6,2.1-38.6,11.2-51.1,26.3-17.4,20.5-61.6,26-80.2,7.6-14.4-14.4-14.6-42.2-14.6-52.6s1.5-17.1-3.4-25.2l104.9-36.8,1.1,1.2h.1c7,7.8,11.7,9.6,19.5,9.5C252.1,112.8,277.8,151.7,265.9,175Z" fill="#606060"/><path d="M54.4,127.3c-.3-.6-.8-1.3-1.5-.9a.8.8,0,0,0-.3,1.1l.7,1.3c.6.8,1.1,3.4,1.2,4.9s.1,1.4.9,1.4.4-3,.3-4.1A9.9,9.9,0,0,0,54.4,127.3Z" fill="#606060"/><path d="M202.5,65.1,160.6,78.9a.8.8,0,0,0,.2,1.6c.2.1,42-13.8,42.2-13.9A.8.8,0,0,0,202.5,65.1Z" fill="#606060"/><path d="M209.3,70.2,167.4,84c-.9.3-.4,1.9.5,1.5l41.9-13.8A.8.8,0,0,0,209.3,70.2Z" fill="#606060"/></svg>