<svg id="a6c2e75f-c589-4802-b946-3759c1e05e1a" data-name="Layer 1" xmlns="http://www.w3.org/2000/svg" viewBox="0 0 270 270"><path d="M106.9,236.7a.8.8,0,0,0,.7.8h54.2a.8.8,0,0,0,0-1.5H107.6A.7.7,0,0,0,106.9,236.7Z" fill="#606060"/><path d="M159.4,239.8H109.9a.8.8,0,0,0,0,1.5h49.5C160.3,241.3,160.4,239.8,159.4,239.8Z" fill="#606060"/><path d="M109.8,214.1h49.8a.7.7,0,0,0,.7-.7.8.8,0,0,0-.7-.8H110.1A.8.8,0,0,0,109.8,214.1Z" fill="#606060"/><path d="M270,197.3V29.5a12.6,12.6,0,0,0-12.7-12.7H12.7A12.7,12.7,0,0,0,0,29.5V197.3A12.6,12.6,0,0,0,12.7,210h91.7l-1,21.7c-.2,5.9-3.9,10.9-8.6,14.2-2.8,2-1.1,6.8,2.3,6.7l75.8.6c3.3.2,5.1-4.3,2.6-6.4a33.5,33.5,0,0,1-10.4-21.4l-1-15.4h93.2A12.7,12.7,0,0,0,270,197.3ZM12.7,18.3H257.3a12,12,0,0,1,4.2.8,11.5,11.5,0,0,1,7,10.5V178.8H1.5V29.5A11.2,11.2,0,0,1,12.7,18.3ZM163.6,225.5a34.7,34.7,0,0,0,10.9,22.3,2.3,2.3,0,0,1-1.6,4l-75.8-.7a2.3,2.3,0,0,1-1.4-4.1c5.1-3.5,8.9-8.9,9.2-15.2l1-21.8h56.7Zm93.7-17H12.7a11.1,11.1,0,0,1-7.9-3.3,11.4,11.4,0,0,1-3.3-8v-17h267v17A11.2,11.2,0,0,1,257.3,208.5Z" fill="#606060"/><path d="M24.2,168.3H245.8a11.7,11.7,0,0,0,11.7-11.7V42.8a11.5,11.5,0,0,0-3.4-8.2,11.8,11.8,0,0,0-8.3-3.5H24.2A11.7,11.7,0,0,0,12.5,42.9V156.6A11.7,11.7,0,0,0,24.2,168.3Zm0-135.7H245.8a10.2,10.2,0,0,1,7.2,3,9.8,9.8,0,0,1,3,7.2V156.6a10.2,10.2,0,0,1-3,7.2,10,10,0,0,1-7.3,3H24.2A10.2,10.2,0,0,1,14,156.6V42.9A10.3,10.3,0,0,1,24.2,32.6Z" fill="#606060"/><path d="M132.7,27.6a3.2,3.2,0,1,0,2.3-5.5A3.3,3.3,0,0,0,132.7,27.6Zm1.1-3.5a1.7,1.7,0,0,1,2.9,1.2A1.7,1.7,0,1,1,133.8,24.1Z" fill="#606060"/></svg>