<svg id="a72d7220-54ed-4f23-b990-2e73fdf5eab0" data-name="Layer 1" xmlns="http://www.w3.org/2000/svg" viewBox="0 0 270 270"><path d="M137.8,267.6c.8-4.6,5.2-23.9,5-28.1V7.7a7.8,7.8,0,0,0-2.3-5.5C135.9-2.6,127,1,127.2,7.7V239.6a31.9,31.9,0,0,0,.5,5.4l4.2,22.5C132.4,270.8,137.3,270.9,137.8,267.6ZM135,2.3a5.5,5.5,0,0,1,5.5,5.4V23h-11V7.7A5.5,5.5,0,0,1,135,2.3Zm5.5,23v6.9h-11V25.3Zm-11,214.3V34.5h11v205c.1,3.7-1.9,11.5-2.5,15.2h-6.2C131.3,251,129.4,243.2,129.5,239.6Zm5.4,28.1a.7.7,0,0,1-.8-.6L132.3,257h5.3l-2,10.1A.7.7,0,0,1,134.9,267.7Z" fill="#606060"/></svg>