<svg id="eafa1a60-a4e1-4be9-ab11-428c5a44a373" data-name="Layer 1" xmlns="http://www.w3.org/2000/svg" viewBox="0 0 270 270"><g id="b3181f9f-7819-40a6-b9e4-731f9e542828" data-name="Measuring Spoons"><path d="M269.7,83.2c-.3-5.3-2.6-9.3-6.2-11.5-12.3-7.2-29.5,11.1-28.9,25.5a18.4,18.4,0,0,0-6.9,4.2l-5.4.4L98.3,77.6c-3.7-.8-7.5.1-11,1.4C78.1,55.7,36.8,47.9,14.7,62.4-10,77.5-1.2,105.9,26.1,115c-17.3,20.4,6,44.8,32.8,44.4-9.6,14.1,3,30.6,21.9,34.7s41.9-8.2,32.5-27.6a5.5,5.5,0,0,1,3.5-5.3L186,136.3,152.9,164c-.9.7-4.9,8.1-5.3,12.5-12.7-5.3-32.6-2.3-36.1,12.2-2.3,10.8,7.6,22.2,22.1,25.3,11.9,3,28.8-1.5,31-16.2.5-3.9-1.1-7.9-3.7-11.5,1.3-2.3.5-9.2,3.9-11.2L244,118.3a14.1,14.1,0,0,0,4.9-6.7C260.3,110.8,270.9,94.6,269.7,83.2ZM113,175.2c-2.2,3.6-5.9,6.3-11.1,7.8a1.1,1.1,0,0,0,.2-1.4c-5.6-9.7-20.8-9.7-26.5-.1-9.7-3.8-14.7-9.8-16.9-16.7C68,142.1,112.2,151.2,113,175.2Zm-12.2,8.1a40.8,40.8,0,0,1-22.9-.9c5-7.8,17.5-7.6,22.2.4C100.3,183.1,100.5,183.3,100.8,183.3Zm3.1-28.2-.3.8a40.6,40.6,0,0,0-16.5-6.1c7.1-6.4,10-15.5,7.1-24.3a9.1,9.1,0,0,1,6.6-3.4l104.6-7.3-98.3,37A5.5,5.5,0,0,0,103.9,155.1ZM74.5,144.4c-6.5-11.5-24.3-11.5-31-.3C32.9,140.9,25,135,22.7,128a21.3,21.3,0,0,1,6-12.4c.4-.2.7-.4.7-.8,17.5-17,59.1-10.7,63.4,15.5C90.1,136.6,83.6,141.7,74.5,144.4Zm-2.4.6c-8.1,2.2-18,1.9-26.2-.3C51.9,135.7,66.3,135.9,72.1,145ZM44.9,104.2a78.8,78.8,0,0,1-14.8-2c7.2-12,26.1-12.3,33.6-.4a34.5,34.5,0,0,1-4.6,1.2A54.5,54.5,0,0,0,45,104.2Zm43,11.2a36.4,36.4,0,0,0-9.4-7.1c6.8-5.5,10.7-12.5,10.6-20.3a15.5,15.5,0,0,1,7.1-.2l77.5,17.6-77.3,5.8C93.2,111.3,90.3,113.4,87.9,115.4Zm-11.8-8.2a48.5,48.5,0,0,0-10.8-3.4c9.6-3.1,17.5-8.3,21.4-14C86.1,96.3,82.4,102.5,76.1,107.2ZM217,110.4l-3.9,1.5-112.5,7.9a10.6,10.6,0,0,0-7.3,3.3,28.3,28.3,0,0,0-3.8-5.9c2-1.6,4.4-3.6,7.1-3.7l125.6-9.3h2.4ZM90.8,80.4a13.9,13.9,0,0,1,7-.5l115.6,22.6-31.6,2.3L96.7,85.5a16.7,16.7,0,0,0-7.7.1,22.9,22.9,0,0,0-.9-4.4Zm-74.9-16C38.3,49.5,83,59.5,86.6,85.3c-2.9,6.3-10,12.1-20.5,15.8-8.3-14.1-30.5-13.8-38.5.5h0c-12.6-3.5-22.1-10-25-18C3.2,76.2,7.9,69.3,15.9,64.4ZM2.8,89c6.1,8.8,19.9,15.4,36.1,17.1a36.6,36.6,0,0,0-11.1,7C14,108.5,4.6,99.2,2.8,89Zm53,67.9c-17.1-1.3-30.7-11.3-32.9-23.4,12.8,18.7,56.2,21.2,69.8,1.7-.8,5.4-3.9,10.4-9,14.3-8.4-.4-17,1.8-22.8,7.5A29,29,0,0,1,55.8,156.9Zm25.5,34.9c-13.7-2.9-23.4-12.6-23.3-22.4,6.7,16.5,40.7,23.9,54.1,10.5C108.7,189.6,95.4,194.8,81.3,191.8ZM116,159a7,7,0,0,0-4.5,4.5,28.5,28.5,0,0,0-5.9-6.1c.4-1.3.9-2.9,2.4-3.4l103.5-39-20.2,16.9Zm36.4,51.3c-13.7,6.8-38.2-2.8-38.8-17.5,7.2,13.9,34.3,19.8,47.2,9.9A17,17,0,0,1,152.4,210.3Zm-20.6-6.8c5-6.6,14-5.3,18.4,1.1A37.4,37.4,0,0,1,131.8,203.5Zm30.4-5.5c-1.9,3-5.9,5.2-10.7,6.4a1.6,1.6,0,0,0,.2-1.5c-4.7-8-17.3-8.1-22.2-.2-8-3.3-14.1-9-15.3-14.8C122.6,167.5,162.7,176.3,162.2,198Zm85-89.3a11.8,11.8,0,0,1-4.6,7.7l-79.1,56.7c-3.8,2.4-3.6,7.3-4.4,11.1a29.9,29.9,0,0,0-9.2-6.7c-.4-2.7,3.6-10.7,4.5-11.7s77-65.8,80.3-66.1a16.1,16.1,0,0,0,2.1,6.5,1.2,1.2,0,0,0,1.6.4,1.3,1.3,0,0,0,.4-1.6,12.7,12.7,0,0,1-1.7-5.9A8.5,8.5,0,0,1,247.2,108.7Zm16.4-11c-3.5,6-8.9,10.4-14.1,11.5,1.4-7.3-5.3-13.7-12.5-12.5-.4-12.4,14.9-29.1,25.3-22.9C269.8,78.6,268.1,90.3,263.6,97.7Z" fill="#606060"/><path d="M154.7,174.5c-1.2-.9-2.6,1.1-1.3,1.9s3.2,3,4.2,1.5S155.9,175.4,154.7,174.5Z" fill="#606060"/></g></svg>