<svg id="b8c4431e-812e-416d-ae89-0b2ba4fd88be" data-name="Layer 1" xmlns="http://www.w3.org/2000/svg" viewBox="0 0 270 270"><path d="M263.8,129.8c-22.6-58.6-129.7-89.6-193.3-68-16.2,5.1-54,17-66.5,49.4H4c-8.4,21.5-4.7,46.1,22.3,58.4,10.2,3.6,15.9.5,26.5.9,20.5.1,36.2,6.6,43.8,9.7,17.5,7.3,18,13.2,34.1,21.6C134.9,204,157.2,215,184,215,231.4,215.1,289.2,185.3,263.8,129.8ZM71.8,66.1c40.5-12.8,76.4-5.2,94.1-.2a65.1,65.1,0,0,0-16.3,8.6C115.7,62.7,55,63.7,14.4,101,29.8,79.3,58.4,70.3,71.8,66.1ZM7.9,113.2c38.2-41.7,98.3-47.7,137.6-35.3-21.7,18.9-24.7,47.6-24.9,59.6-3.6-2.1-73.6,0-79.4-.3-7.5.2-12.5,1.5-21.6-2.5s-12-7.3-14-13.8C6.2,118.4,7,115.8,7.9,113.2Zm124.9,84.7c-16.1-8.5-16.5-14.3-34.6-21.8-7.7-3.2-24-9.9-45.3-10-9.9-.4-16.2,2.6-25-.7-19.4-8.7-24-24.1-23.4-36.9,8.5,11.5,24.9,15,36.7,13.1l69.8-.7c44.8,4.3,86.3,27.8,116.1,61.2C191.7,217,153.9,209.5,132.8,197.9Zm98.6,2.4A190.1,190.1,0,0,0,125,138.4c-.7-21.6,10.9-61.7,48.5-70.2,21.3,6.5,69.5,21.7,86.2,63.3C272.7,159.5,263.7,186.2,231.4,200.3Z" fill="#606060"/></svg>