<svg id="b1e58d46-d0d9-4a9b-8e3f-ddcca0b731dd" data-name="Layer 1" xmlns="http://www.w3.org/2000/svg" viewBox="0 0 270 270"><path d="M132.2,191.1c20.5,9.5,47,4.8,62.9-11.7,35.3-35.1,9.9-96.3-39.9-96.2C94.2,84.2,77.5,165.9,132.2,191.1Zm23-104.6c28.6-.2,53.2,23.5,53.1,53.1s-24.5,53.7-53,53.1C84.8,189.8,84.8,89.5,155.2,86.5Z" fill="#606060"/><path d="M135.8,157.7c15.8,16.3,44.6,4.4,44.2-18.3.3-14-12-26.2-26-25.9C131.3,113.2,119.4,141.9,135.8,157.7ZM154,116.8c19.9-.4,30.3,24.8,16.1,38.6s-39,3.8-38.7-16A22.6,22.6,0,0,1,154,116.8Z" fill="#606060"/><path d="M75.8,80.3c9.4,4.2,17.8-8,10.5-15.3C75.2,55.2,62.7,73.5,75.8,80.3Zm3.8-14.7c8.1.1,8.1,12.1,0,12.2S71.6,65.7,79.6,65.6Z" fill="#606060"/><path d="M208.2,80.4a1.8,1.8,0,0,0,1.7,1.7H243a1.7,1.7,0,0,0,1.7-1.6V63a1.7,1.7,0,0,0-1.7-1.6H209.9a1.8,1.8,0,0,0-1.7,1.7Zm33.2-15.7v14H211.5V64.7Z" fill="#606060"/><path d="M265.7,207V93.9h1.1c1.5,0,3.3.1,3.3-1.7V64.7a20.2,20.2,0,0,0-20.2-20.1H81.2c-.2-2.1.9-5.5-1.6-5.6H32.9c-2.5,0-1.4,3.5-1.6,5.5H20.2A20.3,20.3,0,0,0,0,64.9V92.5a1.7,1.7,0,0,0,1.7,1.6H5.9V207.2a23.6,23.6,0,0,0,14,21.6,22.2,22.2,0,0,0,9.7,2.1l212.4-.2C254.8,231,266,219.7,265.7,207ZM78,42.4v2.3H34.6V42.4ZM3.3,90.8V64.9A16.9,16.9,0,0,1,20.2,48l229.6-.2a16.9,16.9,0,0,1,16.9,16.9V90.6H205.5a1.9,1.9,0,0,0-.8.3c-25.6-27.1-72.2-27.1-97.9-.1ZM109.2,93c41.2-41.2,112.1-12,112.1,46.3.8,35.3-30.3,66.5-65.6,65.8C97.4,205.1,68,134.3,109.2,93ZM242.1,227.4l-212.4.2A20.4,20.4,0,0,1,9.3,207.2V94.1h94.6a68.6,68.6,0,0,0-17.1,45.4c-.7,37.1,31.9,69.7,69,69,59.1-.1,90.8-70.2,51.8-114.5h54.8V207C262.7,218,253,227.6,242.1,227.4Z" fill="#606060"/></svg>