<svg id="aaf76b4c-83a3-4b11-9cc4-14db8c3030ce" data-name="Layer 1" xmlns="http://www.w3.org/2000/svg" viewBox="0 0 270 270"><path d="M81.3,153.9c4.8-8.6,0-16.5-13.3-14.2,3.2-7.5-4.2-14.1-12.5-11.8-19.5,2.2-25.9,20.9-25.9,30.2a.5.5,0,0,0,.4.5l4.1.8h.7C46,161.3,74.4,165.4,81.3,153.9Zm-17.6,6.6c-9.9.7-21.5-.8-28.5-2,1.3-4.9,7.3-8.6,14.1-8.6s14,4.5,14.5,10.2A.8.8,0,0,1,63.7,160.5Zm.9-.1c.3-6.4-7.1-11.5-15.3-11.5s-13.7,4-15.1,9.5l-3.5-.7c.2-9.7,6.7-26.7,25-28.9,8.5-2.1,14.5,4.7,11,11.3a.5.5,0,0,0,.6.7c12.4-2.4,17.9,4,13.1,12.6C78,157.8,71.8,159.7,64.6,160.4Z" fill="#606060"/><path d="M76.8,134.1a138.4,138.4,0,0,0,25.5,2.9c9.4,0,18.4-1.7,21.6-7.5.2-.2,3.2-6,.6-10.2s-7-4.7-12.8-3.6c2.6-6.4-2.6-12.9-10.3-11.7-5.5.5-10.2.2-16.4,4.7s-10.5,15.2-8.6,25C76.4,133.9,76.6,134,76.8,134.1Zm2.7-.5c3.6-12.3,27.7-10.9,28.7,2.2C98,136.7,85.6,134.7,79.5,133.6Zm6.1-24c6-4.4,10.6-4,15.9-4.6s7.6,1,9.1,4.1.1,6.4-.2,7.1.2.8.6.7c11.9-2.5,16.2,4.3,12,12.1-2.2,4.1-7.5,6-13.9,6.7-.1-6.3-6.9-11.4-15.1-11.7s-14,3.9-15.5,9.4l-1.2-.3C75.7,123.9,78.9,114.6,85.6,109.6Z" fill="#606060"/><path d="M118.5,111.4a134.3,134.3,0,0,0,24.7,2.8c9.1,0,17.9-1.6,20.9-7.2.2-.2,3.2-5.8.7-9.8s-6.9-4.6-12.5-3.5c2.5-6.2-2.6-12.4-9.9-11.3-5.3.6-9.9.3-15.9,4.6s-10.2,14.6-8.4,24Zm3.7-.3c3.4-11.1,25.9-9.9,27,1.9C139.8,113.9,128.4,112.2,122.2,111.1Zm4.9-23.3c5.9-4.3,10.4-3.8,15.8-4.4,7.4-.8,10.8,5.7,8.2,10.7-.2.4.1.9.5.8,11.4-2.4,15.7,4,11.7,11.6-2.1,3.8-7.1,5.6-13.1,6.4h0c-.3-5.7-6.7-10.3-14.4-10.5s-13.2,3.5-14.6,8.6l-2.1-.5C117.5,101.5,120.6,92.7,127.1,87.8Z" fill="#606060"/><path d="M158.2,90a121.9,121.9,0,0,0,23.2,2.7c8.6,0,16.9-1.6,19.8-6.8.1-.2,2.9-5.4.6-9.2s-6.4-4.3-11.7-3.3c2.3-5.9-2.6-11.6-9.5-10.6-4.9.5-9.3.3-14.9,4.3s-9.6,13.7-7.9,22.5C157.9,89.8,158,90,158.2,90Zm4.9-.1c3.2-10,22.7-9.1,24.1,1.5C179,92.2,169.1,90.9,163.1,89.9Zm3.2-22c5.6-4,9.8-3.5,14.9-4.1,6.9-.7,10.1,5.3,7.6,10a.5.5,0,0,0,.6.7c10.6-2.2,14.7,3.8,10.9,10.9-2,3.6-6.8,5.3-12.4,6,.2-5.3-6.1-9.6-13-9.6s-11.7,3.4-12.8,7.9l-3.3-.6C157.3,80.8,160.2,72.5,166.3,67.9Z" fill="#606060"/><path d="M108.6,174.2a.5.5,0,0,0-.5.5v12.9a.5.5,0,0,0,1,0V174.7A.5.5,0,0,0,108.6,174.2Z" fill="#606060"/><path d="M112.1,173.3a.5.5,0,0,0-.5.5v12.9a.5.5,0,0,0,1,0V173.8A.5.5,0,0,0,112.1,173.3Z" fill="#606060"/><path d="M115.6,175.2a.6.6,0,0,0-.6.5v9.2a.6.6,0,0,0,.6.5.5.5,0,0,0,.5-.5v-9.2A.5.5,0,0,0,115.6,175.2Z" fill="#606060"/><path d="M153.3,149.6a.5.5,0,0,0-.5.5v11.4a.5.5,0,0,0,1,0V150.1A.5.5,0,0,0,153.3,149.6Z" fill="#606060"/><path d="M156.8,148.7a.5.5,0,0,0-.5.5v11.5a.5.5,0,0,0,.5.5.5.5,0,0,0,.5-.5V149.2A.6.6,0,0,0,156.8,148.7Z" fill="#606060"/><path d="M160.2,150.4a.6.6,0,0,0-.5.5v8.2a.5.5,0,0,0,.5.5.5.5,0,0,0,.5-.5v-8.2A.5.5,0,0,0,160.2,150.4Z" fill="#606060"/><path d="M194.6,127.8a.5.5,0,0,0-.5.5v10.3a.5.5,0,0,0,1,0V128.3A.5.5,0,0,0,194.6,127.8Z" fill="#606060"/><path d="M197.8,127.1a.5.5,0,0,0-.5.5v10.2a.5.5,0,0,0,1,0V127.6A.5.5,0,0,0,197.8,127.1Z" fill="#606060"/><path d="M201,128.6a.5.5,0,0,0-.5.5v7.3a.5.5,0,0,0,1,0v-7.3A.5.5,0,0,0,201,128.6Z" fill="#606060"/><path d="M233.5,106.8a.5.5,0,0,0-.5.5v9.4a.6.6,0,0,0,.5.5.5.5,0,0,0,.5-.5v-9.4A.5.5,0,0,0,233.5,106.8Z" fill="#606060"/><path d="M236.5,106.1a.5.5,0,0,0-.5.5V116a.5.5,0,0,0,.5.5.5.5,0,0,0,.5-.5v-9.4A.6.6,0,0,0,236.5,106.1Z" fill="#606060"/><path d="M239.4,107.5a.5.5,0,0,0-.5.5v6.7a.5.5,0,1,0,1,0V108A.5.5,0,0,0,239.4,107.5Z" fill="#606060"/><path d="M70.3,142.8a.5.5,0,0,0-.5.5v12.9a.5.5,0,0,0,.5.5.6.6,0,0,0,.6-.5V143.3A.6.6,0,0,0,70.3,142.8Z" fill="#606060"/><path d="M73.8,141.9a.5.5,0,0,0-.5.5v12.9a.6.6,0,0,0,.5.5.5.5,0,0,0,.5-.5V142.4A.5.5,0,0,0,73.8,141.9Z" fill="#606060"/><path d="M77.3,143.8a.5.5,0,0,0-.5.5v9.2a.5.5,0,0,0,1,0v-9.2A.5.5,0,0,0,77.3,143.8Z" fill="#606060"/><path d="M112.9,131.4a.5.5,0,0,0,.5-.5V119.4a.5.5,0,0,0-1,0v11.5A.5.5,0,0,0,112.9,131.4Z" fill="#606060"/><path d="M116.4,130.6a.5.5,0,0,0,.5-.5V118.6a.5.5,0,0,0-1,0v11.5A.5.5,0,0,0,116.4,130.6Z" fill="#606060"/><path d="M119.9,129a.5.5,0,0,0,.5-.5v-8.2a.5.5,0,1,0-1,0v8.2A.5.5,0,0,0,119.9,129Z" fill="#606060"/><path d="M154.2,108.6a.5.5,0,0,0,.5-.5V97.8a.5.5,0,0,0-1,0v10.3A.5.5,0,0,0,154.2,108.6Z" fill="#606060"/><path d="M157.4,107.9a.5.5,0,0,0,.5-.5V97.1a.5.5,0,0,0-1,0v10.3A.5.5,0,0,0,157.4,107.9Z" fill="#606060"/><path d="M160.6,106.5a.5.5,0,0,0,.5-.5V98.7a.5.5,0,0,0-.5-.5c-.3-.1-.5.2-.5.5V106A.5.5,0,0,0,160.6,106.5Z" fill="#606060"/><path d="M191,88a.5.5,0,0,0,.5-.5V78.2a.5.5,0,0,0-.5-.5.6.6,0,0,0-.6.5v9.3A.6.6,0,0,0,191,88Z" fill="#606060"/><path d="M193.9,87.4a.6.6,0,0,0,.5-.6V77.5a.5.5,0,1,0-1,0v9.3A.6.6,0,0,0,193.9,87.4Z" fill="#606060"/><path d="M196.8,86.1a.5.5,0,0,0,.5-.5V78.9a.5.5,0,0,0-1,0v6.7A.5.5,0,0,0,196.8,86.1Z" fill="#606060"/><path d="M267.2,108.5,183.5,51.6a6.4,6.4,0,0,0-6.4-.5L4.7,138.1c-3.9,1.8-4.7,7.6-1.4,10.5L80,217.9a6.2,6.2,0,0,0,4.3,1.6,6,6,0,0,0,3.1-.8l6.4-3.5,1.4-.8,1.6-.8c15.5.1,26.3-2.8,26.8-14.9l8.2-4.5,8.5-4.7c15.5.2,26.5-2.9,26.9-14.9l12.8-7.1,4-2.2c14.3.2,24.3-2.6,24.7-13.7l16.7-9.2c.2.2.6.1.9.1,14.5-.2,23.5-2.8,23.9-13.9l10.9-6,5.6-3.1A6.5,6.5,0,0,0,267.2,108.5ZM120.8,205.1c-2.7,4.9-10.3,7.4-22.3,7.5l1.2-.6,3.1-1.8,19.8-10.9A12.8,12.8,0,0,1,120.8,205.1Zm43.6-24c-2.8,4.8-10.3,7.3-22.4,7.4l24.1-13.4A13.2,13.2,0,0,1,164.4,181.1Zm41.7-23.6c-2.5,4.4-9.4,6.7-20.4,6.8l14.1-7.8,7.9-4.4A12.3,12.3,0,0,1,206.1,157.5Zm41.5-22.8c-2.5,4.4-9.5,6.7-20.7,6.8l19.2-10.6,3.1-1.7A12.6,12.6,0,0,1,247.6,134.7Zm18.6-16.1L260,122h0L98.3,211.5l-11.4,6.4a5.3,5.3,0,0,1-6.2-.8L4,147.8A5.4,5.4,0,0,1,5.2,139L177.6,52a6,6,0,0,1,2.4-.5,5.5,5.5,0,0,1,3,.9l83.7,57A5.5,5.5,0,0,1,266.2,118.6Z" fill="#606060"/><path d="M231.6,102.2c2.3-5.8-2.4-11.8-9.3-10.9l-3.3.3c-13.5-.1-23.5,12.9-20.6,27.3a.4.4,0,0,0,.4.4,126.7,126.7,0,0,0,23.9,2.7c8.9,0,17.4-1.5,20.3-6.9.2-.3,3.1-5.6.6-9.5S237,101.2,231.6,102.2Zm-26.1,17.3c2.3-10.2,22.9-9.8,24,.7v.5C221.7,121.6,212.1,120.5,205.5,119.5Zm36.7-4.9c-1.9,3.4-6.3,5.2-11.6,5.9v-.4c-1.4-11.7-23.6-12.2-26.1-.8h0l-5.2-.9c-1.5-8.6,1.5-17.2,7.8-21.9s10.1-3.6,15.3-4.2c7.2-.8,10.5,5.4,7.9,10.3-.2.4.2.9.6.7C241.9,101.1,246.1,107.2,242.2,114.6Z" fill="#606060"/><path d="M192.7,123.1c2.5-6.1-2.4-12.6-9.8-11.6l-3.5.3c-14.4,0-25,13.8-21.9,29.1a.4.4,0,0,0,.4.4c7.4,1.7,40.9,7.4,47-4.5C209.1,129,205.3,121,192.7,123.1ZM164,141.4c2.8-11,25-10.5,26.3,1v.5C181.6,143.9,170.9,142.6,164,141.4Zm40-5.1c-2.1,3.8-6.9,5.6-12.7,6.4v-.3c-1.5-12.7-25.3-13.4-28.3-1.2l-4.6-.8c-2.7-14.6,7.3-27.6,21-27.6l3.6-.3c3.7-.5,7.2,1.2,8.6,4.1s.1,6.3-.2,7,.2.8.6.7C203.7,121.8,208.2,128.5,204,136.3Z" fill="#606060"/><path d="M150.8,145.8c2.6-6.4-2.4-13-10.1-12.1l-3.6.3c-14.9,0-25.8,14.4-22.6,30.3,0,.2.2.3.4.4,7.7,1.8,42.3,7.7,48.5-4.7C167.8,151.9,163.9,143.5,150.8,145.8ZM120,164.6c-.1.2-.1.4-.2.6a.4.4,0,0,1-.5.2.4.4,0,0,0,.5-.2c.1-.2.1-.4.2-.6,3.1-12.3,27.2-11.6,28.6,1.3v.4C139.1,167.5,127.1,165.9,120,164.6Zm42.5-5.1c-2.1,3.9-7,5.8-12.9,6.7v-.4c-1.6-14.1-27.2-14.9-30.6-1.3l-3.6-.7c-1.7-9.6,1.6-19.1,8.6-24.4s10.9-4.1,16.4-4.7c8.1-1.1,12,5.9,9.1,11.6-.2.3.2.8.6.7C162.4,144.4,166.8,151.4,162.5,159.5Z" fill="#606060"/><path d="M105.8,170.5c3.3-7.7-4.3-14.5-12.9-12.2-20.2,2.4-26.6,21.5-26.6,31.2a.7.7,0,0,0,.4.5l7.9,1.4h.6c12.1,2,39.3,4,44.3-6.3.2-.3,3.6-6.4.7-10.9S112.3,169.3,105.8,170.5Zm-30.3,20c1.3-5.1,7.3-8.8,14.2-8.8s13.8,4.4,14.4,9.9C94.8,192.8,83.5,191.7,75.5,190.5Zm43.2-5.8c-2.3,3.9-7.4,5.9-13.6,6.8-1.9-13.8-27.1-14.4-30.6-1.2l-7.2-1.2c.2-10,6.9-27.6,25.8-29.8,8.8-2.3,15,4.8,11.4,11.6a.5.5,0,0,0,.6.8C117.9,169.1,123.6,175.8,118.7,184.7Z" fill="#606060"/></svg>