<svg id="b613c1b3-8072-40bb-96ed-a56d19ba7d6d" data-name="Layer 1" xmlns="http://www.w3.org/2000/svg" viewBox="0 0 270 270"><g id="b040a28c-c9d6-4740-913b-03085b6473e2" data-name="Pie Tin"><path d="M135,63.3c-80.3-1.6-163.4,43.6-95,86.4l.9.5C83.5,176.1,178.8,177,223.8,153l2-1c18.2-9.4,29.2-21.6,29.2-35C255,87.4,201.2,63.3,135,63.3ZM42.7,148.5c11.5-20.9,48-35.5,89.4-35.5,43.1,0,80.7,15.9,90.6,37.9C178.8,174.1,84.5,173.4,42.7,148.5ZM225,149.8c-23.8-51.3-157.4-52-184.5-2.5-64.4-41,17.4-83,94.5-81.4,64.8,0,117.5,22.9,117.5,51.1C252.5,129.4,242.1,140.9,225,149.8Z" fill="#606060"/><path d="M208.7,128.9a1.2,1.2,0,0,0,1.7-.5l19.3-35.8a1.4,1.4,0,0,0-.6-1.8,1.2,1.2,0,0,0-1.7.6l-19.3,35.8A1.2,1.2,0,0,0,208.7,128.9Z" fill="#606060"/><path d="M215.9,131.2a1.4,1.4,0,0,0,1.8-.6l15.8-29.4a1.3,1.3,0,0,0-.5-1.7,1.4,1.4,0,0,0-1.8.5l-15.8,29.4A1.4,1.4,0,0,0,215.9,131.2Z" fill="#606060"/><path d="M49.2,129.6a1.3,1.3,0,0,0,1.2-1.7L38.2,95.7a1.2,1.2,0,0,0-1.7-.7,1.1,1.1,0,0,0-.7,1.6L48,128.8A1.3,1.3,0,0,0,49.2,129.6Z" fill="#606060"/><path d="M270,115.8c-5.8-79.6-264.3-79.5-270,0,0,11.4,7.2,22.1,19.6,31.2L32,183a16.8,16.8,0,0,0,8.3,9.6,204.7,204.7,0,0,0,90.3,21.3,204.6,204.6,0,0,0,91.6-22,16.1,16.1,0,0,0,7-6.9l19.9-37.1C262.3,138.6,270,127.6,270,115.8Zm-267.4,0c5.6-76.2,259.3-76.1,264.8,0,0,31.8-59.4,57.7-132.4,57.7S2.6,147.6,2.6,115.8Zm224.3,68a13.2,13.2,0,0,1-5.9,5.8,200.1,200.1,0,0,1-179.5.7,14,14,0,0,1-7-8.2L23.2,149.5c49,34.5,171.1,34.9,221.4,1.4Z" fill="#606060"/></g></svg>