<svg id="b8dcc0dd-e965-41c6-8e34-643275769f3a" data-name="Layer 1" xmlns="http://www.w3.org/2000/svg" viewBox="0 0 270 270"><g id="b03e50a0-87c8-4a47-895f-f1725f40c8d1" data-name="Measuring Cup"><path d="M267.8,78.3c-4.7-8-19.1-6.3-27.2-6.7,0-.3,5.8-28.6,5.8-28.9a2,2,0,0,0-.8-1.4,216.4,216.4,0,0,0-60.2-24.4c-56.5-13.2-106-.1-137.6,13.2-7.4,3.5-31.1,4.2-39.1,5.4a2,2,0,0,0-1.1.1C.8,35.4-1.7,41.4,1.1,47l35.5,74.1a123.9,123.9,0,0,1,11.7,42A440.4,440.4,0,0,0,61.6,237c7.1,20.3,76.1,25.5,105.6,18.7,6.7-1.3,39.5-8.2,40.1-18.1.1,0,8.8-43.8,8.8-43.9h6.7c9.1-.9,16.3-10.3,18.8-17.8l27.9-87.8A11,11,0,0,0,267.8,78.3ZM8.3,38.7c8.5-1.3,33.2-2,40.7-5.7C97.2,10.2,181.1,4.9,241.4,42.5c-56.5,26.9-135.8,41-210.6.7H8.4C5.9,43.1,6.9,39.3,8.3,38.7Zm158.3,214c-41.8,7.4-92.6-.6-101.9-16,.3-6.9,36.2-14.3,69.9-14.5s70.1,8.5,69.6,15.1C204.4,242.3,185.2,249,166.6,252.7Zm38.5-19.8c-24.3-18.1-114.4-18.5-141.3-.4a431.1,431.1,0,0,1-12.4-69.7,125.2,125.2,0,0,0-12-43L4,45.7c-.8-1.8-1.4-4.1-.2-5.7a4.9,4.9,0,0,0,4.6,6.3H30.7c75.2,40.9,155.6,25.9,211.9-.9l-5.2,26.1-8.6-.3c-6.7-.8-11.7,8.1-15.6,11.9-2.2,2.4,0,6,3.1,6l17.4.7-16.8,84c-18-.1-16.1-1.8-25.3,13.7-2.3,2.6.1,6.3,3.4,6.1h17.9ZM242.3,90.2c5.6.2,11.3,4.5,9.8,10.2l-21.4,73.5H220.1L236.9,90Zm24.2-3-27.9,87.9c-1.8,5.8-6.1,10.9-12.3,14.6-1.1,1.8-29.1.5-31.3.8a1.4,1.4,0,0,1-1.2-.6l6.7-10.8a5.1,5.1,0,0,1,4.5-2.2l24.8.2-1.1,3.7c-.7,2.6-3.9,4.4-7.4,4.3a1.6,1.6,0,0,0-1.6,1.5,1.4,1.4,0,0,0,1.5,1.6c5,.2,9.4-2.5,10.5-6.5l23.4-80.4a9.8,9.8,0,0,0-1.5-8.6,14.6,14.6,0,0,0-11.2-5.6l-26-1.2a.8.8,0,0,1-.9-.7l7.8-8.7a6.8,6.8,0,0,1,5.4-2.1l9.6.2h.6l15.9.4C261.6,75.2,268.5,80.4,266.5,87.2Z" fill="#606060"/><path d="M29.8,50.7a1.6,1.6,0,0,0-1.6,1.5V83.4A1.6,1.6,0,0,0,29.6,85a1.6,1.6,0,0,0,1.6-1.6l.2-31.2A1.6,1.6,0,0,0,29.8,50.7Z" fill="#606060"/><path d="M20.7,50.6a1.6,1.6,0,0,0-1.5,1.6V66.9a1.6,1.6,0,0,0,1.6,1.5,1.5,1.5,0,0,0,1.5-1.5V52.2A1.6,1.6,0,0,0,20.7,50.6Z" fill="#606060"/></g><path d="M150.2,141.1a200.2,200.2,0,0,1-50,2.2c-1.8-.2-2.5,2.7.1,2.9,18.8,1.6,38.1.9,50.5-2C154.4,143.4,152.5,140.7,150.2,141.1Z" fill="#606060"/><path d="M152.3,178a200.3,200.3,0,0,1-50,2.1c-1.8-.1-2.5,2.7,0,2.9,18.8,1.6,38.2.9,50.6-2C156.4,180.3,154.6,177.5,152.3,178Z" fill="#606060"/><path d="M150.2,160.6c-27.3,4.9-58.4,3.1-79.3-3-.7-.1-1.3.4-1.3,1.4s.7,1.6,1.6,1.9h0c24.7,6.5,60.5,7.2,79.6,2.8C154.4,162.9,152.5,160.2,150.2,160.6Z" fill="#606060"/><path d="M155.2,195.8c-27.8,4.9-59.5,3-80.4-3.3-.7-.2-1.3.3-1.3,1.3a2,2,0,0,0,1.6,2h0c24.8,6.8,61.3,7.5,80.7,3.1C159.4,198.1,157.5,195.4,155.2,195.8Z" fill="#606060"/></svg>