<svg id="a497c249-fe2c-4425-802e-b6864852b0d9" data-name="Layer 1" xmlns="http://www.w3.org/2000/svg" viewBox="0 0 270 270"><g id="a87456fc-6510-4e6b-bdc1-d089ee07de01" data-name="Color Swatches"><path d="M255.1,106.9a17.5,17.5,0,0,0-5-12.6L207.9,50.7c-9-9.6-22.6-5.1-29.9,4.3,5.9-12.4,10.2-27.5-5.7-34.4L121.7,1.1a17.7,17.7,0,0,0-21.9,8C95.5,4.9,41.2,7.8,35,7A20.1,20.1,0,0,0,14.9,27.1V249.4A20.2,20.2,0,0,0,35,269.5H90.8a20.2,20.2,0,0,0,19.7-16,1.6,1.6,0,0,0,.9-.5l38.4-37.1a1.9,1.9,0,0,0,1.2-1.1c.2-.3,74.2-71.7,74.4-71.9C231.5,135.3,256.3,118.2,255.1,106.9ZM120.3,4.6c67,29,70.5,9,42.7,78.8l-52.1-20V27.1a20.2,20.2,0,0,0-7.9-16A14,14,0,0,1,120.3,4.6Zm64.6,172.1-38.5-39.8L165.6,87c.1-.1.2-.1.2-.2l55.4,54.8Zm-35.7,34.6-22.4-23.8,2.4-6.2a1.7,1.7,0,0,0,1-2.6l14.7-37.9,37.3,38.5ZM126.8,177l-15.9-5.3V122.1l32.6,11.7Zm18.1-46.7-34-12.2V67.5L161.6,87Zm-34,45.4,14.5,4.9-2.3,6a2.1,2.1,0,0,0-.5,1.2l-11.7,30.3Zm-20.1,90H35a16.3,16.3,0,0,1-16.3-16.3V27.1A16.3,16.3,0,0,1,35,10.8c5.9.7,60.3-2.2,64.1,2.3a1.5,1.5,0,0,0,1,.6,16.1,16.1,0,0,1,7,13.4V228a3.4,3.4,0,0,0,0,1C107,242.6,110.9,265.2,90.8,265.7Zm20.1-17.5V228.6l14.4-37.2,21.1,22.5ZM223.9,139c-.5-.4-56.1-55.9-56.7-56.1l7.6-19.5c7.9-7.9,19.1-21.4,30.4-10.1L247.4,97c5.3,5.2,5.1,14.5-.3,19.6Z" fill="#606060"/><path d="M64.1,216.2c-19.1.1-19.1,29.3,0,29.4S83.3,216.3,64.1,216.2Zm0,25.6c-14.1.2-14.1-22,0-21.8S78.2,242,64.1,241.8Z" fill="#606060"/></g></svg>