<svg id="a76e4a96-3891-430a-870a-3928bb056cf4" data-name="Layer 1" xmlns="http://www.w3.org/2000/svg" viewBox="0 0 270 270"><g id="bf39042a-0e46-491b-8c36-19e68768be5b" data-name="Serving Spatula"><path d="M141.2,122.2c0,.1.1.1.1.2S141.2,122.3,141.2,122.2Z" fill="#efe8f2"/><path d="M141.1,122.2h0Z" fill="#efe8f2"/><path d="M90.9,105.3a.4.4,0,0,0-.4.4v2.9a.4.4,0,1,0,.8,0v-2.9A.4.4,0,0,0,90.9,105.3Z" fill="#efe8f2"/><path d="M93.2,106.7a.4.4,0,0,0-.4.4v2.8c0,.3.1.5.4.5a.5.5,0,0,0,.4-.5v-2.8A.4.4,0,0,0,93.2,106.7Z" fill="#efe8f2"/><path d="M95.5,108.1c-.3,0-.5.1-.5.4v2.8a.5.5,0,0,0,.5.4.4.4,0,0,0,.4-.4v-2.8A.4.4,0,0,0,95.5,108.1Z" fill="#efe8f2"/><path d="M163.1,157.3a.4.4,0,0,0-.4-.4H137.5c-.5-.1-.5.8,0,.8h25.2A.4.4,0,0,0,163.1,157.3Z" fill="#efe8f2"/><path d="M167.6,160.2H148.3c-.6-.1-.6.8,0,.8h19.3C168.1,161,168.1,160.1,167.6,160.2Z" fill="#efe8f2"/><path d="M136.8,136.5,137,148l-6.5,4.4a5.1,5.1,0,0,0,1.3,9l43.8,14c4.4,1.6,8.1-4,4.9-7.5l-20.7-23a11.8,11.8,0,0,0-15.4-1.9l-2.2,1.4V132.8c0-.1-1.7-2.4-1.7-2.4s1.2-.6,1.1-1l-.2-7h-.1c0-.2,0-.3-.1-.3h-.2c-3.1-2-44.4-26.9-44.5-26.9-3.1-2-7.6.1-8,3.6,0,.3-.1,1.2-.1,1.2v7.8a3,3,0,0,0,1.4,2.6l41.9,25.5h0l.6.2h.3l2.6-1.9h.1Zm4.6-2.7V145l-3.6,2.4-.2-10.9Zm-1.5-4.1-1-1.5c-.2-.2-.4-.3-.6-.1l-4.7,3.2a.7.7,0,0,0-.1.6l1,1.3h0v.2l-2.2,1.6v-6.2l8-5.6.2,6Zm1-7.7ZM91.1,96a4.4,4.4,0,0,1,4.9-.2l44.1,26.7-8.1,5.6L91.3,103.5A4.5,4.5,0,0,1,91.1,96Zm40.5,32.9v5.9L90.2,109.6a2.1,2.1,0,0,1-1.1-1.9v-5.2a5.8,5.8,0,0,0,1.8,1.7Zm4.1,4.7h0l-.3-.5-.9-1.3,3.9-2.8,2.8,3.9-3.9,2.8Zm44.5,39.5a3.8,3.8,0,0,1-4.3,1.6L132,160.6a4.2,4.2,0,0,1-1.1-7.5l13.9-9.4a11,11,0,0,1,14.4,1.7l20.7,23.1A3.7,3.7,0,0,1,180.2,173.1Z" fill="#efe8f2"/><path d="M139.6,145a.4.4,0,0,0,.4-.4v-7.7a.4.4,0,0,0-.8,0v7.7A.4.4,0,0,0,139.6,145Z" fill="#efe8f2"/></g></svg>