<svg id="e327309e-442d-443a-b6a4-1ae2bace3739" data-name="Layer 1" xmlns="http://www.w3.org/2000/svg" viewBox="0 0 270 270"><path d="M174.8,106.8l30.3-47a5.3,5.3,0,0,0-1.9-7.2,5.2,5.2,0,0,0-7.3,1.5l-28.4,48.2a9.7,9.7,0,0,0,1,1.5l-19.7,20.5a447.9,447.9,0,0,0-77.7,4.2c-4.2.3-10.6.9-11,4.5,0,.2-.1.4-.1.6v14.8a2.5,2.5,0,0,0,2.5,2.7h.1c.5,19.3,8.4,37.4,21.9,49.5a6,6,0,0,1,1.9,4.5v5.6a3.1,3.1,0,0,0,2.8,3.3,255.8,255.8,0,0,0,91.1.2,3.2,3.2,0,0,0,3-3.2c.1-2.9-.8-8.1,1.9-10.1,13.6-12.1,21.5-30.1,22.2-49.4,0-.2.2-.2.4-.2a2.5,2.5,0,0,0,2.2-2.6V133.9a2.7,2.7,0,0,0-.5-1.5c-1.1-1.9-4.4-3.3-8.4-3.3-11.3-1.7-22.9-3-34.3-3.8h0l6.6-18.6Zm-5.8-2.2.3.3-27,31.7H138Zm2,1.6h.1l-12.7,29.9h-3.3Zm-16.8,30.1h-.1l-5.3.2,19.8-27.6Zm-6.4.2h-4.4L170,105.4h0Zm-76.6-7.2a448.6,448.6,0,0,1,76.8-4.2l-.4.4-10.7,11.2A483.7,483.7,0,0,1,62.8,131C64.7,129.7,68.7,129.7,71.2,129.3Zm111.6,73.8c-.6,1.7-.3,6.3-.4,8a2.3,2.3,0,0,1-2.2,2.4,252.5,252.5,0,0,1-90.9-.3,2.3,2.3,0,0,1-2.1-2.4c-.1-1.8.4-6.5-.4-8.2H87a344.7,344.7,0,0,0,95.7.3h.2Zm1.8-2.7a5.1,5.1,0,0,0-1.3,1.6,351.9,351.9,0,0,1-96.7-.2l-.3-.2c-13.6-12.8-22.6-30.3-22.8-50.3a476.7,476.7,0,0,0,77.4,5.6h.3a476.3,476.3,0,0,0,65.3-5.2C205.9,170.7,197.9,188.5,184.6,200.4Zm23.9-67.9.2.2.2.3h0a1.9,1.9,0,0,1,.2.7c.1.3,0,14.8,0,15.1a1.7,1.7,0,0,1-1.5,1.8l-.6.2a476.8,476.8,0,0,1-144.1-.4h0l-.5-.2a1.7,1.7,0,0,1-1.6-1.8V133.2a1.6,1.6,0,0,1,1.5-1.4,477.6,477.6,0,0,0,145.2.3Zm-7.4-2.6a12.2,12.2,0,0,1,6.1,1.5c-14.6,2.2-29.4,3.7-44.2,4.5l3.2-9.1.3-.7h0C178,126.9,189.7,128.2,201.1,129.9Zm-39,6.1h-2.8l12.6-29.6.6.2Zm8.3-31.5h0a4.7,4.7,0,0,1-1-1l-.3-.3-.6-.8,28.1-47.9a4.6,4.6,0,0,1,7.8,4.8L174.3,106h-1.1A7.9,7.9,0,0,1,170.4,104.5Z" fill="#efe8f2"/></svg>