<svg id="b3fadb5c-0433-4606-9c66-456a500a8f0f" data-name="Layer 1" xmlns="http://www.w3.org/2000/svg" viewBox="0 0 270 270"><path d="M136.4,198.8c.3-2.2,2.4-11.5,2.3-13.5V73.7a3.3,3.3,0,0,0-1.1-2.6,3.7,3.7,0,0,0-6.3,2.6V185.4a11.8,11.8,0,0,0,.2,2.6l2,10.8A1.5,1.5,0,0,0,136.4,198.8ZM135,71.1a2.6,2.6,0,0,1,2.6,2.6v7.4h-5.2V73.7A2.6,2.6,0,0,1,135,71.1Zm2.6,11.1v3.3h-5.2V82.2Zm-5.2,103.2V86.6h5.2v98.7c.1,1.8-.9,5.5-1.1,7.3h-3C133.2,190.9,132.3,187.1,132.4,185.4Zm2.5,13.5c-.1,0-.3,0-.3-.3l-.9-4.9h2.5l-.9,4.9A.4.4,0,0,1,134.9,198.9Z" fill="#efe8f2"/></svg>