<svg id="bcc4674c-ac6c-4289-995d-c6bcc4edaaad" data-name="Layer 1" xmlns="http://www.w3.org/2000/svg" viewBox="0 0 270 270"><path d="M133.7,161.3a26.5,26.5,0,0,0,29.5-5.4c16.6-16.5,4.7-45.3-18.7-45.2C115.8,111.2,108,149.5,133.7,161.3Zm10.8-49a24.9,24.9,0,0,1,24.9,24.8c.3,13.4-11.5,25.2-24.9,25C111.5,160.7,111.4,113.6,144.5,112.3Z" fill="#efe8f2"/><path d="M135.4,145.7c7.4,7.6,20.9,2,20.7-8.7a12.2,12.2,0,0,0-12.2-12.1C133.3,124.8,127.7,138.2,135.4,145.7Zm8.5-19.3c9.3-.1,14.2,11.7,7.6,18.2s-18.3,1.8-18.2-7.5A10.7,10.7,0,0,1,143.9,126.4Z" fill="#efe8f2"/><path d="M107.2,109.3c4.4,2,8.4-3.7,4.9-7.1C106.9,97.5,101.1,106.1,107.2,109.3Zm1.8-6.9a2.9,2.9,0,0,1,0,5.8A2.9,2.9,0,0,1,109,102.4Z" fill="#efe8f2"/><path d="M169.4,109.4a.8.8,0,0,0,.7.8h15.6a.8.8,0,0,0,.8-.7v-8.2a.7.7,0,0,0-.8-.7H170.1a.7.7,0,0,0-.7.7Zm15.5-7.4v6.6h-14V102Z" fill="#efe8f2"/><path d="M196.3,168.8V115.7h.5c.7,0,1.6.1,1.6-.8V102a9.4,9.4,0,0,0-9.4-9.4H109.8c-.1-.9.4-2.6-.8-2.6H87.1c-1.2.1-.7,1.7-.8,2.6H81.1a9.6,9.6,0,0,0-9.5,9.5V115a.7.7,0,0,0,.7.8h2v53.1A11.1,11.1,0,0,0,81,179a10.3,10.3,0,0,0,4.6,1h99.7A11.1,11.1,0,0,0,196.3,168.8ZM108.2,91.5v1.1H87.9v-1Zm-35,22.8V102.1a7.9,7.9,0,0,1,7.9-7.9H188.9a7.9,7.9,0,0,1,7.9,7.9v12.2H167.7c-12-12.7-33.9-12.7-45.9-.1Zm49.7,1c19.3-19.4,52.6-5.6,52.6,21.7.4,16.6-14.2,31.2-30.8,30.9C117.4,167.9,103.6,134.7,122.9,115.3Zm62.4,63.1H85.6a9.6,9.6,0,0,1-9.6-9.6V115.8h44.4a32.1,32.1,0,0,0-8.1,21.3c-.3,17.4,15,32.7,32.4,32.3,27.7,0,42.6-32.9,24.3-53.7h25.8v53.1A9.6,9.6,0,0,1,185.3,178.4Z" fill="#efe8f2"/></svg>