<svg id="a006dd10-3564-4fb1-8108-b6d63fd18a8b" data-name="Layer 1" xmlns="http://www.w3.org/2000/svg" viewBox="0 0 270 270"><path d="M107.9,117.8c18.3,0,33.1-8.2,33.1-18.4S126.2,81,107.9,81,74.8,89.3,74.8,99.4,89.6,117.8,107.9,117.8Zm0-1.1c-9.1,0-17.3-2.1-23.2-5.4a48.2,48.2,0,0,1,23.9-5.7,47.4,47.4,0,0,1,22,6C124.8,114.7,116.8,116.7,107.9,116.7Zm0-34.5c17.7,0,32,7.7,32,17.2,0,4.5-3.1,8.5-8.2,11.6a47.4,47.4,0,0,0-23-6.5,49.8,49.8,0,0,0-25.1,6.1c-4.8-3-7.7-6.9-7.7-11.2C75.9,89.9,90.3,82.2,107.9,82.2Z" fill="#efe8f2"/><path d="M127.9,128.6c0,10.1,14.9,18.4,33.1,18.4s33.2-8.3,33.2-18.4-14.9-18.4-33.2-18.4S127.9,118.4,127.9,128.6ZM161,145.9c-9.1,0-17.3-2.1-23.2-5.4a47.1,47.1,0,0,1,45.9.3C177.9,143.9,169.9,145.9,161,145.9Zm0-34.6c17.7,0,32,7.8,32,17.3,0,4.4-3.1,8.5-8.2,11.5a49.3,49.3,0,0,0-23-6.5h-1.3a48.2,48.2,0,0,0-23.7,6.2h-.1c-4.8-3-7.7-6.9-7.7-11.2C129,119.1,143.4,111.3,161,111.3Z" fill="#efe8f2"/><path d="M216.5,161.7,210.4,127a16.3,16.3,0,0,0-.8-3.7,16,16,0,0,0-7.9-9.1L146.4,84.6a88.6,88.6,0,0,0-35.7-10.5c-25.3-1.7-44.6,5.2-50.5,18h0a14.2,14.2,0,0,0-1.3,5c-.1,0-.1.1-.1.2l-5.4,32.1a23.2,23.2,0,0,0,12.1,24.4l61.7,32.5a84.2,84.2,0,0,0,39,9.7h.9a83.1,83.1,0,0,0,37.1-9.2,24.6,24.6,0,0,0,11.1-12.1,26.9,26.9,0,0,0,1.6-6.8A27.4,27.4,0,0,0,216.5,161.7ZM61.2,92.5C66.3,81.6,81.9,75,103,75l7.6.3a86.5,86.5,0,0,1,35.3,10.3l55.3,29.6a15.3,15.3,0,0,1,7.3,8.4,15.9,15.9,0,0,1,.8,3.5c.7,10.1-9.1,20.4-23.4,24.6a88.2,88.2,0,0,1-36.1,1.3h-.2a63,63,0,0,1-20-7.1L67.5,111A14.6,14.6,0,0,1,60,100.1,15.2,15.2,0,0,1,61.2,92.5Zm154.6,75.4a20.1,20.1,0,0,1-1.6,6.4,23,23,0,0,1-10.6,11.6,81.5,81.5,0,0,1-36.5,9.1,82.5,82.5,0,0,1-39.4-9.6L66,152.9a22,22,0,0,1-11.5-23.3l4.7-27.9A15.1,15.1,0,0,0,67,111.9l62.1,34.8a61.8,61.8,0,0,0,20.3,7.3h.2a89.4,89.4,0,0,0,36.6-1.3c12.6-3.7,21.9-12.1,23.9-21.1l5.3,30.2A24.9,24.9,0,0,1,215.8,167.9Z" fill="#efe8f2"/><path d="M126.8,155.9,84.3,133.2a4.5,4.5,0,0,0-6.6,4v9.3a4.6,4.6,0,0,0,2.4,4l42.4,23.1a4.6,4.6,0,0,0,2.2.6,3.9,3.9,0,0,0,2.3-.7,4.3,4.3,0,0,0,2.2-3.8V160A4.6,4.6,0,0,0,126.8,155.9Zm1.2,13.8a3.4,3.4,0,0,1-5,2.9L80.5,149.5a3.5,3.5,0,0,1-1.8-3v-9.3a3.2,3.2,0,0,1,1.7-2.9,3.5,3.5,0,0,1,3.3-.1l42.5,22.7a3.5,3.5,0,0,1,1.8,3Z" fill="#efe8f2"/><path d="M122.1,159.4,85.5,139.5a1.1,1.1,0,0,0-1.1,0,1.1,1.1,0,0,0-.6,1v5.6a1.5,1.5,0,0,0,.7,1.2l36.9,20.1h1a1.2,1.2,0,0,0,.5-.9v-5.8A1.6,1.6,0,0,0,122.1,159.4Zm-.4,6.9L85,146.3c0-.1-.1-.1-.1-.2v-5.6H85l36.6,19.9.2.3Z" fill="#efe8f2"/><path d="M104,103a.6.6,0,0,0,.6-.5V85.6a.6.6,0,0,0-1.2,0v16.9A.6.6,0,0,0,104,103Z" fill="#efe8f2"/><path d="M160.6,132.7a.6.6,0,0,0,.6-.6V115.2a.6.6,0,0,0-.6-.6.6.6,0,0,0-.5.6v16.9A.6.6,0,0,0,160.6,132.7Z" fill="#efe8f2"/></svg>