<svg id="a96aa72c-54fb-4422-bfed-ceb43d7b9119" data-name="Layer 1" xmlns="http://www.w3.org/2000/svg" viewBox="0 0 270 270"><g id="be08886c-8d35-4dae-8b66-54de202e12e1" data-name="Headphones"><path d="M133.2,106.2c-11.9-1.8-18.3,15.9-13.8,25.3,5.8,12.5,19.6,5.6,22-7C143,117.4,140.6,107.9,133.2,106.2Zm7.4,18.1c-2.3,12.1-15.1,18.4-20.4,6.9-4-8.5.8-23.8,11.2-24.3C139.5,107.1,142.3,117.2,140.6,124.3Z" fill="#efe8f2"/><path d="M215,132.8a16.2,16.2,0,0,0-1.9-4.2,23.5,23.5,0,0,0-4.7-10.1c13.3-27.6,1.2-57.3-25.8-64.7A33.9,33.9,0,0,0,172.5,51c-32.2-2.6-47.6,25-48.9,43.4C100.1,98.1,92.2,128,110,143.6l4,3.5c14,12.4,32.2.1,37.4-18.4,3.8-12.8.4-29.5-12.1-34.5C141,81.7,150.7,60.6,172,55.1c10.2,1.2,20.4,9.2,23.9,19.2a66.4,66.4,0,0,1-2.1,37.2h0c-14.3-3.1-27.5,8.2-31.4,22.3s.7,28.5,13,34.4l-3,4.7a3,3,0,0,0,.7,3.9c-9.3,13.7-22.9,28.6-39.9,36.1-14.2,6.1-23.9,7.2-27.2,3.1s.2-13.4,3.4-18.6,6.6-7.7,9.5-10.2,6.4-5.2,6.1-9a8.2,8.2,0,0,0-3.8-6.1c-7.3-4.9-22.2,5.7-27.8,14.6s-18.8,19.9-34.1,17c-9.8-5.3-2.6-18.8,8.8-29.5h0c2.9-4.3,3.3-11.8,1.6-15.7a3.8,3.8,0,0,0,1.2-4.3l-4.1-9.7a2.1,2.1,0,0,0-2.6-1l-1.5-3.7a1.4,1.4,0,0,0-2-.8l-.6.2a1.4,1.4,0,0,0-.8,2l1.5,3.8a2.1,2.1,0,0,0-.7,2.4l4.1,9.6a3.6,3.6,0,0,0,4.8,1.9c1.6,4.2,1.3,12.4-2.9,16.1-11.1,11-17.3,24.1-7.1,29.5h.1c15.7,3,29.4-8.9,34.9-17.3s19.8-19,26.8-14.4a7.5,7.5,0,0,1,3.4,5.5c.2,3.3-2.3,5.4-5.8,8.3s-6.7,5.5-9.7,10.3c-4.5,7.3-9.7,22.6,4.2,22.4,5,0,11.9-1.9,20.7-5.6,17.1-7.6,30.8-22.6,40.2-36.4a3,3,0,0,0,3.8-1.2l3.8-6c6.9,1,13.5-1.1,19.3-5.8C212.2,159.9,219,144.3,215,132.8ZM65,144c.8-.1,1.1.6,1.3,1.2l-5.1,2.3-.3-.7a1.1,1.1,0,0,1,.6-1.4A31.9,31.9,0,0,1,65,144Zm-3.4.4-1-2.4,1.9-.8,1,2.4Zm-1.2-4.6c.4-.1.8-.4,1.2-.3s.4.7.6,1l-1.9.8C60,140.7,59.8,140.1,60.4,139.8ZM66.5,158a2.8,2.8,0,0,1-1.5-1.5l-3.5-8.2,5.1-2.3,3.5,8.3A2.8,2.8,0,0,1,66.5,158Zm143.9-34.8a21.3,21.3,0,0,1,1.4,3.5,14.5,14.5,0,0,0-2.1-2.2,25,25,0,0,0-2.3-3.9l.6-1.2A22,22,0,0,1,210.4,123.2Zm-3.4-1.8,1.2,1.9a15.1,15.1,0,0,0-1.8-.9Zm-1.6-51c10,14.1,10.1,34.3.3,51.6a15.9,15.9,0,0,0-12.3,0c7.8-16.2,10.2-32,6.9-48.1a33.9,33.9,0,0,0-9.6-15,27,27,0,0,0-3.6-2.6A41.8,41.8,0,0,1,205.4,70.4Zm-23.5,93c-19.4-9.8-11.4-40,8.4-43.8-.2.4-.8,1-.2,1.4l2.6,1.3c-11.1,4.5-17.6,19.8-13.7,31.1,2,6.1,6.3,10.4,12,11.6A17.8,17.8,0,0,1,181.9,163.4Zm-80.3-47.1a27,27,0,0,1,22.9-21.2c-16,7.3-23.5,33.3-13.7,48.2A28.1,28.1,0,0,1,101.6,116.3Zm48.4-9.5a34.5,34.5,0,0,1,.6,21.6c-5.2,18.2-22.2,29.4-35.3,18.8l-.7-.7c-13.7-13.2-6.9-41.6,9-50C133.9,90.5,145.8,95.3,150,106.8Zm8.7-46.4c-14.8,10.1-19.1,26.7-20.2,33.5a18.8,18.8,0,0,0-10-.3h-.6c.6-4.3,4.4-24.8,22-34.1,2.8-1.5,10.9-5.7,20.1-4.8A47.6,47.6,0,0,0,158.7,60.4ZM198.3,94a70.9,70.9,0,0,0-1.6-20C193,63.7,182.6,55.5,172,54.3s-19.4,3-22.4,4.6c-18.3,9.7-22,30.6-22.5,34.9l-2.7.4c1.5-18.7,17-44.9,48-42.4,11.6,1,23.6,9.9,27,22.3,3.4,15.8,1,31.3-6.6,47.3l-2-1A66.5,66.5,0,0,0,198.3,94Zm-33,63.2c-10.6-19.2,5-49.5,28.2-45-.8,2.2-1.7,4.3-2.7,6.5-19.6,3.1-29,31.7-12,43.9l-3,4.8A23.5,23.5,0,0,1,165.3,157.2Zm11.6,18.4a2.2,2.2,0,0,1-4-.7,2,2,0,0,1,.2-1.7l6.4-10.1a19.2,19.2,0,0,0,4.1,1.9Zm5-6.4,2.5-4a18.4,18.4,0,0,0,9.6.2,12.4,12.4,0,0,0,4.3-.5A23.6,23.6,0,0,1,181.9,169.2Zm31.6-19.8c-3.5,9.9-14.4,18.1-24.4,14.2a15.9,15.9,0,0,1-9.3-10.4c-3.5-10.2,1.8-24,11.2-29.1,5.8-3.5,13-3.4,18.1,1h0C215.8,130.9,216.8,141.1,213.5,149.4Z" fill="#efe8f2"/><path d="M205.2,137.3a7.9,7.9,0,0,0-12.1,2.6c-3.7,5.6-.9,12.5,5.1,13.3C205.9,155.9,212.1,140.7,205.2,137.3Zm-11.5,12.5c-2-2.5-1.9-6.3.1-9.5s4.9-5.3,9.1-3.4c-5.8.4-10.2,10.4-6.5,14.9A7,7,0,0,1,193.7,149.8Zm12.7-2.5c-4.4,9.4-13.5,5.4-9.6-4.2S210.3,137.4,206.4,147.3Z" fill="#efe8f2"/><path d="M132.3,118.9l2.7-3.7c.4-.5-.3-1-.6-.5l-2.6,3.5-1.6-2.2,2.1-2.9c.3-.4-.3-.9-.6-.5l-2.1,2.7-2-2.7c-.3-.4-1,.1-.7.5l2.2,2.9-1.6,2.2-2.6-3.5c-.3-.5-1,0-.7.5l2.8,3.7-1.6,2.1-3.2-4.3c-.4-.4-1,.1-.7.5l3.4,4.5-3.4,4.6c-.3.4.3.9.7.5l3.2-4.4,1.6,2.2-2.8,3.7c-.3.4.4.9.7.5l2.6-3.5,1.6,2.1-2.2,2.9c-.3.4.4,1,.7.5l2-2.7,2.1,2.7c.3.5.9-.1.6-.5l-2.1-2.9,1.6-2.1,2.6,3.5c.3.4,1-.1.6-.5l-2.7-3.7,1.6-2.2,3.2,4.4c.3.4,1-.1.7-.5l-3.4-4.6,3.4-4.5c.3-.4-.4-.9-.7-.5l-3.2,4.3Zm-2.7-2.2,1.6,2.2-1.6,2.1-1.6-2.1Zm-3.7,5,1.6-2.1,1.6,2.1-1.6,2.2Zm3.7,5-1.6-2.1,1.6-2.2,1.6,2.2Zm2.2-2.8-1.6-2.2,1.6-2.1,1.6,2.1Z" fill="#efe8f2"/></g></svg>