<svg id="aede0445-be3d-4345-b834-498bba043f3a" data-name="Layer 1" xmlns="http://www.w3.org/2000/svg" viewBox="0 0 270 270"><line x1="143" y1="140.7" x2="143" y2="140.7" fill="#efe8f2"/><path d="M143,140.6h0m-5.1,23.8c-.1.2-.2.4-.4.4S137.8,164.6,137.9,164.4Zm5.1-23.8c.1-.1,1.5-61,1.5-61.1-.4-12.6-18.5-12.7-19-.1.1.1.8,61,.9,61.1v.2s4.9,11.1,5,11.1a29.7,29.7,0,0,0-.1,12.6h0c-.8,4.9-.6,11.6-.5,17.5s-.3,10.3.4,14.8a3.3,3.3,0,0,0,3.3,3.3h0a3.7,3.7,0,0,0,3.3-3.3c.6-4.2.5-9.5.6-14.2,0-7,.4-13-.6-18.4a26.9,26.9,0,0,0,0-12.3,4.6,4.6,0,0,1,.4-.8l-.4.8.4-.8,3.1-6.8,1.6-3.5h0m-.8-.2-4.9,10.8h-5.2l-4.9-10.9-.9-60.9c.5-11.5,17-11.4,17.4.1l-1.5,60.9m-5,12a26.3,26.3,0,0,1-.1,11.5h-5a31.8,31.8,0,0,1,.1-11.5Zm-5.7,11.8c0-.2.2-.3.3-.2S131.5,164,131.5,164.2Zm.1.5h0Zm3,34.5a2.6,2.6,0,0,1-2.5-2.6c-.6-4.5-.4-9.9-.4-14.7s-.2-12.3.5-17.1h5.1a126.2,126.2,0,0,1,.3,17.7c-.1,4.7.1,9.9-.5,14.1A3,3,0,0,1,134.6,199.2Z" fill="#efe8f2"/><path d="M139.6,140.3a.4.4,0,0,0-.4-.4h-9.6a.4.4,0,0,0-.4.4.4.4,0,0,0,.4.4h9.6A.4.4,0,0,0,139.6,140.3Z" fill="#efe8f2"/><path d="M138.4,142.3l-3.2,7.1a.4.4,0,0,0,.2.5.5.5,0,0,0,.6-.2l3.2-7.1a.4.4,0,0,0-.2-.5A.5.5,0,0,0,138.4,142.3Z" fill="#efe8f2"/><path d="M136.7,142.1c-.2-.2-.5-.1-.6.2l-3.2,7a.4.4,0,0,0,.2.6.4.4,0,0,0,.5-.2l3.3-7.1C137,142.4,136.9,142.1,136.7,142.1Z" fill="#efe8f2"/><path d="M134.4,142a.4.4,0,0,0-.6.2l-2.2,4.8a.4.4,0,0,0,.2.5.5.5,0,0,0,.6-.2l2.2-4.7A.5.5,0,0,0,134.4,142Z" fill="#efe8f2"/><path d="M132,142a.4.4,0,0,0-.5.2l-1.1,2.3c0,.2,0,.4.3.5a.4.4,0,0,0,.5-.2l1-2.2A.5.5,0,0,0,132,142Z" fill="#efe8f2"/></svg>