<svg id="a3621e3b-cd9b-4216-a664-6b772ef64d4d" data-name="Layer 1" xmlns="http://www.w3.org/2000/svg" viewBox="0 0 270 270"><g id="f8f38cdd-8a9a-437f-a460-78f0af905dc5" data-name="Frosting Squirt"><path d="M39.7,132.9a15.6,15.6,0,0,1-.2-3.1.5.5,0,0,0-.4-.5h-.4c-.1.1-.1.3-.2.4s.1,2.2.2,3.2a15.6,15.6,0,0,0,8.7,11.6h.3l.3-.3a.6.6,0,0,0,.1-.4l-.3-.3A14.8,14.8,0,0,1,39.7,132.9Z" fill="#efe8f2"/><path d="M61,110.3a18.2,18.2,0,0,0-3.3-.1l-.3.2a.4.4,0,0,0-.1.3.5.5,0,0,0,.5.5,15.1,15.1,0,0,1,3,.1,14.8,14.8,0,0,1,11.1,7.9c0,.1.2.2.4.2h.2l.3-.3a.6.6,0,0,0-.1-.4A15.7,15.7,0,0,0,61,110.3Z" fill="#efe8f2"/><path d="M256,180.7a.8.8,0,0,0-.8,0c-1.1.9-5.3,3.8-5.4,3.9a13.8,13.8,0,0,1-18.7-2.5,23.2,23.2,0,0,0-32.9-3l-4.7,3.9a15.1,15.1,0,0,1-21.2-1.9l-7.3-8.7a15.9,15.9,0,0,0-12.3-5.8,16.4,16.4,0,0,0-12.4,5.4l-10.4,11.8a9.8,9.8,0,0,1-13.7.9l-2.4-2.1,1.1-1.1a.9.9,0,0,0,0-.7L99.3,159.7,76.6,114.8A18,18,0,0,0,59,105l-14.8,1.2h-.3l-3.6-3.4c0-.1-.2-.2-.3-.2l-.4.2-.7.8L29.3,82.1a.5.5,0,0,0-.5-.3.7.7,0,0,0-.5.4l-.8,6.3a1.5,1.5,0,0,1-2.1,1.1l-4.6-2.1a.5.5,0,0,0-.6.1c-.1.1-.2.4-.1.5l3,5.5a1,1,0,0,1-.1,1.2,1,1,0,0,1-1,.4l-5.2-1a.4.4,0,0,0-.5.2.5.5,0,0,0,.1.6l4.5,5.4a2.1,2.1,0,0,1,.3,1.9,2,2,0,0,1-1.5,1.2h-.1l-5.2.5h0a.7.7,0,0,0-.5.4.7.7,0,0,0,.4.6L32,110.7l-.5.5a.5.5,0,0,0,0,.7l3.5,3.5-.2.2a.4.4,0,0,0-.1.3L34,130.8a18.2,18.2,0,0,0,10.2,17.1L89.7,170H90l21,14.8h.6l1.5-1.5,2.5,2.2a10.6,10.6,0,0,0,6.3,2.5,10.8,10.8,0,0,0,8.7-3.5L141,172.7a15.5,15.5,0,0,1,11.7-5.1,14.9,14.9,0,0,1,11.5,5.4l7.4,8.8a16.1,16.1,0,0,0,22.6,1.9l4.6-3.9a22.6,22.6,0,0,1,16.4-5.1,22.1,22.1,0,0,1,15.1,8.1,14.8,14.8,0,0,0,13.5,5.2,15,15,0,0,0,6.6-2.6c.1-.1,3.8-2.6,5.4-3.9A.7.7,0,0,0,256,180.7ZM95.8,162.8,76.7,136.3l-.3-.2H76a.5.5,0,0,0-.1.7l19.3,26.6-2.3,2.3c-.5-1-24.4-16.8-24.4-16.8a.4.4,0,0,0-.6.2.5.5,0,0,0,.1.7l24,16.5h.3l-2.5,2.5L44.6,147A17,17,0,0,1,35,130.9l.7-14.7,8.8-9.1L59.1,106a17,17,0,0,1,16.6,9.3l22.7,44.9Zm3.3-1.8,14.8,20.1-2.7,2.7L90.8,169.4ZM35.6,114.5l-3-2.9,7.4-7.7,3.1,3ZM22.1,102.7a3,3,0,0,0-.5-3L18,95.4l3.8.8a1.9,1.9,0,0,0,2-.8,2,2,0,0,0,.2-2.2L21.7,89l3.2,1.5a2.6,2.6,0,0,0,2.3,0,2.6,2.6,0,0,0,1.3-1.9l.6-4.5,8.8,19.8-2.4,2.4-8.2-8a.5.5,0,0,0-.4-.2l-.3.2a.4.4,0,0,0-.1.3.6.6,0,0,0,.1.4l8.2,8-2.6,2.8-15.4-5,2.9-.3A3,3,0,0,0,22.1,102.7Z" fill="#efe8f2"/></g></svg>