<svg id="b39abbbc-3783-4167-a4f9-c55d4eaf360f" data-name="Layer 1" xmlns="http://www.w3.org/2000/svg" viewBox="0 0 270 270"><path d="M170.9,133.1c.1-3.7-3.7-7.4-6-8.2-2.6-7.9-10.9-11.2-16.2-11.2-10.4-9.1-29.5-2.2-34.5,1.2a4.9,4.9,0,0,0-2.1,2.6,6.3,6.3,0,0,0-.1,2.7,13.3,13.3,0,0,0-3.8,1.8c-4.5,3-9.6,9.5-7.6,15.9-4,3.2-3.9,11.3-2,14.8-1,8.2,10.2,11.8,13,3.3,1.8,0,6.2-1.9,6.9-4.8,4,.7,9.2-.4,12.1-3.6h0c6.6,1.2,14,.3,19.4-3.9a13,13,0,0,0,10.8-2.3c1,.7,3.4,1.4,4.9.7h0c3,2.5,7.5.2,6.9-4.2A9.6,9.6,0,0,0,170.9,133.1Zm-60.3,23.1h0l-.2.3-.2.5a6.2,6.2,0,0,1-2.1,2.2H108l-.4.2h-.2l-.6.2a5.2,5.2,0,0,1-4.6-.8H102a6.5,6.5,0,0,1-2.4-3.7,4.9,4.9,0,0,1-.1-2.4,5.8,5.8,0,0,1,3.9-2.2,7.1,7.1,0,0,1,4.3.8l.6.4h.1l.4.3a6.5,6.5,0,0,1,2,3.4A2.1,2.1,0,0,1,110.6,156.2Zm5.7-3.2h-.1a7.9,7.9,0,0,1-4.7,2,6.2,6.2,0,0,0-2.3-3.7l-.3-.3h-.1a7.4,7.4,0,0,0-5.6-1.4,6.8,6.8,0,0,0-4,2.1,13.9,13.9,0,0,1-.7-8.6c1.1-4.1,4.1-7.4,9.4-6.3a13.4,13.4,0,0,1,5.3,3h0a17.1,17.1,0,0,1,4.5,7.8,1.3,1.3,0,0,1,.1.6A4.6,4.6,0,0,1,116.3,153Zm11.4-4.2a13.9,13.9,0,0,1-9.1,1.6,9.7,9.7,0,0,0-.5-3.8,15.9,15.9,0,0,0-4.3-7.1h-.1l-.3-.3-2.3-1.7h-.3l-.3-.2-.5-.2-.3-.2-.6-.2h-.5a13.5,13.5,0,0,0-2.8-.4h-1.3a7.5,7.5,0,0,0-2.4.8l-.7.5c-1.3-4.4.9-8.7,3.9-11.8l.2-.3h.1l1.5-1.4,1.5-1.2a11.7,11.7,0,0,1,3.8-1.7l1.4-.2a9.3,9.3,0,0,1,5.4,1,17,17,0,0,1,4.3,2.6l.3.2h.1a21.7,21.7,0,0,1,6.5,9.7,20,20,0,0,1,.9,9,1.3,1.3,0,0,1-.1.6A6,6,0,0,1,127.7,148.8Zm20.6-4.8h-.1a27.3,27.3,0,0,1-8.3,2.9l-2.2.2h-4.4l-2.2-.3a12,12,0,0,0,1.1-3.5,20.4,20.4,0,0,0-.7-8,23.4,23.4,0,0,0-1.9-5c0-.1-.1-.1-.1-.2V130a30.9,30.9,0,0,0-3.6-4.7l-.3-.2-.3-.4a18,18,0,0,0-5.5-3.6h-.1l-.5-.2a11.3,11.3,0,0,0-6.3-.7h.1a3.6,3.6,0,0,1,0-2.3,4.2,4.2,0,0,1,1.8-2.2,35.7,35.7,0,0,1,11.7-4.6c7.5-1.7,16.1-1.6,21.6,3.1,2.9,2.5,5,6.4,5.5,12h0a29.1,29.1,0,0,1,0,5.9,24.7,24.7,0,0,1-2.1,8.1A8.6,8.6,0,0,1,148.3,144Zm12.9-4.1-.3.2-.3.4h-.2a11.3,11.3,0,0,1-5.8,2.5h-3.9a22,22,0,0,0,1.5-2.6,24.4,24.4,0,0,0,2-7.4,23.1,23.1,0,0,0,.3-3.7V129a4.9,4.9,0,0,0-.1-1.2v-1.4a.9.9,0,0,1-.1-.5,23.6,23.6,0,0,0-1.2-5.4l-.3-1-.2-.3a14.4,14.4,0,0,0-2.9-4.6,12.4,12.4,0,0,1,4.1.8,17.4,17.4,0,0,1,6.9,4.3c.1,0,.1.1.2.2l.3.3a15.5,15.5,0,0,1,3.8,9.3h0v1.3a.4.4,0,0,0-.1.3,13.4,13.4,0,0,1-2.7,7.5h0l-.4.5v.2l-.3.3Zm3.6,1.6a4.5,4.5,0,0,1-3.3-.7,9.3,9.3,0,0,0,2.5-3.3,17.4,17.4,0,0,0,1.8-7.7,14.6,14.6,0,0,0-.5-3.8l2.1,1.5a9.6,9.6,0,0,1,2.6,5.1,7.1,7.1,0,0,1-.2,2.9h0c0,.1-.1.2-.1.3a15.9,15.9,0,0,1-1.2,2.7A6.8,6.8,0,0,1,164.8,141.5Zm7-2.6a3.7,3.7,0,0,1-1.6,3H170a3.6,3.6,0,0,1-1.8.3,3.5,3.5,0,0,1-1.6-.6l1.5-1.4.7-.9a.5.5,0,0,0,.3-.4c.1-.1.1-.2.2-.2l.5-.9h0l.3-.6c.1-.2.1-.4.2-.5h0a11.7,11.7,0,0,0,.5-2,10.2,10.2,0,0,1,1,3.9Z" fill="#efe8f2"/><path d="M120.5,142.5a15.7,15.7,0,0,0-9.7-9.4h-.3l-.2.4.3.3.9.3a5.6,5.6,0,0,1,1.6.7,13.4,13.4,0,0,1,4.1,3.5l1.2,1.6.9,1.8.6,1.5a8.8,8.8,0,0,1,.5,1.5v.2a.4.4,0,0,0,.5.1c.2,0,.3-.2.2-.5A12.9,12.9,0,0,0,120.5,142.5Z" fill="#efe8f2"/><path d="M107.4,147.3a7.2,7.2,0,0,0-6.2,1l-.2.2h0v.2h.4l.9-.4a5.9,5.9,0,0,1,2.6-.7h.3a4.6,4.6,0,0,1,2,.2m0,0h0l.9.3,1,.7,1,.7h0c.5-.2.5-.5.2-.8a6.2,6.2,0,0,0-1.7-1.2l-1.2-.5" fill="#efe8f2"/><path d="M128.5,120.7h-.4c-.1.1-.3.2-.3.4a.4.4,0,0,0,.1.3h0a19.9,19.9,0,0,1,4.7,5.7l.2.3a23.5,23.5,0,0,1,2.8,9.2,24.6,24.6,0,0,1-.1,5.5h0a.4.4,0,0,0,.1.3l.3.2h.3a.3.3,0,0,0,.1-.2,24.4,24.4,0,0,0-2.8-15.2A23.6,23.6,0,0,0,128.5,120.7Z" fill="#efe8f2"/><path d="M122.6,116.9a.4.4,0,0,0-.5.2.5.5,0,0,0,.2.6,26.8,26.8,0,0,1,3.3,1.8h.2l.3-.2c.2-.2.1-.4-.1-.6A27.4,27.4,0,0,0,122.6,116.9Z" fill="#efe8f2"/></svg>