<svg id="bfc4a512-641b-4149-ad0a-96f966f62d00" data-name="Layer 1" xmlns="http://www.w3.org/2000/svg" viewBox="0 0 270 270"><g id="a37ba294-5c11-43e5-9a96-1f793afd392f" data-name="Slate"><path d="M213.2,225,59.4,226.2a.6.6,0,0,0,0,1.2l153.8-1.2a.6.6,0,0,0,0-1.2Z" fill="#efe8f2"/><path d="M60.5,111.7a2.3,2.3,0,1,0,0,4.6A2.3,2.3,0,1,0,60.5,111.7Zm0,3.5a1.2,1.2,0,0,1,0-2.4A1.2,1.2,0,0,1,60.5,115.2Z" fill="#efe8f2"/><path d="M80.6,129.9c-3,0-3,4.6,0,4.6A2.3,2.3,0,1,0,80.6,129.9Zm1.2,2.3a1.2,1.2,0,0,1-2.3,0A1.2,1.2,0,0,1,81.8,132.2Z" fill="#efe8f2"/><path d="M221.2,235.2l-.2-93.8a3.9,3.9,0,0,0-.6-2.1,2.3,2.3,0,0,0,.8-1.8V125.9a2.2,2.2,0,0,0-.6-1.5,2,2,0,0,0-1.5-.6L80.8,122.3l-6.7-6.2c.2-.3,117.2-81.5,117.2-81.9l1.4-3.3c1.3-2.3-4.7-6.7-5.8-7.6s-5.6-2.3-7.6-1L52.8,110a4.6,4.6,0,0,0-1.8,6.1l1.8,3.6V122a1.7,1.7,0,0,0-1.6,1.7l-.5,12.2a2.5,2.5,0,0,0,.9,1.9,3.5,3.5,0,0,0-.3,1.4l-2.5,96.1a11.9,11.9,0,0,0,3.4,8.8,14.9,14.9,0,0,0,10.6,4.2H208.1A13.2,13.2,0,0,0,221.2,235.2Zm-130-97.7,10.6-13.8h13.1l-10.5,13.8ZM130,124l-10.6,13.8-13.6-.2,10.6-13.8Zm29.7.3L149.2,138H135.5l10.4-13.8Zm29.2.3-10.5,13.7H165.3l10.4-13.7Zm9.8.1h4.7l-10.3,13.7-13.3-.2,10.5-13.7Zm19.5.2-10.5,13.7H194.5l10.4-13.7Zm1.8,12.6a1.2,1.2,0,0,1-.5,1l-.7.2h-9.7l10.5-13.5a.9.9,0,0,1,.6.8Zm-56.2.7H150.6l10.5-13.8,13.1.2Zm-29.7-.3H120.9L131.4,124h13.1ZM57,133.4a1.2,1.2,0,0,1,0-2.3A1.2,1.2,0,1,1,57,133.4Zm26.6-5.7V135l-26.1-.5a2.3,2.3,0,1,0-1.1,0,3.3,3.3,0,0,1-2.9-3.5l.8-18.7a2.6,2.6,0,0,1,2.5-2.4h8.1a2.3,2.3,0,0,1,1.6.6L83,125.9A2,2,0,0,1,83.6,127.7ZM73.2,115.3l-.9-.9L190.9,32.3l-.6,1.3ZM180,23.3c1.5-1,5-.6,6.2.8s5.6,5,5.5,6.2c-29.1,20.1-66,45.6-120.3,83.3l-4.1-3.8a3.7,3.7,0,0,0-2.4-1H56.6ZM52.1,115.6a3.4,3.4,0,0,1,1.3-4.6c-.4.8-.4,5.4-.5,6.3Zm-.3,20.3.4-12.2a.5.5,0,0,1,.5-.5l-.4,7.8a4.5,4.5,0,0,0,4.6,4.7c1.5,0,21.5.5,27.2.5a.6.6,0,0,0,.6-.5c.1-.1.1-8.2.1-8.2.2-1.8-1.7-3-2.8-4.1l18.4.2L89.7,137.5l-36.8-.4a1.5,1.5,0,0,0-.7-.3A1,1,0,0,1,51.8,135.9ZM216.6,243.7a11.9,11.9,0,0,1-8.5,3.5H62.7c-6.8.1-13.2-5-12.9-11.9l2.5-96a4.3,4.3,0,0,1,.2-1.1c5.8.2,47.7.5,52.3.6l114,1.1h.5a2.4,2.4,0,0,1,.5,1.6l.3,93.8A12.3,12.3,0,0,1,216.6,243.7Z" fill="#efe8f2"/><path d="M134.8,193.6h.4l77.3-.4c.4,0,.6-.2.6-.5a.5.5,0,0,0-.6-.6l-77,.3,1.2-34.2,75.5-.2c.7,0,.7-1.2,0-1.2l-76.1.2h0l-76,.2a.6.6,0,1,0,0,1.2l75.4-.2-1.2,34.2-74.7.3a.6.6,0,0,0,0,1.2l74.9-.3Z" fill="#efe8f2"/><path d="M62.8,182.9a.6.6,0,0,0,.7.4l25.6-6.1c.7-.1.4-1.3-.3-1.1l-25.5,6.1C63,182.2,62.8,182.6,62.8,182.9Z" fill="#efe8f2"/><path d="M91.3,172.7l-25.5,6c-.7.2-.5,1.4.3,1.2l25.5-6.1A.6.6,0,0,0,91.3,172.7Z" fill="#efe8f2"/><path d="M68.5,184.1a.6.6,0,0,0,.7.4l25.5-6.1c.7-.1.5-1.3-.3-1.1l-25.5,6.1A.6.6,0,0,0,68.5,184.1Z" fill="#efe8f2"/><path d="M143.7,182a.6.6,0,0,0,.7.4l25.6-6a.6.6,0,0,0-.3-1.2l-25.5,6.1A.8.8,0,0,0,143.7,182Z" fill="#efe8f2"/><path d="M146.8,179l25.7-6.1c.8-.1.5-1.3-.2-1.1l-25.6,6.1C146,178,146.2,179,146.8,179Z" fill="#efe8f2"/><path d="M150,183.7l25.6-6.1a.6.6,0,0,0-.2-1.2l-25.6,6.1C149.2,182.6,149.3,183.7,150,183.7Z" fill="#efe8f2"/></g></svg>