<svg id="Layer_1" data-name="Layer 1" xmlns="http://www.w3.org/2000/svg" viewBox="0 0 270 270"><defs><style>.cls-1{fill:#efe8f2;}</style></defs><g id="Serving_Spatula" data-name="Serving Spatula"><path class="cls-1" d="M141.19,122.22a.48.48,0,0,1,.07.2A.48.48,0,0,0,141.19,122.22Z"/><path class="cls-1" d="M141.15,122.17l0,0Z"/><path class="cls-1" d="M90.9,105.32a.42.42,0,0,0-.42.42v2.84a.42.42,0,0,0,.42.42.41.41,0,0,0,.41-.42v-2.84A.41.41,0,0,0,90.9,105.32Z"/><path class="cls-1" d="M93.18,106.69a.42.42,0,0,0-.42.42V110a.42.42,0,0,0,.42.42.41.41,0,0,0,.41-.42v-2.84A.41.41,0,0,0,93.18,106.69Z"/><path class="cls-1" d="M95.46,108.06a.42.42,0,0,0-.42.42v2.84a.42.42,0,0,0,.84,0v-2.84A.42.42,0,0,0,95.46,108.06Z"/><path class="cls-1" d="M163.12,157.27a.41.41,0,0,0-.41-.42H137.53a.42.42,0,0,0,0,.83h25.18A.41.41,0,0,0,163.12,157.27Z"/><path class="cls-1" d="M167.55,160.15H148.27a.42.42,0,0,0,0,.84h19.28A.42.42,0,0,0,167.55,160.15Z"/><path class="cls-1" d="M136.76,136.45,137,148l-6.56,4.46a5.08,5.08,0,0,0,1.31,9l43.87,14c4.36,1.51,8.06-4.08,4.86-7.51l-20.7-23.07A11.87,11.87,0,0,0,144.36,143l-2.14,1.46s0-11.43,0-11.45a.46.46,0,0,0-.06-.2c-.08-.1-1.71-2.4-1.72-2.42.23-.21,1.12-.63,1.06-1l-.23-7s0,0,0,0a.43.43,0,0,0-.13-.3h0l0,0a.48.48,0,0,0-.17-.1c-3.18-2-44.46-26.9-44.5-26.95-3.1-2-7.63.08-8,3.62,0,.29-.1,1.18-.1,1.18s0,.14,0,.2v7.59a3.1,3.1,0,0,0,1.45,2.62c7,4.32,39.75,24.31,41.84,25.48h0a1.09,1.09,0,0,0,.66.25h0a.39.39,0,0,0,.23-.07l2.63-1.83.08.12h0Zm4.63-2.62V145l-3.54,2.41-.26-10.89ZM140,129.7l-1.1-1.55a.41.41,0,0,0-.58-.09l-4.63,3.28a.42.42,0,0,0-.1.58l.94,1.33h0l.14.19-2.2,1.54v-6.14l8-5.62.2,6Zm1-7.68s0,0,0,0ZM91.07,96A4.54,4.54,0,0,1,96,95.8l44.07,26.66-8.1,5.66L91.33,103.53A4.56,4.56,0,0,1,91.07,96Zm40.52,32.91v6c-3.86-2.35-34.81-21.14-41.41-25.25a2.28,2.28,0,0,1-1.07-1.92v-5.22a5.44,5.44,0,0,0,1.79,1.78Zm4.14,4.71h0l-.36-.51-.91-1.28,4-2.8,2.8,4-3.95,2.81Zm44.52,39.53a3.73,3.73,0,0,1-4.35,1.55l-43.87-14a4.23,4.23,0,0,1-1.09-7.5l13.89-9.45a11,11,0,0,1,14.36,1.75l20.7,23.07A3.72,3.72,0,0,1,180.25,173.1Z"/><path class="cls-1" d="M139.62,145a.41.41,0,0,0,.41-.42v-7.73a.41.41,0,0,0-.41-.41.41.41,0,0,0-.42.41v7.73A.42.42,0,0,0,139.62,145Z"/></g></svg>