<svg id="Layer_1" data-name="Layer 1" xmlns="http://www.w3.org/2000/svg" viewBox="0 0 270 270"><defs><style>.cls-1{fill:#efe8f2;}</style></defs><g id="Coffee_Cup" data-name="Coffee Cup"><path class="cls-1" d="M168.52,99.72,168.29,97a.06.06,0,0,0,0,0s0,0,0,0h0c0-.93-.91-1.72-2.94-2.44-.29-.11-.61-.21-.94-.32h0L163,88.46a.41.41,0,0,0-.3-.28h0c-.49-2.08-14.46-3.17-28-3.17-13.07,0-27.22,1-27.48,3.31l0,0v0a.35.35,0,0,0-.07.12l-1.68,5.65c-2,.6-3.23,1.24-3.72,2a1.33,1.33,0,0,0-.26.89h0v0a18.73,18.73,0,0,0-.07,3.14c0,.53,0,1,0,1a1.5,1.5,0,0,0,1.11,1.45c1,.27,2.15.54,3.31.79l.39.09c0,.08.19,1.7,1.26,10.11.32,2.51.57,4.49.57,4.53h0a.42.42,0,0,0,0,.34h0c.08.15,1.23,9.43,2.55,20.17,2.23,18.12,5,40.67,5.31,40.78A35.61,35.61,0,0,0,135.37,185a33.26,33.26,0,0,0,18.82-5.64c.29-.07,3.15-23.07,6.58-50.85,1.63-13.21,3-24.63,3.16-25.11h0c1.52-.45,2.91-.92,4.13-1.41a.92.92,0,0,0,.57-.93ZM135,85.86c16.39,0,26.32,1.48,26.92,2.49-1.22,1.67-14.8,2.43-26.9,2.43s-25.84-.75-27-2.39C108.49,87.36,118.34,85.86,135,85.86ZM107.78,89.2c3.6,1.75,16.33,2.54,27.36,2.54,10.23,0,23.47-.69,27.16-2.64l1.77,7.1a120.44,120.44,0,0,1-30.13,3.8,121.64,121.64,0,0,1-28.38-3.35Zm-5.39,7.61a.64.64,0,0,0,0-.07.64.64,0,0,1,.08-.2l0-.05a5.45,5.45,0,0,1,2.63-1.44l-.53,1.78a.39.39,0,0,0,0,.33c8.15,2.35,17.72,3.56,29.27,3.69h0a122.1,122.1,0,0,0,30.73-3.93.42.42,0,0,0,.3-.51l-.33-1.33a5.21,5.21,0,0,1,2.57,1.42l0,0a.64.64,0,0,1,.08.2.13.13,0,0,1,0,.06.67.67,0,0,1,0,.2.92.92,0,0,1-.25.46l0,0a2.19,2.19,0,0,1-.22.2l-.08.06-.28.18-.11.06a8,8,0,0,1-1.32.57l-.17.06-.51.17-.21.06-.6.16-.1,0c-5.85,1.53-17.34,2.53-27.79,2.53h-1.63c-10.43,0-21.91-1-27.76-2.52l-.15,0-.58-.16-.22-.07-.51-.16-.17-.06c-.34-.12-.66-.25-.93-.37l0,0a2.55,2.55,0,0,1-.33-.17l-.14-.08a2.46,2.46,0,0,1-.27-.17l-.09-.07-.21-.19s0,0,0,0a.85.85,0,0,1-.25-.46A.67.67,0,0,1,102.39,96.81Zm51.18,81.94a32.18,32.18,0,0,1-18.14,5.4h0a35,35,0,0,1-18.89-5.39l-2.16-16.39h.07v0a78.13,78.13,0,0,0,41.29-.87Zm2.3-18.11h0a78.66,78.66,0,0,1-22.21,3.28h-.12a79.15,79.15,0,0,1-19.17-2.4h0L109,118.79a86.11,86.11,0,0,0,52.33-1.06Zm5.55-43.82h0a85.93,85.93,0,0,1-28,4.7c-1.3,0-2.61,0-3.91-.09a86.14,86.14,0,0,1-20.69-3.53h0L107,103.63c8,1.92,19.57,3.11,30.32,3.11,7.26,0,17.61-.54,25.71-3.09Zm1.85-14h0Zm.34-.1Zm.57-.18-.58.18-.07,0h0a.31.31,0,0,0-.24.1h0c-6.77,2-15.81,3.06-26.13,3.06-12.45,0-25.65-1.58-34.45-4.13a.67.67,0,0,1-.48-.64v-3c3.82,3,19.15,4.27,32.67,4.27,5.23,0,10.72-.2,15.72-.61h.12l1-.09.38,0,.74-.07.52,0,.6-.07.58-.06.54-.07.57-.07.55-.07.5-.06.58-.08.43-.07.64-.09.32-.05.72-.12.19,0,.8-.14.07,0c3.31-.63,5.84-1.44,7.11-2.42l.22,3.09C166.67,101.68,165.45,102.12,164.18,102.54Z"/><path class="cls-1" d="M138.72,131.73a6.15,6.15,0,0,0-5.15,2.73,6.63,6.63,0,0,0-1.09-1.2,6,6,0,0,0-3.94-1.55,6.51,6.51,0,0,0-2,.34,5.15,5.15,0,0,0-3.31,3.06,8.69,8.69,0,0,0,.42,7c1.41,2.39,3.76,4.36,6,6.26a45.09,45.09,0,0,1,3.62,3.26l.36.18h0c1.35-1.28,2.81-2.55,4.22-3.79l1.78-1.56c1.77-1.54,3.66-3.37,4.3-5.37.79-2.39.91-5.64-1.09-7.61A5.58,5.58,0,0,0,138.72,131.73Zm4.42,9.08c-.62,1.88-2.34,3.5-4.06,5-.59.53-1.2,1.06-1.81,1.59-1.25,1.09-2.53,2.22-3.7,3.33-1.1-1.06-2.33-2.12-3.53-3.16s-2.71-2.35-3.95-3.58a8.37,8.37,0,0,1-2.5-7.4,4.76,4.76,0,0,1,3.18-3.74,5.2,5.2,0,0,1,1.7-.3,5.59,5.59,0,0,1,4.73,2.86l.36.55a6,6,0,0,1,5.17-3.41,4.91,4.91,0,0,1,3.51,1.51C144.41,136.19,143.48,139.76,143.14,140.81Z"/></g></svg>