<svg id="Layer_1" data-name="Layer 1" xmlns="http://www.w3.org/2000/svg" viewBox="0 0 270 270"><defs><style>.cls-1{fill:#efe8f2;}</style></defs><path class="cls-1" d="M178.19,143.64a14.51,14.51,0,0,0-14.47-12.14c4.55-15.57-11.85-29.62-26.4-22a19.69,19.69,0,0,0-11.38,10.84,12.28,12.28,0,0,0-10.81,1.34c-4.69,1.28-8.58,6.51-9.7,10.55a30.73,30.73,0,0,0-3.86,2.06h0l-.26.12-.17.09C85.81,141.6,90,162.21,107,162.61h56c7.12,0,13.59-5.14,14.59-12.2A13.79,13.79,0,0,0,178.19,143.64Zm-46.24-30a18.62,18.62,0,0,0-4.21,7.52c-.33-.17-.68-.31-1-.46A18.62,18.62,0,0,1,132,113.62Zm-19,10a13.85,13.85,0,0,0-3.33,7.72,16.79,16.79,0,0,0-3.16.6A16.35,16.35,0,0,1,112.9,123.62ZM163,161.78H107a15.72,15.72,0,0,1-5.67-1C90.5,156.39,89.4,143,99.06,136.61c-6.67,7.18-3.56,18.59,5.46,22a16,16,0,0,0,5.76,1.06h53.85a14.47,14.47,0,0,0,11.49-5.7A14.06,14.06,0,0,1,163,161.78Zm1.16-2.95H110.28a14.19,14.19,0,0,1-10-3.88c-7-6.42-4.3-17.4,3.93-21.29a15.07,15.07,0,0,1,5.74-1.51.43.43,0,0,0,.39-.41c.07-2.48,1.78-7.31,5.14-9.28l.38-.26a11.63,11.63,0,0,1,11.89-.08.41.41,0,0,0,.61-.26,18.25,18.25,0,0,1,15.15-13.46c9.74-1.56,19.32,6.48,20,16.21a19.48,19.48,0,0,1-.82,7.4.4.4,0,0,0,.44.34,13.65,13.65,0,0,1,14.34,13.47C177.6,153,171.29,158.89,164.13,158.83Z"/></svg>