<svg id="Layer_1" data-name="Layer 1" xmlns="http://www.w3.org/2000/svg" viewBox="0 0 270 270"><defs><style>.cls-1{fill:#efe8f2;}</style></defs><path class="cls-1" d="M134.83,132.71l1,46.85a.42.42,0,0,0,.7.29c.39-.18-1-46.87-.87-47.16A.42.42,0,0,0,134.83,132.71Z"/><path class="cls-1" d="M133.2,186.39a3.18,3.18,0,1,0,3.12-3.25A3.21,3.21,0,0,0,133.2,186.39Zm5.54-.11a2.36,2.36,0,0,1-4.71.09A2.36,2.36,0,0,1,138.74,186.28Z"/><path class="cls-1" d="M131.94,77.51l-8.17.18a2.79,2.79,0,0,0-2,.89,2.86,2.86,0,0,0-.8,2.06l.87,41a2.91,2.91,0,0,0,3,2.83l5.71-.12.14,62.38a5.78,5.78,0,1,0,11.56-.25l-2.5-62.33,6.56-.14a2.9,2.9,0,0,0,2.83-3l-.59-27.7A16.27,16.27,0,0,0,131.94,77.51Zm9.4,109a5,5,0,1,1-9.9.21l-.14-62.4,7.54-.16Zm6.3-93.14.59,27.7a2.06,2.06,0,0,1-2,2.1l-21.47.46a2.07,2.07,0,0,1-2.1-2l-.87-41a2,2,0,0,1,.64-1.54,2.06,2.06,0,0,1,1.38-.56l8.17-.18A15.44,15.44,0,0,1,147.64,93.38Z"/><path class="cls-1" d="M136.66,80.85a.41.41,0,0,0-.39.73,16.09,16.09,0,0,1,8.42,13.79.42.42,0,0,0,.7.29C145.81,89.61,141.94,83.73,136.66,80.85Z"/></svg>