<svg id="Layer_1" data-name="Layer 1" xmlns="http://www.w3.org/2000/svg" viewBox="0 0 270 270"><defs><style>.cls-1{fill:#efe8f2;}</style></defs><path class="cls-1" d="M156.32,166.93h0l0,0,0,0h0l-19.13-11.7a.47.47,0,0,0-.58.08,43.35,43.35,0,0,1-15.17,10.94,42.41,42.41,0,0,1-6.24,2.11c-4.1-12.23,2.5-28.92,5-34.6l3.78,3.44a.45.45,0,0,0,.76-.29L127.17,115s0,0,0,0v-.1a.25.25,0,0,1,0-.07,0,0,0,0,1,0,0l-.06-.09h0l-.06-.07h0l0,0-19.69-11.7a.47.47,0,0,0-.4,0l-17.24,6.56h0l-.07.05h0a.27.27,0,0,0-.07.08,0,0,0,0,0,0,0,.3.3,0,0,0,0,.08l0,0a.43.43,0,0,0,0,.11h0v.1s0,0,0,0a.16.16,0,0,0,0,.09s0,0,0,0l0,0L93,114.67c-7,13.46-13.88,33.66-7.56,53.9A24.26,24.26,0,0,0,90,176.88a10.68,10.68,0,0,0,3,2.5l23.55,13.14a.47.47,0,0,0,.2.06,22.82,22.82,0,0,0,9.92,2.27h.6c17.18-.48,30-12.95,36.07-20.35a.45.45,0,0,0,0-.61Zm-46.95-45.58L90.81,109.9,107,103.75l18.71,11.11Zm-.33.87,1.12,1.15-16.35-9.1-2.13-2.76Zm3.22,3.37.1,0,.36.37c-13.2,24.92-14.2,49.77-2.48,61.86l.26.26-17.08-9.53a9.86,9.86,0,0,1-2.77-2.29,23.5,23.5,0,0,1-4.38-8.06c-6.19-19.82.56-39.68,7.43-53ZM112.8,189a24.29,24.29,0,0,1-1.9-1.76c-11.5-11.86-10.38-36.41,2.78-61.09a.44.44,0,0,0-.07-.53L110.13,122l16.05-6.39-2.29,20.2-3.58-3.26a.48.48,0,0,0-.4-.1.43.43,0,0,0-.33.25c-3.06,6.68-12.27,29.47-1.93,42.09a19.59,19.59,0,0,0,2.65,2.66,16.54,16.54,0,0,0,4.6,2.66c5.6,2.09,12.24.93,19.75-3.47A60,60,0,0,0,156,167.9l6.34,6.34c-6,7.2-18.5,19.23-35.18,19.69A21.52,21.52,0,0,1,112.8,189Zm32.43-13.7c-9.56,5.94-16.16,5.46-20,4a15.57,15.57,0,0,1-4.34-2.51,18,18,0,0,1-5.46-7.62,43.14,43.14,0,0,0,6.29-2.14,44.19,44.19,0,0,0,15.23-10.88l18.32,11.2A59.94,59.94,0,0,1,145.23,175.28Z"/><path class="cls-1" d="M176.12,155.74c6-10.07,12.66-25.93,10.56-44.44a61.14,61.14,0,0,0-1.07-6.43,26.87,26.87,0,0,0-3.39-8.53,21.38,21.38,0,0,0-6.87-7l-.09-.07-20-11.38a26.54,26.54,0,0,0-5.57-2c-19.28-4.6-38.16,14.32-43.51,20.26h0v0l0,.06v0l0,.06v0a.13.13,0,0,1,0,.06v0a.58.58,0,0,0,0,.19l0,0,0,0,0,0,0,0,6.58,6.68.11.08,20,10.84a.54.54,0,0,0,.22,0,.33.33,0,0,0,.17,0h0l.06,0,.06,0h0c2-2.17,10.95-11,21-12.77.35,1.59.63,3.19.83,4.78,1.18,9.74-.62,19.7-5.35,29.61l-4.53-2.48a.5.5,0,0,0-.43,0,.47.47,0,0,0-.24.35l-2.87,21.75a.45.45,0,0,0,.23.46l19.78,11.17h0l.1,0h.29l17.39-7a.45.45,0,0,0,.27-.33.46.46,0,0,0-.12-.42Zm-33.45-.42,2.74-20.78,18.78,10.26L161.59,166Zm19.94-53.4a16.84,16.84,0,0,1,4.24,2,17.75,17.75,0,0,1,3.82,3.26c10.69,12.19.51,36-1.84,41l-3.82-4-.06-.06h0l0,0-14.3-7.81c4.83-10.07,6.66-20.22,5.45-30.15a47,47,0,0,0-.83-4.81A17.54,17.54,0,0,1,162.61,101.92Zm-.1,64.11L165,145.55l3.61,3.74a.46.46,0,0,0,.4.14.47.47,0,0,0,.34-.26c1.43-3,13.64-29.31,2-42.62a18.51,18.51,0,0,0-4-3.42,17.71,17.71,0,0,0-4.46-2.08c-5.59-1.7-11.89-.54-18.72,3.44A54.36,54.36,0,0,0,133,113.31l-5.89-6c15.11-17.22,35-24.54,47.36-17.4a20.36,20.36,0,0,1,7,7,26.07,26.07,0,0,1,3.27,8.24,62.26,62.26,0,0,1,1.05,6.35c2.09,18.4-4.62,34.17-10.62,44.16a.45.45,0,0,0,.07.55l3.33,3.45ZM126.38,106.7,107.19,96.32c5.36-5.85,23.77-24,42.25-19.57a25.17,25.17,0,0,1,5.35,1.93l14.33,8.13C156.53,84,139.63,91.58,126.38,106.7Zm-.17,1,4.36,4.48-17.25-9.37-4.39-4.46Z"/></svg>