<svg id="Layer_1" data-name="Layer 1" xmlns="http://www.w3.org/2000/svg" viewBox="0 0 270 270"><defs><style>.cls-1{fill:#efe8f2;}</style></defs><path class="cls-1" d="M174.8,106.82l30.3-47.07c1.59-2.38.5-5.76-1.94-7.19a5.24,5.24,0,0,0-7.29,1.51l-28.34,48.28a7.94,7.94,0,0,0,1,1.47l-19.75,20.5a453.35,453.35,0,0,0-77.68,4.14c-4.16.33-10.54,1-11,4.57a3.29,3.29,0,0,0-.05.54l0,14.85a2.65,2.65,0,0,0,2.53,2.71l0,0c.59,19.31,8.4,37.43,22,49.58a5.9,5.9,0,0,1,1.87,4.41v5.68a3.07,3.07,0,0,0,2.85,3.23,254.07,254.07,0,0,0,91.11.23,3.1,3.1,0,0,0,2.91-3.22c.16-2.9-.76-8.07,1.91-10.08,13.59-12.07,21.55-30.11,22.2-49.41.07-.2.26-.15.42-.18a2.55,2.55,0,0,0,2.17-2.61L210,134a2.79,2.79,0,0,0-.48-1.58c-1.09-1.91-4.41-3.26-8.44-3.27-11.33-1.7-22.87-3-34.3-3.82h0l6.64-18.59A7.8,7.8,0,0,0,174.8,106.82ZM169,104.55a1.56,1.56,0,0,0,.35.33l-27,31.77c-1.42,0-2.85,0-4.27,0Zm2,1.64.13.06-12.74,29.92-3.26.13C156.18,134.33,171,106.2,171,106.19Zm-16.84,30.15h0c-1.77.07-3.55.14-5.32.18l19.81-27.64Zm-6.39.21h-.05l-4.31.08L170,105.43l.06.06Zm-76.58-7.26A451.13,451.13,0,0,1,148,125.14l-.34.35-10.78,11.18A478.28,478.28,0,0,1,62.76,131C64.74,129.68,68.65,129.66,71.19,129.29Zm111.64,73.78c-.67,1.72-.32,6.3-.41,8a2.23,2.23,0,0,1-2.17,2.39,253.36,253.36,0,0,1-90.94-.24,2.25,2.25,0,0,1-2.08-2.39c-.09-1.81.33-6.56-.45-8.21l.18,0h0a349.1,349.1,0,0,0,95.72.3h0l.21,0Zm1.78-2.71A6.36,6.36,0,0,0,183.3,202a348,348,0,0,1-96.65-.27l-.39-.15c-13.51-12.78-22.52-30.28-22.81-50.31a478.35,478.35,0,0,0,77.46,5.61h.28a477.62,477.62,0,0,0,65.29-5.18C205.92,170.74,198,188.48,184.61,200.36Zm23.87-67.83.27.21a1.64,1.64,0,0,1,.16.29h0a1.79,1.79,0,0,1,.23.72c.05.3,0,14.76,0,15a1.69,1.69,0,0,1-1.57,1.79,1,1,0,0,0-.58.21,475.47,475.47,0,0,1-144.09-.43h0a1,1,0,0,0-.48-.14,1.7,1.7,0,0,1-1.56-1.8l0-14.85c0-.06,0-.34,0-.41a1.66,1.66,0,0,1,1.45-1.38,477.31,477.31,0,0,0,145.25.37A1.9,1.9,0,0,1,208.48,132.53Zm-7.4-2.6a12.86,12.86,0,0,1,6.14,1.42c-14.62,2.21-29.42,3.73-44.24,4.57l3.24-9.08.27-.74h0C178,126.94,189.67,128.22,201.08,129.93Zm-39,6-2.74.15,12.61-29.61a2.32,2.32,0,0,0,.59.15Zm8.37-31.46,0,0a7.88,7.88,0,0,1-1-.94l-.29-.34a7,7,0,0,1-.59-.85L196.6,54.5a4.59,4.59,0,0,1,7.79,4.8l-30,46.66c-.2,0-.42,0-.65-.07l-.54-.12A7.06,7.06,0,0,1,170.44,104.51Z"/></svg>