<svg id="Layer_1" data-name="Layer 1" xmlns="http://www.w3.org/2000/svg" viewBox="0 0 270 270"><defs><style>.cls-1{fill:#efe8f2;}</style></defs><line class="cls-1" x1="143" y1="140.73" x2="143" y2="140.73"/><path class="cls-1" d="M143,140.56h0m-5.18,23.87c-.06.19-.17.34-.4.33C137.68,164.77,137.79,164.62,137.85,164.43ZM143,140.56c.08-.06,1.44-61,1.46-61.09-.37-12.58-18.52-12.64-19-.08,0,.15.77,61,.91,61.12a.4.4,0,0,0,0,.15s5,11.12,5,11.14a31.45,31.45,0,0,0-.07,12.6h0c-.75,4.9-.57,11.58-.53,17.46,0,4.9-.24,10.34.4,14.79a3.34,3.34,0,0,0,3.32,3.35h0a3.74,3.74,0,0,0,3.34-3.27c.6-4.28.45-9.49.56-14.18.06-7,.45-13.07-.54-18.45a27,27,0,0,0,0-12.28s.14-.29.37-.78l-.35.76.35-.76,3.16-6.88,1.57-3.43,0-.17h0m-.81-.16-4.95,10.8-5.18,0s-4.86-10.87-4.88-10.88l-.86-60.91c.43-11.45,17-11.38,17.3.06l-1.43,61m-5,12a27.07,27.07,0,0,1-.08,11.51l-5,0a31.42,31.42,0,0,1,0-11.52Zm-5.75,11.77a.4.4,0,0,1,.36-.23A.4.4,0,0,0,131.45,164.18Zm.13.48-.06,0Zm3,34.5a2.52,2.52,0,0,1-2.49-2.57c-.63-4.46-.35-9.84-.39-14.73,0-5.74-.21-12.28.48-17.07l5.09,0c.64,5.18.51,11,.37,17.72-.11,4.63,0,9.87-.55,14.07A2.9,2.9,0,0,1,134.58,199.16Z"/><path class="cls-1" d="M139.63,140.32a.43.43,0,0,0-.42-.43l-9.56,0a.42.42,0,0,0-.43.42.41.41,0,0,0,.42.42l9.56.05A.43.43,0,0,0,139.63,140.32Z"/><path class="cls-1" d="M138.44,142.27l-3.25,7.09a.41.41,0,0,0,.2.55.42.42,0,0,0,.56-.2l3.25-7.09a.42.42,0,0,0-.21-.56A.41.41,0,0,0,138.44,142.27Z"/><path class="cls-1" d="M136.67,142.05a.41.41,0,0,0-.55.21l-3.25,7.09a.41.41,0,0,0,.2.55.42.42,0,0,0,.56-.2l3.25-7.09A.42.42,0,0,0,136.67,142.05Z"/><path class="cls-1" d="M134.35,142a.42.42,0,0,0-.56.21L131.62,147a.43.43,0,0,0,.21.56.42.42,0,0,0,.56-.21l2.17-4.73A.42.42,0,0,0,134.35,142Z"/><path class="cls-1" d="M132,142a.42.42,0,0,0-.56.21l-1,2.24a.41.41,0,0,0,.2.55.42.42,0,0,0,.56-.2l1-2.24A.43.43,0,0,0,132,142Z"/></svg>