<svg id="Layer_1" data-name="Layer 1" xmlns="http://www.w3.org/2000/svg" viewBox="0 0 270 270"><defs><style>.cls-1{fill:#efe8f2;}</style></defs><g id="Internet_Browser" data-name="Internet Browser"><path class="cls-1" d="M139.18,98.66l-24.41,0a.42.42,0,0,0,0,.83l24.41,0A.42.42,0,0,0,139.18,98.66Z"/><path class="cls-1" d="M180.16,96.11h-6a2.11,2.11,0,0,0-1.45.6c-.73.63-.59,1.83-.59,2.69a2,2,0,0,0,2,2c.44,0,6.5.12,6.71-.15a2,2,0,0,0,1.31-1.9V98.15A2.06,2.06,0,0,0,180.16,96.11Zm1.21,2V99.4a1.21,1.21,0,0,1-1.21,1.21h-6a1.19,1.19,0,0,1-.85-.35c-.53-.43-.32-1.52-.36-2.1A1.21,1.21,0,0,1,174.19,97l6,0A1.21,1.21,0,0,1,181.37,98.15Z"/><path class="cls-1" d="M192.76,96.09h-6a2,2,0,0,0-2,2.05c0,.86-.14,2.06.6,2.68a2,2,0,0,0,1.45.6h6a2,2,0,0,0,2-2c0-.86.14-2.05-.6-2.68A2,2,0,0,0,192.76,96.09Zm1.21,2v1.25a1.22,1.22,0,0,1-1.21,1.21h-6a1.23,1.23,0,0,1-.85-.35c-.53-.43-.32-1.53-.36-2.1a1.22,1.22,0,0,1,1.21-1.22h6A1.21,1.21,0,0,1,194,98.13Z"/><path class="cls-1" d="M199,91.46a3,3,0,0,0-2.15-.88l-123.32.21A3.5,3.5,0,0,0,70,94.3l.14,81.58a3.56,3.56,0,0,0,3.55,3.54l123.24-.21a3,3,0,0,0,2.17-.9,3.09,3.09,0,0,0,.9-2.18l-.14-82.52A3,3,0,0,0,199,91.46ZM70.85,106.57l13.39,0h1.07v.5l0,9.13-14.46,0Zm0,10.46,14.46,0,0,9.58-14.46,0Zm0,10.41,14.46,0V137L70.9,137Zm0,16.25v-5.84l14.46,0v9.58l-14.46,0Zm0,13.54,0-9,14.46,0v9.58l-14.46,0Zm0,4.07v-2.62l14.46,0v9.59l-14.46,0Zm13.73,17.27-11,0A2.71,2.71,0,0,1,71,175.88v-6.79l14.46,0,0,9.5Zm114.49-2.44a2.25,2.25,0,0,1-2.24,2.25l-109.11.19H86.27v-4.29l-.12-67.74,111.5-.19h1.41ZM199,93.61l0,11.9-112.17.2h-.19l-15.84,0,0-11.44a2.68,2.68,0,0,1,1.71-2.49c1.16-.55,123.1-.19,124.28-.39A2.22,2.22,0,0,1,199,93.61Z"/><path class="cls-1" d="M77.57,96.8a2.47,2.47,0,0,0,0,4.94A2.47,2.47,0,0,0,77.57,96.8Zm1.65,2.47a1.64,1.64,0,0,1-3.28,0A1.64,1.64,0,0,1,79.22,99.27Z"/><path class="cls-1" d="M84.69,96.79a2.47,2.47,0,0,0,0,4.94A2.47,2.47,0,0,0,84.69,96.79Zm1.65,2.47a1.64,1.64,0,0,1-3.28,0A1.64,1.64,0,0,1,86.34,99.26Z"/><path class="cls-1" d="M91.82,96.78a2.47,2.47,0,0,0,0,4.94A2.47,2.47,0,0,0,91.82,96.78Zm1.64,2.46a1.64,1.64,0,0,1-3.28,0A1.64,1.64,0,0,1,93.46,99.24Z"/><path class="cls-1" d="M108.63,98.71,98,98.73a.42.42,0,0,0,0,.83l10.62,0A.42.42,0,0,0,108.63,98.71Z"/><path class="cls-1" d="M167.62,95.93h-6a2.09,2.09,0,0,0-1.44.6c-.73.63-.59,1.83-.59,2.69a2,2,0,0,0,2,2c.44,0,6.5.12,6.71-.15a2,2,0,0,0,1.31-1.9V98A2.06,2.06,0,0,0,167.62,95.93Zm1.21,2v1.25a1.2,1.2,0,0,1-1.21,1.21h-6a1.17,1.17,0,0,1-.85-.35c-.53-.43-.32-1.52-.36-2.1a1.22,1.22,0,0,1,1.21-1.22h6A1.22,1.22,0,0,1,168.83,98Z"/><path class="cls-1" d="M174.06,160.93a1,1,0,0,0,1-.09l1.77-1.24a.28.28,0,0,1,.22,0,.29.29,0,0,1,.18.13l3.19,4.85a1.51,1.51,0,0,0,2,.49l2.54-1.39a1.49,1.49,0,0,0,.74-1,1.53,1.53,0,0,0-.25-1.21l-3.34-4.55a.28.28,0,0,1,.08-.41l1.54-1a1,1,0,0,0,0-1.62l-9.14-5a1.23,1.23,0,0,0-1.81,1.17l.75,10.08A1,1,0,0,0,174.06,160.93Zm-.91-11h0Zm.4,0h0a.4.4,0,0,1,.18-.36.38.38,0,0,1,.4,0l9.15,5a.11.11,0,0,1,.05.09.12.12,0,0,1-.05.1c-.54.42-2,1-2,1.71a1.12,1.12,0,0,0,.2.87l3.33,4.56a.67.67,0,0,1-.21,1L182,164.29a.65.65,0,0,1-.87-.22L178,159.22a1.13,1.13,0,0,0-1.58-.3l-1.77,1.24a.19.19,0,0,1-.3-.14Z"/></g></svg>