<svg id="Layer_1" data-name="Layer 1" xmlns="http://www.w3.org/2000/svg" viewBox="0 0 270 270"><defs><style>.cls-1{fill:#efe8f2;}</style></defs><g id="Frosting_Squirt" data-name="Frosting Squirt"><path class="cls-1" d="M39.71,132.87a14.64,14.64,0,0,1-.17-3,.5.5,0,0,0-.45-.52h0a.45.45,0,0,0-.35.13.51.51,0,0,0-.17.34,15.9,15.9,0,0,0,.19,3.24,15.71,15.71,0,0,0,8.64,11.6.53.53,0,0,0,.18.05h.1a.47.47,0,0,0,.38-.27.46.46,0,0,0,0-.38.48.48,0,0,0-.25-.29A14.69,14.69,0,0,1,39.71,132.87Z"/><path class="cls-1" d="M61,110.33a16,16,0,0,0-3.25-.12.51.51,0,0,0-.34.17.48.48,0,0,0-.12.36.49.49,0,0,0,.53.46,14.69,14.69,0,0,1,14.07,8,.48.48,0,0,0,.41.27h.1l.15,0a.48.48,0,0,0,.25-.29.5.5,0,0,0,0-.38A15.71,15.71,0,0,0,61,110.33Z"/><path class="cls-1" d="M256,180.75a.55.55,0,0,0-.76-.08c-1.15.93-5.32,3.86-5.36,3.89a13.83,13.83,0,0,1-18.8-2.42,23.22,23.22,0,0,0-32.87-3.06l-4.64,3.9a15.06,15.06,0,0,1-21.19-1.85L165,172.38a16.3,16.3,0,0,0-24.69-.33l-10.43,11.76a9.75,9.75,0,0,1-13.63.9l-2.46-2.12,1.08-1.1a.49.49,0,0,0,0-.64s-15.51-21.07-15.59-21.11L76.59,114.82A18,18,0,0,0,59,105l-14.79,1.19a.46.46,0,0,0-.31.15l0,0-3.54-3.47a.51.51,0,0,0-.36-.14.46.46,0,0,0-.34.15l-.79.8L29.29,82.11a.5.5,0,0,0-.95.14l-.84,6.22a1.53,1.53,0,0,1-.77,1.12,1.48,1.48,0,0,1-1.36,0l-4.58-2.16a.49.49,0,0,0-.57.11.5.5,0,0,0-.08.58l3,5.5a1.07,1.07,0,0,1-.08,1.15,1,1,0,0,1-1.08.41l-5.13-1a.48.48,0,0,0-.52.23.51.51,0,0,0,0,.58l4.52,5.39a1.89,1.89,0,0,1-1.19,3.08h-.07l-5.23.54h0a.49.49,0,0,0-.08,1L32,110.73l-.47.48a.49.49,0,0,0,0,.7L35,115.38l-.21.22a.45.45,0,0,0-.14.33L34,130.81a18,18,0,0,0,10.15,17.08L89.7,170h0a.58.58,0,0,0,.18,0,.27.27,0,0,0,.09,0l21,14.78h0a.5.5,0,0,0,.26.08h.09a.54.54,0,0,0,.29-.15l1.43-1.46,2.51,2.17a10.76,10.76,0,0,0,15-1l10.44-11.77a15.31,15.31,0,0,1,23.18.32l7.36,8.75a16.06,16.06,0,0,0,22.59,2l4.64-3.9a22.22,22.22,0,0,1,31.46,2.93,14.82,14.82,0,0,0,20.15,2.6s3.78-2.55,5.37-3.9C256.12,181.19,256.09,180.91,256,180.75Zm-160.13-18-19.13-26.5a.46.46,0,0,0-.32-.2.5.5,0,0,0-.48.78s19.15,26.56,19.26,26.61l-2.3,2.35c-.5-1-24.33-16.79-24.33-16.79a.51.51,0,0,0-.69.13.5.5,0,0,0,.13.69L92,166.37a.42.42,0,0,0,.22.08l-2.45,2.49L44.58,147A17,17,0,0,1,35,130.86l.68-14.7,8.84-9L59.11,106a17,17,0,0,1,16.59,9.3l22.71,44.89ZM99.06,161l14.79,20.15-2.62,2.67L90.79,169.4ZM35.61,114.54l-3.06-3L40,103.94l3.05,3ZM22.1,102.67a2.84,2.84,0,0,0-.46-2.94L18,95.43l3.73.76a2.07,2.07,0,0,0,2.23-3L21.74,89l3.2,1.51a2.5,2.5,0,0,0,2.26-.06,2.45,2.45,0,0,0,1.28-1.86l.61-4.48,8.8,19.82-2.35,2.39L27.3,98.25a.52.52,0,0,0-.35-.14.54.54,0,0,0-.35.15.49.49,0,0,0-.15.35.54.54,0,0,0,.15.35L34.85,107l-2.66,2.71-15.36-5,2.89-.3A2.84,2.84,0,0,0,22.1,102.67Z"/></g></svg>