<svg id="Layer_1" data-name="Layer 1" xmlns="http://www.w3.org/2000/svg" viewBox="0 0 270 270"><defs><style>.cls-1{fill:#efe8f2;}</style></defs><path class="cls-1" d="M224.09,75.3C213.85,61,182.86,59,172.43,74.13c-4.18,6.35-4.47,15.79-4.84,27.74-.11,2.51,0,8.69-.71,9.41-.73-.13-2.71-4-4.31-7.18-2.94-5.79-6.6-13-10-14.3a10.79,10.79,0,0,0-4.18-.66c-8.46.42-5.79,8-3,18.75,2.2,7.51,4.21,17,5.72,25.1,1.52,7.33,1.47,15.94-.14,25.58-10-13.91-14.2-24.57-16.29-37.84-1.43-6.59-2.6-14.91-3.31-21.1-1.54-11.56-1.94-19.95-10.28-17.06a11.47,11.47,0,0,0-3.84,2.31c-2.83,2.64-3.54,11.11-4.1,17.91-.3,3.67-.68,8.23-1.33,8.71-1.08-.45-3.37-6.47-4.5-8.88-5.1-11.49-9.12-20.56-15.71-25.08-9.65-6.62-25-3.37-35.22,3.26C33,96.35,39.72,115.65,53.86,135.21c8.92,13.28,19.55,23.68,28.1,32,9.52,9.31,17.05,16.66,17.16,23.12a28.32,28.32,0,0,0,.36,3.65c.55,3.67,2.23,9.26,6.12,11.08,7.06,3.81,15.33-1.74,22.79-5.11,6.68-3.32,13.79-6.39,20.06-10.55,11.42,4.09,23.57,5.18,35.56,5.74,8.42.34,17,2.13,22-3.75,4.11-4.2.66-14.89.36-15.25-2.21-5.72,1.77-14.9,6.81-26.51C220.08,134,237.41,91.88,224.09,75.3Zm-118,128.93-.12-.06c-4.42-2-5.78-10.14-5.87-13.82-.13-6.88-7.4-14-17.47-23.83-8.51-8.32-19.11-18.67-28-31.87-7.49-11.14-15.22-22.67-12-35.21C44.88,89,57.93,79,68.83,76.24c24.07-5.87,29.44,8.27,38.48,28.93,2.19,5,3.34,7.65,4.73,7.31s1.57-3.38,2.08-9.61c.55-6.63,1.23-14.88,3.79-17.26a10.52,10.52,0,0,1,3.5-2.09c7.3-2.69,7.42,5.35,8.93,16.24.71,6.2,1.89,14.56,3.32,21.17,2.74,18,10.55,32.66,27.75,52.28a3.81,3.81,0,0,1-.28,5.38A106.18,106.18,0,0,1,135,195.66C126.2,199.51,112.45,208.56,106.12,204.23Zm99.29-27.7c0,.08,3,8,.71,12.89a7.22,7.22,0,0,1-1,1.46c-3.36,4.6-11.55,4-21,3.29-11.62-.56-23.43-1.56-34.54-5.44a107.88,107.88,0,0,0,12.26-9.39,4.83,4.83,0,0,0,.37-6.8q-5.82-6.54-10.39-12.81c3.08-16,.54-27-2.6-41.08-1-4.16-2-7.81-2.85-11-2.59-10.11-5.34-17.28,2-17.47a9.77,9.77,0,0,1,3.79.59c3.09,1.17,6.81,8.48,9.52,13.82,2.79,5.5,4.08,7.92,5.34,7.71s1.42-2.94,1.52-8.16c.3-11.53.46-23.28,4.73-29.42,10-14.58,40.17-12.57,50,1.21,12.94,16.17-4.28,58-11.06,73.36C206.9,161.55,203,170.42,205.41,176.53Z"/><path class="cls-1" d="M199.47,123.15,196,127.61l-2.44-1.92,3.49-4.45a.5.5,0,0,0-.79-.62l-3.49,4.46-2.44-1.92,3.49-4.45a.5.5,0,0,0-.79-.62l-3.49,4.45-4.45-3.48a.5.5,0,0,0-.62.79l4.45,3.49L187,125.78l-4.45-3.49a.5.5,0,0,0-.62.79l4.45,3.49L184.46,129,180,125.52c-.5-.41-1.13.4-.61.79l4.45,3.49-3.49,4.45a.5.5,0,1,0,.79.62l3.49-4.45,2.44,1.91-3.49,4.45a.5.5,0,0,0,.79.62l3.49-4.45,2.44,1.91-3.48,4.45a.5.5,0,0,0,.79.62l3.48-4.45,4.46,3.49c.5.41,1.13-.4.62-.79l-4.46-3.49,1.91-2.44,4.46,3.49a.51.51,0,0,0,.62-.8l-4.46-3.48,1.92-2.44,4.45,3.48a.5.5,0,0,0,.62-.79l-4.46-3.49,3.49-4.45C200.67,123.27,199.86,122.64,199.47,123.15Zm-9.78.8,2.44,1.92-1.91,2.44-2.44-1.91Zm-4.44,5.68,1.91-2.44,2.44,1.91-1.91,2.44Zm5.67,4.44-2.44-1.91,1.91-2.44,2.44,1.91Zm2.53-3.23L191,128.93l1.91-2.45,2.45,1.92Z"/><path class="cls-1" d="M108.6,140.48l.44-.77.2-.34h0l2.33-4.07a.51.51,0,0,0-.19-.69.51.51,0,0,0-.69.19l-1.83,3.2v0l-1.14,2-2.87-1.64,1.07-1.87h0l1.9-3.32a.5.5,0,0,0-.88-.49s-1.17,2-2,3.56l-.93,1.62-2.88-1.64,3-5.19a.5.5,0,0,0-.87-.5l-1.62,2.83h0l-1.35,2.36-5.19-3c-.56-.34-1.06.55-.49.87l5.18,3-1.19,2.09-.45.79-5.19-3a.5.5,0,0,0-.5.87l5.19,3-.22.39L96,143.2l-5.19-3a.51.51,0,0,0-.5.88l5.19,3-1.29,2.25h0l-1.68,2.94a.51.51,0,0,0,.88.5l3-5.19,2.88,1.64-.24.42-1.19,2.08h0l-1.54,2.69a.51.51,0,0,0,.88.5s1.11-2,2-3.47l.11-.2c.31-.53.57-1,.72-1.26l.15-.26,2.87,1.64-1.42,2.5h0L100,153.54a.51.51,0,0,0,.88.5l3-5.19,5.19,3a.5.5,0,0,0,.5-.87l-5.19-3,.86-1.51.78-1.36,5.19,3a.5.5,0,0,0,.5-.87l-5.19-3,.94-1.65.7-1.22,5.19,3a.5.5,0,0,0,.5-.87Zm-3,3.25-2.87-1.64,1.64-2.88,2.87,1.64Zm-2.1-5-1.64,2.88L99,140l.91-1.59.74-1.29Zm-6.66,5,1.64-2.88,2.88,1.64-1,1.78-.62,1.1Zm3.75,2.14,1.64-2.88,2.87,1.64-1.64,2.88Z"/></svg>