<svg id="Layer_1" data-name="Layer 1" xmlns="http://www.w3.org/2000/svg" viewBox="0 0 270 270"><defs><style>.cls-1{fill:#efe8f2;}</style></defs><path class="cls-1" d="M199.71,230.88c-1.5-10.53-2.81-21.23-3.89-31.81-2.36-22.94-3.75-46.28-4.15-69.4a11.28,11.28,0,0,0,7.85-2.67c3.84-3.46,4.59-9.81,1.78-15.11l-8-12.5c-3.7-6.7-3.44-14.32.64-18.51a11.29,11.29,0,0,1,5.49-3l1.38.4c.28.29.55.59.83.91A28,28,0,0,1,207.08,89a26.09,26.09,0,0,0,3,6.28l.5.75a8.4,8.4,0,0,0,8.86,4.19A8.3,8.3,0,0,0,225.84,94a.74.74,0,0,0-.33-.82L221.84,91a.8.8,0,0,0-.58-.08.75.75,0,0,0-.55.71c0,.3-.11,3-1.57,3.81-1.14.63-3.41.2-5.36-1.84a8.3,8.3,0,0,1-2-3.93c-.95-4.12-3.45-11.35-9.55-13.53a9.13,9.13,0,0,0-3.21-.53c-3.65.09-6.62,1.12-8.6,3C184.21,84.45,186.19,98,195,110c.39.72.81,1.41,1.18,2a18,18,0,0,1,1.76,3.42,8.57,8.57,0,0,1,.05,5.74c-.77,2.13-4.41,4.44-9.66,4.53a67.26,67.26,0,0,1-19.88-30.46,64.67,64.67,0,0,1-2.77-16.17A3.37,3.37,0,0,0,163.21,76c.14-2.19,2.95-49.73-17.72-57.5a17.1,17.1,0,0,0-6.11-1.06,13.8,13.8,0,0,0-4.32.67c-8,2.6-13.35,12.58-16,29.68a166.41,166.41,0,0,0-1.6,28.05,3.47,3.47,0,0,0-2.18,3.44c.42,7.27-.21,21.45-9.16,34.79a54.34,54.34,0,0,1-16.69,16c-7.35,0-16.35,1-20.77,5.73a.71.71,0,0,0-.31.33v0A9.77,9.77,0,0,0,67,138.19l0,.05a4.32,4.32,0,0,0-.3.7h0c-1.59,4.28.49,9.37,3.1,12.29A10.18,10.18,0,0,0,74,154.1a10.41,10.41,0,0,1,3.75,2.43,8,8,0,0,1,1.34,1.82c-1.59,5.74-6.26,10.36-11.37,11.23-6.71,1.16-13.61-3.26-16.05-10.28a6.77,6.77,0,0,0-1.74-2.8,6.87,6.87,0,0,0-2-1.29.87.87,0,0,0-.28-.05,4.16,4.16,0,0,0-1.29.19,3.69,3.69,0,0,0-1.12.82,4.53,4.53,0,0,0-.94,3.86.75.75,0,0,0,.54.57,3.46,3.46,0,0,1,1.68,1,3.54,3.54,0,0,1,.71,1.35,38.44,38.44,0,0,0,5.1,8.09,12.76,12.76,0,0,0,3.52,3,12.2,12.2,0,0,0,5.61,1.62,23.75,23.75,0,0,0,16.76-6,9.92,9.92,0,0,0,1-1,12.49,12.49,0,0,0,4.41-7.77c.62-4.93-2.06-9.88-6.81-12.61a25.52,25.52,0,0,1-5-4.16v0l-.07-.82a4.4,4.4,0,0,1,.24-.88C73.9,137.49,84.11,137,88.34,137c-1.31,14.23-2.32,28.6-3,42.81-.9,18.17-1.32,36.6-1.24,54.78a5.35,5.35,0,0,0,2.7,4.61,101.39,101.39,0,0,0,24.22,10c36.65,9.8,69.63-3.89,86-12.92A5.3,5.3,0,0,0,199.71,230.88ZM89.89,136.51a.59.59,0,0,0,0-.23.28.28,0,0,0,0-.13c.16-1.65.31-3.29.47-4.94a55.66,55.66,0,0,0,17-16.34c9.2-13.7,9.85-28.25,9.41-35.7a2,2,0,0,1,1.83-2.11l3.41-.3a.74.74,0,0,0,.25,0,.67.67,0,0,0,.37-.11l17.07-1.5a5.46,5.46,0,0,1,1.07,0l21.65,2.14a1.89,1.89,0,0,1,1.72,1.81A66.19,66.19,0,0,0,167,95.7a69.63,69.63,0,0,0,23.14,33.54c.39,23.29,1.79,46.84,4.17,70,1.08,10.6,2.4,21.33,3.89,31.87a3.79,3.79,0,0,1-1.93,3.89c-16.2,8.92-48.77,22.44-84.92,12.78a99.54,99.54,0,0,1-23.86-9.86,3.87,3.87,0,0,1-1.94-3.32c-.08-18.15.34-36.56,1.24-54.7C87.52,165.49,88.56,150.93,89.89,136.51Zm-19.31,5.37c0,.15-.1.29-.14.44a6.33,6.33,0,0,1-1.1-4.32,5.31,5.31,0,0,1,.31-1.06c4.09-4.51,13.25-5.37,19.21-5.42-.13,1.33-.26,2.66-.38,4C83.33,135.47,72.81,136.13,70.58,141.88Zm7.49,25.76a.71.71,0,0,0-.19.23,8.25,8.25,0,0,1-.72.73,22.18,22.18,0,0,1-15.71,5.59,11,11,0,0,1-8.07-4.1,36.37,36.37,0,0,1-4.82-7.63,4.86,4.86,0,0,0-1-1.8,5,5,0,0,0-1.24-1,4.37,4.37,0,0,0-.69-.33,2.46,2.46,0,0,1,1.17-2.58,2.62,2.62,0,0,1,.61-.08,5.2,5.2,0,0,1,1.46,1,5.15,5.15,0,0,1,1.32,2.18c2.68,7.69,10.31,12.53,17.73,11.26,5-.86,9.75-5,11.92-10.44a8.5,8.5,0,0,1-1.77,7Zm3.44-5.08a9.61,9.61,0,0,0-2.82-7.16,11.39,11.39,0,0,0-4.14-2.67,8.8,8.8,0,0,1-3.66-2.49c-2.21-2.47-4-6.64-3-10.23.91,4.8,6.76,8.74,8.09,9.57,4.25,2.44,6.64,6.82,6.09,11.14a9.25,9.25,0,0,1-.6,2.33Zm58.1-88.85L123,75.17C122.83,33,130.35,21.84,136.72,20l.52-.14a11.7,11.7,0,0,1,4.3.49c17.39,5.48,15.71,52.91,15.63,54.93v0L141,73.72A6.77,6.77,0,0,0,139.61,73.71Zm19,1.76s0-.1,0-.15a165.71,165.71,0,0,0-1.38-27.19C155,32,150.18,22.27,143,19.3a15.2,15.2,0,0,1,1.92.57c10.15,3.82,14.16,18.73,15.75,30.56a148.89,148.89,0,0,1,1,25.34Zm-37.1-.17-2.56.22c-.18-6.91-.45-42.38,12-53.37C124.56,29.59,121.39,47.4,121.55,75.3Zm77.85,46.4a10.13,10.13,0,0,0-.08-6.82,18.67,18.67,0,0,0-1.86-3.63l0-.06c-.37-.62-.75-1.25-1.16-2-7.25-9.9-11-23.65-4.81-29.54a9.55,9.55,0,0,1,4.94-2.32,12.36,12.36,0,0,0-3.52,2.5c-4.53,4.66-4.87,13-.84,20.32l8,12.48c2.47,4.67,1.84,10.24-1.5,13.25a10,10,0,0,1-7.32,2.26l-1.25-1C194.55,126.64,198.39,124.49,199.4,121.7ZM210.32,90a9.83,9.83,0,0,0,2.38,4.64c2.21,2.3,5.22,3.19,7.17,2.11a5.11,5.11,0,0,0,2.22-3.84l2.15,1.31a6.75,6.75,0,0,1-5.05,4.56,6.93,6.93,0,0,1-7.29-3.5l-.52-.79a25.06,25.06,0,0,1-2.87-5.91,29.57,29.57,0,0,0-5.73-10.37l-.32-.36C207.35,80,209.48,86.32,210.32,90Z"/><path class="cls-1" d="M112.87,152.62a74.05,74.05,0,0,0,1.33,15.58.75.75,0,0,0,.37.51l.15.06a99.51,99.51,0,0,0,58.51-.09.77.77,0,0,0,.45-.36.75.75,0,0,0,0-.57c-.23-.73-.46-1.49-.67-2.25a91.55,91.55,0,0,1-3.31-28.36.73.73,0,0,0-.25-.59.71.71,0,0,0-.61-.18,183.48,183.48,0,0,1-47.68,1.24c-1.86-.2-3.76-.43-5.64-.69a.75.75,0,0,0-.84.57A74.81,74.81,0,0,0,112.87,152.62ZM116,138.5c1.66.22,3.34.42,5,.6A184.82,184.82,0,0,0,168.22,138a93.12,93.12,0,0,0,3.4,27.92c.15.53.3,1,.46,1.57a97.94,97.94,0,0,1-56.49,0,72.56,72.56,0,0,1,.45-29Z"/><path class="cls-1" d="M129.28,79.56l-7.46.65A.75.75,0,1,0,122,81.7l7.46-.65a.74.74,0,0,0,.51-.27.81.81,0,0,0,.17-.54A.75.75,0,0,0,129.28,79.56Z"/><path class="cls-1" d="M148.35,80.77a.88.88,0,0,0,.3.1l7.45.74a.75.75,0,0,0,.82-.68.74.74,0,0,0-.17-.55.69.69,0,0,0-.5-.26l-7.45-.74a.75.75,0,0,0-.45,1.39Z"/><path class="cls-1" d="M143.34,79.06a.7.7,0,0,0-.5-.27l-1.69-.17a6.53,6.53,0,0,0-1.17,0l-4.74.42a.76.76,0,0,0-.68.81.73.73,0,0,0,.38.59.72.72,0,0,0,.43.09l4.74-.41a4.51,4.51,0,0,1,.9,0l1.68.17a.75.75,0,0,0,.82-.67A.73.73,0,0,0,143.34,79.06Z"/></svg>