<svg id="Layer_1" data-name="Layer 1" xmlns="http://www.w3.org/2000/svg" viewBox="0 0 270 270"><defs><style>.cls-1{fill:#efe8f2;}</style></defs><path class="cls-1" d="M110.61,113.13a.58.58,0,0,0,.26.06.63.63,0,0,0,.58-.39l.37-.85a.64.64,0,0,0,0-.49.62.62,0,0,0-.34-.35.63.63,0,0,0-.83.33l-.38.86a.62.62,0,0,0,0,.48A.6.6,0,0,0,110.61,113.13Z"/><path class="cls-1" d="M226.48,140.27l-37.87-12.08a63.1,63.1,0,0,0-18.8-17.62,13.9,13.9,0,0,0-6.5-2,34.18,34.18,0,0,0-4.75,0,.63.63,0,0,0-.47-.59c-2.1-.56-4.24-1-6.36-1.4a72.94,72.94,0,0,0-14.85-1,4.32,4.32,0,0,0-3.27,1.71,15.72,15.72,0,0,0-3.24,8.5,15.06,15.06,0,0,0,.06,2.51,7.44,7.44,0,0,0-.85-1.33,8.1,8.1,0,0,0-6-2.93c-2,.23-4,.4-6,.52a.67.67,0,0,0-.06-.12l-2.65-4.43a4.17,4.17,0,0,0-3.61-2l-15.13.16A4.63,4.63,0,0,0,93,109.49a59.5,59.5,0,0,0-13.53,19.29,6.29,6.29,0,0,1-2.6,2.94c-2.53,1.52-5.15,3-7.78,4.28a120.82,120.82,0,0,1-25.52,9.39.61.61,0,0,0-.39.29.63.63,0,0,0-.08.48.64.64,0,0,0,.62.49l.15,0a122.62,122.62,0,0,0,25.79-9.49c2.66-1.34,5.31-2.79,7.87-4.32a7.77,7.77,0,0,0,3.11-3.53,58.41,58.41,0,0,1,13.24-18.88,3.35,3.35,0,0,1,2.27-.93l15.16-.16a2.89,2.89,0,0,1,2.48,1.4l2.38,4H116a105.12,105.12,0,0,1-14.63-.4.62.62,0,0,0-.7.57.63.63,0,0,0,.57.69A104.7,104.7,0,0,0,116,116c2.58-.11,5.14-.31,7.6-.6a6.78,6.78,0,0,1,5,2.44,7,7,0,0,1,1.07,6,.76.76,0,0,0,0,.21,6.36,6.36,0,0,0-1.63,1.81,6.44,6.44,0,0,0-.86,2.74c0,.17-.25,3.59,1.28,5.56a4.69,4.69,0,0,1,.45,2.06,4.59,4.59,0,0,1-.28,1.48,6.43,6.43,0,0,0-.32.71l-.11.2a.6.6,0,0,0-.09.43,6.82,6.82,0,0,0-.26,1.81,6.6,6.6,0,0,0,1.08,3.57.85.85,0,0,0,0,.17,4.06,4.06,0,0,1-.16,3.24,4,4,0,0,1-2.44,1.95.66.66,0,0,0-.4.33,2.89,2.89,0,0,0-.2,1.91c.77,3.33-.2,6.59-2.41,8.1a6.21,6.21,0,0,1-3.75,1,.63.63,0,0,0-.58.29,9.52,9.52,0,0,1-7.74,4.47L92.09,165A21.06,21.06,0,0,0,84,166.2L53.78,177.12a.64.64,0,0,0-.38.82.63.63,0,0,0,.6.41l.22,0L84.39,167.4A19.63,19.63,0,0,1,92,166.24l19.22.89a10.81,10.81,0,0,0,8.62-4.76H120a7.16,7.16,0,0,0,4.08-1.2c2.68-1.84,3.83-5.54,2.93-9.44a1.63,1.63,0,0,1,0-.82,5.27,5.27,0,0,0,2.92-2.5,5.19,5.19,0,0,0,.57-2.31l0,0a7.26,7.26,0,0,0,3.5,1.39h0a3.29,3.29,0,0,0-2.31,3.22l0,3.28a3.24,3.24,0,0,0,1.22,2.53,15.84,15.84,0,0,0,1.42,1,20.15,20.15,0,0,0,11.67,3,48.76,48.76,0,0,0,14.61,2.36,48.17,48.17,0,0,0,16.44-2.74,2.12,2.12,0,0,1,1.22,0l36.18,9.47a.41.41,0,0,0,.16,0,.62.62,0,0,0,.61-.47.66.66,0,0,0-.06-.48.65.65,0,0,0-.39-.3l-36.18-9.47a3.45,3.45,0,0,0-2,.08,47.34,47.34,0,0,1-30.35.34.51.51,0,0,0-.22,0,18.88,18.88,0,0,1-11.05-2.76,14.36,14.36,0,0,1-1.32-.93A2,2,0,0,1,133,154l0-3.28a2,2,0,0,1,1.42-2l18.25-5.86a3.27,3.27,0,0,1,1.82,1c1.11,1.32.89,3.69-.52,5.64l-11.12,4a.63.63,0,0,0-.38.81.64.64,0,0,0,.6.42.52.52,0,0,0,.21,0l11.3-4.09a.75.75,0,0,0,.29-.21c1.87-2.45,2.12-5.55.6-7.38a4,4,0,0,0-1.21-1,4.28,4.28,0,0,0,1.76-2.74,4.51,4.51,0,0,0-2.66-4.69,12,12,0,0,0,1.84-3.12,12.24,12.24,0,0,0,.63-6.67h.5c0,3.08.85,12.34,8.41,19.07a25,25,0,0,0,12.86,6h.1a.63.63,0,0,0,.62-.54.61.61,0,0,0-.11-.47.6.6,0,0,0-.42-.25A23.93,23.93,0,0,1,165.55,143c-7.17-6.39-7.93-15.19-8-18.13h3.21a.64.64,0,0,0,.63-.64.63.63,0,0,0-.63-.63H155a3.57,3.57,0,0,0-3,1.75l-4.06,6.91c-3.19,2.76-7.14,2.61-8.84.73-1.35-1.49-1-3.85-.86-4.57a22.73,22.73,0,0,0,1.87-5,23,23,0,0,0,.6-3.7,5.61,5.61,0,0,1,2.36-4.25,31.47,31.47,0,0,1,6.34-3.4,32.21,32.21,0,0,1,13.89-2.21,12.48,12.48,0,0,1,5.9,1.8,62,62,0,0,1,18.56,17.43.55.55,0,0,0,.32.24l38.08,12.15a.58.58,0,0,0,.19,0,.61.61,0,0,0,.6-.44A.63.63,0,0,0,226.48,140.27ZM147.23,111.6a.46.46,0,0,0-.16-.11,13.42,13.42,0,0,0-1.9-.67,14.55,14.55,0,0,0-4.84-.5.65.65,0,0,0-.44.22.59.59,0,0,0-.15.46.64.64,0,0,0,.23.46.6.6,0,0,0,.44.13,13.64,13.64,0,0,1,4.42.45c.31.09.61.18.92.29a34,34,0,0,0-3.47,2.1,6.86,6.86,0,0,0-2.9,5.19,21.71,21.71,0,0,1-2.37,8.32.64.64,0,0,0-.06.16c-.18.85-.65,3.78,1.14,5.77a4.61,4.61,0,0,0,.85.73l-4.7.1a10,10,0,0,1-1.72-.2l-.09,0a.58.58,0,0,0-.32,0,14.9,14.9,0,0,1-2.05-.47,2.49,2.49,0,0,1-.55-.47l-.16-.3a.58.58,0,0,0-.2-.21,9,9,0,0,1-.74-4.27,5.12,5.12,0,0,1,.68-2.2c1.39-2.36,4.89-3.51,8.9-2.92a.63.63,0,0,0,.72-.54.65.65,0,0,0-.12-.47.6.6,0,0,0-.42-.25,13.55,13.55,0,0,0-5.36.23.61.61,0,0,0-.05-.18,14.07,14.07,0,0,1,1.86-14.26,3,3,0,0,1,2.31-1.21,70.59,70.59,0,0,1,14.58,1c1.6.28,3.2.61,4.79,1a33.12,33.12,0,0,0-7.42,2C148.33,111.11,147.78,111.34,147.23,111.6ZM154.52,125a11.06,11.06,0,0,1-.53,6.14,10.52,10.52,0,0,1-2,3.23l-4.91.11a10.71,10.71,0,0,0,1.75-1.26.48.48,0,0,0,.13-.16l4.12-7A2.25,2.25,0,0,1,154.52,125Zm-2,16.63-16,4.51a6,6,0,0,1-5.18-1,5.33,5.33,0,0,1-1.88-6.1,5.86,5.86,0,0,0,.41-.93,5.91,5.91,0,0,1,2.46-2.34,11.91,11.91,0,0,0,2.08.22l17.82-.37a3.39,3.39,0,0,1,2.58,3.58A3.22,3.22,0,0,1,152.48,141.59Zm-22-6.2-.36.31c0-.14,0-.28-.05-.42Zm1.11-12.51,0,.06-.53.23a9.45,9.45,0,0,0,.11-1.31C131.33,122.21,131.45,122.55,131.59,122.88Z"/><path class="cls-1" d="M178.72,151.87a.63.63,0,0,0-.46.13.65.65,0,0,0-.24.44c-.06.62-.11,1.26-.15,1.91a.66.66,0,0,0,.16.46.66.66,0,0,0,.44.21h0a.63.63,0,0,0,.63-.6c0-.62.09-1.25.15-1.85A.65.65,0,0,0,178.72,151.87Z"/><path class="cls-1" d="M179.75,146.15l.16,0a.63.63,0,0,0,.61-.48c.27-1,.57-2,.89-3,.49-1.45,1.07-2.92,1.72-4.36a.63.63,0,0,0-.31-.84.64.64,0,0,0-.49,0,.57.57,0,0,0-.35.33,44.35,44.35,0,0,0-1.77,4.48c-.34,1-.64,2-.92,3.07A.64.64,0,0,0,179.75,146.15Z"/><path class="cls-1" d="M135.36,113.89a.61.61,0,0,0-.48.07.63.63,0,0,0-.3.39,10.75,10.75,0,0,0-.05,5.2.63.63,0,0,0,.62.49l.14,0a.64.64,0,0,0,.48-.76,9.5,9.5,0,0,1,0-4.59.62.62,0,0,0-.06-.48A.65.65,0,0,0,135.36,113.89Z"/><path class="cls-1" d="M131.72,126.82a.61.61,0,0,0-.48.07.62.62,0,0,0-.3.4,10.84,10.84,0,0,0-.08,4.61.63.63,0,0,0,.61.48l.16,0a.65.65,0,0,0,.39-.3.61.61,0,0,0,.07-.48,9.45,9.45,0,0,1,.09-4,.67.67,0,0,0-.07-.48A.63.63,0,0,0,131.72,126.82Z"/><path class="cls-1" d="M136.73,150.29a.63.63,0,0,0-.41-.26.61.61,0,0,0-.47.1.62.62,0,0,0-.26.43,7,7,0,0,0,.44,3.76.63.63,0,0,0,.57.36.67.67,0,0,0,.28-.06.6.6,0,0,0,.32-.36.64.64,0,0,0,0-.49,5.87,5.87,0,0,1-.34-3A.6.6,0,0,0,136.73,150.29Z"/><path class="cls-1" d="M133.73,139.38a.64.64,0,0,0-.5-.75.61.61,0,0,0-.47.1.6.6,0,0,0-.27.4,6.54,6.54,0,0,0,.6,4.32.64.64,0,0,0,.56.34.63.63,0,0,0,.57-.92A5.29,5.29,0,0,1,133.73,139.38Z"/><path class="cls-1" d="M150.11,117.67a.65.65,0,0,0-.9.11.64.64,0,0,0,.12.89,6.9,6.9,0,0,1,1.85,2.15,7.29,7.29,0,0,1,.55,1.24.62.62,0,0,0,.6.44.69.69,0,0,0,.2,0,.65.65,0,0,0,.37-.32.66.66,0,0,0,0-.48,8.21,8.21,0,0,0-2.83-4Z"/><path class="cls-1" d="M125.15,125.2l.17,0a.65.65,0,0,0,.62-.46,6.15,6.15,0,0,0-.09-3.61,6,6,0,0,0-2.48-3.12.63.63,0,1,0-.68,1.07,4.81,4.81,0,0,1,2,2.46,4.71,4.71,0,0,1,.06,2.84A.65.65,0,0,0,125.15,125.2Z"/><path class="cls-1" d="M119,157.46a.65.65,0,0,0-.26.41.63.63,0,0,0,.62.75.57.57,0,0,0,.36-.11c1.88-1.29,2.69-3.88,2.07-6.6a.62.62,0,0,0-.29-.4.6.6,0,0,0-.47-.08.65.65,0,0,0-.4.28.63.63,0,0,0-.08.48C121,154.37,120.41,156.49,119,157.46Z"/><path class="cls-1" d="M85,139.68a.64.64,0,0,0,0-.9.63.63,0,0,0-.9-.05,11.43,11.43,0,0,1-1.48,1.11,13.83,13.83,0,0,1-8.76,1.85.64.64,0,0,0-.47.13.63.63,0,0,0-.22.44.59.59,0,0,0,.14.46.61.61,0,0,0,.43.24c.59,0,1.18.08,1.76.08a14.34,14.34,0,0,0,7.8-2.13A12.85,12.85,0,0,0,85,139.68Z"/><path class="cls-1" d="M82.85,159.22c-1-.63-3.73-.56-6-.17a7,7,0,0,0-1.93.65.63.63,0,0,0-.28.85.62.62,0,0,0,.56.35.59.59,0,0,0,.29-.07,5.75,5.75,0,0,1,1.58-.52,11,11,0,0,1,5.06,0,.58.58,0,0,0,.48.09.6.6,0,0,0,.39-.27.58.58,0,0,0,.09-.48A.6.6,0,0,0,82.85,159.22Z"/><path class="cls-1" d="M115,92.35a.64.64,0,0,0,.63.52h.12a.66.66,0,0,0,.4-.27.63.63,0,0,0,.1-.48l-2.42-12.58a.66.66,0,0,0-.27-.42.65.65,0,0,0-.47-.09.64.64,0,0,0-.41.27.67.67,0,0,0-.1.48Z"/><path class="cls-1" d="M132.67,177.65a.64.64,0,0,0-.27-.41.61.61,0,0,0-.47-.09.64.64,0,0,0-.51.74l2.42,12.58a.64.64,0,0,0,.62.52h.12a.64.64,0,0,0,.41-.27.66.66,0,0,0,.1-.47Z"/><path class="cls-1" d="M158.37,174.32l-10.61-7.19a.64.64,0,0,0-1,.65.62.62,0,0,0,.27.4l10.61,7.19a.63.63,0,0,0,.88-.17.66.66,0,0,0,.1-.47A.68.68,0,0,0,158.37,174.32Z"/><path class="cls-1" d="M89.3,95.68l10.61,7.19a.66.66,0,0,0,.36.11.6.6,0,0,0,.52-.28.63.63,0,0,0-.17-.88L90,94.63a.64.64,0,0,0-.89.17.62.62,0,0,0-.09.48A.61.61,0,0,0,89.3,95.68Z"/><path class="cls-1" d="M133.28,96.47a.65.65,0,0,0,.36.1.63.63,0,0,0,.52-.27l7.19-10.61a.63.63,0,0,0-1-.71l-7.19,10.6a.63.63,0,0,0-.1.48A.68.68,0,0,0,133.28,96.47Z"/><path class="cls-1" d="M114.39,173.54a.63.63,0,0,0-.88.17l-7.19,10.6a.63.63,0,0,0-.1.48.63.63,0,0,0,1.15.24l7.19-10.61a.63.63,0,0,0,.1-.48A.6.6,0,0,0,114.39,173.54Z"/><path class="cls-1" d="M124.56,92.86h.13a.64.64,0,0,0,.62-.52l2.42-12.58a.65.65,0,0,0-.5-.75.67.67,0,0,0-.48.1.64.64,0,0,0-.27.41l-2.42,12.58A.65.65,0,0,0,124.56,92.86Z"/><path class="cls-1" d="M123.11,177.15a.62.62,0,0,0-.48.09.64.64,0,0,0-.27.41l-2.42,12.59a.66.66,0,0,0,.1.47.65.65,0,0,0,.4.27h.13a.63.63,0,0,0,.62-.52l2.42-12.58a.63.63,0,0,0-.1-.48A.61.61,0,0,0,123.11,177.15Z"/><path class="cls-1" d="M141.52,173.71a.63.63,0,0,0-1.05.71L147.66,185a.64.64,0,0,0,.53.28.64.64,0,0,0,.52-1Z"/><path class="cls-1" d="M106.15,96.29a.62.62,0,0,0,.53.28.56.56,0,0,0,.35-.11.63.63,0,0,0,.17-.88L100,85a.66.66,0,0,0-.4-.27.67.67,0,0,0-.48.1.64.64,0,0,0-.17.89Z"/></svg>