<svg id="Layer_1" data-name="Layer 1" xmlns="http://www.w3.org/2000/svg" viewBox="0 0 270 270"><defs><style>.cls-1{fill:#efe8f2;}</style></defs><g id="Egg_Timer" data-name="Egg Timer"><path class="cls-1" d="M154.2,83.28c-5.07-.41-11.88-.67-19.18-.73-24.14-.2-27.58.14-27.59,1.51a.49.49,0,0,0,.17.43c.23,1.74,1.19,8,3.28,8.77a25.29,25.29,0,0,0,5.23,1l.78,71.69a13.77,13.77,0,0,0-4.83,3.52c-.2.17-2.1,2.35-2.55,9.25a.57.57,0,0,0,0,.13c1.55,7.31,24,8.58,25.06,8.63s23.48-.93,25.15-8.21c-.16-6.62-2.27-9.57-2.32-9.55-.83-1.37-2.65-2.77-5.28-4l1.62-70.57a22,22,0,0,0,5.28-.79c2.12-.75,3.19-7.06,3.43-8.75C162.81,84.57,162.76,84,154.2,83.28ZM135,83.56c13,.11,22.51.82,25.61,1.53-7.64.57-45.35.12-51.26-1.1C113.13,83.38,126.08,83.49,135,83.56ZM117.9,166.27h0l-.78-71.87c1.28.13,2.66.24,4.11.33l.35,22.69a1.18,1.18,0,0,0,0,.56l.7,45.67v.85s0,0,0,0l.12,7.48c0,.8-.36,1.18-2.24,1.16-1.07,0-2.29,0-2.21-1.29Zm23.65-69.08c2.56.88,4.67,4.43,5.81,7.5L147,116.3c-1.22-.4-4.31-.84-12.07-1.41-8.87-.65-11.53-.47-12.42-.17l-.15-9.56c1.3-3.34,4-7.28,6.41-8.07a3.68,3.68,0,0,0,2.22-2c2.9,0,5.28,0,8.36.13A3.53,3.53,0,0,0,141.55,97.19Zm-1-2c2.31,0,4.73.08,7.07.08l-.2,7c-1.07-2.21-2.93-5.15-5.54-6A2.59,2.59,0,0,1,140.55,95.24ZM140,127.48c-1.94,2.54-5.66,5.21-4.21,7.13,4.47,5.48,9.83,12.31,10.37,13.78l-.35,12.71a103.54,103.54,0,0,0-9.47-4.78,6.62,6.62,0,0,0-2.18-.11,4,4,0,0,0-2.17.28c-.39.23-5.31,2.34-8.73,3.79l-.17-11.17c.67-1.75,8.56-11.78,10.88-14.51,1.52-1.89-2.35-4.76-4.37-7.37-3-3.31-6.62-7.37-7-9.35l0-1.68c2.17,1.22,9.81,2.5,11.38,2.53,1.82.06,11.33-.31,13-.89C147,119.69,142.94,124.2,140,127.48Zm6.93-6.89-.71,25.88c-2.14-3.24-7.22-9.53-9.65-12.5a.62.62,0,0,1-.05-.7C138.66,130,145,124,146.92,120.59Zm-1.15,41.62v.13l-.1,2.5c-2.34,3.41-8.1,4.88-11,4.54-2,.24-8.9-1.24-11.37-5.06,0-.45,0-2.48,0-3,1.74-.74,8.65-3.67,9.21-4a3.83,3.83,0,0,1,1.69-.13,6,6,0,0,1,1.86.07C136.69,157.47,144.5,161.37,145.77,162.21Zm-22.72-15-.42-26.84c2,3.39,8.53,9.65,10.62,12.91a.62.62,0,0,1-.06.71C131.77,135.62,125.5,143.45,123.05,147.17Zm.43-31.62c1.1-.13,4-.2,11.42.35,6.63.49,9.63.88,11,1.14a112.73,112.73,0,0,1-11.9.68A48.43,48.43,0,0,1,123.48,115.55Zm5-19.42c-2.26.73-4.59,3.62-6.14,6.65l-.12-8c2.48.14,5.09.23,7.65.28A2.61,2.61,0,0,1,128.5,96.13Zm30.22,83c-1.35,5.36-17.9,7.13-24.14,7.36-6.28-.33-22.79-2.37-24.06-7.76a22.77,22.77,0,0,1,1.24-6.58c4.86,8.39,41.65,9,45.89.42A24.24,24.24,0,0,1,158.72,179.13Zm-1.8-7.77c0,3.21-9,6.58-22.29,6.47-12.68-.11-22.2-4.22-22.17-6.84,0-.79,1.4-2.32,4.44-3.9l0,4.79a2.15,2.15,0,0,0,.53,1.54,3.78,3.78,0,0,0,2.69.77c1,0,3.21,0,3.26-2.17l-.09-6.09c2.53,2.91,7.81,4.57,11.31,4.46a14.27,14.27,0,0,0,11-4l-.16,5.7c-.11,1.85,1.64,2.37,3.22,2.31,1,0,3.21,0,3.26-2.15l.12-5.45C155.11,168.32,156.93,170,156.92,171.36ZM151.11,166h0l-.14,6.24c0,.8-.36,1.18-2.24,1.16a3,3,0,0,1-2-.45,1.07,1.07,0,0,1-.25-.82l.27-9.82s0-.33,0-.34l1.84-66.66c1.4,0,2.83,0,4.1-.11ZM158.7,93.4c-1.8.72-7,.83-9.61.89-6.27,0-12.45-.17-18.47-.22-3.26-.07-6.16-.17-8.68-.32a.53.53,0,0,0-.18,0c-.09,0-5.1-.43-5.19-.39a25.24,25.24,0,0,1-5.34-1c-1.1-.41-2.1-4.36-2.55-7.43,9.75,1.74,49.57,1.68,52.7,1.11C160.88,89.05,159.81,93,158.7,93.4Z"/><path class="cls-1" d="M134.76,136.49a.5.5,0,0,0-.51.5l-.13,16.09a.5.5,0,0,0,.5.51.52.52,0,0,0,.51-.51l.13-16.08A.5.5,0,0,0,134.76,136.49Z"/><path class="cls-1" d="M136.86,139.35l-.08,9.42a.51.51,0,0,0,1,0l.07-9.42A.51.51,0,0,0,136.86,139.35Z"/><path class="cls-1" d="M132.13,142.79a.51.51,0,0,0-.51.51l-.06,7.51a.51.51,0,0,0,1,0l.06-7.52A.5.5,0,0,0,132.13,142.79Z"/><path class="cls-1" d="M134.42,128.72a.43.43,0,0,0,0,.86A.43.43,0,0,0,134.42,128.72Z"/><path class="cls-1" d="M137.61,160.13a.43.43,0,0,0,0,.86A.43.43,0,0,0,137.61,160.13Z"/><path class="cls-1" d="M131.65,164.2a.43.43,0,0,0,0,.86A.43.43,0,0,0,131.65,164.2Z"/><path class="cls-1" d="M128.31,162.92a.43.43,0,0,0,0,.86A.43.43,0,0,0,128.31,162.92Z"/><path class="cls-1" d="M139.92,166.71a.43.43,0,0,0-.15.85A.43.43,0,0,0,139.92,166.71Z"/><path class="cls-1" d="M131.1,126.71a.43.43,0,0,0,0,.86A.43.43,0,0,0,131.1,126.71Z"/><path class="cls-1" d="M133.62,126.11a.43.43,0,0,0,0,.86A.43.43,0,0,0,133.62,126.11Z"/><path class="cls-1" d="M127.13,120.56a.43.43,0,0,0,0,.86A.43.43,0,0,0,127.13,120.56Z"/></g></svg>