<svg id="Layer_1" data-name="Layer 1" xmlns="http://www.w3.org/2000/svg" viewBox="0 0 270 270"><defs><style>.cls-1{fill:#efe8f2;}</style></defs><path class="cls-1" d="M133.67,161.31a26.56,26.56,0,0,0,29.54-5.45c16.58-16.48,4.65-45.22-18.75-45.15C115.84,111.17,108,149.5,133.67,161.31Zm10.79-49.06a25,25,0,0,1,24.93,24.89c.29,13.39-11.49,25.2-24.89,24.94C111.46,160.74,111.42,113.64,144.46,112.25Z"/><path class="cls-1" d="M135.35,145.66c7.42,7.66,20.94,2,20.76-8.61a12.23,12.23,0,0,0-12.17-12.16C133.26,124.78,127.7,138.23,135.35,145.66Zm8.59-19.22c9.3-.16,14.2,11.65,7.52,18.12-6.46,6.69-18.28,1.81-18.13-7.49A10.62,10.62,0,0,1,143.94,126.44Z"/><path class="cls-1" d="M107.21,109.32c4.41,2,8.36-3.74,4.92-7.16C106.92,97.55,101.07,106.14,107.21,109.32Zm1.8-6.91a2.88,2.88,0,0,1,0,5.75C105.24,108.1,105.24,102.47,109,102.41Z"/><path class="cls-1" d="M169.37,109.38a.78.78,0,0,0,.77.77H185.7a.78.78,0,0,0,.77-.77v-8.14a.77.77,0,0,0-.77-.77H170.14a.78.78,0,0,0-.78.77ZM184.92,102v6.6h-14V102Z"/><path class="cls-1" d="M196.35,168.8l0-53.09h.51c.68,0,1.54,0,1.54-.78V102a9.48,9.48,0,0,0-9.47-9.46l-79.1.07c-.09-1,.39-2.59-.77-2.62L87.09,90c-1.16,0-.68,1.65-.77,2.62H81.11a9.47,9.47,0,0,0-9.46,9.47V115a.77.77,0,0,0,.77.77h2l0,53.09A11.1,11.1,0,0,0,85.57,180l99.68-.08A11.17,11.17,0,0,0,196.35,168.8ZM108.23,91.54v1.08h-.69l-19.46,0h-.22V91.56Zm-35,22.73V102.12a7.93,7.93,0,0,1,7.92-7.93l107.76-.09A7.94,7.94,0,0,1,196.8,102v12.14l-28.71,0a.82.82,0,0,0-.39.13c-12-12.72-33.9-12.74-46-.07C121.72,114.2,73.25,114.28,73.2,114.27Zm49.69,1c19.35-19.34,52.59-5.6,52.63,21.75.36,16.57-14.22,31.18-30.79,30.85C117.37,167.87,103.58,134.66,122.89,115.28Zm62.36,63.09-99.68.09A9.58,9.58,0,0,1,76,168.9l0-53.09,44.41,0a32,32,0,0,0-8,21.31c-.34,17.4,15,32.71,32.39,32.34,27.7,0,42.59-32.93,24.27-53.69l25.76,0,.05,53.09A9.62,9.62,0,0,1,185.25,178.37Z"/></svg>