<svg id="Layer_1" data-name="Layer 1" xmlns="http://www.w3.org/2000/svg" viewBox="0 0 270 270"><defs><style>.cls-1{fill:#efe8f2;}</style></defs><g id="Pie_Tin" data-name="Pie Tin"><path class="cls-1" d="M135,82.77c-58.49-1.21-119.1,31.77-69.23,63l.63.35c31.06,18.89,100.52,19.54,133.34,2.06l1.44-.74c13.26-6.86,21.32-15.78,21.32-25.54C222.5,100.31,183.25,82.77,135,82.77ZM67.75,144.85c8.38-15.28,35-25.89,65.14-25.89,31.43,0,58.85,11.56,66,27.64C166.9,163.53,98.2,163,67.75,144.85Zm132.83.9c-17.32-37.32-114.73-37.85-134.47-1.82C19.23,114.05,78.84,83.49,135,84.65c47.21,0,85.62,16.69,85.62,37.21C220.62,131,213.07,139.28,200.58,145.75Z"/><path class="cls-1" d="M188.69,130.58a.93.93,0,0,0,1.27-.38l14-26.1a.94.94,0,0,0-.38-1.28,1,1,0,0,0-1.28.39l-14,26.1A.94.94,0,0,0,188.69,130.58Z"/><path class="cls-1" d="M194,132.21a1,1,0,0,0,1.28-.39l11.52-21.43a.94.94,0,0,0-1.66-.89L193.6,130.93A1,1,0,0,0,194,132.21Z"/><path class="cls-1" d="M72.47,131.08a1,1,0,0,0,.88-1.28l-8.92-23.43a.94.94,0,0,0-1.21-.55,1,1,0,0,0-.55,1.22l8.92,23.43A.94.94,0,0,0,72.47,131.08Z"/><path class="cls-1" d="M233.38,121c-4.24-58-192.59-58-196.76,0,0,8.32,5.23,16.11,14.29,22.75L60,170a12.11,12.11,0,0,0,6,7,147.3,147.3,0,0,0,132.54-.52,11.83,11.83,0,0,0,5.07-5l14.5-27C227.77,137.65,233.38,129.62,233.38,121ZM38.5,121c4.09-55.54,189-55.49,193,0,0,23.16-43.29,42-96.5,42S38.5,144.18,38.5,121ZM202,170.57a10,10,0,0,1-4.26,4.24,146,146,0,0,1-130.86.51,10.27,10.27,0,0,1-5.1-6l-8.24-23.78c35.72,25.14,124.74,25.42,161.4,1Z"/></g></svg>