<svg id="Layer_1" data-name="Layer 1" xmlns="http://www.w3.org/2000/svg" viewBox="0 0 270 270"><defs><style>.cls-1{fill:#efe8f2;}</style></defs><g id="Slate"><path class="cls-1" d="M213.16,225,59.41,226.2a.58.58,0,1,0,0,1.16l153.75-1.18a.59.59,0,0,0,.58-.58A.59.59,0,0,0,213.16,225Z"/><path class="cls-1" d="M60.49,111.67a2.34,2.34,0,0,0,0,4.67A2.34,2.34,0,0,0,60.49,111.67Zm0,3.51a1.17,1.17,0,0,1,0-2.34A1.17,1.17,0,0,1,60.5,115.18Z"/><path class="cls-1" d="M80.62,129.86a2.33,2.33,0,0,0,0,4.66A2.33,2.33,0,0,0,80.62,129.86Zm1.18,2.33a1.17,1.17,0,0,1-2.34,0A1.17,1.17,0,0,1,81.8,132.19Z"/><path class="cls-1" d="M221.23,235.19,221,141.4a4,4,0,0,0-.61-2.1,2.26,2.26,0,0,0,.81-1.75l.14-11.62a2.15,2.15,0,0,0-.61-1.51,2.08,2.08,0,0,0-1.5-.64L80.77,122.26l-6.66-6.17c.2-.25,117.18-81.5,117.23-81.86,0,0,1.4-3.31,1.39-3.32,1.23-2.27-4.75-6.67-5.8-7.66-1.59-1.73-5.67-2.22-7.61-.9L52.78,110A4.66,4.66,0,0,0,51,116.15l1.78,3.59-.1,2.23a1.77,1.77,0,0,0-1.65,1.7l-.46,12.18a2.27,2.27,0,0,0,.88,1.91,4.57,4.57,0,0,0-.32,1.47l-2.5,96.06a12.08,12.08,0,0,0,3.47,8.83,14.62,14.62,0,0,0,10.55,4.2s145.41.07,145.42.08A13.25,13.25,0,0,0,221.23,235.19Zm-130-97.73,10.64-13.81,13.07.15-10.51,13.81C101.26,137.59,94.25,137.51,91.19,137.46ZM130,124l-10.55,13.8-13.59-.13,10.51-13.82Zm29.71.33-10.52,13.76-13.63-.13,10.4-13.78Zm29.21.32-10.51,13.72-13.11-.12,10.37-13.75Zm9.79.11,4.74,0-10.35,13.71-13.23-.13,10.5-13.73Zm19.53.21-10.53,13.69-13.17-.13,10.35-13.7Zm1.82,12.6a1.28,1.28,0,0,1-.57,1c-.24-.05-.45.14-.65.23l-9.68-.1,10.45-13.57a.93.93,0,0,1,.58.86Zm-56.2.66-13.22-.13,10.52-13.76,13.07.15Zm-29.73-.29-13.23-.13L131.43,124l13.07.14ZM57,133.41a1.17,1.17,0,0,1,0-2.33A1.17,1.17,0,0,1,57,133.41Zm26.6-5.74c0,2.25,0,5-.06,7.34l-26-.49a2.33,2.33,0,1,0-1.2-.06A3.31,3.31,0,0,1,53.46,131l.85-18.72a2.46,2.46,0,0,1,2.47-2.36l8.08,0a2.47,2.47,0,0,1,1.66.65L83,125.88A2.18,2.18,0,0,1,83.64,127.67Zm-10.4-12.39-.91-.84L190.89,32.31l-.55,1.31ZM180,23.3c1.47-1,5-.57,6.17.83,2.35,1.86,5.63,5,5.56,6.19-29.11,20.09-66,45.61-120.28,83.29l-4.13-3.82a3.71,3.71,0,0,0-2.44-1l-8.08,0h-.18ZM52.06,115.63A3.53,3.53,0,0,1,53.44,111c-.46.8-.42,5.4-.52,6.36Zm-.3,20.27.47-12.18a.59.59,0,0,1,.42-.56L52.29,131a4.53,4.53,0,0,0,4.64,4.69c1.49,0,21.46.52,27.21.51a.58.58,0,0,0,.59-.51s.06-8.15.08-8.21c.16-1.71-1.69-3-2.77-4l18.33.2L89.71,137.47l-36.79-.36c-.22-.08-.46-.31-.72-.27A1.06,1.06,0,0,1,51.76,135.9ZM216.55,243.72a11.89,11.89,0,0,1-8.45,3.51s-145.41-.08-145.42-.07c-6.79.14-13.14-4.91-12.85-11.84l2.49-96.06a3.19,3.19,0,0,1,.2-1c5.74.14,47.68.52,52.28.55l114,1.11h0a2.31,2.31,0,0,0,.52-.06,2.79,2.79,0,0,1,.5,1.57l.22,93.8A11.94,11.94,0,0,1,216.55,243.72Z"/><path class="cls-1" d="M134.82,193.59a.54.54,0,0,0,.37-.13l77.35-.32a.59.59,0,0,0,0-1.17l-77.09.32,1.24-34.21,75.49-.17a.59.59,0,0,0,0-1.17l-76,.18h0l-76.08.18a.59.59,0,0,0,0,1.17l75.45-.18-1.24,34.21-74.68.3a.59.59,0,0,0-.58.59.58.58,0,0,0,.59.58l74.89-.31A.58.58,0,0,0,134.82,193.59Z"/><path class="cls-1" d="M62.83,182.87a.58.58,0,0,0,.7.43l25.53-6.07a.58.58,0,0,0-.26-1.13l-25.53,6.07A.59.59,0,0,0,62.83,182.87Z"/><path class="cls-1" d="M91.33,172.66l-25.54,6.07a.59.59,0,0,0,.26,1.14l25.54-6.08A.58.58,0,0,0,91.33,172.66Z"/><path class="cls-1" d="M68.48,184.08a.57.57,0,0,0,.69.43l25.54-6.07a.58.58,0,0,0-.26-1.13l-25.54,6.07A.58.58,0,0,0,68.48,184.08Z"/><path class="cls-1" d="M143.75,182a.58.58,0,0,0,.7.43L170,176.36a.58.58,0,0,0-.26-1.13l-25.55,6.07A.58.58,0,0,0,143.75,182Z"/><path class="cls-1" d="M146.84,179c.08,0,25.57-6.08,25.67-6.09a.58.58,0,0,0-.26-1.13l-25.54,6.07A.58.58,0,0,0,146.84,179Z"/><path class="cls-1" d="M150,183.66c.08,0,25.56-6.08,25.66-6.09a.58.58,0,0,0-.26-1.13l-25.53,6.07A.58.58,0,0,0,150,183.66Z"/></g></svg>