<svg id="Layer_1" data-name="Layer 1" xmlns="http://www.w3.org/2000/svg" viewBox="0 0 270 270"><defs><style>.cls-1{fill:#efe8f2;}</style></defs><path class="cls-1" d="M134.92,60h0c-12.36.6-17.8,14.55-15.55,26.7l13,59.68a8.65,8.65,0,0,0-1,.47c-.61.11-.83,54.76-1.05,55.07a4.76,4.76,0,0,0,2.43,4.18c-.19,5.35,6.17,5.05,5.82,0a4.86,4.86,0,0,0,2.39-4.23l-1.41-54.7c-.17-.6-.87-.61-1.55-.94l12.68-59.4c2.16-12.71-3.63-26.42-15.76-26.82m0,.83h0c3.63,1.81,4.29,16.63,3.93,26l-3.62,55.52C135.55,128.81,126.06,69.46,134.91,60.83Zm0,0Zm-1.62.29c-3.24,6.46-3.15,15-2.89,25.47l4.27,59.22h-.15l-9.2-59.28C124.36,76.39,125.55,64.92,133.28,61.12Zm2.55,84.67c0-16.35,8.09-71.37.74-84.68,7.05,2.93,9.27,14.81,8.18,25.61l-8.83,59.08ZM134.89,60h0M120.18,86.54c-1.78-10.45,1.54-21.19,10.51-24.91-5.9,5.4-7.19,14.85-6.2,25L133.7,146a5.08,5.08,0,0,0-.59.15Zm16.95,121.89c-1.4,1.76-3.58.29-3.57-1.92a5.62,5.62,0,0,0,4.21,0A3.2,3.2,0,0,1,137.13,208.43Zm3-6.55c0,5.52-8.88,5.57-9,.05l.84-54.47c1.39-1.1,5.5-1,6.74,0Zm-1-140.3c8.54,3.21,12.6,14.27,10.74,25.08L137.21,146c-.15,0-.31-.06-.47-.09l8.83-59.07C146.79,76.37,144.22,65.58,139.13,61.58Z"/></svg>