<svg id="Layer_1" data-name="Layer 1" xmlns="http://www.w3.org/2000/svg" viewBox="0 0 270 270"><defs><style>.cls-1{fill:#efe8f2;}</style></defs><path class="cls-1" d="M90.46,150.53c3.94-7.07,0-13.53-10.92-11.7,2.57-6.14-3.47-11.55-10.3-9.69C53.25,131,48,146.34,48.06,154a.43.43,0,0,0,.33.42c.75.15,1.89.37,3.3.61l.64.11C61.51,156.56,84.74,159.9,90.46,150.53ZM76,155.9c-8.13.63-17.71-.63-23.43-1.6,1.12-4.07,6-7.07,11.61-7.07,6.28,0,11.48,3.67,11.84,8.35A1.1,1.1,0,0,1,76,155.9Zm.74-.07c.22-5.25-5.88-9.44-12.56-9.44-6,0-11.25,3.31-12.43,7.77-1.17-.2-2.16-.39-2.87-.53.15-8,5.5-21.94,20.49-23.68,7-1.79,11.94,3.83,9.07,9.25a.41.41,0,0,0,.46.59c10.18-2,14.71,3.27,10.81,10.33C87.7,153.67,82.67,155.27,76.77,155.83Z"/><path class="cls-1" d="M86.72,134.24a110.13,110.13,0,0,0,20.93,2.41c7.73,0,15.15-1.38,17.75-6.15.11-.2,2.63-4.91.52-8.34-1.7-2.74-5.78-3.88-10.54-3,2.1-5.26-2.16-10.56-8.44-9.61-4.5.46-8.39.2-13.44,3.9-5.83,4.41-8.62,12.43-7.1,20.45A.43.43,0,0,0,86.72,134.24Zm2.26-.4c3-10.11,22.67-8.92,23.5,1.8C104.11,136.41,93.94,134.79,89,133.84Zm5-19.71c4.89-3.59,8.65-3.28,13-3.74,3.12-.5,6.23.85,7.45,3.36a7,7,0,0,1-.17,5.8.42.42,0,0,0,.46.59c9.76-2,13.31,3.52,9.89,10-1.81,3.32-6.21,4.88-11.41,5.46-.12-5.2-5.7-9.39-12.43-9.56-6.11-.14-11.48,3.13-12.67,7.67l-1-.2C85.82,125.86,88.48,118.29,94,114.13Z"/><path class="cls-1" d="M121,115.61a106.76,106.76,0,0,0,20.24,2.32c7.48,0,14.67-1.33,17.18-5.91.11-.19,2.56-4.72.5-8-1.63-2.63-5.58-3.73-10.18-2.89,2.05-5-2.2-10.16-8.19-9.22-4.35.44-8.11.19-13,3.75-5.65,4.24-8.35,12-6.87,19.66A.41.41,0,0,0,121,115.61Zm3-.25c2.78-9.09,21.23-8.12,22.11,1.55C138.44,117.66,129.11,116.29,124,115.36Zm4-19.06c4.85-3.53,8.52-3.12,12.93-3.63,6.1-.62,8.87,4.66,6.7,8.82a.41.41,0,0,0,.47.58c9.34-1.94,12.88,3.33,9.55,9.55-1.72,3.13-5.83,4.63-10.73,5.21h0c-.27-4.72-5.46-8.51-11.81-8.64-5.8-.11-10.8,2.87-11.94,7l-1.77-.35C120.12,107.55,122.7,100.29,128,96.3Z"/><path class="cls-1" d="M153.54,98.1a101.13,101.13,0,0,0,19.05,2.17c7,0,13.83-1.25,16.2-5.55.1-.18,2.42-4.44.47-7.56-1.54-2.47-5.25-3.51-9.57-2.73,1.91-4.77-2.13-9.52-7.75-8.63-4.1.4-7.64.18-12.24,3.52-5.33,4-7.88,11.21-6.49,18.45A.44.44,0,0,0,153.54,98.1Zm4-.09c2.61-8.23,18.6-7.5,19.75,1.25C170.57,99.92,162.51,98.86,157.53,98Zm2.66-18c4.57-3.31,8-2.92,12.17-3.39,5.69-.6,8.31,4.33,6.28,8.22a.42.42,0,0,0,.46.59c8.75-1.81,12.11,3.07,9,8.92-1.63,3-5.55,4.35-10.22,4.88.23-4.35-4.95-7.81-10.61-7.81-5.14,0-9.57,2.76-10.53,6.47-1.13-.2-2.07-.38-2.73-.52C152.76,90.51,155.19,83.72,160.19,80Z"/><path class="cls-1" d="M112.83,167.17a.41.41,0,0,0-.42.41v10.57a.42.42,0,0,0,.84,0V167.58A.41.41,0,0,0,112.83,167.17Z"/><path class="cls-1" d="M115.69,166.4a.42.42,0,0,0-.42.42v10.57a.41.41,0,0,0,.42.41.41.41,0,0,0,.41-.41V166.82A.41.41,0,0,0,115.69,166.4Z"/><path class="cls-1" d="M118.54,168a.41.41,0,0,0-.41.42v7.55a.41.41,0,0,0,.41.41.42.42,0,0,0,.42-.41v-7.55A.42.42,0,0,0,118.54,168Z"/><path class="cls-1" d="M149.49,147a.41.41,0,0,0-.42.41v9.41a.41.41,0,0,0,.42.41.41.41,0,0,0,.41-.41v-9.41A.41.41,0,0,0,149.49,147Z"/><path class="cls-1" d="M152.34,146.26a.41.41,0,0,0-.41.42v9.41a.41.41,0,0,0,.41.41.41.41,0,0,0,.42-.41v-9.41A.42.42,0,0,0,152.34,146.26Z"/><path class="cls-1" d="M155.2,147.65a.42.42,0,0,0-.42.42v6.72a.42.42,0,0,0,.84,0v-6.72A.42.42,0,0,0,155.2,147.65Z"/><path class="cls-1" d="M183.38,129.1a.42.42,0,0,0-.42.42v8.39a.42.42,0,0,0,.42.42.41.41,0,0,0,.41-.42v-8.39A.41.41,0,0,0,183.38,129.1Z"/><path class="cls-1" d="M186,128.49a.41.41,0,0,0-.41.42v8.4a.41.41,0,0,0,.41.41.42.42,0,0,0,.42-.41v-8.4A.42.42,0,0,0,186,128.49Z"/><path class="cls-1" d="M188.63,129.73a.42.42,0,0,0-.42.42v6a.42.42,0,0,0,.84,0v-6A.42.42,0,0,0,188.63,129.73Z"/><path class="cls-1" d="M215.33,111.87a.42.42,0,0,0-.42.42V120a.42.42,0,0,0,.84,0v-7.67A.42.42,0,0,0,215.33,111.87Z"/><path class="cls-1" d="M217.73,111.31a.42.42,0,0,0-.42.42v7.67a.42.42,0,1,0,.84,0v-7.67A.42.42,0,0,0,217.73,111.31Z"/><path class="cls-1" d="M220.13,112.45a.41.41,0,0,0-.42.41v5.48a.42.42,0,1,0,.84,0v-5.48A.41.41,0,0,0,220.13,112.45Z"/><path class="cls-1" d="M81.46,141.4a.42.42,0,0,0-.42.42v10.57a.42.42,0,0,0,.83,0V141.82A.42.42,0,0,0,81.46,141.4Z"/><path class="cls-1" d="M84.31,140.63a.41.41,0,0,0-.41.42v10.57a.41.41,0,0,0,.41.42.42.42,0,0,0,.42-.42V141.05A.42.42,0,0,0,84.31,140.63Z"/><path class="cls-1" d="M87.17,142.2a.41.41,0,0,0-.42.41v7.55a.41.41,0,0,0,.42.41.41.41,0,0,0,.41-.41v-7.55A.41.41,0,0,0,87.17,142.2Z"/><path class="cls-1" d="M116.37,132.05a.41.41,0,0,0,.42-.41v-9.41a.42.42,0,0,0-.42-.42.41.41,0,0,0-.41.42v9.41A.41.41,0,0,0,116.37,132.05Z"/><path class="cls-1" d="M119.23,131.37a.41.41,0,0,0,.41-.41v-9.41a.41.41,0,0,0-.41-.42.42.42,0,0,0-.42.42V131A.41.41,0,0,0,119.23,131.37Z"/><path class="cls-1" d="M122.08,130.07a.42.42,0,0,0,.42-.42v-6.71a.42.42,0,0,0-.42-.42.41.41,0,0,0-.41.42v6.71A.41.41,0,0,0,122.08,130.07Z"/><path class="cls-1" d="M150.22,113.32a.41.41,0,0,0,.42-.41l.1-8.39a.41.41,0,0,0-.41-.42.38.38,0,0,0-.42.41l-.1,8.39A.41.41,0,0,0,150.22,113.32Z"/><path class="cls-1" d="M152.85,112.75a.41.41,0,0,0,.42-.41l.11-8.4a.42.42,0,0,0-.42-.42.41.41,0,0,0-.41.41l-.11,8.4A.41.41,0,0,0,152.85,112.75Z"/><path class="cls-1" d="M155.49,111.62a.43.43,0,0,0,.43-.41l.07-6a.43.43,0,0,0-.41-.42c-.23-.05-.42.19-.42.41l-.08,6A.41.41,0,0,0,155.49,111.62Z"/><path class="cls-1" d="M180.4,96.47a.41.41,0,0,0,.41-.41V88.38a.41.41,0,0,0-.41-.41.41.41,0,0,0-.42.41v7.68A.41.41,0,0,0,180.4,96.47Z"/><path class="cls-1" d="M182.8,95.92a.41.41,0,0,0,.41-.42V87.83a.41.41,0,0,0-.41-.42.42.42,0,0,0-.42.42V95.5A.42.42,0,0,0,182.8,95.92Z"/><path class="cls-1" d="M185.2,94.85a.41.41,0,0,0,.41-.41V89a.41.41,0,0,0-.41-.41.41.41,0,0,0-.42.41v5.48A.41.41,0,0,0,185.2,94.85Z"/><path class="cls-1" d="M243,113.3,174.31,66.54A5.21,5.21,0,0,0,169,66.2L27.63,137.52a5.3,5.3,0,0,0-1.16,8.6L89.36,203a5.23,5.23,0,0,0,3.53,1.36,5.3,5.3,0,0,0,2.55-.66l5.29-2.93,1.13-.62,1.25-.7c12.79.08,21.6-2.24,22-12.18l6.76-3.74,7-3.85c12.7.22,21.77-2.32,22-12.21l10.52-5.82,3.27-1.81c11.75.14,20-2.08,20.29-11.23L208.63,141c.19.22.53.12.79.14,11.9-.21,19.26-2.31,19.6-11.42l8.91-4.94,4.63-2.56A5.29,5.29,0,0,0,243,113.3Zm-120.1,79.24c-2.28,4-8.45,6-18.33,6.12l.95-.53,2.57-1.42,16.22-9A11.6,11.6,0,0,1,122.87,192.54Zm35.76-19.75c-2.29,4-8.49,6-18.43,6.13l19.85-11A11.49,11.49,0,0,1,158.63,172.79Zm34.21-19.34c-2.09,3.63-7.74,5.52-16.77,5.61l11.55-6.39,6.5-3.6A10.82,10.82,0,0,1,192.84,153.45Zm34.06-18.73c-2.11,3.67-7.83,5.55-17,5.62l15.71-8.7,2.58-1.43A10.46,10.46,0,0,1,226.9,134.72Zm15.25-13.2-5.1,2.83h0L104.41,197.78,95,203a4.43,4.43,0,0,1-5.12-.59L27,145.51a4.45,4.45,0,0,1,1-7.24L169.41,66.94a4.38,4.38,0,0,1,4.44.29L242.5,114A4.46,4.46,0,0,1,242.15,121.52Z"/><path class="cls-1" d="M213.74,108.06c1.92-4.73-1.94-9.64-7.64-8.94-.91.11-1.8.23-2.69.25-11.08,0-19.31,10.58-16.92,22.42a.43.43,0,0,0,.32.33,105,105,0,0,0,19.63,2.23c7.26,0,14.24-1.28,16.69-5.71.1-.19,2.48-4.58.48-7.78C222,108.32,218.2,107.25,213.74,108.06Zm-21.37,14.23c1.81-8.4,18.73-8.07,19.68.58l0,.37C205.64,124,197.75,123.14,192.37,122.29Zm30-4.05c-1.55,2.81-5.14,4.25-9.48,4.89l0-.33c-1.09-9.64-19.3-10-21.34-.65h0c-1.84-.3-3.34-.6-4.29-.79-1.25-7,1.24-14.06,6.41-17.91,4.7-3.41,8.26-3,12.54-3.5,5.88-.61,8.59,4.47,6.48,8.49a.42.42,0,0,0,.47.59C222.17,107.16,225.63,112.2,222.4,118.24Z"/><path class="cls-1" d="M181.82,125.24c2.07-5-2-10.3-8.07-9.55-1,.12-1.92.24-2.86.27-11.78,0-20.48,11.29-17.95,23.88a.41.41,0,0,0,.32.32c6.11,1.4,33.6,6.09,38.55-3.69C195.28,130.05,192.15,123.48,181.82,125.24Zm-23.56,15c2.29-9.06,20.5-8.6,21.57.84l.06.35C172.69,142.28,163.91,141.2,158.26,140.26Zm32.82-4.19c-1.69,3.08-5.64,4.62-10.4,5.28l0-.32c-1.18-10.41-20.75-10.92-23.22-.91-1.58-.28-2.87-.53-3.73-.71-2.26-12,6-22.64,17.2-22.62,1,0,2-.16,2.94-.27a6.88,6.88,0,0,1,7.09,3.37,6.76,6.76,0,0,1-.18,5.73.42.42,0,0,0,.47.59C190.87,124.2,194.52,129.64,191.08,136.07Z"/><path class="cls-1" d="M147.47,143.85c2.12-5.21-2-10.7-8.32-9.94-1,.12-2,.25-3,.28C124,134.17,115,146,117.64,159a.4.4,0,0,0,.33.33c6.32,1.46,34.73,6.33,39.83-3.84C161.38,148.88,158.18,142,147.47,143.85Zm-25.31,15.46a1.44,1.44,0,0,1-.15.47.37.37,0,0,1-.41.18.37.37,0,0,0,.41-.18,1.44,1.44,0,0,0,.15-.47c2.61-10.15,22.34-9.57,23.51,1l.06.36C137.83,161.66,128,160.34,122.16,159.31Zm34.91-4.19c-1.72,3.16-5.74,4.77-10.57,5.47v-.32c-1.31-11.58-22.33-12.21-25.16-1.1-1.21-.22-2.22-.42-2.93-.57-1.4-7.86,1.35-15.67,7-20,5-3.7,8.91-3.39,13.44-3.86,6.64-.93,9.9,4.81,7.51,9.46a.42.42,0,0,0,.46.59C156.93,142.72,160.61,148.48,157.07,155.12Z"/><path class="cls-1" d="M110.54,164.11c2.67-6.31-3.54-11.9-10.6-10-16.52,2-21.79,17.67-21.8,25.57a.41.41,0,0,0,.33.42c1.37.27,3.67.71,6.51,1.14l.44.07c9.93,1.68,32.23,3.3,36.38-5.17.13-.21,3-5.22.58-8.89C120.49,164.35,115.89,163.14,110.54,164.11Zm-24.85,16.4c1-4.13,5.94-7.2,11.63-7.2,6.2,0,11.33,3.57,11.82,8.16C101.55,182.43,92.23,181.49,85.69,180.51Zm35.39-4.77c-1.84,3.2-6,4.87-11.12,5.62-1.58-11.32-22.2-11.86-25.1-1-2.55-.39-4.61-.78-5.88-1,.16-8.21,5.66-22.62,21.13-24.43,7.26-1.84,12.32,4,9.35,9.56a.42.42,0,0,0,.46.59C120.43,163,125.1,168.46,121.08,175.74Z"/></svg>