<?xml version="1.0" encoding="UTF-8"?><svg id="Layer_2" xmlns="http://www.w3.org/2000/svg" viewBox="0 0 16.18 17.18"><g id="Layer_6"><path d="M14.39,4.94c1.11,.28,1.82,1.25,1.79,2.13-.01,.74-.46,1.29-.9,1.78-1.91,2.09-3.41,4.46-4.78,6.93-.95,1.73-2.27,1.88-3.4,.29-1.03-1.47-2.4-2.37-4-3.07-.48-.21-.92-.14-1.39-.16-1.54-.07-2.17-1.21-1.35-2.52,.28-.46,.47-.98,.93-1.36C3.65,7.04,5.43,4.69,6.4,1.77c.08-.26,.24-.5,.35-.76C7.04,.29,7.65-.02,8.36,0c.67,.01,1.27,.38,1.49,1.02,.77,2.2,2.34,3.37,4.54,3.92Zm-5.43,6.56c.94-1.24,1.52-2.73,2.68-3.78-1.11-.72-2.09-1.37-3.22-2.1-.73,1.74-1.9,3.12-3.42,4.55,1.26,.08,1.9,.73,2.54,1.38,.48,.49,.9,.64,1.42-.05Z"/></g></svg>