<?xml version="1.0" encoding="UTF-8"?><svg id="Layer_2" xmlns="http://www.w3.org/2000/svg" viewBox="0 0 40.88 173.77"><defs><style>.cls-1{fill:#ee5d67;}</style></defs><g id="Layer_6"><path class="cls-1" d="M40.82,10.26c.21,3.48-.2,6.43-.09,9.38,.09,2.35-.04,4.71,.06,7.06,.12,2.73-.29,5.47-.41,8.21-.06,1.18,.01,2.37,.02,3.55,.04,3.18-.32,6.33-.49,9.5-.18,3.09-.66,6.13-1.12,9.19-.23,1.56-.46,3.17-.85,4.66-.79,2.97-1.48,6.14-4.31,8.07-.84,.57-1.76,1.04-2.54,1.67-1.27,1.02-1.78,2.55-2.24,4.02-.98,3.13-1.4,6.38-1.42,9.65-.02,3.13,.1,6.26-.19,9.39-.3,3.15-.17,6.31-.29,9.46-.11,3.29-.28,6.58-.14,9.87,.05,1.27,.21,2.53,.22,3.8,.02,5.1-.09,10.19,.04,15.28,.07,2.5,.19,5.02,.07,7.5-.13,2.57-.19,5.14-.25,7.7-.07,3.37-.14,6.75-.38,10.11-.15,2.18-.42,4.34-.95,6.48-.61,2.46-1.24,4.89-2.47,7.13-.64,1.14-1.5,1.83-2.83,1.83-1.29,.01-2.03-.78-2.62-1.79-.93-1.59-1.35-3.34-1.7-5.14-.92-4.79-.63-9.65-.81-14.48-.17-4.13,.16-8.26,.15-12.39,0-2.45,.09-4.9,0-7.36-.15-4.3,.08-8.6,.1-12.9,.01-2.34-.2-4.69-.13-7.02,.1-3.04,.46-6.08,.54-9.12,.08-3.09-.05-6.18-.06-9.28-.01-2.14,.09-4.3-.01-6.44-.15-3.23-.42-6.42-1.28-9.59-.53-1.96-1.59-3.17-2.93-4.5-1.95-1.95-4.42-3.2-6.31-5.21-1.22-1.31-2.13-2.74-2.89-4.32-.79-1.67-1.01-3.51-1.45-5.28C-.03,55.35,.01,51.64,0,47.98c-.02-3.65,.43-7.3,.54-10.96,.11-3.4,.37-6.8,1.05-10.12,.65-3.21,1-6.55,2.63-9.48,.67-1.21,1.6-2.34,2.84-3.03,3.26-1.81,6.21-4.1,9.39-6.04,4.37-2.68,8.79-5.24,13.6-7.04C31.75,.68,33.48,.11,35.33,0c1.85-.11,4.31,1.8,4.78,3.81,.27,1.15,.56,2.32,.68,3.5,.12,1.14,.03,2.31,.03,2.95ZM14.35,20.35c.81-.29,1.15-.97,1.05-1.81-.13-.99-.88-1.22-1.86-1.34-2.19,.21-3.65,1.63-4.76,3.51-1.51,2.56-1.62,5.51-2.25,8.32-.37,1.68-.16,3.4-.27,5.09-.1,1.41,.16,1.97,1.36,2.13,1.2,.17,2.15-.53,2.06-1.83-.22-3.08,.51-6.03,1.06-8.99,.4-2.16,1.22-4.22,3.61-5.08Z"/></g></svg>