<?xml version="1.0" encoding="UTF-8"?><svg id="Layer_2" xmlns="http://www.w3.org/2000/svg" viewBox="0 0 137.49 70.14"><defs><style>.cls-1{fill:#f2eaf2;}.cls-2{fill:#f3a2c5;}.cls-3{fill:#f9e0e9;}</style></defs><g id="Layer_8"><g><path class="cls-1" d="M100.17,34.25c1.35-1.84,6.34-2.83,9.22-1.78-2.98,.94-5.86,2.35-9.22,1.78Z"/><path class="cls-1" d="M71.5,41.11c2.72-1.13,5.48-1.91,8.68-1.03-2.95,1.15-5.78,1.37-8.68,1.03Z"/><path d="M137.32,34.29c.74,2.3-1.05,3.34-3.01,4.3-2.52,1.23-5.02,2.44-7.77,3.19-1.31,.36-2.59,.84-3.86,1.34l-1.03-2.65c3.26-1.26,6.56-2.42,9.83-3.66,2.24-.84,2.82-1.57,2.65-3.25-.76,.08-1.45,.37-2.15,.66-4.87,2.07-9.73,4.18-14.63,6.2-1.71,.7-3.55,1.03-5.31,1.63-3,1.01-6.06,1.85-9.12,2.65-2.87,.75-5.61,1.92-8.48,2.65-2.74,.69-5.29,1.82-7.92,2.79-1.85,.68-3.64,1.53-5.55,2.05-2.29,.63-4.66,1.02-6.88,1.83-2.65,.96-5.35,1.68-8.06,2.42-3.79,1.04-7.54,2.22-11.33,3.28-2.62,.74-5.26,1.41-7.91,2.07-1.18,.29-2.36,.6-3.59,.78-1.35,.19-2.76,.2-4.06,.74-.89,.37-.45,1.01-.44,1.59,.02,.69,.44,.5,.83,.45,3.13-.43,6.19-1.26,9.24-2.04,4.37-1.12,8.73-2.26,13.12-3.31l.58,2.79c-.52,.07-.94,.34-.93,1.02,0,.51-.12,1.03-.26,1.53-.4,1.48-1.29,2.61-2.82,2.91-1.95,.4-3.74,1.25-5.7,1.66-2.27,.47-4.48,.1-6.71,.03-.98-.03-1.79-.63-2.28-1.52-.32-.59-.69-.66-1.36-.54-1.27,.21-2.49,.73-3.86,.42-.76-.18-1.48-.24-1.99-.9-.12-.15-.3-.29-.48-.33-2.2-.48-3.44-2.3-5.1-3.55-1.3-.98-2.59-2-3.76-3.1-1.63-1.52-3.35-2.93-5-4.41-2.39-2.13-4.94-4.06-7.4-6.1-3.47-2.9-7.11-5.6-10.25-8.91-1.22-1.29-2.57-2.47-3.72-3.84-.67-.8-1.04-1.63-.76-2.75,.3-1.23-.09-2.53,.19-3.8,.6-2.69,1.93-4.78,4.4-6.14,2.44-1.33,5-2.36,7.58-3.34,2.11-.8,4.18-1.67,6.34-2.33,2.33-.72,4.76-.96,7.05-1.77,2.81-.99,5.65-1.85,8.53-2.6,3.11-.81,6.25-1.5,9.3-2.48,3.25-1.06,6.66-1.51,9.87-2.7,1.66-.61,3.47-.81,5.22-1.18,3.51-.76,6.98-1.7,10.42-2.77,2.21-.69,4.61-.75,6.9-1.25,3.95-.86,7.96-1.38,11.93-2.17,3.14-.63,6.29-1.22,9.43-1.84,.73-.14,1.34,.15,1.92,.47,5.59,3.08,11.01,6.43,15.91,10.55,2.53,2.12,5.03,4.28,7.67,6.25,2.76,2.07,5.35,4.35,8.07,6.48,1.38,1.09,2.19,2.72,3.47,3.91,.24,.22,.41,.5,.65,.7,2.44,2.11,2.51,2.27,2.38,5.89Zm-5.84-3.05c1.39-.57,1.42-.49,.57-1.74-.04-.07-.08-.14-.13-.2-2.52-2.89-5.39-5.37-8.48-7.64-1.5-1.11-3.03-2.21-4.38-3.46-2.99-2.81-6.31-5.16-9.5-7.71-2.98-2.38-6.36-4.16-9.56-6.21-.62-.39-1.31-.69-2.07-.89-1.8-.48-3.53,.1-5.14,.53-4.66,1.26-9.47,1.57-14.15,2.65-3.13,.72-6.4,.78-9.46,1.79s-6.14,1.9-9.29,2.53c-5.76,1.15-11.37,2.86-17.06,4.26-3.71,.92-7.42,1.96-11.07,3.1-3.79,1.19-7.62,2.18-11.43,3.23-5.18,1.43-10.13,3.4-14.76,6.11-.9,.53-.9,.88-.11,1.67,1.59,1.6,3.16,3.22,4.74,4.83,1.19,1.23,2.25,2.62,3.59,3.65,1.76,1.34,3.61,2.55,5.21,4.11,.71,.7,1.48,1.4,2.43,1.89,.97,.49,1.87,1.22,2.64,2,2.01,2.04,4.26,3.8,6.11,6.01,2.45,2.92,5.63,5.14,8.09,8.07,.17,.2,.29,.51,.66,.38,.12-.02,.23-.06,.35-.07,3.02-.49,6.04-.92,8.98-1.85,2.23-.71,4.59-.97,6.81-1.69,2.74-.91,5.49-1.8,8.29-2.53,2.14-.55,4.29-1.1,6.42-1.72,1.56-.46,3.06-1.09,4.62-1.54,2.24-.65,4.55-1.11,6.76-1.84,3.99-1.3,7.75-3.19,11.82-4.31,3.09-.86,6.07-2.14,9.19-2.88,3.24-.76,6.43-1.68,9.58-2.72,2.06-.68,4.05-1.58,6.08-2.25,2.34-.77,4.56-1.82,6.87-2.64s4.5-1.99,6.78-2.92ZM57.8,65.2c.42-.23,.61-.59,.53-.95-.11-.49-.53-.16-.78-.1-3.25,.79-6.5,1.61-9.75,2.41-.27,.07-.54,.12-.66,.42,2.03,.4,4.05,.43,6.04-.23,1.54-.51,3.16-.77,4.62-1.55Zm-22.28-1.62c.61-1.86,.57-1.86-.73-3.17-2.18-2.21-4.63-4.13-6.66-6.49-1.06-1.24-2.21-2.4-3.38-3.54-2.1-2.06-4.46-3.83-6.81-5.59-1.22-.92-2.2-2.13-3.5-2.94-2.24-1.39-4.04-3.29-5.86-5.15-1.64-1.67-3.37-3.26-4.83-5.09-.18-.21-.43-.41-.65,.02-.32,.63,.15,3.87,.68,4.4,1.76,1.75,3.49,3.53,5.32,5.19,.92,.83,1.69,1.85,2.71,2.5,2.53,1.6,4.61,3.75,7,5.53,2.69,2.01,5.13,4.35,7.69,6.55,3.01,2.6,6.02,5.19,9.02,7.78Z"/><path class="cls-2" d="M134.13,33.56c.17,1.68-.41,2.41-2.65,3.25-3.27,1.24-6.57,2.4-9.83,3.66l-1.53,.6c-4.72,1.89-9.55,3.46-14.36,5.09-3.52,1.2-7.14,2.11-10.71,3.17-2.53,.75-5.06,1.52-7.55,2.36-4.55,1.52-9.2,2.69-13.68,4.42-3.9,1.52-7.87,2.91-11.93,3.89-4.39,1.05-8.75,2.19-13.12,3.31-3.05,.78-6.11,1.61-9.24,2.04-.39,.05-.81,.24-.83-.45,0-.58-.45-1.22,.44-1.59,1.3-.54,2.71-.55,4.06-.74,1.23-.18,2.41-.49,3.59-.78,2.65-.66,5.29-1.33,7.91-2.07,3.79-1.06,7.54-2.24,11.33-3.28,2.71-.74,5.41-1.46,8.06-2.42,2.22-.81,4.59-1.2,6.88-1.83,1.91-.52,3.7-1.37,5.55-2.05,2.63-.97,5.18-2.1,7.92-2.79,2.87-.73,5.61-1.9,8.48-2.65,3.06-.8,6.12-1.64,9.12-2.65,1.76-.6,3.6-.93,5.31-1.63,4.9-2.02,9.76-4.13,14.63-6.2,.7-.29,1.39-.58,2.15-.66Z"/><path class="cls-3" d="M132.05,29.5c.85,1.25,.82,1.17-.57,1.74-2.28,.93-4.47,2.1-6.78,2.92s-4.53,1.87-6.87,2.64c-2.03,.67-4.02,1.57-6.08,2.25-3.15,1.04-6.34,1.96-9.58,2.72-3.12,.74-6.1,2.02-9.19,2.88-4.07,1.12-7.83,3.01-11.82,4.31-2.21,.73-4.52,1.19-6.76,1.84-1.56,.45-3.06,1.08-4.62,1.54-2.13,.62-4.28,1.17-6.42,1.72-2.8,.73-5.55,1.62-8.29,2.53-2.22,.72-4.58,.98-6.81,1.69-2.94,.93-5.96,1.36-8.98,1.85-.12,.01-.23,.05-.35,.07-.37,.13-.49-.18-.66-.38-2.46-2.93-5.64-5.15-8.09-8.07-1.85-2.21-4.1-3.97-6.11-6.01-.77-.78-1.67-1.51-2.64-2-.95-.49-1.72-1.19-2.43-1.89-1.6-1.56-3.45-2.77-5.21-4.11-1.34-1.03-2.4-2.42-3.59-3.65-1.58-1.61-3.15-3.23-4.74-4.83-.79-.79-.79-1.14,.11-1.67,4.63-2.71,9.58-4.68,14.76-6.11,3.81-1.05,7.64-2.04,11.43-3.23,3.65-1.14,7.36-2.18,11.07-3.1,5.69-1.4,11.3-3.11,17.06-4.26,3.15-.63,6.23-1.52,9.29-2.53s6.33-1.07,9.46-1.79c4.68-1.08,9.49-1.39,14.15-2.65,1.61-.43,3.34-1.01,5.14-.53,.76,.2,1.45,.5,2.07,.89,3.2,2.05,6.58,3.83,9.56,6.21,3.19,2.55,6.51,4.9,9.5,7.71,1.35,1.25,2.88,2.35,4.38,3.46,3.09,2.27,5.96,4.75,8.48,7.64,.05,.06,.09,.13,.13,.2Zm-16.19,1.88c1.79-2.19,1.09-5.87-1.4-7.19-2.56-1.35-5.37-1.75-8.14-1.68-5.36,.13-9.93,2.16-12.87,6.86-1.38,2.22-1.37,3.99,1.18,5.86,2.03,1.49,4.36,2.01,7.33,2.2,.85,.2,2.09-.37,3.37-.6,4.07-.71,7.79-2.1,10.53-5.45Zm-15.15-16.81c-.1-.86-.18-1.76-.63-2.59-1.38-2.53-3.91-3.23-6.36-3.93-2.25-.64-4.57-.25-6.82,.22-1.5,.32-3.01,.71-4.41,1.31-2.66,1.14-4.12,3.45-4.98,6.06-.46,1.37-.27,2.86,.71,4.2,.83,1.14,2.08,1.34,3.18,1.93,1.77,.94,3.7,1.39,5.62,1.31,3.87-.17,7.48-1.39,10.61-3.74,1.56-1.17,3.04-2.5,3.08-4.77Zm-13.51,23.21c1.16-1.85,.52-4.47-1.26-5.75-2.58-1.85-5.46-2.18-8.49-1.93-2.4,.2-4.75,.67-7.06,1.42-2.58,.85-4.73,2.11-6.14,4.6-1.44,2.53-.26,4.57,1.42,5.81,2.07,1.52,4.4,2.53,6.53,2.41,1.86-.01,3.15-.28,4.46-.37,4.54-.35,8.1-2.3,10.54-6.19Zm-14.37-15.99c1.19-2.13,.32-5.15-1.7-6.46-1.53-1-3.25-1.26-4.92-1.51-3.67-.56-7.09,.35-10.29,2.23-1.7,.99-3.34,2.06-4.37,3.77-.88,1.46-1.68,3.06-1.12,4.84,.81,2.59,3.82,4.73,7.11,4.87,3.53-.15,7.27-1.35,10.68-3.53,1.76-1.13,3.54-2.28,4.61-4.21Zm-11.9,23.47c1.77-3.51-.37-6.78-3.53-7.88-2.1-.72-4.3-.96-6.53-.72-2.09,.12-4.12,.32-6.14,1.1-2.97,1.14-5.57,2.52-7.05,5.57-1.46,3.01-.73,4.59,1.68,6.53,2.96,2.4,6.63,2.88,10.35,2.25,1.98-.34,3.92-.85,5.78-1.74,2.39-1.15,4.24-2.73,5.44-5.11Zm-15-17.24c.05-2.19-1-3.54-3.55-4.63-2.42-1.04-4.98-1.21-7.54-1.41-1.08,.01-2.15,.15-3.19,.38-3.32,.72-6.26,2.21-8.58,4.71-1.62,1.74-2.64,4.86,.03,7.07,1.38,1.14,2.99,1.7,4.64,2,3.9,.71,7.65-.09,11.28-1.61,2.21-.92,4.22-2.1,5.81-3.93,.64-.74,1.07-1.57,1.1-2.58Z"/><path d="M121.65,40.47l1.03,2.65c-1.27,.51-2.53,1.05-3.81,1.53-.61,.23-.66,.69-.66,1.24,0,1.1-.09,2.14-.57,3.22-.68,1.52-1.73,2.21-3.25,2.42-2.37,.32-4.54,1.36-6.87,1.86-1.43,.3-2.85,.68-4.32,.72-1.82,.05-3.52-.29-4.23-2.29-.18-.52-.39-.34-.69-.25-2.05,.6-4.11,1.18-6.15,1.8-.98,.3-1.97,.6-2.94,.94-.95,.33-1.08,.86-1.07,1.66,.03,1.56-.34,2.93-1.89,3.68-.18,.09-.36,.24-.54,.24-2.23,.1-4.14,1.35-6.3,1.7-.95,.16-1.86,.66-2.82,.89-1.03,.25-2.05,.1-3.07,.09-.84,0-1.59-.5-1.9-1.41-.27-.77-.77-.88-1.5-.6-2.48,.96-4.97,1.87-7.63,2.23l-.58-2.79c4.06-.98,8.03-2.37,11.93-3.89,4.48-1.73,9.13-2.9,13.68-4.42,2.49-.84,5.02-1.61,7.55-2.36,3.57-1.06,7.19-1.97,10.71-3.17,4.81-1.63,9.64-3.2,14.36-5.09l1.53-.6Zm-6.4,6.42c.09-.71-.33-.86-.72-.59-.63,.42-1.35,.46-2.01,.67-3.27,1.01-6.45,2.34-9.79,3.13-.33,.07-1.06,0-.96,.61,.08,.47,.71,.39,1.08,.5,1.21-.21,2.37-.4,3.54-.62,2.37-.45,4.6-1.45,6.98-1.89,.97-.18,1.75-.66,1.88-1.81Zm-30.9,10.33c.65-.09,.73-.56,.67-1.06-.07-.61-.49-.32-.82-.25-2.15,.41-4.1,1.44-6.25,1.91-1.24,.27-2.57,.75-3.65,1.84,1-.13,2.05-.12,3-.43,2.33-.76,4.6-1.67,7.05-2.01Z"/><path d="M114.46,24.19c2.49,1.32,3.19,5,1.4,7.19-2.74,3.35-6.46,4.74-10.53,5.45-1.28,.23-2.52,.8-3.37,.6-2.97-.19-5.3-.71-7.33-2.2-2.55-1.87-2.56-3.64-1.18-5.86,2.94-4.7,7.51-6.73,12.87-6.86,2.77-.07,5.58,.33,8.14,1.68Zm-.89,5.21c.68-1.35,.29-2.05-1.2-2.42-.15-.03-.3-.1-.42-.2-1.99-1.57-4.49-1.51-6.63-1.27-3.79,.42-7.28,1.94-9.35,5.57-.28,.48-.59,.91-.19,1.38,.46,.54,.93,.24,1.47-.06,1.3-.74,2.34-1.84,3.8-2.4,2.06-.79,4.2-.66,6.54-.98,1.34,.42,3.13,.01,4.51,.86,.99,.61,1.2,.05,1.47-.48Zm-4.18,3.07c-2.88-1.05-7.87-.06-9.22,1.78,3.36,.57,6.24-.84,9.22-1.78Z"/><path class="cls-1" d="M114.53,46.3c.39-.27,.81-.12,.72,.59-.13,1.15-.91,1.63-1.88,1.81-2.38,.44-4.61,1.44-6.98,1.89-1.17,.22-2.33,.41-3.54,.62-.37-.11-1-.03-1.08-.5-.1-.61,.63-.54,.96-.61,3.34-.79,6.52-2.12,9.79-3.13,.66-.21,1.38-.25,2.01-.67Z"/><path class="cls-2" d="M112.37,26.98c1.49,.37,1.88,1.07,1.2,2.42-.27,.53-.48,1.09-1.47,.48-1.38-.85-3.17-.44-4.51-.86-2.34,.32-4.48,.19-6.54,.98-1.46,.56-2.5,1.66-3.8,2.4-.54,.3-1.01,.6-1.47,.06-.4-.47-.09-.9,.19-1.38,2.07-3.63,5.56-5.15,9.35-5.57,2.14-.24,4.64-.3,6.63,1.27,.12,.1,.27,.17,.42,.2Z"/><path d="M100.08,11.98c.45,.83,.53,1.73,.63,2.59-.04,2.27-1.52,3.6-3.08,4.77-3.13,2.35-6.74,3.57-10.61,3.74-1.92,.08-3.85-.37-5.62-1.31-1.1-.59-2.35-.79-3.18-1.93-.98-1.34-1.17-2.83-.71-4.2,.86-2.61,2.32-4.92,4.98-6.06,1.4-.6,2.91-.99,4.41-1.31,2.25-.47,4.57-.86,6.82-.22,2.45,.7,4.98,1.4,6.36,3.93Zm-4.06,3.8c.96,.36,1.73-.14,1.65-1.16-.05-.61-.17-1.23-.62-1.76-1.48-1.78-3.56-1.93-5.6-2.09-2.34-.19-4.53,.59-6.73,1.24-2.43,.71-4.15,2.84-4.42,5.52,.35-.16,.62-.24,.85-.39,2.09-1.45,4.47-2.14,6.94-2.52,2.75-.42,5.37,.22,7.93,1.16Zm-2.34,2.43c-3.64-1.5-6.96-.52-10.39,1.01,3.1,1.22,7.54,.76,10.39-1.01Z"/><path class="cls-2" d="M97.67,14.62c.08,1.02-.69,1.52-1.65,1.16-2.56-.94-5.18-1.58-7.93-1.16-2.47,.38-4.85,1.07-6.94,2.52-.23,.15-.5,.23-.85,.39,.27-2.68,1.99-4.81,4.42-5.52,2.2-.65,4.39-1.43,6.73-1.24,2.04,.16,4.12,.31,5.6,2.09,.45,.53,.57,1.15,.62,1.76Z"/><path class="cls-1" d="M83.29,19.22c3.43-1.53,6.75-2.51,10.39-1.01-2.85,1.77-7.29,2.23-10.39,1.01Z"/><path d="M85.94,32.03c1.78,1.28,2.42,3.9,1.26,5.75-2.44,3.89-6,5.84-10.54,6.19-1.31,.09-2.6,.36-4.46,.37-2.13,.12-4.46-.89-6.53-2.41-1.68-1.24-2.86-3.28-1.42-5.81,1.41-2.49,3.56-3.75,6.14-4.6,2.31-.75,4.66-1.22,7.06-1.42,3.03-.25,5.91,.08,8.49,1.93Zm-1.26,4.2c.33-.89,.02-1.52-.84-2.07-1.94-1.24-4.03-1.19-5.49-1.1-2.79,.1-4.77,.79-6.81,1.25-1.55,.36-2.77,1.12-3.9,2.13-.36,.32-.65,.7-.82,1.15-.3,.83-.15,1.54,.62,2.07,.75,.53,1.19-.13,1.62-.49,2.54-2.18,5.67-2.38,8.74-2.48,1.67-.06,3.37,.43,5.02,.82,1.2,.27,1.56-.47,1.86-1.28Zm-4.5,3.85c-3.2-.88-5.96-.1-8.68,1.03,2.9,.34,5.73,.12,8.68-1.03Z"/><path class="cls-1" d="M85.02,56.16c.06,.5-.02,.97-.67,1.06-2.45,.34-4.72,1.25-7.05,2.01-.95,.31-2,.3-3,.43,1.08-1.09,2.41-1.57,3.65-1.84,2.15-.47,4.1-1.5,6.25-1.91,.33-.07,.75-.36,.82,.25Z"/><path class="cls-2" d="M83.84,34.16c.86,.55,1.17,1.18,.84,2.07-.3,.81-.66,1.55-1.86,1.28-1.65-.39-3.35-.88-5.02-.82-3.07,.1-6.2,.3-8.74,2.48-.43,.36-.87,1.02-1.62,.49-.77-.53-.92-1.24-.62-2.07,.17-.45,.46-.83,.82-1.15,1.13-1.01,2.35-1.77,3.9-2.13,2.04-.46,4.02-1.15,6.81-1.25,1.46-.09,3.55-.14,5.49,1.1Z"/><path d="M71.13,15.33c2.02,1.31,2.89,4.33,1.7,6.46-1.07,1.93-2.85,3.08-4.61,4.21-3.41,2.18-7.15,3.38-10.68,3.53-3.29-.14-6.3-2.28-7.11-4.87-.56-1.78,.24-3.38,1.12-4.84,1.03-1.71,2.67-2.78,4.37-3.77,3.2-1.88,6.62-2.79,10.29-2.23,1.67,.25,3.39,.51,4.92,1.51Zm-2.07,6.34c.58-.58,1.39-1.05,1.35-2-.03-.9-.53-1.61-1.33-1.97-1.12-.51-2.3-.81-3.54-.98-3.57-.48-6.61,.86-9.46,2.75-1.44,.95-2.58,2.21-2.68,4.25,1.9-1.16,3.87-1.64,5.85-2.21,3.1-.9,6.05-1.07,9.04,.15,.29,.11,.57,.22,.77,.01Zm-3.46,2.35c-.36-.42-.82-.33-1.24-.39-1.14-.14-2.21,.2-3.27,.5-1.59,.44-3.28,.6-4.74,1.45-.2,.11-.5,.16-.48,.44,.02,.27,.32,.33,.53,.42,.36,.15,.74,.18,1.15,.17,.86-.02,1.62-.39,2.43-.53,1.99-.36,3.9-.93,5.62-2.06Z"/><path class="cls-2" d="M70.41,19.67c.04,.95-.77,1.42-1.35,2-.2,.21-.48,.1-.77-.01-2.99-1.22-5.94-1.05-9.04-.15-1.98,.57-3.95,1.05-5.85,2.21,.1-2.04,1.24-3.3,2.68-4.25,2.85-1.89,5.89-3.23,9.46-2.75,1.24,.17,2.42,.47,3.54,.98,.8,.36,1.3,1.07,1.33,1.97Z"/><path class="cls-1" d="M64.36,23.63c.42,.06,.88-.03,1.24,.39-1.72,1.13-3.63,1.7-5.62,2.06-.81,.14-1.57,.51-2.43,.53-.41,.01-.79-.02-1.15-.17-.21-.09-.51-.15-.53-.42-.02-.28,.28-.33,.48-.44,1.46-.85,3.15-1.01,4.74-1.45,1.06-.3,2.13-.64,3.27-.5Z"/><path d="M57.4,37.38c3.16,1.1,5.3,4.37,3.53,7.88-1.2,2.38-3.05,3.96-5.44,5.11-1.86,.89-3.8,1.4-5.78,1.74-3.72,.63-7.39,.15-10.35-2.25-2.41-1.94-3.14-3.52-1.68-6.53,1.48-3.05,4.08-4.43,7.05-5.57,2.02-.78,4.05-.98,6.14-1.1,2.23-.24,4.43,0,6.53,.72Zm-1.3,7.34c1.38,.5,2.46-.36,2.44-1.84,0-1.14-1.12-2.57-2.48-2.85-4.15-.86-8.23-.54-12.09,1.24-1.58,.72-3,1.79-3.71,3.52-.2,.5-.6,1.06-.12,1.55,.6,.62,.83-.34,1.29-.4,.15-.02,.29-.14,.43-.2,4.63-1.99,9.33-2.8,14.24-1.02Zm-1.46,2.54c-4.03-1.2-7.64-.28-11.37,1.05,2.14,1.65,8.7,1.02,11.37-1.05Z"/><path class="cls-2" d="M58.54,42.88c.02,1.48-1.06,2.34-2.44,1.84-4.91-1.78-9.61-.97-14.24,1.02-.14,.06-.28,.18-.43,.2-.46,.06-.69,1.02-1.29,.4-.48-.49-.08-1.05,.12-1.55,.71-1.73,2.13-2.8,3.71-3.52,3.86-1.78,7.94-2.1,12.09-1.24,1.36,.28,2.47,1.71,2.48,2.85Z"/><path class="cls-1" d="M43.27,48.31c3.73-1.33,7.34-2.25,11.37-1.05-2.67,2.07-9.23,2.7-11.37,1.05Z"/><path d="M42.38,23.39c2.55,1.09,3.6,2.44,3.55,4.63-.03,1.01-.46,1.84-1.1,2.58-1.59,1.83-3.6,3.01-5.81,3.93-3.63,1.52-7.38,2.32-11.28,1.61-1.65-.3-3.26-.86-4.64-2-2.67-2.21-1.65-5.33-.03-7.07,2.32-2.5,5.26-3.99,8.58-4.71,1.04-.23,2.11-.37,3.19-.38,2.56,.2,5.12,.37,7.54,1.41Zm.53,4.62c.28-.74-.72-1.34-1.5-1.69-.36-.16-.7-.39-1.08-.5-4.89-1.55-9.5-.9-13.72,1.99-.8,.55-1.38,1.42-1.98,2.21-.46,.59-.05,1.21,.19,1.76,.16,.36,.43,.17,.69,.01,3.42-2.12,7.1-3.16,11.16-2.92,1.38,.08,2.57,.89,4.11,.74,1.31,.5,1.83-.81,2.13-1.6Zm-6.57,4.07c-2.49-.61-4.79-.06-6.97,1.21,2.45,.39,4.74-.26,6.97-1.21Z"/><path class="cls-2" d="M41.41,26.32c.78,.35,1.78,.95,1.5,1.69-.3,.79-.82,2.1-2.13,1.6-1.54,.15-2.73-.66-4.11-.74-4.06-.24-7.74,.8-11.16,2.92-.26,.16-.53,.35-.69-.01-.24-.55-.65-1.17-.19-1.76,.6-.79,1.18-1.66,1.98-2.21,4.22-2.89,8.83-3.54,13.72-1.99,.38,.11,.72,.34,1.08,.5Z"/><path class="cls-2" d="M34.79,60.41c1.3,1.31,1.34,1.31,.73,3.17-3-2.59-6.01-5.18-9.02-7.78-2.56-2.2-5-4.54-7.69-6.55-2.39-1.78-4.47-3.93-7-5.53-1.02-.65-1.79-1.67-2.71-2.5-1.83-1.66-3.56-3.44-5.32-5.19-.53-.53-1-3.77-.68-4.4,.22-.43,.47-.23,.65-.02,1.46,1.83,3.19,3.42,4.83,5.09,1.82,1.86,3.62,3.76,5.86,5.15,1.3,.81,2.28,2.02,3.5,2.94,2.35,1.76,4.71,3.53,6.81,5.59,1.17,1.14,2.32,2.3,3.38,3.54,2.03,2.36,4.48,4.28,6.66,6.49Z"/><path class="cls-1" d="M29.37,33.29c2.18-1.27,4.48-1.82,6.97-1.21-2.23,.95-4.52,1.6-6.97,1.21Z"/></g></g></svg>