<?xml version="1.0" encoding="UTF-8"?><svg id="Layer_2" xmlns="http://www.w3.org/2000/svg" viewBox="0 0 91.52 59.91"><defs><style>.cls-1{fill:#f6f8f9;}.cls-2{fill:#f2eaf2;}.cls-3{fill:#f9da69;}</style></defs><g id="Layer_8"><g><path d="M90.5,39.11c.86,1.39,1.05,3.36,.3,5.27-1.06,2.73-3.04,4.66-4.94,6.73-1.73,1.88-3.51,3.68-5.74,4.95-1.42,.8-2.85,1.83-4.67,1.12-.05-.01-.11-.02-.16-.02l-1.25-2.62c.2,0,.38-.1,.53-.37,.28-.51,.6-1,.92-1.54-3.56-.64-6.7-2.23-9.93-3.62-1.83-.78-3.46-1.96-5.32-2.62-4.42-1.56-8.75-3.3-13.07-5.11-1.28-.54-2.64-.96-3.8-1.69-2.5-1.56-5.3-2.44-7.94-3.64-1.01-.46-2.02-.92-3.03-1.39l1.19-2.58c.79,.38,1.59,.74,2.41,1.06,3.72,1.47,7.33,3.17,10.95,4.84,2.52,1.17,5.1,2.18,7.67,3.21,2.46,.99,5.04,1.73,7.41,2.92,3.85,1.94,7.77,3.73,11.83,5.18,1.49,.53,3.21,.89,4.54-.34,1.76-1.6,3.38-3.36,5.01-5.1,1.28-1.37,2.49-2.79,2.85-4.74,.09-.44,.32-.92,0-1.24-.91-.88-1.5-2.21-3.19-2.33,.11,1.59-.14,3.13-.25,4.68-.16,2.29-1.65,4.21-3.42,4.51-5,.83-9.41-.47-12.95-4.04-2.39-2.41-3.37-4.27-.27-7.3,.31-.31,.59-.71,.55-1.16-.17-1.95,.14-3.79,1.13-5.51,.26-.45,.14-.89-.49-.88-1.01,.01-1.87-.38-2.68-.89-.37-.24-.59-.28-.85,.13-1.3,2.03-3.26,3.47-5.56,3.44-2.63-.04-3.23,1.53-3.87,3.38-.36,1.02-1.1,1.46-2.14,1.6-.72,.09-1.41,.1-2.1,.04l.23-2.91c.93,.1,1.53-.18,1.85-1.13,.18-.57,.38-1.12,.47-1.71,.19-1.17,.58-2.35,.53-3.51-.09-1.84-1.62-2.59-3.05-3.33-1.06-.55-2.34-.7-3.64-.52l-.26-2.62c5.01-.51,7.69,.94,9.72,4.91,.28-1.75,.4-2.77,.05-3.93l2.86-.42c.04,.18,.09,.37,.13,.55,.48,1.93-.13,3.77-.33,5.65-.03,.26-.31,.57,.02,.74,.24,.13,.57,.03,.79-.16,.64-.53,1.44-.98,1.85-1.65,.48-.8,1.27-1.39,1.37-2.52,.11-1.11,.87-2.01,2.27-2.03,2.64-.04,5.16,.17,7.03,2.38,.26,.31,.47,.33,.9,.17,3.57-1.31,6.8-.68,9.25,2.45,1.31,1.69,2.04,3.58,2.18,5.69,.04,.57-.11,1.18-.3,1.73-.25,.74,.05,1.26,.64,1.46,3.1,1.07,4.29,3.97,5.77,6.38Zm-11.82,14.46c3.84-3.05,7.44-6.15,9.42-10.69-2.14,2.97-4.96,5.32-7.45,7.98-.73,.79-2.08,1.1-1.97,2.71Zm2.01-21.89c.99-1.31,.72-2.72,.29-4.03-.5-1.52-1.42-2.89-2.98-3.51-3.85-1.54-7.75,1.91-8.03,5.74,4.06-1.29,8.42-.75,10.72,1.8Zm-1.06,8.57c.24-1.95,1.35-4.03-.34-5.79-1.37-1.43-2.99-2.54-5.09-2.28-1.12-.14-2.13-.01-3.05,.55-1.45,.87-2.58,2.05-3.51,3.48-.3,.46-.26,.72,.03,1.13,2.48,3.51,6.01,4.61,10.11,4.51,1.14-.02,1.72-.58,1.85-1.6Zm-13.73-18.28c.95,.6,1.94,1.05,3.12,.7-1.04-.21-1.89-1.16-3.12-.7Z"/><path class="cls-3" d="M86.26,37.77c.32,.32,.09,.8,0,1.24-.36,1.95-1.57,3.37-2.85,4.74-1.63,1.74-3.25,3.5-5.01,5.1-1.33,1.23-3.05,.87-4.54,.34-4.06-1.45-7.98-3.24-11.83-5.18-2.37-1.19-4.95-1.93-7.41-2.92-2.57-1.03-5.15-2.04-7.67-3.21-3.62-1.67-7.23-3.37-10.95-4.84-.82-.32-1.62-.68-2.41-1.06-2.39-1.14-4.7-2.46-7.11-3.52-2.43-1.07-4.88-2.13-7.23-3.32-3.65-1.84-7.46-3.51-10.65-6.16-1.21-1-2.5-2.01-2.68-3.78-.08-.77,.06-1.48,.45-2.16,1.94-3.35,4.61-6.09,7.25-8.86,1.25-1.3,2.81-.79,4.15-.43,.96,.26,2.02,.48,3.01,1.16-1.39,.49-2.79,.2-4.08,.67-1.66,.59-2.8,1.69-3.74,3.12-.72,1.11-1.15,2.35-1.74,3.51-.88,1.74-.79,3.27,.53,4.74,2.76,3.06,6.22,4.69,10.34,4.93,1.64,.1,2.72-.7,3.44-2.07,.24-.44,.48-.68,1-.86,1.44-.51,2.41-1.68,3.23-2.89,.89-1.3,1.78-2.63,2.32-4.13,.29-.8,.72-.51,1.19-.3,1.38,.61,2.74,1.27,4.36,1.44-.74,2.27-.83,4.57-.48,6.9,.11,.67,.15,1.36,.64,1.89,.3,.32,.13,.54-.03,.83-1.36,2.41-.75,3.14,1.1,5.19,1.31,1.45,2.64,2.86,4.48,3.59,2.23,.87,4.45,1.8,6.83,1.97,.69,.06,1.38,.05,2.1-.04,1.04-.14,1.78-.58,2.14-1.6,.64-1.85,1.24-3.42,3.87-3.38,2.3,.03,4.26-1.41,5.56-3.44,.26-.41,.48-.37,.85-.13,.81,.51,1.67,.9,2.68,.89,.63-.01,.75,.43,.49,.88-.99,1.72-1.3,3.56-1.13,5.51,.04,.45-.24,.85-.55,1.16-3.1,3.03-2.12,4.89,.27,7.3,3.54,3.57,7.95,4.87,12.95,4.04,1.77-.3,3.26-2.22,3.42-4.51,.11-1.55,.36-3.09,.25-4.68,1.69,.12,2.28,1.45,3.19,2.33Zm-24.05,1.59c.61-.62,.46-1.29,.04-1.84-.48-.63-.49-1.17-.17-1.86,.41-.9,.34-1.71-.76-2.12-.83-.3-1.57,.15-2.01,1.17-.3,.72-.29,1.48-.47,2.29,.04,1.04,.48,1.93,1.42,2.52,.67,.42,1.33,.47,1.95-.16ZM30.23,23.02c.43-.76,.6-1.54-.24-2.11-.79-.55-1.62-.26-2.12,.39-.51,.67-1.1,.95-1.87,1.12-.85,.19-1.53,.71-1.42,1.66,.13,1.02,.92,1.31,1.96,1.21,1.63,.02,2.87-.79,3.69-2.27Z"/><path class="cls-2" d="M88.1,42.88c-1.98,4.54-5.58,7.64-9.42,10.69-.11-1.61,1.24-1.92,1.97-2.71,2.49-2.66,5.31-5.01,7.45-7.98Z"/><path class="cls-1" d="M80.98,27.65c.43,1.31,.7,2.72-.29,4.03-2.3-2.55-6.66-3.09-10.72-1.8,.28-3.83,4.18-7.28,8.03-5.74,1.56,.62,2.48,1.99,2.98,3.51Z"/><path class="cls-1" d="M79.29,34.46c1.69,1.76,.58,3.84,.34,5.79-.13,1.02-.71,1.58-1.85,1.6-4.1,.1-7.63-1-10.11-4.51-.29-.41-.33-.67-.03-1.13,.93-1.43,2.06-2.61,3.51-3.48,.92-.56,1.93-.69,3.05-.55,2.1-.26,3.72,.85,5.09,2.28Z"/><path d="M74.04,54.54l1.25,2.62c-.07,0-.13,.01-.17,.04-1.42,.97-2.58-.07-3.8-.5-.79-.27-1.53-.65-2.36-1.02-.1,1.49-1.23,1.92-2.22,2.6-2.82,1.91-5.71,1.63-8.63,.44-2.52-1.02-5.02-4.43-4.72-7.11,.15-1.35-.45-1.84-1.55-2.29-2.24-.92-4.44-1.93-6.6-3-.78-.38-1.37-.29-2.07,.12-2.98,1.75-6.18,2.22-9.52,1.29-1.23-.35-2.23-1.1-3-2.21-.92-1.31-1.87-2.57-2.24-4.17-.12-.51-.29-1.01-.14-1.52,.22-.78-.13-1.26-.76-1.54-2.45-1.08-4.81-2.33-7.05-3.77-1.81-1.17-3.31-.64-4.89,.32-2.04,1.24-4.13,1.23-6.24,.16-3.26-1.64-5.18-5.06-4.75-8.58,.06-.47-.17-.65-.44-.88-.65-.52-1.24-1.15-1.88-1.64C.59,22.66,0,20.37,.34,18.29l2.79,.41c-.05,.28,0,.6,.05,.87,.12,.53,.21,1.18,.56,1.55,1.89,2.05,4.13,3.71,6.6,4.98,1,.51,2.12,.86,3.13,1.4,2.16,1.16,4.27,2.45,6.47,3.51,2.72,1.3,5.32,2.81,7.99,4.2,3.84,2,7.73,3.86,11.75,5.49,2.9,1.18,5.76,2.45,8.62,3.72,3.25,1.46,6.45,3.05,9.73,4.43,2.99,1.25,6.09,2.2,9.2,3.13,2.14,.64,4.27,1.47,6.32,2.42,.18,.08,.34,.14,.49,.14Zm-17.62-1.72c1.82,4.09,6.66,5.03,9.88,2.19-3.05-1.08-5.99-2.13-8.92-3.17-.36-.12-.75-.57-1.06-.25-.32,.32-.08,.84,.1,1.23Zm-16.02-8.27c-1-.81-2.15-1.12-3.21-1.59-1.7-.76-3.41-1.5-5.12-2.25-.22-.09-.43-.23-.66-.05-.15,.13-.06,.3,.01,.43,.8,1.58,1.46,3.37,3.39,3.87,1.87,.49,3.74,.03,5.59-.41ZM7.45,28.16c.61,3.06,4.87,6.18,7.42,3.54-2.36-1.38-4.71-2.71-7.42-3.54Z"/><path class="cls-2" d="M75.49,52.63c-.32,.54-.64,1.03-.92,1.54-.15,.27-.33,.37-.53,.37-.15,0-.31-.06-.49-.14-2.05-.95-4.18-1.78-6.32-2.42-3.11-.93-6.21-1.88-9.2-3.13-3.28-1.38-6.48-2.97-9.73-4.43-2.86-1.27-5.72-2.54-8.62-3.72-4.02-1.63-7.91-3.49-11.75-5.49-2.67-1.39-5.27-2.9-7.99-4.2-2.2-1.06-4.31-2.35-6.47-3.51-1.01-.54-2.13-.89-3.13-1.4-2.47-1.27-4.71-2.93-6.6-4.98-.35-.37-.44-1.02-.56-1.55-.05-.27-.1-.59-.05-.87,.04-.24,.15-.44,.39-.55,.63-.26,.62,.55,.91,.87,1.45,1.61,3.03,3.04,4.86,4.2,1.97,1.26,4.15,2.14,6.18,3.28,1.77,.99,3.63,1.73,5.45,2.58,1.75,.82,3.47,1.74,5.22,2.56,2.08,.98,4.17,1.96,6.26,2.92,1.01,.47,2.02,.93,3.03,1.39,2.64,1.2,5.44,2.08,7.94,3.64,1.16,.73,2.52,1.15,3.8,1.69,4.32,1.81,8.65,3.55,13.07,5.11,1.86,.66,3.49,1.84,5.32,2.62,3.23,1.39,6.37,2.98,9.93,3.62Z"/><path class="cls-2" d="M69.02,22.67c-1.18,.35-2.17-.1-3.12-.7,1.23-.46,2.08,.49,3.12,.7Z"/><path class="cls-3" d="M66.3,55.01c-3.22,2.84-8.06,1.9-9.88-2.19-.18-.39-.42-.91-.1-1.23,.31-.32,.7,.13,1.06,.25,2.93,1.04,5.87,2.09,8.92,3.17Z"/><path d="M62.25,37.52c.42,.55,.57,1.22-.04,1.84-.62,.63-1.28,.58-1.95,.16-.94-.59-1.38-1.48-1.42-2.52,.18-.81,.17-1.57,.47-2.29,.44-1.02,1.18-1.47,2.01-1.17,1.1,.41,1.17,1.22,.76,2.12-.32,.69-.31,1.23,.17,1.86Z"/><path d="M58.93,18.27l-2.86,.42c-.05-.17-.11-.34-.18-.52-.45-1.12-.45-2.48-1.8-3.21-3.87-2.09-7.09-.74-10.03,1.41-.72,.53-1.55,1.1-1.94,2.06,1.55-.36,2.94-.6,4.18-.72l.26,2.62c-2.38,.32-4.84,1.74-6.17,3.78-.2,.31-.2,.48,0,.82,2.26,3.81,6.1,4.77,10,5.6l-.23,2.91c-2.38-.17-4.6-1.1-6.83-1.97-1.84-.73-3.17-2.14-4.48-3.59-1.85-2.05-2.46-2.78-1.1-5.19,.16-.29,.33-.51,.03-.83-.49-.53-.53-1.22-.64-1.89-.35-2.33-.26-4.63,.48-6.9-1.62-.17-2.98-.83-4.36-1.44-.47-.21-.9-.5-1.19,.3-.54,1.5-1.43,2.83-2.32,4.13-.82,1.21-1.79,2.38-3.23,2.89-.52,.18-.76,.42-1,.86-.72,1.37-1.8,2.17-3.44,2.07-4.12-.24-7.58-1.87-10.34-4.93-1.32-1.47-1.41-3-.53-4.74,.59-1.16,1.02-2.4,1.74-3.51,.94-1.43,2.08-2.53,3.74-3.12,1.29-.47,2.69-.18,4.08-.67-.99-.68-2.05-.9-3.01-1.16-1.34-.36-2.9-.87-4.15,.43-2.64,2.77-5.31,5.51-7.25,8.86-.39,.68-.53,1.39-.45,2.16,.18,1.77,1.47,2.78,2.68,3.78,3.19,2.65,7,4.32,10.65,6.16,2.35,1.19,4.8,2.25,7.23,3.32,2.41,1.06,4.72,2.38,7.11,3.52l-1.19,2.58c-2.09-.96-4.18-1.94-6.26-2.92-1.75-.82-3.47-1.74-5.22-2.56-1.82-.85-3.68-1.59-5.45-2.58-2.03-1.14-4.21-2.02-6.18-3.28-1.83-1.16-3.41-2.59-4.86-4.2-.29-.32-.28-1.13-.91-.87-.24,.11-.35,.31-.39,.55l-2.79-.41c.22-1.45,.88-2.8,1.91-3.64,.58-.47,.83-1.14,1.07-1.9,.48-1.55,1.36-3,2.42-4.2,1.76-1.99,3.35-4.12,5.26-5.99C13.14,.46,16.2-.28,18.98,.92c1.16,.51,2.35,.96,3.51,1.46,.48,.2,.8,.14,1.26-.19C26.21,.46,28.97-.21,31.9,.59c1.71,.46,3,1.76,3.69,3.34,.64,1.45,1.89,1.83,3.08,2.32,1.58,.66,2.54,1.93,2.99,3.37,.31,1-.33,2.21-.78,3.26-.38,.91-.62,1.84-.68,2.85,1.82-2.03,4.09-3.29,6.48-4.2,1.77-.68,3.74-1.16,5.68-.3,.65,.29,1.36,.33,2.04,.56,3.23,1.05,3.87,3.75,4.53,6.48Zm-20.52-8.3c.12-.26-.05-.53-.24-.62-1.28-.61-2.5-1.52-4.43-.95,1.46,.92,2.78,1.38,4.15,1.72,.18,.04,.43,.06,.52-.15Zm-5.88-4.3c.34-.14,.62-.37,.28-.69-.55-.5-.97-1.19-1.72-1.43-2.29-.73-4.25,.04-6.04,1.42-.46,.35-1.05,.77-1.17,1.27-.13,.48,.73,.54,1.06,.94,1.62,1.9,2.94,3.89,2.39,6.63,.23-.05,.39-.04,.43-.1,1.04-1.58,1.86-3.29,2.5-5.07,.45-1.25,.93-2.42,2.27-2.97Zm-8.06,7.56c.14-2.12-.97-3.72-3.17-4.77-1.43-.68-3.95-.33-5.03,.7-.17,.16-.34,.34-.45,.54-.6,1.12-1.16,2.26-1.74,3.38-.58,1.13-.24,2.06,.48,2.71,1.93,1.73,4.3,2.66,6.83,3.1,.66,.12,1.3-.16,1.64-.9,.72-1.59,1.54-3.14,1.44-4.76Z"/><path class="cls-1" d="M56.07,18.69c.35,1.16,.23,2.18-.05,3.93-2.03-3.97-4.71-5.42-9.72-4.91-1.24,.12-2.63,.36-4.18,.72,.39-.96,1.22-1.53,1.94-2.06,2.94-2.15,6.16-3.5,10.03-1.41,1.35,.73,1.35,2.09,1.8,3.21,.07,.18,.13,.35,.18,.52Z"/><path class="cls-1" d="M53.25,24.18c.05,1.16-.34,2.34-.53,3.51-.09,.59-.29,1.14-.47,1.71-.32,.95-.92,1.23-1.85,1.13-3.9-.83-7.74-1.79-10-5.6-.21-.34-.21-.51,0-.82,1.33-2.04,3.79-3.46,6.17-3.78,1.3-.18,2.58-.03,3.64,.52,1.43,.74,2.96,1.49,3.05,3.33Z"/><path class="cls-2" d="M38.17,9.35c.19,.09,.36,.36,.24,.62-.09,.21-.34,.19-.52,.15-1.37-.34-2.69-.8-4.15-1.72,1.93-.57,3.15,.34,4.43,.95Z"/><path class="cls-3" d="M37.19,42.96c1.06,.47,2.21,.78,3.21,1.59-1.85,.44-3.72,.9-5.59,.41-1.93-.5-2.59-2.29-3.39-3.87-.07-.13-.16-.3-.01-.43,.23-.18,.44-.04,.66,.05,1.71,.75,3.42,1.49,5.12,2.25Z"/><path class="cls-1" d="M32.81,4.98c.34,.32,.06,.55-.28,.69-1.34,.55-1.82,1.72-2.27,2.97-.64,1.78-1.46,3.49-2.5,5.07-.04,.06-.2,.05-.43,.1,.55-2.74-.77-4.73-2.39-6.63-.33-.4-1.19-.46-1.06-.94,.12-.5,.71-.92,1.17-1.27,1.79-1.38,3.75-2.15,6.04-1.42,.75,.24,1.17,.93,1.72,1.43Z"/><path d="M29.99,20.91c.84,.57,.67,1.35,.24,2.11-.82,1.48-2.06,2.29-3.69,2.27-1.04,.1-1.83-.19-1.96-1.21-.11-.95,.57-1.47,1.42-1.66,.77-.17,1.36-.45,1.87-1.12,.5-.65,1.33-.94,2.12-.39Z"/><path class="cls-1" d="M21.3,8.46c2.2,1.05,3.31,2.65,3.17,4.77,.1,1.62-.72,3.17-1.44,4.76-.34,.74-.98,1.02-1.64,.9-2.53-.44-4.9-1.37-6.83-3.1-.72-.65-1.06-1.58-.48-2.71,.58-1.12,1.14-2.26,1.74-3.38,.11-.2,.28-.38,.45-.54,1.08-1.03,3.6-1.38,5.03-.7Z"/><path class="cls-3" d="M14.87,31.7c-2.55,2.64-6.81-.48-7.42-3.54,2.71,.83,5.06,2.16,7.42,3.54Z"/></g></g></svg>