<?xml version="1.0" encoding="UTF-8"?><svg id="Layer_2" xmlns="http://www.w3.org/2000/svg" viewBox="0 0 57.37 182.75"><defs><style>.cls-1{fill:#f9da69;}</style></defs><g id="Layer_6"><g><path class="cls-1" d="M51.29,15.24c1.96,3.08,2.68,6.42,2.57,10.08-.08,2.55-.15,5.08-.72,7.55-.77,3.39-1.9,6.69-3,9.97-.64,1.91-1.2,3.93-2.35,5.7-.65,1-.93,2.32-1.44,3.44-.62,1.38-1.43,2.72-2.37,3.95-1.61,2.11-3.06,4.32-4.08,6.79-.54,1.32-1.32,2.53-1.86,3.86-.97,2.4-1.54,4.91-2.16,7.41-.62,2.51-.4,5.12-.81,7.64-.66,4.08-.46,8.19-.78,12.28-.3,3.94-.18,7.94,.28,11.91,.14,1.23,.1,2.51,.14,3.76,.08,2.7,.1,5.4,.19,8.1,.12,3.4-.16,6.82,0,10.22,.14,3.06,.28,6.12,.33,9.19,.05,2.87,.2,5.76,.09,8.59-.16,4.04-.25,8.08-.43,12.11-.16,3.52-.62,7.01-.75,10.53-.1,2.8-.8,5.59-2.02,8.16-.73,1.55-2.48,3.39-4.01,2.66-1.33-.64-2.56-1.28-3.11-3.09-.77-2.51-.57-5.03-.89-7.53-.46-4.2-.19-8.42-.46-12.62-.21-3.3-.58-6.6-.38-9.9,.23-3.94,.15-7.88,.31-11.82,.2-5.08,.33-10.16,.33-15.25,0-3.54,.08-7.08,.3-10.61,.23-3.69,.49-7.38,.45-11.07-.04-3.85-.26-7.69-.85-11.52-.52-3.29-1.16-6.56-1.86-9.8-.32-1.49-.89-3-1.68-4.28-1.66-2.67-2.95-5.51-4.51-8.22-.95-1.67-2.41-2.94-3.45-4.53-.67-1.02-1.6-1.86-2.1-3.02-.35-.8-.84-1.53-1.27-2.28-1.69-2.9-3.63-5.72-4.27-9.07-.87-4.62-1.53-9.28-.87-13.99,.37-2.65,.3-5.37,1.35-7.92,1.24-3,2.29-6.16,4.51-8.57,2.92-3.16,5.98-6.27,10.36-7.5,.87-.24,1.75-.55,2.54-.99,2.07-1.15,4.39-1.25,6.62-1.71,1.74-.37,3.47,.05,5.21-.23,2.01-.31,3.69,.85,5.41,1.62,4.85,2.15,8.65,5.53,11.5,10Zm-14.16,42.05c.63-.88,.85-1.81-.03-2.56-.86-.74-1.77-.35-2.43,.38-2.3,2.52-5.26,2.05-8.12,1.76-2.72-.27-4.63-2.06-6.47-3.89-2.49-2.49-4.06-5.53-5.29-8.78-1-2.64-1.09-5.34-.5-8.08,.3-1.66-.61-2.54-1.43-2.62-1.02-.1-1.95,.72-2.08,2.02-.26,2.41-.47,4.82,.11,7.23,.92,3.84,2.21,7.52,4.87,10.52,1.47,1.67,2.84,3.47,4.68,4.75,3.48,2.43,7.4,2.99,11.48,2.32,2.07-.34,3.92-1.26,5.21-3.05Z"/><path d="M57.3,23.87c.21,3.46-.01,6.86-.94,10.19-.91,3.27-1.94,6.51-2.98,9.74-1.48,4.62-3.36,9.08-5.91,13.2-1.54,2.49-3.33,4.82-4.66,7.46-1.51,2.99-2.71,6.11-3.39,9.37-.4,1.88-.9,3.82-.61,5.79,.11,.74-.12,1.45-.28,2.12-.48,1.92-.37,3.85-.43,5.78-.11,3.34-.32,6.67-.38,10.01-.06,3.44-.02,6.86,.49,10.29,.34,2.33-.09,4.72,.06,7.09,.19,3.09,.02,6.18,.23,9.28,.2,2.84,.03,5.71,.07,8.57,.03,2.06,.22,4.13,.21,6.19-.03,4.21-.21,8.43-.22,12.65-.02,4.01-.27,8.02-.58,12-.31,4.01-.29,8.1-1.67,11.98-1.19,3.35-2.86,6.18-6.68,7.06-1.58,.37-2.93-.24-4.18-.94-.68-.38-1.43-.78-2.05-1.38-1.51-1.46-1.92-3.37-2.24-5.28-.21-1.21-.58-2.41-.32-3.78-.53-4.28-.37-8.71-.66-13.1-.24-3.56-.22-7.12-.45-10.68-.18-2.61,.12-5.24,.17-7.86,.06-3.48,.21-6.95,.15-10.43-.03-1.48,.26-2.97,.22-4.46-.04-1.53,.11-3.05,.12-4.58,.02-2.08,.2-4.18,.06-6.26-.2-2.97,.67-5.86,.52-8.85-.08-1.58,.16-3.25,.16-4.85,0-1.93,.25-3.85,.05-5.81-.28-2.73-.52-5.48-.88-8.2-.28-2.11-.8-4.19-1.11-6.29-.5-3.43-1.82-6.53-3.63-9.45-1.27-2.05-2.19-4.29-3.54-6.3-.96-1.44-2.17-2.64-3.18-4.03-2.49-3.46-4.44-7.21-6.2-11.06-1.71-3.73-2.11-7.73-2.53-11.76-.34-3.3,.19-6.5,.42-9.73,.23-3.32,1.41-6.42,2.74-9.49,.98-2.28,2.14-4.42,3.74-6.28,1.52-1.76,3.17-3.39,5.04-4.81,2.26-1.73,4.72-2.97,7.4-3.94,2.83-1.03,5.52-2.46,8.61-2.62,2.83-.14,5.7-.79,8.49-.13,2.02,.48,3.95,1.44,5.85,2.32,2.94,1.36,5.37,3.43,7.68,5.68,2.63,2.56,4.61,5.47,6.07,8.86,.96,2.22,1.01,4.43,1.15,6.72Zm-3.44,1.45c.11-3.66-.61-7-2.57-10.08-2.85-4.47-6.65-7.85-11.5-10-1.72-.77-3.4-1.93-5.41-1.62-1.74,.28-3.47-.14-5.21,.23-2.23,.46-4.55,.56-6.62,1.71-.79,.44-1.67,.75-2.54,.99-4.38,1.23-7.44,4.34-10.36,7.5-2.22,2.41-3.27,5.57-4.51,8.57-1.05,2.55-.98,5.27-1.35,7.92-.66,4.71,0,9.37,.87,13.99,.64,3.35,2.58,6.17,4.27,9.07,.43,.75,.92,1.48,1.27,2.28,.5,1.16,1.43,2,2.1,3.02,1.04,1.59,2.5,2.86,3.45,4.53,1.56,2.71,2.85,5.55,4.51,8.22,.79,1.28,1.36,2.79,1.68,4.28,.7,3.24,1.34,6.51,1.86,9.8,.59,3.83,.81,7.67,.85,11.52,.04,3.69-.22,7.38-.45,11.07-.22,3.53-.3,7.07-.3,10.61,0,5.09-.13,10.17-.33,15.25-.16,3.94-.08,7.88-.31,11.82-.2,3.3,.17,6.6,.38,9.9,.27,4.2,0,8.42,.46,12.62,.32,2.5,.12,5.02,.89,7.53,.55,1.81,1.78,2.45,3.11,3.09,1.53,.73,3.28-1.11,4.01-2.66,1.22-2.57,1.92-5.36,2.02-8.16,.13-3.52,.59-7.01,.75-10.53,.18-4.03,.27-8.07,.43-12.11,.11-2.83-.04-5.72-.09-8.59-.05-3.07-.19-6.13-.33-9.19-.15-3.4,.13-6.82,0-10.22-.09-2.7-.11-5.4-.19-8.1-.04-1.25,0-2.53-.14-3.76-.46-3.97-.58-7.97-.28-11.91,.32-4.09,.12-8.2,.78-12.28,.41-2.52,.19-5.13,.81-7.64,.62-2.5,1.19-5.01,2.16-7.41,.54-1.33,1.32-2.54,1.86-3.86,1.02-2.47,2.47-4.68,4.08-6.79,.94-1.23,1.75-2.57,2.37-3.95,.51-1.12,.79-2.44,1.44-3.44,1.15-1.77,1.71-3.79,2.35-5.7,1.1-3.28,2.23-6.58,3-9.97,.57-2.47,.64-5,.72-7.55Z"/><path d="M37.1,54.73c.88,.75,.66,1.68,.03,2.56-1.29,1.79-3.14,2.71-5.21,3.05-4.08,.67-8,.11-11.48-2.32-1.84-1.28-3.21-3.08-4.68-4.75-2.66-3-3.95-6.68-4.87-10.52-.58-2.41-.37-4.82-.11-7.23,.13-1.3,1.06-2.12,2.08-2.02,.82,.08,1.73,.96,1.43,2.62-.59,2.74-.5,5.44,.5,8.08,1.23,3.25,2.8,6.29,5.29,8.78,1.84,1.83,3.75,3.62,6.47,3.89,2.86,.29,5.82,.76,8.12-1.76,.66-.73,1.57-1.12,2.43-.38Z"/></g></g></svg>