<?xml version="1.0" encoding="UTF-8"?><svg id="Layer_2" xmlns="http://www.w3.org/2000/svg" viewBox="0 0 185.98 212.49"><defs><style>.cls-1{fill:#f3a2c5;}.cls-2{fill:#f9e0e9;}.cls-3{fill:#f9da69;}.cls-4{fill:#ee5d67;}.cls-5{fill:#fff;}.cls-6{fill:#cce8f7;}.cls-7{fill:#105375;}</style></defs><g id="Layer_4"><g><path d="M185.72,192.74c.01,.41-.19,.63-.53,.81-.99,.52-2.02,.92-3.03,1.4-1.03,.5-2.02,1.08-2.94,1.75-2.28,1.65-4.84,2.69-7.42,3.72-.46,.19-.92,.36-1.38,.55-2.08,.87-4.29,1.12-6.5,1.34-.93,.09-1.87,.11-2.81,.17-1.25,0-2.51,0-3.76-.09-2.18-.19-4.35-.53-6.48-1.08-3.08-.8-5.91-2.15-8.63-3.77-2.16-1.29-4.08-2.86-5.66-4.78-1-1.22-1.77-2.6-2.23-4.15-.64-2.18-.77-4.38-.34-6.6,.44-2.23,1.23-4.33,2.58-6.17,.73-1.01,1.7-1.75,2.8-2.35,2-1.07,4.13-1.52,6.4-1.58,2.12-.05,4.1,.38,6.05,1.18,2.17,.89,4.29,1.87,6.27,3.13,1.67,1.07,3.3,2.21,4.93,3.35,3.63,2.53,7.49,4.54,11.73,5.85,2.23,.69,4.5,1.24,6.79,1.73,1.2,.26,2.4,.51,3.6,.74,.39,.07,.56,.23,.56,.63-.01,1.41-.01,2.81,0,4.22Zm-.33-.88c-.36-.06-.66-.07-.93,.03-1.88,.72-3.81,1.31-5.6,2.25-1.34,.71-2.7,1.41-4.14,1.88-3.87,1.25-7.85,1.82-11.92,1.8-.46,0-.93,.02-1.4,.06-1.73,.17-3.46,.06-5.12-.45-2.39-.74-4.78-1.52-7-2.74-2.13-1.18-4.1-2.57-5.92-4.2-1.26-1.13-2.44-2.34-3.75-3.42-1.09-.89-2.16-1.8-3.03-2.93-.38-.49-.72-1.05-1.26-1.45-.36,.7-.19,1.41-.21,2.1-.04,1.63,.25,3.21,.97,4.68,1.18,2.43,2.98,4.32,5.15,5.86,1.1,.78,2.25,1.49,3.45,2.1,1.44,.72,2.86,1.45,4.39,1.98,1.66,.57,3.36,.96,5.09,1.25,1.47,.25,2.95,.45,4.44,.51,2.42,.09,4.85-.06,7.25-.38,.83-.11,1.67-.24,2.49-.5,1.31-.4,2.57-.94,3.86-1.42,2.06-.76,4.05-1.68,5.85-2.95,1.75-1.24,3.63-2.23,5.6-3.07,.58-.25,1.22-.49,1.74-.99Zm-2.2-2.87s0-.09,0-.13c-1.1-.25-2.2-.51-3.31-.74-2.12-.44-4.21-1-6.26-1.68-1.85-.62-3.64-1.41-5.4-2.27-2.7-1.3-5.16-2.98-7.6-4.69-1.29-.9-2.59-1.8-3.95-2.61-1.51-.89-3.08-1.67-4.7-2.34-1.29-.54-2.6-1.03-4.01-1.23-1.29-.19-2.56-.13-3.84,.03-2.3,.3-4.36,1.11-6.04,2.75-.48,.47-.93,1.03-1.15,1.77,.77-.14,1.48-.3,2.22-.29,1.76,.03,3.48,.4,5.17,.84,2.61,.67,5.05,1.84,7.57,2.75,2.99,1.08,5.93,2.3,8.92,3.4,2.96,1.08,5.84,2.4,8.93,3.11,1.59,.37,3.19,.69,4.82,.86,2.08,.22,4.18,.27,6.27,.46,.79,.07,1.58,0,2.37,0Zm-.09,1.52c-.9-.28-1.76-.19-2.59-.27-2.24-.21-4.5-.2-6.73-.49-1.54-.19-3.05-.49-4.55-.86-1.93-.48-3.79-1.2-5.65-1.91-3.55-1.36-7.12-2.66-10.67-4-2.1-.8-4.18-1.66-6.28-2.46-2.28-.87-4.65-1.36-7.06-1.66-.4-.05-.82,0-1.23,0-.76,0-1.15,.58-1.62,1.14,.75,.58,1.43,1.19,2.19,1.66,2.3,1.4,4.61,2.78,6.94,4.12,2.1,1.21,4.27,2.31,6.57,3.1,1.21,.42,2.4,.91,3.65,1.23,1.76,.44,3.52,.82,5.3,1.16,2.21,.42,4.42,.82,6.67,.89,1.96,.05,3.91-.1,5.86-.24,.56-.04,1.11-.06,1.66-.12,1.37-.15,2.73-.32,4.09-.49,1.16-.14,2.3-.34,3.45-.81Zm-4.82,2.29c-.33-.07-.63,.09-.95,.1-1.64,.04-3.26,.29-4.89,.41-3.03,.22-6.04,.2-9.02-.31-3.02-.51-6.04-1.07-8.96-2.03-1.85-.61-3.7-1.25-5.48-2.09-1.69-.8-3.33-1.69-4.95-2.64-2.14-1.26-4.31-2.48-6.38-3.86-.5-.33-.88-.85-1.51-1,.68,1.07,1.44,2.09,2.35,2.95,1.85,1.75,3.81,3.37,5.67,5.12,.76,.72,1.56,1.42,2.43,2.02,1.97,1.37,3.99,2.63,6.3,3.42,1.27,.43,2.52,.94,3.8,1.33,.64,.2,1.3,.29,1.98,.36,1.73,.16,3.46-.02,5.18-.06,.96-.02,1.94-.01,2.89-.13,1.8-.24,3.58-.57,5.34-.99,2.06-.49,4-1.25,5.86-2.24,.15-.08,.34-.13,.34-.36Z"/><path class="cls-1" d="M184.46,191.89c.27-.1,.57-.09,.93-.03-.52,.5-1.16,.74-1.74,.99-1.97,.84-3.85,1.83-5.6,3.07-1.8,1.27-3.79,2.19-5.85,2.95-1.29,.48-2.55,1.02-3.86,1.42-.82,.26-1.66,.39-2.49,.5-2.4,.32-4.83,.47-7.25,.38-1.49-.06-2.97-.26-4.44-.51-1.73-.29-3.43-.68-5.09-1.25-1.53-.53-2.95-1.26-4.39-1.98-1.2-.61-2.35-1.32-3.45-2.1-2.17-1.54-3.97-3.43-5.15-5.86-.72-1.47-1.01-3.05-.97-4.68,.02-.69-.15-1.4,.21-2.1,.54,.4,.88,.96,1.26,1.45,.87,1.13,1.94,2.04,3.03,2.93,1.31,1.08,2.49,2.29,3.75,3.42,1.82,1.63,3.79,3.02,5.92,4.2,2.22,1.22,4.61,2,7,2.74,1.66,.51,3.39,.62,5.12,.45,.47-.04,.94-.06,1.4-.06,4.07,.02,8.05-.55,11.92-1.8,1.44-.47,2.8-1.17,4.14-1.88,1.79-.94,3.72-1.53,5.6-2.25Z"/><path class="cls-1" d="M183.18,188.86s0,.09,0,.13c-.79,0-1.58,.06-2.37,0-2.09-.19-4.19-.24-6.27-.46-1.63-.17-3.23-.49-4.82-.86-3.09-.71-5.97-2.03-8.93-3.11-2.99-1.1-5.93-2.32-8.92-3.4-2.52-.91-4.96-2.08-7.57-2.75-1.69-.44-3.41-.81-5.17-.84-.74,0-1.45,.15-2.22,.29,.22-.74,.67-1.3,1.15-1.77,1.68-1.64,3.74-2.45,6.04-2.75,1.28-.16,2.55-.22,3.84-.03,1.41,.2,2.72,.69,4.01,1.23,1.62,.67,3.19,1.45,4.7,2.34,1.36,.81,2.66,1.71,3.95,2.61,2.44,1.71,4.9,3.39,7.6,4.69,1.76,.86,3.55,1.65,5.4,2.27,2.05,.68,4.14,1.24,6.26,1.68,1.11,.23,2.21,.49,3.31,.74Z"/><path class="cls-1" d="M180.51,190.24c.83,.08,1.69,0,2.59,.27-1.15,.47-2.29,.67-3.45,.81-1.36,.17-2.72,.34-4.09,.49-.55,.06-1.1,.08-1.66,.12-1.95,.14-3.9,.29-5.86,.24-2.25-.07-4.46-.47-6.67-.89-1.78-.34-3.54-.72-5.3-1.16-1.25-.32-2.44-.81-3.65-1.23-2.3-.79-4.47-1.89-6.57-3.1-2.33-1.34-4.64-2.72-6.94-4.12-.76-.47-1.44-1.08-2.19-1.66,.47-.56,.86-1.13,1.62-1.14,.41,0,.83-.06,1.23,0,2.41,.3,4.78,.79,7.06,1.66,2.1,.8,4.18,1.66,6.28,2.46,3.55,1.34,7.12,2.64,10.67,4,1.86,.71,3.72,1.43,5.65,1.91,1.5,.37,3.01,.67,4.55,.86,2.23,.29,4.49,.28,6.73,.49Z"/><path class="cls-1" d="M177.33,192.9c.32,0,.62-.17,.95-.1,0,.23-.19,.28-.34,.36-1.86,.99-3.8,1.75-5.86,2.24-1.76,.42-3.54,.75-5.34,.99-.95,.12-1.93,.11-2.89,.13-1.72,.04-3.45,.22-5.18,.06-.68-.07-1.34-.16-1.98-.36-1.28-.39-2.53-.9-3.8-1.33-2.31-.79-4.33-2.05-6.3-3.42-.87-.6-1.67-1.3-2.43-2.02-1.86-1.75-3.82-3.37-5.67-5.12-.91-.86-1.67-1.88-2.35-2.95,.63,.15,1.01,.67,1.51,1,2.07,1.38,4.24,2.6,6.38,3.86,1.62,.95,3.26,1.84,4.95,2.64,1.78,.84,3.63,1.48,5.48,2.09,2.92,.96,5.94,1.52,8.96,2.03,2.98,.51,5.99,.53,9.02,.31,1.63-.12,3.25-.37,4.89-.41Z"/><path d="M157.48,156.08c.34,.61,.14,1.17-.22,1.73-.91,1.43-1.91,2.8-3.2,3.92-1.06,.92-2.26,1.66-3.41,2.46-.28,.19-.62,.32-.97,.36-.82,.1-1.29-.37-1.2-1.19,.08-.82,.57-1.47,.97-2.14,.65-1.08,1.55-1.97,2.45-2.84,.83-.79,1.68-1.54,2.52-2.32,.09-.07,.17-.16,.24-.25,.46-.6,.45-.6,1.12-.62,.72,0,1.33,.25,1.7,.89Zm-1.35,1.07c.1-.15,.24-.32,.11-.47-.17-.19-.38-.07-.55,.05s-.33,.24-.49,.37c-.76,.6-1.39,1.34-2.13,1.97-1.27,1.09-2.31,2.38-3.07,3.92,1.03-.7,2.11-1.33,3.06-2.15,1.23-1.06,2.21-2.33,3.07-3.69Z"/><path class="cls-4" d="M156.24,156.68c.13,.15-.01,.32-.11,.47-.86,1.36-1.84,2.63-3.07,3.69-.95,.82-2.03,1.45-3.06,2.15,.76-1.54,1.8-2.83,3.07-3.92,.74-.63,1.37-1.37,2.13-1.97,.16-.13,.32-.25,.49-.37s.38-.24,.55-.05Z"/><path d="M144.44,156.36c.19,.09,.34,.21,.34,.46-.01,.29-.11,.57-.38,.63-1.37,.31-2.12,1.36-2.94,2.35-.28,.33-.54,.69-.89,.84-.49-.04-.73-.31-.89-.62-.27-.53-.62-.98-1.02-1.42-.31-.35-.55-.71-1.1-.75-.3-.03-.47-.34-.46-.66,.01-.3,.1-.65,.41-.71,.55-.1,.79-.48,.99-.9,.41-.87,.99-1.65,1.36-2.55,.27-.66,.97-.7,1.35-.08,.19,.31,.31,.69,.4,1.05,.26,1,1.01,1.52,1.86,1.94,.32,.16,.65,.28,.97,.42Zm-2.42,.92c.4-.33,.26-.53-.03-.73-.62-.44-1.23-.88-1.46-1.84-.49,.82-.87,1.47-1.27,2.1-.15,.23-.07,.36,.08,.53,.41,.48,.84,.93,1.19,1.53,.46-.65,.96-1.15,1.49-1.59Z"/><path class="cls-3" d="M141.99,156.55c.29,.2,.43,.4,.03,.73-.53,.44-1.03,.94-1.49,1.59-.35-.6-.78-1.05-1.19-1.53-.15-.17-.23-.3-.08-.53,.4-.63,.78-1.28,1.27-2.1,.23,.96,.84,1.4,1.46,1.84Z"/><path d="M139.56,200.56c.02,.96-.51,1.47-1.47,1.45-.32,0-.65-.02-.96-.11-2.36-.66-4.66-1.49-6.91-2.48-.84-.37-1.53-.98-2.25-1.51-.35-.26-.53-.64-.66-1.03-.24-.74,.17-1.47,.92-1.74,.32-.12,.63-.12,.8-.1,1.04,0,1.88,.2,2.71,.51,1.47,.56,2.95,1.11,4.42,1.68,1,.38,2.07,.81,2.8,1.72,.39,.48,.58,1.02,.6,1.61Zm-1.36-.04c.19-.35-.19-.63-.44-.87-.79-.79-1.81-1.16-2.83-1.51-1.05-.36-2.08-.78-3.11-1.17-.76-.28-1.56-.46-2.34-.67-.3-.08-.57,.04-.91,.17,.09,.31,.22,.5,.42,.63,.63,.42,1.23,.92,1.92,1.21,2.06,.9,4.18,1.65,6.33,2.29,.31,.09,.77,.27,.96-.08Z"/><path class="cls-4" d="M137.76,199.65c.25,.24,.63,.52,.44,.87s-.65,.17-.96,.08c-2.15-.64-4.27-1.39-6.33-2.29-.69-.29-1.29-.79-1.92-1.21-.2-.13-.33-.32-.42-.63,.34-.13,.61-.25,.91-.17,.78,.21,1.58,.39,2.34,.67,1.03,.39,2.06,.81,3.11,1.17,1.02,.35,2.04,.72,2.83,1.51Z"/><path d="M135.25,207.04c.29,.12,.5,.34,.49,.67-.02,.32-.25,.59-.54,.61-.96,.06-1.34,.74-1.71,1.45-.26,.51-.51,1.05-.77,1.57-.12,.23-.22,.49-.39,.68-.37,.4-.95,.24-1.08-.29-.04-.19-.03-.4-.06-.61-.14-1.02-.73-1.56-1.79-1.63-.33-.02-.56-.14-.66-.47-.11-.34-.05-.66,.26-.85,1.08-.68,1.55-1.69,1.7-2.91,.06-.47,.36-.72,.76-.72,.18-.02,.33,.07,.46,.2,.21,.2,.37,.44,.54,.68,.54,.77,1.24,1.31,2.2,1.46,.2,.04,.4,.08,.59,.16Zm-2.14,.96c-.05-.75-.95-.63-1.22-1.17-.01-.03-.1-.03-.21-.05-.25,.53-.51,1.07-.77,1.61,.35,.35,.7,.69,1.05,1.03,.02,.02,.06,.03,.16,.08,.38-.52,.54-1.11,.99-1.5Z"/><path d="M133.61,169.28c.31,.27,.49,.59,.36,.99-.13,.42-.52,.52-.92,.55-.16,0-.34-.1-.56,.08-.01,.27,.15,.46,.23,.68,.28,.84,.02,1.36-.83,1.6s-1.72,.35-2.6,.39c-.62,.02-.69,.14-.34,.67,.37,.54,.71,1.04,.06,1.61-.16,.13-.03,.32,.04,.48,.19,.46,.43,.89,.47,1.41,.06,.83-.18,1.27-.94,1.57-.32,.13-.66,.23-1.06,.37,.3,.69,.85,1.11,1.31,1.61,.22,.24,.48,.44,.67,.7,.31,.42,.16,.87-.34,1.04-.33,.11-.67,.18-1.03,.02-.23-.1-.5-.13-.76-.17-.08,0-.16,.04-.29,.07,.1,.56,.22,1.09,.28,1.64,.14,1.1-.15,1.48-1.24,1.71-.01,.29,.2,.48,.34,.69,.18,.26,.27,.52,.09,.81-.2,.33-.52,.41-.85,.33-.42-.11-.84-.26-1.24-.43-2.2-.94-4.39-1.91-6.59-2.84-3.15-1.33-6.2-2.87-9.16-4.58-1.52-.87-3.1-1.64-4.64-2.46-.36-.19-.7-.22-1.07-.03-1.6,.81-3.11,.53-4.55-.43-.53-.35-.98-.75-1.13-1.4-.09-.39-.35-.52-.72-.66-1.75-.66-3.47-1.38-5.2-2.09-.24-.1-.57-.21-.66-.4-.29-.61-.69-.42-1.14-.3-1.13,.28-2.28,.14-3.42,.15-1.17,0-2.32-.2-3.47-.46-1.05-.24-2.13-.4-3.19-.6-2.93-.58-5.77-1.48-8.58-2.48-1.76-.63-3.54-1.2-5.3-1.81-1.39-.47-2.7-1.11-4.01-1.77-2.65-1.31-5.21-2.77-7.77-4.24-2.59-1.48-5.04-3.18-7.44-4.94-1.93-1.42-3.9-2.79-5.77-4.3-1.89-1.52-3.7-3.13-5.46-4.8-1.58-1.5-3.06-3.07-4.52-4.68-1.28-1.4-2.44-2.91-3.58-4.44-1.27-1.7-2.57-3.4-3.74-5.18-1.27-1.93-2.53-3.87-3.59-5.92-.68-1.33-1.39-2.65-2-4.01-1.3-2.9-2.72-5.76-3.58-8.84-.71-2.54-1.32-5.1-1.76-7.7-.49-2.89-.92-5.78-1.22-8.7-.23-2.27-.38-4.55-.38-6.83,.01-3.54,.23-7.07,.59-10.6,.2-1.95,.42-3.9,.76-5.83,.28-1.59,.67-3.15,1.15-4.68,.45-1.42,.88-2.85,1.42-4.24,.65-1.66,1.4-3.28,2.39-4.78,.58-.87,1.1-1.79,1.73-2.64,.33-.44,.65-.89,.97-1.34,.14-.19,.25-.32,0-.58-.7-.73-.75-1.6-.32-2.51,.34-.71,.72-1.4,1.24-2,.23-.26,.27-.49,.17-.86-.58-2.1-1.96-3.55-3.69-4.74-1.39-.97-2.92-1.73-4.39-2.56-1.91-1.08-3.86-2.1-5.63-3.4-2.94-2.15-5.27-4.82-6.55-8.28-.74-1.99-.53-3.93,1.05-5.44,1.6-1.52,3.38-1.71,5.27-.49,1.09,.7,1.97,1.66,2.91,2.54,.45,.43,.94,.79,1.44,1.15,.19,.13,.41,.27,.63,.3,1.07,.19,1.9,0,2-1.28,.03-.5-.04-.98-.16-1.47-.56-2.21-1.86-4.03-3.02-5.92-.93-1.52-2.04-2.94-2.78-4.58-.65-1.41-1.29-2.83-1.52-4.38-.23-1.5-.21-3.05,.81-4.27,1.91-2.27,4.14-2.8,6.78-1.32,1.76,.99,2.81,2.61,3.57,4.42,.57,1.35,1.05,2.73,1.6,4.09,.23,.59,.48,1.17,.98,1.63,1,.92,2.29,.79,3.07-.33,.47-.67,.68-1.43,.71-2.23,.04-1.65-.16-3.27-.48-4.89-.3-1.55-.49-3.12-.4-4.71,.11-2.01,1.22-3.45,3.13-4.14,.5-.18,.98-.35,1.53-.35,1.76,.03,2.73,1.16,3.54,2.51,.69,1.13,.9,2.41,.94,3.7,.07,2.02,.1,4.04,.06,6.06-.04,1.63,.12,3.27,.54,4.87,.18,.68,.45,1.33,.85,1.92,.75,1.09,1.93,1.18,2.8,.18,.39-.43,.71-.93,1.04-1.42,.66-.99,1.47-1.84,2.5-2.42,1.97-1.12,3.36-.92,4.83,.19,.5,.39,.82,.92,1.14,1.44,1.23,1.98,1.87,4.07,1.24,6.44-.32,1.18-.68,2.36-1.08,3.52-.44,1.27-.97,2.51-1.39,3.79-.42,1.27-.7,2.57-.79,3.93-.06,1.06-.17,2.1,.08,3.14,.03,.14,.03,.3,.08,.43,.47,1.15,.17,1.01,1.39,.91,.91-.08,1.82,.05,2.67,.35,1.27,.44,1.77,1.47,1.56,3,1.21,.32,2.48,.34,3.69,.67,3.06,.85,5.95,2.09,8.66,3.77,2.02,1.25,3.81,2.77,5.5,4.45,1.45,1.44,2.78,3,4.12,4.55,2.48,2.85,4.74,5.86,6.67,9.13,2.12,3.61,3.81,7.43,5.35,11.32,.63,1.59,1.06,3.27,1.44,4.95,.52,2.25,1,4.51,1.48,6.77,.8,3.84,1.5,7.69,2.29,11.53,.49,2.38,1.07,4.74,1.56,7.11,.71,3.47,1.65,6.88,2.53,10.3,.93,3.6,2.09,7.14,3.42,10.61,.53,1.36,1.03,2.74,1.58,4.09,.45,1.11,.96,2.2,1.44,3.3,.81,1.88,1.54,3.79,2.43,5.63,.95,1.97,1.9,3.96,3.22,5.73,.12,.17,.25,.38,.42,.44,.53,.18,.83,.62,1.22,.97,1.09,.98,2.06,2.07,2.94,3.24,.26,.34,.51,.4,.9,.32,1.75-.37,3,.61,3.02,2.41,0,.52,.12,.86,.58,1.13,1.39,.82,2.65,1.82,3.94,2.77,1.37,1.01,2.79,1.93,4.18,2.9,1.13,.79,2.23,1.61,3.35,2.41,1.72,1.22,3.41,2.47,5.12,3.7,.97,.71,1.87,1.5,2.78,2.29Zm-5.85-.22c1.19,.08,2.37,.45,3.75,.14-1.01-.83-1.93-1.54-2.89-2.2-2.38-1.66-4.66-3.44-7.06-5.07-2.52-1.7-4.96-3.51-7.44-5.28-.67-.47-.68-.49-1.29,.13-1.28,1.3-2.3,2.81-3.33,4.29-1.74,2.51-3.1,5.23-4.27,8.04-.87,2.08-1.21,4.27-1.29,6.51,0,.5,.14,.84,.62,1.03,.3,.12,.6,.23,.88,.38,1.92,1.05,3.84,2.13,5.76,3.17,1.31,.71,2.62,1.43,3.97,2.05,2.33,1.08,4.69,2.09,7.04,3.12,.44,.19,.9,.38,1.38,.44,.2-.76,0-1.42-.26-2.08-.12-.3-.25-.6-.32-.91-.2-.83,.04-1.13,.89-1.19,1.07-.08,2.15-.16,3.28-.08-.31-.54-.67-.92-1.04-1.3-.83-.85-1.39-1.87-1.95-2.9-.22-.4-.1-.73,.17-1.03,.23-.25,.53-.37,.84-.48,.58-.2,1.17-.38,1.72-.63,.74-.32,.77-.49,.4-1.18-.65-1.21-1.39-2.37-1.95-3.63-.31-.69-.1-1.16,.65-1.24,.57-.06,1.14-.14,1.74-.1Zm3.61,2.89c-.11-.93-.53-1.44-1.48-1.31-.11,0-.23-.06-.34-.07-.86-.04-1.71-.32-2.66-.14,.25,.53,.46,1.01,.7,1.47,.1,.2,.24,.41,.52,.42,1.11,.03,2.2-.09,3.26-.37Zm-3.66,6.31c.55-.14,.6-.23,.39-.8-.13-.35-.24-.72-.51-1.03-.67,.2-1.36,.33-1.96,.69,.47,1.27,.66,1.39,1.91,1.16,.05,0,.11,0,.17-.02Zm-1.88,6.69c.41-.09,.21-.39,.17-.63-.03-.2-.04-.41-.08-.6-.18-.91-.24-.95-1.19-.83-.06,0-.1,.05-.17,.09-.02,.59,.27,1.1,.48,1.63,.15,.39,.48,.41,.79,.34Zm-14.17-28.79c.6-.64,.77-1.42,.73-2.24-.05-.78-.77-1.25-1.5-1-.8,.28-1.55,.64-2.17,1.34,.34,.16,.61,.35,.85,.61,.43,.47,.93,.87,1.38,1.33,.27,.27,.44,.24,.71-.04Zm-1.48,1.76c.23-.26,.23-.48-.04-.73-.68-.63-1.34-1.29-2.01-1.93-.06-.05-.14-.08-.2-.12-.08,.03-.15,.04-.18,.08-.33,.4-.78,.77-.94,1.23-.12,.37,.52,.45,.76,.73,.15,.18,.34,.32,.52,.47,.38,.31,.74,.65,1.2,.86,.22,.1,.37,.11,.51-.11,.11-.17,.25-.33,.38-.48Zm-1.59-5.25c.28-.23,.28-.37,.07-.63-.92-1.1-1.88-2.16-2.89-3.18-.2-.21-.38-.22-.61-.07-.56,.37-1.13,.71-1.64,1.15-1.18,1.04-2.1,2.29-3.07,3.49-1.66,2.08-2.99,4.39-4.42,6.62-.87,1.35-1.73,2.71-2.27,4.24-.28,.8-.5,1.62-.81,2.41-.55,1.42-.96,2.88-1.24,4.38-.13,.67-.14,.76,.48,1.02,1.45,.62,2.92,1.2,4.38,1.79,.05,.02,.11-.01,.21-.01,.18-.48,.01-.93,.05-1.36,.25-2.26,.87-4.4,1.92-6.42,1.31-2.52,2.74-4.96,4.44-7.24,1.64-2.21,3.27-4.42,5.4-6.19Zm-.01,7.38c.14-.18,.09-.32-.08-.43-.96-.61-1.67-1.54-2.75-2.06-.48,.64-.96,1.29-1.46,1.97,.73,.44,1.39,.86,2.08,1.24,.4,.22,.82,.67,1.22,.56,.53-.16,.65-.85,.99-1.28Zm-1.69,2.74c.02-.22-.1-.32-.23-.37-.97-.42-1.78-1.11-2.73-1.57-.23-.12-.41-.17-.6,.1-.28,.4-.61,.78-.85,1.22-.18,.32-.18,.5,.18,.69,.64,.33,1.27,.71,1.9,1.08,.4,.24,.81,.72,1.18,.68,.5-.05,.46-.8,.77-1.18,.17-.2,.27-.45,.38-.65Zm-1.77,3.41c.09-.19,.03-.31-.14-.43-.99-.68-1.97-1.35-3.12-1.74-.27-.1-.41-.06-.58,.17-.41,.58-.65,1.23-1,1.84-.17,.29,.06,.41,.28,.52,.96,.47,1.93,.94,2.9,1.41,.15,.08,.33,.12,.34,.12,.29,.11,.38,0,.43-.08,.3-.6,.59-1.2,.89-1.81Zm-1.55,3.73c.14-.38-.01-.61-.39-.72-.87-.26-1.66-.71-2.47-1.12-.38-.2-.79-.34-1.23-.53-.26,.75-.62,1.41-.8,2.16-.05,.22-.05,.37,.21,.48,1.22,.49,2.43,.99,3.64,1.51,.39,.16,.56-.02,.63-.35,.1-.49,.23-.96,.41-1.43Zm.62-22.13c-.36-.75-.84-1.38-1.23-2.06-.25-.43-.49-.87-.72-1.31-.79-1.46-1.51-2.96-2.17-4.49-1.37-3.17-2.76-6.33-4.04-9.54-.6-1.51-1.17-3.05-1.71-4.59-.55-1.57-1.05-3.16-1.55-4.75-.28-.92-.49-1.87-.77-2.79-.75-2.4-1.25-4.86-1.91-7.29-.59-2.19-1-4.44-1.49-6.66-.33-1.45-.7-2.9-.99-4.35-.46-2.33-.82-4.67-1.31-6.99-.73-3.46-1.39-6.94-2.2-10.38-.54-2.29-1.1-4.57-2.03-6.72-1.18-2.74-2.39-5.46-3.79-8.11-1.19-2.23-2.5-4.37-4.02-6.38-1.79-2.38-3.71-4.67-5.71-6.88-1.56-1.73-3.2-3.35-5.03-4.76-2.77-2.1-5.84-3.65-9.17-4.69-2.02-.63-4.09-1.01-6.21-.93-1.54,.06-3.09,.1-4.64,.27-2.28,.25-4.47,.79-6.6,1.65-1.44,.58-2.81,1.28-4.21,1.96-1.5,.72-2.95,1.56-4.32,2.51-1.78,1.24-3.39,2.68-4.93,4.21-1.57,1.56-2.94,3.28-4.15,5.1-.73,1.09-1.4,2.23-2.03,3.39-.91,1.68-1.54,3.47-2.15,5.27-.86,2.56-1.55,5.16-1.91,7.84-.29,2.08-.51,4.17-.69,6.27-.25,2.89-.41,5.78-.37,8.67,.04,2.81,.21,5.62,.61,8.41,.18,1.21,.28,2.44,.48,3.65,.5,2.94,1.03,5.87,1.77,8.77,.65,2.54,1.49,4.99,2.58,7.35,.99,2.16,1.94,4.35,3.07,6.45,.07,.14,.14,.28,.22,.42,1.06,1.95,2.2,3.86,3.45,5.69,1.12,1.64,2.29,3.25,3.45,4.86,1.43,1.97,2.95,3.86,4.59,5.64,1.63,1.76,3.33,3.45,5.08,5.1,1.81,1.71,3.75,3.26,5.73,4.76,2.25,1.72,4.57,3.35,6.9,4.97,1.52,1.05,3.07,2.04,4.68,2.95,2.11,1.2,4.2,2.42,6.36,3.53,1.82,.94,3.66,1.82,5.6,2.48,1.63,.55,3.25,1.15,4.88,1.71,.66,.23,1.32,.45,1.98,.65,1.39,.45,2.8,.86,4.23,1.19,.94,.21,1.87,.46,2.81,.62,2.44,.43,4.85,1.15,7.38,.91,.48-.04,1,.15,1.34-.39,.05-.08,.29-.1,.41-.06,.58,.17,.7-.16,.8-.62,.19-.92,.38-1.83,.72-2.71,.2-.51,.38-1.04,.54-1.57,.63-2.15,1.45-4.19,2.72-6.05,1.2-1.77,2.24-3.65,3.47-5.39,1.77-2.52,3.58-5,6.2-6.79Zm-1.47,26.21c-.05-.32,.22-.78-.28-.97-1.15-.43-2.28-.88-3.41-1.37-.54-.24-.72-.1-.81,.48-.05,.29-.07,.58-.09,.87s.08,.42,.38,.56c.98,.46,2.04,.69,3.01,1.18,1.02,.52,1.18,.41,1.2-.75Zm-4.3,1c.27,1.69,2.59,2.5,4.1,1.4-1.45-.29-2.67-1.1-4.1-1.4ZM47.92,42.7c.57-.19,.75-.61,.49-1.15-.14-.31-.39-.52-.71-.6-.7-.17-1.42-.25-2.16-.17-.04,.39,.06,.75,.21,1.04,.17,.34-.14,.9,.37,1.03,.38,.1,.81,.03,1.21,0,.2-.01,.4-.08,.59-.15Zm-1.73-20.57c.09-1.91-.7-3.54-1.87-4.98-.72-.87-1.67-1.17-2.76-.8-.64,.22-1.21,.56-1.72,1.03-.84,.79-1.44,1.77-2.11,2.69-1.18,1.62-3.32,1.86-4.65,.52-.44-.44-.75-.96-.99-1.54-.9-2.12-1.1-4.36-1.05-6.63,.04-2.05,0-4.09-.09-6.14-.07-1.46-.47-2.82-1.52-3.92-.49-.51-1.07-.93-1.76-.84-.89,.12-1.75,.46-2.39,1.18-.69,.77-.87,1.71-.9,2.69-.04,1.26,.19,2.51,.43,3.74,.34,1.82,.52,3.65,.46,5.5-.05,1.6-.73,2.93-2.1,3.74-1.15,.67-2.52,.69-3.58-.25-.85-.75-1.34-1.7-1.71-2.72-.65-1.79-1.26-3.59-2.24-5.23-.67-1.11-1.55-1.97-2.72-2.55-2.11-1.05-4.66,.37-5.09,2.35-.27,1.23-.15,2.39,.25,3.54,.72,2.12,1.78,4.05,3.02,5.92,1.04,1.58,2.17,3.13,2.99,4.85,.68,1.43,1.27,2.92,1.16,4.54-.12,1.95-1.46,2.67-3.19,2.53-.71-.06-1.39-.44-1.97-.91-.98-.8-1.85-1.71-2.77-2.57-.52-.48-1.09-.88-1.76-1.14-1.2-.48-2.77,.05-3.42,1.18-.62,1.07-.71,2.22-.32,3.38,.71,2.09,1.92,3.88,3.42,5.47,1.7,1.81,3.75,3.16,5.88,4.39,1.98,1.14,4,2.19,5.96,3.34,1.34,.79,2.57,1.73,3.53,2.97,.61,.79,1.09,1.65,1.47,2.72,1.78-1.88,3.66-3.41,5.75-4.67,1.17-.71,2.34-1.42,3.63-1.93,2.07-.81,4.15-1.58,6.24-2.32,1.6-.56,3.19-1.17,4.88-1.4,.44-.05,.53-.29,.44-.66-.1-.49-.27-.97-.33-1.46-.21-1.79-.04-3.56,.37-5.31,.58-2.51,1.75-4.84,2.47-7.31,.29-.98,.61-1.97,.66-2.99Zm-1.74,20.78c.23-.17,.01-.43-.01-.65-.02-.2-.06-.41-.11-.61-.15-.69-.27-.77-.93-.62-.17,.04-.33,.11-.51,.17,.05,.55,.22,1.05,.36,1.55,.03,.11,.06,.25,.19,.27,.34,.05,.72,.1,1.01-.11Zm-2.42,.2c-.14-.44-.28-.88-.42-1.33-.04-.14-.08-.31-.26-.29-.46,.04-.91,.19-1.33,.38-.07,.03-.14,.15-.13,.21,.11,.45,.18,.92,.42,1.33,.06,.11,.18,.17,.3,.13,.45-.18,1.01-.03,1.42-.43Zm-4.16,1.19c.58-.06,1.11-.38,1.1-.65-.04-.63-.41-1.2-.76-1.16-.69,.07-1.1,.32-1.07,.64,.1,.82,.34,1.21,.73,1.17Zm-2.19,.82c.57-.31,.58-.29,.43-.89-.03-.15-.09-.28-.12-.43-.07-.38-.29-.46-.63-.33-.55,.2-1.1,.39-1.64,.6-1.54,.62-1.2,.48-.54,1.83,.03,.05,.07,.09,.11,.13,.05,.03,.1,.06,.16,.09,.1-.04,.21-.1,.32-.14,.66-.23,1.29-.53,1.91-.86Zm-3.55,1.62c-.24-.47-.44-.88-.66-1.29-.06-.13-.13-.3-.3-.28-.38,.04-.7,.26-.98,.51-.23,.2-.03,.42,.07,.62,.62,1.24,.66,1.39,1.87,.44Zm-2.33,1.3c-.48-.46-.6-1.09-1-1.63-.85,.65-1.83,1.07-2.61,1.8,.34,.51,.66,.98,1.03,1.53,.89-.59,1.71-1.13,2.58-1.7Zm-4.27,3.08c.21-.22,.4-.4,.59-.59-.27-.55-.58-1.02-1.02-1.37-.78,.51-.77,.51-.28,1.2,.19,.26,.36,.53,.71,.76Zm-1.99,1.57q.98-.64,.31-1.49c-.13-.15-.24-.33-.45-.38-.91,.76-.83,.65-.15,1.56,.07,.09,.16,.17,.29,.31Zm-.93,.94c-.26-.34-.52-.68-.81-1.05-.22,.28-.45,.48-.57,.73-.26,.51-.63,.98-.64,1.59-.01,.19,.02,.35,.21,.44,.16,.07,.27-.05,.37-.15,.47-.51,.94-1.02,1.44-1.56Z"/><path class="cls-3" d="M131.89,206.83c.27,.54,1.17,.42,1.22,1.17-.45,.39-.61,.98-.99,1.5-.1-.05-.14-.06-.16-.08-.35-.34-.7-.68-1.05-1.03,.26-.54,.52-1.08,.77-1.61,.11,.02,.2,.02,.21,.05Z"/><path class="cls-6" d="M131.51,169.2c-1.38,.31-2.56-.06-3.75-.14-.6-.04-1.17,.04-1.74,.1-.75,.08-.96,.55-.65,1.24,.56,1.26,1.3,2.42,1.95,3.63,.37,.69,.34,.86-.4,1.18-.55,.25-1.14,.43-1.72,.63-.31,.11-.61,.23-.84,.48-.27,.3-.39,.63-.17,1.03,.56,1.03,1.12,2.05,1.95,2.9,.37,.38,.73,.76,1.04,1.3-1.13-.08-2.21,0-3.28,.08-.85,.06-1.09,.36-.89,1.19,.07,.31,.2,.61,.32,.91,.27,.66,.46,1.32,.26,2.08-.48-.06-.94-.25-1.38-.44-2.35-1.03-4.71-2.04-7.04-3.12-1.35-.62-2.66-1.34-3.97-2.05-1.92-1.04-3.84-2.12-5.76-3.17-.28-.15-.58-.26-.88-.38-.48-.19-.63-.53-.62-1.03,.08-2.24,.42-4.43,1.29-6.51,1.17-2.81,2.53-5.53,4.27-8.04,1.03-1.48,2.05-2.99,3.33-4.29,.61-.62,.62-.6,1.29-.13,2.48,1.77,4.92,3.58,7.44,5.28,2.4,1.63,4.68,3.41,7.06,5.07,.96,.66,1.88,1.37,2.89,2.2Z"/><path class="cls-7" d="M129.89,170.64c.95-.13,1.37,.38,1.48,1.31-1.06,.28-2.15,.4-3.26,.37-.28-.01-.42-.22-.52-.42-.24-.46-.45-.94-.7-1.47,.95-.18,1.8,.1,2.66,.14,.11,0,.23,.08,.34,.07Z"/><path class="cls-7" d="M128.1,177.46c.21,.57,.16,.66-.39,.8-.06,.01-.12,.01-.17,.02-1.25,.23-1.44,.11-1.91-1.16,.6-.36,1.29-.49,1.96-.69,.27,.31,.38,.68,.51,1.03Z"/><path class="cls-7" d="M126,184.32c.04,.24,.24,.54-.17,.63-.31,.07-.64,.05-.79-.34-.21-.53-.5-1.04-.48-1.63,.07-.04,.11-.08,.17-.09,.95-.12,1.01-.08,1.19,.83,.04,.19,.05,.4,.08,.6Z"/><path d="M119.3,200.27c-.13,.81-.11,1.53-.48,2.16-.4,.7-.8,.82-1.53,.47-.44-.2-.74-.54-1.02-.93-.86-1.23-1.2-2.66-1.68-4.03-.61-1.71-1.1-3.45-1.44-5.24-.14-.75,.07-1.5,.6-1.88,.67-.48,1.28-.47,2.04,0,.95,.59,1.33,1.58,1.63,2.54,.47,1.5,1.06,2.97,1.37,4.53,.16,.83,.35,1.65,.51,2.37Zm-1.48,1.44c0-.72,.21-1.25,.09-1.81-.42-2.09-1.12-4.1-1.72-6.14-.13-.44-.3-.88-.57-1.28-.17-.25-.36-.46-.63-.59-.32-.17-.59-.01-.58,.36,.01,.23,.07,.46,.12,.69,.49,2.38,1.29,4.67,2.13,6.94,.22,.61,.47,1.25,1.16,1.83Z"/><path class="cls-4" d="M117.91,199.9c.12,.56-.09,1.09-.09,1.81-.69-.58-.94-1.22-1.16-1.83-.84-2.27-1.64-4.56-2.13-6.94-.05-.23-.11-.46-.12-.69-.01-.37,.26-.53,.58-.36,.27,.13,.46,.34,.63,.59,.27,.4,.44,.84,.57,1.28,.6,2.04,1.3,4.05,1.72,6.14Z"/><path class="cls-7" d="M112.39,153.92c.04,.82-.13,1.6-.73,2.24-.27,.28-.44,.31-.71,.04-.45-.46-.95-.86-1.38-1.33-.24-.26-.51-.45-.85-.61,.62-.7,1.37-1.06,2.17-1.34,.73-.25,1.45,.22,1.5,1Z"/><path class="cls-7" d="M110.14,157.19c.27,.25,.27,.47,.04,.73-.13,.15-.27,.31-.38,.48-.14,.22-.29,.21-.51,.11-.46-.21-.82-.55-1.2-.86-.18-.15-.37-.29-.52-.47-.24-.28-.88-.36-.76-.73,.16-.46,.61-.83,.94-1.23,.03-.04,.1-.05,.18-.08,.06,.04,.14,.07,.2,.12,.67,.64,1.33,1.3,2.01,1.93Z"/><path class="cls-6" d="M108.66,152.04c.21,.26,.21,.4-.07,.63-2.13,1.77-3.76,3.98-5.4,6.19-1.7,2.28-3.13,4.72-4.44,7.24-1.05,2.02-1.67,4.16-1.92,6.42-.04,.43,.13,.88-.05,1.36-.1,0-.16,.03-.21,.01-1.46-.59-2.93-1.17-4.38-1.79-.62-.26-.61-.35-.48-1.02,.28-1.5,.69-2.96,1.24-4.38,.31-.79,.53-1.61,.81-2.41,.54-1.53,1.4-2.89,2.27-4.24,1.43-2.23,2.76-4.54,4.42-6.62,.97-1.2,1.89-2.45,3.07-3.49,.51-.44,1.08-.78,1.64-1.15,.23-.15,.41-.14,.61,.07,1.01,1.02,1.97,2.08,2.89,3.18Z"/><path class="cls-7" d="M108.5,159.62c.17,.11,.22,.25,.08,.43-.34,.43-.46,1.12-.99,1.28-.4,.11-.82-.34-1.22-.56-.69-.38-1.35-.8-2.08-1.24,.5-.68,.98-1.33,1.46-1.97,1.08,.52,1.79,1.45,2.75,2.06Z"/><path class="cls-7" d="M106.66,162.42c.13,.05,.25,.15,.23,.37-.11,.2-.21,.45-.38,.65-.31,.38-.27,1.13-.77,1.18-.37,.04-.78-.44-1.18-.68-.63-.37-1.26-.75-1.9-1.08-.36-.19-.36-.37-.18-.69,.24-.44,.57-.82,.85-1.22,.19-.27,.37-.22,.6-.1,.95,.46,1.76,1.15,2.73,1.57Z"/><path class="cls-7" d="M104.98,165.77c.17,.12,.23,.24,.14,.43-.3,.61-.59,1.21-.89,1.81-.05,.09-.14,.19-.43,.08-.01,0-.19-.04-.34-.12-.97-.47-1.94-.94-2.9-1.41-.22-.11-.45-.23-.28-.52,.35-.61,.59-1.26,1-1.84,.17-.23,.31-.27,.58-.17,1.15,.39,2.13,1.06,3.12,1.74Z"/><path class="cls-7" d="M103.18,169.21c.38,.11,.53,.34,.39,.72-.18,.47-.31,.94-.41,1.43-.07,.33-.24,.51-.63,.35-1.21-.52-2.42-1.02-3.64-1.51-.26-.11-.26-.26-.21-.48,.18-.75,.54-1.41,.8-2.16,.44,.19,.85,.33,1.23,.53,.81,.41,1.6,.86,2.47,1.12Z"/><path class="cls-2" d="M102.96,145.74c.39,.68,.87,1.31,1.23,2.06-2.62,1.79-4.43,4.27-6.2,6.79-1.23,1.74-2.27,3.62-3.47,5.39-1.27,1.86-2.09,3.9-2.72,6.05-.16,.53-.34,1.06-.54,1.57-.34,.88-.53,1.79-.72,2.71-.1,.46-.22,.79-.8,.62-.12-.04-.36-.02-.41,.06-.34,.54-.86,.35-1.34,.39-2.53,.24-4.94-.48-7.38-.91-.94-.16-1.87-.41-2.81-.62-1.43-.33-2.84-.74-4.23-1.19l.52-1.65c1.47,.52,3.01,.71,4.53,1.01,1.37,.28,2.73,.56,4.13,.69,.31,.03,.62,.02,.95-.04,1.18-.21,2.09-.86,2.93-1.65,.98-.93,1.69-2.08,2.5-3.15,1.51-2.03,2.61-4.31,3.82-6.5,1.78-3.25,4.29-5.83,7.06-8.2,.52-.44,1.06-.73,.81-1.52,.27-.84,.11-1.6-.2-2.33l1.62-.89c.23,.44,.47,.88,.72,1.31Z"/><path class="cls-7" d="M102.44,173.04c.5,.19,.23,.65,.28,.97-.02,1.16-.18,1.27-1.2,.75-.97-.49-2.03-.72-3.01-1.18-.3-.14-.4-.27-.38-.56s.04-.58,.09-.87c.09-.58,.27-.72,.81-.48,1.13,.49,2.26,.94,3.41,1.37Z"/><path class="cls-2" d="M102.24,144.43l-1.62,.89c-.13-.29-.27-.57-.42-.85-.44-.82-.96-1.6-1.37-2.45-.7-1.42-1.42-2.82-2.16-4.22-.63-1.18-1.35-2.33-1.96-3.52-1.43-2.78-2.8-5.6-4.01-8.48-.49-1.16-.93-2.34-1.35-3.53-.69-1.96-1.27-3.95-1.9-5.92-1.03-3.21-1.87-6.46-2.58-9.75-.63-2.92-1.09-5.87-1.67-8.8-.74-3.73-1.45-7.46-2.41-11.14-.53-2.04-1.05-4.07-1.65-6.09-.94-3.17-2.07-6.27-3.46-9.28-1.02-2.21-2.27-4.29-3.6-6.33-1.44-2.2-3.02-4.31-4.49-6.49-1.53-2.28-3.5-4.08-5.67-5.69-1.76-1.31-3.71-2.33-5.74-3.18-1.02-.43-2.08-.79-3.16-1.04-1.77-.39-3.57-.58-5.4-.61-2.26-.04-4.5,.15-6.71,.61-3.16,.66-6.02,2.06-8.84,3.56-.98,.52-1.93,1.11-2.92,1.61-.7,.34-1.35,.71-1.97,1.22-1.18,.96-2.29,1.99-3.32,3.1-.68,.73-1.5,1.32-2.06,2.15-.15,.22-.3,.45-.45,.68l-2.06-1.05c1.21-1.82,2.58-3.54,4.15-5.1,1.54-1.53,3.15-2.97,4.93-4.21,1.37-.95,2.82-1.79,4.32-2.51,1.4-.68,2.77-1.38,4.21-1.96,2.13-.86,4.32-1.4,6.6-1.65,1.55-.17,3.1-.21,4.64-.27,2.12-.08,4.19,.3,6.21,.93,3.33,1.04,6.4,2.59,9.17,4.69,1.83,1.41,3.47,3.03,5.03,4.76,2,2.21,3.92,4.5,5.71,6.88,1.52,2.01,2.83,4.15,4.02,6.38,1.4,2.65,2.61,5.37,3.79,8.11,.93,2.15,1.49,4.43,2.03,6.72,.81,3.44,1.47,6.92,2.2,10.38,.49,2.32,.85,4.66,1.31,6.99,.29,1.45,.66,2.9,.99,4.35,.49,2.22,.9,4.47,1.49,6.66,.66,2.43,1.16,4.89,1.91,7.29,.28,.92,.49,1.87,.77,2.79,.5,1.59,1,3.18,1.55,4.75,.54,1.54,1.11,3.08,1.71,4.59,1.28,3.21,2.67,6.37,4.04,9.54,.66,1.53,1.38,3.03,2.17,4.49Z"/><path class="cls-7" d="M102.52,176.41c-1.51,1.1-3.83,.29-4.1-1.4,1.43,.3,2.65,1.11,4.1,1.4Z"/><path d="M100.62,145.32c.31,.73,.47,1.49,.2,2.33,.25,.79-.29,1.08-.81,1.52-2.77,2.37-5.28,4.95-7.06,8.2-1.21,2.19-2.31,4.47-3.82,6.5-.81,1.07-1.52,2.22-2.5,3.15-.84,.79-1.75,1.44-2.93,1.65-.33,.06-.64,.07-.95,.04-1.4-.13-2.76-.41-4.13-.69-1.52-.3-3.06-.49-4.53-1.01-2.9-1.01-5.78-2.06-8.45-3.61-.99-.57-2.06-.97-3.07-1.51-1.21-.65-2.4-1.34-3.56-2.07-1.55-.99-3.14-1.93-4.75-2.83-1.88-1.05-3.53-2.4-5.19-3.74-1.8-1.45-3.57-2.93-5.36-4.39-1.02-.84-1.92-1.81-2.87-2.73-1.07-1.04-2.14-2.07-3.23-3.09-1.91-1.81-3.8-3.65-5.56-5.62-1.28-1.44-2.55-2.9-3.75-4.41-1.79-2.24-3.65-4.44-5.02-6.98-.21-.39-.42-.78-.62-1.17-1.42-2.73-2.7-5.52-3.56-8.49-1.19-4.13-2.28-8.28-2.95-12.54-.26-1.63-.25-3.27-.41-4.9-.32-3.33-.25-6.67-.4-10.25,.15-2.31-.02-4.86,.11-7.4,.15-2.99,.56-5.94,1.42-8.82,.44-1.48,.71-3.01,1.13-4.51,.5-1.76,1.23-3.41,2.09-5,.39-.71,.82-1.4,1.26-2.07,.15-.23,.3-.46,.45-.68,.56-.83,1.38-1.42,2.06-2.15,1.03-1.11,2.14-2.14,3.32-3.1,.62-.51,1.27-.88,1.97-1.22,.99-.5,1.94-1.09,2.92-1.61,2.82-1.5,5.68-2.9,8.84-3.56,2.21-.46,4.45-.65,6.71-.61,1.83,.03,3.63,.22,5.4,.61,1.08,.25,2.14,.61,3.16,1.04,2.03,.85,3.98,1.87,5.74,3.18,2.17,1.61,4.14,3.41,5.67,5.69,1.47,2.18,3.05,4.29,4.49,6.49,1.33,2.04,2.58,4.12,3.6,6.33,1.39,3.01,2.52,6.11,3.46,9.28,.6,2.02,1.12,4.05,1.65,6.09,.96,3.68,1.67,7.41,2.41,11.14,.58,2.93,1.04,5.88,1.67,8.8,.71,3.29,1.55,6.54,2.58,9.75,.63,1.97,1.21,3.96,1.9,5.92,.42,1.19,.86,2.37,1.35,3.53,1.21,2.88,2.58,5.7,4.01,8.48,.61,1.19,1.33,2.34,1.96,3.52,.74,1.4,1.46,2.8,2.16,4.22,.41,.85,.93,1.63,1.37,2.45,.15,.28,.29,.56,.42,.85Zm-1.34,2.32c.28-.46,.4-.82,.28-1.29-.14-.51-.32-1-.59-1.45-.6-1.01-1.21-2-1.7-3.07-.45-.98-.92-1.97-1.46-2.9-1.42-2.45-2.76-4.95-3.99-7.51-1.81-3.74-3.45-7.55-4.66-11.54-1.01-3.35-2.15-6.67-2.91-10.1-.4-1.8-.81-3.59-1.14-5.4-.21-1.19-.4-2.37-.64-3.55-.66-3.2-1.18-6.44-1.94-9.63-.4-1.67-.76-3.36-1.18-5.02-.46-1.79-.93-3.57-1.47-5.33-.66-2.12-1.37-4.22-2.22-6.28-.55-1.32-1.16-2.61-1.76-3.91-.78-1.69-1.75-3.25-2.76-4.79-.86-1.32-1.77-2.62-2.68-3.91-.38-.55-.91-1-1.22-1.57-.62-1.12-1.39-2.1-2.2-3.06-1.37-1.62-3.06-2.87-4.76-4.11-.86-.63-1.85-1.01-2.77-1.52-2.39-1.33-4.96-2.07-7.67-2.3-1.44-.13-2.9-.16-4.37-.1-1.91,.07-3.78,.35-5.61,.86-2.2,.61-4.27,1.59-6.3,2.63-1.8,.92-3.61,1.83-5.26,2.99-2.21,1.55-4.1,3.48-5.7,5.68-1.55,2.13-2.63,4.47-3.39,6.99-.42,1.41-.67,2.85-1.04,4.27-.29,1.13-.62,2.26-.84,3.41-.72,3.79-.59,7.64-.66,11.47-.04,1.87-.01,3.74-.01,5.61,.17,1.05,.09,2.11,.2,3.16,.11,.99,.22,1.98,.26,2.98,.06,1.73,.19,3.44,.5,5.15,.46,2.59,.99,5.17,1.68,7.71,.83,3.02,1.64,6.04,2.99,8.88,1.01,2.12,1.99,4.24,3.3,6.2,1.2,1.78,2.58,3.4,3.88,5.1,1.41,1.83,3.02,3.5,4.55,5.24,.97,1.09,2.03,2.11,3.08,3.13,1.28,1.24,2.61,2.43,3.89,3.67,1.3,1.27,2.54,2.6,3.95,3.75,1.62,1.34,3.23,2.71,4.9,4,1.22,.95,2.33,2.05,3.66,2.85,2.69,1.62,5.38,3.22,8.08,4.81,2.19,1.29,4.53,2.32,6.78,3.51,1.66,.88,3.46,1.41,5.2,2.08,.95,.36,1.94,.68,2.93,.91,.94,.21,1.91,.25,2.84,.51,.76,.21,1.56,.16,2.31,.37,1.55,.42,2.89,.1,4.02-1.05,1.43-1.45,2.46-3.19,3.57-4.88,1.13-1.71,1.91-3.61,3.02-5.33,1.18-1.83,2.41-3.6,3.99-5.11,1.07-1.01,2.24-1.92,3.04-3.21Z"/><path class="cls-1" d="M99.56,146.35c.12,.47,0,.83-.28,1.29-.8,1.29-1.97,2.2-3.04,3.21-1.58,1.51-2.81,3.28-3.99,5.11-1.11,1.72-1.89,3.62-3.02,5.33-1.11,1.69-2.14,3.43-3.57,4.88-1.13,1.15-2.47,1.47-4.02,1.05-.75-.21-1.55-.16-2.31-.37-.93-.26-1.9-.3-2.84-.51-.99-.23-1.98-.55-2.93-.91-1.74-.67-3.54-1.2-5.2-2.08-2.25-1.19-4.59-2.22-6.78-3.51-2.7-1.59-5.39-3.19-8.08-4.81-1.33-.8-2.44-1.9-3.66-2.85-1.67-1.29-3.28-2.66-4.9-4-1.41-1.15-2.65-2.48-3.95-3.75-1.28-1.24-2.61-2.43-3.89-3.67-1.05-1.02-2.11-2.04-3.08-3.13-1.53-1.74-3.14-3.41-4.55-5.24-1.3-1.7-2.68-3.32-3.88-5.1-1.31-1.96-2.29-4.08-3.3-6.2-1.35-2.84-2.16-5.86-2.99-8.88-.69-2.54-1.22-5.12-1.68-7.71-.31-1.71-.44-3.42-.5-5.15-.04-1-.15-1.99-.26-2.98-.11-1.05-.03-2.11-.2-3.16,0-1.87-.03-3.74,.01-5.61,.07-3.83-.06-7.68,.66-11.47,.22-1.15,.55-2.28,.84-3.41,.37-1.42,.62-2.86,1.04-4.27,.76-2.52,1.84-4.86,3.39-6.99,1.6-2.2,3.49-4.13,5.7-5.68,1.65-1.16,3.46-2.07,5.26-2.99,2.03-1.04,4.1-2.02,6.3-2.63,1.83-.51,3.7-.79,5.61-.86,1.47-.06,2.93-.03,4.37,.1,2.71,.23,5.28,.97,7.67,2.3,.92,.51,1.91,.89,2.77,1.52,1.7,1.24,3.39,2.49,4.76,4.11,.81,.96,1.58,1.94,2.2,3.06,.31,.57,.84,1.02,1.22,1.57,.91,1.29,1.82,2.59,2.68,3.91,1.01,1.54,1.98,3.1,2.76,4.79,.6,1.3,1.21,2.59,1.76,3.91,.85,2.06,1.56,4.16,2.22,6.28,.54,1.76,1.01,3.54,1.47,5.33,.42,1.66,.78,3.35,1.18,5.02,.76,3.19,1.28,6.43,1.94,9.63,.24,1.18,.43,2.36,.64,3.55,.33,1.81,.74,3.6,1.14,5.4,.76,3.43,1.9,6.75,2.91,10.1,1.21,3.99,2.85,7.8,4.66,11.54,1.23,2.56,2.57,5.06,3.99,7.51,.54,.93,1.01,1.92,1.46,2.9,.49,1.07,1.1,2.06,1.7,3.07,.27,.45,.45,.94,.59,1.45Zm-17.1,15.8c.7-.24,.97-.66,.92-1.39-.05-.86-.58-1.42-1.25-1.8-1.22-.68-2.47-1.31-3.79-1.78-.63-.23-1.27-.45-1.87-.75-2.07-1.01-4.12-2.05-6.18-3.08-1.26-.64-2.51,.07-2.54,1.47-.02,.62,.21,1.15,.69,1.55,.61,.5,1.22,1,1.92,1.39,1.45,.8,2.97,1.49,4.45,2.25,1.54,.79,3.14,1.4,4.74,2.02,.55,.22,1.13,.26,1.75,.36,.37-.02,.77-.1,1.16-.24Z"/><path d="M83.38,160.76c.05,.73-.22,1.15-.92,1.39-.39,.14-.79,.22-1.16,.24-.62-.1-1.2-.14-1.75-.36-1.6-.62-3.2-1.23-4.74-2.02-1.48-.76-3-1.45-4.45-2.25-.7-.39-1.31-.89-1.92-1.39-.48-.4-.71-.93-.69-1.55,.03-1.4,1.28-2.11,2.54-1.47,2.06,1.03,4.11,2.07,6.18,3.08,.6,.3,1.24,.52,1.87,.75,1.32,.47,2.57,1.1,3.79,1.78,.67,.38,1.2,.94,1.25,1.8Zm-1.34,.05c.09-.24-.15-.35-.3-.48-.74-.64-1.61-1.08-2.52-1.4-2.46-.86-4.77-2.05-7.08-3.24-.72-.37-1.51-.61-2.19-1.08-.27-.18-.63-.14-.81,.08-.21,.27,.02,.55,.23,.77l.06,.06c.64,.41,1.19,.93,1.88,1.29,1.42,.74,2.89,1.39,4.31,2.15,1.5,.8,3.09,1.37,4.69,1.94,.28,.1,.56,.13,.85,.14,.12,0,.24,0,.35,0,.2-.02,.45,0,.53-.23Z"/><path class="cls-5" d="M81.74,160.33c.15,.13,.39,.24,.3,.48-.08,.24-.33,.21-.53,.23-.11,0-.23,0-.35,0-.29-.01-.57-.04-.85-.14-1.6-.57-3.19-1.14-4.69-1.94-1.42-.76-2.89-1.41-4.31-2.15-.69-.36-1.24-.88-1.88-1.29l-.06-.06c-.21-.22-.44-.5-.23-.77,.18-.22,.54-.26,.81-.08,.68,.47,1.47,.71,2.19,1.08,2.31,1.19,4.62,2.38,7.08,3.24,.91,.32,1.78,.76,2.52,1.4Z"/><path class="cls-2" d="M74.09,167.01l-.52,1.65c-.66-.2-1.32-.42-1.98-.65-1.63-.56-3.25-1.16-4.88-1.71-1.94-.66-3.78-1.54-5.6-2.48-2.16-1.11-4.25-2.33-6.36-3.53-1.61-.91-3.16-1.9-4.68-2.95-2.33-1.62-4.65-3.25-6.9-4.97-1.98-1.5-3.92-3.05-5.73-4.76-1.75-1.65-3.45-3.34-5.08-5.1-1.64-1.78-3.16-3.67-4.59-5.64-1.16-1.61-2.33-3.22-3.45-4.86-1.25-1.83-2.39-3.74-3.45-5.69-.08-.14-.15-.28-.22-.42l2.01-1.04c.2,.39,.41,.78,.62,1.17,1.37,2.54,3.23,4.74,5.02,6.98,1.2,1.51,2.47,2.97,3.75,4.41,1.76,1.97,3.65,3.81,5.56,5.62,1.09,1.02,2.16,2.05,3.23,3.09,.95,.92,1.85,1.89,2.87,2.73,1.79,1.46,3.56,2.94,5.36,4.39,1.66,1.34,3.31,2.69,5.19,3.74,1.61,.9,3.2,1.84,4.75,2.83,1.16,.73,2.35,1.42,3.56,2.07,1.01,.54,2.08,.94,3.07,1.51,2.67,1.55,5.55,2.6,8.45,3.61Z"/><path class="cls-7" d="M48.41,41.55c.26,.54,.08,.96-.49,1.15-.19,.07-.39,.14-.59,.15-.4,.03-.83,.1-1.21,0-.51-.13-.2-.69-.37-1.03-.15-.29-.25-.65-.21-1.04,.74-.08,1.46,0,2.16,.17,.32,.08,.57,.29,.71,.6Z"/><path class="cls-2" d="M44.32,17.15c1.17,1.44,1.96,3.07,1.87,4.98-.05,1.02-.37,2.01-.66,2.99-.72,2.47-1.89,4.8-2.47,7.31-.41,1.75-.58,3.52-.37,5.31,.06,.49,.23,.97,.33,1.46,.09,.37,0,.61-.44,.66-1.69,.23-3.28,.84-4.88,1.4-2.09,.74-4.17,1.51-6.24,2.32-1.29,.51-2.46,1.22-3.63,1.93-2.09,1.26-3.97,2.79-5.75,4.67-.38-1.07-.86-1.93-1.47-2.72-.96-1.24-2.19-2.18-3.53-2.97-1.96-1.15-3.98-2.2-5.96-3.34-2.13-1.23-4.18-2.58-5.88-4.39-1.5-1.59-2.71-3.38-3.42-5.47-.39-1.16-.3-2.31,.32-3.38,.65-1.13,2.22-1.66,3.42-1.18,.67,.26,1.24,.66,1.76,1.14,.92,.86,1.79,1.77,2.77,2.57,.58,.47,1.26,.85,1.97,.91,1.73,.14,3.07-.58,3.19-2.53,.11-1.62-.48-3.11-1.16-4.54-.82-1.72-1.95-3.27-2.99-4.85-1.24-1.87-2.3-3.8-3.02-5.92-.4-1.15-.52-2.31-.25-3.54,.43-1.98,2.98-3.4,5.09-2.35,1.17,.58,2.05,1.44,2.72,2.55,.98,1.64,1.59,3.44,2.24,5.23,.37,1.02,.86,1.97,1.71,2.72,1.06,.94,2.43,.92,3.58,.25,1.37-.81,2.05-2.14,2.1-3.74,.06-1.85-.12-3.68-.46-5.5-.24-1.23-.47-2.48-.43-3.74,.03-.98,.21-1.92,.9-2.69,.64-.72,1.5-1.06,2.39-1.18,.69-.09,1.27,.33,1.76,.84,1.05,1.1,1.45,2.46,1.52,3.92,.09,2.05,.13,4.09,.09,6.14-.05,2.27,.15,4.51,1.05,6.63,.24,.58,.55,1.1,.99,1.54,1.33,1.34,3.47,1.1,4.65-.52,.67-.92,1.27-1.9,2.11-2.69,.51-.47,1.08-.81,1.72-1.03,1.09-.37,2.04-.07,2.76,.8Zm.06,5.75c.18-1.31,0-2.5-.87-3.53-.53-.62-1.16-1.08-2.04-.97-.38,.05-.7,.2-.71,.63-.02,.45,.28,.63,.68,.63,.76,.01,1.14,.5,1.44,1.1,.31,.61,.32,1.23,.24,1.89-.18,1.69-.82,3.23-1.63,4.69-1.32,2.4-1.9,4.93-1.75,7.73-.04,.81,.16,1.67,.36,2.52,.09,.34,.3,.58,.71,.5,.3-.06,.59-.45,.56-.79,0-.08-.06-.16-.07-.25-.17-.92-.24-1.84-.27-2.78-.06-2,.32-3.91,1.28-5.66,.99-1.8,1.8-3.65,2.07-5.71Zm-16.29-1.23c.02-.29-.07-.54-.37-.63-.32-.1-.57,.01-.73,.31-.04,.08-.09,.15-.13,.23-.65,1.32-1.5,1.75-2.97,1.49-.14-.03-.28-.07-.43-.08-.32-.01-.57,.13-.66,.45-.09,.29,.05,.48,.29,.66,.41,.31,.88,.29,1.48,.33,.66,0,1.44-.11,2.12-.56,.79-.51,1.29-1.24,1.4-2.2Zm-.35-7.79c-.05-1.33-.21-2.84-.48-4.35-.22-1.27-.45-2.54-.44-3.83,0-.18-.01-.36-.07-.52-.11-.29-.33-.52-.66-.5s-.49,.28-.53,.6c-.03,.2-.07,.41-.05,.61,.05,1,.12,1.99,.32,2.97,.47,2.43,.76,4.86,.43,7.33-.11,.88-.27,1.71-.73,2.5-.84,1.46-2.03,2.06-3.65,1.73-.12-.03-.23-.07-.34-.08-.32-.03-.49,.16-.6,.42-.14,.3,.01,.51,.25,.66,.22,.15,.45,.25,.72,.32,1.38,.34,3.45-.48,4.38-1.79,.46-.65,.82-1.35,1.02-2.13,.31-1.23,.33-2.49,.43-3.94Zm-4.4,30.19c.34-.19,.37-.5,.1-.99-.13-.22-.26-.46-.44-.65-.92-1.05-1.82-2.12-2.97-2.94-.68-.5-1.32-1.07-2.26-1.2-.22-.02-.5,.02-.61,.3-.12,.33-.07,.64,.28,.83,.2,.12,.4,.24,.61,.34,1.25,.58,2.17,1.55,3.08,2.53,.44,.47,.85,.96,1.24,1.47,.31,.42,.65,.5,.97,.31Zm-1.6,1.68c.25-.24,.27-.69-.04-1.03-1.2-1.37-2.43-2.71-4.02-3.62-2.36-1.34-4.74-2.65-7.08-4.02-1.7-.99-3.39-1.97-4.54-3.65-.77-1.11-1.21-2.32-1.3-3.6,.03-.24,.07-.41,.08-.59,.02-.37-.19-.62-.54-.7-.38-.08-.59,.14-.71,.49-.12,.34-.16,.69-.14,1.04,.07,.91,.28,1.79,.68,2.61,.95,1.94,2.34,3.44,4.22,4.55,2.31,1.37,4.62,2.75,6.98,4.03,1.39,.75,2.73,1.57,3.87,2.69,.52,.52,.99,1.07,1.45,1.63,.33,.39,.82,.43,1.09,.17Zm-4.68-14.52c.9-1.46,1.11-3.09,.79-4.74-.36-1.91-1.21-3.65-2.34-5.25-1.04-1.47-2.18-2.89-3.01-4.51-.98-1.9-1.78-3.83-1.38-6.02,0-.13,.01-.25,0-.36-.04-.28-.16-.51-.46-.58-.33-.09-.56,.08-.71,.37-.07,.13-.15,.27-.15,.4-.02,.73-.17,1.46-.06,2.19,.28,1.75,.92,3.37,1.77,4.92,.78,1.45,1.79,2.73,2.75,4.06,1.07,1.46,1.9,3.06,2.25,4.81,.41,2.05,.19,4-1.88,5.22-.34,.2-.43,.65-.24,.92,.23,.31,.53,.31,.86,.18,.81-.31,1.37-.91,1.81-1.61Z"/><path class="cls-7" d="M44.44,42.26c.02,.22,.24,.48,.01,.65-.29,.21-.67,.16-1.01,.11-.13-.02-.16-.16-.19-.27-.14-.5-.31-1-.36-1.55,.18-.06,.34-.13,.51-.17,.66-.15,.78-.07,.93,.62,.05,.2,.09,.41,.11,.61Z"/><path d="M43.51,19.37c.87,1.03,1.05,2.22,.87,3.53-.27,2.06-1.08,3.91-2.07,5.71-.96,1.75-1.34,3.66-1.28,5.66,.03,.94,.1,1.86,.27,2.78,.01,.09,.07,.17,.07,.25,.03,.34-.26,.73-.56,.79-.41,.08-.62-.16-.71-.5-.2-.85-.4-1.71-.36-2.52-.15-2.8,.43-5.33,1.75-7.73,.81-1.46,1.45-3,1.63-4.69,.08-.66,.07-1.28-.24-1.89-.3-.6-.68-1.09-1.44-1.1-.4,0-.7-.18-.68-.63,.01-.43,.33-.58,.71-.63,.88-.11,1.51,.35,2.04,.97Z"/><path class="cls-7" d="M41.61,41.78c.14,.45,.28,.89,.42,1.33-.41,.4-.97,.25-1.42,.43-.12,.04-.24-.02-.3-.13-.24-.41-.31-.88-.42-1.33-.01-.06,.06-.18,.13-.21,.42-.19,.87-.34,1.33-.38,.18-.02,.22,.15,.26,.29Z"/><path class="cls-7" d="M38.97,43.65c.01,.27-.52,.59-1.1,.65-.39,.04-.63-.35-.73-1.17-.03-.32,.38-.57,1.07-.64,.35-.04,.72,.53,.76,1.16Z"/><path class="cls-7" d="M36.11,44.23c.15,.6,.14,.58-.43,.89-.62,.33-1.25,.63-1.91,.86-.11,.04-.22,.1-.32,.14-.06-.03-.11-.06-.16-.09-.04-.04-.08-.08-.11-.13-.66-1.35-1-1.21,.54-1.83,.54-.21,1.09-.4,1.64-.6,.34-.13,.56-.05,.63,.33,.03,.15,.09,.28,.12,.43Z"/><path class="cls-7" d="M31.47,45.45c.22,.41,.42,.82,.66,1.29-1.21,.95-1.25,.8-1.87-.44-.1-.2-.3-.42-.07-.62,.28-.25,.6-.47,.98-.51,.17-.02,.24,.15,.3,.28Z"/><path class="cls-7" d="M28.8,46.41c.4,.54,.52,1.17,1,1.63-.87,.57-1.69,1.11-2.58,1.7-.37-.55-.69-1.02-1.03-1.53,.78-.73,1.76-1.15,2.61-1.8Z"/><path d="M27.72,21.04c.3,.09,.39,.34,.37,.63-.11,.96-.61,1.69-1.4,2.2-.68,.45-1.46,.57-2.12,.56-.6-.04-1.07-.02-1.48-.33-.24-.18-.38-.37-.29-.66,.09-.32,.34-.46,.66-.45,.15,0,.29,.05,.43,.08,1.47,.26,2.32-.17,2.97-1.49,.04-.08,.09-.15,.13-.23,.16-.3,.41-.41,.73-.31Z"/><path d="M27.26,9.53c.27,1.51,.43,3.02,.48,4.35-.1,1.45-.12,2.71-.43,3.94-.2,.78-.56,1.48-1.02,2.13-.93,1.31-3,2.13-4.38,1.79-.27-.07-.5-.17-.72-.32-.24-.15-.39-.36-.25-.66,.11-.26,.28-.45,.6-.42,.11,.01,.22,.05,.34,.08,1.62,.33,2.81-.27,3.65-1.73,.46-.79,.62-1.62,.73-2.5,.33-2.47,.04-4.9-.43-7.33-.2-.98-.27-1.97-.32-2.97-.02-.2,.02-.41,.05-.61,.04-.32,.2-.58,.53-.6s.55,.21,.66,.5c.06,.16,.07,.34,.07,.52-.01,1.29,.22,2.56,.44,3.83Z"/><path class="cls-7" d="M26.12,50.53c-.19,.19-.38,.37-.59,.59-.35-.23-.52-.5-.71-.76-.49-.69-.5-.69,.28-1.2,.44,.35,.75,.82,1.02,1.37Z"/><path class="cls-7" d="M23.85,51.2q.67,.85-.31,1.49c-.13-.14-.22-.22-.29-.31-.68-.91-.76-.8,.15-1.56,.21,.05,.32,.23,.45,.38Z"/><path d="M23.44,43.08c.27,.49,.24,.8-.1,.99-.32,.19-.66,.11-.97-.31-.39-.51-.8-1-1.24-1.47-.91-.98-1.83-1.95-3.08-2.53-.21-.1-.41-.22-.61-.34-.35-.19-.4-.5-.28-.83,.11-.28,.39-.32,.61-.3,.94,.13,1.58,.7,2.26,1.2,1.15,.82,2.05,1.89,2.97,2.94,.18,.19,.31,.43,.44,.65Z"/><path class="cls-2" d="M22.66,124.86l-2.01,1.04c-1.13-2.1-2.08-4.29-3.07-6.45-1.09-2.36-1.93-4.81-2.58-7.35-.74-2.9-1.27-5.83-1.77-8.77-.2-1.21-.3-2.44-.48-3.65-.4-2.79-.57-5.6-.61-8.41-.04-2.89,.12-5.78,.37-8.67,.18-2.1,.4-4.19,.69-6.27,.36-2.68,1.05-5.28,1.91-7.84,.61-1.8,1.24-3.59,2.15-5.27,.63-1.16,1.3-2.3,2.03-3.39l2.06,1.05c-.44,.67-.87,1.36-1.26,2.07-.86,1.59-1.59,3.24-2.09,5-.42,1.5-.69,3.03-1.13,4.51-.86,2.88-1.27,5.83-1.42,8.82-.13,2.54,.04,5.09-.11,7.4,.15,3.58,.08,6.92,.4,10.25,.16,1.63,.15,3.27,.41,4.9,.67,4.26,1.76,8.41,2.95,12.54,.86,2.97,2.14,5.76,3.56,8.49Z"/><path class="cls-7" d="M21.8,52.58c.29,.37,.55,.71,.81,1.05-.5,.54-.97,1.05-1.44,1.56-.1,.1-.21,.22-.37,.15-.19-.09-.22-.25-.21-.44,0-.61,.38-1.08,.64-1.59,.12-.25,.35-.45,.57-.73Z"/><path d="M21.7,44.72c.31,.34,.29,.79,.04,1.03-.27,.26-.76,.22-1.09-.17-.46-.56-.93-1.11-1.45-1.63-1.14-1.12-2.48-1.94-3.87-2.69-2.36-1.28-4.67-2.66-6.98-4.03-1.88-1.11-3.27-2.61-4.22-4.55-.4-.82-.61-1.7-.68-2.61-.02-.35,.02-.7,.14-1.04,.12-.35,.33-.57,.71-.49,.35,.08,.56,.33,.54,.7-.01,.18-.05,.35-.08,.59,.09,1.28,.53,2.49,1.3,3.6,1.15,1.68,2.84,2.66,4.54,3.65,2.34,1.37,4.72,2.68,7.08,4.02,1.59,.91,2.82,2.25,4.02,3.62Z"/><path d="M17.85,26.49c.32,1.65,.11,3.28-.79,4.74-.44,.7-1,1.3-1.81,1.61-.33,.13-.63,.13-.86-.18-.19-.27-.1-.72,.24-.92,2.07-1.22,2.29-3.17,1.88-5.22-.35-1.75-1.18-3.35-2.25-4.81-.96-1.33-1.97-2.61-2.75-4.06-.85-1.55-1.49-3.17-1.77-4.92-.11-.73,.04-1.46,.06-2.19,0-.13,.08-.27,.15-.4,.15-.29,.38-.46,.71-.37,.3,.07,.42,.3,.46,.58,.01,.11,0,.23,0,.36-.4,2.19,.4,4.12,1.38,6.02,.83,1.62,1.97,3.04,3.01,4.51,1.13,1.6,1.98,3.34,2.34,5.25Z"/></g></g></svg>