<?xml version="1.0" encoding="UTF-8"?><svg id="Layer_2" xmlns="http://www.w3.org/2000/svg" viewBox="0 0 71.38 73.49"><defs><style>.cls-1{fill:#f6f8f9;}.cls-2{fill:#cce8f7;}.cls-3{fill:#105375;}</style></defs><g id="Layer_8"><g><path class="cls-2" d="M51.56,46.88c-.57,2.15-1.08,4.28-1.72,6.37-.63,2.08-1.38,4.13-2.08,6.19-.9,2.68-1.84,5.36-2.71,8.06-.3,.95-.89,1.77-1.1,2.76-.11,.52-.55,.15-.8,.12-3.46-.47-6.89-1.08-10.32-1.77-3.15-.63-6.42-.91-9.35-2.21-2.42-1.06-4.96-1.22-7.4-1.94-2.06-.61-4.24-.6-6.22-1.48-.62-.27-.86-.46-.58-1.21,.67-1.81,1.2-3.67,1.77-5.51,.16-.53,.43-.89,1.01-1.03,2.32-.54,4.6-1.16,6.98-1.47,2.98-.4,5.97-.76,8.93-1.36,3.19-.65,6.45-1,9.62-1.76,3.46-.83,6.95-1.6,10.33-2.78,1.18-.41,2.42-.66,3.64-.98Z"/><path class="cls-2" d="M8.11,53.2c.77,.09,.83,.59,.63,1.08-.79,1.98-1.73,3.9-2.1,6.34-1.27-1.63-2.25-2.97-3.23-4.3-.76-1.03,.18-2.16,.46-3.22,.22-.82,.99-.32,1.44-.31,.94,.01,1.86,.31,2.8,.41Z"/><path class="cls-2" d="M20.43,15.5c.88,.13,1.33,.31,.95,1.23-1.21,2.88-2,5.91-2.95,8.88-.62,1.96-1.27,3.91-1.9,5.87-.06,.18-.07,.46-.34,.39-1.23-.34-2.53,.05-3.77-.35-.58-.19-.61-.43-.42-.94,1.27-3.52,2.78-6.97,3.76-10.6,.29-1.06,1.06-1.96,1.08-3.12,0-.13,.13-.34,.24-.38,1.17-.36,2.34-.69,3.35-.98Z"/><path class="cls-2" d="M58.37,21.17c.64,.02,.97,.1,.73,.98-.69,2.42-.63,2.37-3.05,2.71-2.75,.38-5.45,.98-8.15,1.64-3.27,.8-6.66,.92-9.96,1.63-4.37,.95-8.76,1.77-13.14,2.65-.18,.04-.37,.07-.56,.09-1.3,.19-2.64,.15-3.92,.54-.39,.12-.5-.08-.45-.4,.45-1.39,.93-2.73,1.31-4.09,.86-3.15,1.99-6.2,2.99-9.3,.1-.33,.21-.66,.31-.99,.17-.58,.36-.7,1.07-.53,3.65,.85,7.32,1.62,11.05,1.91,.86,.07,1.73,.11,2.6,.12,2.58,.04,5.07,.74,7.6,1.16,2.8,.46,5.61,.9,8.4,1.41,1.06,.19,2.1,.43,3.17,.47Z"/><path d="M70.76,19.02c1.01,1.45,.74,3.37-.51,4.6-1.04,1.02-2.05,2.08-2.98,3.2-1.29,1.55-3.09,1.44-4.03-.35-.39-.77-.66-1.61-1.41-2.29-.58,1-.76,2.05-1.09,3.05-.14,.42-.28,.85-.42,1.27l-2.74-.9c-1.73,.43-3.3,.55-4.85,.85-2.53,.47-4.95,1.42-7.54,1.63-2.13,.18-4.23,.65-6.36,.9-2.16,.26-4.27,.82-6.36,1.33-2.57,.63-5.19,.94-7.79,1.35l-.44-2.79c.19-.02,.38-.05,.56-.09,4.38-.88,8.77-1.7,13.14-2.65,3.3-.71,6.69-.83,9.96-1.63,2.7-.66,5.4-1.26,8.15-1.64,2.42-.34,2.36-.29,3.05-2.71,.24-.88-.09-.96-.73-.98-1.07-.04-2.11-.28-3.17-.47-2.79-.51-5.6-.95-8.4-1.41-2.53-.42-5.02-1.12-7.6-1.16-.87-.01-1.74-.05-2.6-.12l.28-2.93c1.47,.11,2.96,0,4.42,.19,3.29,.42,6.51,1.29,9.81,1.7,2.32,.29,4.58,.97,7.05,1.11-.27-1.2-1.04-2.08-1.63-3.05-.44-.73-1.16-1.09-2.12-1.08-1.49,.01-3.01,.12-4.48-.36-2.53-.82-5.19-.97-7.81-1.18-3.09-.26-6.03-1.15-9.06-1.6-1.64-.24-3.19-1.14-4.87-.8-.37,.07-.75,.15-1.12,.22l-.56-2.78c.71-.2,.7-.91,.77-1.45,.06-.46-.2-.59-.51-.63l.34-2.83,.24,.03c.62,.08,.86,0,1.03-.57,.1-.34,.31-.65,.48-.96,.59-1.15,1-1.31,2.17-.68,.81,.43,1.65,.23,2.47,.27,2.94,.12,5.83,.85,8.76,.87,3.22,.03,6.35,.56,9.44,1.26,2.16,.49,4.35,.74,6.51,1.14,1.47,.27,1.83,.74,1.63,2.2-.04,.24-.08,.48-.12,.71-.31,1.79-.26,1.91,1.58,1.89,1.27,0,1.9,.65,2.73,1.53,1.59,1.69,2.94,3.54,4.29,5.41,.81,1.13,1.65,2.23,2.44,3.38Zm-2.91,2.81c.53-.54,.58-.99,.17-1.56-.99-1.39-2.01-2.76-2.97-4.16-.49-.71-.93-1.43-1.76-2.02-.34,1.57-.65,3.02-.98,4.47-.1,.47,.16,.78,.47,1.02,.4,.3,.58,.72,.82,1.13,.66,1.11,.98,2.41,1.9,3.5,.92-.69,1.57-1.6,2.35-2.38Zm-7.41-8.91c.35-1.23-.31-1.49-1.28-1.56-.31-.02-.67-.13-.86,.24-.16,.33-.19,.68,.05,1.01,.51,.7,1,1.4,1.6,2.23,.34-.74,.33-1.36,.49-1.92Zm-3.87-5.43c.11-.33,.48-.79-.2-.92-.5-.09-1.11-.35-1.28,.54-.23,1.23-.54,2.44-.83,3.69,.75,.18,1.23,.12,1.43-.75,.2-.88,.59-1.71,.88-2.56Zm-4.52-.72c.12-.84-.5-1.02-1.08-1.15-.28-.06-.8-.29-.84,.29-.1,1.39-.6,2.7-.76,4.07-.08,.69,.56,.65,1.02,.66,.32,0,.87,.51,.94-.2,.11-1.26,.47-2.45,.72-3.67Zm-5.07,.05c.34-1.82,.33-1.82-1.6-2.02-.31-.04-.72-.41-.79,.26-.08,.75-.16,1.5-.25,2.25,.06,.56-.02,1.1-.2,1.63-.29,.86,.49,.81,.9,.87,.47,.06,1.31,.48,1.37-.33,.07-.94,.41-1.77,.57-2.66Zm-5.82,2.03c.3-1.24,.44-2.5,.42-3.77-.01-.51-.35-.64-.8-.68-.55-.05-.47,.32-.58,.67-.24,.74-.17,1.49-.24,2.25,0,.39-.01,.79,0,1.19,0,.27-.27,.67,.3,.69,.36,.02,.79,.12,.9-.35Zm-3.86-4.13c.15-1.15-.86-.78-1.37-.97-.59-.22-.68,.23-.74,.74-.1,.82-.31,1.64-.44,2.29,0,.37-.04,.57,0,.76,.2,.96,1.07,.7,1.66,.83,.68,.16,.44-.51,.49-.83,.17-.93,.28-1.88,.4-2.82Zm-5.22,.15s.01-.19-.07-.32c-.18-.31-.02-.9-.59-.89-.55,.02-.49,.55-.55,.9-.08,.6-.27,1.15-.55,1.68-.24,.46-.23,.84,.36,1,.49,.13,.97,.15,1.11-.49,.12-.57,.18-1.16,.29-1.88Z"/><path class="cls-3" d="M68.02,20.27c.41,.57,.36,1.02-.17,1.56-.78,.78-1.43,1.69-2.35,2.38-.92-1.09-1.24-2.39-1.9-3.5-.24-.41-.42-.83-.82-1.13-.31-.24-.57-.55-.47-1.02,.33-1.45,.64-2.9,.98-4.47,.83,.59,1.27,1.31,1.76,2.02,.96,1.4,1.98,2.77,2.97,4.16Z"/><path class="cls-3" d="M59.16,11.36c.97,.07,1.63,.33,1.28,1.56-.16,.56-.15,1.18-.49,1.92-.6-.83-1.09-1.53-1.6-2.23-.24-.33-.21-.68-.05-1.01,.19-.37,.55-.26,.86-.24Z"/><path d="M57.58,27.6l2.74,.9c-1.52,4.71-2.73,9.51-4.18,14.23-.96,3.13-1.98,6.26-2.87,9.42-1.01,3.56-2.07,7.13-3.47,10.59-1.11,2.75-1.89,5.63-2.82,8.46-.5,1.51-2.54,2.62-4.07,2.2-2.07-.58-4.23-.54-6.33-.93-1.36-.25-2.68-.68-4.03-.91-2.27-.37-4.54-.71-6.76-1.32-1.7-.47-3.44-.86-5-1.72-.94-.52-1.97-.69-2.97-.76-2.51-.18-4.93-.9-7.34-1.45-2.99-.69-5.62-2.4-7.15-5.28-.61-1.14-1.58-1.98-2.39-2.93-1.01-1.19-1.15-2.38-.68-3.76,2-5.81,3.93-11.64,6.01-17.43,1.22-3.39,2.84-6.64,3.95-10.07,.84-2.59,2.08-5.04,2.81-7.74l2.73,.88c-.98,3.63-2.49,7.08-3.76,10.6-.19,.51-.16,.75,.42,.94,1.24,.4,2.54,0,3.77,.35,.27,.07,.28-.21,.34-.39,.63-1.96,1.28-3.91,1.9-5.87,.95-2.97,1.74-6,2.95-8.88l2.79,.89c-1,3.1-2.13,6.15-2.99,9.3-.38,1.36-.86,2.7-1.31,4.09-.05,.32,.06,.52,.45,.4,1.28-.39,2.62-.35,3.92-.54l.44,2.79h0c-1.82,.29-3.62,.63-5.39,1.16-.7,.21-.95,.61-1.12,1.21-1.13,3.93-2.59,7.74-3.92,11.59-.47,1.37-.93,2.74-1.5,4.41,1-.54,1.79-.61,2.56-.74,3.87-.67,7.79-1,11.65-1.8,3.3-.68,6.65-1.1,9.95-1.74,1.94-.37,3.86-.89,5.77-1.42,2.67-.74,5.35-1.45,7.94-2.4,1.1-.4,2.47-.61,2.82-2.31,.54-2.58,1.38-5.1,2.13-7.63,.62-2.07,1.3-4.13,2.01-6.39Zm-7.74,25.65c.64-2.09,1.15-4.22,1.72-6.37-1.22,.32-2.46,.57-3.64,.98-3.38,1.18-6.87,1.95-10.33,2.78-3.17,.76-6.43,1.11-9.62,1.76-2.96,.6-5.95,.96-8.93,1.36-2.38,.31-4.66,.93-6.98,1.47-.58,.14-.85,.5-1.01,1.03-.57,1.84-1.1,3.7-1.77,5.51-.28,.75-.04,.94,.58,1.21,1.98,.88,4.16,.87,6.22,1.48,2.44,.72,4.98,.88,7.4,1.94,2.93,1.3,6.2,1.58,9.35,2.21,3.43,.69,6.86,1.3,10.32,1.77,.25,.03,.69,.4,.8-.12,.21-.99,.8-1.81,1.1-2.76,.87-2.7,1.81-5.38,2.71-8.06,.7-2.06,1.45-4.11,2.08-6.19ZM15.22,35.94c.3-.68,.1-1.18-.81-1.23-1.02-.06-2.07,.04-3.05-.35-.84-.14-1.08,.51-1.28,1.04-.77,2.07-1.46,4.18-2.22,6.24-.88,2.42-1.56,4.9-2.57,7.27-.22,.53-.16,.9,.54,.94,.75,.03,1.47,.28,2.2,.48,2.07,.55,2.04,.5,2.68-1.49,.7-2.14,1.39-4.29,2.23-6.38,.86-2.13,1.33-4.41,2.28-6.52Zm-6.48,18.34c.2-.49,.14-.99-.63-1.08-.94-.1-1.86-.4-2.8-.41-.45-.01-1.22-.51-1.44,.31-.28,1.06-1.22,2.19-.46,3.22,.98,1.33,1.96,2.67,3.23,4.3,.37-2.44,1.31-4.36,2.1-6.34Z"/><path class="cls-1" d="M56.53,15.03c.59,.97,1.36,1.85,1.63,3.05-2.47-.14-4.73-.82-7.05-1.11-3.3-.41-6.52-1.28-9.81-1.7-1.46-.19-2.95-.08-4.42-.19-.19-.02-.39-.04-.58-.06-3.3-.41-6.59-.94-9.8-1.81-1.19-.32-1.93-1.16-1.87-2.51,.79-.13,1.61-.3,2.44-.47,.37-.07,.75-.15,1.12-.22,1.68-.34,3.23,.56,4.87,.8,3.03,.45,5.97,1.34,9.06,1.6,2.62,.21,5.28,.36,7.81,1.18,1.47,.48,2.99,.37,4.48,.36,.96,0,1.68,.35,2.12,1.08Z"/><path class="cls-3" d="M57.58,27.6c-.71,2.26-1.39,4.32-2.01,6.39-.75,2.53-1.59,5.05-2.13,7.63-.35,1.7-1.72,1.91-2.82,2.31-2.59,.95-5.27,1.66-7.94,2.4-1.91,.53-3.83,1.05-5.77,1.42-3.3,.64-6.65,1.06-9.95,1.74-3.86,.8-7.78,1.13-11.65,1.8-.77,.13-1.56,.2-2.56,.74,.57-1.67,1.03-3.04,1.5-4.41,1.33-3.85,2.79-7.66,3.92-11.59,.17-.6,.42-1,1.12-1.21,1.77-.53,3.57-.87,5.39-1.15h0c2.6-.42,5.22-.73,7.79-1.36,2.09-.51,4.2-1.07,6.36-1.33,2.13-.25,4.23-.72,6.36-.9,2.59-.21,5.01-1.16,7.54-1.63,1.55-.3,3.12-.42,4.85-.85Z"/><path d="M36.88,15.08l-.28,2.93c-3.73-.29-7.4-1.06-11.05-1.91-.71-.17-.9-.05-1.07,.53-.1,.33-.21,.66-.31,.99l-2.79-.89c.38-.92-.07-1.1-.95-1.23-1.01,.29-2.18,.62-3.35,.98-.11,.04-.23,.25-.24,.38-.02,1.16-.79,2.06-1.08,3.12l-2.73-.88c.1-.38,.2-.77,.28-1.17-1.95,.14-2.51-.16-3.01-1.98-.7-2.6-1.29-5.23-1.88-7.85-.25-1.09,.03-1.99,1.19-2.41,3.64-1.31,7.01-3.33,10.84-4.14,.34-.08,.76-.14,1.06-.02,1.8,.74,3.72,.78,5.6,1.01l-.34,2.83c-.17-.02-.36-.02-.51-.02-.9-.02-1.8-.06-2.75-.26,.09,.7,.17,1.28,.23,1.86,.06,.52,.37,.88,.86,.75,.59-.16,1.18-.13,1.76-.22l.15-.03,.56,2.78c-.83,.17-1.65,.34-2.44,.47-.06,1.35,.68,2.19,1.87,2.51,3.21,.87,6.5,1.4,9.8,1.81,.19,.02,.39,.04,.58,.06Zm-15.69-2.72c.25-.04,.6,.06,.59-.37-.03-.09-.06-.16-.09-.23-.63-1.98-.83-4.04-1.15-6.08-.14-.87-.41-1.14-1.28-.79-2.42,.99-4.75,2.18-7.25,2.98-.3,.09-.53,.27-.42,.71,.45,1.8,.88,3.62,1.29,5.43,.12,.49,.24,.6,.8,.41,2.46-.85,4.94-1.62,7.51-2.06Z"/><path class="cls-3" d="M26.77,5.37c.31,.04,.57,.17,.51,.63-.07,.54-.06,1.25-.77,1.45l-.15,.03c-.58,.09-1.17,.06-1.76,.22-.49,.13-.8-.23-.86-.75-.06-.58-.14-1.16-.23-1.86,.95,.2,1.85,.24,2.75,.26,.15,0,.34,0,.51,.02Z"/><path class="cls-3" d="M21.78,11.99c.01,.43-.34,.33-.59,.37-2.57,.44-5.05,1.21-7.51,2.06-.56,.19-.68,.08-.8-.41-.41-1.81-.84-3.63-1.29-5.43-.11-.44,.12-.62,.42-.71,2.5-.8,4.83-1.99,7.25-2.98,.87-.35,1.14-.08,1.28,.79,.32,2.04,.52,4.1,1.15,6.08,.03,.07,.06,.14,.09,.23Z"/><path class="cls-3" d="M14.41,34.71c.91,.05,1.11,.55,.81,1.23-.95,2.11-1.42,4.39-2.28,6.52-.84,2.09-1.53,4.24-2.23,6.38-.64,1.99-.61,2.04-2.68,1.49-.73-.2-1.45-.45-2.2-.48-.7-.04-.76-.41-.54-.94,1.01-2.37,1.69-4.85,2.57-7.27,.76-2.06,1.45-4.17,2.22-6.24,.2-.53,.44-1.18,1.28-1.04,.98,.39,2.03,.29,3.05,.35Z"/></g></g></svg>