<?xml version="1.0" encoding="UTF-8"?><svg id="Layer_2" xmlns="http://www.w3.org/2000/svg" viewBox="0 0 47.2 175.89"><defs><style>.cls-1{fill:#cce8f7;}</style></defs><g id="Layer_6"><g><path class="cls-1" d="M28.01,86.81c.76,0,1.04,.27,.98,.91-.06,.67,.69,1.6-.61,1.94-1.9,.5-3.87,.25-5.78,.59-1.99,.08-3.97,.04-5.95-.21-.82-.1-1.13-.46-.84-1.15,.3-.72-.26-1.67,.38-2.15,.58-.42,1.36,.13,2.07,.16,3.26,.13,6.5-.05,9.75-.09Z"/><g><path class="cls-1" d="M15.87,95.25c-.27-2.02-.21-1.61,1.47-1.68,.16-.01,.32,0,.48,0,3.53,.1,7.06,.21,10.55-.47,.55-.11,.99-.1,1.05,.69,.27,3.67,.42,7.34,.35,11.03-.03,1.71-.12,3.47,.24,5.2,.16,.76,.07,1.58,.06,2.38-.06,2.9-.2,5.8-.37,8.7-.17,3.22,.18,6.47,.19,9.71,0,2.77,.37,5.52,.15,8.3-.09,1.14-.05,2.31,.11,3.44,.27,1.95-.18,3.89-.03,5.8,.24,3.23-.4,6.4-.36,9.61,.03,2.19-.47,4.39-.71,6.58-.26,2.44-1.33,4.44-2.48,6.47-.73,1.29-2.86,1.89-4.21,1.23-2.19-1.05-3.34-2.91-4.17-5.11-1.15-3.04-1.5-6.25-1.96-9.42-.41-2.8-.43-5.66-.63-8.49-.15-2.1-.16-4.21-.28-6.31-.15-2.5,.1-5.02,.08-7.53-.02-4.03-.09-8.05,.02-12.08,.14-5.39,.05-10.79,.35-16.18,.15-2.68,.33-5.37,.29-8.06-.01-1.26-.02-2.54-.19-3.81Z"/><path d="M46.95,21.72c.61,4.49,.02,8.86-.63,13.29-.62,4.19-1.81,8.2-3.32,12.13-1.08,2.81-2.18,5.6-3.36,8.37-1.43,3.37-2.54,6.83-3.5,10.36-1.25,4.63-2.49,9.26-3.2,14.01-.08,.51-.23,1.01-.31,1.52-.2,1.29-.37,2.54-.19,3.89,.25,1.86-.03,3.78,.08,5.66,.06,1.02,.12,2.06,.28,3.07,.51,3.19,.6,6.39,.46,9.59-.12,2.89,.38,5.74,.35,8.62-.02,1.82-.15,3.64-.22,5.46-.18,3.91-.32,7.82,.02,11.74,.2,2.37,.06,4.76,.1,7.14,.03,1.93,.11,3.86,.16,5.79,.11,3.62-.11,7.24-.21,10.85-.07,2.81-.11,5.64-.42,8.4-.43,3.91-1.1,7.84-3.45,11.23-2.28,3.29-6.66,3.99-9.98,1.74-3.48-2.37-4.7-5.88-5.68-9.68-.63-2.44-.79-4.92-1.25-7.37-.26-1.36-.28-2.76-.4-4.14-.25-5.17-.64-10.34-.44-15.52,.17-4.14-.29-8.27,.04-12.39,.27-3.29,.02-6.58,.31-9.87,.13-1.51-.16-3.09-.11-4.64,.11-3.16,.49-6.31,.44-9.48-.04-2.56-.27-5.13-.19-7.69,.06-2.05,.18-4.14,.08-6.14-.1-1.87-.05-3.81-.44-5.72-.56-2.69-1.29-5.33-2.11-7.94-1-3.17-1.92-6.35-3.42-9.37-1.93-3.9-3.73-7.92-4.55-12.24-.91-4.88-1.56-9.8-1.82-14.77-.21-4.07,.09-8.09,.65-12.12,.42-2.99,.97-5.91,2.31-8.65,2.19-4.5,4.86-8.6,8.66-11.98,1.88-1.66,3.85-3.05,6.17-3.87,3.49-1.22,7.06-1.29,10.65-.41,1.57,.38,3.25,.39,4.67,1.29,3.54,2.24,7,4.55,9.3,8.2,2.27,3.59,3.89,7.38,4.47,11.64Zm-4.1,13.31c.59-4.3,1.25-8.54,.67-12.9-.55-4.17-2.18-7.9-4.63-11.21-1.82-2.46-4.38-4.23-6.95-5.89-.33-.21-.68-.35-1.11-.28,.01,.61,.4,1.05,.7,1.49,1.37,2.03,2.06,4.36,2.79,6.62,.95,2.97,1.66,6.03,2.1,9.15,.73,5.14,.35,10.22-.32,15.31-.28,2.13-.66,4.24-1.01,6.36-.49,2.97-1.06,5.92-1.49,8.89-.34,2.37-1.09,4.64-1.69,6.93-.75,2.82-1.04,5.71-1.7,8.54-1.06,4.47-1.2,9.04-1.21,13.59,.49-2.35,.95-4.71,1.46-7.05,.77-3.53,1.46-7.06,2.62-10.51,.7-2.08,1.21-4.26,1.91-6.34,1.11-3.25,2.68-6.32,3.84-9.57,1.55-4.32,3.39-8.5,4.02-13.13Zm-9.71-2.85c.19-2.09,.31-4.19,.21-6.26-.24-4.91-1.35-9.66-3.21-14.23-.93-2.29-1.75-4.65-3.7-6.72-1.13,22.71-.48,45.19-.66,67.69,.43-1.37,.69-2.79,.88-4.18,.43-3.1,.92-6.19,1.73-9.2,1.38-5.17,2.33-10.44,3.24-15.69,.65-3.76,1.17-7.58,1.51-11.41Zm-3.02,116.17c-.15-1.91,.3-3.85,.03-5.8-.16-1.13-.2-2.3-.11-3.44,.22-2.78-.15-5.53-.15-8.3,0-3.24-.36-6.49-.19-9.71,.17-2.9,.31-5.8,.37-8.7,.01-.8,.1-1.62-.06-2.38-.36-1.73-.27-3.49-.24-5.2,.07-3.69-.08-7.36-.35-11.03-.06-.79-.5-.8-1.05-.69-3.49,.68-7.02,.57-10.55,.47-.16,0-.32-.01-.48,0-1.68,.07-1.74-.34-1.47,1.68,.17,1.27,.18,2.55,.19,3.81,.04,2.69-.14,5.38-.29,8.06-.3,5.39-.21,10.79-.35,16.18-.11,4.03-.04,8.05-.02,12.08,.02,2.51-.23,5.03-.08,7.53,.12,2.1,.13,4.21,.28,6.31,.2,2.83,.22,5.69,.63,8.49,.46,3.17,.81,6.38,1.96,9.42,.83,2.2,1.98,4.06,4.17,5.11,1.35,.66,3.48,.06,4.21-1.23,1.15-2.03,2.22-4.03,2.48-6.47,.24-2.19,.74-4.39,.71-6.58-.04-3.21,.6-6.38,.36-9.61Zm-1.74-58.69c1.3-.34,.55-1.27,.61-1.94,.06-.64-.22-.91-.98-.91-3.25,.04-6.49,.22-9.75,.09-.71-.03-1.49-.58-2.07-.16-.64,.48-.08,1.43-.38,2.15-.29,.69,.02,1.05,.84,1.15,1.98,.25,3.96,.29,5.95,.21,1.91-.34,3.88-.09,5.78-.59Zm-6.41-6.65c.55-26.04-.19-52.18,.95-78.53-.73,1.05-1.42,1.91-1.95,2.87-1.29,2.36-2.88,4.53-4.45,6.69-.97,1.34-1.5,2.85-2.35,4.22-1.18,1.92-1.61,4.12-2.14,6.27-.58,2.39-1,4.82-1.15,7.26-.12,2.06-.19,4.13,.07,6.24,.44,3.65,1.29,7.2,1.96,10.79,.49,2.63,1.55,5.09,2.07,7.7,.33,1.7,.65,3.43,1.4,4.99,1.37,2.88,2.5,5.84,3.39,8.9,.87,3,1.77,5.96,1.81,9.15,.01,1.15-.55,2.48,.39,3.45Zm-4.53,.3c.6,.06,.79-.09,.78-.68-.1-4.39-.77-8.67-2.28-12.8-.74-2.05-1.55-4.07-2.33-6.09-1.04-2.65-1.92-5.37-2.52-8.18-.5-2.31-1.39-4.53-1.89-6.84-.68-3.13-1.31-6.28-1.7-9.48-.32-2.61-.37-5.23-.13-7.83,.27-2.95,.93-5.86,1.55-8.77,.78-3.67,2.44-6.93,4.4-10.05,1.67-2.65,3.57-5.15,5.05-7.95-2.06,.93-3.91,2.13-5.43,3.76-1.57,1.68-2.95,3.49-4.26,5.41-2.18,3.21-3.55,6.67-4.27,10.42-1.01,5.17-1.12,10.4-.71,15.63,.22,2.83,.38,5.67,1.11,8.48,.6,2.35,.87,4.8,1.53,7.17,.76,2.73,2.37,5.08,3.28,7.74,.62,1.81,1.69,3.43,2.25,5.3,.53,1.78,1.06,3.55,1.51,5.36,.57,2.3,1.47,4.5,1.88,6.86,.43,2.46,.56,2.41,2.18,2.54Z"/></g></g></g></svg>