<?xml version="1.0" encoding="UTF-8"?><svg id="Layer_2" xmlns="http://www.w3.org/2000/svg" viewBox="0 0 134.15 170.39"><defs><style>.cls-1{fill:#f3a2c5;}.cls-2{fill:#f9da69;}.cls-3{fill:#ee5d67;}.cls-4{fill:#cce8f7;}</style></defs><g id="Layer_8"><g><path d="M133.9,54.92c.01,4.75,0,9.5-.16,14.24-.08,2.1-.16,4.2-.27,6.3-.02,.47-.04,.93-.05,1.4l-2.79-.1c.08-2.29,.09-4.58,.11-6.87,.03-2.69,.41-5.39,.03-8.09-.06-.49,.39-1.02-.1-1.61-1.32,2.74-3.28,4.97-4.53,7.64-1,2.12-2.19,4.15-2.97,6.36-1.61,4.57-3.18,9.13-3.68,14.01-.38,3.67-.03,7.22,1.09,10.68,1.26,3.91,3.05,7.65,3.65,11.78,.49,3.34,.35,6.59-.87,9.75-1.06,2.78-3.17,4.78-5.19,6.87-1.93,1.98-3.85,4-4.97,6.63-.98,2.28-1.7,4.51-.71,7,.54,1.36,.86,2.81,1.19,4.24,.49,2.19,.27,4.4,.07,6.62-.21,2.26-.4,4.56-1.33,6.6-2.12,4.63-5.87,6.96-11.01,7.13-1.34,.04-2.59-.25-3.87-.48-1.84-.33-3.64-.83-5.3-1.71-3.81-2.02-7.64-4.01-11.67-5.59-3.3-1.29-6.71-2.11-10.22-2.56-2.35-.31-4.69-.11-6.87,.59l-.82-2.73c.75-.23,1.51-.44,2.27-.65,1.87-.51,3.8-.45,5.68-.21,2.03,.27,4.07,.58,6.08,1.11,2.42,.65,4.77,1.47,7.02,2.5,1.97,.91,3.96,1.82,5.92,2.77,2.23,1.07,4.26,2.57,6.73,3.15,2.1,.5,4.19,1.11,6.38,.78,1.99-.3,3.54-1.41,5.07-2.68,1.34-1.11,2.15-2.49,2.39-4.11,.17-1.13,.4-2.25,.53-3.38,.4-3.53,.27-6.99-.97-10.38-.47-1.29-1-2.58-.82-4.05,.57-4.65,3.02-8.27,6.07-11.62,1.73-1.9,3.79-3.52,5.01-5.86,2.36-4.58,1.61-9.23,.22-13.84-.97-3.17-2.63-6.12-3.22-9.41-.34-1.86-.67-3.73-.66-5.66,0-1.8,.27-3.56,.42-5.34,.25-3.08,1.15-6.02,2.1-8.89,1-3.03,2.11-6.07,3.65-8.91,1.28-2.37,2.44-4.81,4.03-7.02,2.55-3.55,3.61-7.46,2.5-11.81-.85-3.33-2.01-6.46-4.59-8.95-1.63-1.57-3.1-3.31-4.92-4.64-1.87-1.36-3.86-2.52-5.89-3.61l1.33-2.49c1.04,.55,2.07,1.1,3.11,1.65,1.58,.84,3.09,1.79,4.41,3,1.17,1.08,2.41,2.11,3.45,3.28,.93,1.03,2.06,1.9,2.76,3.2,.59,1.11,1.22,2.24,1.96,3.37,.23-.29,.29-.54,.29-.78l2.78-.03c.05,3.8,.14,7.61,.15,11.41Z"/><path d="M133.72,40.38c.01,1.04,.02,2.09,.03,3.13l-2.78,.03c0-.18-.03-.34-.04-.5-.05-1.32-.15-2.63-.22-3.94-.18-3-.25-6.02-.55-9.01-.33-3.35-.49-6.7-.61-10.05-.13-3.8,.11-7.61-.28-11.41-.23-2.25-2.22-4.58-4.11-4.36-1.46,.16-2.91-.01-4.35-.01-2,0-4.01-.07-6.01-.12-3.62-.07-7.24,.09-10.84-.12-4-.24-8.01-.07-12.01-.31-2.52-.15-5.07-.02-7.6-.08-.75-.01-1.5-.04-2.24-.1-3.49-.27-6.98-.03-10.48-.28-2.11-.15-4.27-.14-6.4-.05-1.71,.07-3.41,.08-5.12,.04,.04,.33,.27,.35,.44,.44,2.77,1.49,5.67,2.58,8.87,2.55,1.55-.01,3.12-.07,4.63-.35,2.01-.37,3.95-1.14,5.99-1.41,.91-.11,1.83-.11,2.75-.19,.52-.05,1.04-.07,1.55-.07,1.66,0,3.3,.25,4.89,.8,2.51,.86,4.76,2.25,6.65,4.1,1.5,1.46,2.84,3.11,3.85,4.95,.83,1.51,1.45,3.14,2.12,4.73,1.33,3.17,3.51,5.62,6.44,7.33,2.21,1.29,4.45,2.51,6.7,3.7l-1.33,2.49c-2.03-1.09-4.09-2.1-6.13-3.18-2.58-1.36-4.74-3.2-6.42-5.58-1.29-1.83-2.15-3.87-2.99-5.92-1.13-2.75-2.85-5-5.11-6.98-1.7-1.49-3.59-2.61-5.67-3.1-3.08-.72-6.28-.5-9.33,.39-2.23,.65-4.51,1.09-6.78,1.24-3.89,.25-7.62-.56-11.13-2.4-1.28-.67-2.69-1.25-4.1-1.5-3.55-.63-7.14-.11-10.69,.12-4.15,.26-8.15,1.33-12.12,2.68-6.32,2.14-9.02,6.64-9.17,12.8-.06,2.35-.39,4.68-1.06,6.91-.62,2.06-1.5,4.04-2.69,5.9-1.29,2.02-2.65,3.96-4.28,5.68-3.34,3.52-6.03,7.45-7.84,11.95-.32,.8-.61,1.62-.87,2.45l-2.76-.92c.14-.43,.25-.86,.39-1.27,.95-2.99,2.49-5.63,4.09-8.28,2.22-3.69,5.59-6.44,7.96-10,1.58-2.37,2.8-4.87,3.4-7.64,.58-2.63,.55-5.35,1-8,.86-5.12,3.46-9.04,8.24-11.33,1.21-.57,2.45-1.07,3.93-1.72-.64-.04-1-.14-1.33-.08-2.23,.37-4.49,.18-6.73,.27-3.06,.12-6.11,.19-9.17,.23l-.04-2.9c.78-.01,1.57-.02,2.35-.05,2.15-.09,4.29-.22,6.43-.32,2.51-.12,5.02,.05,7.52-.22,2.71-.29,5.43-.68,8.15-.75,3.45-.08,6.89-.32,10.35-.31,5.61,.01,11.22-.29,16.83-.22,2.22,.02,4.45-.02,6.68,.1,4.06,.24,8.16,.03,12.23,.24,2.34,.13,4.69,.17,7.03,.21,1.95,.04,3.93,0,5.88,.05,2.98,.08,5.96-.08,8.93,.22,2.18,.22,4.34-.24,6.52-.01,3.02,.33,6.05,.09,9.08,.14,1.66,.03,3.23,.38,4.61,1.35,1.98,1.41,3.01,3.37,3.35,5.76,.71,5.03,.25,10.08,.49,15.11,.12,2.58,.42,5.16,.53,7.73,.13,3.07,.49,6.13,.5,9.22Z"/><path d="M130.63,76.76l2.79,.1c-.13,3.22-.15,6.45-.08,9.68,.07,3.53-.04,7.07-.03,10.61,.02,3.41-.18,6.81-.15,10.22,.05,5.79,.07,11.58,.09,17.37,.01,4.07-.11,8.15,.02,12.23,.08,2.4,.07,4.82-.1,7.24-.19,2.64-.03,5.31-.15,7.96-.06,1.23-.03,2.48-.18,3.7-.24,2.01-.03,4.01-.06,6.02-.03,2.47-.79,4.38-3.02,5.87-2.67,1.78-5.64,1.71-8.54,1.89-3.67,.24-7.37,.14-11.05,.14-3.08,0-6.17,.11-9.25,.12-2.53,0-5.08,.08-7.63,.12-5.51,.06-11.03,.03-16.54,.03s-11.07-.02-16.61-.02c-5.6,.01-11.2-.01-16.8,.07-4.89,.07-9.76-.04-14.64-.27-3.16-.15-6.33,.04-9.5,.03-3.72,0-7.53,.18-11.04-1.12-2.73-1.01-5.1-2.54-5.96-5.92l2.79-.51c.21,.64,.53,1.24,1.02,1.74,1.11,1.14,2.53,1.94,4.17,2.15,3.02,.39,6.04,.62,9.1,.65,4.7,.03,9.41-.16,14.11,.28,.21,.02,.47,.12,.65-.27-1.01-.48-1.4-1.54-2.13-2.3-2.2-2.28-3.42-5.15-4.49-8.03-1.1-2.96-1.75-6.09-2.67-9.12-.77-2.5-2.13-4.66-4.34-6.1-1.76-1.15-3.58-2.21-5.39-3.28l1.28-2.56c.2,.12,.4,.23,.61,.34,1.98,1.04,4.01,2.03,5.76,3.49,2.3,1.94,4.02,4.26,4.94,7.13,.59,1.85,1.05,3.74,1.62,5.59,.41,1.36,.65,2.81,1.18,4.08,.73,1.72,1.56,3.44,2.61,5.04,1.81,2.76,4.06,4.76,7.39,5.31,.82,.13,1.68,.18,2.48-.13,2.85-1.1,5.07-3.05,7.12-5.25,1.59-1.71,3.34-3.27,5.24-4.63,2.25-1.62,4.79-2.62,7.41-3.43l.82,2.73c-.51,.16-1,.35-1.49,.57-2.54,1.12-5.13,2.22-7.25,4.27-2.21,2.13-4.16,4.52-6.63,6.44,1.45-.11,2.87,.13,4.24,.04,4.13-.28,8.25-.08,12.37-.06,2.57,.01,5.14,0,7.72-.05,2.75-.06,5.5,.06,8.25,.07,2.76,.02,5.53-.07,8.28,.02,1.49,.05,2.98-.09,4.48,0,2.24,.13,4.5-.09,6.76-.11,.4,0,.8-.01,1.2,0,4.08-.03,8.17,.03,12.25-.11,2.38-.08,4.76,.04,7.13-.17,2.6-.23,5.34,.18,7.64-1.65,.93-.75,1.64-2.03,1.28-3.19-.2-.65-.21-1.27-.15-1.89,.43-4.66,.52-9.34,.65-14.02,.1-3.84-.02-7.68,.02-11.52,.05-5.67,.07-11.33,.14-17,.04-3.76-.07-7.55-.11-11.32-.03-3.09,.11-6.19,0-9.28-.08-2.73,0-5.46-.02-8.18-.01-2.56-.07-5.15,.14-7.73,.12-1.37,.19-2.74,.24-4.12Z"/><path class="cls-2" d="M130.93,43.04c.01,.16,.04,.32,.04,.5,0,.24-.06,.49-.29,.78-.74-1.13-1.37-2.26-1.96-3.37-.7-1.3-1.83-2.17-2.76-3.2-1.04-1.17-2.28-2.2-3.45-3.28-1.32-1.21-2.83-2.16-4.41-3-1.04-.55-2.07-1.1-3.11-1.65-2.25-1.19-4.49-2.41-6.7-3.7-2.93-1.71-5.11-4.16-6.44-7.33-.67-1.59-1.29-3.22-2.12-4.73-1.01-1.84-2.35-3.49-3.85-4.95-1.89-1.85-4.14-3.24-6.65-4.1-1.59-.55-3.23-.8-4.89-.8v-.58c2.54,.06,5.09-.07,7.61,.08,4,.24,8.01,.07,12.01,.31,3.6,.21,7.22,.05,10.84,.12,2,.05,4.01,.11,6.01,.12,1.44,0,2.89,.17,4.35,.01,1.89-.22,3.88,2.11,4.11,4.36,.39,3.8,.15,7.61,.28,11.41,.12,3.35,.28,6.7,.61,10.05,.3,2.99,.37,6.01,.55,9.01,.07,1.31,.17,2.62,.22,3.94Z"/><path class="cls-2" d="M130.77,61.8c.38,2.7,0,5.4-.03,8.09-.02,2.29-.03,4.58-.11,6.87-.05,1.38-.12,2.75-.24,4.12-.21,2.58-.15,5.17-.14,7.73,.01,2.72-.06,5.45,.02,8.18,.1,3.09-.04,6.19,0,9.28,.04,3.77,.15,7.56,.11,11.32-.07,5.67-.09,11.33-.14,17-.04,3.84,.08,7.68-.02,11.52-.13,4.68-.22,9.36-.65,14.02-.06,.62-.05,1.24,.15,1.89,.36,1.16-.35,2.44-1.28,3.19-2.3,1.83-5.04,1.42-7.64,1.65-2.37,.21-4.75,.09-7.13,.17-4.08,.14-8.17,.08-12.25,.11v-1.44c5.14-.17,8.89-2.5,11.01-7.13,.93-2.04,1.12-4.34,1.33-6.6,.2-2.22,.42-4.43-.07-6.62-.33-1.43-.65-2.88-1.19-4.24-.99-2.49-.27-4.72,.71-7,1.12-2.63,3.04-4.65,4.97-6.63,2.02-2.09,4.13-4.09,5.19-6.87,1.22-3.16,1.36-6.41,.87-9.75-.6-4.13-2.39-7.87-3.65-11.78-1.12-3.46-1.47-7.01-1.09-10.68,.5-4.88,2.07-9.44,3.68-14.01,.78-2.21,1.97-4.24,2.97-6.36,1.25-2.67,3.21-4.9,4.53-7.64,.49,.59,.04,1.12,.1,1.61Z"/><path class="cls-1" d="M129.06,49.51c1.11,4.35,.05,8.26-2.5,11.81-1.59,2.21-2.75,4.65-4.03,7.02-1.54,2.84-2.65,5.88-3.65,8.91-.95,2.87-1.85,5.81-2.1,8.89-.15,1.78-.42,3.54-.42,5.34-.01,1.93,.32,3.8,.66,5.66,.59,3.29,2.25,6.24,3.22,9.41,1.39,4.61,2.14,9.26-.22,13.84-1.22,2.34-3.28,3.96-5.01,5.86-3.05,3.35-5.5,6.97-6.07,11.62-.18,1.47,.35,2.76,.82,4.05,1.24,3.39,1.37,6.85,.97,10.38-.13,1.13-.36,2.25-.53,3.38-.24,1.62-1.05,3-2.39,4.11-1.53,1.27-3.08,2.38-5.07,2.68-2.19,.33-4.28-.28-6.38-.78-2.47-.58-4.5-2.08-6.73-3.15-1.96-.95-3.95-1.86-5.92-2.77-2.25-1.03-4.6-1.85-7.02-2.5-2.01-.53-4.05-.84-6.08-1.11-1.88-.24-3.81-.3-5.68,.21-.76,.21-1.52,.42-2.27,.65-2.62,.81-5.16,1.81-7.41,3.43-1.9,1.36-3.65,2.92-5.24,4.63-2.05,2.2-4.27,4.15-7.12,5.25-.8,.31-1.66,.26-2.48,.13-3.33-.55-5.58-2.55-7.39-5.31-1.05-1.6-1.88-3.32-2.61-5.04-.53-1.27-.77-2.72-1.18-4.08-.57-1.85-1.03-3.74-1.62-5.59-.92-2.87-2.64-5.19-4.94-7.13-1.75-1.46-3.78-2.45-5.76-3.49-.21-.11-.41-.22-.61-.34-3-1.73-5.1-4.21-6.24-7.51-1.37-3.95-1.88-8.03-1.6-12.21,.12-1.86,.51-3.67,1.05-5.64,1.46,2.38,2.51,4.78,4.1,6.87,.88,1.16,2.01,1.91,3.34,2.37,1.22,.42,2.53-.28,2.95-1.51,.67-1.96,.19-3.89-.48-5.7-.44-1.21-1-2.39-1.5-3.59-1.35-3.22-2.83-6.38-4.62-9.38-.22-.37-.38-.79-.31-1.25,.09-.61,.18-1.23,.26-1.84,.14-.97,.27-1.93,.43-2.89,.33-2.09,.13-4.17-.14-6.23-.29-2.12-.51-4.25-1.04-6.34-.56-2.19-1.21-4.35-2.35-6.33-2.07-3.57-4.21-7.15-4.49-11.38-.13-1.98,.06-4.02,.64-5.96,.32-1.06,.63-2.13,.98-3.19,.26-.83,.55-1.65,.87-2.45,1.81-4.5,4.5-8.43,7.84-11.95,1.63-1.72,2.99-3.66,4.28-5.68,1.19-1.86,2.07-3.84,2.69-5.9,.67-2.23,1-4.56,1.06-6.91,.15-6.16,2.85-10.66,9.17-12.8,3.97-1.35,7.97-2.42,12.12-2.68,3.55-.23,7.14-.75,10.69-.12,1.41,.25,2.82,.83,4.1,1.5,3.51,1.84,7.24,2.65,11.13,2.4,2.27-.15,4.55-.59,6.78-1.24,3.05-.89,6.25-1.11,9.33-.39,2.08,.49,3.97,1.61,5.67,3.1,2.26,1.98,3.98,4.23,5.11,6.98,.84,2.05,1.7,4.09,2.99,5.92,1.68,2.38,3.84,4.22,6.42,5.58,2.04,1.08,4.1,2.09,6.13,3.18s4.02,2.25,5.89,3.61c1.82,1.33,3.29,3.07,4.92,4.64,2.58,2.49,3.74,5.62,4.59,8.95Zm-11.09-6.76c.14-1.65-.36-2.97-1.68-4.07-1.02-.85-1.74-1.12-3-.57-1.17,.53-1.77,1.61-2.19,2.67-.95,2.43-.96,5.07-1.22,7.62-.22,2.17-.66,4.33-.68,6.56-.02,1.55,.2,2.89,1.08,3.99,.97,1.21,2.89,1.89,4.1,.46,.91-1.09,1.33-2.32,1.7-3.62,.81-2.87,.93-5.85,1.35-8.79,.21-1.41,.36-2.83,.54-4.25Zm-14.48,28.31c1.57-3.54,2.05-7.15,1.68-10.88-.36-3.63-1.58-7.05-3.51-10.16-1.2-1.94-2.83-3.42-5-4.41-1.64-.75-3.34-.87-5.04-1.22-3.44-.7-6.66-.14-9.76,1.47,.04-3.53-.08-7.08-.31-10.62-.12-1.89-1.42-3.25-3.1-3.23-2.99,.04-5.91,.57-8.83,1.08-1.02,.17-1.5,.8-1.71,1.74-.37,1.68-.31,3.41-.19,5.07,.25,3.33,.2,6.67,.31,10,.13,4.27,.46,8.53,.61,12.8,.14,4.12,.62,8.24,.63,12.37,0,1.06-.1,2.12,.03,3.18,.19,1.56,1.6,2.74,2.91,2.4,1.46-.38,2.94-.6,4.46-.6,2.64,.01,3.35-.52,4.04-2.96,1.37,1.73,3.24,2.59,5.14,3.6-1.34,.56-2.55,1.03-3.74,1.57-1.94,.89-3.95,1.68-5.13,3.66-.68,1.13-.67,2.25,.15,3.44,.63,.91,2.16,1.58,3.16,1.22,2.11-.77,4.43-.9,6.37-2.17,.59-.38,1.28-.71,1.97-.81,1.77-.26,3.45-.89,5.19-1.3,1.56-.36,3.02-1.13,4.29-2.2,.54-.45,.94-1.01,.85-1.63-.16-1.08-.36-2.24-.89-3.16-.34-.58-.14-.65,.15-.98,1.99-2.24,4-4.42,5.27-7.27Zm-5.54,58.1c2.46-2.78,3.21-6.07,2.81-9.61-.42-3.7-2.96-5.74-6.19-7.05-2.43-.99-5.1-1.14-7.6-1.93-.8-.25-1.31-.66-1.62-1.41-.14-.34-.3-.66-.02-1s.65-.28,.98-.15c.59,.24,1.3,.39,1.7,.82,1.35,1.44,2.59,1.57,4.38,.56,1.84-1.05,3.97-1.57,5.97-2.35,1.44-.57,1.77-1.66,.85-2.94-.79-1.09-1.62-2.17-2.52-3.17-1.64-1.81-3.6-3.3-5.88-4.08-1.93-.66-3.99-1.12-6.05-.88-4.43-.25-8.02,1.23-10.82,4.73-1.25,1.56-2.15,3.26-2.69,5.1-.58,1.99-.57,4.11,.06,6.11,.55,1.77,1.14,3.7,2.78,4.74,2.44,1.53,5.32,2.02,8.06,2.77,1.04,.29,2.04,.61,2.98,1.1,.36,.2,.87,.53,.68,1-.22,.56-.83,.52-1.34,.36-1.14-.37-2.24-.82-3.16-1.61-.91-.79-1.86-.85-2.86-.24-1.07,.67-2.11,1.41-3.2,2.04-1.17,.68-2.39,1.26-3.59,1.88-1.71,.89-1.83,1.95-.35,3.18,.43,.36,.84,.72,1.22,1.14,1.25,1.38,2.73,2.49,4.36,3.41,3.12,1.76,6.62,1.8,10.05,2.1,.56,.05,.73,.05,.88,.69,.93,3.97,1.42,8.05,3.04,11.83,.7,1.62,2.17,2.5,3.98,2.3,1.2-.13,1.87-.93,2.13-2.78,.36-2.52-.27-4.98-.65-7.44-.31-1.95-.96-3.85-1.11-5.84-.03-.47-.19-.97,.39-1.25,.99-.48,1.64-1.32,2.35-2.13Zm-2.49-103.31c1.57-1.58,.56-3.84-1.27-5.25-2.45-1.91-5.53-1.94-8.34-2.48-2.2-.43-4.55-.67-6.97-.56-1.1-.16-2.28-.02-3.42,.42-1.84,.7-2.44,2.53-1.32,4.12,1.08,1.52,2.68,2.21,4.41,2.6,1.7,.39,3.43,.67,5.14,.96,3.1,.52,6.19,1.14,9.36,.95,.83-.05,1.7-.04,2.41-.76Zm-30.02,37.83c.12-2.03-.03-4.05-.39-6.01-.46-2.41-1.35-4.71-2.78-6.75-1.01-1.45-2.28-2.7-3.74-3.62-2.19-1.38-4.72-1.88-7.32-1.97-2.89-.1-5.6,.53-8.07,2.06-.26,.15-.58,.49-.75-.02-.83-2.52-2.94-2.63-5.04-2.72-2.35-.1-4.64,.55-6.99,.6-1.64,.03-1.86,.43-2.29,2.04-.67,2.5-.11,5.03-.27,7.54-.16,2.61-.07,5.25,.09,7.86,.1,1.5-.69,2.28-1.72,3.02-.22,.16-.54,.21-.72,.4-2.22,2.33-4.89,4.18-7,6.62-1.81,2.09-.83,4.29,1.31,4.8,2.19,.52,3.98-.22,5.68-1.41,.81-.56,1.51-1.28,2.27-1.92,.18-.15,.38-.35,.64-.25,.24,.08,.15,.33,.14,.51-.05,1.94,.29,3.89,.21,5.81-.14,3.05-.01,6.08,.07,9.12,.06,1.99,1.47,4.31,3.77,4.54,2.22,.22,4.37-.08,6.51-.44,1.19-.19,2.21-.94,2.54-2.13,.37-1.36,.68-2.76,.65-4.21-.05-3.02-.02-6.03-.02-9.19,1.29,.56,1.97,1.62,2.99,2.1,3.14,1.49,6.5,1.55,9.62,.34,4.06-1.57,7-4.6,8.76-8.65,1.12-2.57,1.69-5.26,1.85-8.07Zm.02,46.34c-.02-3.74,.14-7.48-.16-11.22-.33-4.11-.36-8.24-.56-12.35-.04-.87-.51-1.51-1.37-1.76-1.15-.33-2.31-.55-3.53-.52-1.27,.03-2.52,.17-3.79,.18-3.22,.03-4.54,1.32-4.7,4.17-.04,.71,.15,1.41,.1,2.14-.16,2.37-.3,4.75-.28,7.13,0,1.78,.08,1.81-1.67,1.48-.15-.03-.3-.12-.45-.14-3.06-.25-6.02-1.27-9.21-.18-2.96,1.01-5.44,2.57-7.52,4.75-2.54,2.66-3.85,5.91-4.33,9.61-.54,4.16,.28,7.96,2.26,11.57,1.24,2.24,2.87,4.13,5.05,5.57,2.34,1.55,4.96,2.26,7.62,2.9,1.06,.25,2.14,.64,3.28,.47,2.65-.38,5.2-1.04,7.4-2.71,.36,2.09,1.28,2.66,3.42,2.85,1.41,.13,2.76-.21,4.15-.17,.9,.02,1.84-.38,2.73-.69,.54-.19,.97-.71,.95-1.28-.04-1.55,.25-3.08,.28-4.61,.04-2.77,.14-5.54,.2-8.31,.06-2.96,.14-5.93,.13-8.88Zm-7.78,37.43c2.11-1.26,2.83-2.28,1.29-4.48-.77-1.09-2.14-.82-3.26-1.02-1.94-.17-3.63,.71-5.27,1.38-2.81,1.14-5.62,2.33-8.25,3.88-1.74,1.03-3.53,1.92-4.19,4.11-.75,2.48,.71,4.23,3.28,3.73,2.25-.43,4.27-1.47,6.32-2.39,3.46-1.53,6.83-3.27,10.08-5.21Zm-7.23-111.16c1.22-.63,1.36-1.87,1.5-3.08-.11-.74-.11-1.53-.36-2.23-1.07-2.96-2.69-5.67-4.53-8.18-1.64-2.24-2.86-4.8-4.9-6.75-.76-.72-1.05-1.89-2.15-2.28-2.54-.9-5.1,.98-5.27,3.7-.1,1.64,.65,2.94,1.31,4.26,1.65,3.3,4.02,6.15,6.08,9.2,1.25,1.86,2.41,3.82,4.4,5.09,1.3,.84,2.6,.95,3.92,.27Z"/><path d="M116.29,38.68c1.32,1.1,1.82,2.42,1.68,4.07-.18,1.42-.33,2.84-.54,4.25-.42,2.94-.54,5.92-1.35,8.79-.37,1.3-.79,2.53-1.7,3.62-1.21,1.43-3.13,.75-4.1-.46-.88-1.1-1.1-2.44-1.08-3.99,.02-2.23,.46-4.39,.68-6.56,.26-2.55,.27-5.19,1.22-7.62,.42-1.06,1.02-2.14,2.19-2.67,1.26-.55,1.98-.28,3,.57Zm-1.24,4.1c.13-.61,.16-1.64-.54-1.73-.72-.09-.56,.99-.84,1.52-.08,.13-.05,.31-.07,.47-.44,3.3-.92,6.6-1.29,9.91-.14,1.26-.44,2.56,.03,3.96,.56-.31,.55-.72,.67-1.09,1.29-4.25,1.16-8.73,2.04-13.04Z"/><path class="cls-3" d="M114.51,41.05c.7,.09,.67,1.12,.54,1.73-.88,4.31-.75,8.79-2.04,13.04-.12,.37-.11,.78-.67,1.09-.47-1.4-.17-2.7-.03-3.96,.37-3.31,.85-6.61,1.29-9.91,.02-.16,0-.34,.07-.47,.28-.53,.12-1.61,.84-1.52Z"/><path d="M105.17,60.18c.37,3.73-.11,7.34-1.68,10.88-1.27,2.85-3.28,5.03-5.27,7.27-.29,.33-.49,.4-.15,.98,.53,.92,.73,2.08,.89,3.16,.09,.62-.31,1.18-.85,1.63-1.27,1.07-2.73,1.84-4.29,2.2-1.74,.41-3.42,1.04-5.19,1.3-.69,.1-1.38,.43-1.97,.81-1.94,1.27-4.26,1.4-6.37,2.17-1,.36-2.53-.31-3.16-1.22-.82-1.19-.83-2.31-.15-3.44,1.18-1.98,3.19-2.77,5.13-3.66,1.19-.54,2.4-1.01,3.74-1.57-1.9-1.01-3.77-1.87-5.14-3.6-.69,2.44-1.4,2.97-4.04,2.96-1.52,0-3,.22-4.46,.6-1.31,.34-2.72-.84-2.91-2.4-.13-1.06-.03-2.12-.03-3.18,0-4.13-.49-8.25-.63-12.37-.15-4.27-.48-8.53-.61-12.8-.11-3.33-.06-6.67-.31-10-.12-1.66-.18-3.39,.19-5.07,.21-.94,.69-1.57,1.71-1.74,2.92-.51,5.84-1.04,8.83-1.08,1.68-.02,2.98,1.34,3.1,3.23,.23,3.54,.35,7.09,.31,10.62,3.1-1.61,6.32-2.17,9.76-1.47,1.7,.35,3.4,.47,5.04,1.22,2.17,.99,3.8,2.47,5,4.41,1.93,3.11,3.15,6.53,3.51,10.16Zm-5.08,11.02c1.83-3.26,2.53-6.75,2.23-10.36-.27-3.18-1.36-6.21-2.95-8.99-.79-1.38-1.83-2.54-3.34-3.31-1.29-.65-2.65-.83-4-1.13-3.44-.76-6.75-.42-9.67,1.67-.95,.68-1.84,.59-2.68,.25-.83-.35-.76-1.3-.77-2.11-.06-3.73,.03-7.47-.22-11.21-.06-.75-.23-1.04-1.05-1.02-2.14,.07-4.22,.64-6.35,.79-.65,.05-.6,.53-.58,.97,.16,3.34,.02,6.69,.25,10.04,.28,3.96,.34,7.93,.52,11.89,.25,5.55,.69,11.11,.75,16.47-.03,.68-.06,1.16-.08,1.64-.03,.56,.2,.76,.8,.66,1.17-.18,2.36-.36,3.55-.41,.87-.03,1.15-.28,1.07-1.2-.06-.63,.03-1.33,.25-1.99,.27-.85,.57-1.6,1.58-1.71s1.75,.37,2.27,1.21c2.23,3.64,5.32,5.39,9.7,4.76,2.4-.35,4.38-1.41,5.97-3.08,1.07-1.12,1.96-2.42,2.75-3.83Zm-5.04,11.43c.44-.16,.77-.45,.65-1-.14-.64-.61-.43-1.04-.43-.83,0-1.49,.5-2.28,.64-1.55,.27-3.12,.6-4.56,1.19-1.87,.76-3.71,1.58-5.56,2.37-1,.43-2.03,.9-2.55,2.09,1.33-.36,2.69-.53,3.98-1.05,2.2-.89,4.42-1.7,6.73-2.3,1.57-.4,3.09-.98,4.63-1.51Z"/><path class="cls-4" d="M102.32,60.84c.3,3.61-.4,7.1-2.23,10.36-.79,1.41-1.68,2.71-2.75,3.83-1.59,1.67-3.57,2.73-5.97,3.08-4.38,.63-7.47-1.12-9.7-4.76-.52-.84-1.26-1.32-2.27-1.21s-1.31,.86-1.58,1.71c-.22,.66-.31,1.36-.25,1.99,.08,.92-.2,1.17-1.07,1.2-1.19,.05-2.38,.23-3.55,.41-.6,.1-.83-.1-.8-.66,.02-.48,.05-.96,.08-1.64-.06-5.36-.5-10.92-.75-16.47-.18-3.96-.24-7.93-.52-11.89-.23-3.35-.09-6.7-.25-10.04-.02-.44-.07-.92,.58-.97,2.13-.15,4.21-.72,6.35-.79,.82-.02,.99,.27,1.05,1.02,.25,3.74,.16,7.48,.22,11.21,.01,.81-.06,1.76,.77,2.11,.84,.34,1.73,.43,2.68-.25,2.92-2.09,6.23-2.43,9.67-1.67,1.35,.3,2.71,.48,4,1.13,1.51,.77,2.55,1.93,3.34,3.31,1.59,2.78,2.68,5.81,2.95,8.99Zm-8.7,1.51c.57-2.28-.13-3.76-1.89-5.03-2.13-1.53-5.3-1.58-7.45-.19-2.02,1.3-2.66,3.15-2.87,5.44-.4,4.29,2.25,6.33,6.25,6.77,1.98-.14,3.64-1.13,4.63-3.09,.62-1.23,1-2.54,1.33-3.9Z"/><path class="cls-2" d="M101.41,165.5v1.44c-.4-.01-.8,0-1.2,0-2.26,.02-4.52,.24-6.76,.11-1.5-.09-2.99,.05-4.48,0-2.75-.09-5.52,0-8.28-.02-2.75-.01-5.5-.13-8.25-.07-2.58,.05-5.15,.06-7.72,.05-4.12-.02-8.24-.22-12.37,.06-1.37,.09-2.79-.15-4.24-.04,2.47-1.92,4.42-4.31,6.63-6.44,2.12-2.05,4.71-3.15,7.25-4.27,.49-.22,.98-.41,1.49-.57,2.18-.7,4.52-.9,6.87-.59,3.51,.45,6.92,1.27,10.22,2.56,4.03,1.58,7.86,3.57,11.67,5.59,1.66,.88,3.46,1.38,5.3,1.71,1.28,.23,2.53,.52,3.87,.48Z"/><path d="M100.76,119.55c.4,3.54-.35,6.83-2.81,9.61-.71,.81-1.36,1.65-2.35,2.13-.58,.28-.42,.78-.39,1.25,.15,1.99,.8,3.89,1.11,5.84,.38,2.46,1.01,4.92,.65,7.44-.26,1.85-.93,2.65-2.13,2.78-1.81,.2-3.28-.68-3.98-2.3-1.62-3.78-2.11-7.86-3.04-11.83-.15-.64-.32-.64-.88-.69-3.43-.3-6.93-.34-10.05-2.1-1.63-.92-3.11-2.03-4.36-3.41-.38-.42-.79-.78-1.22-1.14-1.48-1.23-1.36-2.29,.35-3.18,1.2-.62,2.42-1.2,3.59-1.88,1.09-.63,2.13-1.37,3.2-2.04,1-.61,1.95-.55,2.86,.24,.92,.79,2.02,1.24,3.16,1.61,.51,.16,1.12,.2,1.34-.36,.19-.47-.32-.8-.68-1-.94-.49-1.94-.81-2.98-1.1-2.74-.75-5.62-1.24-8.06-2.77-1.64-1.04-2.23-2.97-2.78-4.74-.63-2-.64-4.12-.06-6.11,.54-1.84,1.44-3.54,2.69-5.1,2.8-3.5,6.39-4.98,10.82-4.73,2.06-.24,4.12,.22,6.05,.88,2.28,.78,4.24,2.27,5.88,4.08,.9,1,1.73,2.08,2.52,3.17,.92,1.28,.59,2.37-.85,2.94-2,.78-4.13,1.3-5.97,2.35-1.79,1.01-3.03,.88-4.38-.56-.4-.43-1.11-.58-1.7-.82-.33-.13-.7-.19-.98,.15s-.12,.66,.02,1c.31,.75,.82,1.16,1.62,1.41,2.5,.79,5.17,.94,7.6,1.93,3.23,1.31,5.77,3.35,6.19,7.05Zm-3.02,3.2c.15-1.26,.48-2.57-.09-3.86-.98-2.22-2.88-3.23-4.99-3.89-1.5-.47-3.07-.73-4.62-1.04-1.51-.3-2.97-.76-4.11-1.79-2.41-2.17-2.44-5.63,.6-6.91,1.88-.8,3.59,.05,5.14,1.09,.49,.33,.83,.44,1.39,.23,1.44-.55,2.9-1.04,4.36-1.54,.58-.2,.37-.54,.14-.82-1.13-1.33-2.3-2.61-3.8-3.54-2.18-1.34-4.55-1.87-7.1-1.81-3.12,.07-5.86,.69-8.04,3.26-1.95,2.3-2.88,4.79-2.65,7.71,.22,2.91,1.62,4.9,4.63,5.55,1.12,.24,2.22,.6,3.32,.93,2.13,.65,4.35,.9,6.02,2.78,1.03,1.15,1.16,2.25,.76,3.46-.45,1.37-1.51,2.17-3.02,2.34-2.13,.23-3.79-.97-5.58-1.77-.28-.13-.55-.5-.83-.18-1.17,1.34-2.95,1.68-4.33,2.68-.6,.44-.35,.61,.02,.96,2.58,2.43,5.53,3.96,9.17,3.9,.7-.01,1.43,.05,2.1,.22,.94,.24,1.03-.09,.93-.92-.24-1.99,.67-3.66,2.25-4.78,.67-.47,1.36-.41,1.99,.08,1.2,.93,2.57,1.75,2.67,3.58,.27-.12,.43-.17,.55-.26,1.84-1.45,2.86-3.4,3.12-5.66Zm-3.98,22.49c.6-3.9-1.91-16.03-3.58-17.18,.18,6.1,1.68,11.68,3.58,17.18Z"/><path class="cls-4" d="M97.65,118.89c.57,1.29,.24,2.6,.09,3.86-.26,2.26-1.28,4.21-3.12,5.66-.12,.09-.28,.14-.55,.26-.1-1.83-1.47-2.65-2.67-3.58-.63-.49-1.32-.55-1.99-.08-1.58,1.12-2.49,2.79-2.25,4.78,.1,.83,.01,1.16-.93,.92-.67-.17-1.4-.23-2.1-.22-3.64,.06-6.59-1.47-9.17-3.9-.37-.35-.62-.52-.02-.96,1.38-1,3.16-1.34,4.33-2.68,.28-.32,.55,.05,.83,.18,1.79,.8,3.45,2,5.58,1.77,1.51-.17,2.57-.97,3.02-2.34,.4-1.21,.27-2.31-.76-3.46-1.67-1.88-3.89-2.13-6.02-2.78-1.1-.33-2.2-.69-3.32-.93-3.01-.65-4.41-2.64-4.63-5.55-.23-2.92,.7-5.41,2.65-7.71,2.18-2.57,4.92-3.19,8.04-3.26,2.55-.06,4.92,.47,7.1,1.81,1.5,.93,2.67,2.21,3.8,3.54,.23,.28,.44,.62-.14,.82-1.46,.5-2.92,.99-4.36,1.54-.56,.21-.9,.1-1.39-.23-1.55-1.04-3.26-1.89-5.14-1.09-3.04,1.28-3.01,4.74-.6,6.91,1.14,1.03,2.6,1.49,4.11,1.79,1.55,.31,3.12,.57,4.62,1.04,2.11,.66,4.01,1.67,4.99,3.89Z"/><path class="cls-3" d="M95.7,81.63c.12,.55-.21,.84-.65,1-1.54,.53-3.06,1.11-4.63,1.51-2.31,.6-4.53,1.41-6.73,2.3-1.29,.52-2.65,.69-3.98,1.05,.52-1.19,1.55-1.66,2.55-2.09,1.85-.79,3.69-1.61,5.56-2.37,1.44-.59,3.01-.92,4.56-1.19,.79-.14,1.45-.64,2.28-.64,.43,0,.9-.21,1.04,.43Z"/><path d="M94.19,20.6c1.83,1.41,2.84,3.67,1.27,5.25-.71,.72-1.58,.71-2.41,.76-3.17,.19-6.26-.43-9.36-.95-1.71-.29-3.44-.57-5.14-.96-1.73-.39-3.33-1.08-4.41-2.6-1.12-1.59-.52-3.42,1.32-4.12,1.14-.44,2.32-.58,3.42-.42,2.42-.11,4.77,.13,6.97,.56,2.81,.54,5.89,.57,8.34,2.48Zm-17.23,.33c5.16,1.76,10.51,2.49,16.11,2.88-1.61-2.08-13.72-4.25-16.11-2.88Z"/><path class="cls-3" d="M90.18,128.06c1.67,1.15,4.18,13.28,3.58,17.18-1.9-5.5-3.4-11.08-3.58-17.18Z"/><path d="M91.73,57.32c1.76,1.27,2.46,2.75,1.89,5.03-.33,1.36-.71,2.67-1.33,3.9-.99,1.96-2.65,2.95-4.63,3.09-4-.44-6.65-2.48-6.25-6.77,.21-2.29,.85-4.14,2.87-5.44,2.15-1.39,5.32-1.34,7.45,.19Zm-.86,3.96c.03-.58-.14-1.1-.62-1.33-.81-.38-1.62-.86-2.54-.94-1.86-.15-3.27,1.44-3.34,3.78-.39,2.49,1.67,3.54,3.46,3.46,.78-.04,1.46-.4,1.77-1.06,.56-1.25,1.21-2.49,1.27-3.91Z"/><path class="cls-1" d="M90.25,59.95c.48,.23,.65,.75,.62,1.33-.06,1.42-.71,2.66-1.27,3.91-.31,.66-.99,1.02-1.77,1.06-1.79,.08-3.85-.97-3.46-3.46,.07-2.34,1.48-3.93,3.34-3.78,.92,.08,1.73,.56,2.54,.94Z"/><path class="cls-3" d="M93.07,23.81c-5.6-.39-10.95-1.12-16.11-2.88,2.39-1.37,14.5,.8,16.11,2.88Z"/><path class="cls-2" d="M84.35,3.63v.58c-.52,0-1.04,.02-1.56,.07-.92,.08-1.84,.08-2.75,.19-2.04,.27-3.98,1.04-5.99,1.41-1.51,.28-3.08,.34-4.63,.35-3.2,.03-6.1-1.06-8.87-2.55-.17-.09-.4-.11-.44-.44,1.71,.04,3.41,.03,5.12-.04,2.13-.09,4.29-.1,6.4,.05,3.5,.25,6.99,0,10.48,.28,.74,.06,1.49,.09,2.24,.1Z"/><path d="M65.05,57.67c.36,1.96,.51,3.98,.39,6.01-.16,2.81-.73,5.5-1.85,8.07-1.76,4.05-4.7,7.08-8.76,8.65-3.12,1.21-6.48,1.15-9.62-.34-1.02-.48-1.7-1.54-2.99-2.1,0,3.16-.03,6.17,.02,9.19,.03,1.45-.28,2.85-.65,4.21-.33,1.19-1.35,1.94-2.54,2.13-2.14,.36-4.29,.66-6.51,.44-2.3-.23-3.71-2.55-3.77-4.54-.08-3.04-.21-6.07-.07-9.12,.08-1.92-.26-3.87-.21-5.81,.01-.18,.1-.43-.14-.51-.26-.1-.46,.1-.64,.25-.76,.64-1.46,1.36-2.27,1.92-1.7,1.19-3.49,1.93-5.68,1.41-2.14-.51-3.12-2.71-1.31-4.8,2.11-2.44,4.78-4.29,7-6.62,.18-.19,.5-.24,.72-.4,1.03-.74,1.82-1.52,1.72-3.02-.16-2.61-.25-5.25-.09-7.86,.16-2.51-.4-5.04,.27-7.54,.43-1.61,.65-2.01,2.29-2.04,2.35-.05,4.64-.7,6.99-.6,2.1,.09,4.21,.2,5.04,2.72,.17,.51,.49,.17,.75,.02,2.47-1.53,5.18-2.16,8.07-2.06,2.6,.09,5.13,.59,7.32,1.97,1.46,.92,2.73,2.17,3.74,3.62,1.43,2.04,2.32,4.34,2.78,6.75Zm-5.31,14.83c2.67-3.83,3.12-8.33,2.58-12.89-.35-2.96-1.33-5.74-3.35-8.02-1.85-2.1-4.34-3-7.03-3.29-3.2-.34-6.19,.22-8.49,2.71-.58,.63-1.16,1.03-1.98,.75-.9-.31-1.65-.86-1.63-1.96,.04-1.79-.62-2.25-2.55-2.25-1.26,0-2.53,.23-3.79,.39-.79,.1-1.74-.24-2.34,.26-.67,.57-.27,1.56-.32,2.37-.22,3.38-.19,6.76-.02,10.14,.06,1.05,.34,.97,1.09,.58,1.54-.81,3.23-.43,4,.89,.54,.95,.54,2.02,.15,3.01-.84,2.11-2.42,3.69-3.98,5.26-.38,.37-.57,.65-.61,1.27-.18,3.58,.42,7.16,.12,10.7,.12,2.46-.06,4.89,.28,7.3,.1,.69,.39,1.16,1.18,1.25,1.48,.17,2.93-.08,4.38-.2,1.14-.09,1.74-.68,1.68-1.96-.04-.73-.01-1.49,.07-2.21,.38-3.63-.25-7.27,.09-10.9,.06-.68-.16-1.37,.6-1.77,.77-.39,1.6-.36,2.28,.1,1.05,.7,2.03,1.52,2.99,2.35,.85,.74,1.75,1.39,2.87,1.58,5.52,.94,8.79-1.26,11.73-5.46Zm-39.13,2.3c3.35-.51,11.82-7.87,12.56-10.93-4.65,3.27-8.53,6.98-12.56,10.93Z"/><path d="M65.3,98.8c.3,3.74,.14,7.48,.16,11.22,.01,2.95-.07,5.92-.13,8.88-.06,2.77-.16,5.54-.2,8.31-.03,1.53-.32,3.06-.28,4.61,.02,.57-.41,1.09-.95,1.28-.89,.31-1.83,.71-2.73,.69-1.39-.04-2.74,.3-4.15,.17-2.14-.19-3.06-.76-3.42-2.85-2.2,1.67-4.75,2.33-7.4,2.71-1.14,.17-2.22-.22-3.28-.47-2.66-.64-5.28-1.35-7.62-2.9-2.18-1.44-3.81-3.33-5.05-5.57-1.98-3.61-2.8-7.41-2.26-11.57,.48-3.7,1.79-6.95,4.33-9.61,2.08-2.18,4.56-3.74,7.52-4.75,3.19-1.09,6.15-.07,9.21,.18,.15,.02,.3,.11,.45,.14,1.75,.33,1.68,.3,1.67-1.48-.02-2.38,.12-4.76,.28-7.13,.05-.73-.14-1.43-.1-2.14,.16-2.85,1.48-4.14,4.7-4.17,1.27-.01,2.52-.15,3.79-.18,1.22-.03,2.38,.19,3.53,.52,.86,.25,1.33,.89,1.37,1.76,.2,4.11,.23,8.24,.56,12.35Zm-2.83,9.53c.11-2.33-.14-4.65-.02-6.99,.12-2.53-.38-5.07-.32-8.24-.06-1.29-.2-3.19-.23-5.09,0-.7-.38-.84-.86-.83-1.94,.02-3.87,.1-5.8,.14-.53,.01-.8,.21-.82,.78-.06,1.94-.16,3.89-.21,5.84-.05,2.34-.02,4.68-.12,7.01-.06,1.35-.89,1.94-2.18,1.72-1.88-.32-3.76-.65-5.62-1.03-5.34-1.1-10.16,1.34-13,5.61-2.66,3.99-3.24,8.46-1.81,13,1.06,3.36,2.75,6.46,6.15,8.15,1.84,.92,3.81,1.54,5.78,2.13,1.7,.5,3.3,.32,5.01-.16,2.15-.6,3.64-2.02,5.29-3.3,1.28-.99,2.4-.51,2.63,1.08,.11,.75,.15,1.51,.26,2.26,.06,.39,.17,.73,.76,.66,1.18-.15,2.37-.22,3.56-.27,.68-.02,.94-.25,1.01-.98,.35-3.79,.35-7.6,.42-11.4,.06-3.36-.05-6.73,.12-10.09Z"/><path class="cls-4" d="M62.45,101.34c-.12,2.34,.13,4.66,.02,6.99-.17,3.36-.06,6.73-.12,10.09-.07,3.8-.07,7.61-.42,11.4-.07,.73-.33,.96-1.01,.98-1.19,.05-2.38,.12-3.56,.27-.59,.07-.7-.27-.76-.66-.11-.75-.15-1.51-.26-2.26-.23-1.59-1.35-2.07-2.63-1.08-1.65,1.28-3.14,2.7-5.29,3.3-1.71,.48-3.31,.66-5.01,.16-1.97-.59-3.94-1.21-5.78-2.13-3.4-1.69-5.09-4.79-6.15-8.15-1.43-4.54-.85-9.01,1.81-13,2.84-4.27,7.66-6.71,13-5.61,1.86,.38,3.74,.71,5.62,1.03,1.29,.22,2.12-.37,2.18-1.72,.1-2.33,.07-4.67,.12-7.01,.05-1.95,.15-3.9,.21-5.84,.02-.57,.29-.77,.82-.78,1.93-.04,3.86-.12,5.8-.14,.48-.01,.86,.13,.86,.83,.03,1.9,.17,3.8,.23,5.09-.06,3.17,.44,5.71,.32,8.24Zm-7.74,12.73c.15-1.63-.75-2.81-1.97-3.7-1.32-.96-2.87-1.45-4.47-1.82-1.92-.43-4.79,.51-5.85,2.16-1.64,2.53-2,5.31-.64,8.01,1.21,2.4,3.37,3.72,5.81,4.14,2.73-.19,4.55-1.32,5.74-3.54,.88-1.65,1.22-3.43,1.38-5.25Z"/><path class="cls-4" d="M62.32,59.61c.54,4.56,.09,9.06-2.58,12.89-2.94,4.2-6.21,6.4-11.73,5.46-1.12-.19-2.02-.84-2.87-1.58-.96-.83-1.94-1.65-2.99-2.35-.68-.46-1.51-.49-2.28-.1-.76,.4-.54,1.09-.6,1.77-.34,3.63,.29,7.27-.09,10.9-.08,.72-.11,1.48-.07,2.21,.06,1.28-.54,1.87-1.68,1.96-1.45,.12-2.9,.37-4.38,.2-.79-.09-1.08-.56-1.18-1.25-.34-2.41-.16-4.84-.28-7.3,.3-3.54-.3-7.12-.12-10.7,.04-.62,.23-.9,.61-1.27,1.56-1.57,3.14-3.15,3.98-5.26,.39-.99,.39-2.06-.15-3.01-.77-1.32-2.46-1.7-4-.89-.75,.39-1.03,.47-1.09-.58-.17-3.38-.2-6.76,.02-10.14,.05-.81-.35-1.8,.32-2.37,.6-.5,1.55-.16,2.34-.26,1.26-.16,2.53-.39,3.79-.39,1.93,0,2.59,.46,2.55,2.25-.02,1.1,.73,1.65,1.63,1.96,.82,.28,1.4-.12,1.98-.75,2.3-2.49,5.29-3.05,8.49-2.71,2.69,.29,5.18,1.19,7.03,3.29,2.02,2.28,3,5.06,3.35,8.02Zm-9.37,7.91c1.33-2.28,1.63-4.67,.94-7.19-.22-.78-.36-1.64-1.18-2.13-.71-.42-1.49-.79-2.1-1.34-2-1.78-6.75,.13-7.67,2-.68,1.39-1.44,2.77-1.22,4.25-.1,3.25,1.79,5.72,4.75,6.71,2.43,.82,5.46-.56,6.48-2.3Z"/><path d="M58.97,142.97c1.54,2.2,.82,3.22-1.29,4.48-3.25,1.94-6.62,3.68-10.08,5.21-2.05,.92-4.07,1.96-6.32,2.39-2.57,.5-4.03-1.25-3.28-3.73,.66-2.19,2.45-3.08,4.19-4.11,2.63-1.55,5.44-2.74,8.25-3.88,1.64-.67,3.33-1.55,5.27-1.38,1.12,.2,2.49-.07,3.26,1.02Zm-3.81,2.23c-.85-.09-1.15-.06-1.82,.21-3.34,1.36-6.7,2.66-9.81,4.51-.9,.53-2.2,.73-2.54,2.1,2.38-.6,12.22-4.8,14.17-6.82Z"/><path class="cls-3" d="M53.34,145.41c.67-.27,.97-.3,1.82-.21-1.95,2.02-11.79,6.22-14.17,6.82,.34-1.37,1.64-1.57,2.54-2.1,3.11-1.85,6.47-3.15,9.81-4.51Z"/><path d="M52.74,110.37c1.22,.89,2.12,2.07,1.97,3.7-.16,1.82-.5,3.6-1.38,5.25-1.19,2.22-3.01,3.35-5.74,3.54-2.44-.42-4.6-1.74-5.81-4.14-1.36-2.7-1-5.48,.64-8.01,1.06-1.65,3.93-2.59,5.85-2.16,1.6,.37,3.15,.86,4.47,1.82Zm-1.04,4.32c.14-.69-.12-1.36-.69-1.8-1.12-.89-2.48-1.2-3.78-1.42-.97,.11-1.92,.23-2.41,1.02-1.03,1.71-1.3,4.58,.69,6.31,1.88,1.63,4.62,1.17,5.39-1.03,.34-1,.6-2.04,.8-3.08Z"/><path d="M53.89,60.33c.69,2.52,.39,4.91-.94,7.19-1.02,1.74-4.05,3.12-6.48,2.3-2.96-.99-4.85-3.46-4.75-6.71-.22-1.48,.54-2.86,1.22-4.25,.92-1.87,5.67-3.78,7.67-2,.61,.55,1.39,.92,2.1,1.34,.82,.49,.96,1.35,1.18,2.13Zm-2.68,2.52c.18-2.08-1.27-3.6-3.19-3.59-.39,.03-.75,.02-1.15,.16-1.92,.68-2.1,2.34-2.24,3.96-.14,1.55,.85,2.66,1.99,3.44,1.08,.74,2.37,.36,3.37-.49,1.11-.94,1.11-2.26,1.22-3.48Z"/><path d="M51.95,33.21c-.14,1.21-.28,2.45-1.5,3.08-1.32,.68-2.62,.57-3.92-.27-1.99-1.27-3.15-3.23-4.4-5.09-2.06-3.05-4.43-5.9-6.08-9.2-.66-1.32-1.41-2.62-1.31-4.26,.17-2.72,2.73-4.6,5.27-3.7,1.1,.39,1.39,1.56,2.15,2.28,2.04,1.95,3.26,4.51,4.9,6.75,1.84,2.51,3.46,5.22,4.53,8.18,.25,.7,.25,1.49,.36,2.23Zm-3.02-.37c.05-.46-.15-.85-.32-1.26-.81-1.86-1.81-3.62-2.9-5.33-1.98-3.11-3.94-6.25-6.41-9.02-.23-.25-.4-.73-.81-.6-.42,.13-.63,.59-.76,1.01-.13,.41,.08,.77,.21,1.15,.58,1.76,1.73,3.2,2.65,4.76,1.6,2.69,3.74,5.03,5.33,7.75,.46,.8,1.28,1.4,1.97,2.06,.22,.21,.55,.42,.87,.24,.29-.16,.14-.5,.17-.76Z"/><path class="cls-1" d="M51.01,112.89c.57,.44,.83,1.11,.69,1.8-.2,1.04-.46,2.08-.8,3.08-.77,2.2-3.51,2.66-5.39,1.03-1.99-1.73-1.72-4.6-.69-6.31,.49-.79,1.44-.91,2.41-1.02,1.3,.22,2.66,.53,3.78,1.42Z"/><path class="cls-1" d="M48.02,59.26c1.92,0,3.37,1.51,3.19,3.59-.11,1.22-.11,2.54-1.22,3.48-1,.85-2.29,1.23-3.37,.49-1.14-.78-2.13-1.89-1.99-3.44,.14-1.62,.32-3.28,2.24-3.96,.4-.14,.76-.13,1.15-.16Z"/><path class="cls-3" d="M48.61,31.58c.17,.41,.37,.8,.32,1.26-.03,.26,.12,.6-.17,.76-.32,.18-.65-.03-.87-.24-.69-.66-1.51-1.26-1.97-2.06-1.59-2.72-3.73-5.06-5.33-7.75-.92-1.56-2.07-3-2.65-4.76-.13-.38-.34-.74-.21-1.15,.13-.42,.34-.88,.76-1.01,.41-.13,.58,.35,.81,.6,2.47,2.77,4.43,5.91,6.41,9.02,1.09,1.71,2.09,3.47,2.9,5.33Z"/><path class="cls-2" d="M34.04,166.87c-.18,.39-.44,.29-.65,.27-4.7-.44-9.41-.25-14.11-.28-3.06-.03-6.08-.26-9.1-.65-1.64-.21-3.06-1.01-4.17-2.15-.49-.5-.81-1.1-1.02-1.74-.28-.83-.37-1.73-.4-2.57-.15-3.97,.11-7.96-.11-11.92-.15-2.64-.09-5.29-.35-7.93-.25-2.48-.05-4.99-.08-7.49-.05-4.25-.03-8.5-.2-12.73l1.62-.07c.09,1.77,.32,3.55,.66,5.34,.56,2.9,1.5,5.65,3.13,8.15,1.03,1.6,2.36,2.87,3.96,3.86,.6,.37,1.2,.72,1.8,1.08,1.81,1.07,3.63,2.13,5.39,3.28,2.21,1.44,3.57,3.6,4.34,6.1,.92,3.03,1.57,6.16,2.67,9.12,1.07,2.88,2.29,5.75,4.49,8.03,.73,.76,1.12,1.82,2.13,2.3Z"/><path class="cls-2" d="M32.2,4.53c.33-.06,.69,.04,1.33,.08-1.48,.65-2.72,1.15-3.93,1.72-4.78,2.29-7.38,6.21-8.24,11.33-.45,2.65-.42,5.37-1,8-.6,2.77-1.82,5.27-3.4,7.64-2.37,3.56-5.74,6.31-7.96,10-1.6,2.65-3.14,5.29-4.09,8.28-.14,.41-.25,.84-.39,1.27-.22,.72-.49,1.44-.97,2.06,.14-2.14,.05-4.26,.03-6.38-.03-3.8,.15-7.61,.32-11.41,.24-5.36,.34-10.73,.59-16.09,.13-2.64,.38-5.27,.5-7.91,.11-2.07,.49-4.11,1.67-5.89,.64-.95,1.48-1.48,2.68-1.71,1.85-.36,3.69-.45,5.56-.47,.47-.01,.93-.01,1.4-.02,3.06-.04,6.11-.11,9.17-.23,2.24-.09,4.5,.1,6.73-.27Z"/><path class="cls-3" d="M33.17,63.87c-.74,3.06-9.21,10.42-12.56,10.93,4.03-3.95,7.91-7.66,12.56-10.93Z"/><path d="M19.42,112.15c.67,1.81,1.15,3.74,.48,5.7-.42,1.23-1.73,1.93-2.95,1.51-1.33-.46-2.46-1.21-3.34-2.37-1.59-2.09-2.64-4.49-4.1-6.87-.54,1.97-.93,3.78-1.05,5.64-.28,4.18,.23,8.26,1.6,12.21,1.14,3.3,3.24,5.78,6.24,7.51l-1.28,2.56c-.6-.36-1.2-.71-1.8-1.08-1.6-.99-2.93-2.26-3.96-3.86-1.63-2.5-2.57-5.25-3.13-8.15-.34-1.79-.57-3.57-.66-5.34-.21-4.31,.35-8.56,1.74-12.77,.24-.73,.11-1.25-.2-1.9-.85-1.76-1.53-3.56-1.52-5.58,.01-3.16,1.99-4.68,4.94-3.67l2.82,.4c-.08,.61-.17,1.23-.26,1.84-.07,.46,.09,.88,.31,1.25,1.79,3,3.27,6.16,4.62,9.38,.5,1.2,1.06,2.38,1.5,3.59Zm-4.99,.71c.63,1.25,1.26,2.64,2.86,3.23-1.99-6.32-4.23-12.5-8.38-17.95-.59,.82-.67,1.49-.49,2.08,.51,1.7,1.07,3.4,1.88,5,1.3,2.58,2.83,5.05,4.13,7.64Z"/><path d="M16.26,2.13l.04,2.9c-.47,.01-.93,.01-1.4,.02-1.87,.02-3.71,.11-5.56,.47-1.2,.23-2.04,.76-2.68,1.71-1.18,1.78-1.56,3.82-1.67,5.89-.12,2.64-.37,5.27-.5,7.91-.25,5.36-.35,10.73-.59,16.09-.17,3.8-.35,7.61-.32,11.41,.02,2.12,.11,4.24-.03,6.38,.48-.62,.75-1.34,.97-2.06l2.76,.92c-.35,1.06-.66,2.13-.98,3.19-.58,1.94-.77,3.98-.64,5.96,.28,4.23,2.42,7.81,4.49,11.38,1.14,1.98,1.79,4.14,2.35,6.33,.53,2.09,.75,4.22,1.04,6.34,.27,2.06,.47,4.14,.14,6.23-.16,.96-.29,1.92-.43,2.89l-2.82-.4c.11-.99,.21-1.98,.33-2.96,.23-2.01-.23-3.96-.38-5.94-.22-2.95-.82-5.78-1.72-8.57-1.16-3.56-3.85-6.35-5.09-9.93,.05,1.27-.18,2.48-.2,3.68-.05,3.29-.03,6.57-.03,9.86,0,2.45-.19,4.92-.06,7.35,.15,2.74,.09,5.48,.17,8.21,.12,3.9,.08,7.82,.15,11.73,.05,3.11,.06,6.22,.2,9.33,.02,.41,.04,.82,.05,1.23,.17,4.23,.15,8.48,.2,12.73,.03,2.5-.17,5.01,.08,7.49,.26,2.64,.2,5.29,.35,7.93,.22,3.96-.04,7.95,.11,11.92,.03,.84,.12,1.74,.4,2.57l-2.79,.51c-.85-3.3-.52-6.56-.69-9.84-.15-2.77,.1-5.55-.25-8.32-.13-1.06-.02-2.15-.02-3.23-.13-5.51-.4-11.03-.36-16.55,.03-4.2-.29-8.38-.23-12.58,.06-3.76-.34-7.53-.26-11.28,.08-4.44,.05-8.88-.05-13.31-.08-3.22,.34-6.42-.02-9.64-.19-1.79,.08-3.62,.1-5.44,.03-3.61,0-7.23,.05-10.84,.06-6.15,.12-12.3,.25-18.44,.11-5.11,.31-10.22,.5-15.32,.12-3.46,.17-6.92,.49-10.36,.28-3.1,.04-6.28,1.12-9.29,1.1-3.04,2.8-5.21,6.36-5.84,2.37-.42,4.72-.4,7.07-.42Z"/><path class="cls-3" d="M17.29,116.09c-1.6-.59-2.23-1.98-2.86-3.23-1.3-2.59-2.83-5.06-4.13-7.64-.81-1.6-1.37-3.3-1.88-5-.18-.59-.1-1.26,.49-2.08,4.15,5.45,6.39,11.63,8.38,17.95Z"/><path class="cls-2" d="M10.38,86.79c.15,1.98,.61,3.93,.38,5.94-.12,.98-.22,1.97-.33,2.96-2.95-1.01-4.93,.51-4.94,3.67-.01,2.02,.67,3.82,1.52,5.58,.31,.65,.44,1.17,.2,1.9-1.39,4.21-1.95,8.46-1.74,12.77l-1.62,.07c0-.41-.03-.82-.05-1.23-.14-3.11-.15-6.22-.2-9.33-.07-3.91-.03-7.83-.15-11.73-.08-2.73-.02-5.47-.17-8.21-.13-2.43,.07-4.9,.06-7.35,0-3.29-.02-6.57,.03-9.86,.02-1.2,.25-2.41,.2-3.68,1.24,3.58,3.93,6.37,5.09,9.93,.9,2.79,1.5,5.62,1.72,8.57Z"/></g></g></svg>