<?xml version="1.0" encoding="UTF-8"?><svg id="Layer_2" xmlns="http://www.w3.org/2000/svg" viewBox="0 0 154.72 130.03"><defs><style>.cls-1{fill:#f3a2c5;}</style></defs><g id="Layer_4"><g><path class="cls-1" d="M152.5,76.99c.46,1.91-.45,3.53-1.63,5.21-.16-3.3-.13-6.42-3.4-8.45,2.64-.03,4.44,.85,5.03,3.24Z"/><path d="M42.9,114.89c1.3-1.6,2.6-3.18,3.71-4.89,1.85-2.84,3.57-5.77,5.32-8.67,1.43-2.36,3.2-4.46,5.14-6.37,1.72-1.67,3.64-3.22,6.24-3.32,.53-.02,.62-.3,.69-.75,.73-4.55,3.17-7.86,7.28-9.93,2.41-1.2,4.92-2.05,7.67-1.28,.45,.12,.88,.02,1.3-.09,2.97-.79,5.94-1.6,9.32-.73-3.84-4.6-7.83-8.72-10.65-13.84-.91,2.58-1.73,5.04-3.19,7.3-1.77,2.76-4.42,4.09-7.2,5.38-1.4,.66-2.91,.64-4.38,.91-1.61,.31-3.23,.53-4.77,.04-1.14-.37-1.66-.41-2.32,.85-.86,1.62-2.55,2.47-4.19,3.34-3.14,1.67-6.52,2.58-9.9,3.51-1.7,.46-3.45,.58-5.22,1.06,.07,.13,.19,.15,.3,.21,.71,.35,1.41,.7,2.12,1.08,4.18,2.2,6.52,5.72,7.03,10.35,.35,3.26-.78,6.3-2.11,9.24-.96,2.12-1.69,4.31-2.2,6.59Zm107.63-42.86c5.3,2.1,5.13,7.83,2.02,11.4-2.17,2.49-3.61,2.37-5.65,2.22,1.42,2.16,1.19,4.55,.77,6.84-.73,4.07-.64,8.2-1.26,12.28-.25,1.6-.95,3.03-1.8,4.32-1.89,2.84-.99,4.42,1.33,6.28,1.67,1.32,2.99,2.76,2.55,4.94-.49,2.47-1.79,4.28-4.59,4.82-1.52,.29-2.92,.32-4.3-.25-2.17-.89-2.86-2.83-3.21-4.94-.63-3.89,1.13-6.86,3.75-9.45,.72-.71,1.07-1.17,.21-2.13-.73-.8-.93-2.05-1-3.12-.2-2.4-1.17-4.63-1.46-7-.33-2.62-.77-5.21-.6-7.88,.21-3.26,2.73-6.34,6.23-7.31,.64-.17,.75-.36,.78-1,.08-1.25,.3-2.5,.51-3.75,.08-.46,.1-.88-.18-1.25-.25-.33-.36-.85-.91-.86-.6-.02-.44,.57-.62,.87-1.66,2.86-3.67,5.37-6.17,7.59-2.05,1.84-4.35,3.1-6.91,4.07,.34,.57,.88,.87,1.27,1.28,1.73,1.72,1.39,4.66-.31,6.46-1.24,1.32-2.82,2.17-4.22,3.26-1.49,1.15-2.12,2.62-2.59,4.26-.93,3.29-2.49,6.23-5.14,8.39-2.45,1.99-5.45,2.77-8.45,1.84-1.72-.53-3.38-.49-5.07-.73-4.28-.62-7.65-3.87-7.28-8.68,.15-1.92-.6-3.65-1.76-5.19-.43-.58-.84-1.16-1.01-1.97-.77,.79-.84,1.83-1.25,2.68-1.35,2.79-3.46,4.88-6.02,6.41-2.42,1.44-5.1,2.6-8.03,1.93-1.44-.33-2.81-.11-4.2-.12-1.22,0-2.32-.32-3.42-.88-1.81-.94-3.33-2.27-4.85-3.59-2.21-1.93-3.32-4.5-3.74-7.38-.08-.54-.14-1.08-.23-1.81-1.57,1.96-2.37,4.09-3.04,6.27-1.55,5.02-2.81,10.17-5.56,14.72-3.01,4.98-6.82,9.19-12.2,11.83-2.53,1.25-5.13,2.22-7.9,2.28-4.06,.09-10.01-1.71-11.75-6.94-.26-.78-.73-1.48-1.17-2.2-1.3-2.12-1.55-4.37-.4-6.65,.57-1.12,1.09-2.24,2.15-3.07,1.28-1.01,3.6-1.35,4.82-.31,1.61,1.38,2.05,3.29,1.03,4.95-.77,1.24-1.8,2.22-2.9,3.15-.58,.5-1.29,1.12-1.14,1.82,.09,.47,1.1,.42,1.71,.44,2.51,.06,5.06,.69,7.54-.21,1.58-.57,3-1.43,4.34-2.41,.35-.26,1.07-.78-.02-1.08-3.91-1.1-4.99-4.22-5.48-7.72-.52-3.74,.09-7.43,.6-11.14,.31-2.2,.1-4.4-.66-6.53-.34-.97-1.03-1.54-1.89-2-.45-.25-.49,.13-.7,.34-1.43,1.44-1.44,3.29-1.5,5.1-.07,2.07-.1,4.14-.71,6.13-1.31,4.35-6.05,4.79-8.4,3.15-1.82-1.27-2.12-3.29-1.97-5.32,.3-3.96,1.94-7.33,4.88-10,1.43-1.29,3.33-1.77,5.09-2.5,.25-.1,.52-.19,.88-.34-1.59-1.75-2.72-3.77-3.89-5.72-3-4.98-6.45-9.7-8.36-15.27-1.16-3.38-1.2-6.8,.02-10.19,.7-1.91,2.27-3.05,3.94-4.01,.53-.31,.6-.52,.33-.99-2.81-4.83-4.3-10.21-6.27-15.38-.58-1.55-1.64-1.89-2.92-.84-.58,.47-1.12,.99-1.8,1.34-.53,.28-.6,.87-.68,1.44-.26,1.89-.1,3.8-.39,5.69-.42,2.67-2.49,4.74-5.13,4.91-1.49,.1-3.61-1.77-3.96-3.71-.26-1.45-.37-2.92-.06-4.43,.67-3.23,3.63-5.71,7.09-6.06,1.83-.18,1.67-.24,2.11-1.92,.56-2.08,1.21-4.22,3.19-5.54,.68-.46,1.08-1.19,1.85-1.62,3.65-2.02,6.03-1.86,9.29,.63,3.49,2.67,4.41,6.39,4.34,10.46-.05,3.05-.39,6.07-.52,9.12-.06,1.23,.34,2.42,.72,3.59,.16,.5,.43,.92,.98,.88,.52-.03,.61-.54,.74-.96,.6-1.91,.33-3.85,.23-5.79-.11-2.02-.34-4.08,.32-6,.69-2.03,1.6-4.02,3.97-4.7,1.2-.34,3.47,.33,4.21,1.3,2.06,2.68,2.43,7.36,.17,10.33-1.33,1.75-2.74,3.41-4.54,4.7-.63,.45-.33,.71,.13,1.02,2.33,1.56,6.68,.71,8.15-2.25,.66-1.33,.84-2.76,.86-4.25,.06-5.06-1.45-9.93-1.77-14.94-.17-2.67-.67-5.3,.06-8,.86-3.24,2.52-5.65,5.94-6.37,1.55-.33,3.18-.2,4.69,.41,.83,.33,1.08-.09,1.32-.69,.7-1.81,1.48-3.54,2.55-5.19,1.86-2.89,4.52-4.41,7.63-5.41,1.94-.63,3.92-.61,5.89-.33,1.43,.22,2.35-.76,3.48-1.24,2.1-.89,4.2-.98,6.32-.17,1.69,.66,2.26,2.12,2.41,3.79,.21,2.43-1.6,5.57-3.91,6.39-1.38,.49-2.81,.26-4.02-.75-1.18-.96-2.05-2.17-2.71-3.53-.28-.56-.6-1.01-1.25-.57-2.49,1.68-4.73,3.6-5.21,6.82-.31,2.1,.43,2.97,2.5,3.38,1.43,.27,2.84,.02,4.26,.17,3.94,.4,4.64,3.47,3.7,6.4-.7,2.17-2.08,3.91-4.19,5.05,1.51,1.55,2.11,3.42,1.61,5.42-.34,1.34-1.21,2.55-2.02,3.72-.88,1.27-1.75,2.54-1.69,4.22,.08,2.42,.71,3.06,2.91,3.51,3.18,.66,6.4,.69,9.44-.71,.85-.39,2.09-.43,2.27-1.79,.06-.5,.04-.76-.42-1.08-1.29-.91-2.72-1.68-3.81-2.86-.94-1.01-1.75-2.07-2.04-3.52-.47-2.24,1.38-4.05,3.23-4.38,3.02-.55,6.12,1.05,7.63,3.84,1.7,3.14,1.28,6.31-1.16,9-1.23,1.36-2.06,2.99-3.29,4.28-2.37,2.47-5.02,4.61-8.4,5.59-.42,.13-.82,.32-1.28,.51,1.02,.79,2.01,1.55,3,2.32,2.16-5.17,8.02-3.83,10.21-.7,1.72,2.46,2.5,5.24,3.37,8.04,.88,2.84,1.15,5.79,1.87,8.65,.1,.4-.28,.77,.1,1.38,.62-1.31,1.19-2.5,1.75-3.69,1.79-3.89,3.12-8.01,5.69-11.51,1.95-2.66,4.49-4.58,7.71-5.42,2.22-.58,4.11,.33,5.8,1.77,.87-3.09,2.77-5.48,5.42-7.17,3.43-2.2,7.14-3.35,11.34-2.85,1.7,.2,3.44,.18,5.13,.57,2.8,.67,4.69,3.89,4.08,6.73-.33,1.53-.89,2.85-2.15,3.83-1.27,1-2.69,.95-4.05,.4-1.54-.61-2.1-1.99-2.24-3.53-.1-1.07,.04-2.15-.14-3.19-.31-1.82-1.02-2.12-2.49-1-2.93,2.23-4.94,5.01-4.67,8.96,.08,1.2,.76,1.9,1.78,2.31,1.75,.68,3.62,.79,5.46,.97,2.83,.26,4.75,2.01,3.61,5.2-.75,2.13-2.06,3.82-3.98,5.02-.52,.33-.87,.62-.6,1.47,.39,1.21,.21,2.49-.52,3.66-.37,.6-.6,1.31-.81,1.98-.32,1.11,.15,1.8,1.28,2.16,2.36,.75,4.36-.29,6.26-1.39,1.31-.76,2.66-1.57,3.78-2.65,.2-.18,.48-.29,.6-.55,.96-2.19,2.82-3.14,5-3.51,1.61-.28,3.24-.33,4.82,.29Zm.35,10.18c1.18-1.69,2.09-3.31,1.63-5.21-.59-2.39-2.39-3.27-5.03-3.24,3.27,2.03,3.24,5.16,3.4,8.45Zm-3.46,1.31c1.89-2.84,1.71-5.43-.82-7.73,.73,2.02,.23,3.98-.2,5.95-.24,1.06,.09,1.67,1.02,1.78Zm-2.05,10.04c.35-1.94,.78-3.89,.18-5.87-.14-.46-.2-1.01-.82-1.01-.54,0-.57,.58-.77,.94-.1,.17-.13,.37-.18,.56-.88,2.95-.86,6.01-.87,9.05-.01,3.2,.22,6.4,.35,9.6,.75-1.28,1.14-2.63,1.29-4.1,.31-3.06,.3-6.14,.83-9.17Zm-.4,28.84c1.55-.96,1.85-3.38,.56-4.61-1.03-.99-2.25-1.75-3.21-3.07-.58,2.22-.31,4.26-.22,6.26,.13,2.52,.71,2.75,2.87,1.42Zm-2.96-36.09c-.83,.27-2.04,1.72-2.31,2.63-.84,2.97,.2,9.33,1.09,12.14-.02-5.09-.22-10.03,1.22-14.77Zm-5.01-33.74c1.4-2.85-.02-5.64-2.93-5.73,1.93,1.44,2.41,3.58,2.93,5.73Zm-2.17,.85c-.06-1.64-.34-3.21-1.82-4.31,.08,.99,.18,1.96,.24,2.94,.04,.63,.27,1.15,.65,1.62,.17,.21,.4,.27,.65,.22,.22-.06,.29-.25,.28-.47Zm2.19,27.3c-.21-.04-.26-.07-.29-.06-.15,.06-.28,.13-.41,.21-1.9,.95-3.88,1.61-6.01,1.24-2.61-.46-4.42-2.2-3.44-5.19,.31-.97,.77-1.9,1.1-2.87,.18-.51,.38-1.17-.08-1.57-.48-.42-1.13-.05-1.57,.18-2.34,1.21-4.08,2.78-4.64,5.66-.7,3.55,2.02,6.12,4.84,6.1,3.85-.03,7.38-1.15,10.5-3.69Zm3.26,42.17c-.66-3.1-.43-5.98-.15-8.96-2.3,2.04-2.15,7.5,.15,8.96Zm-7.98-59.22c.26-.46,.21-.66-.28-.86-1.38-.58-2.87-.4-4.3-.65-1.51-.26-2.99-.63-4.17-1.58-1.76-1.42-2.19-3.37-1.82-5.58,.24-1.45,.69-2.81,1.32-4.14-2.14,1.44-2.8,3.7-3.25,6.01-.2,1.06-.47,2.15-.18,3.29,.88,3.3,4.88,6.11,8.18,5.91,1.71-.1,3.51-.66,4.49-2.42Zm-1.02,3.54c-1.5,.74-3,1.16-4.71,.94-2.48-.31-4.49-1.52-6.27-3.12-1.55-1.39-2.9-3.11-2.89-5.28,.02-4.07,.89-7.89,4.27-10.65,.34-.28,.64-.61,.99-.86,.33-.24,.65-.46,.87-.91-3.77,1.33-6.45,3.64-7.76,7.47-1.28,3.7-.98,9.24,2.97,12.43,3.76,3.04,9.15,4.24,12.53-.03Zm-1.16,26.77c.28-.53,.38-1.2,.05-1.72-.29-.47-.87-.15-1.31-.12-.48,.03-.93,.17-1.34,.45-3.2,2.24-5.71,4.95-6.29,9.02-.26,1.8-.58,3.59-.93,5.66,.9-.92,1.2-1.82,1.49-2.72,.6-1.84,1.03-3.76,2.38-5.25,1.09-1.21,2.51-2.04,3.82-2.98,.89-.64,1.62-1.4,2.13-2.34Zm.73-7.95c-5.58,1.31-8.65,.2-10.68-3.53-1.45-2.65-.84-7.36,2.77-10.43-1.45,.13-2.58,.52-3.47,1.6-1.25,1.5-2.03,3.13-2.22,5.1-.22,2.38,.57,4.34,2.17,6,1.58,1.65,3.67,2.23,5.85,2.54,1.3,.19,4.65-.57,5.58-1.28Zm-3.89,4.26c-1.71-.17-2.49,.22-4.01,1.52-2.83,2.44-3.72,5.8-4.55,9.19-.74,3.02-1.12,6.17-3.03,8.82,1.59-1.09,2.73-2.52,3.08-4.41,.25-1.32,.47-2.65,.66-3.97,.66-4.69,3.39-7.89,7.09-10.48,.27-.19,.66-.27,.76-.67Zm-6.66,1.19c.77-.85,1.67-1.59,2.59-2.44-4.29-1.23-7.04-3.98-7.77-8.25-.74-4.29,1.34-7.63,4.66-10.28-3.03-1.93-5.57-4.17-6.5-7.9-.24,.57-.4,.93-.54,1.29-.85,2.11-2.37,3.7-3.82,5.4-1.85,2.16-3.94,3.98-6.41,5.3-3,1.58-6.19,2.79-9.2,4.37-1.5,.79-1.54,.7-.46,1.91,.1,.12,.18,.27,.28,.39,1.7,2.02,2.56,4.41,2.98,7.2,1.93-2.26,5.43-3.6,7.88-2.24,2.32,1.28,4.81,4.69,3.56,7.69-.35,.84-.68,1.69-.96,2.56-.75,2.4-1.37,4.8-.41,7.31,.15,.39,.31,.79,.42,1.21,.45,1.62,1.01,3.22,2.37,4.36,1.87,1.56,3.41,1.38,4.59-.78,1.11-2,1.98-4.12,2.43-6.43,.74-3.81,1.53-7.65,4.28-10.66Zm-7.98-32.31c.51-1.36,.6-2.74-.76-3.72-5.41,6.18-9.81,13.16-15.52,19.56,.73-.17,1.09-.22,1.42-.34,.33-.11,.64-.3,.97-.42,4.69-1.82,8.24-5.07,11.17-9.06,1.32-1.81,1.97-3.96,2.73-6.02Zm-2.7-4.6c-1.08-.04-1.81,.11-2.48,.42-3.25,1.45-5.48,3.89-7.01,7.08-.61,1.3-1.24,2.57-1.81,3.89-.84,1.92-1.73,3.82-2.59,5.73,5.12-5.26,8.74-11.64,13.89-17.12Zm-3.94,38.41c.43-2.77-1.96-5.34-4.82-5.04,1.06,1.87,1.84,3.8,1.76,5.94-.11,3.24,.1,6.46,.3,9.69,.14,2.13,.71,4.05,2.12,5.69,.37,.42,.73,.83,1.49,.63-1.28-1.49-1.56-3.36-2.27-5.05-.56-1.33-.69-2.79-.64-4.17,.07-1.73,.42-3.49,1.12-5.15,.34-.81,.8-1.64,.93-2.54Zm-5.16,2.78c.08-1.83-.03-3.65-.74-5.38-.22-.53-.44-1.17-1.01-1.21-.47-.03-.82,.5-1.1,.97-1.27,2.09-1.19,6.01,.57,8.31,1.48,1.94,2.07,4.19,2.02,6.63-.05,2.29,.85,4.11,2.9,5.32-1.34-1.66-2.05-3.66-2.26-5.66-.32-2.97-.5-5.98-.36-8.98Zm-8.83,4.68c2.73-4.78,3.57-9.82,1.46-15-1.41-3.47-3.06-5.39-7.68-4.71,.36,.13,.61,.22,.87,.31,2.79,1.01,4.93,2.8,5.92,5.61,.72,2.05,1.02,4.21,.56,6.45-.17,.84-.46,1.63-.63,2.47-.62,3.06-1.97,5.76-3.97,8.14-.2,.23-.53,.34-.78,.54-.23,.2-.43,.46-.65,.69,2.11-1.02,3.77-2.51,4.91-4.5Zm-1.36-26.84c.33-1.27-.09-2.22-.25-3.18-.69-4.1-1.49-8.17-3.19-12.01-.48-1.08-1.19-2.04-1.97-2.94-.47-.54-1.19-.68-1.73-.57-.59,.13-.51,.92-.53,1.46-.02,1.05,.16,2.05,.55,3.03,1.91,4.89,4.57,9.39,7.13,14.21Zm-3.31-35.86c-.02-3.07-2.33-5.46-5.48-5.43,2.71,1.2,4.25,3.08,5.48,5.43Zm2.63,59.44c1.64-4.82,1.53-9.2-.48-11.5,1.54,6.39-.07,11.88-3.77,17.07,1.41-.26,3.33-2.88,4.25-5.57Zm-3.54-25.6c.37,.45,.77,.88,1.16,1.33-.31-.98-.82-1.8-1.27-2.66-1.05-2.03-2.12-4.07-3.1-6.14-1.37-2.89-2.92-5.74-2.35-9.17-.69,.19-1.03,.63-1.16,1.19-.42,1.87-.33,3.77,.32,5.52,1.41,3.76,3.95,6.82,6.39,9.93Zm-.87-31.74c-.72-3.32-2.66-5.28-5.93-5.87,.98,3.09,3.68,4.22,5.93,5.87Zm-.83,60.46c2.42-3.57,3.58-7.39,3.12-11.67-.28-2.65-1.45-4.7-4.15-5.87,.61,1.12,1.12,2.12,1.45,3.22,1.49,5.1,.84,9.59-3.31,13.29-1.3,1.15-2.49,2.44-2.76,4.28-.04,.34-.11,.76,.19,1.03,.35,.31,.73-.05,.93-.21,1.59-1.27,3.33-2.28,4.54-4.06ZM79.63,6.03c1.03-1.89-.24-3.93-2.38-3.88-.32,.02-.63,.01-.84,.01-.5,.04-.9,.07-1.28,.12-.4,.04-.95,.09-1.03,.48-.12,.56,.53,.42,.83,.61,.67,.42,1.37,.78,1.92,1.38,.45,.49,.94,.98,1.46,1.38,.42,.32,1.02,.47,1.33-.1Zm-2.51,2.8c.24,.02,.79-.3,.39-.56-1.5-.98-2.31-2.88-4.49-3.25,.57,1.5,1.45,2.53,2.52,3.42,.44,.36,1.03,.35,1.58,.38Zm5.61,85.48c1.47-3.55,.47-6.87-1.03-10.15-.46,2.35-1.92,3.91-3.65,5.31-1.01,.82-2.06,1.61-3.02,2.49-2.12,1.95-2.11,4.53-1.79,7.09,.27,2.15,1.05,4.14,3.26,5.13,.22-2.43,1.46-4.28,3.03-5.98,1.15-1.23,2.55-2.29,3.2-3.9Zm-4.89-47.19c-.43-.03-.7-.09-.96-.07-2.15,.23-4.24-.07-6.3-.7-2.14-.65-3.36-2.25-3.59-4.49-.27-2.62,.97-4.65,2.32-6.69,.73-1.11,1.69-2.14,1.51-3.62-.09-.69-.28-1.09-1.16-.65-2.9,1.46-4.59,3.88-5.7,6.82-2.07,5.52,.94,9.62,6.15,10.7,2.57,.54,5.15-.1,7.73-1.3Zm.86,38.53c.46-.67,1.16-1.48,.58-2.13-.52-.61-1.52-.13-2.21,.22-1.56,.79-2.98,1.81-4.23,3.03-2.66,2.6-4.06,5.76-3.66,9.53,.21,1.97,.88,3.84,2.53,5.59-.15-.75-.23-1.15-.34-1.56-1.33-4.73,.28-9.17,4.39-11.82,1.19-.77,2.16-1.7,2.94-2.86Zm-2.04-35.52c-.36,0-.5-.03-.64-.02-.24,.02-.48,.04-.71,.1-2.47,.62-4.89,.71-7.35-.21-3.02-1.14-5.33-3.02-6.32-6.12-1.06-3.33-.22-6.48,1.48-9.47,1.18-2.07,2.86-3.64,5.03-5.26-2.6,.06-4.5,.92-6.13,2.42-2.44,2.24-4.38,4.82-4.95,8.17-.24,1.39-.19,2.83-.25,4.24-.06,1.81,.81,3.22,2.15,4.29,1.74,1.38,3.69,2.43,5.85,3.06,2.59,.76,5.22,.36,7.82,.15,1.32-.11,2.69-.44,4.03-1.35Zm.14,14.13c.53-2.34,.19-4.5-1.08-6.47-1.52-2.36-3.99-3.16-6.82-3.79,.86,.75,1.56,1.27,2.15,1.91,1.66,1.85,2.63,3.81,2.32,6.53-.39,3.46-1.33,6.62-3.48,9.31-2.24,2.82-5.41,4.21-8.82,5.1,2.36-.26,4.77-.15,6.99-1.22,2.03-.97,4.06-1.93,5.44-3.82,1.67-2.27,2.7-4.8,3.31-7.54Zm-5.2-44.63c.23-.3,.81-.52,.6-.92-.22-.42-.83-.43-1.28-.37-1.47,.2-2.92-.04-4.36-.24-1.49-.21-2.89-.87-3.4-2.44-.58-1.84-.57-3.7,.2-5.55,.67-1.61,1.99-2.71,3.11-4.23-1.84,.76-2.98,2.09-4.32,3.16-2.54,2.02-3.02,6.93-1.72,9.52,2.06,4.07,8.94,4.05,11.16,1.07Zm1.93,1.05c-1.71,1.96-3.63,2.8-5.95,3.07-3.45,.38-6.38-.6-8.38-3.35-2.23-3.05-2.08-6.56-.69-9.94,1.12-2.73,3.59-4.31,6.12-6.15-2.04,.64-3.77,1.31-5.07,2.73-2.42,2.67-4.15,5.68-4.41,9.39-.24,3.61,1.32,6.34,4.15,8.4,2.2,1.59,4.72,1.88,7.43,1.85,3.18-.03,6.47-2.34,6.8-6.01Zm-2.34,41.56c.17-3.28-1.47-5.89-4.56-6.92-.92-.31-1.25-.04-1.11,.97,.17,1.23,.58,2.39,1.1,3.51,1.69,3.65,1.47,7.09-.7,10.56-.82,1.31-1.89,2.28-3.03,3.42,1.05,.33,1.52-.48,2.13-.83,1.2-.67,2.44-1.31,3.27-2.51,1.71-2.47,2.74-5.14,2.9-8.18Zm4.74,19.5c-6.14,.76-9.14,5.3-9.97,10.06-.68,3.94,.65,8.74,2.74,9.89-4.2-9.07-.24-15.14,7.23-19.95Zm-13.29-10.6c2.79-2.87,3.93-6.42,2.08-10.44-.9-1.93-1.56-3.87-1.21-6.07-1.89,.77-3.49,1.93-4.69,3.43-1.69,2.13-1.96,4.62-1.25,7.28,.67,2.47,2.28,4.85,.83,7.7,1.69-.41,3.2-.82,4.25-1.89Zm-2.88-16.89c-.32-.15-.56-.02-.8,.13-2.48,1.63-4.95,3.28-5.74,6.42-1.01,4.01-2.3,7.98,1.48,11.5,1,.93,1.29,.31,1.67-.13,.59-.68,.67-1.56,.36-2.47-.51-1.48-1.08-2.96-1.42-4.48-.61-2.7,0-5.22,1.26-7.65,.75-1.44,2.21-2.11,3.18-3.32Zm2.67-25.72c-4.49-1.02-8.21-4.44-9.44-9.65-.19,.06-.17,.22-.2,.38-.2,1.34-.1,2.69-.11,4.03-.05,4.61,2.02,8.75,2.94,13.39,1.62-3.39,3.88-6.04,6.81-8.15Zm-3.45,22.26c-1.41-.81-2.3-1.8-3.28-2.85-.37,1.36-.84,2.53-1.47,3.79,1.62-.32,3.03-.6,4.75-.93Zm-2.91,2.7c-.33,.1-.68,.18-1.01,.29-3.12,.92-5.53,2.68-6.65,5.84-1.27,3.57-.86,7.14,.35,10.62,.42,1.22,1.36,2.13,2.51,2.77,.13,.07,.31,.13,.43,.08,.27-.11,.1-.34,.05-.51-.08-.25-.17-.52-.31-.76-1.75-2.9-1.53-6.12-1.04-9.21,.6-3.71,2.45-6.87,5.67-9.13Zm-2.39-6.51c.67-3.06,.41-6.17-.04-9.24-.54-3.58-2.18-6.86-2.67-10.44-.49-3.57-.93-7.15,.32-10.69-2.95,1.08-3.48,3.27-3.53,5.59-.07,3.01,.41,5.95,.92,8.89,.62,3.54,1.84,7.02,1.46,10.7-.3,2.93-.7,5.83-2.41,8.35-1.61,2.37-3.66,4.1-6.6,4.42-1.32,.15-2.67,.07-4.2,.09,.51,.35,.85,.63,1.23,.82,1.95,.97,4,1.69,6.2,1.11,1.57-.42,3.04-1.1,4.41-2.03,2.71-1.85,4.25-4.48,4.92-7.57Zm3.5,58.41c.52-1.73,1.04-3.45,1.57-5.18-.09-.03-.19-.07-.27-.12-1.39,2.44-2.93,4.77-4.41,7.14-2.08,3.36-4.06,6.75-6.34,9.99-2.79,3.95-6.31,6.93-10.93,8.54-2.83,.98-5.64,.92-8.5,.29,2.89,1.52,5.83,2.43,9.14,1.53,1.53-.42,2.98-1,4.41-1.68,4.41-2.06,7.7-5.42,10.37-9.36,2.29-3.39,3.77-7.23,4.95-11.15Zm-5.03-24.57c1.67-.92,3-1.93,3.26-2.96-5.57,2.13-11.19,4.33-16.72,7.11,.89-.07,1.57-.02,2.2-.21,3.81-1.13,7.72-1.95,11.26-3.94Zm1.57-4.6c.16-.05,.43-.17,.36-.39-.05-.16-.27-.34-.43-.36-.7-.07-1.45-.24-2.12-.1-4.75,.98-8.74,3.46-12.33,6.67,1.84-.4,3.49-1.26,5.14-2.07,1.17-.58,2.3-1.29,3.56-1.56,2.06-.45,3.9-1.41,5.82-2.19Zm3.23,22.11c-1.05,.88-1.81,2.01-2.52,3.13-2.43,3.83-4.62,7.81-7.33,11.48-1.96,2.64-3.86,5.3-6.55,7.3-3.12,2.32-6.43,3.87-10.45,3.34-.56-.07-1.13-.33-1.8,0,1.06,.54,2.16,.77,3.25,.8,3.79,.09,7.08-1.29,10.03-3.62,3.27-2.59,5.32-6.17,7.62-9.52,1.24-1.82,2.14-3.88,3.46-5.66,1.68-2.28,2.79-4.87,4.29-7.24ZM46.73,17.6c.56-.96,1.52-1.47,2.26-2.47-.97,.26-1.78,.31-2.52,.78-2.31,1.49-2.88,3.95-2.94,6.3-.09,3.02,.24,6.09,.75,9.08,.67,3.93,1.39,7.86,1.34,11.84-.05,3.25-1.17,6.06-4.32,7.68-1.35,.7-2.78,1.03-4.39,1.12,1.03,.82,2.08,.49,3.09,.54,2.82,.15,4.72-1.36,5.96-3.59,2.42-4.37,2.48-9.06,1.37-13.83-1.02-4.37-1.86-8.77-1.69-13.29,.05-1.41,.33-2.85,1.1-4.17Zm1.7,56.23c.28-.7-.59-1.1-.96-1.61-1.41-1.98-1.76-4.31-1.9-6.55-.12-2.04-.22-4.21,.65-6.21,.17-.39,.53-.85,.2-1.18-.25-.26-.75,0-1.13,.13-3.19,1.1-6.16,.17-8.82-1.44-2.41-1.45-4.23-3.66-5.18-6.59-1.15,.85-1.46,2.25-2.71,2.7-.25,.08-.17,.33-.03,.48,1.57,1.83,2.18,4.08,2.84,6.33,1.32,4.51,2.01,9.16,2.78,13.79,.34,2.01,.54,4.06,.4,6.12-.06,.88,0,1.76,0,2.78,.83-.57,1.55-.98,2.17-1.52,3.04-2.62,6.34-4.84,9.99-6.51,.58-.27,1.46-.16,1.7-.72Zm-4.99,32.78c1.14-2.71,2.05-5.43,1.47-8.46-.76-3.87-4.19-7.51-8.03-8.57,.07,.12,.1,.21,.16,.29,3.25,4.13,4.39,8.77,3.38,13.94-.6,3.09-.87,6.19-.41,9.32,.07,.5,.07,1,.51,1.36,.4-.28,.33-.73,.45-1.09,.74-2.29,1.54-4.57,2.47-6.78Zm-5.18-67.54c.35-2.43-.55-4.45-2.44-5.29,.16,3.47,0,6.82-.5,10.29,1.64-1.43,2.66-3,2.94-4.99Zm-5.63,6.25c.87-3.33,1.2-6.72,.89-10.17-2.18,3.24-.84,6.76-.89,10.17Zm5.76,57.33c.61-3.73-.08-7.12-2.29-10.22,.87,2.87,.7,5.77,.18,8.62-.53,2.99-.73,5.97-.35,8.97,.22,1.68,.71,3.31,2.25,4.6-.14-.66-.24-1.15-.33-1.65-.62-3.48-.02-6.91,.53-10.32Zm-6.13-21.48c.3-1.95,.28-3.92-.04-5.83-.68-4.03-1.15-8.08-2.18-12.04-.63-2.46-1.12-4.95-2.29-7.22-.56-1.09-1.28-2.06-2.53-2.63,2.66,9.24,5.43,18.32,7.04,27.72Zm-6.35-45.84c.06-2.69-.33-5.33-2.24-7.43-2.15-2.37-4.17-3.5-6.98-2.37-1.85,.73-3.02,2.25-4.09,3.89,.86-.49,1.68-1.05,2.6-1.35,2.69-.85,4.07-1.47,6.21,.99,1.66,1.92,1.92,4.26,2.13,6.54,.33,3.71,.53,7.41,1.03,11.09,.2,1.44,.99,2.65,2.01,2.94-.89-1.76-1.14-3.63-1.14-5.45,.01-2.95,.42-5.91,.48-8.85Zm3.39,43.27c-1.35-7.93-3.59-15.6-5.87-23.28,.11,8.23,3.06,15.75,5.87,23.28Zm-2.38,.66c-.02-.91-.5-1.64-.78-2.45-1.48-4.43-2.98-8.86-4.01-13.42-.69-3.04-1.31-6.1-.77-9.47-1.28,.61-1.9,1.55-2.28,2.64-1.17,3.27-.7,6.49,.47,9.64,1.14,3.1,2.99,5.84,4.64,8.67,.87,1.48,1.9,2.86,2.72,4.39Zm.52,15.5c.04-.72,.45-1.41,.14-2.36-2.58,3.26-3.67,6.68-3.23,10.6,.07,.6,.32,.44,.61,.31,1.06-.51,1.69-1.36,2-2.5,.52-1.99,.37-4.04,.48-6.05Zm-5.51-51.64c-.09-2.03-.15-4.08-.42-6.1-.27-2.05-.21-4.23-1.25-6.11-.37-.67-.95-1.54-1.91-1.44-1.65,.18-3.2,.7-4.57,2.03,2.03,.32,2.85,1.73,3.49,3.32,1.45,3.64,2.52,7.41,4.13,10.99,.35,.78,.51,1.66,1.45,2.49-.51-1.9-.86-3.52-.93-5.19Zm5.82,71.79c.44-.73,.44-1.31-.06-1.94-.56-.69-1.36-.89-2.03-.48-1.97,1.18-3.52,5.13-1.79,6.82,.98-1.84,2.85-2.72,3.88-4.4Zm-1.33-24.45c-1.2,.11-1.88,.65-2.36,1.27-1.69,2.22-3.11,4.62-3.31,7.48-.1,1.46-.41,3.1,1.45,4.15-.44-4.89,.97-9.1,4.22-12.91ZM5.28,45.18c2.08-.7,2.24-4.09,2.1-6.95-1.31,1.88-2.37,5.42-2.1,6.95Zm-2.37-.42c.49-3.16,1.48-6.03,3.2-8.72-3.48,.76-5.06,5.42-3.2,8.72Z"/><path class="cls-1" d="M146.59,75.79c2.53,2.3,2.71,4.89,.82,7.73-.93-.11-1.26-.72-1.02-1.78,.44-1.96,.93-3.93,.2-5.95Z"/><path class="cls-1" d="M145.55,87.69c.6,1.98,.17,3.93-.18,5.87-.54,3.04-.52,6.12-.83,9.17-.15,1.48-.55,2.83-1.29,4.1-.13-3.2-.36-6.4-.35-9.6,.02-3.03,0-6.09,.87-9.05,.05-.19,.09-.39,.18-.56,.2-.36,.23-.93,.77-.94,.62,0,.68,.55,.82,1.01Z"/><path class="cls-1" d="M145.52,117.78c1.3,1.24,1,3.65-.56,4.61-2.16,1.33-2.74,1.09-2.87-1.42-.1-2-.36-4.04,.22-6.26,.95,1.32,2.18,2.08,3.21,3.07Z"/><path class="cls-1" d="M139.7,88.93c.26-.92,1.48-2.36,2.31-2.63-1.44,4.75-1.23,9.69-1.22,14.77-.89-2.82-1.94-9.17-1.09-12.14Z"/><path class="cls-1" d="M134.07,46.83c2.91,.1,4.33,2.89,2.93,5.73-.52-2.15-1-4.29-2.93-5.73Z"/><path class="cls-1" d="M133.02,49.1c1.48,1.1,1.76,2.67,1.82,4.31,0,.22-.07,.41-.28,.47-.25,.05-.48,0-.65-.22-.38-.47-.61-.99-.65-1.62-.06-.98-.15-1.95-.24-2.94Z"/><path class="cls-1" d="M136.74,80.66s.07,.01,.29,.06c-3.12,2.54-6.65,3.66-10.5,3.69-2.82,.03-5.54-2.54-4.84-6.1,.56-2.88,2.31-4.45,4.64-5.66,.44-.23,1.09-.6,1.57-.18,.47,.4,.26,1.06,.08,1.57-.33,.97-.79,1.9-1.1,2.87-.98,2.99,.83,4.73,3.44,5.19,2.13,.37,4.11-.29,6.01-1.24,.13-.07,.27-.14,.41-.21Z"/><path class="cls-1" d="M140.13,113.93c-.28,2.97-.51,5.86,.15,8.96-2.3-1.46-2.45-6.92-.15-8.96Z"/><path class="cls-1" d="M132.01,62.81c.49,.2,.55,.4,.28,.86-.99,1.76-2.79,2.31-4.49,2.42-3.31,.2-7.31-2.62-8.18-5.91-.3-1.14-.03-2.23,.18-3.29,.45-2.32,1.11-4.57,3.25-6.01-.63,1.33-1.08,2.69-1.32,4.14-.37,2.21,.07,4.16,1.82,5.58,1.17,.94,2.66,1.31,4.17,1.58,1.43,.25,2.92,.08,4.3,.65Z"/><path class="cls-1" d="M126.57,68.14c1.7,.22,3.2-.2,4.71-.94-3.38,4.27-8.77,3.07-12.53,.03-3.95-3.19-4.26-8.73-2.97-12.43,1.31-3.82,3.99-6.14,7.76-7.47-.21,.45-.54,.67-.87,.91-.35,.25-.65,.58-.99,.86-3.38,2.75-4.25,6.58-4.27,10.65,0,2.17,1.34,3.88,2.89,5.28,1.78,1.61,3.79,2.81,6.27,3.12Z"/><path class="cls-1" d="M130.16,92.25c.34,.52,.23,1.19-.05,1.72-.51,.94-1.24,1.7-2.13,2.34-1.32,.94-2.73,1.78-3.82,2.98-1.35,1.49-1.78,3.41-2.38,5.25-.28,.91-.59,1.81-1.49,2.72,.35-2.07,.67-3.86,.93-5.66,.58-4.07,3.08-6.78,6.29-9.02,.41-.29,.86-.42,1.34-.45,.45-.03,1.02-.35,1.31,.12Z"/><path class="cls-1" d="M120.16,82.5c2.03,3.72,5.1,4.84,10.68,3.53-.93,.71-4.28,1.47-5.58,1.28-2.18-.31-4.27-.89-5.85-2.54-1.6-1.66-2.39-3.62-2.17-6,.19-1.97,.97-3.6,2.22-5.1,.89-1.08,2.01-1.46,3.47-1.6-3.61,3.07-4.21,7.78-2.77,10.43Z"/><path class="cls-1" d="M122.95,91.81c1.52-1.3,2.3-1.69,4.01-1.52-.1,.4-.48,.47-.76,.67-3.7,2.59-6.43,5.79-7.09,10.48-.19,1.32-.41,2.65-.66,3.97-.35,1.9-1.49,3.33-3.08,4.41,1.91-2.65,2.29-5.79,3.03-8.82,.83-3.39,1.72-6.76,4.55-9.19Z"/><path class="cls-1" d="M111.55,55.45c1.37,.98,1.27,2.36,.76,3.72-.77,2.06-1.41,4.21-2.73,6.02-2.93,3.99-6.48,7.24-11.17,9.06-.33,.12-.64,.31-.97,.42-.33,.12-.69,.17-1.42,.34,5.71-6.4,10.11-13.39,15.52-19.56Z"/><path class="cls-1" d="M107.14,54.98c.68-.31,1.41-.46,2.48-.42-5.15,5.47-8.78,11.86-13.89,17.12,.86-1.91,1.75-3.81,2.59-5.73,.57-1.31,1.2-2.59,1.81-3.89,1.53-3.19,3.76-5.64,7.01-7.08Z"/><path class="cls-1" d="M100.86,87.93c2.86-.3,5.25,2.28,4.82,5.04-.14,.89-.59,1.73-.93,2.54-.7,1.66-1.06,3.42-1.12,5.15-.04,1.38,.08,2.84,.64,4.17,.71,1.69,.99,3.56,2.27,5.05-.76,.2-1.12-.21-1.49-.63-1.41-1.64-1.99-3.57-2.12-5.69-.2-3.22-.41-6.45-.3-9.69,.07-2.14-.7-4.08-1.76-5.94Z"/><path class="cls-1" d="M99.77,90.38c.72,1.73,.82,3.54,.74,5.38-.14,3,.04,6.01,.36,8.98,.21,2,.92,4,2.26,5.66-2.05-1.2-2.94-3.02-2.9-5.32,.05-2.44-.55-4.69-2.02-6.63-1.76-2.3-1.84-6.22-.57-8.31,.28-.47,.63-1,1.1-.97,.58,.04,.8,.68,1.01,1.21Z"/><path class="cls-1" d="M93.14,85.43c2.11,5.17,1.27,10.22-1.46,15-1.14,1.99-2.8,3.48-4.91,4.5,.22-.23,.42-.49,.65-.69,.24-.2,.58-.31,.78-.54,2-2.39,3.36-5.08,3.97-8.14,.17-.84,.46-1.63,.63-2.47,.45-2.24,.16-4.4-.56-6.45-.99-2.82-3.13-4.6-5.92-5.61-.26-.09-.51-.18-.87-.31,4.62-.68,6.28,1.24,7.68,4.71Z"/><path class="cls-1" d="M90.08,70.41c.16,.96,.58,1.91,.25,3.18-2.55-4.82-5.22-9.33-7.13-14.21-.38-.98-.57-1.99-.55-3.03,.01-.54-.06-1.33,.53-1.46,.54-.12,1.27,.02,1.73,.57,.79,.91,1.49,1.86,1.97,2.94,1.7,3.84,2.5,7.92,3.19,12.01Z"/><path class="cls-1" d="M81.54,32.3c3.16-.03,5.47,2.36,5.48,5.43-1.23-2.35-2.77-4.23-5.48-5.43Z"/><path class="cls-1" d="M89.18,85.67c2.01,2.3,2.12,6.68,.48,11.5-.92,2.69-2.84,5.31-4.25,5.57,3.7-5.19,5.31-10.67,3.77-17.07Z"/><path class="cls-1" d="M87.27,72.89c-.39-.45-.79-.88-1.16-1.33-2.45-3.11-4.99-6.17-6.39-9.93-.66-1.75-.75-3.65-.32-5.52,.13-.56,.48-1,1.16-1.19-.57,3.43,.98,6.28,2.35,9.17,.98,2.08,2.04,4.11,3.1,6.14,.44,.87,.95,1.69,1.27,2.66Z"/><path class="cls-1" d="M79.31,33.95c3.27,.6,5.21,2.55,5.93,5.87-2.26-1.66-4.95-2.78-5.93-5.87Z"/><path class="cls-1" d="M87.53,88.62c.46,4.29-.7,8.11-3.12,11.67-1.2,1.79-2.95,2.8-4.54,4.06-.2,.16-.58,.52-.93,.21-.29-.27-.23-.68-.19-1.03,.27-1.84,1.46-3.12,2.76-4.28,4.14-3.7,4.8-8.19,3.31-13.29-.32-1.1-.84-2.1-1.45-3.22,2.7,1.18,3.86,3.23,4.15,5.87Z"/><path class="cls-1" d="M77.24,2.14c2.14-.05,3.42,1.99,2.38,3.88-.3,.57-.91,.42-1.33,.1-.53-.41-1.01-.89-1.46-1.38-.55-.61-1.26-.97-1.92-1.38-.31-.19-.96-.05-.83-.61,.09-.39,.64-.43,1.03-.48,.39-.05,.79-.08,1.28-.12,.21,0,.52,0,.84-.01Z"/><path class="cls-1" d="M77.51,8.27c.39,.26-.15,.57-.39,.56-.54-.02-1.14-.01-1.58-.38-1.07-.89-1.95-1.92-2.52-3.42,2.18,.37,2.99,2.27,4.49,3.25Z"/><path class="cls-1" d="M76.87,47.05c.26-.02,.52,.04,.96,.07-2.58,1.2-5.15,1.84-7.73,1.3-5.21-1.09-8.22-5.18-6.15-10.7,1.11-2.94,2.8-5.36,5.7-6.82,.88-.44,1.07-.04,1.16,.65,.17,1.48-.78,2.51-1.51,3.62-1.34,2.04-2.59,4.07-2.32,6.69,.23,2.25,1.45,3.84,3.59,4.49,2.06,.63,4.15,.94,6.3,.7Z"/><path class="cls-1" d="M79.27,83.53c.58,.64-.13,1.46-.58,2.13-.79,1.16-1.75,2.08-2.94,2.86-4.11,2.65-5.73,7.1-4.39,11.82,.11,.4,.19,.81,.34,1.56-1.65-1.75-2.32-3.62-2.53-5.59-.4-3.77,1-6.93,3.66-9.53,1.25-1.22,2.67-2.23,4.23-3.03,.69-.35,1.69-.82,2.21-.22Z"/><path class="cls-1" d="M76.01,50.12c.14-.01,.28,0,.64,.02-1.34,.92-2.72,1.24-4.03,1.35-2.6,.21-5.23,.6-7.82-.15-2.16-.63-4.11-1.68-5.85-3.06-1.33-1.06-2.21-2.47-2.15-4.29,.05-1.41,0-2.85,.25-4.24,.57-3.35,2.51-5.93,4.95-8.17,1.63-1.5,3.52-2.36,6.13-2.42-2.16,1.62-3.85,3.19-5.03,5.26-1.71,2.98-2.54,6.13-1.48,9.47,.98,3.1,3.3,4.98,6.32,6.12,2.47,.93,4.89,.83,7.35,.21,.24-.06,.47-.08,.71-.1Z"/><path class="cls-1" d="M75.72,57.79c1.27,1.97,1.6,4.13,1.08,6.47-.61,2.74-1.64,5.28-3.31,7.54-1.38,1.89-3.41,2.85-5.44,3.82-2.22,1.07-4.64,.96-6.99,1.22,3.42-.89,6.58-2.28,8.82-5.1,2.15-2.69,3.09-5.85,3.48-9.31,.31-2.72-.65-4.68-2.32-6.53-.59-.63-1.29-1.16-2.15-1.91,2.83,.63,5.3,1.43,6.82,3.79Z"/><path class="cls-1" d="M72.2,18.71c.2,.4-.38,.62-.6,.92-2.22,2.99-9.1,3-11.16-1.07-1.3-2.59-.82-7.5,1.72-9.52,1.34-1.08,2.48-2.41,4.32-3.16-1.12,1.52-2.44,2.61-3.11,4.23-.77,1.85-.77,3.71-.2,5.55,.5,1.57,1.9,2.24,3.4,2.44,1.43,.2,2.89,.44,4.36,.24,.45-.06,1.06-.05,1.28,.37Z"/><path class="cls-1" d="M67.57,23.75c2.33-.27,4.24-1.11,5.95-3.07-.33,3.67-3.62,5.98-6.8,6.01-2.71,.03-5.23-.26-7.43-1.85-2.83-2.06-4.39-4.79-4.15-8.4,.26-3.71,1.98-6.72,4.41-9.39,1.3-1.42,3.03-2.09,5.07-2.73-2.52,1.85-4.99,3.42-6.12,6.15-1.39,3.38-1.55,6.88,.69,9.94,2,2.75,4.93,3.73,8.38,3.35Z"/><path class="cls-1" d="M66.62,55.32c3.09,1.03,4.72,3.65,4.56,6.92-.17,3.04-1.2,5.71-2.9,8.18-.83,1.2-2.07,1.84-3.27,2.51-.61,.35-1.08,1.16-2.13,.83,1.15-1.14,2.21-2.1,3.03-3.42,2.17-3.46,2.39-6.9,.7-10.56-.52-1.12-.92-2.28-1.1-3.51-.13-1,.19-1.28,1.11-.97Z"/><path class="cls-1" d="M65.95,91.81c.83-4.76,3.83-9.3,9.97-10.06-7.47,4.8-11.43,10.88-7.23,19.95-2.08-1.15-3.42-5.94-2.74-9.89Z"/><path class="cls-1" d="M58.96,54.38c.24-.15,.48-.28,.8-.13-.97,1.21-2.43,1.88-3.18,3.32-1.27,2.44-1.87,4.95-1.26,7.65,.34,1.52,.91,2.99,1.42,4.48,.31,.91,.23,1.79-.36,2.47-.38,.44-.67,1.06-1.67,.13-3.78-3.52-2.49-7.49-1.48-11.5,.79-3.15,3.26-4.79,5.74-6.42Z"/><path class="cls-1" d="M55.06,53.78c.33-.11,.68-.19,1.01-.29-3.22,2.26-5.07,5.41-5.67,9.13-.49,3.08-.71,6.3,1.04,9.21,.14,.24,.23,.5,.31,.76,.05,.17,.22,.39-.05,.51-.12,.05-.3-.01-.43-.08-1.15-.64-2.09-1.55-2.51-2.77-1.22-3.48-1.62-7.05-.35-10.62,1.12-3.15,3.53-4.92,6.65-5.84Z"/><path class="cls-1" d="M53.63,37.74c.46,3.07,.71,6.18,.04,9.24-.67,3.09-2.21,5.72-4.92,7.57-1.37,.93-2.84,1.6-4.41,2.03-2.2,.58-4.25-.14-6.2-1.11-.39-.19-.72-.47-1.23-.82,1.52-.02,2.88,.06,4.2-.09,2.94-.32,5-2.05,6.6-4.42,1.7-2.52,2.11-5.43,2.41-8.35,.37-3.67-.84-7.15-1.46-10.7-.51-2.95-.99-5.89-.92-8.89,.06-2.31,.58-4.5,3.53-5.59-1.26,3.55-.82,7.12-.32,10.69,.49,3.58,2.13,6.87,2.67,10.44Z"/><path class="cls-1" d="M58.75,100.21c-.53,1.73-1.05,3.45-1.57,5.18-1.19,3.92-2.66,7.76-4.95,11.15-2.67,3.94-5.96,7.31-10.37,9.36-1.43,.67-2.87,1.26-4.41,1.68-3.31,.9-6.25,0-9.14-1.53,2.85,.62,5.67,.69,8.5-.29,4.62-1.6,8.14-4.59,10.93-8.54,2.28-3.23,4.26-6.63,6.34-9.99,1.48-2.37,3.02-4.71,4.41-7.14,.08,.04,.18,.09,.27,.12Z"/><path class="cls-1" d="M55.41,77.85c-.26,1.04-1.59,2.04-3.26,2.96-3.54,1.98-7.45,2.8-11.26,3.94-.63,.18-1.31,.13-2.2,.21,5.54-2.77,11.15-4.97,16.72-7.11Z"/><path class="cls-1" d="M54.08,75.83c.07,.22-.2,.34-.36,.39-1.92,.77-3.76,1.73-5.82,2.19-1.26,.28-2.4,.98-3.56,1.56-1.66,.81-3.3,1.67-5.14,2.07,3.59-3.21,7.58-5.69,12.33-6.67,.67-.14,1.42,.03,2.12,.1,.16,.02,.38,.2,.43,.36Z"/><path class="cls-1" d="M54.44,101.46c.71-1.12,1.47-2.25,2.52-3.13-1.5,2.37-2.6,4.97-4.29,7.24-1.32,1.78-2.22,3.84-3.46,5.66-2.3,3.35-4.34,6.93-7.62,9.52-2.95,2.34-6.24,3.72-10.03,3.62-1.09-.03-2.19-.26-3.25-.8,.66-.33,1.24-.07,1.8,0,4.02,.53,7.33-1.02,10.45-3.34,2.69-2,4.6-4.66,6.55-7.3,2.71-3.66,4.91-7.65,7.33-11.48Z"/><path class="cls-1" d="M48.99,15.13c-.74,1-1.7,1.51-2.26,2.47-.77,1.32-1.05,2.76-1.1,4.17-.17,4.51,.67,8.92,1.69,13.29,1.11,4.77,1.06,9.46-1.37,13.83-1.24,2.23-3.14,3.75-5.96,3.59-1.01-.06-2.05,.27-3.09-.54,1.61-.1,3.04-.43,4.39-1.12,3.16-1.62,4.27-4.43,4.32-7.68,.06-3.98-.67-7.91-1.34-11.84-.51-2.99-.84-6.06-.75-9.08,.06-2.35,.63-4.81,2.94-6.3,.74-.47,1.55-.52,2.52-.78Z"/><path class="cls-1" d="M44.91,98.14c.59,3.03-.33,5.75-1.47,8.46-.93,2.22-1.73,4.49-2.47,6.78-.12,.36-.05,.81-.45,1.09-.43-.37-.43-.87-.51-1.36-.46-3.13-.19-6.23,.41-9.32,1.01-5.16-.13-9.8-3.38-13.94-.07-.07-.09-.16-.16-.29,3.83,1.05,7.27,4.7,8.03,8.57Z"/><path class="cls-1" d="M35.82,33.77c1.89,.84,2.79,2.87,2.44,5.29-.28,1.99-1.31,3.56-2.94,4.99,.49-3.46,.66-6.82,.5-10.29Z"/><path class="cls-1" d="M33.53,35.15c.31,3.45-.02,6.84-.89,10.17,.05-3.41-1.29-6.93,.89-10.17Z"/><path class="cls-1" d="M36.11,92.42c2.21,3.11,2.89,6.49,2.29,10.22-.55,3.41-1.15,6.84-.53,10.32,.09,.49,.19,.99,.33,1.65-1.54-1.29-2.03-2.92-2.25-4.6-.38-3-.18-5.99,.35-8.97,.51-2.85,.69-5.76-.18-8.62Z"/><path class="cls-1" d="M32.22,75.34c.32,1.91,.34,3.88,.04,5.83-1.61-9.4-4.37-18.48-7.04-27.72,1.25,.57,1.97,1.54,2.53,2.63,1.17,2.27,1.67,4.77,2.29,7.22,1.03,3.96,1.5,8.01,2.18,12.04Z"/><path class="cls-1" d="M23.67,27.9c1.91,2.1,2.3,4.73,2.24,7.43-.06,2.95-.47,5.9-.48,8.85,0,1.83,.25,3.69,1.14,5.45-1.03-.29-1.81-1.5-2.01-2.94-.5-3.68-.7-7.39-1.03-11.09-.2-2.28-.47-4.63-2.13-6.54-2.13-2.46-3.52-1.84-6.21-.99-.92,.3-1.73,.86-2.6,1.35,1.07-1.64,2.24-3.16,4.09-3.89,2.82-1.13,4.84,0,6.98,2.37Z"/><path class="cls-1" d="M23.43,55.31c2.28,7.68,4.52,15.34,5.87,23.28-2.81-7.53-5.76-15.05-5.87-23.28Z"/><path class="cls-1" d="M26.14,76.8c.28,.81,.76,1.54,.78,2.45-.82-1.53-1.85-2.91-2.72-4.39-1.65-2.83-3.5-5.58-4.64-8.67-1.17-3.15-1.64-6.37-.47-9.64,.38-1.09,.99-2.03,2.28-2.64-.54,3.37,.08,6.43,.77,9.47,1.03,4.56,2.53,8.99,4.01,13.42Z"/><path class="cls-1" d="M27.59,92.4c.31,.95-.1,1.64-.14,2.36-.11,2.02,.04,4.06-.48,6.05-.31,1.14-.94,1.99-2,2.5-.29,.13-.54,.29-.61-.31-.44-3.92,.66-7.34,3.23-10.6Z"/><path class="cls-1" d="M21.51,37.02c.27,2.01,.33,4.07,.42,6.1,.07,1.67,.42,3.29,.93,5.19-.94-.82-1.11-1.7-1.45-2.49-1.61-3.58-2.68-7.35-4.13-10.99-.64-1.59-1.46-3-3.49-3.32,1.36-1.33,2.92-1.85,4.57-2.03,.95-.1,1.54,.76,1.91,1.44,1.04,1.88,.97,4.05,1.25,6.11Z"/><path class="cls-1" d="M27.69,112.97c.5,.63,.5,1.21,.06,1.94-1.03,1.68-2.91,2.56-3.88,4.4-1.73-1.69-.17-5.65,1.79-6.82,.67-.41,1.47-.2,2.03,.48Z"/><path class="cls-1" d="M24.06,91.73c.48-.62,1.16-1.16,2.36-1.27-3.25,3.81-4.66,8.02-4.22,12.91-1.87-1.06-1.55-2.69-1.45-4.15,.2-2.87,1.62-5.26,3.31-7.48Z"/><path class="cls-1" d="M7.38,38.23c.14,2.86-.03,6.25-2.1,6.95-.27-1.53,.8-5.07,2.1-6.95Z"/><path class="cls-1" d="M6.1,36.04c-1.72,2.69-2.71,5.56-3.2,8.72-1.86-3.3-.28-7.95,3.2-8.72Z"/></g></g></svg>