<?xml version="1.0" encoding="UTF-8"?><svg id="Layer_2" xmlns="http://www.w3.org/2000/svg" viewBox="0 0 113.49 126.15"><defs><style>.cls-1{fill:#f9e0e9;}.cls-2{fill:#f9da69;}.cls-3{fill:#cce8f7;}.cls-4{fill:#105375;}</style></defs><g id="Layer_4"><g><path d="M112.58,67.07c.53,2.41,.85,4.81,.55,7.21-.26,2.12-.75,4.22-.89,6.36-.35,5.19-2.52,9.62-6.09,13.26-2.91,2.97-6.13,5.64-10.52,6.17-.37,.04-.67,.17-.93,.47-1.74,1.92-4.12,2.74-6.42,3.74-2.01,.88-4,.91-6.07,.59-.47-.07-.83,.07-1.11,.51-.63,.97-1.3,1.91-1.96,2.86-1.09,1.57-2.47,2.06-4.21,1.36-.7-.28-.95-.03-1.36,.46-2.41,2.9-4.51,6.06-7.4,8.58-5.1,4.46-10.84,7.47-17.71,7.25-5.16-.17-9.71-2.04-12.04-7.19-1.15-2.54-1.06-5.23-.61-7.96,.51-3.14,1.91-5.98,2.78-9,.4-1.41,.81-2.84,.27-4.33-.5-1.36-1.53-1.99-2.94-2.25-3.9-.71-6.61,1.26-9.2,3.75-2.23,2.13-4.01,4.61-5.79,7.1-1.54,2.17-3.62,3.65-6.27,4.04-3.31,.49-4.35-.9-5.71-3.89-.28-.61-.44-1.29-.57-1.96-.21-1.04-.56-1.82-1.61-2.43-.97-.55-1.61-1.66-1.88-2.81-.47-2.03-1.43-3.87-2.09-5.82-.84-2.48-1.66-4.97-2.45-7.46-.31-.99,.19-2.25,1.06-2.68,.98-.49,1.95-.4,2.79,.33,.3,.26,.56,.59,.74,.94,1.75,3.43,3.94,6.64,5.25,10.3,.41,1.15,1.05,2.22,1.23,3.47,.17,1.23,.04,2.38-.76,3.38-.23,.28-.52,.53-.39,.94,.42,1.28,.54,2.66,1.18,3.88,.78,1.48,2.13,1.93,3.72,1.43,2.3-.73,3.6-2.51,4.9-4.34,2.74-3.85,5.74-7.46,9.97-9.76,2.47-1.33,8.33-1.27,10.29,1.77,1.34,2.08,1.29,4.16,.65,6.39-.9,3.13-2.36,6.08-2.93,9.32-.67,3.77-.32,7.29,2.73,9.99,.86,.77,2.04,1.22,3.14,1.66,2.93,1.19,5.95,1.28,9.03,.53,3.85-.93,7.25-2.64,10.36-5.16,3.49-2.82,6.13-6.32,8.8-9.83,.19-.25,.48-.57,.45-.83-.24-1.95,.9-3.42,1.7-5,.22-.44,.38-.8-.25-1.04-1.53-.57-2.69-1.71-3.9-2.73-2.09-1.77-4.07-3.72-5.56-6.04-1.5-2.34-2.4-4.97-2.72-7.72-.22-1.88-.69-3.72-.67-5.67,.04-3.19,1.16-6.06,2.07-9.01,.8-2.59,2.19-4.9,3.89-6.96,3.33-4.04,6.95-7.85,12.11-9.55,2.21-.73,4.46-1.39,6.78-1.78,2.44-.42,4.86-.79,7.33-.39,.47,.08,.61-.27,.68-.65,1.08-5.89,1.8-11.82,1.78-17.8-.02-3.83-.71-7.54-2.41-11.19-2.79-5.96-7.39-9.83-12.93-12.85-2.11-1.15-4.4-1.93-6.71-2.68-2.62-.85-4.95,.08-7.09,1.16-5.42,2.71-10.05,6.45-13.7,11.37-3.26,4.39-5.4,9.26-6.97,14.45-.43,1.4-.85,2.81-1.23,4.23-.15,.6-.03,1,.51,1.3,.49,.26,.94,.59,1.47,.8,4.31,1.75,6.49,5.19,7.73,9.51,1.27,4.42,1.12,8.84,.35,13.26-.63,3.63-1.03,7.37-2.7,10.72-1.78,3.57-4.01,6.83-7.05,9.56-2.64,2.37-5.62,4.01-8.93,5.07-2.76,.89-5.58,.64-8.39,.16-2.48-.44-4.83-1.3-7.11-2.31-4.15-1.83-7.28-4.79-9.23-8.95-.5-1.07-1.08-2.1-1.55-3.2-.97-2.24-1.47-4.54-1.29-6.63-.27-4.79,.66-9.09,1.97-13.26,.86-2.72,2.48-5.13,4.26-7.43,1.72-2.22,3.7-4.15,5.9-5.86,1.74-1.35,3.77-2.2,5.82-2.95,.75-.27,.91-.69,1.12-1.43,.72-2.6,1.05-5.3,2.12-7.83,1.33-3.17,2.88-6.22,4.59-9.19,1.76-3.05,4.12-5.65,6.63-8.12,1.62-1.59,3.32-3.08,5.2-4.36,1.95-1.32,3.97-2.47,6.21-3.25,2.26-.78,4.56-1.4,6.83-2.12,.81-.26,1.6-.46,2.44-.49,3.5-.13,7-.45,10.49-.23,4.69,.29,9.48-.04,13.95,1.99,3.3,1.51,6.61,2.94,9.56,5.12,2.92,2.16,5.71,4.42,7.92,7.34,1.63,2.16,3.19,4.34,4.2,6.88,1.51,3.78,2.92,7.61,3.44,11.63,.59,4.59,.58,9.18-.75,13.72-.82,2.83-1.42,5.75-2.55,8.43-.79,1.86-.21,2.67,.92,3.89,1.99,2.17,3.1,4.82,3.74,7.74Zm-2.45,12.46c.13-2.02,.02-3.99-.43-5.92-.7-3.05-2.12-5.71-4.54-7.79-1.48-1.28-2.72-2.66-5.02-2.76-4.2-.2-8.15,.32-11.79,2.48-4.74,2.82-7.29,7.16-8.49,12.4-.5,2.2-.35,4.45-.53,6.68-.08,1.02-.08,2.05,.1,3.09,.86,4.81,7.63,10.42,13.44,10.18,3.51,.3,6.43-1.06,9.07-3.24,2.14-1.75,4.1-3.69,5.48-6.1,1.58-2.78,2.49-5.77,2.71-9.02Zm-.67-12.17c.26,.43,.56,.83,.84,1.24-.08-3.17-1.33-5.8-3.37-8.09-.18-.19-.51-.54-.68-.36-.52,.54-.97,1.15-1.35,1.79-.31,.52,.23,.79,.53,1.06,1.46,1.35,2.98,2.63,4.03,4.36Zm-.82-22.57c1.02-4.14,.71-8.21,.12-12.31-.39-2.69-1.44-5.2-2.25-7.77-1.6-5.05-4.58-9.13-8.51-12.58-.86-.76-1.79-1.44-2.7-2.15-2.28-1.8-4.76-3.27-7.55-4.19,1.12,.95,2.42,1.75,3.32,2.86,2.25,2.77,4.8,5.28,6.41,8.59,1.06,2.19,2.14,4.38,2.81,6.7,1.14,3.99,1.5,8.12,1.66,12.27,.08,2.28-.24,4.52-.3,6.79-.1,3.73-.92,7.32-2.08,10.84-.68,2.08-1.27,4.19-2.12,6.21-.19,.46,0,.74,.47,.67,1.38-.22,2.7,.2,4.05,.28,.66,.03,1.03-.16,1.36-.68,1.06-1.66,1.76-3.48,2.39-5.33,1.14-3.35,2.07-6.76,2.92-10.2Zm-8.98-5.46c.09-3.3-.12-6.58-.54-9.86-.35-2.72-1.02-5.32-2.03-7.83-1.37-3.42-3.36-6.46-5.74-9.31-1.8-2.16-3.8-4.04-6.25-5.29-3.37-1.72-6.89-3.17-10.74-3.45-2.21-.16-4.36-.9-6.93-.6,2.46,.45,4.58,.75,6.66,1.23,3.83,.9,7.33,2.57,10.64,4.7,3.38,2.18,6.15,5,8.61,8.12,1.59,2.02,2.42,4.49,3.3,6.87,2.04,5.54,1.41,11.31,1.02,17.01-.17,2.55-.46,5.13-1,7.66-.59,2.72-.88,5.52-1.95,8.11-.44,1.07-.97,2.1-1.34,3.2-.18,.53,.1,.71,.47,.92,.4,.23,.69,.08,.9-.27,.14-.24,.24-.5,.38-.75,1.24-2.25,1.74-4.78,2.56-7.19,1.45-4.27,1.87-8.76,1.98-13.27Zm-6.64,15.6c.35-.86-.08-1.34-.92-1.37-.9-.03-1.8,.07-2.71,.12-2.02,.1-3.97,.61-5.93,1.11-2.35,.6-4.74,1.11-6.78,2.48-2.46,1.65-4.5,3.75-6.51,5.92-4.35,4.7-6.15,10.37-6.8,16.54-.09,1.61,.33,3.11,.61,4.63,.66,3.64,1.95,6.94,4.58,9.66,1.72,1.78,3.55,3.42,5.53,4.89,1.47,1.1,2.05,.95,2.88-.61,.24-.46,.45-.98,.81-1.32,.68-.63,.42-1.01-.16-1.5-1.8-1.5-3.43-3.11-4.71-5.16-2.9-4.63-2.56-9.52-1.68-14.52,.37-2.15,1.43-4.04,2.49-5.91,1.54-2.71,3.55-5.1,5.94-7.1,2.92-2.46,6.43-3.33,10.22-3.24,.51,0,1.16,.13,1.44-.55,.57-1.36,1.15-2.7,1.7-4.07Zm-2.6,6.87c-3.32-.1-6.45,.46-9.1,2.58-2.6,2.09-4.62,4.69-6.21,7.62-.93,1.72-1.75,3.54-1.98,5.45-.26,2.15-.32,4.34-.13,6.55,.26,3.12,1.78,5.54,3.81,7.73,1.49,1.6,3.31,2.82,5.23,3.92-.44-.4-.88-.79-1.31-1.2-2.22-2.08-3.51-4.71-3.63-7.69-.22-4.98,.12-9.92,2.34-14.56,1.6-3.36,3.91-6.04,6.9-8.19,1.26-.91,2.64-1.6,4.08-2.21Zm1.13,38.44c-1.62-.37-2.92-.84-4.24-1.16-.86-.21-2.04-.29-2.72,.6-.5,.65-.86,1.41-1.42,2.04-.19,.22-.4,.63-.32,.85,.14,.38,.6,.23,.95,.26,2.87,.24,5.12-1.26,7.75-2.59Zm-9.64-.61c.22-.36,.94-.93,.05-1.2-.7-.22-1.43-1.53-2.3-.2-1.06,1.63-2.18,3.22-3.18,4.89-.61,1.01-1.37,1.96-1.57,3-.05,.51,.06,.79,.29,1.04,.77,.81,1.59,.7,2.33-.45,1.49-2.34,2.94-4.71,4.38-7.08ZM65.74,5.2c-1.8-.23-3.22-.36-4.65,.16-2.42,.89-4.8,1.87-7.07,3.13-3.9,2.17-7.25,4.95-10.09,8.39-1.68,2.02-3.18,4.17-4.76,6.26-2.79,3.7-4.02,7.99-5.29,12.31-.19,.61-.06,.83,.68,.74,.94-.13,1.94-.24,2.82,.25,1.42,.78,2.97,.76,4.52,.85,.41,.02,.78-.07,.81-.49,.13-1.73,.8-3.3,1.37-4.9,.67-1.91,1.18-3.91,2.05-5.73,1.1-2.33,2.33-4.61,3.74-6.8,2.37-3.69,5.37-6.78,8.81-9.46,2.13-1.67,4.4-3.15,7.06-4.71Zm-7.75-1.1c-.99-.36-1.63,.33-2.44,.49-2.17,.44-4.17,1.31-6.06,2.45-2.5,1.49-4.77,3.24-6.87,5.31-2.69,2.64-5.03,5.48-6.9,8.74-2.55,4.47-4.77,9.07-5.59,14.22-.05,.31-.57,.79,.14,.94,.56,.12,1.11,.07,1.3-.67,.31-1.2,.66-2.38,.99-3.56,.63-2.22,1.27-4.46,2.41-6.46,1.5-2.62,3.26-5.09,5.06-7.52,2.61-3.53,5.61-6.72,9.18-9.24,2.02-1.44,4.18-2.77,6.55-3.66,.77-.29,1.49-.69,2.23-1.04Zm-5.1,56.14c.59-3.71,.46-7.43-.66-11-1.06-3.38-3.01-6.01-6.43-7.72-2.8-1.39-5.52-2.37-8.63-2.26-1.27-.1-2.54,.02-3.79,.32-1.89,.45-3.79,.88-5.46,1.97-2.29,1.51-4.15,3.42-5.83,5.6-2.54,3.28-4.14,7-5.48,10.84-1.21,3.47-1.57,7.11-1.51,10.8,.04,2.59,.3,5.18,1.41,7.47,1.98,4.14,4.67,7.54,9.46,8.99,6.09,1.84,11.44,.55,16.33-3.1,2.58-1.93,4.67-4.42,6.28-7.26,1.24-2.18,2.38-4.42,2.89-6.9,.54-2.57,1.01-5.16,1.42-7.75ZM13.96,76.64c-3.21-13.91,.87-25.64,10.58-35.8-10.9,4.47-18.55,24.19-10.58,35.8Zm-4.71,22.43c0-.08,.01-.17-.01-.24-.72-3.18-2.39-5.97-3.59-8.96-.19-.45-.57-.48-1-.22s-.6,.54-.39,1.08c.83,2.15,1.61,4.32,2.41,6.49,.3,.82,.47,1.69,1.04,2.4,.33,.4,.72,.52,1.17,.37,.43-.15,.35-.57,.37-.92Zm-5.41-11.67c.05-.54-.29-.97-.49-1.43-.09-.21-.24-.4-.42-.67-.3,.34-.21,.58-.14,.8,.16,.52,.36,1.05,.78,1.43,.04,.03,.27-.08,.27-.13Z"/><path class="cls-4" d="M109.7,73.61c.45,1.93,.56,3.9,.43,5.92-.22,3.25-1.13,6.24-2.71,9.02-1.38,2.41-3.34,4.35-5.48,6.1-2.64,2.18-5.56,3.54-9.07,3.24-5.81,.24-12.58-5.37-13.44-10.18-.18-1.04-.18-2.07-.1-3.09,.18-2.23,.03-4.48,.53-6.68,1.2-5.24,3.75-9.58,8.49-12.4,3.64-2.16,7.59-2.68,11.79-2.48,2.3,.1,3.54,1.48,5.02,2.76,2.42,2.08,3.84,4.74,4.54,7.79Zm-5.21,7.32c.08-2.03-.52-3.73-1.88-5.34-1.81-2.17-4.14-3.12-6.59-1.92-3.73,1.81-5.81,4.83-5.21,9.24,.46,3.47,2.4,5.34,6.82,5.54,2,0,4.22-1.77,5.89-4.38,.6-.93,.92-2,.97-3.14Z"/><path class="cls-1" d="M110.3,68.6c-.28-.41-.58-.81-.84-1.24-1.05-1.73-2.57-3.01-4.03-4.36-.3-.27-.84-.54-.53-1.06,.38-.64,.83-1.25,1.35-1.79,.17-.18,.5,.17,.68,.36,2.04,2.29,3.29,4.92,3.37,8.09Z"/><path class="cls-3" d="M108.76,32.48c.59,4.1,.9,8.17-.12,12.31-.85,3.44-1.78,6.85-2.92,10.2-.63,1.85-1.33,3.67-2.39,5.33-.33,.52-.7,.71-1.36,.68-1.35-.08-2.67-.5-4.05-.28-.47,.07-.66-.21-.47-.67,.85-2.02,1.44-4.13,2.12-6.21,1.16-3.52,1.98-7.11,2.08-10.84,.06-2.27,.38-4.51,.3-6.79-.16-4.15-.52-8.28-1.66-12.27-.67-2.32-1.75-4.51-2.81-6.7-1.61-3.31-4.16-5.82-6.41-8.59-.9-1.11-2.2-1.91-3.32-2.86,2.79,.92,5.27,2.39,7.55,4.19,.91,.71,1.84,1.39,2.7,2.15,3.93,3.45,6.91,7.53,8.51,12.58,.81,2.57,1.86,5.08,2.25,7.77Z"/><path d="M102.61,75.59c1.36,1.61,1.96,3.31,1.88,5.34-.05,1.14-.37,2.21-.97,3.14-1.67,2.61-3.89,4.38-5.89,4.38-4.42-.2-6.36-2.07-6.82-5.54-.6-4.41,1.48-7.43,5.21-9.24,2.45-1.2,4.78-.25,6.59,1.92Zm-2.88,9.46c2.26-1.63,3.1-4.45,2.08-6.61-.74-1.57-1.66-1.75-2.9-.48-1.46,1.5-2.42,3.24-2.3,5.17-.05,1.21-.26,2.32,.72,2.84,.96,.51,1.71-.43,2.4-.92Zm-1.71-9.35c-1.84-.05-4.1,1.92-4.73,3.78-.64,1.88-.28,4.99,1.03,5.59-.25-3.62,.76-6.76,3.7-9.37Z"/><path class="cls-2" d="M101.81,78.44c1.02,2.16,.18,4.98-2.08,6.61-.69,.49-1.44,1.43-2.4,.92-.98-.52-.77-1.63-.72-2.84-.12-1.93,.84-3.67,2.3-5.17,1.24-1.27,2.16-1.09,2.9,.48Z"/><path class="cls-4" d="M99.12,29.47c.42,3.28,.63,6.56,.54,9.86-.11,4.51-.53,9-1.98,13.27-.82,2.41-1.32,4.94-2.56,7.19-.14,.25-.24,.51-.38,.75-.21,.35-.5,.5-.9,.27-.37-.21-.65-.39-.47-.92,.37-1.1,.9-2.13,1.34-3.2,1.07-2.59,1.36-5.39,1.95-8.11,.54-2.53,.83-5.11,1-7.66,.39-5.7,1.02-11.47-1.02-17.01-.88-2.38-1.71-4.85-3.3-6.87-2.46-3.12-5.23-5.94-8.61-8.12-3.31-2.13-6.81-3.8-10.64-4.7-2.08-.48-4.2-.78-6.66-1.23,2.57-.3,4.72,.44,6.93,.6,3.85,.28,7.37,1.73,10.74,3.45,2.45,1.25,4.45,3.13,6.25,5.29,2.38,2.85,4.37,5.89,5.74,9.31,1.01,2.51,1.68,5.11,2.03,7.83Z"/><path class="cls-1" d="M93.29,79.48c.63-1.86,2.89-3.83,4.73-3.78-2.94,2.61-3.95,5.75-3.7,9.37-1.31-.6-1.67-3.71-1.03-5.59Z"/><path class="cls-1" d="M92.1,53.56c.84,.03,1.27,.51,.92,1.37-.55,1.37-1.13,2.71-1.7,4.07-.28,.68-.93,.56-1.44,.55-3.79-.09-7.3,.78-10.22,3.24-2.39,2-4.4,4.39-5.94,7.1-1.06,1.87-2.12,3.76-2.49,5.91-.88,5-1.22,9.89,1.68,14.52,1.28,2.05,2.91,3.66,4.71,5.16,.58,.49,.84,.87,.16,1.5-.36,.34-.57,.86-.81,1.32-.83,1.56-1.41,1.71-2.88,.61-1.98-1.47-3.81-3.11-5.53-4.89-2.63-2.72-3.92-6.02-4.58-9.66-.28-1.52-.7-3.02-.61-4.63,.65-6.17,2.45-11.84,6.8-16.54,2.01-2.17,4.05-4.27,6.51-5.92,2.04-1.37,4.43-1.88,6.78-2.48,1.96-.5,3.91-1.01,5.93-1.11,.91-.05,1.81-.15,2.71-.12Z"/><path class="cls-3" d="M81.32,64.38c2.65-2.12,5.78-2.68,9.1-2.58-1.44,.61-2.82,1.3-4.08,2.21-2.99,2.15-5.3,4.83-6.9,8.19-2.22,4.64-2.56,9.58-2.34,14.56,.12,2.98,1.41,5.61,3.63,7.69,.43,.41,.87,.8,1.31,1.2-1.92-1.1-3.74-2.32-5.23-3.92-2.03-2.19-3.55-4.61-3.81-7.73-.19-2.21-.13-4.4,.13-6.55,.23-1.91,1.05-3.73,1.98-5.45,1.59-2.93,3.61-5.53,6.21-7.62Z"/><path class="cls-1" d="M87.31,99.08c1.32,.32,2.62,.79,4.24,1.16-2.63,1.33-4.88,2.83-7.75,2.59-.35-.03-.81,.12-.95-.26-.08-.22,.13-.63,.32-.85,.56-.63,.92-1.39,1.42-2.04,.68-.89,1.86-.81,2.72-.6Z"/><path class="cls-3" d="M81.96,98.43c.89,.27,.17,.84-.05,1.2-1.44,2.37-2.89,4.74-4.38,7.08-.74,1.15-1.56,1.26-2.33,.45-.23-.25-.34-.53-.29-1.04,.2-1.04,.96-1.99,1.57-3,1-1.67,2.12-3.26,3.18-4.89,.87-1.33,1.6-.02,2.3,.2Z"/><path class="cls-3" d="M61.09,5.36c1.43-.52,2.85-.39,4.65-.16-2.66,1.56-4.93,3.04-7.06,4.71-3.44,2.68-6.44,5.77-8.81,9.46-1.41,2.19-2.64,4.47-3.74,6.8-.87,1.82-1.38,3.82-2.05,5.73-.57,1.6-1.24,3.17-1.37,4.9-.03,.42-.4,.51-.81,.49-1.55-.09-3.1-.07-4.52-.85-.88-.49-1.88-.38-2.82-.25-.74,.09-.87-.13-.68-.74,1.27-4.32,2.5-8.61,5.29-12.31,1.58-2.09,3.08-4.24,4.76-6.26,2.84-3.44,6.19-6.22,10.09-8.39,2.27-1.26,4.65-2.24,7.07-3.13Z"/><path class="cls-4" d="M55.55,4.59c.81-.16,1.45-.85,2.44-.49-.74,.35-1.46,.75-2.23,1.04-2.37,.89-4.53,2.22-6.55,3.66-3.57,2.52-6.57,5.71-9.18,9.24-1.8,2.43-3.56,4.9-5.06,7.52-1.14,2-1.78,4.24-2.41,6.46-.33,1.18-.68,2.36-.99,3.56-.19,.74-.74,.79-1.3,.67-.71-.15-.19-.63-.14-.94,.82-5.15,3.04-9.75,5.59-14.22,1.87-3.26,4.21-6.1,6.9-8.74,2.1-2.07,4.37-3.82,6.87-5.31,1.89-1.14,3.89-2.01,6.06-2.45Z"/><path class="cls-3" d="M52.23,49.24c1.12,3.57,1.25,7.29,.66,11-.41,2.59-.88,5.18-1.42,7.75-.51,2.48-1.65,4.72-2.89,6.9-1.61,2.84-3.7,5.33-6.28,7.26-4.89,3.65-10.24,4.94-16.33,3.1-4.79-1.45-7.48-4.85-9.46-8.99-1.11-2.29-1.37-4.88-1.41-7.47-.06-3.69,.3-7.33,1.51-10.8,1.34-3.84,2.94-7.56,5.48-10.84,1.68-2.18,3.54-4.09,5.83-5.6,1.67-1.09,3.57-1.52,5.46-1.97,1.25-.3,2.52-.42,3.79-.32,3.11-.11,5.83,.87,8.63,2.26,3.42,1.71,5.37,4.34,6.43,7.72Zm-7.28,11.86c.48-2.98,.61-5.92-1.02-8.67-2.44-4.1-7.24-6.18-11.59-2.89-2.43,1.84-4.23,4.24-5.81,6.75-1.96,3.13-2.8,6.64-2.63,11.98,.26,2.29,.52,6.18,4.6,8.42,2.57,1.41,5.12,1.56,7.43-.09,3.04-2.18,5.34-5.14,6.87-8.56,.99-2.21,1.76-4.53,2.15-6.94Z"/><path d="M43.93,52.43c1.63,2.75,1.5,5.69,1.02,8.67-.39,2.41-1.16,4.73-2.15,6.94-1.53,3.42-3.83,6.38-6.87,8.56-2.31,1.65-4.86,1.5-7.43,.09-4.08-2.24-4.34-6.13-4.6-8.42-.17-5.34,.67-8.85,2.63-11.98,1.58-2.51,3.38-4.91,5.81-6.75,4.35-3.29,9.15-1.21,11.59,2.89Zm-1.58,10.02c.48-1.54,.57-3.2,.79-4.54-.22-2.88-.99-5.23-3.33-6.67-1.23-.76-2.57-1.64-4.12-.96-2.16,.95-3.8,2.55-5.25,4.37-3.86,4.84-5.23,10.23-3.84,16.33,.72,3.13,5.21,6.05,8.33,3.61,1.93-1.5,3.42-3.39,4.78-5.4,1.38-2.05,1.93-4.44,2.64-6.74Z"/><path class="cls-2" d="M43.14,57.91c-.22,1.34-.31,3-.79,4.54-.71,2.3-1.26,4.69-2.64,6.74-1.36,2.01-2.85,3.9-4.78,5.4-3.12,2.44-7.61-.48-8.33-3.61-1.39-6.1-.02-11.49,3.84-16.33,1.45-1.82,3.09-3.42,5.25-4.37,1.55-.68,2.89,.2,4.12,.96,2.34,1.44,3.11,3.79,3.33,6.67Z"/><path class="cls-1" d="M24.54,40.84c-9.71,10.16-13.79,21.89-10.58,35.8-7.97-11.61-.32-31.33,10.58-35.8Z"/><path class="cls-4" d="M9.24,98.83c.02,.07,.01,.16,.01,.24-.02,.35,.06,.77-.37,.92-.45,.15-.84,.03-1.17-.37-.57-.71-.74-1.58-1.04-2.4-.8-2.17-1.58-4.34-2.41-6.49-.21-.54-.04-.82,.39-1.08s.81-.23,1,.22c1.2,2.99,2.87,5.78,3.59,8.96Z"/><path class="cls-3" d="M3.35,85.97c.2,.46,.54,.89,.49,1.43,0,.05-.23,.16-.27,.13-.42-.38-.62-.91-.78-1.43-.07-.22-.16-.46,.14-.8,.18,.27,.33,.46,.42,.67Z"/></g></g></svg>