<?xml version="1.0" encoding="UTF-8"?><svg id="Layer_2" xmlns="http://www.w3.org/2000/svg" viewBox="0 0 126.64 118.97"><defs><style>.cls-1{fill:#f3a2c5;}.cls-2{fill:#ee5d67;}.cls-3{fill:#cce8f7;}.cls-4{fill:#105375;}</style></defs><g id="Layer_4"><g><path d="M8.93,53.89c.32-1.88,.36-3.82,1.05-5.63,.91-2.37,2.14-4.5,3.74-6.49,2.37-2.94,5.29-5.2,8.41-7.2,2.48-1.57,4.99-3.14,7.67-4.38,.53-.25,.86-.54,.97-1.22,.23-1.51,1.61-1.99,2.72-2.66,2.43-1.48,5.19-1.99,7.93-2.52,.55-.11,.91-.27,.84-.91-.14-1.36,.39-2.33,1.65-2.88,1.26-.56,2.23,.19,3.21,.78,.37,.22,.73,.53,.96,.89,.6,.91,1.34,.89,2.17,.45,2.83-1.49,4.56-3.88,5.73-6.78,1.02-2.51,1.77-5.14,3-7.57,1.39-2.76,3.29-4.97,6.41-5.88,2.84-.84,6.2,.97,6.61,3.84,.13,.86,.11,1.68-.37,2.42-.48,.77-.46,1.37,.37,1.91,1.08,.74,1.68,1.92,2.32,3.01,.45,.77,.22,1.65-.24,2.39-.52,.86-1.42,1-2.32,.93-.9-.06-1.71-.38-2.36-1.05-.16-.16-.38-.36-.63-.24-.35,.18-.14,.49-.07,.74,.32,1.2,2.34,2.46,3.6,2.27,1.39-.2,2.62-.75,3.54-1.83,1.64-1.95,3.33-3.89,4.37-6.27,1.63-3.71,3.85-6.93,7.55-8.82,2.37-1.21,4.94-1.59,7.55-.78,1.69,.53,2.79,1.74,3.58,3.31,1.03,2.06,1.65,4.16,1.19,6.47-.12,.57,.22,.76,.69,.9,.84,.26,1.7,.5,2.51,.84,.86,.37,1.67,.92,1.68,1.97,.03,1.1-.88,1.54-1.74,1.89-1.17,.47-2.39,.65-3.65,.49-1.07-.14-1.37,.36-1.42,1.35-.2,3.27,2.66,4.87,5.64,4.63,1.74-.14,3.45-.63,5.18-.9,3.16-.51,5.08,.42,6.76,3.1,1.09,1.73,.65,3.45,.15,5.2-.03,.11-.11,.21-.17,.32-.76,1.75-.75,1.73,1.02,2.21,1.13,.3,2.18,.75,2.92,1.74,.54,.72,.58,1.42,.07,2.1-.74,.99-1.73,1.68-3.02,1.71-1.31,.04-2.64,.21-3.94-.05-.81-.16-1.22,.21-1.39,.93-.74,3.14,.32,5.06,3.88,6.09,2.87,.83,5.69,1.76,8.23,3.36,3.65,2.29,4.15,5.85,1.56,9.32-1.77,2.35-4.21,3.87-6.72,5.3-1.39,.78-2.89,1.37-4.09,2.46-1.95,1.78-2.93,4.15-3.97,6.48-.26,.6,.11,.9,.68,.97,1.53,.2,2.87,.92,4.26,1.5,.25,.11,.49,.27,.7,.45,.64,.58,1.24,1.21,1,2.16-.23,.91-.97,1.31-1.8,1.57-1.86,.6-3.74,.32-5.58,.03-1.08-.17-1.47-.02-1.65,1.12-.52,3.3-1.73,6.38-3.28,9.32-.16,.28-.33,.58-.57,.76-1.63,1.16-2.07,2.91-2.59,4.7-.89,3.04-2.52,5.74-4.19,8.43-2.47,3.97-5.78,7.1-9.58,9.72-3.42,2.35-7.34,3.32-11.44,3.83-3.78,.48-7.39-.1-10.5-1.1-2.67-.79-4.95-1.17-7.13-1.97-2.82-1.03-5.46-2.44-8.23-3.59-3.33-1.38-6.19-3.6-9.32-5.38-.45-.25-.8-.43-1.29-.02-2.17,1.82-4.37,3.6-6.55,5.39-1.92,1.57-3.83,3.14-5.74,4.72-.25,.2-.61,.38-.68,.65-.64,2.3-2.8,2.77-4.5,3.8-.56,.34-1.08,.31-1.7,.07-3.23-1.24-5.51-3.77-8.09-5.87-3.06-2.47-5.6-5.48-7.91-8.61-1.63-2.21-3.43-4.4-4.31-7.12-.53-1.61-.24-2.86,1.03-3.96,1.21-1.07,2.79-1.55,4.05-2.49,2.53-1.87,5.01-3.8,7.49-5.74,1.63-1.28,3.18-2.67,4.84-3.91,.92-.69,.79-1.25,.24-2.09-1.28-1.98-2.93-3.7-3.97-5.83-1.65-3.35-3.69-6.51-4.74-10.16-.88-3.05-.76-6.11-.27-9.13Zm2.96-4.32c-.45,1.46-.48,2.99-.73,4.48-.51,3.1-.59,6.2,.4,9.24,.44,1.37,1.27,2.57,1.81,3.88,1.65,3.95,4.17,7.34,6.49,10.85,1.34,2.02,2.91,3.91,4.05,6.07,.61,1.16,.32,2.89-.65,3.6-.41,.3-.87,.46-1.29,.34-.16-.05-.31-.13-.46-.27-.48-.46-.35-1.01,.05-1.52,.31-.38,.53-.81,.24-1.31-.34-.58-.69-1.16-1.02-1.75-.48-.84-.98-.97-1.8-.3-4.18,3.38-8.35,6.79-12.69,9.96-.46,.33-.65,.67-.2,1.17,.65,.7,1.12,1.53,1.77,2.26,.57,.63,.99,.66,1.59,.16,2.11-1.76,4.54-3.09,6.52-5.03,.93-.91,2.03-1.66,3.07-2.47,.63-.5,1.19-.45,1.64,.09,.06,.07,.11,.15,.17,.24,.5,.76,.15,1.28-.54,1.64-.6,.32-1.14,.68-1.67,1.12-1.73,1.43-3.3,3.03-5.22,4.21-.98,.61-1.87,1.35-2.8,2.05-.58,.43-.31,.91,0,1.36,.39,.54,.76,.21,1.11-.07,1-.81,1.98-1.61,2.96-2.43,.62-.51,1.27-1.22,2.04-.34,.7,.79,.03,1.4-.54,1.9-.93,.81-1.9,1.58-2.83,2.38-.46,.4-1.09,.77-.31,1.5,2.25,2.09,4.27,4.42,6.7,6.31,.42,.33,.73,.37,1.15,.04,1.17-.96,2.34-1.91,3.53-2.84,2.1-1.64,4.21-3.29,6.33-4.91,.47-.36,1.06-.48,1.52,.03,.48,.54,.37,1.1-.09,1.61-.16,.18-.33,.35-.52,.49-2.43,1.88-4.83,3.79-7.31,5.61-2.44,1.79-2.44,1.71-.12,3.64,.71,.6,1.13,.48,1.71-.01,1.3-1.07,2.61-2.09,3.92-3.15,2.59-2.12,5.18-4.24,7.77-6.35,.64-.52,.52-.87-.17-1.22-.63-.32-1.31-.3-1.98-.33-.68-.01-1.24-.23-1.23-1,0-.69,.46-1.06,1.14-1.16,.98-.15,1.88,.02,2.81,.38,1.57,.63,2.83,1.78,4.19,2.71,4.8,3.29,10.07,5.66,15.34,8.04,2.8,1.27,5.85,1.7,8.78,2.49,.38,.1,.74,.21,1.11,.32,2.62,.8,5.26,1.12,8.02,.72,2.33-.34,4.69-.62,6.89-1.48,3.51-1.38,6.46-3.63,9.05-6.33,3.15-3.29,5.54-7.1,7.24-11.33,.7-1.72,.76-1.69-.98-1.89-.28-.03-.57-.04-.82-.14-.78-.3-1.22,.03-1.48,.73-1.31,3.61-3.38,6.78-5.61,9.85-1.14,1.57-2.59,3.04-4.33,3.86-3.73,1.75-7.44,3.61-11.73,3.83-1.92,.1-3.76,.31-5.68-.12-.35-.07-.7-.17-1.04-.27-1.38-.4-2.73-.92-4.11-1.29-3.51-.94-6.63-2.73-9.81-4.38-2.68-1.4-5.26-3-7.99-4.31-2.41-1.14-4.39-2.73-5.92-4.87-.6-.85-.94-1.9-.18-2.78,1.53-1.77,2.95-3.64,4.63-5.28,2.66-2.58,5.36-5.13,7.95-7.78,4.43-4.54,9.13-8.79,14-12.85,3.26-2.75,6.62-5.4,10.54-7.19,.53-.24,.58-.53,.39-1.03-.49-1.31-.96-2.63-1.38-3.97-.16-.54-.34-.68-.92-.49-3.48,1.17-6.93,2.38-10.17,4.13-1.56,.84-1.83,.75-2.47-.9-1.63-4.12-3.28-8.23-4.79-12.39-.51-1.44-1.47-1.92-2.94-2.1,.61,1.93,1.17,3.79,1.76,5.63,1.13,3.48,2.21,6.98,3.43,10.42,.78,2.19,.41,3.99-1.38,5.44-1.21,.98-2.47,1.9-3.74,2.79-2.18,1.54-4.38,3.05-6.57,4.57-2.75,1.92-5.45,3.91-8.27,5.72-3.01,1.93-6,3.89-8.89,6.03-.95,.71-1.47,.84-2.23-.09-1.39-1.69-2.83-3.37-4.06-5.17-2.13-3.11-4.06-6.38-5.8-9.76-2.58-5-4.23-10.07-3.7-15.81,.29-3.08,1.23-5.64,3.36-7.82,3.47-3.56,7.34-6.63,11.79-8.89,1.65-.84,3.38-1.51,5.17-2.3-.72-.45-1.47-.74-1.95-1.27-.99-1.08-1.94-.7-2.96-.15-.76,.42-1.56,.77-2.3,1.23-3.52,2.17-7.11,4.25-10.14,7.14-2.54,2.44-4.56,5.21-5.61,8.62ZM3.04,94.63c-.66,.43-1.1,.89-.71,1.87,.99,2.49,2.59,4.6,4.15,6.68,3.34,4.45,7.33,8.3,11.74,11.7,.82,.63,1.73,1.13,2.46,1.61,.73,.2,.97,.07,2.58-.81,.7-.39,.64-.58,.06-1.06-3.79-3.17-7.8-6.06-11.09-9.8-2.73-3.1-5.37-6.3-7.96-9.52-.33-.4-.45-1.18-1.23-.67ZM20.14,45.99c-1.63,1.48-2.91,3.33-3.23,5.47-.54,3.56-.34,7.18,.78,10.65,.48,1.51,1.29,2.92,1.91,4.37,1.35,3.24,3.35,6.06,5.06,9.07,1.1,1.93,2.84,3.34,3.91,5.28,.5,.9,1.08,.79,1.84,.23,5.4-3.96,11.14-7.43,16.56-11.37,2.92-2.13,6.06-3.95,8.82-6.31,1.47-1.26,1.76-1.69,1.19-3.55-1.42-4.53-2.88-9.05-4.37-13.55-1.08-3.24-2.19-6.48-3.44-9.66-.41-1.06-.31-2.61-1.97-2.89-2.5-.5-4.96-.39-7.35,.64-2.38,1.04-4.73,2.14-7.16,3.04-2.85,1.05-5.29,2.73-7.7,4.49-1.71,1.26-3.26,2.67-4.83,4.1Zm13.72-17.35c-1.03,.62-.97,1.28-.04,2.08,1.03,.89,2.21,1.26,3.55,1.11,1.58-.18,3.17-.22,4.75-.55,1.38-.28,2.78-.13,4.16,.01,3.84,.4,5.54,3,6.55,6.38,.79,2.65,2.22,3.8,4.57,4.1,1.31,.16,2.62,.16,3.94,.04,2.59-.22,5.13-.38,7.61,.85,3.75,1.86,6.55,4.47,7.71,8.61,.28,1,.54,2,.75,3.02,.37,1.8,.89,3.56,2.07,5.05,.37,.45,.63,1.25,1.21,1.18,.51-.06,.53-.91,.75-1.4,1-2.35,1.88-4.75,3.84-6.54,.64-.57,1.24-.86,2.04-.54,.84,.34,1.41,.9,1.48,1.86,.06,.76,0,1.51-.11,2.26-.31,2.29-1.31,4.36-1.99,6.52-.22,.71-.15,1.11,.54,1.43,3.11,1.43,5.29,3.74,6.44,7,.96,2.74,1.62,5.47,1.49,8.42-.15,3.32-1.01,6.73,1.14,9.88,.8,1.17,1.65,1.8,2.9,1.12,1.98-1.07,3.55-2.52,4.37-4.71,.73-1.98,1.51-3.94,1.99-6.01,.5-2.17,.55-2.15-1.84-2.81-.96-.08-1.91-.8-2.97-1.24-.91-.38-1.54-1.76-1.35-2.74,.22-1.05,.92-1.59,1.95-1.84,1.55-.37,3.01,.04,4.48,.39,1.76,.43,1.84,.38,2.56-1.29,1.46-3.36,3.15-6.54,6.56-8.38,1.16-.61,2.32-1.25,3.43-1.94,1.97-1.21,3.95-2.43,5.22-4.47,1.11-1.81,.99-3.87-.51-4.99-1.08-.81-2.26-1.5-3.57-1.93-2.05-.66-4.1-1.3-6.1-2.07-4.16-1.62-5.54-5.42-3.82-9.36,1.21-2.78,2.85-5.34,4.08-8.11,1.32-2.93-.99-5.87-3.57-5.54-1.78,.23-3.52,.71-5.3,.91-4.04,.45-6.79-.08-8.46-4.02-.47-1.12-.55-2.26-.41-3.4,.12-.86-.17-1.05-.92-1.1-1.23-.07-2.46-.32-3.69-.32-1.38,0-2.34-.73-3.23-1.59-1.08-1.06-.92-2.07,.35-2.94,.56-.39,1.16-.65,1.84-.81,2.15-.52,4.28-.37,6.39,.1,.93,.2,1.23-.14,1.28-1.01,.12-1.7-.38-3.2-1.19-4.66-.91-1.62-2.71-2.67-4.56-2.41-3.73,.55-6.63,2.41-8.42,5.77-2,3.77-3.88,7.61-7.16,10.5-1.79,1.59-3.96,2.45-6.29,1.62-2.44-.87-4.16-2.59-4.07-5.44,.03-1.12-.47-1.79-1.3-2.37-1.23-.88-1.9-2.14-2.27-3.56-.44-1.66,.49-2.83,2.22-2.89,1.28-.04,2.28,.55,3.2,1.37,.31,.27,.7,.74,1.13,.53,.49-.25,.55-.86,.53-1.39-.02-.57-.21-1.04-.68-1.45-1.41-1.24-3.74-1.14-5.3,.19-1.75,1.5-2.82,3.39-3.64,5.52-1.16,3.04-2.05,6.22-3.96,8.94-1.73,2.48-3.78,4.67-6.91,5.16-3.68,.58-7.3,1.39-10.95,2.03-1.63,.29-3.11,1.05-4.51,1.89Zm31.22-20.34c-.16,.21,0,.46,.1,.67,.26,.48,.55,.95,.95,1.36,1.42,1.45,3.2,2.36,4.86,3.46,.3,.2,.72,.61,1.03,.21,.28-.34-.12-.75-.34-1.05-.75-1.07-1.91-1.68-2.85-2.52-.9-.82-1.98-1.45-2.8-2.04-.48-.15-.75-.4-.96-.09Zm-23.41,85.27c-.26,.35-.98,.69-.38,1.29,1.03,1.09,1.93,2.33,3.35,3.03,2.11,1.03,4.26,2.03,6.25,3.26,5.29,3.27,10.84,5.88,16.89,7.46,3.54,1.03,7.03,.3,10.47-.59,2.11-.55,3.95-1.83,5.93-2.74,1.96-.89,3.34-2.26,4.51-3.95,1.78-2.55,3.44-5.16,4.59-8.08,.52-1.33,1.31-2.51,.06-3.81-.1-.1-.12-.3-.14-.45-.26-1.98-.41-3.97-.49-5.96-.09-2.61,.55-5.21-.06-7.86-.93-4.01-2.63-7.33-6.49-9.21-.52-.25-.8-.19-1.07,.28-.54,.93-1.37,1.55-2.25,2.11-1.18,.75-2.24,.25-3.21-.4-.83-.55-.59-1.38-.35-2.17,.19-.61,.26-1.26,.44-1.86,.31-1.04-.61-1.39-1.07-1.98-.45-.58-.93-.1-1.37,.12-1.89,.93-3.73,1.92-5.43,3.2-5.27,3.94-10.16,8.31-14.95,12.81-2.81,2.64-5.59,5.32-8.29,8.08-2.37,2.43-4.91,4.7-6.93,7.44Zm17.79-49.46c-.61-.01-.42,.44-.29,.77,1.37,3.61,2.77,7.2,4.13,10.82,.2,.52,.45,.54,.9,.33,3.05-1.38,6.18-2.57,9.34-3.65,.88-.3,.9-.75,.62-1.54-1.31-3.77-4.45-5.43-7.98-6.86-2.13-.55-4.42,.18-6.73,.12Zm31.86-31.82c-.32,.06-.83,0-.83,.46,0,.39,.47,.32,.78,.38,2.5,.54,5.07,.48,7.58,.93,.84,.16,1.72,.18,2.57-.15-.11-.4-.42-.42-.68-.47-1.78-.39-3.57-.79-5.37-1.16-1.35-.27-2.69-.28-4.04,.01Zm-9.41,52.26c-.15,.56-.78,1.46-.18,1.69,.59,.23,1.1-.72,1.51-1.29,.12-.16,.16-.37,.25-.54,.94-1.64,1.5-3.44,2.11-5.19,.5-1.4,1.09-2.82,.89-4.38-.5,0-.59,.37-.76,.62-1.79,2.82-2.95,5.91-3.83,9.1Zm32.19-30.31c-.53-.01-.82,.37-.84,.85-.02,.58,.48,.55,.87,.55,.75,0,1.52-.05,2.27-.09,.36-.02,.83-.03,.9-.43,.07-.5-.49-.52-.88-.74-.74-.04-1.54-.12-2.33-.14Zm-11.23,39c-.37-.07-.92-.13-1.03,.34-.11,.43,.41,.49,.73,.63,2.14,1.01,4.5,1.3,6.76,1.86,1.11,.27,2.29,.27,3.43,.38,.39,.03,.79,.07,1.09-.37-.12-.11-.22-.24-.35-.3-1.42-.68-2.91-1.08-4.42-1.4-2.06-.43-4.14-.79-6.21-1.14Z"/><path class="cls-3" d="M11.16,54.05c.25-1.49,.28-3.02,.73-4.48,1.05-3.41,3.07-6.18,5.61-8.62,3.03-2.89,6.62-4.97,10.14-7.14,.74-.46,1.54-.8,2.3-1.23,1.02-.55,1.97-.93,2.96,.15,.48,.53,1.23,.81,1.95,1.27-1.79,.78-3.52,1.46-5.17,2.3-4.46,2.27-8.32,5.34-11.79,8.89-2.13,2.18-3.07,4.74-3.36,7.82-.53,5.74,1.12,10.81,3.7,15.81,1.74,3.38,3.67,6.65,5.8,9.76,1.23,1.79,2.67,3.47,4.06,5.17,.76,.92,1.28,.8,2.23,.09,2.89-2.14,5.88-4.1,8.89-6.03,2.82-1.8,5.52-3.8,8.27-5.72,2.19-1.52,4.39-3.03,6.57-4.57,1.27-.9,2.53-1.82,3.74-2.79,1.8-1.45,2.16-3.25,1.38-5.44-1.22-3.45-2.3-6.94-3.43-10.42-.59-1.84-1.16-3.7-1.76-5.63,1.48,.19,2.43,.67,2.94,2.1,1.51,4.16,3.16,8.27,4.79,12.39,.64,1.65,.9,1.74,2.47,.9,3.24-1.75,6.7-2.96,10.17-4.13,.58-.19,.75-.05,.92,.49,.42,1.33,.89,2.65,1.38,3.97,.19,.51,.14,.79-.39,1.03-3.92,1.79-7.27,4.45-10.54,7.19-4.87,4.06-9.57,8.31-14,12.85-2.59,2.65-5.29,5.2-7.95,7.78-1.69,1.64-3.11,3.51-4.63,5.28-.76,.89-.43,1.94,.18,2.78,1.52,2.14,3.5,3.73,5.92,4.87,2.73,1.31,5.31,2.91,7.99,4.31,3.18,1.65,6.3,3.44,9.81,4.38,1.38,.37,2.73,.89,4.11,1.29l-.62,2.25c-2.94-.79-5.98-1.22-8.78-2.49-5.27-2.38-10.53-4.75-15.34-8.04-1.36-.94-2.62-2.08-4.19-2.71-.92-.37-1.82-.53-2.81-.38-.68,.1-1.13,.48-1.14,1.16,0,.77,.54,.98,1.23,1,.67,.02,1.34,0,1.98,.33,.69,.35,.81,.7,.17,1.22-2.59,2.11-5.18,4.23-7.77,6.35-1.3,1.05-2.62,2.08-3.92,3.15-.58,.49-1,.61-1.71,.01-2.32-1.93-2.32-1.85,.12-3.64,2.48-1.82,4.87-3.74,7.31-5.61,.19-.14,.36-.31,.52-.49,.46-.51,.57-1.07,.09-1.61-.46-.51-1.05-.39-1.52-.03-2.12,1.62-4.22,3.27-6.33,4.91-1.19,.93-2.36,1.89-3.53,2.84-.41,.34-.72,.3-1.15-.04-2.43-1.89-4.45-4.22-6.7-6.31-.78-.73-.15-1.1,.31-1.5,.94-.81,1.91-1.57,2.83-2.38,.58-.51,1.25-1.11,.54-1.9-.77-.88-1.42-.17-2.04,.34-.98,.81-1.96,1.62-2.96,2.43-.34,.27-.71,.61-1.11,.07-.32-.45-.58-.92,0-1.36,.93-.7,1.82-1.44,2.8-2.05,1.93-1.18,3.49-2.78,5.22-4.21,.53-.44,1.07-.8,1.67-1.12,.69-.37,1.04-.88,.54-1.64-.06-.09-.11-.17-.17-.24l1.29-.98c.42,.13,.88-.04,1.29-.34,.97-.71,1.26-2.44,.65-3.6-1.14-2.16-2.71-4.05-4.05-6.07-2.33-3.52-4.85-6.9-6.49-10.85-.54-1.31-1.38-2.5-1.81-3.88-.99-3.05-.91-6.14-.4-9.24Z"/><path class="cls-4" d="M2.33,96.5c-.39-.97,.05-1.43,.71-1.87,.78-.51,.9,.27,1.23,.67,2.59,3.22,5.23,6.41,7.96,9.52,3.29,3.74,7.31,6.63,11.09,9.8,.58,.47,.64,.67-.06,1.06-1.61,.88-1.84,1.01-2.58,.81-.73-.48-1.65-.98-2.46-1.61-4.4-3.4-8.4-7.25-11.74-11.7-1.56-2.08-3.16-4.19-4.15-6.68Z"/><path class="cls-3" d="M6.09,94.01c-.45-.5-.26-.84,.2-1.17,4.34-3.18,8.51-6.58,12.69-9.96,.82-.66,1.32-.54,1.8,.3,.34,.59,.68,1.17,1.02,1.75,.29,.5,.07,.94-.24,1.31-.4,.51-.53,1.06-.05,1.52,.15,.14,.3,.22,.46,.27l-1.29,.98c-.45-.54-1.01-.59-1.64-.09-1.04,.81-2.14,1.56-3.07,2.47-1.97,1.94-4.41,3.26-6.52,5.03-.6,.5-1.03,.47-1.59-.16-.65-.72-1.12-1.55-1.77-2.26Z"/><path class="cls-1" d="M33.81,30.72c-.93-.81-.99-1.46,.04-2.08,1.41-.84,2.88-1.6,4.51-1.89,3.65-.64,7.27-1.45,10.95-2.03,3.13-.49,5.18-2.68,6.91-5.16,1.9-2.72,2.79-5.9,3.96-8.94,.82-2.13,1.89-4.02,3.64-5.52,1.56-1.33,3.9-1.43,5.3-.19,.47,.41,.67,.89,.68,1.45,.02,.53-.03,1.14-.53,1.39-.43,.21-.82-.26-1.13-.53-.93-.82-1.92-1.4-3.2-1.37-1.73,.06-2.66,1.23-2.22,2.89,.37,1.42,1.04,2.69,2.27,3.56,.83,.58,1.33,1.25,1.3,2.37-.08,2.85,1.63,4.57,4.07,5.44,2.33,.83,4.49-.03,6.29-1.62,3.28-2.89,5.16-6.73,7.16-10.5,1.79-3.36,4.68-5.21,8.42-5.77,1.85-.26,3.66,.78,4.56,2.41,.82,1.46,1.31,2.96,1.19,4.66-.05,.87-.35,1.21-1.28,1.01-2.11-.47-4.25-.62-6.39-.1-.67,.17-1.27,.43-1.84,.81-1.27,.87-1.43,1.88-.35,2.94,.89,.86,1.85,1.59,3.23,1.59,1.23,0,2.46,.25,3.69,.32,.75,.04,1.04,.23,.92,1.1-.14,1.14-.06,2.28,.41,3.4,1.67,3.94,4.41,4.47,8.46,4.02,1.78-.2,3.52-.68,5.3-.91,2.58-.33,4.89,2.62,3.57,5.54-1.24,2.77-2.87,5.33-4.08,8.11-1.72,3.94-.34,7.74,3.82,9.36,2,.77,4.06,1.41,6.1,2.07,1.31,.43,2.48,1.12,3.57,1.93,1.5,1.12,1.62,3.18,.51,4.99-1.26,2.05-3.24,3.26-5.22,4.47-1.11,.69-2.27,1.33-3.43,1.94-3.42,1.85-5.11,5.02-6.56,8.38-.72,1.66-.8,1.71-2.56,1.29-1.47-.35-2.93-.77-4.48-.39-1.03,.25-1.74,.79-1.95,1.84-.2,.97,.44,2.35,1.35,2.74,1.06,.45,2.01,1.17,2.97,1.24,2.39,.66,2.33,.64,1.84,2.81-.48,2.07-1.26,4.03-1.99,6.01-.82,2.19-2.39,3.64-4.37,4.71-1.26,.68-2.1,.05-2.9-1.12-2.15-3.15-1.29-6.56-1.14-9.88,.13-2.95-.53-5.68-1.49-8.42-1.15-3.26-3.33-5.56-6.44-7-.69-.32-.76-.72-.54-1.43,.67-2.17,1.67-4.24,1.99-6.52,.11-.75,.16-1.51,.11-2.26-.07-.96-.65-1.52-1.48-1.86-.8-.32-1.4-.03-2.04,.54-1.96,1.79-2.84,4.19-3.84,6.54-.22,.5-.24,1.35-.75,1.4-.58,.07-.85-.73-1.21-1.18-1.18-1.49-1.7-3.25-2.07-5.05-.21-1.02-.48-2.02-.75-3.02-1.16-4.14-3.97-6.75-7.71-8.61-2.48-1.23-5.02-1.07-7.61-.85-1.32,.12-2.63,.12-3.94-.04-2.35-.3-3.79-1.45-4.57-4.1-1.01-3.39-2.71-5.99-6.55-6.38-1.38-.14-2.78-.29-4.16-.01-1.58,.33-3.18,.37-4.75,.55-1.34,.16-2.52-.22-3.55-1.11Zm18.82-4.69c-.66,.53-1.35,1.01-1.39,1.8-.09,.31-.15,.46-.18,.61-.23,1.19-.19,2.37,.83,3.18,1.01,.8,1.91,.08,2.83-.42,2-1.1,3.6-2.73,5.49-3.97,1.62-1.07,2.82-2.57,4.07-4,.98-1.11,1.11-2.6,.46-3.42-.64-.8-1.94-.9-3.28-.05-3.04,1.95-6,4.02-8.83,6.28Zm11.28,6.44c-.52,.38-.9,.9-1.08,1.54-.55,1.95,.9,3.55,2.88,3.3,2.69-.35,5.14-1.4,7.6-2.44,1.82-.79,3.69-1.48,5.17-2.92,.62-.6,.9-1.16,.61-2-.29-.87-.78-1.44-1.75-1.55-1.44-.18-2.85-.14-4.28,.17-3.31,.71-6.4,1.91-9.16,3.91Zm16.67,11.07c-.43-.05-.85,.26-.97,.74-.13,.5,.18,.84,.55,1.1,.39,.29,.86,.35,1.36,.35,1.58,.01,2.82-.83,4-1.69,1.75-1.3,3.01-1.01,3.76,1.03,1.06,2.87,1.78,3.36,4.79,3.17,.43-.03,.86-.16,1.27-.31,1.23-.45,2.44-.97,3.67-1.4,.99-.34,1.91-.28,2.47,.78,.53,1.02,.3,2.01-.44,2.77-.8,.81-1.6,1.64-2.47,2.41-1.39,1.24-2.88,2.38-3.84,4.07-1.06,1.86-.69,3.99,.96,5.32,.97,.78,2.11,1.48,2.07,2.99,0,.41,.37,.59,.76,.65,.47,.08,.88,0,1.15-.43,.5-.8,.54-1.58-.09-2.32-.75-.88-1.47-1.77-2.36-2.52-1.07-.9-1.18-2.12-.24-3.14,.95-1.02,1.98-1.97,3.01-2.91,1.5-1.36,3.06-2.67,3.8-4.31,.73-2.41-.66-5.51-3.35-5.72-.65-.05-1.25,.05-1.87,.2-1.79,.43-3.33,1.59-5.22,1.68-.92,.04-1.57-.23-1.75-1.22-.18-1.02-.81-1.81-1.43-2.58-1.23-1.51-3.49-1.74-5.06-.61-1.36,.96-2.65,2.08-4.51,1.9Zm6.91-16.82c-.64,1.14-.27,3.09,.75,4.06,1.77,1.67,3.5,3.36,5.28,5.02,1.47,1.36,3.09,2.43,5.15,2.78,1.31,.22,2.13-.26,2.72-1.23,.61-1.01,.11-1.99-.59-2.72-2.18-2.26-4.06-4.82-6.58-6.74-1.1-.83-2.02-1.94-3.41-2.36-1.6-.54-2.56-.2-3.32,1.18Zm16.65,28.61c-.85,.78-.91,2.4-.26,3.32,.82,1.15,1.54,1.25,3.01,.64,2.57-1.05,4.79-2.67,7.06-4.2,1.07-.73,1.95-1.63,2.29-2.59,.56-1.86-.32-3.13-1.94-3.24-.82-.06-1.59,.15-2.31,.5-2.94,1.4-5.49,3.37-7.87,5.56Z"/><path d="M51.24,27.83c.04-.79,.73-1.27,1.39-1.8,2.83-2.26,5.79-4.33,8.83-6.28,1.34-.85,2.64-.75,3.28,.05,.64,.82,.51,2.31-.46,3.42-1.26,1.43-2.45,2.92-4.07,4-1.88,1.25-3.48,2.88-5.49,3.97-.92,.5-1.81,1.23-2.83,.42-1.02-.8-1.06-1.98-.83-3.18,.04-.16,.09-.31,.18-.61Zm2.29,.45c-.23,.27-.51,.68-.28,.96,.29,.38,.66-.05,.9-.23,1.89-1.39,3.79-2.78,5.6-4.25,.96-.78,1.77-1.74,2.65-2.63-2.37,1.05-4.32,2.66-6.41,4.09-.89,.6-1.76,1.23-2.46,2.07Z"/><path class="cls-2" d="M53.25,29.24c-.22-.27,.06-.69,.28-.96,.7-.84,1.57-1.46,2.46-2.07,2.08-1.43,4.04-3.04,6.41-4.09-.88,.89-1.68,1.85-2.65,2.63-1.81,1.48-3.71,2.86-5.6,4.25-.24,.18-.61,.61-.9,.23Z"/><path class="cls-2" d="M65.18,8.97c-.11-.21-.26-.45-.1-.67,.22-.31,.49-.06,.96,.09,.82,.59,1.89,1.22,2.8,2.04,.94,.84,2.1,1.46,2.85,2.52,.21,.3,.61,.71,.34,1.05-.32,.4-.73,0-1.03-.21-1.65-1.11-3.44-2.01-4.86-3.46-.4-.41-.69-.87-.95-1.36Z"/><path d="M62.84,34.01c.18-.64,.56-1.16,1.08-1.54,2.76-2,5.85-3.2,9.16-3.91,1.43-.31,2.84-.35,4.28-.17,.97,.11,1.46,.68,1.75,1.55,.28,.84,0,1.4-.61,2-1.48,1.44-3.35,2.13-5.17,2.92-2.46,1.04-4.91,2.09-7.6,2.44-1.98,.26-3.43-1.35-2.88-3.3Zm3.02-.2c-.36,.23-1.01,.48-.74,1.04,.22,.48,.79,.15,1.19,.09,2.65-.37,4.94-1.75,7.38-2.7,.92-.37,1.97-.6,2.6-1.53-.11-.08-.16-.16-.23-.17-.19-.03-.39-.05-.58-.04-3.49,.32-6.68,1.47-9.63,3.31Z"/><path class="cls-2" d="M65.12,34.85c-.27-.56,.38-.82,.74-1.04,2.94-1.84,6.14-2.99,9.63-3.31,.19-.02,.39,.01,.58,.04,.07,.01,.12,.09,.23,.17-.63,.93-1.68,1.16-2.6,1.53-2.44,.96-4.73,2.33-7.38,2.7-.4,.06-.97,.39-1.19-.09Z"/><path d="M79.61,44.29c.12-.49,.54-.79,.97-.74,1.86,.19,3.15-.93,4.51-1.9,1.58-1.13,3.83-.9,5.06,.61,.62,.77,1.25,1.56,1.43,2.58,.18,.99,.83,1.26,1.75,1.22,1.89-.09,3.44-1.24,5.22-1.68,.63-.15,1.22-.24,1.87-.2,2.69,.21,4.08,3.31,3.35,5.72-.74,1.64-2.3,2.95-3.8,4.31-1.03,.95-2.06,1.89-3.01,2.91-.94,1.02-.83,2.24,.24,3.14,.9,.75,1.61,1.64,2.36,2.52,.64,.74,.59,1.52,.09,2.32-.27,.43-.68,.51-1.15,.43-.39-.06-.76-.25-.76-.65,.03-1.51-1.11-2.22-2.07-2.99-1.65-1.33-2.02-3.46-.96-5.32,.96-1.69,2.46-2.83,3.84-4.07,.86-.77,1.66-1.59,2.47-2.41,.74-.76,.97-1.75,.44-2.77-.56-1.06-1.48-1.13-2.47-.78-1.23,.43-2.44,.95-3.67,1.4-.41,.15-.84,.28-1.27,.31-3.01,.19-3.73-.3-4.79-3.17-.75-2.04-2.01-2.33-3.76-1.03-1.17,.86-2.41,1.7-4,1.69-.5,0-.96-.06-1.36-.35-.37-.27-.68-.6-.55-1.1Z"/><path class="cls-2" d="M90.48,12.76c0-.47,.51-.4,.83-.46,1.35-.29,2.69-.29,4.04-.01,1.8,.38,3.59,.77,5.37,1.16,.26,.06,.57,.08,.68,.47-.85,.32-1.73,.3-2.57,.15-2.51-.45-5.08-.39-7.58-.93-.31-.06-.77,.01-.78-.38Z"/><path d="M88.24,30.79c-1.02-.97-1.39-2.92-.75-4.06,.76-1.38,1.72-1.72,3.32-1.18,1.39,.41,2.31,1.53,3.41,2.36,2.52,1.92,4.4,4.47,6.58,6.74,.7,.73,1.2,1.71,.59,2.72-.59,.96-1.41,1.45-2.72,1.23-2.07-.35-3.68-1.41-5.15-2.78-1.78-1.66-3.51-3.35-5.28-5.02Zm1.37-3.09c-.3,.24-.2,.59-.06,.88,.1,.25,.25,.5,.44,.69,1.81,1.79,3.58,3.59,5.45,5.31,.97,.89,2,1.79,3.48,1.71,.1-.38-.05-.58-.21-.75-2.03-2.24-4.09-4.43-6.38-6.4-.58-.48-1.2-.92-1.82-1.34-.26-.17-.59-.32-.89-.1Z"/><path class="cls-2" d="M89.55,28.58c-.13-.29-.24-.63,.06-.88,.3-.23,.63-.07,.89,.1,.62,.43,1.25,.86,1.82,1.34,2.3,1.96,4.36,4.16,6.38,6.4,.16,.17,.31,.37,.21,.75-1.47,.08-2.51-.82-3.48-1.71-1.87-1.71-3.64-3.52-5.45-5.31-.19-.19-.34-.44-.44-.69Z"/><path class="cls-3" d="M66.53,112.96l.62-2.25c.34,.1,.68,.19,1.04,.27,1.92,.43,3.76,.22,5.68,.12,4.29-.22,8-2.08,11.73-3.83,1.73-.82,3.18-2.29,4.33-3.86,2.24-3.07,4.3-6.24,5.61-9.85,.26-.7,.7-1.03,1.48-.73,.25,.1,.54,.11,.82,.14,1.75,.19,1.68,.16,.98,1.89-1.7,4.23-4.09,8.04-7.24,11.33-2.59,2.69-5.54,4.95-9.05,6.33-2.2,.86-4.55,1.14-6.89,1.48-2.76,.4-5.4,.08-8.02-.72-.36-.11-.73-.22-1.11-.32Z"/><path class="cls-2" d="M81.72,66.25c-.6-.23,.03-1.13,.18-1.69,.88-3.19,2.04-6.28,3.83-9.1,.17-.25,.25-.61,.76-.62,.19,1.56-.39,2.98-.89,4.38-.61,1.76-1.18,3.55-2.11,5.19-.09,.17-.13,.38-.25,.54-.41,.58-.92,1.52-1.51,1.29Z"/><path d="M103.89,58.66c-.65-.92-.59-2.54,.26-3.32,2.37-2.2,4.93-4.16,7.87-5.56,.72-.35,1.49-.56,2.31-.5,1.61,.11,2.5,1.39,1.94,3.24-.33,.95-1.22,1.86-2.29,2.59-2.28,1.53-4.5,3.14-7.06,4.2-1.47,.61-2.19,.51-3.01-.64Zm2.01-1.66c3.12-.81,5.5-2.84,7.96-4.75,.15-.12,.33-.31,.17-.51-.2-.26-.53-.18-.77-.07-2.81,1.26-5.27,3.02-7.36,5.34Z"/><path class="cls-2" d="M113.26,35.09c.02-.48,.31-.86,.84-.85,.79,.01,1.59,.1,2.33,.14,.38,.22,.94,.24,.88,.74-.07,.4-.54,.41-.9,.43-.75,.04-1.52,.08-2.27,.09-.39,0-.89,.03-.87-.55Z"/><path class="cls-2" d="M101.84,73.58c.11-.47,.66-.41,1.03-.34,2.07,.35,4.15,.71,6.21,1.14,1.51,.32,3.01,.72,4.42,1.4,.13,.06,.22,.19,.35,.3-.3,.43-.7,.4-1.09,.37-1.15-.11-2.32-.11-3.43-.38-2.27-.56-4.62-.85-6.76-1.86-.32-.15-.84-.21-.73-.63Z"/><path class="cls-2" d="M113.86,52.25c-2.45,1.91-4.84,3.95-7.96,4.75,2.09-2.32,4.55-4.08,7.36-5.34,.24-.11,.57-.19,.77,.07,.16,.2-.02,.39-.17,.51Z"/></g></g></svg>