<?xml version="1.0" encoding="UTF-8"?><svg id="Layer_2" xmlns="http://www.w3.org/2000/svg" viewBox="0 0 213.05 78"><defs><style>.cls-1{fill:#f3a2c5;}.cls-2{fill:#ee5d67;}.cls-3{fill:#cce8f7;}.cls-4{fill:#105375;}</style></defs><g id="Layer_8"><g><path class="cls-4" d="M39.83,46.46c-.05-.42,.25-.46,.5-.5,.22-.02,.45,.11,.69,.12,.86,.02,1.93-.8,2.52,.05,.47,.67,.34,1.75,.48,2.64,.03,.2,.03,.4,.08,.59,.23,.77,.04,1.16-.83,.97-2.08,.12-3.29-2.48-3.44-3.87Z"/><path class="cls-4" d="M41.47,42.99c-2.02,.17-1.96,.16-2.05-1.86-.04-.93,.35-1.18,1.15-1.19,.51,0,1.03-.02,1.54-.06,1.6-.13,1.59-.14,1.63,1.62,.22,.86-.16,1.42-1.34,1.34-.3-.02-.62,.12-.93,.15Z"/><path class="cls-4" d="M44.44,36.31c.01,.46-.47,.44-.84,.44h-3.58c.02-.08,.05-.23,.09-.38,.78-2.92,1.24-3.21,4.25-2.66,.2,.04,.47,.01,.53,.2,.26,.86-.46,1.55-.45,2.4Z"/><path class="cls-4" d="M46.43,30.58c-1.43-.59-2.77,.59-4.3,.07,.41-.85,.88-1.62,1.18-2.48,.25-.7,.91-.83,1.6-.65,.38,.1,.74,.29,1.12,.37,2.01,.43,2.11,.72,.85,2.37-.13,.17-.25,.4-.45,.32Z"/><path class="cls-4" d="M49.3,25.46c-1.05-.2-2.11-.36-3.15-.61-.44-.11-.87-.26-.35-.96,.69-.95,1.29-1.55,2.5-.84,.5,.3,1.15,.34,1.6,.76,.26,.24,.95,.28,.68,.77-.23,.43-.55,1.03-1.28,.88Z"/><path class="cls-4" d="M54.23,20.83q-1.3,1.44-3.98-.25c1.81-1.05,1.82-1.05,3.98,.25Z"/><path class="cls-4" d="M209.82,31.75c.27,2.12,.3,4.27-.04,6.38-.09,.55-.13,1.13-.25,1.69-.14,.57-.36,1.11-.83,1.61-.15-.28-.26-.57-.34-.86-.23-.87-.18-1.76-.25-2.61-.17-2.1,.06-4.2,.7-6.23,.11-.35,.18-.8,.56-.82,.49-.01,.41,.54,.45,.84Z"/><path class="cls-3" d="M177.82,30.54c.13,2.11,.15,4.22,.11,6.33-.03,1.81-.11,3.62-.2,5.43-.04,.77-.29,1.54-.43,2.31-.12,.65-.9,.59-1.47,.74-2.04,.52-1.92,.5-2.63-1.37-.88-2.33-.86-4.74-1.14-7.14-.24-2.1-.12-4.21-.43-6.3-.22-1.49,.28-2.91,.5-4.36,.02-.16,.04-.31,.06-.47,.06-.55,.48-.8,1.06-.64,1.3,.37,2.6,.74,3.9,1.13,.43,.12,.53,.41,.59,.88,.15,1.16,.01,2.31,.08,3.46Z"/><path class="cls-3" d="M198.45,28.89c2.2,.3,4.42,.46,6.61,.85,.8,.15,1.1,.29,.83,1.28-.88,3.26-1.09,6.56-.45,9.86,.08,.43,.18,.86,.29,1.29,.17,.65-.09,.76-.59,.86-3.61,.7-7.25,1.18-10.92,1.44-2.25,.17-4.49,.5-6.74,.73-1.31,.13-1.35,.06-.98-1.14,.53-1.76,.81-3.56,.74-5.41l-.12-2.01c-.16-2.57-.31-5.14-.47-7.71-.06-.86,.04-1.21,1.15-1.13,3.56,.24,7.12,.6,10.65,1.09Zm2.54,4.57c.13-.87-.15-1.63-1.13-1.8-1.2-.22-2.42-.34-3.77-.51-.64,.18-1.44,.06-2.23,.1-.96,.05-1.55,.62-1.47,1.53,.07,.86,.68,1.56,1.6,1.46,1.8-.2,3.54,.13,5.3,.34,.85,.11,1.55-.21,1.7-1.12Z"/><path class="cls-4" d="M181.2,45.97c.29-1.19,1.22-.32,1.96-.63-.33,.79-.17,1.78-1.12,1.84-.46,.03-1-.57-.84-1.21Z"/><path class="cls-4" d="M181.18,40.86c.71,.05,1.38-.34,2.11-.19,.27,.06,.7-.28,.77,.22,.06,.4,.15,.82-.34,1.15-.57,.39-1.12,.56-1.79,.42-.91,.21-1.49,.02-1.27-1.1,.06-.31,.16-.53,.52-.5Z"/><path class="cls-4" d="M181.82,37.82c-1.01,.4-1.1-.16-1.04-.9,.14-1.67,.3-1.84,1.48-1.77,.16,.01,.35,.08,.47,.02,1.51-.76,1.28,.36,1.43,1.24,.03,.15,.04,.29,.04,.41,0,.57-.3,.79-1,.72-.5-.06-.95,.11-1.38,.28Z"/><path class="cls-4" d="M181.26,30.91c.68,.13,1.33,.04,1.99-.1,.38-.09,.62,.01,.58,.47-.03,.3,.08,.66-.42,.69-.71,.04-1.42,.09-2.13,.14-.46,.15-.52-.14-.55-.49-.04-.42,.07-.8,.53-.71Z"/><path class="cls-4" d="M180.73,27.43c-.03-.45,1.11-2.37,1.31-2.23,.72,.48,1.22,1.18,1.28,2.03,.1,1.27-1.11,.27-1.41,.83-.45-.23-1.13,.17-1.18-.63Z"/><path class="cls-2" d="M154.83,51.26c.89-.41,1.5-1.18,2.41-1.5,2.18-.77,4.2-1.9,6.04-3.25,2.13-1.57,3.19-3.9,2.95-6.54-.27-2.88-.9-5.72-1.35-8.59-.32-2.05-.87-3.88-2.94-5-2.33-1.25-4.74-2.34-7.24-3.13l.93-2.79c2.8,.91,5.6,1.86,8.4,2.75,1.32,.42,2.7,.61,4.01,1.07,.82,.28,1.38,.68,1.24,1.51-.02,.08-.04,.18-.07,.27-.4,1.28-.23,2.69-.96,3.89-.2,.31-.26,.78-.02,1.03,1.16,1.26,.54,2.8,.73,4.21,.41,3.05,.09,6.2,1.26,9.16,.45,1.14-.27,2.71-1.29,3.4-1.45,1-3.13,1.53-4.65,2.39-2.91,1.65-6.22,2.39-9.15,3.96-2.8,1.5-5.9,2.12-8.82,3.27-1.88,.74-3.82,1.31-5.76,1.89l-.65-2.1c2.13-.61,4.24-1.33,6.25-2.37,2.77-1.44,5.83-2.21,8.68-3.53Z"/><path class="cls-2" d="M127.4,60.44c3.5-.71,6.91-1.77,10.35-2.69,.72-.19,1.43-.38,2.15-.59l.65,2.1c-1.11,.34-2.21,.68-3.3,1.06-2.99,1.06-5.91,2.32-8.89,3.4-2.94,1.06-5.93,2-8.88,3.03-4.34,1.51-8.64,3.15-13.01,4.56-3.58,1.16-7.18,2.28-10.98,2.59-1.22,.1-2.43,.34-3.64,.52-.01-.04-.01-.08-.02-.12-2.3,.2-4.6,.55-6.91,.55-4.32,0-8.64,.27-12.96-.54-4.37-.81-8.48-2.22-12.36-4.35-3.88-2.12-6.59-5.36-8.73-9.16-1.4-2.47-2.3-5.15-3.03-7.85-.77-2.84-1.48-5.74-1.01-8.78,.17-1.12-.37-2.26-.21-3.49,.71-5.53,2.92-10.26,6.63-14.46,2.37-2.7,5.1-4.88,7.96-6.94,3.15-2.27,6.58-4.11,10.05-5.88,2.92-1.5,6.02-2.49,9.14-3.35,2.94-.8,5.96-1.5,8.97-1.71,2.3-.16,4.66-.17,6.98-.24,2.22-.07,4.44,.03,6.66-.05,2.52-.1,5.06,.23,7.58,.46,2.64,.24,5.26,.69,7.84,1.28,.86,.2,1.72,.41,2.57,.64,2.33,.62,4.71,1.02,6.99,1.86,1.77,.65,3.69,.89,5.5,1.43,3.34,1,6.72,1.88,10.02,3,3.07,1.05,6.23,1.86,9.32,2.84,.94,.29,1.87,.6,2.8,.9l-.93,2.79c-.4-.13-.79-.24-1.19-.35-3.24-.88-6.57-1.45-9.85-2.23-2.77-.65-5.51-1.49-8.3-2.09-3.14-.67-6.25-1.41-9.26-2.52-.67-.25-1.28-.71-1.96-.85-1.91-.4-3.68-1.24-5.55-1.76-2.43-.68-4.86-1.18-7.36-1.36-2.79-.21-5.59-.34-8.4-.47-3.6-.16-7.21-.19-10.81-.07-2.31,.08-4.59,1-6.91,1.17-2.77,.2-5.33,1.17-7.72,2.24-4.2,1.87-8.12,4.37-11.81,7.12-2.32,1.73-4.18,4.07-6.14,6.25-2.07,2.32-3.34,5.01-4.38,7.84-1.4,3.81-1.62,7.81-1.5,11.84,.04,1.55-.05,3.12,.21,4.63,.41,2.29,1.2,4.5,1.77,6.77,.31,1.22,.79,2.42,1.93,3.33,1.4,1.1,2.8,2.19,4.25,3.25,2.64,1.92,5.62,3.06,8.68,3.77,3.31,.76,6.76,1.01,10.44,.78,4.75,.31,9.64-.61,14.56-1.3,3.52-.49,6.93-1.54,10.36-2.45,3.68-.97,7.32-2.08,10.95-3.23,1.43-.46,2.93-.67,4.34-1.17,2.09-.75,4.18-1.5,6.35-1.95Z"/><path class="cls-2" d="M24.59,44.26c.4-1.96-1.23-5.17-3.04-6.13-1.97-1.04-4.12-1.03-5.89-1.35-.66,0-.98,.01-1.3,0-.98-.02-1.66,.41-1.68,1.43-.03,1.03,.63,1.4,1.63,1.47,1.39,.08,2.77,.31,4.15,.46,1.63,.18,3.27,1.52,3.15,3.76-.04,.79,.25,1.48,1.12,1.57,.88,.09,1.64-.1,1.86-1.21Zm1.43-3.63c-.03,.43,.19,.77,.34,1.13,.24,.58,.71,.85,1.33,.78,.66-.07,1.1-.43,1.2-1.11,.06-.36,.08-.71,.13-1.11-.22-2.04-.84-3.96-3.86-5.08-1.11-.41-1.89-.25-2.21,.55-.33,.85,.16,1.67,1.14,2.18,1.06,.54,2.03,1.24,1.93,2.66Zm3.49-23.14c3.18,1.2,5.27-.32,5.76-3.66,.36-2.49-.21-4.9-.25-7.35-.04-2.16,.51-3.23,3.41-3.46,3.44-.27,6.7,1.41,7.3,5.37,.39,2.54,.58,5.11,1.07,7.64,.03,.16,.03,.32,.05,.47,.13,.75,1.15,1.37,.56,2.17-.46,.61-1.26,.96-1.88,1.46-1.72,1.38-3.07,3.04-4,5.07-.9,1.94-2.02,3.77-2.78,5.78-1.45,3.82-2.46,7.69-2.27,11.86,.09,1.73,.27,3.44,.54,5.18-3.24,.42-5.89,1.86-8.53,3.54-3.09,1.98-5.95,4.43-9.61,5.4-.92,.24-1.89,.5-2.89,.22-1.27-.36-1.63-1.28-.78-2.3,1.36-1.65,2.87-3.18,4.02-5,1.04-1.67,1.31-3.46,.75-5.35-.41-1.41-1.53-2.23-2.78-2.76-1.36-.59-2.82-.74-4.32-.7-2.06,.06-4.12,.08-6.16-.35-1.53-.33-2.61-1.34-3.41-2.56-.78-1.16-.18-2.86,1.1-3.74,2.38-1.64,5.06-1.91,7.84-1.65,2.92,.26,5.81,.94,8.77,.21,1.94-.48,3.78-2.69,3.09-5.09-.86-3.01-3.03-4.78-5.35-6.48-1.5-1.1-3.06-2.08-4.13-3.67-.82-1.22-.98-2.51-.41-3.8,.49-1.12,1.35-1.91,2.7-2.07,3.1-.37,5.65,.79,8.01,2.67,1.42,1.14,2.83,2.3,4.58,2.95Zm7.79,.67c-.97-.4-1.65-.03-2.16,.89-.29,.54-.7,1.02-1.29,1.36-1.89,1.07-3.67,.63-5.43-.28-.81-.43-1.53-.51-2.09,.32-.61,.92-.11,1.53,.62,2.12,1.48,1.21,3.26,1.34,5.04,1.5,1.84,.09,5.02-1.83,5.79-3.49,.47-1,.29-2.1-.48-2.42Z"/><path class="cls-1" d="M163.18,39.27c.27,2.86-.75,4.34-3.25,5.78-1.92,1.1-3.97,1.95-5.83,3.18-1.24,.82-2.69,1.41-4.12,1.85-2.78,.85-5.33,2.21-7.95,3.4-.74,.33-1.54,.44-2.27,.61-2.62,.61-5.14,1.54-7.77,2.13-4.01,.91-8,1.9-11.88,3.31-2.19,.8-4.51,1.23-6.75,1.89-2.57,.76-5.11,1.64-7.69,2.37-2.06,.59-4.16,1.05-6.24,1.54-4.48,1.06-9.04,1.79-13.62,2.08-5.41,.33-10.85,.51-16.16-.94-2.18-.59-4.16-1.73-6.13-2.84-1.58-.89-2.83-2.17-4.25-3.24-.23-.18-.36-.36-.44-.65-.69-2.4-1.45-4.78-2.11-7.19-.52-1.95-.23-3.97-.26-5.95-.05-3.35,.33-6.69,1.53-9.83,.85-2.24,1.93-4.39,3.51-6.29,1.47-1.77,3.21-3.29,4.64-5.09,1.03-1.29,2.61-1.93,3.96-2.82,2.33-1.54,4.74-2.99,7.22-4.27,3.34-1.73,7.02-2.47,10.69-3.11,2.78-.49,5.57-1.01,8.43-.8,3.17,.12,6.34,.24,9.51,.35,2.09,.07,4.17,.4,6.28,.42,2.56,.02,4.93,1.04,7.37,1.71,2.83,.79,5.45,2.2,8.26,2.98,2.2,.6,4.43,1.17,6.67,1.67,1.76,.4,3.57,.64,5.3,1.24,1.6,.56,3.29,.88,4.94,1.3,4.22,1.07,8.64,1.36,12.6,3.35,1.13,.57,2.24,1.18,3.34,1.82,.68,.39,1.04,.96,1.13,1.82,.29,2.76,1.07,5.45,1.34,8.22Z"/><path d="M196.09,31.15c1.35,.17,2.57,.29,3.77,.51,.98,.17,1.26,.93,1.13,1.8-.15,.91-.85,1.23-1.7,1.12-1.76-.21-3.5-.54-5.3-.34-.92,.1-1.53-.6-1.6-1.46-.08-.91,.51-1.48,1.47-1.53,.79-.04,1.59,.08,2.23-.1Z"/><path d="M182.26,35.15c-1.18-.07-1.34,.1-1.48,1.77l-2.85-.05c.04-2.11,.02-4.22-.11-6.33-.07-1.15,.07-2.3-.08-3.46-.06-.47-.16-.76-.59-.88-1.3-.39-2.6-.76-3.9-1.13-.58-.16-1,.09-1.06,.64-.02,.16-.04,.31-.06,.47l-2.85-.39c.14-.83-.42-1.23-1.24-1.51-1.31-.46-2.69-.65-4.01-1.07-2.8-.89-5.6-1.84-8.4-2.75-.93-.3-1.86-.61-2.8-.9-3.09-.98-6.25-1.79-9.32-2.84-3.3-1.12-6.68-2-10.02-3-1.81-.54-3.73-.78-5.5-1.43-2.28-.84-4.66-1.24-6.99-1.86-.85-.23-1.71-.44-2.57-.64l.68-2.82c1.71,.39,3.43,.71,5.13,1.14,2.63,.68,5.24,1.46,7.86,2.18,3.7,1.02,7.45,1.91,11.1,3.11,1.98,.65,3.99,1.28,5.99,1.87,4.14,1.23,8.23,2.62,12.34,3.93,2.89,.92,5.92,1.43,8.72,2.66,.54,.24,1.1,.24,1.73,.13,1.41-.24,2.75,.37,4.04,.84,.9,.33,1.88,.32,2.74,.77,.4,.21,.57-.15,.78-.37,2.15-2.17,3.78-1.5,5.49,.76,.33,.44,.62,.77,1.22,.76,3.35-.06,6.68,.37,9.98,.8,3.86,.51,7.72,1.08,11.59,1.42,4.69,.41,4.97,2.81,5.08,7.02,.43,1.8-.12,4.08-.55,6.36l-2.82-.53c.12-.56,.16-1.14,.25-1.69,.34-2.11,.31-4.26,.04-6.38-.04-.3,.04-.85-.45-.84-.38,.02-.45,.47-.56,.82-.64,2.03-.87,4.13-.7,6.23,.07,.85,.02,1.74,.25,2.61l-2.92,.31c-.64-3.3-.43-6.6,.45-9.86,.27-.99-.03-1.13-.83-1.28-2.19-.39-4.41-.55-6.61-.85-3.53-.49-7.09-.85-10.65-1.09-1.11-.08-1.21,.27-1.15,1.13,.16,2.57,.31,5.14,.47,7.71l-2.92,.18c0-.12-.01-.26-.04-.41-.15-.88,.08-2-1.43-1.24-.12,.06-.31-.01-.47-.02Zm-1.53-7.72c.05,.8,.73,.4,1.18,.63,.3-.56,1.51,.44,1.41-.83-.06-.85-.56-1.55-1.28-2.03-.2-.14-1.34,1.78-1.31,2.23Zm2.52,3.38c-.66,.14-1.31,.23-1.99,.1-.46-.09-.57,.29-.53,.71,.03,.35,.09,.64,.55,.49,.71-.05,1.42-.1,2.13-.14,.5-.03,.39-.39,.42-.69,.04-.46-.2-.56-.58-.47Z"/><path d="M183.16,45.34c-.74,.31-1.67-.56-1.96,.63-.16,.64,.38,1.24,.84,1.21,.95-.06,.79-1.05,1.12-1.84Zm-2.38-8.42c-.06,.74,.03,1.3,1.04,.9,.43-.17,.88-.34,1.38-.28,.7,.07,1-.15,1-.72l2.92-.18,.12,2.01c.07,1.85-.21,3.65-.74,5.41-.37,1.2-.33,1.27,.98,1.14,2.25-.23,4.49-.56,6.74-.73,3.67-.26,7.31-.74,10.92-1.44,.5-.1,.76-.21,.59-.86-.11-.43-.21-.86-.29-1.29l2.92-.31c.08,.29,.19,.58,.34,.86,.47-.5,.69-1.04,.83-1.61l2.82,.53s-.01,.03-.01,.04c-.22,1.19-.57,2.4-1.3,3.43-.6,.86-1.39,1.19-2.47,1.41-1.85,.36-3.66,.98-5.54,1.24-2.25,.31-4.49,.64-6.74,.89-2.59,.29-5.22,.32-7.78,.86-.27,.05-.56,.05-.83,.06-1.13,.02-2.09-.09-3.13,.97-1.58,1.62-4.09,1.5-5.61-.79-.4-.6-.71-.64-1.33-.48-1.52,.41-3,.89-4.62,.98-.9,.04-1.78,.82-2.62,1.34-2.45,1.47-5.01,2.69-7.62,3.83-3,1.32-6.03,2.58-9.05,3.86-2.87,1.21-5.93,1.98-8.88,3.01l-8.52,2.97c-3.29,1.16-6.5,2.53-9.83,3.58-3.14,1-6.2,2.23-9.35,3.2-4.45,1.37-8.78,3.11-13.25,4.47-3.35,1.01-6.73,1.45-10.14,1.89-.52,.07-1.03,.13-1.55,.18l-.33-2.87c1.21-.18,2.42-.42,3.64-.52,3.8-.31,7.4-1.43,10.98-2.59,4.37-1.41,8.67-3.05,13.01-4.56,2.95-1.03,5.94-1.97,8.88-3.03,2.98-1.08,5.9-2.34,8.89-3.4,1.09-.38,2.19-.72,3.3-1.06,1.94-.58,3.88-1.15,5.76-1.89,2.92-1.15,6.02-1.77,8.82-3.27,2.93-1.57,6.24-2.31,9.15-3.96,1.52-.86,3.2-1.39,4.65-2.39,1.02-.69,1.74-2.26,1.29-3.4-1.17-2.96-.85-6.11-1.26-9.16-.19-1.41,.43-2.95-.73-4.21-.24-.25-.18-.72,.02-1.03,.73-1.2,.56-2.61,.96-3.89,.03-.09,.05-.19,.07-.27l2.85,.39c-.22,1.45-.72,2.87-.5,4.36,.31,2.09,.19,4.2,.43,6.3,.28,2.4,.26,4.81,1.14,7.14,.71,1.87,.59,1.89,2.63,1.37,.57-.15,1.35-.09,1.47-.74,.14-.77,.39-1.54,.43-2.31,.09-1.81,.17-3.62,.2-5.43l2.85,.05Zm-.12,4.44c-.22,1.12,.36,1.31,1.27,1.1,.67,.14,1.22-.03,1.79-.42,.49-.33,.4-.75,.34-1.15-.07-.5-.5-.16-.77-.22-.73-.15-1.4,.24-2.11,.19-.36-.03-.46,.19-.52,.5Z"/><path d="M80.84,70.54c-3.68,.23-7.13-.02-10.44-.78-3.06-.71-6.04-1.85-8.68-3.77-1.45-1.06-2.85-2.15-4.25-3.25-1.14-.91-1.62-2.11-1.93-3.33-.57-2.27-1.36-4.48-1.77-6.77-.26-1.51-.17-3.08-.21-4.63-.12-4.03,.1-8.03,1.5-11.84,1.04-2.83,2.31-5.52,4.38-7.84,1.96-2.18,3.82-4.52,6.14-6.25,3.69-2.75,7.61-5.25,11.81-7.12,2.39-1.07,4.95-2.04,7.72-2.24,2.32-.17,4.6-1.09,6.91-1.17,3.6-.12,7.21-.09,10.81,.07,2.81,.13,5.61,.26,8.4,.47,2.5,.18,4.93,.68,7.36,1.36,1.87,.52,3.64,1.36,5.55,1.76,.68,.14,1.29,.6,1.96,.85,3.01,1.11,6.12,1.85,9.26,2.52,2.79,.6,5.53,1.44,8.3,2.09,3.28,.78,6.61,1.35,9.85,2.23,.4,.11,.79,.22,1.19,.35,2.5,.79,4.91,1.88,7.24,3.13,2.07,1.12,2.62,2.95,2.94,5,.45,2.87,1.08,5.71,1.35,8.59,.24,2.64-.82,4.97-2.95,6.54-1.84,1.35-3.86,2.48-6.04,3.25-.91,.32-1.52,1.09-2.41,1.5-2.85,1.32-5.91,2.09-8.68,3.53-2.01,1.04-4.12,1.76-6.25,2.37-.72,.21-1.43,.4-2.15,.59-3.44,.92-6.85,1.98-10.35,2.69-2.17,.45-4.26,1.2-6.35,1.95-1.41,.5-2.91,.71-4.34,1.17-3.63,1.15-7.27,2.26-10.95,3.23-3.43,.91-6.84,1.96-10.36,2.45-4.92,.69-9.81,1.61-14.56,1.3Zm-11.19-4.07c5.31,1.45,10.75,1.27,16.16,.94,4.58-.29,9.14-1.02,13.62-2.08,2.08-.49,4.18-.95,6.24-1.54,2.58-.73,5.12-1.61,7.69-2.37,2.24-.66,4.56-1.09,6.75-1.89,3.88-1.41,7.87-2.4,11.88-3.31,2.63-.59,5.15-1.52,7.77-2.13,.73-.17,1.53-.28,2.27-.61,2.62-1.19,5.17-2.55,7.95-3.4,1.43-.44,2.88-1.03,4.12-1.85,1.86-1.23,3.91-2.08,5.83-3.18,2.5-1.44,3.52-2.92,3.25-5.78-.27-2.77-1.05-5.46-1.34-8.22-.09-.86-.45-1.43-1.13-1.82-1.1-.64-2.21-1.25-3.34-1.82-3.96-1.99-8.38-2.28-12.6-3.35-1.65-.42-3.34-.74-4.94-1.3-1.73-.6-3.54-.84-5.3-1.24-2.24-.5-4.47-1.07-6.67-1.67-2.81-.78-5.43-2.19-8.26-2.98-2.44-.67-4.81-1.69-7.37-1.71-2.11-.02-4.19-.35-6.28-.42-3.17-.11-6.34-.23-9.51-.35-2.86-.21-5.65,.31-8.43,.8-3.67,.64-7.35,1.38-10.69,3.11-2.48,1.28-4.89,2.73-7.22,4.27-1.35,.89-2.93,1.53-3.96,2.82-1.43,1.8-3.17,3.32-4.64,5.09-1.58,1.9-2.66,4.05-3.51,6.29-1.2,3.14-1.58,6.48-1.53,9.83,.03,1.98-.26,4,.26,5.95,.66,2.41,1.42,4.79,2.11,7.19,.08,.29,.21,.47,.44,.65,1.42,1.07,2.67,2.35,4.25,3.24,1.97,1.11,3.95,2.25,6.13,2.84Z"/><path d="M28.42,20.13c1.76,.91,3.54,1.35,5.43,.28,.59-.34,1-.82,1.29-1.36,.51-.92,1.19-1.29,2.16-.89,.77,.32,.95,1.42,.48,2.42-.77,1.66-3.95,3.58-5.79,3.49-1.78-.16-3.56-.29-5.04-1.5-.73-.59-1.23-1.2-.62-2.12,.56-.83,1.28-.75,2.09-.32Z"/><path d="M29.02,40.32c-.05,.4-.07,.75-.13,1.11-.1,.68-.54,1.04-1.2,1.11-.62,.07-1.09-.2-1.33-.78-.15-.36-.37-.7-.34-1.13,.1-1.42-.87-2.12-1.93-2.66-.98-.51-1.47-1.33-1.14-2.18,.32-.8,1.1-.96,2.21-.55,3.02,1.12,3.64,3.04,3.86,5.08Z"/><path d="M21.55,38.13c1.81,.96,3.44,4.17,3.04,6.13-.22,1.11-.98,1.3-1.86,1.21-.87-.09-1.16-.78-1.12-1.57,.12-2.24-1.52-3.58-3.15-3.76-1.38-.15-2.76-.38-4.15-.46-1-.07-1.66-.44-1.63-1.47,.02-1.02,.7-1.45,1.68-1.43,.32,.01,.64,0,1.3,0,1.77,.32,3.92,.31,5.89,1.35Z"/><path d="M54.23,20.83c-2.16-1.3-2.17-1.3-3.98-.25q2.68,1.69,3.98,.25Zm-5.93,2.22c-1.21-.71-1.81-.11-2.5,.84-.52,.7-.09,.85,.35,.96,1.04,.25,2.1,.41,3.15,.61,.73,.15,1.05-.45,1.28-.88,.27-.49-.42-.53-.68-.77-.45-.42-1.1-.46-1.6-.76Zm-1.68,17.63c-.16,1.23,.38,2.37,.21,3.49-.47,3.04,.24,5.94,1.01,8.78,.73,2.7,1.63,5.38,3.03,7.85,2.14,3.8,4.85,7.04,8.73,9.16,3.88,2.13,7.99,3.54,12.36,4.35,4.32,.81,8.64,.54,12.96,.54,2.31,0,4.61-.35,6.91-.55,.01,.04,.01,.08,.02,.12l.33,2.87c-2.98,.33-5.99,.53-8.99,.65-5.41,.22-10.81-.12-16.03-1.62-4.8-1.37-9.48-3.27-13.18-6.7-3.08-2.86-5.65-6.27-7.13-10.32-.63-1.72-1.39-3.39-1.73-5.21-.11-.58-.46-.87-1.11-.78-1.76,.24-3.36-.23-4.62-1.45-1.38-1.33-2.92-.97-4.33-.42-3.73,1.45-6.83,3.98-10.19,6.1-2.53,1.59-5.27,2.79-8.38,2.73-2.9-.06-4.94-2.2-4.74-5.07,.11-1.65,1.42-2.6,2.42-3.69,1.25-1.34,2.51-2.66,3.03-4.47,.4-1.44-.12-2.33-1.59-2.6-2.15-.4-4.33-.44-6.52-.41-3.46,.05-6.3-1.25-8.31-4.2-1.36-2.02-.88-5.26,1-7.06,1.41-1.36,3.13-1.96,4.96-2.6,3.22-1.11,6.3-.06,9.44-.01,1.06,.01,2.13,.16,3.18,.07,1.85-.14,2.36-1.18,1.38-2.78-.71-1.16-1.68-2.11-2.76-2.94-1.47-1.13-3.14-2.01-4.45-3.34-3.36-3.41-3.64-7.86,.06-11.03,1.62-1.39,3.64-1.43,5.65-1.32,3.9,.21,6.6,2.76,9.49,4.91,.65,.48,1.4,.73,2.08,1.14,.72,.43,1.32-.15,1.5-1.13,.41-2.2,.1-4.41-.22-6.53-.65-4.32,2.07-6.63,5.69-7.1,4.44-.57,7.81,1.19,10.07,5.03,.57,.96,.75,2.1,.93,3.18,.34,2.08,.53,4.17,.79,6.26,.05,.43,.15,.86,.27,1.28,.29,1.06,1.05,1.43,2.05,1.17,1.75-.46,2.99,.45,4.17,1.5,.42,.37,.65,.54,1.11,.02,.95-1.08,2.23-1.75,3.45-2.48,1.69-1.01,3.3-2.15,5.04-3.12,2.74-1.52,5.56-2.86,8.47-4.02,3.66-1.46,7.5-2.37,11.35-3.04,3.1-.54,6.28-.74,9.46-.81,4.16-.1,8.32-.11,12.46,.1,3.51,.18,7.04,.57,10.48,1.49,.41,.11,.82,.21,1.23,.3l-.68,2.82c-2.58-.59-5.2-1.04-7.84-1.28-2.52-.23-5.06-.56-7.58-.46-2.22,.08-4.44-.02-6.66,.05-2.32,.07-4.68,.08-6.98,.24-3.01,.21-6.03,.91-8.97,1.71-3.12,.86-6.22,1.85-9.14,3.35-3.47,1.77-6.9,3.61-10.05,5.88-2.86,2.06-5.59,4.24-7.96,6.94-3.71,4.2-5.92,8.93-6.63,14.46Zm.18-24.65c-.49-2.53-.68-5.1-1.07-7.64-.6-3.96-3.86-5.64-7.3-5.37-2.9,.23-3.45,1.3-3.41,3.46,.04,2.45,.61,4.86,.25,7.35-.49,3.34-2.58,4.86-5.76,3.66-1.75-.65-3.16-1.81-4.58-2.95-2.36-1.88-4.91-3.04-8.01-2.67-1.35,.16-2.21,.95-2.7,2.07-.57,1.29-.41,2.58,.41,3.8,1.07,1.59,2.63,2.57,4.13,3.67,2.32,1.7,4.49,3.47,5.35,6.48,.69,2.4-1.15,4.61-3.09,5.09-2.96,.73-5.85,.05-8.77-.21-2.78-.26-5.46,.01-7.84,1.65-1.28,.88-1.88,2.58-1.1,3.74,.8,1.22,1.88,2.23,3.41,2.56,2.04,.43,4.1,.41,6.16,.35,1.5-.04,2.96,.11,4.32,.7,1.25,.53,2.37,1.35,2.78,2.76,.56,1.89,.29,3.68-.75,5.35-1.15,1.82-2.66,3.35-4.02,5-.85,1.02-.49,1.94,.78,2.3,1,.28,1.97,.02,2.89-.22,3.66-.97,6.52-3.42,9.61-5.4,2.64-1.68,5.29-3.12,8.53-3.54-.27-1.74-.45-3.45-.54-5.18-.19-4.17,.82-8.04,2.27-11.86,.76-2.01,1.88-3.84,2.78-5.78,.93-2.03,2.28-3.69,4-5.07,.62-.5,1.42-.85,1.88-1.46,.59-.8-.43-1.42-.56-2.17-.02-.15-.02-.31-.05-.47Zm-3.06,25.47c-.04-1.76-.03-1.75-1.63-1.62-.51,.04-1.03,.05-1.54,.06-.8,.01-1.19,.26-1.15,1.19,.09,2.02,.03,2.03,2.05,1.86,.31-.03,.63-.17,.93-.15,1.18,.08,1.56-.48,1.34-1.34Zm.28,7.27c-.14-.89-.01-1.97-.48-2.64-.59-.85-1.66-.03-2.52-.05-.24-.01-.47-.14-.69-.12-.25,.04-.55,.08-.5,.5,.15,1.39,1.36,3.99,3.44,3.87,.87,.19,1.06-.2,.83-.97-.05-.19-.05-.39-.08-.59Zm-1.89-18.12c1.53,.52,2.87-.66,4.3-.07,.2,.08,.32-.15,.45-.32,1.26-1.65,1.16-1.94-.85-2.37-.38-.08-.74-.27-1.12-.37-.69-.18-1.35-.05-1.6,.65-.3,.86-.77,1.63-1.18,2.48Zm2.23,3.06c-3.01-.55-3.47-.26-4.25,2.66-.04,.15-.07,.3-.09,.38h3.58c.37,0,.85,.02,.84-.44-.01-.85,.71-1.54,.45-2.4-.06-.19-.33-.16-.53-.2Z"/></g></g></svg>