<?xml version="1.0" encoding="UTF-8"?><svg id="Layer_2" xmlns="http://www.w3.org/2000/svg" viewBox="0 0 18.6 8.13"><defs><style>.cls-1{fill:#ee5d67;}</style></defs><g id="Layer_8"><g><path class="cls-1" d="M16.18,2.1c-.88,.96-2.04,1.37-3.2,1.74-2,.63-4.03,1.19-5.99,1.95-1.24,.48-2.56,.25-3.86,.22,4.25-1.72,8.43-3.54,13.05-3.91Z"/><path d="M18.56,1.74c.13,.78-.02,1.43-.78,1.95-2.08,1.39-4.47,1.99-6.78,2.78-.71,.24-1.43,.45-2.13,.71-1.66,.6-3.34,1.11-5.14,.9-.75-.03-1.51-.01-2.25-.12-.66-.09-1.32-.37-1.45-1.12-.14-.74,.17-1.38,.82-1.8,1.27-.81,2.59-1.52,4.03-1.98,2.29-.73,4.57-1.45,6.85-2.19,1.1-.36,2.22-.61,3.35-.81,.71-.13,1.39-.02,2.09,.12,.88,.18,1.26,.78,1.39,1.56Zm-5.58,2.1c1.16-.37,2.32-.78,3.2-1.74-4.62,.37-8.8,2.19-13.05,3.91,1.3,.03,2.62,.26,3.86-.22,1.96-.76,3.99-1.32,5.99-1.95Z"/></g></g></svg>