<?xml version="1.0" encoding="UTF-8"?><svg id="Layer_2" xmlns="http://www.w3.org/2000/svg" viewBox="0 0 185.01 47.28"><defs><style>.cls-1{fill:#f9da69;}.cls-2{fill:#cce8f7;}.cls-3{fill:#105375;}</style></defs><g id="Layer_8"><g><path class="cls-1" d="M181.46,10.91c.54,1.47,.43,2.94,.39,4.6-.01,.2-.02,.4-.02,.61,.19,1.53,.14,3.34-.43,5.05-1.04,3.08-2.05,5.04-5.63,5.52-3.81,.51-7.62,.97-11.44,1.3-1.27,.11-2.5-.29-3.76-.36-1.54-.1-3.08-.18-4.62-.2-.79,0-1.57-.18-2.36-.21-3.95-.18-7.89-.38-11.84-.49-2.31-.06-4.61,0-6.92-.2-3.2-.28-6.4-.4-9.6-.87-2.73-.4-5.54-.48-8.27-.89-4.83-.74-9.73-.43-14.56-1.28-3.07-.55-6.21-.78-9.24-1.56-1.33-.35-2.7-.59-3.98-1.15-1.43-.63-2.37-1.61-2.84-3.09-.66-2.08-1.13-4.17-.85-6.37,.15-1.12-.35-2.18,0-3.38,.37-1.22,1.26-1.55,2.16-1.76,2.5-.58,5.07-.51,7.63-.61,2.51-.09,5.03-.09,7.54-.02,1.2,.04,2.39,.09,3.58,.16,3.96,.23,7.93,.16,11.88,.59,1.69,.18,3.42,0,5.14,.06,5.51,.15,11.03,.45,16.54,.44,3.89,0,7.77,.51,11.65,.29,4.52-.27,9.03,.02,13.54,.13,2.86,.06,5.66,.73,8.5,.98,1.74,.15,3.47,.33,5.2,.55,1.61,.2,2.07,.68,2.6,2.16Zm-6.21,12.92c1.16-.09,1.88-.74,1.82-1.61-.06-.85-1.02-1.66-2-1.45-2.98,.61-5.95-.13-8.94,.07-2.8,.19-5.61-.13-8.42-.33-3.71-.25-7.43-.47-11.14-.45-5.75,.03-11.46-.41-17.15-1.08-5.84-.68-11.72-.8-17.57-1.31-2.85-.25-5.67-.77-8.51-1.11-2.53-.3-5.08-.67-7.59-1.15-.86-.07-1.43,.31-1.64,1.1-.19,.75,.16,1.31,.81,1.7,.56,.34,1.18,.43,1.82,.52,4.25,.54,8.49,1.08,12.73,1.68,2.67,.38,5.37,.67,8.05,.63,4.35-.06,8.62,.62,12.91,1.08,3.91,.43,7.82,.74,11.75,.91,3.04,.13,6.08,.02,9.12,.13,5.09,.18,10.15,.81,15.25,.7,2.9-.05,5.8,.2,8.7-.03Zm2.2-7.4c1.27-.01,2.02-.5,2.02-1.35s-1.18-2.09-2.08-1.92c-1.81,.33-3.53-.14-5.3-.28-3.6-.29-7.13-1.06-10.74-1.3-3.92-.25-7.84-.51-11.77-.45-2.53,.03-5.06,.03-7.58-.08-3.56-.15-7.11-.51-10.67-.6-3.83-.1-7.63-.54-11.48-.38-4.42,.2-8.81-.67-13.23-.91-3.03-.16-6.06-.45-9.1-.41-2.2,.03-4.33,.57-6.49,.82-.9,.11-1.57,.76-1.52,1.72,.05,1.07,.94,1.15,1.77,1.14,.44,0,.88-.01,1.31-.1,1.99-.4,3.99-.61,6.35-.68,3.04,.15,6.4,.27,9.76,.49,3.23,.22,6.41,.81,9.68,.82,3.8,.02,7.63,.03,11.43,.39,1.03,.1,2.08-.08,3.1,.05,3.38,.42,6.78,.46,10.16,.67,3.79,.23,7.59,.05,11.39,.11,4.87,.07,9.65,.8,14.46,1.34,2.84,.31,5.66,.91,8.53,.91Z"/><path class="cls-3" d="M12.72,16.87c.23,1.37-.84,.47-1.18,.8-2.56-.48-5.13-.62-7.4-2.02-.82-.51-.68-.98-.36-1.66,1.06-2.21,2.81-3.68,4.95-4.76,.35-.17,.68-.4,1.03-.59,1.19-.67,1.67-.51,1.78,.85,.21,2.49,.78,4.92,1.18,7.38Z"/><path class="cls-3" d="M17.09,6.92c.12,1.06,.32,2.12,.51,3.17,.18,1.04,1.06,1.82,1.82,1.65,.98-.22,1.39-1.05,1.19-2.25-.18-1.05-.67-2.03-.66-3.14,.01-.77,.33-1.07,1-1.18,5.08-.86,10.19-1.45,15.32-1.91,.9-.08,1.2,.19,1.25,1.07,.11,1.85,.29,3.7,.5,5.54,.09,.83,.42,1.63,1.42,1.64,1.03,0,1.48-.74,1.46-1.68-.04-1.38-.11-2.77-.33-4.13-.36-2.29,0-2.91,2.24-2.65,2.26,.26,4.58,.29,6.71,1.39,1.46,.75,1.75,2.01,1,3.45-.86,1.68-2.56,1.78-3.9,2.49-4.09,2.18-8.58,3.11-13.07,4.07-2.91,.62-5.81,1.32-8.72,1.87-2.3,.44-4.58,1.07-7.65,1.12-1.13,.04-1.07,.02-1.59-1.74-.78-2.61-.78-5.34-1.41-7.97-.11-.49,.07-.84,.61-.98,.45-.12,.88-.34,1.33-.48,.56-.16,.89,0,.97,.65Z"/><path class="cls-2" d="M94.31,33.41c-1.72,.48-3.47,.91-5.28,.67-1.06,0-2.13,.06-3.19-.01-1.91-.13-3.29-1.04-4.34-2.71-1.4-2.23-3.35-4.02-5.15-5.94-1.92-2.04-3.69-4.23-5.51-6.37-.29-.34-.58-.63-1-.82-.42-.18-1.04-.32-.95-.9,.09-.61,.61-.96,1.2-1.19,.35-.14,.69-.21,1.03-.24,1.1-.09,2.15,.31,3.25,.6,1.42,.39,1.61,1.71,2.35,2.6,1.85,2.23,3.7,4.46,5.77,6.49,.74,.72,1.53,1.41,2.14,2.23,.96,1.28,2.1,1.97,3.75,1.84,.23-.02,.46-.02,.68-.02,1.77,0,3.47,.49,5.16,1.03,.76,.25,1.28,.78,1.35,1.53,.09,.8-.7,1.06-1.26,1.21Z"/><path class="cls-2" d="M69.08,13.34c-.92,.22-1.68,.86-2.14,1.62-.73,1.2-1.67,1.38-2.97,1.37-2.88-.01-5.76,.09-8.63-.16-.58-.05-.89-.22-.91-.82-.04-.99,.27-1.96,.14-2.95-.05-.34,.29-.46,.58-.47,.44-.03,.88-.01,1.17-.01,4.02-.45,7.91-.52,11.79-.9,2.92-.29,5.88-.15,8.83-.21,1.5-.03,3-.05,4.5-.14,.07,0,.14,0,.2,0,.53,0,.73,.2,.74,.83,.01,1.07,.11,2.14,.22,3.21,.07,.73-.09,1.14-.94,1.02-.9-.13-1.79-.23-2.72-.05-.44,.09-.92-.15-1.3-.49-2.02-1.85-4.32-2.4-6.8-2.14-.58,.05-1.16,.16-1.76,.3Z"/><path class="cls-2" d="M51.56,13.4c-.14,2.41,.1,4.85-.41,7.23-.37,1.7-.77,3.4-1.36,5.02-.89,2.42-1.8,4.83-3.11,7.07-1.75,3-4.2,5.29-6.96,7.35-2.16,1.62-4.54,2.69-6.98,3.69-2.01,.82-4.09,.44-6.14,.39-1.05-.02-2.12-.36-3.2-.32-1.98,.06-3.67-.77-5.46-1.45-2.99-1.14-5.52-2.94-7.52-5.28-2.68-3.14-4.86-6.61-5.6-10.86-.34-2.01-.89-4.01-1.25-6.03-.08-.47-.24-.92-.06-1.44,4.76,2.19,9.76,1.86,14.76,1.55,4.25-.26,8.38-1.2,12.5-2.11,4.26-.94,8.58-1.72,12.7-3.18,2.71-.96,5.28-2.34,7.95-3.55,.41,.66,.18,1.3,.14,1.92ZM17.84,34.68c.31-.93-.21-1.72-1.21-1.92-.41-.09-.71-.21-.99-.56-1.47-1.83-2.53-3.79-2.53-6.23,0-.58-.28-1.2-.96-1.36-.71-.17-1.33,.02-1.76,.68-.28,.41-.37,.87-.45,1.41,.5,2.18,1.1,4.39,2.43,6.3,.88,1.25,1.98,2.27,3.51,2.71,.99,.29,1.65-.11,1.96-1.03Z"/><path d="M168.89,4.49c3.43,.64,6.91,.85,10.36,1.34,.97,.14,1.89,.28,2.84,.68,1.52,.64,1.92,1.82,2.15,3.16,.11,.63,.25,1.23,.45,1.84,.32,.96,.46,1.92,.15,2.93-.11,.38-.15,.76-.15,1.14l-2.84-.07c.04-1.66,.15-3.13-.39-4.6-.53-1.48-.99-1.96-2.6-2.16-1.73-.22-3.46-.4-5.2-.55-2.84-.25-5.64-.92-8.5-.98-4.51-.11-9.02-.4-13.54-.13-3.88,.22-7.76-.29-11.65-.29-5.51,0-11.03-.29-16.54-.44-1.72-.05-3.45,.12-5.14-.06-3.95-.43-7.92-.36-11.88-.59-1.19-.07-2.38-.12-3.58-.16l.09-2.85c4.79,.13,9.57,.38,14.36,.46,3.21,.05,6.41,.26,9.62,.22,4.29-.06,8.57,.41,12.86,.49,5.78,.11,11.58-.09,17.35,.16,3.93,.18,7.89-.26,11.78,.46Z"/><path d="M166.13,20.84c2.99-.2,5.96,.54,8.94-.07,.98-.21,1.94,.6,2,1.45,.06,.87-.66,1.52-1.82,1.61-2.9,.23-5.8-.02-8.7,.03-5.1,.11-10.16-.52-15.25-.7-3.04-.11-6.08,0-9.12-.13-3.93-.17-7.84-.48-11.75-.91-4.29-.46-8.56-1.14-12.91-1.08-2.68,.04-5.38-.25-8.05-.63-4.24-.6-8.48-1.14-12.73-1.68-.64-.09-1.26-.18-1.82-.52-.65-.39-1-.95-.81-1.7,.21-.79,.78-1.17,1.64-1.1,2.51,.48,5.06,.85,7.59,1.15,2.84,.34,5.66,.86,8.51,1.11,5.85,.51,11.73,.63,17.57,1.31,5.69,.67,11.4,1.11,17.15,1.08,3.71-.02,7.43,.2,11.14,.45,2.81,.2,5.62,.52,8.42,.33Z"/><path d="M161.35,11.58c3.61,.24,7.14,1.01,10.74,1.3,1.77,.14,3.49,.61,5.3,.28,.9-.17,2.08,1.06,2.08,1.92s-.75,1.34-2.02,1.35c-2.87,0-5.69-.6-8.53-.91-4.81-.54-9.59-1.27-14.46-1.34-3.8-.06-7.6,.12-11.39-.11-3.38-.21-6.78-.25-10.16-.67-1.02-.13-2.07,.05-3.1-.05-3.8-.36-7.63-.37-11.43-.39-3.27-.01-6.45-.6-9.68-.82-3.36-.22-6.72-.34-9.76-.49-2.36,.07-4.36,.28-6.35,.68-.43,.09-.87,.1-1.31,.1-.83,.01-1.72-.07-1.77-1.14-.05-.96,.62-1.61,1.52-1.72,2.16-.25,4.29-.79,6.49-.82,3.04-.04,6.07,.25,9.1,.41,4.42,.24,8.81,1.11,13.23,.91,3.85-.16,7.65,.28,11.48,.38,3.56,.09,7.11,.45,10.67,.6,2.52,.11,5.05,.11,7.58,.08,3.93-.06,7.85,.2,11.77,.45Z"/><path d="M181.4,21.17c.57-1.71,.62-3.52,.43-5.05,0-.21,.01-.41,.02-.61l2.84,.07c0,.46,.05,.92,.1,1.36,.43,4.03-.9,7.5-3.45,10.5-1.16,1.38-2.97,1.9-4.68,2.19-2.92,.5-5.88,.76-8.81,1.14-1.89,.25-3.78,.2-5.66,.03-4.11-.38-8.23-.59-12.36-.68-2.29-.05-4.58-.18-6.87-.36-1.34-.11-2.68-.02-4.02-.06-5.39-.16-10.75-.51-16.09-1.28-2.46-.36-4.98-.36-7.44-.74-3.92-.61-7.91-.39-11.81-.96-3.07-.45-6.18-.77-9.23-1.45-1.43-.32-2.88-.61-4.28-.99-2.75-.76-5.34-1.95-6.3-5.01-.18-.57-.44-.65-.92-.64-.77,.02-1.55,0-2.48,0,1.2,2.18,3.18,3.38,4.61,5.07,.51,.61,1.14,1.11,1.55,1.81,.6,1.04,1.57,1.26,2.57,1.3l-.06,2.82c-.22,0-.45,0-.68,.02-1.65,.13-2.79-.56-3.75-1.84-.61-.82-1.4-1.51-2.14-2.23-2.07-2.03-3.92-4.26-5.77-6.49-.74-.89-.93-2.21-2.35-2.6-1.1-.29-2.15-.69-3.25-.6l-.28-2.86c2.48-.26,4.78,.29,6.8,2.14,.38,.34,.86,.58,1.3,.49,.93-.18,1.82-.08,2.72,.05,.85,.12,1.01-.29,.94-1.02-.11-1.07-.21-2.14-.22-3.21-.01-.63-.21-.82-.74-.83l.15-2.88c.4,.07,.68,.02,.84-.55,.67-2.47,2.44-3.6,4.9-4.02,4.24-.73,8.49-.67,12.77-.58,.87,.02,1.74,.04,2.62,.07l-.09,2.85c-2.51-.07-5.03-.07-7.54,.02-2.56,.1-5.13,.03-7.63,.61-.9,.21-1.79,.54-2.16,1.76-.36,1.2,.14,2.26,0,3.38-.28,2.2,.19,4.29,.85,6.37,.47,1.48,1.41,2.46,2.84,3.09,1.28,.56,2.65,.8,3.98,1.15,3.03,.78,6.17,1.01,9.24,1.56,4.83,.85,9.73,.54,14.56,1.28,2.73,.41,5.54,.49,8.27,.89,3.2,.47,6.4,.59,9.6,.87,2.31,.2,4.61,.14,6.92,.2,3.95,.11,7.89,.31,11.84,.49,.79,.03,1.57,.21,2.36,.21,1.54,.02,3.08,.1,4.62,.2,1.26,.07,2.49,.47,3.76,.36,3.82-.33,7.63-.79,11.44-1.3,3.58-.48,4.59-2.44,5.63-5.52Z"/><path d="M13.11,25.97c0,2.44,1.06,4.4,2.53,6.23,.28,.35,.58,.47,.99,.56,1,.2,1.52,.99,1.21,1.92-.31,.92-.97,1.32-1.96,1.03-1.53-.44-2.63-1.46-3.51-2.71-1.33-1.91-1.93-4.12-2.43-6.3,.08-.54,.17-1,.45-1.41,.43-.66,1.05-.85,1.76-.68,.68,.16,.96,.78,.96,1.36Z"/><path d="M11.54,17.67c.34-.33,1.41,.57,1.18-.8-.4-2.46-.97-4.89-1.18-7.38-.11-1.36-.59-1.52-1.78-.85-.35,.19-.68,.42-1.03,.59-2.14,1.08-3.89,2.55-4.95,4.76-.32,.68-.46,1.15,.36,1.66,2.27,1.4,4.84,1.54,7.4,2.02Zm6.73,2.65c-5,.31-10,.64-14.76-1.55-.18,.52-.02,.97,.06,1.44,.36,2.02,.91,4.02,1.25,6.03,.74,4.25,2.92,7.72,5.6,10.86,2,2.34,4.53,4.14,7.52,5.28,1.79,.68,3.48,1.51,5.46,1.45,1.08-.04,2.15,.3,3.2,.32,2.05,.05,4.13,.43,6.14-.39,2.44-1,4.82-2.07,6.98-3.69,2.76-2.06,5.21-4.35,6.96-7.35,1.31-2.24,2.22-4.65,3.11-7.07,.59-1.62,.99-3.32,1.36-5.02,.51-2.38,.27-4.82,.41-7.23,.04-.62,.27-1.26-.14-1.92-2.67,1.21-5.24,2.59-7.95,3.55-4.12,1.46-8.44,2.24-12.7,3.18-4.12,.91-8.25,1.85-12.5,2.11Zm2.68-15.15c-.67,.11-.99,.41-1,1.18-.01,1.11,.48,2.09,.66,3.14,.2,1.2-.21,2.03-1.19,2.25-.76,.17-1.64-.61-1.82-1.65-.19-1.05-.39-2.11-.51-3.17-.08-.66-.41-.81-.97-.65-.45,.14-.88,.36-1.33,.48-.54,.14-.72,.49-.61,.98,.63,2.63,.63,5.36,1.41,7.97,.52,1.76,.46,1.78,1.59,1.74,3.07-.05,5.35-.68,7.65-1.12,2.91-.55,5.81-1.25,8.72-1.87,4.49-.96,8.98-1.89,13.07-4.07,1.34-.71,3.04-.81,3.9-2.49,.75-1.44,.46-2.7-1-3.45-2.13-1.1-4.45-1.13-6.71-1.39-2.24-.26-2.6,.36-2.24,2.65,.22,1.36,.29,2.75,.33,4.13,.02,.94-.43,1.68-1.46,1.68-1-.01-1.33-.81-1.42-1.64-.21-1.84-.39-3.69-.5-5.54-.05-.88-.35-1.15-1.25-1.07-5.13,.46-10.24,1.05-15.32,1.91Zm-2.98-2.47c2.96-.48,5.9-1,8.86-1.43,3.04-.44,6.08-.73,9.14-.94,3.79-.26,7.66-.68,11.38,.18,2.55,.59,5.5,1.22,6.29,4.51,.24,1,.59,1.99,.27,3.05-.19,.64,.23,.88,.78,.9,.56,.03,1.13,.06,1.67-.03,3.85-.6,7.74-.45,11.61-.86,2.88-.31,5.81-.26,8.72-.28,1.7-.02,3.39-.32,5.1-.02l-.15,2.88c-.06,0-.13,0-.2,0-1.5,.09-3,.11-4.5,.14-2.95,.06-5.91-.08-8.83,.21-3.88,.38-7.77,.45-11.79,.9-.29,0-.73-.02-1.17,.01-.29,.01-.63,.13-.58,.47,.13,.99-.18,1.96-.14,2.95,.02,.6,.33,.77,.91,.82,2.87,.25,5.75,.15,8.63,.16,1.3,.01,2.24-.17,2.97-1.37,.46-.76,1.22-1.4,2.14-1.62,.6-.14,1.18-.25,1.76-.3l.28,2.86c-.34,.03-.68,.1-1.03,.24-.59,.23-1.11,.58-1.2,1.19-.09,.58,.53,.72,.95,.9,.42,.19,.71,.48,1,.82,1.82,2.14,3.59,4.33,5.51,6.37,1.8,1.92,3.75,3.71,5.15,5.94,1.05,1.67,2.43,2.58,4.34,2.71,1.06,.07,2.13,.01,3.19,.01,1.81,.24,3.56-.19,5.28-.67,.56-.15,1.35-.41,1.26-1.21-.07-.75-.59-1.28-1.35-1.53-1.69-.54-3.39-1.03-5.16-1.03l.06-2.82c.26,.02,.52,.02,.78,.02,1.95,0,3.79,.47,5.54,1.21,1.63,.69,2.84,1.88,3.28,3.7,.25,1.07-.53,3-1.54,3.53-2.73,1.45-5.64,2.03-8.73,1.84-1.22-.07-2.44-.1-3.66-.25-2.52-.32-4.25-1.7-5.59-3.68-1.43-2.11-3.27-3.86-5.02-5.69-1.23-1.29-2.32-2.72-3.52-4.04-1.01-1.11-2.04-2.22-3.17-3.21-1.11-.98-2.56-1.16-3.95-.99-2.59,.32-5.16-.08-7.74-.01-1.19,.03-1.59,.34-1.77,1.55-.92,5.98-3.07,11.51-6.77,16.31-1.55,2.01-3.47,3.73-5.61,5.24-1.91,1.34-3.87,2.54-5.96,3.46-2.32,1.01-4.75,1.73-7.39,1.38-2.24-.3-4.52-.31-6.78-.54-2.13-.22-4.05-1.17-5.93-2.08-4.17-2.03-7.6-4.9-10.01-8.99-1.23-2.1-2.31-4.24-3.18-6.49-.64-1.68-.76-3.48-1.14-5.23-.45-2.05-.76-4.14-1.16-6.21-.45-2.34,.71-4.23,1.73-6.14,1.59-2.98,4.31-4.53,7.29-5.79,2.88-1.23,5.74-2.51,8.85-3.02Z"/></g></g></svg>