<?xml version="1.0" encoding="UTF-8"?><svg id="Layer_2" xmlns="http://www.w3.org/2000/svg" viewBox="0 0 111.05 159.98"><defs><style>.cls-1{fill:#f3a2c5;}.cls-2{fill:#ee5d67;}.cls-3{fill:#cce8f7;}</style></defs><g id="Layer_8"><g><path class="cls-3" d="M46.09,78.15s-35.24,6.2-31.97,21.39c3.27,15.18,16.59,40.9,16.59,40.9,0,0,9.63,10.84,21.4,11.96,11.77,1.12,35.8-10.57,35.8-10.57,0,0,15.96-17.18,14.23-47.31,0,0,7.6-8.54,7.22-19.05,0,0-21.98-7.08-31.38-5s-31.89,7.68-31.89,7.68Z"/><path class="cls-2" d="M70.35,46.35l8.98,6.22L100.66,15.16s8.53-10.21-.67-12.76-23.47,28.64-23.47,28.64l-6.17,15.32Z"/><polygon class="cls-1" points="64.55 53.62 76.52 59.43 79.33 52.57 70.35 46.35 64.55 53.62"/><path class="cls-1" d="M39.76,95.75s-8.34-5.72-8.62-15.54-10.02-5.28-10.02-5.28l-3.01,8.42-10.5-3.13s-8.53,6.4,6.51,19.32c15.04,12.92,16.24,30.16,16.24,30.16,0,0,9.13,15.66,15.73,13.18,6.6-2.48,21.18-10.83,21.18-10.83l17.59,1.92s7.56-2.41,7.56-25.45,3.6-26.15,3.6-26.15c0,0-4.99-5.24-7.16-3.85s-7.83,8.21-7.83,8.21l-3.2,16.6-13.28,4.99-6.37,9.1s-4.42,7.42-18.42-21.67Z"/><g><path class="cls-3" d="M51.73,153.14c.41-.24,.81-.48,1.33-.45,.6,.03,1.2,.01,1.79,.01,2.31,.28,4.26-1.09,6.42-1.48,1.51-.27,3.03-.61,4.56-.84,2.4-.35,4.72-1.03,6.97-1.85,2.52-.92,5.1-1.67,7.59-2.67,2.44-.99,4.79-2.09,6.96-3.54,.73-.5,1.2-.46,1.67,.24,.43,.64,1.33,.87,1.38,1.84,.07,1.31-.77,2.02-1.64,2.73-2.32,1.89-5.08,2.56-7.94,3.2-4.31,.96-8.62,1.91-12.92,2.86-3.88,.86-7.53,2.61-11.53,2.86-1.3,.08-2.59,.28-3.91,.18-.76-.06-1.55-.1-1.7-.94-.16-.84,.15-1.67,.97-2.15Z"/><path class="cls-3" d="M23.66,132.88c.97,.64,1.47,2.15,1.01,3.26-.75,1.81-1.78,3.49-3.21,4.8-1.77,1.64-4.03,1.75-6.08,.8-3.89-1.8-6.52-4.92-8.29-8.79-.92-1.99-1.75-4.01-2.39-6.1-.7-2.27-1.11-4.63-.93-7.02,.09-1.26,.02-2.52,.22-3.8,.6-3.76,3.16-4.99,6.11-5.55,.91-.18,1.87-.32,2.84-.09,.64,.15,1.11,.47,1.47,.94,.83,1.12,.42,2-.96,2.24-1.54,.26-2.53,1.24-3.2,2.58-1.04,2.08-1.23,4.27-.87,6.55,.48,2.99,1.74,5.67,3.16,8.28,1.05,1.93,3.82,3.6,6.37,3.44,.98-.02,2.8-.1,4.24-1.45,.14-.13,.27-.25,.51-.09Z"/><path d="M87.29,104.5c.34,3.35-2.9,7.28-6.26,7.84-1.05,.17-1.99-.27-2.28-1.2-.24-.74-.11-1.31,.64-1.68,.82-.41,1.63-.81,2.4-1.32,1.44-.95,2.19-2.21,2.17-3.94,0-.6,.02-1.2,.08-1.79,.11-1.1,.9-1.44,1.84-1.48,.93-.05,1.14,.74,1.38,1.39,.27,.72,.09,1.49,.03,2.18Z"/><path d="M83.7,123.23c.08,2.13-1.73,4.49-3.91,5.15-2.99,.92-6.05,.87-9.13,.85-1.82-.02-3.63,.32-5.45,.49-3.62,.36-6.95,1.84-10.43,2.75-1.5,.39-2.88,1.27-4.11,2.32-.84,.72-1.88,1.22-2.69,1.98-1.81,1.71-5.75,1.24-7.19-.69-.91-1.2-1.79-2.32-1.78-3.91,.01-1.27,.53-2.07,1.52-2.2s1.55,.38,1.86,1.72c.06,.23,.05,.49,.13,.71,.81,2,2.05,2.74,4.02,1.13,2.55-2.11,5.34-3.7,8.52-4.76,2.41-.81,4.83-1.68,7.28-2.14,3.33-.62,6.75-1.03,10.19-.87,2.22,.1,4.43-.06,6.53-.91,.8-.32,1.18-.91,1.27-1.72,.18-1.56,.72-2.22,1.81-2.15,1.02,.06,1.5,.76,1.56,2.25Z"/><path d="M75.87,112.99c.29,.89-.33,1.33-.85,1.79-.26,.23-.67,.26-.97,.45-.53,.35-1.03,.71-.59,1.51,.53,.94,.15,2.01-.8,2.5-.85,.44-2.18,.02-2.58-.86-1.12-2.43,.45-6.61,4.22-6.6,.69-.06,1.29,.31,1.57,1.21Z"/><path d="M55.93,145.48c-.74,.02-1.2-.36-1.41-1.04-.23-.74-.01-1.34,.62-1.78,.91-.65,1.94-.77,3.03-.88,1.25-.12,2.46-.52,3.69-.8,2.48-.32,4.9-.9,7.26-1.74,2.09-.74,4.23-1.34,6.35-1.98,.21-.06,.41-.1,.61-.1,.51,0,.95,.24,1.21,.82,.33,.74,.29,1.46-.35,2.08-.53,.52-1.19,.87-1.84,1.05-.49,.13-.97,.28-1.45,.42-3.46,1.06-6.83,2.38-10.45,2.86-2.08,.27-4.13,.7-6.2,1.04-.35,.06-.71,.05-1.07,.05Z"/><path d="M45.47,122.54c.41,.85,.14,1.75-.72,2.3-.8,.5-1.41,0-2.02-.48-.39-.3-.66-.68-.84-1.13-.86-2.09-2.58-3.06-4.67-3.38-.78-.12-1.63,.08-2.25,.79-.83,.94-1.83,1-2.58,.23-.73-.74-.68-1.81,.18-2.64,1.09-1.05,2.33-1.78,3.94-1.69,1.65,.25,3.43-.08,4.9,.97,1.8,1.29,3.12,3.04,4.06,5.03Z"/><path d="M36.5,101.12c1.73,.42,4.16,3.22,3.36,5.46-.29,.83-.79,1.25-1.64,1.29-.86-.05-1.51-.49-1.61-1.33-.11-.94-.61-1.6-1.17-2.28-.23-.27-.45-.56-.59-.88-.29-.65-.08-1.26,.26-1.82,.33-.53,.91-.55,1.39-.44Z"/><path d="M25.48,83.52c.68,1.21,.77,2.57,.91,3.76-.13,2.23-1.16,4.52-2.99,4.95-.8,.19-1.41,.09-1.9-.52-.45-.59-.45-1.16-.02-1.86,.36-.6,1.08-.91,1.24-1.54,.26-1.07,.4-2.16-.26-3.22-.57-.91-.28-1.88,.55-2.34s1.97-.13,2.47,.77Z"/><path d="M13.17,87.05c.42,1.46,1.64,1.58,2.81,1.79,.89,.15,1.43,.6,1.54,1.36,0,1.31-1.03,2.12-2.35,1.93-1.66-.23-3.23-.67-4.44-1.98-.6-.64-.84-2.03-.34-2.86,.42-.69,.96-1.13,1.88-.92,.45,.11,.81,.36,.9,.68Z"/><path d="M54.85,152.7c-.59,0-1.19,.02-1.79-.01-.52-.03-.92,.21-1.33,.45-.82,.48-1.13,1.31-.97,2.15,.15,.84,.94,.88,1.7,.94,1.32,.1,2.61-.1,3.91-.18,4-.25,7.65-2,11.53-2.86,4.3-.95,8.61-1.9,12.92-2.86,2.86-.64,5.62-1.31,7.94-3.2,.87-.71,1.71-1.42,1.64-2.73-.05-.97-.95-1.2-1.38-1.84-.47-.7-.94-.74-1.67-.24-2.17,1.45-4.52,2.55-6.96,3.54-2.49,1-5.07,1.75-7.59,2.67-2.25,.82-4.57,1.5-6.97,1.85-1.53,.23-3.05,.57-4.56,.84-2.16,.39-4.11,1.76-6.42,1.48ZM12.05,107.04c.87,.24,1.05-.31,.8-1.02-.87-2.52-1.49-5.1-2.05-7.7-.24-1.1-1.42-1.48-2.2-2.1-2.45-1.95-4.43-4.18-5.81-7.05-1.05-2.17-1.79-4.31-1.11-6.61,.69-2.34,2.93-5.29,5.63-5.02,1.74,.17,3.21,.93,4.35,2.23,.78,.88,1.79,1.2,2.86,1.25,.9,.04,1.61-.52,1.78-1.44,.23-1.27,.77-2.42,1.13-3.64,.82-2.73,4.39-4.88,7.08-4.15,1.77,.48,3.25,1.49,4.39,2.92,1.17,1.49,2.34,3,2.78,4.91,.13,.57,.38,.51,.84,.31,3.26-1.38,6.63-2.38,10.09-3.09,1-.21,1.97-.56,2.98-.71,.36-.06,.53-.27,.69-.59,1.37-2.79,3.5-4.94,5.69-7.09,1.75-1.71,3.27-3.66,4.86-5.53,1.57-1.84,2.7-3.95,3.93-6.02,1.31-2.21,2.36-4.47,3.37-6.79,.53-1.21,1.28-2.32,2.13-3.3,1.58-1.8,2-4.11,2.89-6.19,.51-1.2,.99-2.43,1.64-3.54,2.1-3.61,4.21-7.21,6.45-10.72,2.17-3.4,4.05-6.96,6.24-10.35,2.19-3.37,4.42-6.7,7.24-9.55,2.15-2.16,4.18-4.49,7.01-5.85,1.6-.78,3.06-.21,4.22,.73,1.57,1.28,3.35,2.49,3.73,4.78,.08,.49,.1,.93,.01,1.4-.66,3.54-2.35,6.63-4.07,9.73-1.6,2.88-2.99,5.88-4.7,8.68-1.64,2.71-3.14,5.49-4.68,8.25-1.23,2.2-2.54,4.37-3.72,6.61-.86,1.62-1.92,3.16-2.9,4.74-1.03,1.68-1.82,3.51-2.95,5.11-.94,1.32-1.31,2.83-1.98,4.22-.72,1.48-1.49,3.05-2.73,4.16-1.5,1.34-2.03,3.14-2.47,4.91-.31,1.21-.66,2.5-.5,3.86,.09,.81,.33,1.03,1.08,.9,2.81-.48,5.68-.52,8.47-1.11,.76-.16,1.47-.1,2.21,.2,1.99,.81,4.14,.67,6.22,.94,1.99,.26,3.87,.84,5.5,1.97,.71,.5,1.36,.71,2.19,.64,1.97-.18,3.94-.35,5.91-.45,2.29-.12,4.39,2.03,4.22,4.37-.13,1.93-.1,3.88-.18,5.81-.18,3.95-1.64,7.32-3.68,10.56-.68,1.07-1.35,2.14-1.99,3.24-.24,.42-.47,.91-.91,1.06-.94,.31-1.02,.99-.97,1.78,.23,4.08-.58,8.08-.93,12.11-.22,2.53-.71,5.01-1.28,7.47-.25,1.09-.36,2.25-.93,3.27-.8,1.45-.76,3.13-1.2,4.69-.64,2.21-1.48,4.33-2.23,6.49-1.01,2.94-3.03,5.19-5.17,7.35-.47,.48-.37,.64,.07,.95,3,2.13,3.46,6.11,.64,8.73-1.99,1.86-4.16,3.21-6.78,3.95-3.26,.93-6.55,1.66-9.87,2.32-3.49,.71-6.98,1.46-10.42,2.38-2.21,.59-4.38,1.35-6.63,1.83-2.11,.45-4.28,.43-6.4,.49-1.57,.04-3.22-.87-4.14-2.29-.65-1.01-.77-2.31-.42-3.56,.43-1.53,.42-1.73-1.04-1.94-3.22-.45-5.98-1.98-8.77-3.46-3.95-2.08-7.03-5.07-9.33-8.88-.24-.4-.49-.82-1.04-1.01-.57,1.49-1.6,2.71-2.48,4-1.22,1.78-3.12,2.71-5.29,3.02-3.47,.5-6.42-.77-9.05-2.8-1.36-1.06-2.46-2.46-3.61-3.76-2.12-2.38-3.08-5.38-4.35-8.22-1.61-3.63-2.21-7.46-2.16-11.37,.04-2.93,.27-5.88,2.11-8.41,1.82-2.5,4.44-3.51,7.32-4,.77-.13,1.56-.24,2.37-.01Zm90.11-32.37c-.44,.12-.22,.53-.25,.82-.09,.86,.3,1.72-.04,2.71,1.43-.85,2.58-1.83,3.68-2.86,.21-.2,.78-.59,.16-.75-1.15-.3-2.37-.25-3.55,.08Zm3.95,11.24c.77-2.27,1.26-4.67,1.01-7.2-1.72,1-2.93,2.47-4.51,3.45-.37,.23-.22,.55-.21,.85,.09,1.55,.25,3.1,.22,4.64,0,.88,.33,1.72,.12,2.61-.03,.17,.16,.44,.32,.59,.14,.12,.28-.07,.36-.2,.92-1.57,2.12-3.05,2.69-4.74Zm-5.98-73.24c.9-1.79,2-3.55,2.03-6.16-.26-.64-1.01-1.46-1.93-2.16-.67-.51-1.25-.54-2.05-.06-.91,.53-1.61,1.24-2.34,1.96-1.32,1.31-2.76,2.52-3.93,3.96-2.39,2.95-4.65,6.01-6.51,9.36-1.42,2.55-3.16,4.92-4.57,7.48-1.94,3.5-4.27,6.75-6.16,10.29-1.23,2.31-2.3,4.64-3.23,7.08-.41,1.09,.05,1.43,.87,1.74,.15,.05,.31,.09,.45,.16,1.8,.9,3.68,1.69,5.37,2.77,.96,.6,1.27,.33,1.7-.43,1.24-2.21,2.47-4.43,3.75-6.61,1.51-2.56,3.27-4.99,4.56-7.65,1.45-3,3.27-5.76,4.8-8.71,1.2-2.32,2.56-4.6,3.9-6.87,1.18-2,2.26-4.07,3.29-6.15Zm-.98,92.84c.42-3.31,.53-6.64,.5-9.97-.04-3.51-.38-7.02-.61-10.53-.06-.94-.05-1.9-.5-2.71-1.47,.5-2.3,1.45-2.6,2.96-.14,.76-.58,1.48-.98,2.16-.26,.45-.35,.89-.3,1.37,.2,1.97,.37,3.95,.31,5.94-.1,3.64,.07,7.32-.31,10.93-.35,3.28-.73,6.56-1.5,9.83-1.27,5.36-2.89,10.61-4.61,15.83-.57,1.72-2.26,2.84-4.07,2.85-2.27,.02-4.56-.18-6.8,.1-.6,.07-1.19,.12-1.79,.16-2.47,.19-4.97,.23-7.39,.91-1.68,.48-3.48,.56-5.12,1.12-2.65,.91-5.35,1.78-7.77,3.24-1.7,1.02-3.53,1.77-5.1,3.03-.95,.76-2.1,1.48-3.48,1.29-1.94-.27-3.85-.54-5.61-1.63-2.09-1.3-4.32-2.48-5.95-4.3-1.92-2.14-3.9-4.27-5.15-6.94-1.11-2.36-2.34-4.66-3.52-6.99-1.4-2.76-2.3-5.74-3.57-8.55-.98-2.17-1.68-4.43-2.33-6.71-.33-1.18-.17-2.47-1.02-3.57-1.3-1.68-2.59-3.29-4.68-4.16,.25,.83,.3,1.66,.53,2.45,1.16,4.12,2.36,8.22,3.97,12.21,1.51,3.75,2.84,7.56,4.73,11.16,1.82,3.49,3.87,6.83,6.17,10.01,.91,1.25,1.76,2.53,2.78,3.71,1.45,1.67,3.15,2.96,5.01,4.14,1.51,.96,3.04,1.86,4.69,2.52,4.01,1.62,8.22,1.94,12.48,1.88,.37-.01,.75,.01,1.04-.22,1.13-.88,2.54-.9,3.83-1.14,4.2-.76,8.4-1.47,12.44-2.92,.55-.19,.99-.58,1.56-.77,.09-.03,.17-.05,.26-.07,2.12-.46,4.12-1.37,6.13-2.19,3.02-1.24,5.55-3.19,8.03-5.29,2.46-2.08,3.85-4.76,4.95-7.67,1.02-2.72,1.7-5.52,2.45-8.31,.83-3.06,1.82-6.07,2.16-9.25,.21-1.97,.49-3.94,.74-5.91Zm-1.76-27.18c.67-.68,1-3.54,.35-3.96-1.04-.69-2.06-1.41-3.27-1.86-1.82-.67-3.71-.3-5.54-.7-1.51-.33-3.07-.44-4.28-.61-.8,.06-1.27,.09-1.74,.14-1.94,.21-3.88,.41-5.81,.65-.82,.1-1.27,.38-.99,1.42,.29,1.09,.42,2.26,.55,3.37,.33,2.82,.51,5.68-.5,8.46-.37,1.02-.16,1.12,.96,.91,2.03-.38,3.13-1.69,4.02-3.48,1.27-2.53,3.14-4.63,5.81-5.74,2.83-1.18,5.37-.27,7.68,1.48,1.53,1.17,1.52,1.18,2.76-.08Zm-5.92,8.28c.18-.46,.67-.81,.51-1.47-2.37,1.06-4.85,1.73-7.32,2.42-1.37,.38-2.6,.93-2.9,2.63-.45,2.61-1.12,5.18-1.54,7.79-.67,4.09-2.54,7.07-6.64,8.57-1.66,.6-3.21,1.22-5.01,1.29-1.96,.07-3.37,1.07-4.52,2.77-.98,1.44-1.57,3.04-2.45,4.49-.75,1.24-1.52,2.61-2.79,3.21-2.68,1.27-5.48,.82-8-.49-3.76-1.96-4.99-5.83-6.44-9.42-1.05-2.59-1.61-5.37-3.06-7.81-1.23-2.08-2.09-2.86-4.41-2.15-.49,.15-1.02,.15-1.53,.25-2.64,.52-5.27,1.1-7.92,1.56-1.8,.32-3.62,.45-5.43,.71-.49,.07-1.15,.14-.45,.93,1.36,1.55,2.47,3.28,3.8,4.86,1.34,1.59,2.8,2.15,4.77,1.63,.66-.18,1.25-.5,1.89-.72,1.03-.36,2.07,.33,2.01,1.33-.07,.97-.47,1.86-1.39,2.23-2.12,.87-4.3,1.41-6.52,.21-.22-.12-.47-.43-.75-.18-.29,.25,0,.51,.12,.74,1.41,2.89,2.3,5.99,3.66,8.91,1.28,2.72,2.67,5.39,3.93,8.12,1,2.15,2.58,3.9,4.09,5.69,2.39,2.84,5.47,4.62,8.96,5.72,.55,.17,1.19,.29,1.73-.08,1.79-1.24,3.63-2.37,5.55-3.41,2.59-1.4,5.24-2.58,8.01-3.47,1.91-.62,3.84-1.11,5.84-1.42,2.37-.38,4.73-.77,7.11-1.03,3.18-.34,6.36-.15,9.54-.17,1.04-.01,1.34-.49,1.58-1.37,.48-1.71,1.02-3.42,1.68-5.07,.99-2.51,1.43-5.18,2.15-7.77,.44-1.55,.72-3.22,1.04-4.81,.6-2.94,.49-5.9,.95-8.82,.27-1.76,.27-3.61,.12-5.39-.21-2.41,.38-4.82-.24-7.24-.31-1.21-.24-2.54,.27-3.77Zm1.06-5.4c-1.41-1.32-2.52-1.5-4.62-.78-1.37,.47-3.15,2.33-3.34,3.52,2.74-.59,5.26-1.78,7.96-2.74Zm-14.34,9.17c.14-.72,.15-1.11-.86-.87-3.85,.91-7.72,1.73-11.58,2.58-4.26,.95-8.38,2.41-12.65,3.29-1.04,.21-2.06,.58-3.1,.66-2.2,.16-4.28,.87-6.66,1.06,1.65,2.74,2.79,5.47,3.72,8.27,.7,2.12,1.48,4.19,2.49,6.18,1.22,2.42,3.15,3.69,5.82,3.92,1.77,.15,2.2-.11,2.96-1.7,.51-1.08,1.05-2.14,1.61-3.19,1.86-3.49,4.37-6.05,8.64-6.2,.97-.03,1.69-.89,2.63-1.05,3.46-.58,4.95-2.02,5.51-5.24,.44-2.58,.97-5.14,1.47-7.71Zm-.52-37.38c-.13-.12-.27-.25-.43-.36-2.32-1.52-4.88-2.6-7.38-3.77-.57-.26-1.01-.09-1.29,.47-.5,.99-.91,2.04-1.53,2.95-.53,.77-.36,.94,.45,1.14,2.23,.56,4.45,1.24,6.48,2.3,.92,.47,1.49,.16,2.02-.26,.76-.62,1.23-1.52,1.68-2.47Zm-5,31.82c.81-2.13,.77-4.32,.62-6.47-.09-1.23-.13-2.51-.44-3.75-.36-1.46-.77-1.72-2.13-1.25-.52,.17-1.04,.27-1.62,.29-.64,.02-1.47,.05-1.5,1.12-.05,2.03-.19,4.05-.27,6.07-.08,1.95-.28,3.84-1.32,5.57-.39,.66-.6,1.42-.95,2.27,.86-.2,1.52-.35,2.17-.52,.65-.16,1.29-.42,1.95-.49,1.86-.2,2.84-1.12,3.49-2.84Zm-1.07-19.12c.41-2.14,.97-4.22,1.65-6.3-1.75,2.78-3.26,5.65-4.3,8.76-.21,.63-.74,1.38-.26,1.88,.33,.32,1.12-.06,1.67-.32,.14-.06,.32-.08,.47-.06,.9,.15,.83-.4,.77-1.01-.09-.98-.19-1.95,0-2.95Zm-4.97-8.08c.15-.32,.57-.65-.05-.9-.46-.17-.92-.29-1.1,.41-.12,.46-.28,1-.73,1.18-1.34,.55-1.77,1.73-2.23,2.92-.09,.22-.18,.44-.32,.63-2.26,3.05-4.83,5.84-7.44,8.6-1.17,1.23-2.36,2.44-3.65,4.04,1.08-.3,1.83-.41,2.55-.57,1.4-.32,2.68-.71,3.62-2.14,.85-1.27,1.89-2.5,2.94-3.66,1.63-1.8,2.92-3.85,4.18-5.91,.89-1.46,1.52-3.05,2.23-4.6Zm-2.25,13.27c.61-1.24,.93-2.62,1.37-3.94-1.08,1.65-2.71,2.81-3.69,4.64,.98-.01,1.96,.02,2.32-.7Zm-.34,5.33c.06-.96-.09-1.48-1.33-1.13-1.21,.33-2.35,.99-3.68,.88-.33-.03-.53,.26-.71,.56-1.63,2.68-2.48,5.62-2.96,8.7-.26,1.68-.18,3.32,.2,4.97,.17,.72,.53,.94,1.19,.74,1.06-.33,2.09-.73,3.16-1.02,.69-.2,1.06-.61,1.33-1.24,.6-1.42,1.27-2.82,1.88-4.23,.19-.44,.35-.9,.45-1.36,.44-2.03,.33-4.1,.47-6.04,0-.35,0-.59,0-.83Zm-10.49,2.24c.36-.75,.06-1.02-.75-.77-1.2,.37-2.41,.72-3.63,1.06-.41,.11-.67,.32-.83,.74-.86,2.28-1.39,4.62-1.31,7.07,0,.6-.03,1.2,0,1.8,.17,2.97,1.93,4.47,4.47,3.82,.65-.16,.9-.37,.72-1.23-.38-1.93-.69-3.9-.35-5.92,.38-2.24,.66-4.49,1.67-6.57Zm-8.4,14.89c-.13-.33-.21-.6-.34-.84-1.31-2.6-1.62-5.33-1.17-8.19,.16-1.08,.04-2.2,.63-3.23,.2-.37,.61-1.24-.77-.9-1.72,.43-3.39,.99-5.1,1.46-1.63,.44-3.24,.92-4.81,1.58-.6,.25-.59,.61-.45,1.01,.89,2.69,1.43,5.57,3.53,7.68,1.3,1.32,2.58,2.65,4.85,2.03,1.11-.3,2.3-.54,3.63-.6Zm-10.38,1.9c.19-.43-.28-.62-.53-.83-1.57-1.38-2.37-3.26-3.09-5.12-.85-2.2-1.44-4.52-2.15-6.78-.82-2.58-1.82-5.05-4.09-6.76-.91-.68-1.79-.82-2.85-.22-1.77,1-1.95,2.88-2.32,4.45-.87,3.72-4.57,5.68-8,4-1.35-.66-2.32-1.8-3.56-2.61-.82-.53-1.55-.52-2.08,.24-.53,.77-1.1,1.58-1.08,2.6,.04,2.88,1.4,5.16,3.35,7.09,1.83,1.82,3.98,3.3,5.89,5.03,1.2,1.08,2.46,1.36,3.92,1.33,.79-.01,1.57-.1,2.17-.14,1.2,.1,2.17-.19,3.14-.32,2.39-.31,4.82-.36,7.15-1.12,1.01-.33,2.1-.4,3.16-.56,.35-.05,.8,.12,.97-.28Zm-10.1,40.89c.46-1.11-.04-2.62-1.01-3.26-.24-.16-.37-.04-.51,.09-1.44,1.35-3.26,1.43-4.24,1.45-2.55,.16-5.32-1.51-6.37-3.44-1.42-2.61-2.68-5.29-3.16-8.28-.36-2.28-.17-4.47,.87-6.55,.67-1.34,1.66-2.32,3.2-2.58,1.38-.24,1.79-1.12,.96-2.24-.36-.47-.83-.79-1.47-.94-.97-.23-1.93-.09-2.84,.09-2.95,.56-5.51,1.79-6.11,5.55-.2,1.28-.13,2.54-.22,3.8-.18,2.39,.23,4.75,.93,7.02,.64,2.09,1.47,4.11,2.39,6.1,1.77,3.87,4.4,6.99,8.29,8.79,2.05,.95,4.31,.84,6.08-.8,1.43-1.31,2.46-2.99,3.21-4.8Zm-5.15-5.29c1.41-.18,2.03-1.04,1.6-2.39-.23-.74-.66-1.43-.95-2.17-.65-1.65-1.73-3.13-2.09-4.87-.24-1.13-.8-2.08-1.23-3.08-.31-.7-1.12-1.15-1.84-1.42-.91-.34-1.78,.42-2.03,1.82-.48,2.59-.22,5.1,1.06,7.46,.47,.86,.92,1.74,1.3,2.64,.48,1.15,1.77,2.13,3.17,2.18,.23-.04,.62-.12,1.01-.17Z"/></g></g></g></svg>