<?xml version="1.0" encoding="UTF-8"?><svg id="Layer_2" xmlns="http://www.w3.org/2000/svg" viewBox="0 0 82.64 87.09"><defs><style>.cls-1{fill:#f3a2c5;}.cls-2{fill:#f9da69;}.cls-3{fill:#ee5d67;}</style></defs><g id="Layer_8"><g><path d="M82.2,26.08c.7,2.24,.43,4.49,.11,6.74-.14,.97-.17,1.95-.2,2.94-.05,2.17-1.67,6.19-4.46,7.19-1.22,.44-2.46,.08-3.67,.22-2.8,.24-5.44-.65-8.14-1.07-5.09-.79-10.09-2.09-15.25-2.54-3.71-.33-7.37-1.13-11.06-1.53-3-.32-6.04-.36-8.98-1.09-2.66-.65-5.35-1.24-7.93-2.16-2.91-1.04-3.98-2.25-3.89-4.48,.07-1.54,.38-3.21,1.34-4.4,1.39-1.73,1.62-3.84,2.46-5.73,.93-2.06,1.58-4.24,3.17-5.94,1.79-1.92,3.97-3.2,6.52-3.7,1.7-.34,3.45-.43,5.19-.52,.79-.04,1.03-.22,.93-1.04-.35-3.03,3.01-5.07,5.39-4.21,1.47,.52,2.94,1.41,4.69,.79,1.04-.36,1.73-1.1,2.54-1.72,2.06-1.57,4.2-2.99,6.77-3.63,3.83-.94,7.36,1.46,7.86,5.33,.16,1.24,.66,2.26,2.02,2.82,1.32,.55,2.77,.88,3.7,2.25,.83,1.23,.93,2.44,.38,3.69-.33,.75-.12,.93,.56,1.14,1.62,.51,3.27,.98,4.74,1.9,2.82,1.76,4.41,4.35,5.02,7.58,.07,.39,.07,.79,.19,1.17Zm-2.57,3.72c.04-1.89-.44-3.68-.95-5.49-.82-2.93-2.82-4.63-5.53-5.57-3.22-1.12-6.59-1.71-9.96-2.22-4.42-.67-8.71-1.9-13.08-2.8-3.27-.69-6.59-1.24-9.92-.97-2.8,.23-5.61,.36-8.38,1.03-2.02,.49-3.37,1.66-4.39,3.18-.98,1.46-1.57,3.18-2.3,4.79-.61,1.34-.56,1.4,.86,1.48,.2,.01,.41,.01,.59,.08,1.64,.72,3.39,.87,5.14,.91,3.41,.08,6.76,.59,10.1,1.19,1.41,.26,2.74,.77,4.17,.95,2.18,.28,4.39,.08,6.54,.41,2.94,.46,5.9,.77,8.86,1.01,5.47,.46,10.7,1.9,15.85,3.67,2.37,.81,2.33,.93,2.4-1.65Zm-.7,6.76c.21-.88,.04-1.3-.82-1.62-2.14-.78-2.13-.81-2.29,1.5-.01,.08-.02,.16-.02,.24h-.07c0,.79,.04,1.59-.02,2.37-.03,.41-.43,.96,.07,1.16,.54,.21,1.13,0,1.56-.53,.76-.93,1.31-1.93,1.59-3.12Zm-6-1s-.04-.01-.06-.01c0-.75,.22-1.6-.06-2.23-.25-.58-1.22-.35-1.82-.65-.27-.14-.59-.22-.89-.31-2.28-.69-4.64-.99-6.99-1.37-3.73-.6-7.5-1.13-11.24-1.19-4.06-.07-7.93-.95-11.86-1.66-1.79-.32-3.6-.57-5.39-.91-1.47-.29-3.06,.19-4.59-.11-1.09-.21-1.94-.19-1.88,1.3,.01,.36-.3,.72-.46,1.09-.4,.92-.6,1.88-.71,2.88-.03,.33-.04,.5,.33,.6,2.12,.61,4.26,1.21,6.45,1.51,3.11,.43,6.26,.53,9.34,1.06,4.9,.84,9.86,1.04,14.74,2.02,4.38,.88,8.77,1.68,13.16,2.51,1.25,.24,1.53,.12,1.66-1.08,.13-1.15,.19-2.3,.27-3.45Zm-3.99-22.38c.53-.84-.5-1.16-1.04-1.56-.75-.55-1.74-.47-2.51-.99-1.88-1.26-2.49-3.18-2.92-5.24-.4-1.88-1.97-2.7-3.84-2.22-2.65,.68-4.82,2.13-6.91,3.83-1.66,1.35-3.55,2.04-5.82,1.54-1.08-.24-2.03-.95-3.18-.83-.47-.03-.92-.17-1.23,.42-.46,.89,.07,1.63,1.51,1.66,2.11,.04,4.15,.35,6.18,.91,.5,.14,1.24,.2,1.6-.07,1.11-.82,2.4-1.34,3.34-2.45,1.68-1.97,3.6-2.01,5.51-.29,.73,.66,1.06,1.56,1.29,2.5,.22,.86,.52,1.69,1.38,2.14,1.42,.73,2.78,1.52,4.45,1.68,1.05,.1,1.79-.4,2.19-1.03Zm-10.62-.82c.34-.71-.31-1.59-.78-2.31-.04-.06-.09-.13-.14-.18-.24-.2-.48-.26-.74-.01-.58,.56-1.18,1.12-1.85,1.76,.6,.19,1.07,.34,1.55,.48,.67,.2,1.74,.72,1.96,.26ZM25.36,27.33c.34-.78,.26-1.38-.87-1.02-1.61,.19-3.21,2.89-2.62,4.44,.29,.74,.98,1.14,1.65,1.21,.64,.07,.56-.73,.68-1.17,.32-1.18,.67-2.34,1.16-3.46Z"/><path class="cls-1" d="M78.68,24.31c.51,1.81,.99,3.6,.95,5.49-.07,2.58-.03,2.46-2.4,1.65-5.15-1.77-10.38-3.21-15.85-3.67-2.96-.24-5.92-.55-8.86-1.01-2.15-.33-4.36-.13-6.54-.41-1.43-.18-2.76-.69-4.17-.95-3.34-.6-6.69-1.11-10.1-1.19-1.75-.04-3.5-.19-5.14-.91-.18-.07-.39-.07-.59-.08-1.42-.08-1.47-.14-.86-1.48,.73-1.61,1.32-3.33,2.3-4.79,1.02-1.52,2.37-2.69,4.39-3.18,2.77-.67,5.58-.8,8.38-1.03,3.33-.27,6.65,.28,9.92,.97,4.37,.9,8.66,2.13,13.08,2.8,3.37,.51,6.74,1.1,9.96,2.22,2.71,.94,4.71,2.64,5.53,5.57Zm-4.81,1.76c.69-.24,1.07-.68,.96-1.38-.02-1.17-.42-2.03-1.35-2.71-1.03-.76-2.11-1.39-3.32-1.79-.3-.1-.62-.14-.94-.19-1.15-.17-2.03,.32-2.1,1.24-.08,1.08,.65,1.52,1.58,1.77,1.45,.38,2.94,.68,3.58,2.38,.23,.62,.86,.93,1.59,.68Z"/><path class="cls-1" d="M78.11,34.94c.86,.32,1.03,.74,.82,1.62-.28,1.19-.83,2.19-1.59,3.12-.43,.53-1.02,.74-1.56,.53-.5-.2-.1-.75-.07-1.16,.06-.78,.02-1.58,.02-2.37h.07c0-.08,.01-.16,.02-.24,.16-2.31,.15-2.28,2.29-1.5Z"/><path d="M76.6,68.51c.84,1.97,.38,3.69-.47,5.29l-2.66-1.06c-1.87,1.01-3.32,2.31-5.3,2.47-.99,.09-1.97,.12-2.95,.3-2.5,.48-5.08,.36-7.57,.77-4.1,.67-8.19,.14-12.27,.08-2.75-.04-5.52,.03-8.27-.18-2.28-.17-4.56,.01-6.84,.03-1.66,.02-3.32-.22-4.98-.23-3.2-.02-6.41,.12-9.61,.03l.04-2.85c.2,0,.39-.01,.59-.02,1.46-.08,2.96-.28,4.38-.15,2.77,.26,5.53-.05,8.29,.09,3.91,.2,7.84,.03,11.76,.1,2.74,.04,5.48,.18,8.22,.38,3.36,.26,6.72-.08,9.23-.36,3.15-.06,5.4-.64,7.69-.74,2.6-.11,4.63-.92,6.18-3.11,1.47-2.06,1.39-3.17-.85-4.22-2.4-1.13-4.82-1.9-7.16,.3-.91,.85-2.32,1.21-3.04,2.23-1.37,1.94-3.32,1.77-5.18,1.59-2.32-.23-4.66-.16-6.95-.04-3.89,.22-7.77-.11-11.65-.15-3.25-.04-6.49,.2-9.74,.18-1.44-.01-2.87,.18-4.3,.3-2.8,.25-5.59-.48-8.41-.02-1.15,.19-1.97-.64-2.07-1.81-.09-.94-.3-1.88-.07-2.84,.03-.14,.05-.26,.05-.38l2.83-.06c.01,.42,.02,.83,.03,1.25,.01,.43,.02,.79,.63,.74,2.11-.16,4.22,.27,6.33,.19,2.14-.09,4.27-.43,6.41-.4,2.25,.02,4.47-.38,6.74-.2,1.87,.15,3.78,.12,5.67,.15,2.06,.02,4.12,.05,6.18,.06,2.71,.02,5.43-.2,8.13,.09,.82,.09,.93-.12,.95-.84,.08-2.5-.09-5.01,.21-7.51,.11-.87-.15-1.44-1.32-1.42h-.11l-.03-2.86c2.04,0,3.79-.74,5.35-2.23-.62-.26-1.04,.02-1.48-.01-1.46-.1-2.91-.14-4.37-.18l.03-2.88c1.46,.03,2.91-.01,4.37,.03,1.38,.04,2.78,.12,4.16,.25,1.07,.11,1.89,.84,2.74,1.39,.51,.34,.65,1.09,.23,1.62-.4,.5-.39,1.01-.42,1.56-.13,2.42-.24,4.84-.4,7.26-.04,.52-.02,.72,.59,.63,3.21-.46,5.85,1.1,8.48,2.54,.79,.43,1.5,1.32,1.46,2.35-.02,.9,.18,1.69,.52,2.5Zm-13.58-13.32c.06-.37,.03-.8-.29-1.19-.61,.41-1.25,.78-1.96,1.02-.31,.11-.76,.25-.79,.78-.14,2.88-.49,5.75-.25,8.85,.71-.44,1.21-.84,1.78-1.09,.85-.38,1.13-.96,1.12-1.86-.02-2.18,.03-4.35,.39-6.51Z"/><path d="M73.47,72.74l2.66,1.06c-.32,.61-.69,1.2-1.08,1.78-.6,.89-1.12,1.87-2.04,2.61-1.26,.99-2.57,1.78-4.12,2.04-1.07,.18-1.41,.68-1.52,1.7-.41,3.65-3.73,5.53-6.95,5.1-2.48-.33-4-1.97-4.7-4.33-.15-.51-.34-.71-.85-.75-2.53-.21-5.05-.48-7.58-.65-2.09-.14-4.2-.01-6.27-.1-2.1-.08-4.11,.5-5.85,.34-4.93,0-9.55,.04-14.17-.04l-.02-2.81c1.8-.02,3.6-.1,5.4-.05,2.26,.06,4.52,.02,6.77-.05,2.16-.08,4.32-.38,6.47-.37,2.49,0,4.98-.19,7.47,.14,1.42,.19,2.85,.08,4.28,.21,2.37,.21,4.73,.77,7.11,.5,2.47-.28,4.91-.79,7.36-1.2,1.29-.22,2.63-.4,3.88-1.05,1.7-.89,2.46-2.51,3.75-4.08Zm-9.19,9.44c.18-.64,.27-1.01-.84-.82-1.14,.15-2.54,.37-3.95,.52-.85,.08-.76,.44-.42,1,.55,.87,1.45,1.24,2.32,1.15,1.17-.13,2.46-.33,2.89-1.85Z"/><path d="M74.83,24.69c.11,.7-.27,1.14-.96,1.38-.73,.25-1.36-.06-1.59-.68-.64-1.7-2.13-2-3.58-2.38-.93-.25-1.66-.69-1.58-1.77,.07-.92,.95-1.41,2.1-1.24,.32,.05,.64,.09,.94,.19,1.21,.4,2.29,1.03,3.32,1.79,.93,.68,1.33,1.54,1.35,2.71Z"/><path class="cls-3" d="M72.87,35.55s.04,.01,.06,.01c-.08,1.15-.14,2.3-.27,3.45-.13,1.2-.41,1.32-1.66,1.08-4.39-.83-8.78-1.63-13.16-2.51-4.88-.98-9.84-1.18-14.74-2.02-3.08-.53-6.23-.63-9.34-1.06-2.19-.3-4.33-.9-6.45-1.51-.37-.1-.36-.27-.33-.6,.11-1,.31-1.96,.71-2.88,.16-.37,.47-.73,.46-1.09-.06-1.49,.79-1.51,1.88-1.3,1.53,.3,3.12-.18,4.59,.11,1.79,.34,3.6,.59,5.39,.91,3.93,.71,7.8,1.59,11.86,1.66,3.74,.06,7.51,.59,11.24,1.19,2.35,.38,4.71,.68,6.99,1.37,.3,.09,.62,.17,.89,.31,.6,.3,1.57,.07,1.82,.65,.28,.63,.06,1.48,.06,2.23Z"/><path class="cls-1" d="M71.21,65.13c2.24,1.05,2.32,2.16,.85,4.22-1.55,2.19-3.58,3-6.18,3.11-2.29,.1-4.54,.68-7.69,.74-2.51,.28-5.87,.62-9.23,.36-2.74-.2-5.48-.34-8.22-.38-3.92-.07-7.85,.1-11.76-.1-2.76-.14-5.52,.17-8.29-.09-1.42-.13-2.92,.07-4.38,.15-.2,0-.39,.02-.59,.02-1.69,0-3.33-.36-4.99-.52-1.25-.12-2.49-.31-3.74-.43-2.78-.26-3.94-1.98-3.06-4.62,.84-2.54,1.88-3.33,4.56-3.54,1.07-.08,2.14-.16,3.21-.27,.68-.06,.99,.22,.99,.71,0,.12-.02,.24-.05,.38-.23,.96-.02,1.9,.07,2.84,.1,1.17,.92,2,2.07,1.81,2.82-.46,5.61,.27,8.41,.02,1.43-.12,2.86-.31,4.3-.3,3.25,.02,6.49-.22,9.74-.18,3.88,.04,7.76,.37,11.65,.15,2.29-.12,4.63-.19,6.95,.04,1.86,.18,3.81,.35,5.18-1.59,.72-1.02,2.13-1.38,3.04-2.23,2.34-2.2,4.76-1.43,7.16-.3Z"/><path class="cls-1" d="M73.47,72.74c-1.29,1.57-2.05,3.19-3.75,4.08-1.25,.65-2.59,.83-3.88,1.05-2.45,.41-4.89,.92-7.36,1.2-2.38,.27-4.74-.29-7.11-.5-1.43-.13-2.86-.02-4.28-.21-2.49-.33-4.98-.13-7.47-.14-2.15-.01-4.31,.29-6.47,.37-2.25,.07-4.51,.11-6.77,.05-1.8-.05-3.6,.03-5.4,.05-1.59,.02-3.17-.01-4.74-.22-2.44-.32-4.92-.24-7.31-.81-1.6-.38-3.15-.97-4.66-1.61-.77-.32-1.28-1.04-1.3-2.1,1.3,.33,2.37,1.06,3.66,1.26,2.98,.46,5.97,.72,8.96,.8h.09c3.2,.09,6.41-.05,9.61-.03,1.66,.01,3.32,.25,4.98,.23,2.28-.02,4.56-.2,6.84-.03,2.75,.21,5.52,.14,8.27,.18,4.08,.06,8.17,.59,12.27-.08,2.49-.41,5.07-.29,7.57-.77,.98-.18,1.96-.21,2.95-.3,1.98-.16,3.43-1.46,5.3-2.47Z"/><path class="cls-3" d="M67.9,11.62c.54,.4,1.57,.72,1.04,1.56-.4,.63-1.14,1.13-2.19,1.03-1.67-.16-3.03-.95-4.45-1.68-.86-.45-1.16-1.28-1.38-2.14-.23-.94-.56-1.84-1.29-2.5-1.91-1.72-3.83-1.68-5.51,.29-.94,1.11-2.23,1.63-3.34,2.45-.36,.27-1.1,.21-1.6,.07-2.03-.56-4.07-.87-6.18-.91-1.44-.03-1.97-.77-1.51-1.66,.31-.59,.76-.45,1.23-.42,1.15-.12,2.1,.59,3.18,.83,2.27,.5,4.16-.19,5.82-1.54,2.09-1.7,4.26-3.15,6.91-3.83,1.87-.48,3.44,.34,3.84,2.22,.43,2.06,1.04,3.98,2.92,5.24,.77,.52,1.76,.44,2.51,.99Z"/><path class="cls-3" d="M63.44,81.36c1.11-.19,1.02,.18,.84,.82-.43,1.52-1.72,1.72-2.89,1.85-.87,.09-1.77-.28-2.32-1.15-.34-.56-.43-.92,.42-1,1.41-.15,2.81-.37,3.95-.52Z"/><path class="cls-2" d="M62.73,54c.32,.39,.35,.82,.29,1.19-.36,2.16-.41,4.33-.39,6.51,.01,.9-.27,1.48-1.12,1.86-.57,.25-1.07,.65-1.78,1.09-.24-3.1,.11-5.97,.25-8.85,.03-.53,.48-.67,.79-.78,.71-.24,1.35-.61,1.96-1.02Z"/><path class="cls-2" d="M59.21,51.44c.44,.03,.86-.25,1.48,.01-1.56,1.49-3.31,2.23-5.35,2.23-.14,0-.29,0-.43-.01-3.2-.17-6.41-.39-9.62-.42-2.58-.02-5.16,.24-7.74,.33-2.17,.07-4.33,.16-6.49,.1-2.91-.08-5.79,.38-8.69,.28-.77-.03-1.48-.3-2.34-.27,.96-1.45,2.48-1.58,3.86-1.84,2.36-.45,4.81-.6,7.18-.43,2.94,.2,5.82-.44,8.76-.14,2.57,.26,5.13-.69,7.71-.4,2.43,.27,4.87,.32,7.3,.38,1.46,.04,2.91,.08,4.37,.18Z"/><path class="cls-2" d="M55.48,56.54c1.17-.02,1.43,.55,1.32,1.42-.3,2.5-.13,5.01-.21,7.51-.02,.72-.13,.93-.95,.84-2.7-.29-5.42-.07-8.13-.09-2.06-.01-4.12-.04-6.18-.06-1.89-.03-3.8,0-5.67-.15-2.27-.18-4.49,.22-6.74,.2-2.14-.03-4.27,.31-6.41,.4-2.11,.08-4.22-.35-6.33-.19-.61,.05-.62-.31-.63-.74-.01-.42-.02-.83-.03-1.25-.04-2.16-.08-4.32-.21-6.47-.05-.89,.43-1.01,1.02-1.07,.67-.06,1.35-.01,2.32-.01,2.63-.32,5.59,.29,8.5-.01,3.08-.33,6.16-.15,9.24-.24,3.99-.12,7.97-.47,11.98-.28,2.32,.12,4.67,.24,7,.19h.11Z"/><path d="M55.34,53.68l.03,2.86c-2.33,.05-4.68-.07-7-.19-4.01-.19-7.99,.16-11.98,.28-3.08,.09-6.16-.09-9.24,.24-2.91,.3-5.87-.31-8.5,.01-.97,0-1.65-.05-2.32,.01-.59,.06-1.07,.18-1.02,1.07,.13,2.15,.17,4.31,.21,6.47l-2.83,.06c0-.49-.31-.77-.99-.71-1.07,.11-2.14,.19-3.21,.27-2.68,.21-3.72,1-4.56,3.54-.88,2.64,.28,4.36,3.06,4.62,1.25,.12,2.49,.31,3.74,.43,1.66,.16,3.3,.52,4.99,.52l-.04,2.85h-.09c-2.99-.08-5.98-.34-8.96-.8-1.29-.2-2.36-.93-3.66-1.26,.02,1.06,.53,1.78,1.3,2.1,1.51,.64,3.06,1.23,4.66,1.61,2.39,.57,4.87,.49,7.31,.81,1.57,.21,3.15,.24,4.74,.22l.02,2.81c-1.12-.02-1.83,.42-2.36,1.25-1.14,1.8-2.85,2.73-4.83,3.23-2.22,.57-6.36-1.22-7.32-3.13-.27-.54-.51-1.15-.4-1.71,.21-1.02-.35-1.29-1.12-1.58-1.29-.49-2.53-1-3.57-2.06-1.4-1.44-1.74-3.01-1.07-4.78,.39-1.03,.58-1.99,.39-3.09-.54-3.01,2.34-7.68,5.21-8.25,1.32-.26,2.67-.41,4.02-.47,2.47-.11,2.49-.06,2.47-2.44,0-.47-.09-.95-.19-1.41-.38-1.78-.27-2.29,1.16-3.18,1.32-.82,2.62-1.66,3.95-2.45,2.53-1.5,5.17-2.53,8.14-2.77,2.33-.19,4.65-.28,6.98-.13,.9,.07,1.81-.15,2.71-.25,1.61-.17,3.22,.11,4.83,.08,1.14-.03,2.29-.07,3.42-.23,3.67-.53,7.31,.13,10.96,.24,.16,.01,.33,.01,.49,.01l-.03,2.88c-2.43-.06-4.87-.11-7.3-.38-2.58-.29-5.14,.66-7.71,.4-2.94-.3-5.82,.34-8.76,.14-2.37-.17-4.82-.02-7.18,.43-1.38,.26-2.9,.39-3.86,1.84,.86-.03,1.57,.24,2.34,.27,2.9,.1,5.78-.36,8.69-.28,2.16,.06,4.32-.03,6.49-.1,2.58-.09,5.16-.35,7.74-.33,3.21,.03,6.42,.25,9.62,.42,.14,.01,.29,.01,.43,.01ZM15.5,82.12c.23-.13,.42-.32,.38-.56-.06-.41-.43-.24-.68-.25-1.73-.12-3.45-.42-5.2-.35-.31,.01-.72-.37-.89,.08-.14,.36,.1,.75,.44,1.03,.92,.76,2.04,.81,2.75,.88,1.44,.09,2.33-.34,3.2-.83Z"/><path class="cls-1" d="M24.49,26.31c1.13-.36,1.21,.24,.87,1.02-.49,1.12-.84,2.28-1.16,3.46-.12,.44-.04,1.24-.68,1.17-.67-.07-1.36-.47-1.65-1.21-.59-1.55,1.01-4.25,2.62-4.44Z"/><path class="cls-3" d="M15.88,81.56c.04,.24-.15,.43-.38,.56-.87,.49-1.76,.92-3.2,.83-.71-.07-1.83-.12-2.75-.88-.34-.28-.58-.67-.44-1.03,.17-.45,.58-.07,.89-.08,1.75-.07,3.47,.23,5.2,.35,.25,0,.62-.16,.68,.25Z"/></g></g></svg>