<?xml version="1.0" encoding="UTF-8"?><svg id="Layer_2" xmlns="http://www.w3.org/2000/svg" viewBox="0 0 32.17 181.93"><defs><style>.cls-1{fill:#f6f8f9;}.cls-2{fill:#cce8f7;}.cls-3{fill:#105375;}</style></defs><g id="Layer_6"><g><path class="cls-1" d="M17.98,168.1c-.41-1.65,.07-3.06,1.23-4.25,.32-.33,.57-.94,1.26-.58,.59,.31,.52,.82,.49,1.36-.25,1.43-.64,2.82-1.45,4.07-.16,.24-.45,.42-.71,.35-.45-.13-.71-.51-.82-.95Z"/><path class="cls-1" d="M22.38,136.34c.04,.19,.01,.4,.01,.59,.07,1.73-.78,3.03-1.99,4.13-.51,.46-.98,.13-1.39-.2-.83-.65-1.35-2.82-.97-3.96,.13-.37,.24-.75,.37-1.13,.39-1.16,1.16-1.71,2.49-1.46,.98,.19,1.33,1.1,1.48,2.03Z"/><path d="M22.28,143.99c-1.7,1.4-4.82,.63-5.96-.71-2.31-2.73-2.33-6.41-.9-9.3,.21-.42,.45-.82,.72-1.2,.97-1.38,2.41-2.49,4.3-2.06,3.11-.53,5.13,3.14,5.4,5.35,.05,.37,.07,.74,.07,1.09,0,2.81-1.44,5.03-3.63,6.83Zm.11-7.06c0-.19,.03-.4-.01-.59-.15-.93-.5-1.84-1.48-2.03-1.33-.25-2.1,.3-2.49,1.46-.13,.38-.24,.76-.37,1.13-.38,1.14,.14,3.31,.97,3.96,.41,.33,.88,.66,1.39,.2,1.21-1.1,2.06-2.4,1.99-4.13Z"/><path d="M18.3,172.53c-1.82-.43-3.22-1.5-3.74-3.32-1.01-3.55,.67-7.13,3.64-9.04,1.27-.82,2.51-.7,3.84-.1,1.9,.84,2.43,2.35,2.35,4.27-.21,2.43-.82,4.73-2.35,6.71-.94,1.22-2.18,1.85-3.74,1.48Zm2.66-7.9c.03-.54,.1-1.05-.49-1.36-.69-.36-.94,.25-1.26,.58-1.16,1.19-1.64,2.6-1.23,4.25,.11,.44,.37,.82,.82,.95,.26,.07,.55-.11,.71-.35,.81-1.25,1.2-2.64,1.45-4.07Z"/><path class="cls-3" d="M13.32,133.59c.38-.82,.81-1.61,1.3-2.36,1.75-2.69,1.77-5.7,2.05-8.7,.23-2.44,.31-4.88,.03-7.32-.1-.85,.3-1.16,1.04-1.19,.63-.04,1.27-.01,1.91-.01,1.74-.13,3.48-.29,5.21-.56,.68-.11,1.02-.03,1.22,.88,1.01,4.59,1.3,9.25,1.63,13.91,.21,2.99,.51,5.99,.41,8.96l-2.21-.04c0-.35-.02-.72-.07-1.09-.27-2.21-2.29-5.88-5.4-5.35-1.89-.43-3.33,.68-4.3,2.06-.27,.38-.51,.78-.72,1.2l-2.1-.39Z"/><path d="M15.58,152.03c.27,2.61-.39,4.87-1.44,7.08-.93,1.97-2.18,3.96-2.35,6.03-.23,2.79-.37,5.67,1.17,8.42,1.03,1.84,2.24,3.22,4,4.19,1.76,.98,3.5,.71,5.06-.49,1.75-1.36,2.68-3.3,3.43-5.21,1.87-4.74,2.58-9.75,2.77-14.83,.1-2.49,.06-4.99,.18-7.49,.2-4.08-.46-8.13-.29-12.23,0-.1,.01-.2,.01-.3,.1-2.97-.2-5.97-.41-8.96-.33-4.66-.62-9.32-1.63-13.91-.2-.91-.54-.99-1.22-.88-1.73,.27-3.47,.43-5.21,.56-.64,0-1.28-.03-1.91,.01-.74,.03-1.14,.34-1.04,1.19,.28,2.44,.2,4.88-.03,7.32-.28,3-.3,6.01-2.05,8.7-.49,.75-.92,1.54-1.3,2.36-.39,.82-.73,1.68-1.03,2.54-.89,2.55-.88,4.89,.2,7.47,1.16,2.74,2.77,5.3,3.09,8.43ZM4.1,110.36c.14,.87,.25,1.19,1.16,.84,2.6-1,5.37-1.16,8.05-.86,2.84,.31,5.65,.17,8.45-.06,1.56-.12,3.45,.36,4.58-1.38,.04-.06,.14-.11,.21-.11,.65-.02,.69-.43,.73-.96,.27-3.48,.04-6.97,.1-10.45,.07-3.8,.09-7.61-.13-11.4-.24-3.99,.24-7.96,.04-11.95-.04-.82,.02-1.64,.06-2.46,.1-1.74,.29-3.47,.3-5.2,.02-2.41-.13-4.82-.15-7.22-.04-4.33-.07-8.66-.04-12.99,0-.87-.26-1.71-.12-2.6,.21-1.33,.41-2.7,.31-4.02-.22-2.87,.21-5.7,.25-8.55,.07-3.88,.17-7.78-.08-11.64-.3-4.39-.21-8.78-.28-13.17,0-.28-.05-.57,.01-.84,.23-1-.11-1.54-1.18-1.47-.75,.04-1.5,.09-2.24,.19-1.74,.25-3.33,1-4.96,1.57-2.2,.78-4.52,1.58-6.06,3.44-2.07,2.49-3.64,5.31-4.52,8.45-.6,2.15-.97,4.37-1.49,6.54-.7,2.97-.92,5.99-1.34,8.99-.32,2.32-.42,4.68-.61,7.02-.18,2.31-.25,4.63-.53,6.93-.32,2.58-.01,5.15-.13,7.72-.13,2.99-.5,5.98-.45,8.95,.06,3.81-.27,7.61-.13,11.43,.1,2.6-.1,5.21-.03,7.82,.12,4.51,.23,9.02,.01,13.52-.12,2.66,.01,5.3-.12,7.96-.1,1.97,.03,3.98,.33,5.96Zm27.82,41.61c.05,2.25-.12,4.5-.29,6.75-.24,3.12-.48,6.24-1.27,9.28-.97,3.74-2.21,7.37-4.58,10.5-1.66,2.21-3.78,3.3-6.64,3.17-4.13-.18-6.94-2.4-8.92-5.69-1.06-1.77-1.72-3.82-1.82-6.06-.07-1.73-.4-3.46-.09-5.18,.39-2.19,1.19-4.25,2.24-6.21,1.62-3.04,2.22-6.07,.61-9.43-1.17-2.45-2.37-4.94-2.96-7.64-.27-1.26-.25-2.55,.09-3.79,.64-2.32,.95-4.85,2.42-6.78,1.26-1.66,1.95-3.45,2.24-5.39,.52-3.41,.57-6.86,.36-10.31-.05-.87-.28-1.34-1.37-1.42-2.35-.18-4.55,.41-6.76,1.02-.65,.18-1.29,.4-1.99,.27-1.67-.3-2.4-1.16-2.55-3.46-.12-1.75-.41-3.49-.26-5.4-.24-3.14-.07-6.43,.05-9.71,.13-3.57-.12-7.13-.03-10.69,.06-2.56-.09-5.13-.06-7.68,.04-2.88,.08-5.78,.13-8.66,.05-2.95,.23-5.91,.22-8.86,0-2.04,.43-4.12,.35-6.16-.17-4.06,.18-8.09,.34-12.13,.11-2.63,.47-5.28,.73-7.91,.3-2.96,.65-5.91,1.17-8.81,.63-3.55,1.24-7.13,2.39-10.57,.77-2.29,2.08-4.31,3.34-6.35,1.03-1.66,2.33-3.04,3.86-4.11,1.31-.91,2.92-1.43,4.44-2.02,2.49-.96,5.06-1.7,7.66-2.17,1.45-.27,3.02-.03,4.51,.15,.79,.09,1.34,.79,1.35,1.62,.02,2.38,.19,4.75,.13,7.14-.09,3.27-.08,6.56,.33,9.84,.17,1.35,.05,2.74,.12,4.11,.25,4.76-.16,9.5-.2,14.26-.02,1.86-.28,3.71-.31,5.57-.04,2.09,.01,4.19,.05,6.28,.03,1.54,.02,3.08,.04,4.63,.04,3.09,.05,6.18,.08,9.27,.03,4.21-.16,8.42-.34,12.63-.11,2.7-.02,5.4,.03,8.11,.06,2.61,.05,5.22,.23,7.83,.17,2.42-.05,4.87-.02,7.31,.05,3.08-.04,6.17-.08,9.25-.02,1.2-.35,2.33-1.19,3.18-.43,.42-.45,.78-.35,1.26,.81,4.01,1.34,8.06,1.62,12.12,.35,5.07,.63,10.15,.62,15.24,0,3.93,.24,7.87,.33,11.8Z"/><path class="cls-3" d="M14.56,169.21c.52,1.82,1.92,2.89,3.74,3.32,1.56,.37,2.8-.26,3.74-1.48,1.53-1.98,2.14-4.28,2.35-6.71,.08-1.92-.45-3.43-2.35-4.27-1.33-.6-2.57-.72-3.84,.1-2.97,1.91-4.65,5.49-3.64,9.04Zm-2.07-25.61c-1.08-2.58-1.09-4.92-.2-7.47,.3-.86,.64-1.72,1.03-2.54l2.1,.39c-1.43,2.89-1.41,6.57,.9,9.3,1.14,1.34,4.26,2.11,5.96,.71,2.19-1.8,3.63-4.02,3.63-6.83l2.21,.04c0,.1-.01,.2-.01,.3-.17,4.1,.49,8.15,.29,12.23-.12,2.5-.08,5-.18,7.49-.19,5.08-.9,10.09-2.77,14.83-.75,1.91-1.68,3.85-3.43,5.21-1.56,1.2-3.3,1.47-5.06,.49-1.76-.97-2.97-2.35-4-4.19-1.54-2.75-1.4-5.63-1.17-8.42,.17-2.07,1.42-4.06,2.35-6.03,1.05-2.21,1.71-4.47,1.44-7.08-.32-3.13-1.93-5.69-3.09-8.43Z"/><path class="cls-2" d="M5.26,111.2c-.91,.35-1.02,.03-1.16-.84-.3-1.98-.43-3.99-.33-5.96,.13-2.66,0-5.3,.12-7.96,.22-4.5,.11-9.01-.01-13.52-.07-2.61,.13-5.22,.03-7.82-.14-3.82,.19-7.62,.13-11.43-.05-2.97,.32-5.96,.45-8.95,.12-2.57-.19-5.14,.13-7.72,.28-2.3,.35-4.62,.53-6.93,.19-2.34,.29-4.7,.61-7.02,.42-3,.64-6.02,1.34-8.99,.52-2.17,.89-4.39,1.49-6.54,.88-3.14,2.45-5.96,4.52-8.45,1.54-1.86,3.86-2.66,6.06-3.44,1.63-.57,3.22-1.32,4.96-1.57,.74-.1,1.49-.15,2.24-.19,1.07-.07,1.41,.47,1.18,1.47-.06,.27-.01,.56-.01,.84,.07,4.39-.02,8.78,.28,13.17,.25,3.86,.15,7.76,.08,11.64-.04,2.85-.47,5.68-.25,8.55,.1,1.32-.1,2.69-.31,4.02-.14,.89,.12,1.73,.12,2.6-.03,4.33,0,8.66,.04,12.99,.02,2.4,.17,4.81,.15,7.22-.01,1.73-.2,3.46-.3,5.2-.04,.82-.1,1.64-.06,2.46,.2,3.99-.28,7.96-.04,11.95,.22,3.79,.2,7.6,.13,11.4-.06,3.48,.17,6.97-.1,10.45-.04,.53-.08,.94-.73,.96-.07,0-.17,.05-.21,.11-1.13,1.74-3.02,1.26-4.58,1.38-2.8,.23-5.61,.37-8.45,.06-2.68-.3-5.45-.14-8.05,.86ZM18.94,16.28c.61-.56,.41-1.54-.25-2.16-.62-.59-1.31-.58-2.05-.06-1.25,.91-1.85,2.23-2.46,3.57-1.25,2.72-2.14,5.52-2.31,8.52,0,.12,.02,.24,0,.36-.12,1.04,.04,1.95,1.23,2.25,.9,.22,1.58-.37,1.92-1.81,.48-2.07,.82-4.18,1.67-6.13,.67-1.54,.9-3.28,2.25-4.54Z"/></g></g></svg>