<?xml version="1.0" encoding="UTF-8"?><svg id="Layer_2" xmlns="http://www.w3.org/2000/svg" viewBox="0 0 136.98 140.98"><defs><style>.cls-1{fill:#f9da69;}.cls-2{fill:#ee5d67;}.cls-3{fill:#cce8f7;}</style></defs><g id="Layer_4"><g><path class="cls-2" d="M136.8,33.62c.48,.42-.15,1.29-.44,1.88-.45,.91-1.22,1.6-2.01,2.18-3.55,2.56-7.15,5.05-10.71,7.6-1.02,.73-2.01,1.47-3.17,1.99,1.07-2.29,2.6-4.2,4.36-5.96,2.88-2.87,6.31-5.01,9.55-7.4,.71-.52,1.74-.88,2.42-.29Z"/><path d="M122.69,17.19c.17,.68-.33,1.13-.9,1.39-2.76,1.26-3.32,3.7-3.45,6.37,0,.4,.03,.79-.2,1.15-.22,.36-.46,.62-.94,.6-.45-.03-.85-.18-.92-.61-.37-2.3-1.93-3.18-4.02-3.54-.52-.08-1-.43-1.47-.71-.47-.27-.6-.79-.45-1.25,.13-.4,.49-.72,1.05-.67,1.97,.35,2.08-1.54,2.81-2.57,.52-.75,.66-1.76,.94-2.67,.16-.51,.34-1.04,.93-1.1,.58-.06,1.08,.21,1.42,.71,.25,.36,.45,.74,.71,1.09,.54,.74,1.18,1.13,2.11,1.01,.27-.03,.56,0,.83,0,.68-.03,1.36,.04,1.55,.8Zm-4.19,1.06c-.57-.31-1.07-.45-1.37-.78-.45-.48-.66-.13-.75,.16-.32,1.05-.94,1.91-1.57,2.77-.3,.43-.29,.77,.29,.95,.33,.11,.68,.22,.98,.4,.48,.28,.56,.1,.69-.36,.31-1.15,.77-2.23,1.73-3.14Z"/><g><path d="M101.29,20.85c.17,1.46,.15,2.94-.19,4.39-.18,.76-.84,1.17-1.45,1.23-.8,.09-1.63-.1-2.26-.78-1.31-1.39-1.81-3.15-2.23-4.92-.9-3.82-1.56-7.69-2.08-11.57-.17-1.26-.3-2.52-.44-3.64,.25-1.59-.45-3.11,.62-4.5,.87-1.12,2.28-1.44,3.41-.55,.85,.67,1.34,1.62,1.6,2.6,.79,3.01,1.53,6.03,1.91,9.13,.35,2.87,.78,5.73,1.11,8.61Zm-2.23,3.35c.14-2.84-.14-5.62-.52-8.39-.39-2.81-.83-5.62-1.36-8.4-.3-1.51-.84-2.96-1.29-4.43-.12-.38-.34-.86-.79-.69-.35,.12-.45,.62-.43,1.02,.02,.35,.18,.7,.18,1.04,.04,3.69,.78,7.3,1.34,10.92,.29,1.87,.76,3.7,1.16,5.53,.26,1.19,.77,2.43,1.71,3.4Z"/><path class="cls-2" d="M98.54,15.81c.38,2.77,.66,5.55,.52,8.39-.94-.97-1.45-2.21-1.71-3.4-.4-1.83-.87-3.66-1.16-5.53-.56-3.62-1.3-7.23-1.34-10.92,0-.34-.16-.69-.18-1.04-.02-.4,.08-.9,.43-1.02,.45-.17,.67,.31,.79,.69,.45,1.47,.99,2.92,1.29,4.43,.53,2.78,.97,5.59,1.36,8.4Z"/></g><g><path d="M134.54,124.62c1.18,1.34,.87,2.83,.3,4.25-.87,2.22-2.58,3.82-4.41,5.23-1.95,1.49-3.86,3.09-6.16,4.09-2.59,1.13-5.18,2.27-8.26,2.48-1.64,.42-3.5,.32-5.37,.19-1.48-.11-2.53-.69-3.26-2.03-1.86-3.43-3.66-6.9-5.48-10.35-2.02-3.81-3.76-7.75-5.86-11.5-1.13-2-2.23-4.23-4.66-5.04-1.34-.45-2.62-.94-3.89-1.55-3.84-1.82-7.2-4.24-9.59-7.84-.86-1.3-1.44-2.77-1.93-4.24-.88-2.7-2.66-4.79-4.53-6.81-1.94-2.11-3.93-4.19-5.35-6.71-1.03-1.82-1.88-3.69-2.09-5.8-.04-.4,0-1-.71-.83-3.14,.73-5.97-.02-8.63-1.73-.73-.47-1.55-.59-2.4-.31-3.64,1.23-6.87,.16-9.98-1.73-2.19-1.32-3.5-3.38-4.94-5.4-3.34-4.66-6.48-9.54-11.33-12.84-1.57-1.07-3.29-1.97-5.04-2.7-4.12-1.73-8.21-3.49-12.52-4.72-2.25-.65-4.33-1.82-6.62-2.41-1-.26-1.24-1.34-1.52-2.29-.61-2.02-.24-4.07,.1-6.03,.45-2.7,.67-5.47,1.65-8.07,1.22-3.26,2.65-6.44,4.84-9.13,2.05-2.51,4.56-4.53,7.86-5.34,1.92-.47,3.63-.1,5.25,.84,3.4,1.98,6.91,3.75,10.27,5.8,4.47,2.71,9.2,4.95,14.47,5.66,1.61,.22,3.26,.09,4.89,.07,3.75-.01,7.45-.7,11.11-1.44,4.64-.95,8.88,.2,12.93,2.14,3.14,1.51,6.08,3.48,8.28,6.3,1.25,1.6,2.33,3.33,2.59,5.44,.07,.55-.05,1.03-.21,1.52-.25,.77-.09,1.24,.58,1.83,2.24,1.97,4.5,3.99,4.82,7.26,.07,.69,.48,.45,.86,.28,1.73-.71,3.39-1.58,5.32-1.74,2.98-.23,5.61,.68,7.86,2.53,2.37,1.93,3.99,4.49,5.43,7.17,1,1.87,1.91,3.72,3.81,5.01,1.5,1.01,2.25,2.84,3.23,4.37,2.54,3.97,3.23,8.5,3.81,13.07,.51,3.94,.17,7.84-.37,11.74-.37,2.65,.74,4.93,1.85,7.18,1.28,2.61,2.67,5.16,4.03,7.72,1.37,2.57,2.88,5.06,4.09,7.69,1.27,2.75,3.06,5.2,4.34,7.93,.14,.29,.31,.56,.52,.8Zm-2.41,4.22c.68-.93,.86-2.02,.3-2.92-1.73-2.76-3.1-5.72-4.76-8.51-2.17-3.63-3.77-7.55-5.97-11.17-1.23-2.02-2.12-4.27-3.13-6.44-.94-2-1.52-4.04-1.33-6.32,.13-1.47,.43-2.91,.53-4.38,.19-2.91,.08-5.79-.32-8.68-.6-4.36-1.59-8.51-4.19-12.18-1.38-1.95-2.93-3.62-5.13-4.62-2.35-1.08-4.89-1.46-7.4-1.65-1.98-.15-4.07-.33-5.96,.76-.65,.37-1.25,.83-1.94,1.15-1.5,.69-3.16,.75-4.65,1.41-1.78,.79-2.1,1.8-1.12,3.43,.61,1.02,1.69,1.55,2.43,2.42,.81,.95,1.84,1.16,2.97,1.3,1.44,.19,2.77-.17,4.07-.71,.66-.27,1.34-.52,2.09-.39,2.09,.38,3.75,1.47,5.16,3.01,.56,.62,.64,1.36,0,1.93-.61,.57-1.25,.28-1.77-.29-.13-.15-.27-.29-.42-.43-1.79-1.75-3.32-2.02-5.57-1.03-.44,.19-.9,.3-1.39,.36-2.22,.22-2.22,.24-1.58,2.44,.68,2.32-.11,4.87-2.13,6.15-1.25,.79-1.84,1.71-1.69,3.15,.03,.27-.05,.57-.17,.82-1.18,2.66-3.96,4.11-7.14,2.97-2.64-.94-5.19-2.23-7.35-4.1-.4-.34-.76-.71-.96-1.21-.25-.63-.11-1.2,.38-1.62,.55-.46,1.04-.18,1.48,.24,.55,.53,1.05,1.12,1.67,1.54,1.8,1.23,3.81,2.12,5.86,2.89,1.28,.48,2.33,0,3.29-.86,.71-.64,.48-1.49,.47-2.25,0-.61-.68-.41-1.04-.56-.98-.4-1.99-.75-2.93-1.28-2.74-1.51-5.43-3.1-7.91-5.03-1.38-1.07-2.5-2.43-3.99-3.39-1.01-.65-1.86-.64-2.78,.23-1.8,1.74-2.15,3.4-1.21,5.83,.46,1.2,1.42,2.11,1.94,3.2,.83,1.74,1.91,3.18,3.26,4.51,2.59,2.55,4.97,5.26,6.15,8.82,1.09,3.3,3.02,6.03,5.82,8.1,2.62,1.93,5.47,3.42,8.65,4.23,.5,.13,1.05,.22,1.41,.61,1.86,1.99,3.5,4.14,4.7,6.59,1.09,2.21,2.13,4.46,3.26,6.66,.69,1.36,1.62,2.59,2.2,3.98,1.43,3.39,3.49,6.44,5.04,9.76,.31,.66,.89,1.19,1.68,1.19,2.07-.02,4.15,.07,6.19-.37,2.15-.45,4.13-1.4,6.15-2.23,1.84-.76,3.3-2.1,4.9-3.2,1.52-1.03,2.81-2.34,3.91-3.84Zm-24.94-68.32c-1.21-2.22-2.33-4.17-3.97-5.77-2.76-2.67-5.89-3.68-9.59-2.23-1.95,.77-3.83,1.64-4.95,3.55-.58,.99-.51,2.34,.25,2.98,.65,.54,1.19,1.16,1.73,1.81,.55,.66,1.17,.99,2.05,.37,2.56-1.79,5.4-2.18,8.45-1.62,1.9,.36,3.84,.58,6.04,.91Zm-20.9-5.07c1.28-1.66,1.45-4.18,.49-6.05-.89-1.76-2.28-3.05-3.79-4.22-2.91-2.28-6.32-3.85-9.08-6.38-1.23-1.13-2.54-2.19-3.25-3.78-.3-.68-.35-1.35,.35-1.8,.69-.44,1.31-.08,1.64,.5,1.17,2.04,3.06,3.32,4.84,4.71,1.15,.91,2.39,1.71,3.62,2.53,.3,.2,.83,.48,.89-.21,.06-.66,.12-1.35-.28-1.97-2.65-4.25-6.42-7.06-11.06-8.83-2.99-1.15-5.99-1.76-9.21-1.15-2.22,.41-4.46,.77-6.71,1.13-2.58,.4-5.18,.36-7.8,.38-2.52,.01-4.89-.48-7.25-1.14-3.31-.93-6.37-2.53-9.33-4.23-3.73-2.13-7.41-4.34-11.23-6.26-1.39-.69-2.91-1.33-4.48-.68-2.47,1-4.65,2.61-6.12,4.76-2.48,3.62-4.43,7.51-5.05,11.99-.37,2.6-.83,5.17-.97,7.78-.03,.69,.03,1.45,.82,1.69,1.45,.44,2.82,1.1,4.23,1.59,3.99,1.38,7.98,2.69,11.87,4.35,1.97,.84,3.89,1.78,5.81,2.72,6.02,2.96,9.56,8.39,13.34,13.56,1.53,2.11,2.76,4.46,5.1,5.91,2.64,1.63,5.36,2.35,8.41,1.38,1.36-.44,2.66-.18,3.88,.61,3.89,2.51,7.26,2.37,9.71-.71,1.04-1.32,2.23-1.66,3.64-1.75,.66-.03,.82-.25,.86-.82,.06-.88,.11-1.78,.53-2.55,1.35-2.45,3.36-4.09,6.06-4.84,.62-.17,.8-.4,.81-1.05,.01-1.16,.26-2.29,1.05-3.22,1.45-1.69,3.27-2.73,5.57-3.15,.58-.31,1.5,0,2.07-.76Zm1.4,7.39c.36-.1,1.25-.24,.55-.86-.97-.85-1.5-1.94-2.13-3-.24-.39-.53-.57-.98-.46-1.01,.23-2.03,.43-2.92,1.02-2.02,1.33-2.69,2.93-1.8,4.97,.62,1.42,1.79,2.4,3.26,3,.07-.15,.16-.24,.18-.35,.45-2.18,1.66-3.66,3.85-4.31Zm3.02,15.28c-.23-1.33-.73-2.55-1.74-3.46-1.5-1.36-3.18-2.5-4.89-3.62-1.85-1.21-3.75-2.44-5.12-4.21-.73-.95-1.41-1.02-2.34-.56-.49,.25-.99,.51-1.47,.8-2.21,1.37-3.66,5.1-1.07,7.19,1.7,1.37,3.3,2.86,5.14,4.05,2.24,1.44,4.46,2.9,7.01,3.74,2.77,.91,5.01-1.1,4.47-3.92Z"/><path class="cls-3" d="M132.42,125.92c.56,.9,.38,1.98-.3,2.92-1.1,1.5-2.39,2.81-3.91,3.84-1.6,1.1-3.06,2.44-4.9,3.2-2.02,.83-4,1.78-6.15,2.23-2.04,.44-4.12,.35-6.19,.37-.79,0-1.37-.52-1.68-1.19-1.55-3.32-3.61-6.37-5.04-9.76-.58-1.39-1.51-2.62-2.2-3.98-1.12-2.2-2.16-4.44-3.26-6.66-1.2-2.45-2.84-4.6-4.7-6.59-.36-.39-.91-.48-1.41-.61-3.18-.81-6.03-2.3-8.65-4.23-2.8-2.07-4.73-4.8-5.82-8.1-1.18-3.56-3.56-6.27-6.15-8.82-1.35-1.33-2.43-2.76-3.26-4.51-.51-1.09-1.47-2-1.94-3.2-.94-2.43-.59-4.09,1.21-5.83,.91-.88,1.76-.89,2.78-.23,1.49,.96,2.61,2.32,3.99,3.39,2.49,1.94,5.17,3.52,7.91,5.03,.95,.53,1.95,.88,2.93,1.28,.37,.15,1.04-.05,1.04,.56,.01,.76,.25,1.61-.47,2.25-.96,.85-2,1.34-3.29,.86-2.05-.77-4.05-1.66-5.86-2.89-.62-.42-1.12-1.02-1.67-1.54-.45-.41-.93-.7-1.48-.24-.49,.42-.64,.99-.38,1.62,.21,.5,.56,.87,.96,1.21,2.16,1.88,4.71,3.16,7.35,4.1,3.18,1.13,5.96-.31,7.14-2.97,.12-.25,.2-.55,.17-.82-.15-1.45,.43-2.36,1.69-3.15,2.03-1.28,2.81-3.83,2.13-6.15-.64-2.2-.64-2.22,1.58-2.44,.49-.05,.94-.17,1.39-.36,2.25-.99,3.78-.71,5.57,1.03,.15,.13,.29,.28,.42,.43,.52,.57,1.15,.86,1.77,.29,.63-.57,.55-1.32,0-1.93-1.4-1.53-3.07-2.63-5.16-3.01-.76-.13-1.43,.12-2.09,.39-1.3,.53-2.63,.9-4.07,.71-1.13-.14-2.15-.34-2.97-1.3-.74-.87-1.81-1.39-2.43-2.42-.98-1.63-.67-2.64,1.12-3.43,1.49-.66,3.15-.71,4.65-1.41,.69-.33,1.29-.79,1.94-1.15,1.89-1.09,3.98-.91,5.96-.76,2.51,.19,5.05,.57,7.4,1.65,2.2,1,3.75,2.67,5.13,4.62,2.6,3.67,3.59,7.83,4.19,12.18,.4,2.9,.51,5.78,.32,8.68-.1,1.46-.4,2.91-.53,4.38-.19,2.29,.39,4.32,1.33,6.32,1.01,2.17,1.9,4.41,3.13,6.44,2.2,3.62,3.8,7.54,5.97,11.17,1.66,2.79,3.03,5.74,4.76,8.51Zm-22.42-24.02c.55-.65,.52-1.26,.03-1.83-.59-.68-1.26-.35-1.8,.11-.54,.47-.97,1.06-1.5,1.54-1.19,1.05-1.27,1.05-2.39-.07-.41-.42-.84-.64-1.37-.29-.49,.33-.75,.76-.57,1.43,.4,1.52,1.75,2.37,3.39,2.09,1.3-.22,2.86-1.36,4.21-2.98Zm-10.37-24.96c-.13-.75-.47-1.2-1.26-1.13-.74,.07-1.1,.56-1.16,1.3-.05,.67-.17,1.34-.25,2.01-.27,2.48-1.95,4.41-2.67,6.73-.93,2.95-.96,5.92-.72,8.93,.43,1.82,1.14,3.5,2.12,5.07,.69,1.12,1.34,2.26,1.92,3.44,.41,.83,.99,1.18,1.82,.77,.86-.42,.85-1.03,.39-1.88-.94-1.74-1.98-3.44-2.86-5.23-1.65-3.36-1.33-6.76-.33-10.13,.62-2.11,1.69-4.09,2.46-6.17,.44-1.18,.77-2.42,.53-3.73Z"/><path class="cls-3" d="M103.21,54.75c1.64,1.6,2.76,3.54,3.97,5.77-2.2-.33-4.14-.55-6.04-.91-3.05-.56-5.89-.17-8.45,1.62-.88,.62-1.49,.29-2.05-.37-.54-.65-1.08-1.27-1.73-1.81-.76-.64-.83-1.99-.25-2.98,1.12-1.91,3-2.78,4.95-3.55,3.7-1.45,6.83-.44,9.59,2.23Z"/><path d="M110.03,100.07c.5,.57,.52,1.17-.03,1.83-1.35,1.62-2.9,2.76-4.21,2.98-1.65,.28-2.99-.57-3.39-2.09-.18-.67,.08-1.11,.57-1.43,.53-.36,.96-.13,1.37,.29,1.12,1.12,1.19,1.13,2.39,.07,.53-.48,.96-1.07,1.5-1.54,.54-.46,1.21-.79,1.8-.11Z"/><path d="M98.38,75.81c.78-.07,1.12,.39,1.26,1.13,.24,1.31-.09,2.54-.53,3.73-.76,2.08-1.83,4.06-2.46,6.17-1.01,3.37-1.32,6.77,.33,10.13,.88,1.79,1.92,3.48,2.86,5.23,.46,.85,.46,1.46-.39,1.88-.83,.4-1.4,.05-1.82-.77-.58-1.18-1.23-2.32-1.92-3.44-.98-1.57-1.69-3.25-2.12-5.07-.24-3.01-.22-5.99,.72-8.93,.73-2.32,2.41-4.25,2.67-6.73,.07-.68,.19-1.34,.25-2.01,.06-.74,.42-1.23,1.16-1.3Z"/><path class="cls-1" d="M86.78,49.4c.96,1.87,.79,4.39-.49,6.05-.58,.76-1.49,.45-2.07,.76-2.3,.42-4.12,1.46-5.57,3.15-.8,.94-1.04,2.06-1.05,3.22,0,.65-.19,.88-.81,1.05-2.7,.75-4.71,2.4-6.06,4.84-.42,.77-.47,1.68-.53,2.55-.04,.57-.21,.78-.86,.82-1.41,.1-2.59,.43-3.64,1.75-2.45,3.08-5.82,3.22-9.71,.71-1.22-.8-2.52-1.06-3.88-.61-3.05,.97-5.76,.26-8.41-1.38-2.34-1.45-3.57-3.8-5.1-5.91-3.78-5.17-7.32-10.6-13.34-13.56-1.92-.94-3.84-1.87-5.81-2.72-3.89-1.66-7.88-2.98-11.87-4.35-1.42-.49-2.79-1.16-4.23-1.59-.79-.24-.85-1-.82-1.69,.14-2.61,.6-5.18,.97-7.78,.62-4.48,2.58-8.37,5.05-11.99,1.46-2.15,3.65-3.76,6.12-4.76,1.57-.65,3.08,0,4.48,.68,3.83,1.93,7.51,4.13,11.23,6.26,2.96,1.69,6.02,3.3,9.33,4.23,2.37,.66,4.73,1.15,7.25,1.14,2.61-.02,5.22,.02,7.8-.38,2.24-.36,4.49-.71,6.71-1.13,3.22-.61,6.22,0,9.21,1.15,4.64,1.77,8.41,4.58,11.06,8.83,.39,.63,.33,1.31,.28,1.97-.06,.69-.58,.41-.89,.21-1.22-.81-2.47-1.62-3.62-2.53-1.78-1.39-3.67-2.67-4.84-4.71-.33-.58-.95-.94-1.64-.5-.7,.45-.65,1.12-.35,1.8,.71,1.58,2.01,2.65,3.25,3.78,2.75,2.53,6.17,4.1,9.08,6.38,1.51,1.18,2.9,2.46,3.79,4.22Zm-21.51,19.13c.39-.6,.97-1.21,.72-2.08-.18-.59-.46-1.13-1.18-1.16-.6-.03-.97,.38-1.13,.9-.52,1.7-1.8,2.49-3.38,2.98-.74,.22-1.54,.48-1.42,1.46,.11,.96,.98,.89,1.66,1.05,.33,.08,.63-.05,.92-.18,1.55-.64,2.88-1.58,3.81-2.97Z"/><path class="cls-3" d="M88.23,61.98c.7,.62-.19,.76-.55,.86-2.19,.65-3.4,2.13-3.85,4.31-.02,.11-.1,.2-.18,.35-1.47-.61-2.64-1.58-3.26-3-.89-2.04-.22-3.63,1.8-4.97,.9-.59,1.91-.78,2.92-1.02,.46-.11,.75,.07,.98,.46,.63,1.06,1.16,2.15,2.13,3Z"/><path class="cls-3" d="M88.96,74.65c1.01,.92,1.51,2.14,1.74,3.46,.54,2.82-1.71,4.83-4.47,3.92-2.54-.84-4.77-2.31-7.01-3.74-1.85-1.18-3.44-2.68-5.14-4.05-2.59-2.09-1.14-5.82,1.07-7.19,.47-.29,.97-.55,1.47-.8,.93-.46,1.61-.39,2.34,.56,1.37,1.78,3.27,3,5.12,4.21,1.7,1.12,3.38,2.26,4.89,3.62Z"/><path d="M65.98,66.44c.25,.87-.33,1.48-.72,2.08-.94,1.39-2.26,2.33-3.81,2.97-.29,.13-.59,.26-.92,.18-.67-.16-1.54-.09-1.66-1.05-.12-.99,.68-1.24,1.42-1.46,1.58-.48,2.86-1.28,3.38-2.98,.17-.52,.54-.93,1.13-.9,.72,.03,1,.57,1.18,1.16Z"/></g></g></g></svg>