<?xml version="1.0" encoding="UTF-8"?><svg id="Layer_2" xmlns="http://www.w3.org/2000/svg" viewBox="0 0 104.56 95.09"><defs><style>.cls-1{fill:#f6f8f9;}.cls-2{fill:#f9e0e9;}.cls-3{fill:#f9da69;}.cls-4{fill:#ee5d67;}.cls-5{fill:#cce8f7;}.cls-6{fill:#105375;}</style></defs><g id="Layer_4"><g><path d="M102.68,36.43c1.28,1.21,1.92,2.64,1.51,4.48-.75,3.41-2.51,6.29-4.45,9.1-.23,.32-.59,.46-.91,.54-2.15,.51-2.78,2.25-3.27,4.06-.52,1.84-1.45,3.51-2.2,5.25-1.03,2.35-1.93,4.76-3.22,7-1.27,2.22-2.34,4.54-3.63,6.76-.45,.76-.73,1.65-1.07,2.47-.63,1.5-1.48,2.85-2.29,4.24-1.64,2.85-3.25,5.71-4.83,8.58-.77,1.38-1.38,2.84-2.15,4.21-.95,1.66-2.74,2.19-4.39,1.3-1.33-.72-2.98-.65-4.11-1.73-4.28-1.95-8.54-3.84-12.75-5.82-2.83-1.33-5.59-2.81-8.41-4.17-3.2-1.55-6.26-3.37-9.42-5.02-3.39-1.78-6.91-3.3-10.38-4.93-2.81-1.31-5.45-2.99-8.25-4.3-2.55-1.19-5.03-2.51-7.55-3.72-.94-.46-1.78-1.05-2.63-1.65-1.38-.96-3.06-1.32-4.52-2.13-.91-.51-1.76-1.11-2.49-1.83-1.28-1.28-1.35-2.04-.23-3.86,1.17-1.91,1.63-4.07,2.42-6.1,.85-2.22,1.46-4.52,2.55-6.66,1.53-3.05,2.88-6.18,4.59-9.14,1.88-3.25,3.32-6.75,5.4-9.9,1.19-1.81,2.07-3.85,3.1-5.78,.12-.22,.27-.43,.02-.62-1.73-1.31-.81-2.78-.2-4.16,.6-1.33,1.32-2.61,1.98-3.92,.6-1.18,1.05-2.41,1.56-3.6C24.24,1.26,27.68,.4,31.37,1.57c1,.32,1.66,.46,2.43-.5,1.1-1.36,2.55-.73,3.83-.24,3.04,1.16,6.06,2.37,9.07,3.6,1.3,.53,2.44,1.35,3.52,2.22,.87,.67,.81,1.7,.53,2.62-.18,.57-.1,.7,.39,1.08,2.4,1.81,5.26,2.73,7.88,4.12,3.07,1.63,6.23,3.1,9.32,4.68,3.69,1.89,7.69,3.04,11.24,5.27,1.49,.94,3.32,1.55,5.04,2.16,.92,.34,1.6,1.03,2.48,1.41,3.53,1.49,6.93,3.23,10.23,5.17,1.81,1.06,3.8,1.8,5.35,3.27Zm-.84,5.01c.44-1.24,.29-2.48-.92-3.6-1.92-1.76-4.42-2.36-6.52-3.76-1.94-1.3-4.11-2.32-6.33-3.19-2.08-.82-4.12-1.83-6.05-2.99-1.15-.69-2.51-.79-3.58-1.53-1.17-.79-2.43-1.4-3.69-1.98-1.82-.86-3.81-1.37-5.57-2.33-3.12-1.71-6.5-2.85-9.55-4.76-3.02-1.9-6.51-2.98-9.59-4.87-3.11-1.9-6.78-2.67-9.96-4.47-2.15-1.21-4.58-1.78-6.95-3.21-.61-.11-1.27-.8-2.19-1-1.9-.42-3.83-.92-5.37,.82-.79,.88-1.29,1.99-1.66,3.1-.66,1.87-1.42,3.7-2.52,5.33-1.46,2.11-.74,2.84,.92,3.56,2.9,1.26,5.82,2.45,8.7,3.71,3.34,1.45,6.66,2.93,9.96,4.48,.84,.39,1.71,.8,2.55,1.2,1.11,.52,2.12,1.49,3.66,.63,1.86-1.04,4.03-1.33,6.16-1.34,4.88,0,9.74,.2,14.43,1.69,1.26,.41,2.49,.98,3.68,1.65,2.2,1.27,3.86,3.13,5.64,4.83,1.87,1.8,3.65,3.71,4.66,6.2,.34,.87,.68,2.05,1.38,2.42,1.64,.86,3.28,1.77,5.02,2.45,2.27,.9,4.46,1.95,6.45,3.39,1.58,1.12,3.08,1.2,3.88,.04,1.38-2.01,2.57-4.16,3.36-6.47Zm-7.65,10.38c.8-1.15,.61-1.33-.55-2.09-3.01-1.95-6.45-2.95-9.54-4.84-.04,.23-.09,.38-.08,.53,.28,4.19-1.16,8.04-2.62,11.84-.95,2.48-2.88,4.32-4.58,6.31-1.73,2.03-3.64,3.79-5.89,5.26-2.04,1.33-4.18,2.48-6.42,3.35-1.52,.59-3.06,1.38-4.78,1.33-3.93-.11-7.71-.73-11.23-2.58-.12-.06-.22-.12-.34-.18-2.6-1.41-5.3-2.67-7.29-4.94-1.75-2.02-3.38-4.15-5.36-5.97-.36-.33-.62-.88-.71-1.36-.41-2.19-1.2-4.28-1.65-6.44-.77-3.69-.01-7.31,1.23-10.73,1.51-4.12,3.41-8.11,6.91-11.04,.71-.6,1.39-1.25,2.12-1.91-.44-.19-.8-.35-1.15-.51-2.87-1.34-5.68-2.8-8.6-4-3.85-1.58-7.62-3.3-11.43-4.93-.77-.32-1.18-.14-1.55,.53-.41,.76-.89,1.49-1.27,2.26-1.34,2.69-3.06,5.17-4.35,7.86-1.14,2.39-2.43,4.69-3.68,7.03-1.3,2.41-2.37,4.94-3.58,7.4-1.26,2.58-1.61,5.49-2.94,8.04-.29,.55-.24,.95,.34,1.39,1.64,1.22,3.54,1.92,5.29,2.91,1.74,.97,3.72,1.52,5.49,2.41,2.91,1.44,5.88,2.73,8.78,4.2,2.91,1.49,5.91,2.81,8.77,4.42,.97,.54,1.95,1.18,3.01,1.44,2.56,.63,4.87,1.85,7.24,2.92,1.16,.53,2.32,1.1,3.46,1.68,4.12,2.11,8.07,4.53,12.11,6.8,2.19,1.24,4.39,2.5,6.55,3.81,2.58,1.57,5.37,2.74,8.13,3.99,1.44,.67,1.8,.5,2.59-.91,.51-.94,1.07-1.84,1.6-2.77,1.5-2.55,3.17-5.02,4.42-7.69,1.88-4.03,4.14-7.84,6.06-11.85,1.36-2.85,2.56-5.77,3.9-8.63,.66-1.41,.72-3.08,1.59-4.34Zm-13.01-1.02c.25-1.79,1.08-3.59,.54-5.39-.91-3.13-2.19-6.12-4.5-8.54-2.62-2.73-5.02-5.72-8.61-7.12-.92-.75-1.99-.77-2.97-1.02-4.99-1.3-10.06-1.66-15.16-.79-4.72,.8-8.15,3.59-10.71,7.56-1.61,2.51-2.86,5.16-3.69,8.03-.68,2.36-.96,4.72-.91,7.16,.04,1.76,1.11,3.19,1.3,4.88,.17,1.67,.7,3.2,2.08,4.27,1.24,.96,2.16,2.2,3.09,3.43,1.18,1.58,2.67,2.88,4.36,3.8,2.42,1.33,4.85,2.69,7.52,3.44,2.35,.67,4.8,.91,7.17,.52,2.54-.42,4.85-1.62,7.13-2.84,3.41-1.83,6.05-4.56,8.58-7.39,1.34-1.49,2.65-3.11,3.25-5.03,.52-1.64,1.29-3.23,1.53-4.97Zm-6.26,40.06c.06-.4-.24-.35-.42-.43-3.16-1.26-6.29-2.52-9.27-4.2-2.77-1.58-5.58-3.13-8.33-4.73-3.87-2.25-7.73-4.5-11.69-6.57-2.44-1.28-5-2.33-7.6-3.29-4.13-1.52-7.87-3.86-11.86-5.69-4-1.84-7.81-4.04-11.96-5.56-3.26-1.19-6.09-3.18-9.18-4.68-.92-.45-1.35-.35-1.72,.62-.3,.77-.04,1.31,.6,1.79,1.82,1.38,4.13,1.79,5.98,3.14,.83,.62,1.72,1.18,2.65,1.61,2.6,1.19,5.12,2.55,7.75,3.68,1.58,.68,3.05,1.62,4.54,2.48,2.77,1.6,5.79,2.66,8.63,4.11,4.14,2.11,8.22,4.34,12.37,6.44,4.6,2.31,9.23,4.54,13.86,6.77,1.64,.79,3.24,1.66,4.9,2.38,1.62,.71,3.27,1.35,4.92,2.08,1.02,.87,2.36,1.07,3.55,1.61,.84,.37,2.13-.6,2.28-1.56ZM48.63,8.71c.11-.24,.1-.49-.14-.63-.87-.55-1.68-1.23-2.61-1.56-2.02-.73-3.97-1.54-5.93-2.4-1.31-.56-2.67-1-4-1.5-.36-.13-.67-.01-.82,.29-.22,.42,.23,.43,.44,.52,2.84,1.31,5.68,2.61,8.52,3.9,.73,.32,1.47,.57,1.94,.74,.78,.52,1.41,.66,2.01,.87,.27,.08,.46,.04,.59-.23Z"/><path class="cls-4" d="M100.92,37.84c1.21,1.12,1.36,2.36,.92,3.6-.79,2.31-1.98,4.46-3.36,6.47-.8,1.16-2.3,1.08-3.88-.04-1.99-1.44-4.18-2.49-6.45-3.39-1.74-.68-3.38-1.59-5.02-2.45-.7-.37-1.04-1.55-1.38-2.42-1.01-2.49-2.79-4.4-4.66-6.2-1.78-1.7-3.44-3.56-5.64-4.83-1.19-.67-2.42-1.24-3.68-1.65-4.69-1.49-9.55-1.69-14.43-1.69-2.13,.01-4.3,.3-6.16,1.34-1.54,.86-2.55-.11-3.66-.63-.84-.4-1.71-.81-2.55-1.2-3.3-1.55-6.62-3.03-9.96-4.48-2.88-1.26-5.8-2.45-8.7-3.71-1.66-.72-2.38-1.45-.92-3.56,1.1-1.63,1.86-3.46,2.52-5.33,.37-1.11,.87-2.22,1.66-3.1,1.54-1.74,3.47-1.24,5.37-.82,.92,.2,1.58,.89,2.19,1,2.37,1.43,4.8,2,6.95,3.21,3.18,1.8,6.85,2.57,9.96,4.47,3.08,1.89,6.57,2.97,9.59,4.87,3.05,1.91,6.43,3.05,9.55,4.76,1.76,.96,3.75,1.47,5.57,2.33,1.26,.58,2.52,1.19,3.69,1.98,1.07,.74,2.43,.84,3.58,1.53,1.93,1.16,3.97,2.17,6.05,2.99,2.22,.87,4.39,1.89,6.33,3.19,2.1,1.4,4.6,2,6.52,3.76Zm-3.55,3.88c1.05-2.18,.53-3.32-1.68-4.29-2.95-1.29-5.97-2.43-8.78-4.01-.61-.35-1.26-.22-1.61,.5-.57,1.21-1.15,2.43-1.66,3.68-.58,1.4-.1,2.33,1.41,2.63,.92,.19,1.73,.58,2.48,1.08,1.73,1.2,3.56,2.15,5.55,2.85,2.33,.81,2.72,.71,3.8-1.49,.16-.31,.33-.63,.49-.95ZM48.87,21.46c1.05-2.21,.2-5.4-1.8-6.24-2.63-1.08-4.42-.53-5.87,2.22-.91,1.72,.19,4.63,2.03,5.43,1.67,.75,5,.53,5.64-1.41Z"/><path d="M95.69,37.43c2.21,.97,2.73,2.11,1.68,4.29-.16,.32-.33,.64-.49,.95-1.08,2.2-1.47,2.3-3.8,1.49-1.99-.7-3.82-1.65-5.55-2.85-.75-.5-1.56-.89-2.48-1.08-1.51-.3-1.99-1.23-1.41-2.63,.51-1.25,1.09-2.47,1.66-3.68,.35-.72,1-.85,1.61-.5,2.81,1.58,5.83,2.72,8.78,4.01Zm-.67,3.67c.74-.71,.38-1.11-.48-1.63-2.3-1.38-4.92-2.01-7.27-3.25-.77-.4-.75,.53-.93,.89-.13,.29-.72,.8,.08,1.12,2.45,.98,4.46,2.76,6.96,3.68,.97,.36,1.37,.22,1.64-.81Z"/><path class="cls-3" d="M94.54,39.47c.86,.52,1.22,.92,.48,1.63-.27,1.03-.67,1.17-1.64,.81-2.5-.92-4.51-2.7-6.96-3.68-.8-.32-.21-.83-.08-1.12,.18-.36,.16-1.29,.93-.89,2.35,1.24,4.97,1.87,7.27,3.25Z"/><path class="cls-2" d="M93.64,49.73c1.16,.76,1.35,.94,.55,2.09-.87,1.26-.93,2.93-1.59,4.34-1.34,2.86-2.54,5.78-3.9,8.63-1.92,4.01-4.18,7.82-6.06,11.85-1.25,2.67-2.92,5.14-4.42,7.69-.53,.93-1.09,1.83-1.6,2.77-.79,1.41-1.15,1.58-2.59,.91-2.76-1.25-5.55-2.42-8.13-3.99-2.16-1.31-4.36-2.57-6.55-3.81-4.04-2.27-7.99-4.69-12.11-6.8l1.26-2.48c3.52,1.85,7.3,2.47,11.23,2.58,1.72,.05,3.26-.74,4.78-1.33,2.24-.87,4.38-2.02,6.42-3.35,2.25-1.47,4.16-3.23,5.89-5.26,1.7-1.99,3.63-3.83,4.58-6.31,1.46-3.8,2.9-7.65,2.62-11.84-.01-.15,.04-.3,.08-.53,3.09,1.89,6.53,2.89,9.54,4.84Z"/><path class="cls-6" d="M81.72,45.41c.54,1.8-.29,3.6-.54,5.39-.24,1.74-1.01,3.33-1.53,4.97-.6,1.92-1.91,3.54-3.25,5.03-2.53,2.83-5.17,5.56-8.58,7.39-2.28,1.22-4.59,2.42-7.13,2.84-2.37,.39-4.82,.15-7.17-.52-2.67-.75-5.1-2.11-7.52-3.44-1.69-.92-3.18-2.22-4.36-3.8-.93-1.23-1.85-2.47-3.09-3.43-1.38-1.07-1.91-2.6-2.08-4.27-.19-1.69-1.26-3.12-1.3-4.88-.05-2.44,.23-4.8,.91-7.16,.83-2.87,2.08-5.52,3.69-8.03,2.56-3.97,5.99-6.76,10.71-7.56,5.1-.87,10.17-.51,15.16,.79,.98,.25,2.05,.27,2.97,1.02,3.59,1.4,5.99,4.39,8.61,7.12,2.31,2.42,3.59,5.41,4.5,8.54Zm-10.47,11.44c1.93-2.89,2.83-5.98,2.8-9.4-.02-2.75-1.12-5.16-2.27-7.55-1.03-2.14-2.73-3.73-4.49-5.14-2.24-1.8-5.16-2.4-7.91-2.67-7.55-.76-14.25,3.8-17.09,10.14-1.23,2.75-2.06,5.72-1.77,8.87,.54,5.91,3.25,10.39,8.39,13.35,2.81,1.14,5.49,2.18,8.63,1.93,3.96-.3,7.05-2.19,9.94-4.57,1.63-1.34,2.61-3.22,3.77-4.96Z"/><path class="cls-4" d="M74.5,90.43c.18,.08,.48,.03,.42,.43-.15,.96-1.44,1.93-2.28,1.56-1.19-.54-2.53-.74-3.55-1.61-1.65-.73-3.3-1.37-4.92-2.08-1.66-.72-3.26-1.59-4.9-2.38-4.63-2.23-9.26-4.46-13.86-6.77-4.15-2.1-8.23-4.33-12.37-6.44-2.84-1.45-5.86-2.51-8.63-4.11-1.49-.86-2.96-1.8-4.54-2.48-2.63-1.13-5.15-2.49-7.75-3.68-.93-.43-1.82-.99-2.65-1.61-1.85-1.35-4.16-1.76-5.98-3.14-.64-.48-.9-1.02-.6-1.79,.37-.97,.8-1.07,1.72-.62,3.09,1.5,5.92,3.49,9.18,4.68,4.15,1.52,7.96,3.72,11.96,5.56,3.99,1.83,7.73,4.17,11.86,5.69,2.6,.96,5.16,2.01,7.6,3.29,3.96,2.07,7.82,4.32,11.69,6.57,2.75,1.6,5.56,3.15,8.33,4.73,2.98,1.68,6.11,2.94,9.27,4.2Z"/><path d="M74.05,47.45c.03,3.42-.87,6.51-2.8,9.4-1.16,1.74-2.14,3.62-3.77,4.96-2.89,2.38-5.98,4.27-9.94,4.57-3.14,.25-5.82-.79-8.63-1.93-5.14-2.96-7.85-7.44-8.39-13.35-.29-3.15,.54-6.12,1.77-8.87,2.84-6.34,9.54-10.9,17.09-10.14,2.75,.27,5.67,.87,7.91,2.67,1.76,1.41,3.46,3,4.49,5.14,1.15,2.39,2.25,4.8,2.27,7.55Zm-3.25,5.45c1.42-3.44,1.24-6.82-.13-10.3-.98-2.47-2.64-4.35-4.51-5.95-1.85-1.58-4.45-1.9-6.8-2.3-3.21-.54-6.36,.39-9.07,2.08-5.19,3.26-7.66,8.21-7.45,14.29,.18,5.38,2.71,9.52,7.62,11.96,2.97,1.48,6.13,2.16,9.42,1.05,4.27-1.44,7.58-4.06,9.56-8.22,.45-.86,.99-1.71,1.36-2.61Z"/><path class="cls-1" d="M70.67,42.6c1.37,3.48,1.55,6.86,.13,10.3-.37,.9-.91,1.75-1.36,2.61-1.98,4.16-5.29,6.78-9.56,8.22-3.29,1.11-6.45,.43-9.42-1.05-4.91-2.44-7.44-6.58-7.62-11.96-.21-6.08,2.26-11.03,7.45-14.29,2.71-1.69,5.86-2.62,9.07-2.08,2.35,.4,4.95,.72,6.8,2.3,1.87,1.6,3.53,3.48,4.51,5.95Zm-6.08,10.05c2.06-4.39,.94-8.43-2.85-10.83-3.32-2.09-9.26-.62-11.22,3.89-1.59,3.68-.98,7.96,3.05,10.21,4.32,2.29,8.98,1.08,11.02-3.27Z"/><path d="M61.74,41.82c3.79,2.4,4.91,6.44,2.85,10.83-2.04,4.35-6.7,5.56-11.02,3.27-4.03-2.25-4.64-6.53-3.05-10.21,1.96-4.51,7.9-5.98,11.22-3.89Zm.91,9.81c.65-1.49,.81-3.06,.42-4.62-.35-1.46-1.52-2.63-2.64-3.29-2.25-1.3-6.62-.01-7.85,2.97-1.31,3.13-.47,6.02,2.43,7.46,3.08,1.52,6.17,.42,7.64-2.52Z"/><path class="cls-5" d="M63.07,47.01c.39,1.56,.23,3.13-.42,4.62-1.47,2.94-4.56,4.04-7.64,2.52-2.9-1.44-3.74-4.33-2.43-7.46,1.23-2.98,5.6-4.27,7.85-2.97,1.12,.66,2.29,1.83,2.64,3.29Z"/><path d="M47.07,15.22c2,.84,2.85,4.03,1.8,6.24-.64,1.94-3.97,2.16-5.64,1.41-1.84-.8-2.94-3.71-2.03-5.43,1.45-2.75,3.24-3.3,5.87-2.22Zm-.05,4.95c.47-.9-.15-2.41-1.22-2.93-.97-.48-1.82-.17-2.33,.85-.56,1.12-.3,2.12,.67,2.64,1.16,.62,2.4,.38,2.88-.56Z"/><path class="cls-6" d="M48.49,8.08c.24,.14,.25,.39,.14,.63-.13,.27-.32,.31-.59,.23-.6-.21-1.23-.35-2.01-.87-.47-.17-1.21-.42-1.94-.74-2.84-1.29-5.68-2.59-8.52-3.9-.21-.09-.66-.1-.44-.52,.15-.3,.46-.42,.82-.29,1.33,.5,2.69,.94,4,1.5,1.96,.86,3.91,1.67,5.93,2.4,.93,.33,1.74,1.01,2.61,1.56Z"/><path class="cls-2" d="M48.5,70.93l-1.26,2.48c-1.14-.58-2.3-1.15-3.46-1.68-2.37-1.07-4.68-2.29-7.24-2.92-1.06-.26-2.04-.9-3.01-1.44-2.86-1.61-5.86-2.93-8.77-4.42-2.9-1.47-5.87-2.76-8.78-4.2-1.77-.89-3.75-1.44-5.49-2.41-1.75-.99-3.65-1.69-5.29-2.91-.58-.44-.63-.84-.34-1.39,1.33-2.55,1.68-5.46,2.94-8.04,1.21-2.46,2.28-4.99,3.58-7.4,1.25-2.34,2.54-4.64,3.68-7.03,1.29-2.69,3.01-5.17,4.35-7.86,.38-.77,.86-1.5,1.27-2.26,.37-.67,.78-.85,1.55-.53,3.81,1.63,7.58,3.35,11.43,4.93,2.92,1.2,5.73,2.66,8.6,4,.35,.16,.71,.32,1.15,.51-.73,.66-1.41,1.31-2.12,1.91-3.5,2.93-5.4,6.92-6.91,11.04-1.24,3.42-2,7.04-1.23,10.73,.45,2.16,1.24,4.25,1.65,6.44,.09,.48,.35,1.03,.71,1.36,1.98,1.82,3.61,3.95,5.36,5.97,1.99,2.27,4.69,3.53,7.29,4.94,.12,.06,.22,.12,.34,.18Z"/><path class="cls-3" d="M45.8,17.24c1.07,.52,1.69,2.03,1.22,2.93-.48,.94-1.72,1.18-2.88,.56-.97-.52-1.23-1.52-.67-2.64,.51-1.02,1.36-1.33,2.33-.85Z"/></g></g></svg>