<?xml version="1.0" encoding="UTF-8"?><svg id="Layer_2" xmlns="http://www.w3.org/2000/svg" viewBox="0 0 7.2 18.82"><defs><style>.cls-1{fill:#ee5d67;}</style></defs><g id="Layer_8"><g><path class="cls-1" d="M2.16,3.03c1.48,4.27,2.79,8.57,2.83,13.12C3.41,11.9,2.45,7.54,2.16,3.03Z"/><path d="M7.12,14.56c.15,.97,.07,1.91-.18,2.83-.39,1.45-1.57,1.84-2.76,.95-.52-.39-1.02-.84-1.24-1.48C1.47,12.37,.59,7.75,0,3.08c.02-.56,.09-1.1,.19-1.65C.33,.64,.7,.13,1.51,.01c.73-.11,1.89,.42,2.17,1.04,.31,.69,.59,1.39,.79,2.11,1.01,3.77,2.08,7.53,2.65,11.4Zm-2.13,1.59c-.04-4.55-1.35-8.85-2.83-13.12,.29,4.51,1.25,8.87,2.83,13.12Z"/></g></g></svg>