<?xml version="1.0" encoding="UTF-8"?><svg id="Layer_2" xmlns="http://www.w3.org/2000/svg" viewBox="0 0 203.18 149.63"><defs><style>.cls-1{fill:#f6f8f9;}.cls-2{fill:#f3a2c5;}.cls-3{fill:#ee5d67;}.cls-4{fill:#105375;}</style></defs><g id="Layer_8"><g><path d="M203.13,22.54c0,4.03,.13,8.05-.03,12.07-.27,6.96-.77,13.92-1.06,20.89-.18,4.27-.59,8.51-.78,12.78-.21,4.56-.56,9.12-.57,13.69-.01,5.87-.53,11.72-.93,17.57-.39,5.82-.61,11.63-.62,17.45,0,4.17-.04,8.33-.55,12.47-.33,2.7-.49,5.39-.65,8.1-.12,2.17-.36,4.37-.7,6.53-.35,2.22-1.26,4.3-3.71,5.06-1.19,.37-2.45,.51-3.71,.47-1.86-.05-3.71-.11-5.57-.21-7.57-.39-15.15-.43-22.72-.75-4.66-.19-9.31-.6-13.97-.79-3.56-.15-7.11-.44-10.68-.41-3.86,.02-7.72-.26-11.59-.24-3.4,.02-6.82,.11-10.21-.12-3.76-.26-7.51,0-11.25,.02-4.62,.02-9.24,.1-13.86,.05-3.41-.02-6.82-.13-10.23-.14-2.6,0-5.2,.13-7.8,.14-5.61,.01-11.22-.19-16.83-.39-4.41-.16-8.82-.12-13.23-.16-2.97-.03-5.94,.09-8.9-.1-2.45-.17-4.91-.22-7.36-.29-3-.09-6.01-.04-9.01,.31-2.25,.26-4.51,.01-6.76-.09-1.76-.08-3.49-.41-5.21-.74-1.41-.27-2.21-1.12-2.63-2.41-.27-.85-.43-1.73-.46-2.65-.14-3.66-.38-7.32-.51-10.98-.1-3.06-.08-6.12-.15-9.18-.05-2.41-.18-4.82-.24-7.23-.05-2.15-.01-4.31-.08-6.47-.08-2.65-.23-5.31-.34-7.96-.05-1.15-.16-2.3-.09-3.44,.28-4.66,.11-9.33,.15-13.99,.02-2.3,.09-4.6,.26-6.91,.22-3.05,.1-6.13,.04-9.19-.06-3.35-.22-6.7-.49-10.06-.21-2.59-.02-5.22,.04-7.83,.08-3.61,.28-7.22,.28-10.83,0-.9,.2-1.8,.25-2.7,.12-2.6,.09-5.21,.33-7.8,.35-3.8,.19-7.62,.43-11.43,.21-3.21,.87-6.34,1.43-9.5,.13-.67,.44-1.34,.79-1.94,.49-.86,1.21-1.42,2.27-1.52,3.81-.33,7.62-.56,11.43-.43,1.02,.04,2.02,.01,3.01-.15,1.35-.23,2.72-.34,4.06-.18,2.51,.31,5-.02,7.5-.01,2.21,.01,4.41,.06,6.62,.17,2.79,.15,5.59,.49,8.41,.24,1.79-.16,3.6-.04,5.41,.08,1.54,.11,3.1-.15,4.66-.12,4.15,.09,8.31,.14,12.47,.15,2.11,.01,4.21-.14,6.32-.13,3.9,.01,7.8,.11,11.7,.11,1.65,0,3.3-.17,4.95-.28,1.15-.07,2.3-.04,3.44-.04,1.45,.01,2.91-.15,4.36-.18,5.06-.12,10.13-.2,15.19-.32,5.56-.14,11.12-.36,16.69-.46,5.12-.09,10.24-.24,15.36-.06,4.51,.15,9.03,.09,13.53,.32,4.97,.26,9.94,.3,14.9,.48,3.41,.13,6.82-.05,10.21-.48,.76-.1,1.59,.12,2.35,.26,1.71,.33,3.41,.24,5.11,.26,1.72,.03,3.4,.29,5.05,.7,1.9,.47,3.43,2.28,3.71,4.22,.77,5.2,.62,10.43,.76,15.65,.01,.35,0,.7,0,1.05h.01Zm-1.88,4.25c.06-.78-.27-.95-.96-.92-2.1,.08-4.21,.05-6.31-.14-2.06-.2-4.11,.06-6.17,.11-5.67,.12-11.35,.15-17.02,.15-7.94,.01-15.88-.12-23.82-.05-4.66,.05-9.33,.3-14,.28-3.91-.02-7.83,.02-11.75,.01-2.21-.01-4.43,.09-6.62-.14-3.5-.36-7.01-.54-10.51-.7-3.45-.16-6.91-.21-10.36-.31-5.13-.16-10.25-.1-15.38-.12-5.97-.03-11.95,.17-17.93-.13-6.06-.3-12.14-.06-18.21-.38-4.01-.21-8.04-.06-12.06-.16-3.51-.09-7.02-.33-10.53-.46-2.15-.07-4.32,.12-6.47,.1-2.95-.03-5.89-.11-8.84,.15-1.12,.1-1.2,.07-1.24,1.2-.12,3.16-.16,6.32-.5,9.46-.08,.68,.26,.85,.89,.84,1.15-.01,2.31,.06,3.46,.06,9.89,.02,19.78-.07,29.66,.18,3.96,.1,7.93,.06,11.89,.07,14.97,.02,29.93,.01,44.89,.21,4.26,.05,8.52,.06,12.78,.08,6.13,.02,12.26,.04,18.39,.08,3.62,.02,7.24,.1,10.85,.07,3.95-.03,7.9,.07,11.85,.06,3.46,0,6.93,.06,10.39,.1,6.13,.05,12.26-.03,18.4,.05,4.61,.06,9.23,.1,13.84,.14,3.53,.02,7.06,.2,10.7-.05,.22-3.26,.43-6.55,.69-9.84Zm-1.23-2.89c1.22-.14,1.2-.07,1.17-1.34-.04-1.35-.01-2.71-.01-4.06h-.14c0-1.56-.02-3.12,0-4.67,.01-.63-.18-.9-.85-.91-1.46-.02-2.91,.02-4.36,.14-2.9,.24-5.8,.62-8.7,.69-5.52,.12-11.04,.07-16.57,.1-7.52,.03-15.05-.08-22.58,.18-2.5,.09-5.01-.09-7.52-.14-2.91-.05-5.82-.06-8.73-.15-4.36-.14-8.72-.38-13.08-.47-4.07-.09-8.13-.05-12.2-.07-4.41-.01-8.83-.03-13.24-.15-3.04-.08-6.09,.13-9.13,.12-7.35,0-14.67,.41-22,.75-4.62,.22-9.24,.3-13.85,.18-3.95-.1-7.9-.58-11.87-.55-2.41,.01-4.8-.4-7.2-.43-3.26-.04-6.52,.1-9.78,.1-4.86,0-9.72-.17-14.58,.03-.68,.03-1.15,.08-1.17,.95-.04,2.26-.16,4.52-.22,6.78-.03,1.02,.07,1.15,1.09,1.12,1.15-.02,2.33-.3,3.44-.22,3.11,.21,6.21,.1,9.31,.05,3.55-.05,7.08,.25,10.63,.35,2.7,.07,5.4,.23,8.11,.26,2.23,.04,4.48-.16,6.71-.06,2.71,.13,5.41,.28,8.12,.27,3.61-.01,7.23,0,10.83,.23,3.9,.23,7.81,.11,11.71,.1,3.26-.01,6.52-.18,9.78,.04,1.35,.1,2.71,.07,4.07,.08,4.16,.04,8.33,.03,12.49,.21,4.51,.19,9.02,.33,13.52,.63,5.25,.35,10.53,.22,15.79,.18,3.96-.03,7.91,.08,11.87-.04,4.14-.12,8.28-.24,12.42-.15,2.75,.05,5.5-.05,8.26-.03,3.35,.02,6.71,.14,10.06,.13,4.91-.01,9.81-.07,14.71-.21,1.86-.05,3.72-.02,5.57-.1,2.71-.1,5.4,.39,8.11,.08Zm-.01-12.97c.9-.05,1.05-.21,.91-1.12-.21-1.28-.5-2.56-.71-3.84-.26-1.61-1.2-2.38-2.78-2.7-3.07-.62-6.19-.43-9.28-.73-2.16-.21-4.38,.07-6.57,.15-1.91,.06-3.84,.37-5.72,.18-4.11-.42-8.23-.03-12.33-.44-3.15-.31-6.32-.06-9.48-.21-4.06-.2-8.12-.2-12.19-.18-6.68,.04-13.36-.03-20.03,.31-1.26,.06-2.52,0-3.77,.06-3.16,.19-6.31,.29-9.47,.24-2.51-.04-5.03,0-7.52,.13-4.61,.25-9.22,.3-13.84,.5-4.36,.18-8.74-.02-13.11-.02-7.64,0-15.28,0-22.91,.01-4.57,0-9.13,.13-13.68-.35-1.96-.2-3.89-.13-5.85-.04-2.35,.11-4.71,.28-7.06,.02-1.52-.17-3,0-4.49,.19-1.25,.17-2.51,.25-3.75,.11-.9-.1-1.79-.18-2.68-.05-2.24,.32-4.51,.01-6.77,.35-1.15,.17-1.67,.7-1.97,1.71-.51,1.7-.77,3.43-.92,5.19-.09,.93,0,1.06,.95,1.03,1-.03,1.99-.22,3-.21,3.47,.03,6.93,.06,10.4,.06,4.56,0,9.12-.29,13.69,.14,4.5,.41,9.02,.21,13.53,.62,2.89,.25,5.8,.17,8.71,.11,1.9-.04,3.82,.01,5.72-.07,3.46-.15,6.91-.4,10.36-.53,3.16-.13,6.33-.14,9.49-.23,6.08-.17,12.15-.13,18.23-.11,6.68,.03,13.36,.12,20.03,.22,4.42,.07,8.83,.23,13.25,.35,2.25,.06,4.51,.07,6.77,.16,3.77,.14,7.53,.2,11.3,.12,5.32-.13,10.65,.17,15.96-.21,2.01-.14,4.02,.09,6.03,.14,4.56,.1,9.12-.03,13.67-.24,1.36,0,2.73,.12,4.07-.03,2.05-.24,4.09-.46,6.15-.54,1.55-.06,3.1-.16,4.66-.25Zm.34,28.79c.12-1.07,.03-1.11-1.04-1.12-2.86-.02-5.73-.02-8.59-.03-5.57-.02-11.15-.04-16.72-.08-3.1-.02-6.2-.1-9.3-.12-2.7,0-5.4,.05-8.1,.03-4.56-.02-9.13-.1-13.7-.13-6.93-.04-13.86-.04-20.79-.07-2.6-.02-5.2-.07-7.81-.09-2.95-.03-5.91,.03-8.86-.02-4.17-.08-8.34-.08-12.5-.1-10.64-.07-21.27-.01-31.9-.15-3.19-.04-6.39-.05-9.58-.09-9.6-.12-19.2-.12-28.8-.12-4.57,0-9.13-.14-13.7-.18-1.89-.01-3.79-.18-5.69,.12-.62,.1-.89,.31-.88,.92,.01,1.66,0,3.32,0,4.98s.05,3.2-.02,4.79c-.03,.69,.2,.93,.82,.91,1.11-.03,2.22,.02,3.32-.1,2.59-.27,5.19-.46,7.8-.51,.85-.01,1.71-.06,2.56-.14,4.24-.4,8.48-.66,12.74-.59,3.22,.06,6.42,.18,9.64,.27,4.91,.13,9.83,.24,14.75,.41,3.86,.13,7.72,.26,11.59,.1,2.91-.12,5.82-.12,8.73-.23,4.51-.17,9.04-.1,13.56-.12,3.01-.02,6.01-.03,9.02,0,2.21,.02,4.42,.22,6.62,.21,3.45-.02,6.9,.05,10.34,.08,1.61,.01,3.22,.09,4.82,.16,3.31,.14,6.62,.34,9.93,.45,2.46,.08,4.92,.11,7.38,.09,3.66-.02,7.32-.04,10.98-.18,4.86-.18,9.72-.43,14.57-.73,2.31-.14,4.61,.17,6.92,.04,1.51-.07,3-.34,4.5-.4,2.65-.09,5.31,.08,7.97-.23,2.25-.26,4.51-.01,6.76,.2,1.74,.16,3.48,.36,5.23,.58,1.78,.22,3.6,.26,5.38-.21,1.57-.4,1.62-.47,1.54-2.01-.02-.4-.04-.8,.04-1.2,.38-1.77,.28-3.6,.47-5.39Zm-.96,15.53c.13-1.68,.25-3.37,.17-5.16-2.47,.51-4.86,.46-7.26,.52-.54,.02-1.1,.14-1.61,.31-1.88,.61-2.55,2.66-1.38,4.22,.36,.48,.8,.91,1.22,1.33,.85,.86,1.06,1.89,.93,3.05-.17,1.48-1.17,2.4-2.2,3.27-2.26,1.89-5.03,2.63-7.84,3.21-1.48,.31-2.75,.92-3.63,2.19-1.12,1.61-.72,3.12,1.05,3.97,.58,.28,1.2,.49,1.84,.61,.79,.15,1.56,.37,2.33,.57,2.4,.6,2.89,2.76,2.26,4.59-.47,1.37-1.21,2.64-1.47,4.1-.34,1.92,.49,3.23,2.39,3.66,1.48,.32,2.89,.13,4.25-.47,.98-.44,2.02-.58,3.05-.74,1.32-.2,2.36,.28,3,1.51,.12,.22,.24,.44,.38,.65,.17,.25,.38,.52,.72,.43s.37-.4,.37-.72c.02-1.35,.09-2.71,.11-4.06,.06-4.06,0-8.13,.21-12.18,.25-4.96,.75-9.91,1.11-14.86Zm-1.65,36.3c.07-1.64,.05-1.73-1.62-1.62-1.91,.13-3.8,.38-5.71,.21-4.44-.4-8.89-.57-13.35-.51-1.85,.02-3.69,.12-5.54,.02-1.6-.08-3.21-.09-4.82-.01-5.31,.24-10.62,.67-15.93,.78-4.78,.1-9.49,.92-14.26,1.11-2.99,.13-5.98,.55-8.98,.79-3.7,.3-7.41,.3-11.12,.48-3.35,.16-6.72,.09-10.08,.09-3.87,.01-7.74-.08-11.61-.02-2.82,.05-5.62-.22-8.43-.25-2.5-.03-5.01,.03-7.5-.18-2.55-.21-5.11-.21-7.64-.49-2.01-.23-4.03-.09-6.02-.34-4.13-.52-8.27-.93-12.43-1.03-6.17-.15-12.33-.33-18.48-.61-3.07-.14-6.13-.13-9.19-.07-1.66,.04-3.31,.21-4.95,.38-.61,.06-1.07,.28-1.25,1.05-.35,1.61-.81,3.18-1.61,4.66-.91,1.68-.39,3.73,1.01,5.06,.51,.49,1.11,.92,1.47,1.5,.44,.69,.98,.74,1.67,.71,2.5-.09,4.98-.5,7.51-.44,2.85,.07,5.69-.22,8.55-.05,3.56,.2,7.12,.28,10.69,.46,5.35,.26,10.71,.59,16.07,.84,4.61,.21,9.23,.4,13.85,.33,9.09-.14,18.18,.32,27.26-.23,4.51-.27,9.02-.47,13.52-.56,4.72-.1,9.43-.34,14.14-.63,6.12-.37,12.24-.66,18.36-1.04,6.42-.4,12.85-.29,19.28-.26,4.17,.02,8.33-.05,12.5,.23,3.29,.22,6.59,.21,9.88,.53,1.43,.13,2.87,.23,4.25,.45,.25-.4,.24-.76,.23-1.11-.08-3.41,.14-6.82,.28-10.23Zm-.47,14.99c.06-1.48,.08-1.49-1.38-1.91-1.6-.47-3.28-.38-4.91-.47-3.86-.22-7.71-.51-11.59-.45-2.35,.04-4.71,0-7.05-.1-3.36-.14-6.72-.06-10.08-.09-5.02-.04-10.03,.26-15.04,.56-2.4,.15-4.8,.27-7.21,.41-3.75,.22-7.51,.45-11.26,.67-2.05,.13-4.12,.08-6.16,.26-3.35,.28-6.72,.22-10.07,.37-5.16,.24-10.32,.53-15.48,.61-3.74,.06-7.48-.14-11.23-.16-3.55-.02-7.11,.15-10.66,.03-3.6-.12-7.21-.11-10.83-.29-4.91-.24-9.81-.78-14.74-.7-.4,0-.8,.01-1.2-.02-5.21-.4-10.43-.61-15.65-.59-3.52-.05-7.03,.07-10.52,.52-1.03,.13-1.03,.14-.93,1.19,.01,.15,.07,.3,.07,.45-.04,2.01-.73,4.25-2.77,5.1-1.01,.43-1.98,.96-2.97,1.46-1.29,.66-1.5,1.19-.96,2.54,.36,.88,.85,1.71,.95,2.68,.05,.52,.44,.59,.88,.59,1.21-.01,2.41,.05,3.62,.02,3.02-.07,6.02,.36,9.03,.38,5.72,.04,11.44-.29,17.17,.15,4.35,.34,8.73-.07,13.1,.32,2.59,.24,5.2,.27,7.8,.3,3.16,.04,6.3,.41,9.47,.27,1.79-.08,3.59-.26,5.41-.05,1.98,.22,4,.27,6.01,.28,2.4,.01,4.8-.15,7.21-.16,8.34-.04,16.67,.04,25.01-.15,5.21-.12,10.42,0,15.62-.05,8.44-.08,16.88-.17,25.32,.04,4.46,.11,8.94,.08,13.39,.53,2.2,.22,4.4,.23,6.61,.42,2.39,.21,4.81,.42,7.21,.04,1.25-.19,2.49-.28,3.74-.24,1.11,.02,2.21,.01,3.32-.04,1.18-.06,1.27-.18,1.31-1.33,.02-.55-.02-1.11,0-1.66,.14-3.91,.28-7.82,.44-11.73Zm-1.23,26.04c.39-3.09,.53-6.19,.53-9.5-2.48,.16-4.83-.12-7.18,.26-.92,.16-1.86,.32-2.83,.31-3.66-.02-7.3-.4-10.94-.59-4.06-.22-8.11-.55-12.17-.57-8.49-.06-16.98-.04-25.47-.03-7.79,0-15.58,.02-23.37,.06-3.2,.02-6.4,.23-9.6,.14-2.05-.06-4.1,0-6.15-.1-1.43-.06-2.91-.17-4.34,0-1.86,.21-3.71,.21-5.56,.2-3.72-.02-7.42-.41-11.14-.27-5.68,.21-11.33-.42-17.01-.36-.35,0-.69-.1-1.04-.12-2.1-.12-4.22-.43-6.31-.31-1.91,.12-3.82,.18-5.71,.06-4.24-.25-8.48-.39-12.72-.27-2.76,.07-5.51,.1-8.28-.09-3.34-.24-6.69-.24-10.04-.38-.75-.04-1.13,.22-1.27,.94-.24,1.25-.71,2.4-1.63,3.33-1.32,1.34-2.77,2.47-4.63,2.97-.96,.26-1.92,.58-2.9,.78-.75,.15-1.33,.53-1.74,1.1-.81,1.15-1.92,2.23-1.32,3.88,.03,.09,0,.2,0,.3,0,1.23,0,1.25,1.2,1.18,2.51-.13,5.01-.4,7.51-.42,3.26-.02,6.51,.05,9.76-.14,5.51-.32,11.02-.44,16.54-.55,5.72-.12,11.44-.17,17.16-.34,3.41-.1,6.81-.42,10.22-.58,2.8-.13,5.61-.06,8.42,.02,2.9,.09,5.81,0,8.71,.08,2.91,.07,5.82,.27,8.73,.38,4.31,.16,8.63,.06,12.95-.01,4.37-.06,8.74-.26,13.1-.3,5.13-.05,10.26,.03,15.38,.03,4.72,0,9.43-.03,14.14-.04,2.46-.01,4.93,.08,7.39-.03,1.8-.08,3.59,.04,5.39-.08,2.56-.17,5.11,.02,7.66,.07,2.81,.05,5.62-.03,8.42,.11,6.17,.31,12.35,.45,18.52,.3,1.34-.03,1.46-.12,1.62-1.42Zm-.38,4.87q.13-1.42-1.28-1.43c-3.82,0-7.65,.17-11.46-.09-6.52-.44-13.04-.49-19.56-.52-6.43-.04-12.86,.1-19.29,.07-4.91-.03-9.82,.2-14.73,.1-3.86-.08-7.73-.01-11.59-.07-1.65-.02-3.31,.17-4.96,.2-3.46,.05-6.93,.05-10.39,.1-2.61,.03-5.21,.12-7.81,.15-3.16,.03-6.3-.3-9.45-.46-4.97-.25-9.94,.08-14.91-.26-2.34-.15-4.71,.13-7.05,.29-4.11,.27-8.22,.51-12.33,.54-4.47,.03-8.93,.16-13.39,.24-2.06,.04-4.12,.01-6.18,.08-5.12,.2-10.23,.64-15.62,.58h-3.5c-2.61,0-5.21,.29-7.81,.48-.75,.06-1.12,.33-.96,1.12,.14,.69,.08,1.39,.08,2.09,.01,2.11,.49,2.82,2,3.23,3.34,.89,6.77,.69,10.16,.75,1.8,.04,3.6-.24,5.4-.33,2.71-.13,5.42,0,8.13,.12,4.75,.19,9.5,.36,14.27,.23,4.46-.11,8.93,.04,13.38,.25,4.77,.23,9.55,.36,14.31,.29,6.83-.09,13.66-.08,20.49,.06,3.72,.07,7.42-.08,11.13-.08,6.08-.02,12.16-.08,18.24,.02,2.96,.05,5.91,.13,8.87,.21,3.87,.1,7.74,0,11.6,.22,2.85,.16,5.71,.22,8.55,.46,3.1,.25,6.22,.31,9.32,.51,4.36,.28,8.73,.37,13.09,.45,4.82,.09,9.63,.39,14.44,.55,1.76,.06,3.52,.02,5.28-.08,1.5-.09,2.71-1.19,2.83-2.46,.25-2.54,.47-5.08,.7-7.61Zm-.46-49.46c-.69-1.86-.74-1.91-2.57-1.43-1.54,.41-3.06,.91-4.58,1.37,2.39,.23,4.77,.59,7.15,.06Zm-7.34-26.52c2.08-1.61,2.26-3.02,.38-4.6-2.03-1.7-1.83-4.46-.49-6.11,.2-.25,.6-.42,.46-.89-1.38-.12-2.77-.33-4.16-.33-3.05-.01-6.07,.55-9.14,.32-2.05-.16-4.07,.43-6.13,.47-2.86,.06-5.71-.16-8.58,.02-5,.32-10.01,.65-15.04,.63-1.9-.01-3.81-.12-5.69,.09-3.87,.43-7.73,.11-11.57-.02-4.4-.15-8.82-.41-13.22-.62-6.17-.28-12.36,.06-18.53-.32-1.4-.09-2.81,.11-4.21,.11-2.89,0-5.77,0-8.66,.06-5.47,.11-10.95,.01-16.42,.29-5.11,.26-10.22-.08-15.33-.21-2.85-.07-5.69-.23-8.55-.23-3.91,.02-7.82-.27-11.73-.34-3.36-.06-6.73-.17-10.09,.19-2.14,.24-4.29,.51-6.44,.54s-4.28,.17-6.43,.34c-1.89,.14-3.79,.33-5.84,.18-.07,1.83-.18,3.52-.18,5.22-.01,1.65,.12,3.3,.14,4.95,.02,1.64,.01,1.61,1.7,1.6,2.86-.03,5.73-.12,8.59,.05,4.76,.29,9.52,.34,14.28,.73,3.85,.32,7.73,.04,11.6,.07,5.76,.03,11.52,.22,17.28,.28,4.72,.04,9.43-.02,14.15,0,6.73,.02,13.46,.06,20.2,.1,6.62,.04,13.24,.64,19.87,.51,2.61-.06,5.23,.1,7.82-.07,3.81-.25,7.63-.17,11.44-.4,3.8-.23,7.62-.14,11.43-.2,3.11-.06,6.23-.1,9.34-.22,4.37-.15,8.73,.17,13.1,.32,2.66,.1,5.32-.14,7.98,.16,.99,.11,2.02,.16,2.99,.01,2.01-.33,4-.24,6-.02,.25,.03,.48,.12,.73,.06,2.42-.65,4.89-1.12,6.95-2.72Zm-2.08,26.16c-.44-.16-.68-.24-.91-.33-2.45-1.02-3.49-3.07-2.97-5.68,.16-.8,.46-1.54,.73-2.29,.25-.7,.74-1.32,.71-2.22-.85-.17-1.64-.14-2.45-.12-1.95,.07-3.89,.37-5.86,.18-.94-.09-1.89-.1-2.85-.01-1.79,.17-3.6,.32-5.4,.3-6.68-.04-13.35,.16-20.01,.59-3.96,.26-7.92,.46-11.87,.77-3.3,.26-6.63,.56-9.92,.37-3.17-.18-6.31,.04-9.46,.04-4.31,.01-8.61,.43-12.92,.63-3,.14-6.01,.19-9.01,.29-8.98,.29-17.96,.03-26.94-.04-4.56-.04-9.12-.24-13.67-.67-1.64-.16-3.29-.36-4.94-.41-2.86-.1-5.73-.03-8.58-.35-1.96-.23-3.9-.19-5.86-.14-3.15,.07-6.31,.2-9.45,.02-3.3-.19-6.63,.18-9.91-.44-.6-.12-.93,.12-1.14,.69-.39,1.03-.82,2.04-1.03,3.13-.27,1.41-.1,1.73,1.31,2.21,.99,.34,2.02,.59,3.01,.93,1.18,.4,2.21,1.03,2.47,2.38,.15,.79,.55,1.08,1.32,.95,.35-.05,.71-.02,1.05-.07,3.48-.49,7-.53,10.49-.4,2.3,.09,4.6,.22,6.9,.31,4.26,.18,8.51,.31,12.77,.33,5.32,.03,10.6,.8,15.89,1.18,3.8,.27,7.6,.53,11.39,.72,6.76,.34,13.52,.44,20.28,.59,3.64,.08,7.28-.16,10.92-.05,2.09,.06,4.19-.12,6.29-.18,2.96-.08,5.91-.09,8.88-.27,4.31-.25,8.6-.71,12.9-1.02,4.65-.33,9.28-.92,13.95-1.1,4.01-.16,8.01-.52,12.02-.58,6.73-.1,13.47-.03,20.2-.05,.5,0,1.02,.1,1.67-.19Zm-4.13-12.58c-1.26-.37-2.19-.57-3.08-.9-2.74-1.02-3.81-3.2-2.98-5.84,.3-.93,1.01-1.57,1.48-2.42-.99-.25-1.89,.19-2.82,.18-3.32-.03-6.63,.02-9.94-.08-4.85-.15-9.68-.63-14.55-.36-3.71,.2-7.44,.13-11.15,.11-5.93-.03-11.84,.54-17.76,.58-4.62,.03-9.24,.02-13.85,.07-3.42,.04-6.83-.2-10.24-.29-3.92-.11-7.84-.04-11.76-.12-4.25-.09-8.51-.07-12.77-.16-5.77-.13-11.54-.01-17.32-.04-3.92-.01-7.84-.05-11.76-.17-2.7-.08-5.4-.1-8.11,.04-1.54,.08-3.11,.16-4.65,.02-2.34-.21-4.7-.22-7.04-.41-3.4-.28-6.82-.37-10.23-.45-3.2-.08-6.41-.03-9.62-.05-.64,0-1.05,.11-.99,.91,.06,.85,0,1.71-.04,2.56-.05,1.09,.48,1.83,1.37,2.33,1.29,.73,2.59,1.06,4.16,.78,2.42-.44,5.16,.94,5.58,3.61,.05,.29,.16,.57,.23,.87,.09,.34,.29,.46,.65,.49,1.25,.07,2.5,.25,3.75,.27,3.2,.04,6.41-.03,9.62,.05,4.86,.11,9.73,0,14.61,.24,4.01,.19,8,.56,12.01,.75,3.05,.14,6.1,.42,9.15,.5,3.47,.1,6.94,.01,10.41,.11,5.27,.15,10.54,.29,15.81,.1,3.91-.14,7.82-.29,11.74-.43,1.75-.06,3.52,0,5.27-.16,3.09-.27,6.19-.29,9.29-.43,5.67-.27,11.35,.06,17.03-.25,4.2-.23,8.38-.8,12.61-.84,2.79-.03,5.6-.38,8.41-.45,3.11-.08,6.22-.25,9.33-.28,2.06-.02,4.13,.13,6.18-.1,2.15-.24,4.29-.19,6.44-.08,1.73,.09,3.46-.15,5.53-.26ZM19.11,108.64c.65-1.96,.07-4.17-1.55-5.6-.71-.62-1.54-1.18-1.95-2.04-1.19-2.5-.93-4.94,.41-7.32,.83-1.47,1.18-3.07,1.16-4.75-.02-1.22-.7-1.93-1.84-2.25-.87-.24-1.74-.47-2.6-.75-2.78-.92-3.04-2.74-2.54-4.66,.28-1.06,.69-2.1,1.09-3.12,.34-.86,.56-1.71,.44-2.64-.17-1.2-1.07-2.14-2.27-2.22-.75-.06-1.51-.04-2.26,.03-1.35,.13-2.59-.16-3.75-.83-.26-.15-.53-.26-.98-.47-.07,.76-.15,1.3-.16,1.84-.03,3.26-.05,6.52-.08,9.78-.03,4.22-.12,8.44-.07,12.66,.03,3.86,.23,7.71,.32,11.57,.05,2.61-.08,5.22,.09,7.82,.24,3.75,.3,7.51,.45,11.26,.02,.52-.09,1.07,.22,1.81,1.01-1.31,2.4-1.43,3.69-1.81,1.63-.48,3.18-1.03,4.6-2.1,2.2-1.67,2.76-5.24,1.76-7.2-.21-.4-.35-.84-.52-1.25-.89-2.14,0-3.73,1.78-4.63,1.03-.53,2.06-1.05,3.11-1.52,.74-.33,1.2-.83,1.45-1.61Z"/><path class="cls-1" d="M200.29,25.87c.69-.03,1.02,.14,.96,.92-.26,3.29-.47,6.58-.69,9.84-3.64,.25-7.17,.07-10.7,.05-4.61-.04-9.23-.08-13.84-.14-6.14-.08-12.27,0-18.4-.05-3.46-.04-6.93-.1-10.39-.1-3.95,.01-7.9-.09-11.85-.06-3.61,.03-7.23-.05-10.85-.07-6.13-.04-12.26-.06-18.39-.08-4.26-.02-8.52-.03-12.78-.08-14.96-.2-29.92-.19-44.89-.21-3.96-.01-7.93,.03-11.89-.07-9.88-.25-19.77-.16-29.66-.18-1.15,0-2.31-.07-3.46-.06-.63,.01-.97-.16-.89-.84,.34-3.14,.38-6.3,.5-9.46,.04-1.13,.12-1.1,1.24-1.2,2.95-.26,5.89-.18,8.84-.15,2.15,.02,4.32-.17,6.47-.1,3.51,.13,7.02,.37,10.53,.46,4.02,.1,8.05-.05,12.06,.16,6.07,.32,12.15,.08,18.21,.38,5.98,.3,11.96,.1,17.93,.13,5.13,.02,10.25-.04,15.38,.12,3.45,.1,6.91,.15,10.36,.31,3.5,.16,7.01,.34,10.51,.7,2.19,.23,4.41,.13,6.62,.14,3.92,.01,7.84-.03,11.75-.01,4.67,.02,9.34-.23,14-.28,7.94-.07,15.88,.06,23.82,.05,5.67,0,11.35-.03,17.02-.15,2.06-.05,4.11-.31,6.17-.11,2.1,.19,4.21,.22,6.31,.14Z"/><path class="cls-1" d="M201.19,22.56c.03,1.27,.05,1.2-1.17,1.34-2.71,.31-5.4-.18-8.11-.08-1.85,.08-3.71,.05-5.57,.1-4.9,.14-9.8,.2-14.71,.21-3.35,.01-6.71-.11-10.06-.13-2.76-.02-5.51,.08-8.26,.03-4.14-.09-8.28,.03-12.42,.15-3.96,.12-7.91,0-11.87,.04-5.26,.04-10.54,.17-15.79-.18-4.5-.3-9.01-.44-13.52-.63-4.16-.18-8.33-.17-12.49-.21-1.36-.01-2.72,.02-4.07-.08-3.26-.22-6.52-.05-9.78-.04-3.9,.01-7.81,.13-11.71-.1-3.6-.22-7.22-.24-10.83-.23-2.71,0-5.41-.14-8.12-.27-2.23-.1-4.48,.1-6.71,.06-2.71-.03-5.41-.19-8.11-.26-3.55-.1-7.08-.4-10.63-.35-3.1,.05-6.2,.16-9.31-.05-1.11-.08-2.29,.2-3.44,.22-1.02,.03-1.12-.1-1.09-1.12,.06-2.26,.18-4.52,.22-6.78,.02-.87,.49-.92,1.17-.95,4.86-.2,9.72-.03,14.58-.03,3.26,0,6.52-.14,9.78-.1,2.4,.03,4.79,.44,7.2,.43,3.97-.03,7.92,.45,11.87,.55,4.61,.12,9.23,.04,13.85-.18,7.33-.34,14.65-.75,22-.75,3.04,.01,6.09-.2,9.13-.12,4.41,.12,8.83,.14,13.24,.15,4.07,.02,8.13-.02,12.2,.07,4.36,.09,8.72,.33,13.08,.47,2.91,.09,5.82,.1,8.73,.15,2.51,.05,5.02,.23,7.52,.14,7.53-.26,15.06-.15,22.58-.18,5.53-.03,11.05,.02,16.57-.1,2.9-.07,5.8-.45,8.7-.69,1.45-.12,2.9-.16,4.36-.14,.67,.01,.86,.28,.85,.91-.03,1.55,0,3.11,0,4.67h.14c0,1.35-.03,2.71,.01,4.06Z"/><path class="cls-4" d="M200.92,9.81c.14,.91-.01,1.07-.91,1.12-1.56,.09-3.11,.19-4.66,.25-2.06,.08-4.1,.3-6.15,.54-1.34,.15-2.71,.03-4.07,.03-4.55,.21-9.11,.34-13.67,.24-2.01-.05-4.02-.28-6.03-.14-5.31,.38-10.64,.08-15.96,.21-3.77,.08-7.53,.02-11.3-.12-2.26-.09-4.52-.1-6.77-.16-4.42-.12-8.83-.28-13.25-.35-6.67-.1-13.35-.19-20.03-.22-6.08-.02-12.15-.06-18.23,.11-3.16,.09-6.33,.1-9.49,.23-3.45,.13-6.9,.38-10.36,.53-1.9,.08-3.82,.03-5.72,.07-2.91,.06-5.82,.14-8.71-.11-4.51-.41-9.03-.21-13.53-.62-4.57-.43-9.13-.14-13.69-.14-3.47,0-6.93-.03-10.4-.06-1.01-.01-2,.18-3,.21-.94,.03-1.04-.1-.95-1.03,.15-1.76,.41-3.49,.92-5.19,.3-1.01,.82-1.54,1.97-1.71,2.26-.34,4.53-.03,6.77-.35,.89-.13,1.78-.05,2.68,.05,1.24,.14,2.5,.06,3.75-.11,1.49-.19,2.97-.36,4.49-.19,2.35,.26,4.71,.09,7.06-.02,1.96-.09,3.89-.16,5.85,.04,4.55,.48,9.11,.36,13.68,.35,7.63-.02,15.27-.02,22.91-.01,4.37,0,8.75,.2,13.11,.02,4.62-.2,9.23-.25,13.84-.5,2.49-.13,5.01-.17,7.52-.13,3.16,.05,6.31-.05,9.47-.24,1.25-.07,2.51,0,3.77-.06,6.67-.34,13.35-.27,20.03-.31,4.07-.02,8.13-.02,12.19,.18,3.16,.15,6.33-.1,9.48,.21,4.1,.41,8.22,.02,12.33,.44,1.88,.19,3.81-.12,5.72-.18,2.19-.08,4.41-.36,6.57-.15,3.09,.3,6.21,.11,9.28,.73,1.58,.32,2.52,1.09,2.78,2.7,.21,1.28,.5,2.56,.71,3.84Z"/><path class="cls-1" d="M199.31,38.6c1.07,.01,1.16,.05,1.04,1.12-.19,1.79-.09,3.62-.47,5.39-.08,.4-.06,.8-.04,1.2,.08,1.54,.03,1.61-1.54,2.01-1.78,.47-3.6,.43-5.38,.21-1.75-.22-3.49-.42-5.23-.58-2.25-.21-4.51-.46-6.76-.2-2.66,.31-5.32,.14-7.97,.23-1.5,.06-2.99,.33-4.5,.4-2.31,.13-4.61-.18-6.92-.04-4.85,.3-9.71,.55-14.57,.73-3.66,.14-7.32,.16-10.98,.18-2.46,.02-4.92-.01-7.38-.09-3.31-.11-6.62-.31-9.93-.45-1.6-.07-3.21-.15-4.82-.16-3.44-.03-6.89-.1-10.34-.08-2.2,.01-4.41-.19-6.62-.21-3.01-.03-6.01-.02-9.02,0-4.52,.02-9.05-.05-13.56,.12-2.91,.11-5.82,.11-8.73,.23-3.87,.16-7.73,.03-11.59-.1-4.92-.17-9.84-.28-14.75-.41-3.22-.09-6.42-.21-9.64-.27-4.26-.07-8.5,.19-12.74,.59-.85,.08-1.71,.13-2.56,.14-2.61,.05-5.21,.24-7.8,.51-1.1,.12-2.21,.07-3.32,.1-.62,.02-.85-.22-.82-.91,.07-1.59,.02-3.2,.02-4.79s.01-3.32,0-4.98c-.01-.61,.26-.82,.88-.92,1.9-.3,3.8-.13,5.69-.12,4.57,.04,9.13,.18,13.7,.18,9.6,0,19.2,0,28.8,.12,3.19,.04,6.39,.05,9.58,.09,10.63,.14,21.26,.08,31.9,.15,4.16,.02,8.33,.02,12.5,.1,2.95,.05,5.91-.01,8.86,.02,2.61,.02,5.21,.07,7.81,.09,6.93,.03,13.86,.03,20.79,.07,4.57,.03,9.14,.11,13.7,.13,2.7,.02,5.4-.04,8.1-.03,3.1,.02,6.2,.1,9.3,.12,5.57,.04,11.15,.06,16.72,.08,2.86,.01,5.73,.01,8.59,.03Z"/><path class="cls-2" d="M199.56,50.09c.08,1.79-.04,3.48-.17,5.16-.36,4.95-.86,9.9-1.11,14.86-.21,4.05-.15,8.12-.21,12.18-.02,1.35-.09,2.71-.11,4.06,0,.32-.03,.63-.37,.72s-.55-.18-.72-.43c-.14-.21-.26-.43-.38-.65-.64-1.23-1.68-1.71-3-1.51-1.03,.16-2.07,.3-3.05,.74-1.36,.6-2.77,.79-4.25,.47-1.9-.43-2.73-1.74-2.39-3.66,.26-1.46,1-2.73,1.47-4.1,.63-1.83,.14-3.99-2.26-4.59-.77-.2-1.54-.42-2.33-.57-.64-.12-1.26-.33-1.84-.61-1.77-.85-2.17-2.36-1.05-3.97,.88-1.27,2.15-1.88,3.63-2.19,2.81-.58,5.58-1.32,7.84-3.21,1.03-.87,2.03-1.79,2.2-3.27,.13-1.16-.08-2.19-.93-3.05-.42-.42-.86-.85-1.22-1.33-1.17-1.56-.5-3.61,1.38-4.22,.51-.17,1.07-.29,1.61-.31,2.4-.06,4.79-.01,7.26-.52Zm-4.5,29.71c.62-1.02,.71-2.17,.85-3.62-.31-2.39-.67-5.06-1-7.74-.14-1.07-.66-1.97-1.07-2.93-.63-1.45-2.53-1.25-3.21-.26-.59,.86-.81,1.81-.96,2.81-.16,1.07,.1,2.1,.23,3.13,.3,2.42,.59,4.85,1.46,7.17,.32,.85,.86,1.47,1.55,1.95,.82,.58,1.62,.34,2.15-.51Z"/><path class="cls-1" d="M196.12,89.93c1.67-.11,1.69-.02,1.62,1.62-.14,3.41-.36,6.82-.28,10.23,.01,.35,.02,.71-.23,1.11-1.38-.22-2.82-.32-4.25-.45-3.29-.32-6.59-.31-9.88-.53-4.17-.28-8.33-.21-12.5-.23-6.43-.03-12.86-.14-19.28,.26-6.12,.38-12.24,.67-18.36,1.04-4.71,.29-9.42,.53-14.14,.63-4.5,.09-9.01,.29-13.52,.56-9.08,.55-18.17,.09-27.26,.23-4.62,.07-9.24-.12-13.85-.33-5.36-.25-10.72-.58-16.07-.84-3.57-.18-7.13-.26-10.69-.46-2.86-.17-5.7,.12-8.55,.05-2.53-.06-5.01,.35-7.51,.44-.69,.03-1.23-.02-1.67-.71-.36-.58-.96-1.01-1.47-1.5-1.4-1.33-1.92-3.38-1.01-5.06,.8-1.48,1.26-3.05,1.61-4.66,.18-.77,.64-.99,1.25-1.05,1.64-.17,3.29-.34,4.95-.38,3.06-.06,6.12-.07,9.19,.07,6.15,.28,12.31,.46,18.48,.61,4.16,.1,8.3,.51,12.43,1.03,1.99,.25,4.01,.11,6.02,.34,2.53,.28,5.09,.28,7.64,.49,2.49,.21,5,.15,7.5,.18,2.81,.03,5.61,.3,8.43,.25,3.87-.06,7.74,.03,11.61,.02,3.36,0,6.73,.07,10.08-.09,3.71-.18,7.42-.18,11.12-.48,3-.24,5.99-.66,8.98-.79,4.77-.19,9.48-1.01,14.26-1.11,5.31-.11,10.62-.54,15.93-.78,1.61-.08,3.22-.07,4.82,.01,1.85,.1,3.69,0,5.54-.02,4.46-.06,8.91,.11,13.35,.51,1.91,.17,3.8-.08,5.71-.21Z"/><path class="cls-1" d="M195.89,104.63c1.46,.42,1.44,.43,1.38,1.91-.16,3.91-.3,7.82-.44,11.73-.02,.55,.02,1.11,0,1.66-.04,1.15-.13,1.27-1.31,1.33-1.11,.05-2.21,.06-3.32,.04-1.25-.04-2.49,.05-3.74,.24-2.4,.38-4.82,.17-7.21-.04-2.21-.19-4.41-.2-6.61-.42-4.45-.45-8.93-.42-13.39-.53-8.44-.21-16.88-.12-25.32-.04-5.2,.05-10.41-.07-15.62,.05-8.34,.19-16.67,.11-25.01,.15-2.41,.01-4.81,.17-7.21,.16-2.01-.01-4.03-.06-6.01-.28-1.82-.21-3.62-.03-5.41,.05-3.17,.14-6.31-.23-9.47-.27-2.6-.03-5.21-.06-7.8-.3-4.37-.39-8.75,.02-13.1-.32-5.73-.44-11.45-.11-17.17-.15-3.01-.02-6.01-.45-9.03-.38-1.21,.03-2.41-.03-3.62-.02-.44,0-.83-.07-.88-.59-.1-.97-.59-1.8-.95-2.68-.54-1.35-.33-1.88,.96-2.54,.99-.5,1.96-1.03,2.97-1.46,2.04-.85,2.73-3.09,2.77-5.1,0-.15-.06-.3-.07-.45-.1-1.05-.1-1.06,.93-1.19,3.49-.45,7-.57,10.52-.52,5.22-.02,10.44,.19,15.65,.59,.4,.03,.8,.02,1.2,.02,4.93-.08,9.83,.46,14.74,.7,3.62,.18,7.23,.17,10.83,.29,3.55,.12,7.11-.05,10.66-.03,3.75,.02,7.49,.22,11.23,.16,5.16-.08,10.32-.37,15.48-.61,3.35-.15,6.72-.09,10.07-.37,2.04-.18,4.11-.13,6.16-.26,3.75-.22,7.51-.45,11.26-.67,2.41-.14,4.81-.26,7.21-.41,5.01-.3,10.02-.6,15.04-.56,3.36,.03,6.72-.05,10.08,.09,2.34,.1,4.7,.14,7.05,.1,3.88-.06,7.73,.23,11.59,.45,1.63,.09,3.31,0,4.91,.47Z"/><path class="cls-1" d="M196.57,123.08c0,3.31-.14,6.41-.53,9.5-.16,1.3-.28,1.39-1.62,1.42-6.17,.15-12.35,.01-18.52-.3-2.8-.14-5.61-.06-8.42-.11-2.55-.05-5.1-.24-7.66-.07-1.8,.12-3.59,0-5.39,.08-2.46,.11-4.93,.02-7.39,.03-4.71,.01-9.42,.04-14.14,.04-5.12,0-10.25-.08-15.38-.03-4.36,.04-8.73,.24-13.1,.3-4.32,.07-8.64,.17-12.95,.01-2.91-.11-5.82-.31-8.73-.38-2.9-.08-5.81,.01-8.71-.08-2.81-.08-5.62-.15-8.42-.02-3.41,.16-6.81,.48-10.22,.58-5.72,.17-11.44,.22-17.16,.34-5.52,.11-11.03,.23-16.54,.55-3.25,.19-6.5,.12-9.76,.14-2.5,.02-5,.29-7.51,.42-1.2,.07-1.2,.05-1.2-1.18,0-.1,.03-.21,0-.3-.6-1.65,.51-2.73,1.32-3.88,.41-.57,.99-.95,1.74-1.1,.98-.2,1.94-.52,2.9-.78,1.86-.5,3.31-1.63,4.63-2.97,.92-.93,1.39-2.08,1.63-3.33,.14-.72,.52-.98,1.27-.94,3.35,.14,6.7,.14,10.04,.38,2.77,.19,5.52,.16,8.28,.09,4.24-.12,8.48,.02,12.72,.27,1.89,.12,3.8,.06,5.71-.06,2.09-.12,4.21,.19,6.31,.31,.35,.02,.69,.12,1.04,.12,5.68-.06,11.33,.57,17.01,.36,3.72-.14,7.42,.25,11.14,.27,1.85,0,3.7,0,5.56-.2,1.43-.17,2.91-.06,4.34,0,2.05,.1,4.1,.04,6.15,.1,3.2,.09,6.4-.12,9.6-.14,7.79-.04,15.58-.06,23.37-.06,8.49-.01,16.98-.03,25.47,.03,4.06,.02,8.11,.35,12.17,.57,3.64,.19,7.28,.57,10.94,.59,.97,.01,1.91-.15,2.83-.31,2.35-.38,4.7-.1,7.18-.26Z"/><path class="cls-1" d="M194.38,136.02q1.41,.01,1.28,1.43c-.23,2.53-.45,5.07-.7,7.61-.12,1.27-1.33,2.37-2.83,2.46-1.76,.1-3.52,.14-5.28,.08-4.81-.16-9.62-.46-14.44-.55-4.36-.08-8.73-.17-13.09-.45-3.1-.2-6.22-.26-9.32-.51-2.84-.24-5.7-.3-8.55-.46-3.86-.22-7.73-.12-11.6-.22-2.96-.08-5.91-.16-8.87-.21-6.08-.1-12.16-.04-18.24-.02-3.71,0-7.41,.15-11.13,.08-6.83-.14-13.66-.15-20.49-.06-4.76,.07-9.54-.06-14.31-.29-4.45-.21-8.92-.36-13.38-.25-4.77,.13-9.52-.04-14.27-.23-2.71-.12-5.42-.25-8.13-.12-1.8,.09-3.6,.37-5.4,.33-3.39-.06-6.82,.14-10.16-.75-1.51-.41-1.99-1.12-2-3.23,0-.7,.06-1.4-.08-2.09-.16-.79,.21-1.06,.96-1.12,2.6-.19,5.2-.48,7.81-.48h3.5c5.39,.06,10.5-.38,15.62-.58,2.06-.07,4.12-.04,6.18-.08,4.46-.08,8.92-.21,13.39-.24,4.11-.03,8.22-.27,12.33-.54,2.34-.16,4.71-.44,7.05-.29,4.97,.34,9.94,.01,14.91,.26,3.15,.16,6.29,.49,9.45,.46,2.6-.03,5.2-.12,7.81-.15,3.46-.05,6.93-.05,10.39-.1,1.65-.03,3.31-.22,4.96-.2,3.86,.06,7.73-.01,11.59,.07,4.91,.1,9.82-.13,14.73-.1,6.43,.03,12.86-.11,19.29-.07,6.52,.03,13.04,.08,19.56,.52,3.81,.26,7.64,.08,11.46,.09Z"/><path d="M195.91,76.18c-.14,1.45-.23,2.6-.85,3.62-.53,.85-1.33,1.09-2.15,.51-.69-.48-1.23-1.1-1.55-1.95-.87-2.32-1.16-4.75-1.46-7.17-.13-1.03-.39-2.06-.23-3.13,.15-1,.37-1.95,.96-2.81,.68-.99,2.58-1.19,3.21,.26,.41,.96,.93,1.86,1.07,2.93,.33,2.68,.69,5.35,1,7.74Zm-2.22,1.91c.59-2.21-.46-9.79-1.59-11.49-1,1.92,.14,10.15,1.59,11.49Z"/><path class="cls-3" d="M192.1,66.6c1.13,1.7,2.18,9.28,1.59,11.49-1.45-1.34-2.59-9.57-1.59-11.49Z"/><path class="cls-1" d="M188.24,56.87c1.88,1.58,1.7,2.99-.38,4.6-2.06,1.6-4.53,2.07-6.95,2.72-.25,.06-.48-.03-.73-.06-2-.22-3.99-.31-6,.02-.97,.15-2,.1-2.99-.01-2.66-.3-5.32-.06-7.98-.16-4.37-.15-8.73-.47-13.1-.32-3.11,.12-6.23,.16-9.34,.22-3.81,.06-7.63-.03-11.43,.2-3.81,.23-7.63,.15-11.44,.4-2.59,.17-5.21,.01-7.82,.07-6.63,.13-13.25-.47-19.87-.51-6.74-.04-13.47-.08-20.2-.1-4.72-.02-9.43,.04-14.15,0-5.76-.06-11.52-.25-17.28-.28-3.87-.03-7.75,.25-11.6-.07-4.76-.39-9.52-.44-14.28-.73-2.86-.17-5.73-.08-8.59-.05-1.69,.01-1.68,.04-1.7-1.6-.02-1.65-.15-3.3-.14-4.95,0-1.7,.11-3.39,.18-5.22,2.05,.15,3.95-.04,5.84-.18,2.15-.17,4.28-.31,6.43-.34s4.3-.3,6.44-.54c3.36-.36,6.73-.25,10.09-.19,3.91,.07,7.82,.36,11.73,.34,2.86,0,5.7,.16,8.55,.23,5.11,.13,10.22,.47,15.33,.21,5.47-.28,10.95-.18,16.42-.29,2.89-.06,5.77-.06,8.66-.06,1.4,0,2.81-.2,4.21-.11,6.17,.38,12.36,.04,18.53,.32,4.4,.21,8.82,.47,13.22,.62,3.84,.13,7.7,.45,11.57,.02,1.88-.21,3.79-.1,5.69-.09,5.03,.02,10.04-.31,15.04-.63,2.87-.18,5.72,.04,8.58-.02,2.06-.04,4.08-.63,6.13-.47,3.07,.23,6.09-.33,9.14-.32,1.39,0,2.78,.21,4.16,.33,.14,.47-.26,.64-.46,.89-1.34,1.65-1.54,4.41,.49,6.11Z"/><path class="cls-1" d="M184.87,87.3c.23,.09,.47,.17,.91,.33-.65,.29-1.17,.19-1.67,.19-6.73,.02-13.47-.05-20.2,.05-4.01,.06-8.01,.42-12.02,.58-4.67,.18-9.3,.77-13.95,1.1-4.3,.31-8.59,.77-12.9,1.02-2.97,.18-5.92,.19-8.88,.27-2.1,.06-4.2,.24-6.29,.18-3.64-.11-7.28,.13-10.92,.05-6.76-.15-13.52-.25-20.28-.59-3.79-.19-7.59-.45-11.39-.72-5.29-.38-10.57-1.15-15.89-1.18-4.26-.02-8.51-.15-12.77-.33-2.3-.09-4.6-.22-6.9-.31-3.49-.13-7.01-.09-10.49,.4-.34,.05-.7,.02-1.05,.07-.77,.13-1.17-.16-1.32-.95-.26-1.35-1.29-1.98-2.47-2.38-.99-.34-2.02-.59-3.01-.93-1.41-.48-1.58-.8-1.31-2.21,.21-1.09,.64-2.1,1.03-3.13,.21-.57,.54-.81,1.14-.69,3.28,.62,6.61,.25,9.91,.44,3.14,.18,6.3,.05,9.45-.02,1.96-.05,3.9-.09,5.86,.14,2.85,.32,5.72,.25,8.58,.35,1.65,.05,3.3,.25,4.94,.41,4.55,.43,9.11,.63,13.67,.67,8.98,.07,17.96,.33,26.94,.04,3-.1,6.01-.15,9.01-.29,4.31-.2,8.61-.62,12.92-.63,3.15,0,6.29-.22,9.46-.04,3.29,.19,6.62-.11,9.92-.37,3.95-.31,7.91-.51,11.87-.77,6.66-.43,13.33-.63,20.01-.59,1.8,.02,3.61-.13,5.4-.3,.96-.09,1.91-.08,2.85,.01,1.97,.19,3.91-.11,5.86-.18,.81-.02,1.6-.05,2.45,.12,.03,.9-.46,1.52-.71,2.22-.27,.75-.57,1.49-.73,2.29-.52,2.61,.52,4.66,2.97,5.68Z"/><path class="cls-1" d="M178.57,74.15c.89,.33,1.82,.53,3.08,.9-2.07,.11-3.8,.35-5.53,.26-2.15-.11-4.29-.16-6.44,.08-2.05,.23-4.12,.08-6.18,.1-3.11,.03-6.22,.2-9.33,.28-2.81,.07-5.62,.42-8.41,.45-4.23,.04-8.41,.61-12.61,.84-5.68,.31-11.36-.02-17.03,.25-3.1,.14-6.2,.16-9.29,.43-1.75,.16-3.52,.1-5.27,.16-3.92,.14-7.83,.29-11.74,.43-5.27,.19-10.54,.05-15.81-.1-3.47-.1-6.94-.01-10.41-.11-3.05-.08-6.1-.36-9.15-.5-4.01-.19-8-.56-12.01-.75-4.88-.24-9.75-.13-14.61-.24-3.21-.08-6.42-.01-9.62-.05-1.25-.02-2.5-.2-3.75-.27-.36-.03-.56-.15-.65-.49-.07-.3-.18-.58-.23-.87-.42-2.67-3.16-4.05-5.58-3.61-1.57,.28-2.87-.05-4.16-.78-.89-.5-1.42-1.24-1.37-2.33,.04-.85,.1-1.71,.04-2.56-.06-.8,.35-.91,.99-.91,3.21,.02,6.42-.03,9.62,.05,3.41,.08,6.83,.17,10.23,.45,2.34,.19,4.7,.2,7.04,.41,1.54,.14,3.11,.06,4.65-.02,2.71-.14,5.41-.12,8.11-.04,3.92,.12,7.84,.16,11.76,.17,5.78,.03,11.55-.09,17.32,.04,4.26,.09,8.52,.07,12.77,.16,3.92,.08,7.84,.01,11.76,.12,3.41,.09,6.82,.33,10.24,.29,4.61-.05,9.23-.04,13.85-.07,5.92-.04,11.83-.61,17.76-.58,3.71,.02,7.44,.09,11.15-.11,4.87-.27,9.7,.21,14.55,.36,3.31,.1,6.62,.05,9.94,.08,.93,.01,1.83-.43,2.82-.18-.47,.85-1.18,1.49-1.48,2.42-.83,2.64,.24,4.82,2.98,5.84Z"/><path class="cls-2" d="M17.56,103.04c1.62,1.43,2.2,3.64,1.55,5.6-.25,.78-.71,1.28-1.45,1.61-1.05,.47-2.08,.99-3.11,1.52-1.78,.9-2.67,2.49-1.78,4.63,.17,.41,.31,.85,.52,1.25,1,1.96,.44,5.53-1.76,7.2-1.42,1.07-2.97,1.62-4.6,2.1-1.29,.38-2.68,.5-3.69,1.81-.31-.74-.2-1.29-.22-1.81-.15-3.75-.21-7.51-.45-11.26-.17-2.6-.04-5.21-.09-7.82-.09-3.86-.29-7.71-.32-11.57-.05-4.22,.04-8.44,.07-12.66,.03-3.26,.05-6.52,.08-9.78,.01-.54,.09-1.08,.16-1.84,.45,.21,.72,.32,.98,.47,1.16,.67,2.4,.96,3.75,.83,.75-.07,1.51-.09,2.26-.03,1.2,.08,2.1,1.02,2.27,2.22,.12,.93-.1,1.78-.44,2.64-.4,1.02-.81,2.06-1.09,3.12-.5,1.92-.24,3.74,2.54,4.66,.86,.28,1.73,.51,2.6,.75,1.14,.32,1.82,1.03,1.84,2.25,.02,1.68-.33,3.28-1.16,4.75-1.34,2.38-1.6,4.82-.41,7.32,.41,.86,1.24,1.42,1.95,2.04Zm-4.56-7.47c.09-.57-.08-1.11-.27-1.62-.25-.7-1.14-1.27-1.88-1.28-.87,0-1.74,.55-1.95,1.38-.5,1.89-1.31,3.67-1.9,5.53-.68,2.16-1.28,4.33-1.5,6.68,.07,.41,.16,.9,.21,1.4,.09,.89,.53,1.53,1.4,1.76,.91,.24,1.52-.27,2-.99,.68-1.01,1.11-2.14,1.47-3.29,.5-1.61,.91-3.27,1.46-4.87,.53-1.53,.71-3.12,.96-4.7Z"/><path d="M12.73,93.95c.19,.51,.36,1.05,.27,1.62-.25,1.58-.43,3.17-.96,4.7-.55,1.6-.96,3.26-1.46,4.87-.36,1.15-.79,2.28-1.47,3.29-.48,.72-1.09,1.23-2,.99-.87-.23-1.31-.87-1.4-1.76-.05-.5-.14-.99-.21-1.4,.22-2.35,.82-4.52,1.5-6.68,.59-1.86,1.4-3.64,1.9-5.53,.21-.83,1.08-1.38,1.95-1.38,.74,.01,1.63,.58,1.88,1.28Zm-5.01,12.82c1.24-1.77,3.46-9.91,3.17-12.02-2.08,4.21-3.6,10.08-3.17,12.02Z"/><path class="cls-3" d="M10.89,94.75c.29,2.11-1.93,10.25-3.17,12.02-.43-1.94,1.09-7.81,3.17-12.02Z"/></g></g></svg>