<?xml version="1.0" encoding="UTF-8"?><svg id="Layer_2" xmlns="http://www.w3.org/2000/svg" viewBox="0 0 93.35 104.69"><defs><style>.cls-1{fill:#f6f8f9;}.cls-2{fill:#f3a2c5;}.cls-3{fill:#f9e0e9;}.cls-4{fill:#f9da69;}</style></defs><g id="Layer_4"><g><path class="cls-4" d="M43.79,2.14c.75,.03,1.21,.22,.55,1.01-.03,.04-.06,.07-.06,.1-.18,1.91-1.68,2.21-3.08,2.95-1.44,.76-2.78,1.01-4.36,1.05-2.58,.08-4.51,1.78-6.56,3.1-2.17,1.39-5.58,1.05-7.4-.78-.59-.58-1.21-1.13-1.82-1.7,4.53-2.56,9.31-4.13,14.29-5.12,2.78-.55,5.6-.71,8.44-.61Z"/><path class="cls-4" d="M17.01,23.67c.71,1.72,.74,3.44,.45,5.2-.05,.29-.1,.69-.44,.76-.28,.05-.47-.25-.64-.47-1.8-2.25-3.9-4.3-4.96-7.07-1.32-3.42-.67-7.81,3.1-9.88,.27,1.52-.03,2.94,.27,4.38,.51,2.44,1.27,4.79,2.22,7.08Z"/><path class="cls-4" d="M9.57,59.61c1.85,.44,2.33,1.96,1.04,3.5-1.45,1.74-2.6,3.65-3.39,5.77-.38,1.02-.52,2.1-.71,3.49-1.43-3.12-2.3-6.03-2.9-9.02-.67-3.35-1.15-6.72-1.44-10.12-.04-.47,.03-.76,.66-.59,.64,.17,1.29,.37,1.98,.4,.51,.02,.85,.16,.79,1-.2,2.85,1,4.85,3.97,5.57Z"/><path class="cls-4" d="M36.27,96.67c1.29,1.68,2.32,3.58,3.99,5.01-6.13-.67-11.56-3.25-16.74-6.32-5.32-3.16-8.95-8-12.12-13.26,1.72,1.26,3.79,1.48,5.73,2.07,1.97,.61,3.75,1.49,4.83,3.38,.37,.65,.69,1.27,.57,2.11-.29,2.18,.59,4.01,2.49,4.92,1.79,.87,3.79,.75,5.49-.56,.5-.38,.89-.07,1.34-.03,1.92,.15,3.27,1.19,4.42,2.68Z"/><path class="cls-4" d="M79.74,29.25c2.85,3.12,4.5,6.75,6.29,10.69-1.92-1.08-3.6-1.4-5.5-1.16-2.07,.27-4.17-.02-6.14-.86-.64-.28-1.15-.53-.47-1.36,.54-.65,.53-1.55,.6-2.37,.04-.49,.05-.82,.74-.93,2.23-.36,3.59-1.84,4.48-4.01Z"/><path class="cls-4" d="M88.79,47.51c3.15,7.06,3.55,26.46-.99,31.59,.17-3.48-1.59-6.04-3.64-8.49-1.97-2.36-3.78-4.81-3.9-8.08-.03-1.02,.32-1.95,.56-2.9,.09-.36,.35-.58,.77-.65,2.9-.5,4.48-2.83,3.99-5.22-.14-.69,.07-1.12,.74-1.54,1.63-1.01,2.34-2.61,2.47-4.71Z"/><path class="cls-4" d="M82.11,85.3c.87-.22,1.63-.66,2.5-.93-2.18,3.11-4.96,5.69-7.93,7.94-4.95,3.74-17.56,9.19-20.86,9.33,2.08-2.22,2.6-4.94,2.86-7.74,.05-.61,.46-.72,.86-.82,2.13-.57,3.69-3.25,2.63-5.49-.3-.62-.08-.9,.49-1.3,3.82-2.63,7.91-2.89,12.26-1.66,2.33,.65,4.69,1.32,7.19,.67Z"/><path class="cls-3" d="M40.12,19.53c.48,.24,.49,.43,.39,.85-.38,1.6-.5,3.16,1.06,4.53-3.36,1.06-5.75,3.27-8.45,4.94-1.14,.69-2.1,1.69-3.05,2.64-.78,.77-1.83,1.11-2.6,1.88-.34,.34-.89,.29-1.37,.28-2.63-.09-4.71-1.46-6.75-2.91-.45-.32-.56-.66-.31-1.22,1.15-2.63,.9-5.23-.14-7.85-.85-2.16-1.74-4.34-2.05-6.67-.24-1.84-.38-3.73,.53-5.49,.7-1.35,1.67-1.55,2.76-.53,1.49,1.41,2.94,2.94,5.12,3.11,1.52,.12,2.38,.5,3.1,2.11,1.23,2.76,4.21,3.21,6.25,1.36,1.33-1.21,1.3-4.07-.15-5.17-.89-.66-.72-.93,.15-1.31,.95-.41,1.9-.72,2.94-.78,.57-.02,.93,.01,.8,.75-.18,1.1,.06,2.12,.88,2.94,.41,.42,.09,.71-.15,1.01-1.67,2.03-1.26,4.36,1.04,5.53Zm-14.02,7.95c2.02,.08,4.18-1.81,4.03-3.72-.2-2.59-1.47-3.9-4.39-4.18-2.51,.27-3.56,1.33-3.8,3.98-.22,2.35,1.44,3.8,4.16,3.92Z"/><path class="cls-3" d="M86.48,45.38c.23,1.2,.3,2.54-.15,3.79-.44,1.27-1.24,1.56-2.31,.81-3.47-2.42-7.31-.06-7.87,3.57-.28,1.81,.14,3.78,1.98,4.9,.79,.48,.6,1.13,.41,1.67-1.13,3.17,.09,5.83,1.63,8.49,1.42,2.45,3.54,4.38,4.79,6.94,1.69,3.46,.44,6.94-3.85,7.71-2.18,.39-4.17-.26-6.15-.81-4.66-1.31-9.02-.8-13.04,1.85-1.08,.71-1.94,.64-3.04,.28-1.86-.6-3.56-.15-4.99,1.19-1.35,1.26-1.77,2.82-1.22,4.57,.51,1.61,1.66,2.64,3.25,3.17,.27,.08,.65,.05,.57,.44-.24,1.19-.15,2.44-.61,3.59-.91,2.28-2.47,3.61-4.98,4.23-2.96,.73-5.56,0-8.17-1.09-1.37-.57-2.19-1.81-3.05-2.96-.64-.85-1.26-1.72-1.88-2.59-1.3-1.81-3.14-2.76-5.26-3.2-.57-.12-.62-.2-.54-.81,.22-1.81-.19-3.49-1.65-4.71-1.49-1.25-3.54-1.53-4.91-.59-1.78,1.24-2.04,0-2.84-.89-1.48-1.66-3.48-2.38-5.58-2.93-2.87-.74-5.65-1.71-7.29-4.47-1.15-1.92-1.34-4.02-.93-6.17,.54-2.84,2.07-5.17,3.81-7.42,.73-.95,.91-2.16,.77-3.38-.05-.38-.27-.8,.32-.96,.64-.18,.5,.45,.57,.67,.86,2.71,6.24,4.32,8.6,1.76,.89-.96,1.81-1.86,2.24-3.11,.24-.7,.59-.19,.81-.13,2.73,.76,5.35,.77,7.73-1.01,.62-.46,1.24-.98,1.74-1.58,1.35-1.6,3.47-1.23,4.29,.78,.32,.79,.34,1.63,.39,2.46,.03,.47,.02,.94,.13,1.41,.13,.59,.41,1.02,.92,1.13,.56,.13,.96-.29,1.19-.79,.91-2.05,3.09-2.56,5.18-2.01,.51,.14,.91,.39,1.3,.77,.38,.38,.92,.6,1.53,.3,.56-.28,.55-.77,.54-1.23-.03-1.01,.07-2.02-.02-3.04-.14-1.62,.86-2.82,1.84-3.93,.31-.35,.86-.55,1.51-.29,4.48,1.83,7.85-1.37,8.1-5.15,.05-.71,.45-.89,1.04-.78,3.15,.57,8.47-3.15,8.17-7.14,2.72,1.83,5.62,2.33,8.63,2.26,1.14-.03,2.26-.36,3.4,.09,1.98,.78,2.59,2.57,2.95,4.34Zm-15.25,29.13c2.07-.57,3.37-2.63,3.06-4.65-.31-2-2.39-3.88-3.92-3.9-1.56-.06-2.65,.14-3.45,1.05-1.17,1.34-1.3,3.08-1.65,4.72-.14,.67,.29,1.27,.77,1.79,1.49,1.63,3.33,1.5,5.19,.99Zm-5.1-14.83c1.5-2.3,.39-4.78-2.43-5.48-3.47-.86-5.6,.61-5.79,4.19-.03,.48,.01,.96,.29,1.36,1.97,2.76,6.13,2.7,7.93-.07Zm-25.46,17.97c.06-2.4-1.6-4.47-3.72-4.43-2.8,.06-4.27,1.11-4.46,4.26-.07,2.01,1.75,3.56,4.33,3.68,1.83,.08,3.8-1.71,3.85-3.51Zm-18.25-4.93c.12-2.43-2.45-4.64-4.95-4.62-2.82,.03-4.88,2.57-4.55,4.96-.43,2.37,2.17,4.35,4.77,4.18,2.96-.2,4.63-2.2,4.73-4.52Z"/><path d="M93.02,57.28c.49,4.24,.39,8.45-.03,12.63-.37,3.81-1.41,7.47-3.48,10.85-2.03,3.3-4.15,6.47-6.89,9.21-2.81,2.8-6.02,5.01-9.47,6.95-1.86,1.06-3.81,1.93-5.69,2.95-2.59,1.42-5.46,2.25-8.26,3.23-3.11,1.09-6.38,1.53-9.57,1.58-4.37,.06-8.74-.29-13.06-1.4-4.23-1.08-8.1-2.93-11.97-4.8-2.4-1.15-4.5-2.87-6.55-4.65-4.11-3.57-7-8.03-9.77-12.59-1.89-3.11-3.2-6.53-4.52-9.93C1.4,65.22,.5,58.86,.1,52.39c-.08-1.32-.15-2.64-.06-3.93,.2-2.94,3.18-6.42,6.6-5.67,.99,.21,1.47,.01,1.82-.99,.49-1.41,1.47-2.52,2.79-3.25,1.36-.75,4.09-.24,5.56,1.78,.71,.98,.93,2.16,1.5,3.3,1.31-1.51,2.92-2.08,4.83-1.88,2.76,.28,4.39,1.99,5.41,4.37,.31,.72,.58,.78,1.36,.8,2.54,.07,5.22-.13,7.03,2.34,.63,.85,1.04,1.74,.85,2.72-.17,.91,.28,1.15,.92,1.47,.73,.37,1.49,.64,2.06,1.34,.63,.77,1.04,1.59,1.16,2.56,.06,.57,.24,.79,.82,.44,1.85-1.14,3.82-1.07,5.9-.56-.03-2.61,.71-4.93,2.61-6.79,.05-.06,.13-.1,.17-.17,.16-.34-.12-.6-.31-.68-.96-.41,.1-2.34-1.76-2.15-2.58,.27-4.27-.7-5.16-2.92-.62-1.54-.11-3.15,.48-4.6,.78-1.96,2.43-3.07,4.38-3.68,.46-.14,.51-.26,.52-.69,.03-1.5,.12-3.02,1.05-4.28,1.27-1.75,2.96-3.15,5.48-2.78,.62,.1,.83-.03,.92-.67,.32-2.43,1.88-3.68,4.14-4.36,1.26-.38,2.47-.8,3.81-.47,.23,.06,.47,.05,.7,.11,.47,.13,2.43-.26,2.75-.59,.87-.89,1.87-1.57,2.99-2.09,2.42-1.13,4.32-.06,6.1,1.41,1.32,1.1,2.17,2.45,2.35,4.25,.09,.91,1.05,1.41,1.64,2.04,2.09,2.24,3.54,4.85,4.85,7.57,1.42,2.97,2.87,5.91,3.94,9.04,1.39,4.08,2.24,8.24,2.72,12.55Zm-5.22,21.82c4.54-5.13,4.14-24.53,.99-31.59-.13,2.1-.84,3.7-2.47,4.71-.67,.42-.88,.85-.74,1.54,.49,2.39-1.09,4.72-3.99,5.22-.42,.07-.68,.29-.77,.65-.24,.95-.59,1.88-.56,2.9,.12,3.27,1.93,5.72,3.9,8.08,2.05,2.45,3.81,5.01,3.64,8.49Zm-1.47-29.93c.45-1.25,.38-2.59,.15-3.79-.36-1.77-.97-3.56-2.95-4.34-1.14-.45-2.26-.12-3.4-.09-3.01,.07-5.91-.43-8.63-2.26,.3,3.99-5.02,7.71-8.17,7.14-.59-.11-.99,.07-1.04,.78-.25,3.78-3.62,6.98-8.1,5.15-.65-.26-1.2-.06-1.51,.29-.98,1.11-1.98,2.31-1.84,3.93,.09,1.02-.01,2.03,.02,3.04,.01,.46,.02,.95-.54,1.23-.61,.3-1.15,.08-1.53-.3-.39-.38-.79-.63-1.3-.77-2.09-.55-4.27-.04-5.18,2.01-.23,.5-.63,.92-1.19,.79-.51-.11-.79-.54-.92-1.13-.11-.47-.1-.94-.13-1.41-.05-.83-.07-1.67-.39-2.46-.82-2.01-2.94-2.38-4.29-.78-.5,.6-1.12,1.12-1.74,1.58-2.38,1.78-5,1.77-7.73,1.01-.22-.06-.57-.57-.81,.13-.43,1.25-1.35,2.15-2.24,3.11-2.36,2.56-7.74,.95-8.6-1.76-.07-.22,.07-.85-.57-.67-.59,.16-.37,.58-.32,.96,.14,1.22-.04,2.43-.77,3.38-1.74,2.25-3.27,4.58-3.81,7.42-.41,2.15-.22,4.25,.93,6.17,1.64,2.76,4.42,3.73,7.29,4.47,2.1,.55,4.1,1.27,5.58,2.93,.8,.89,1.06,2.13,2.84,.89,1.37-.94,3.42-.66,4.91,.59,1.46,1.22,1.87,2.9,1.65,4.71-.08,.61-.03,.69,.54,.81,2.12,.44,3.96,1.39,5.26,3.2,.62,.87,1.24,1.74,1.88,2.59,.86,1.15,1.68,2.39,3.05,2.96,2.61,1.08,5.21,1.82,8.17,1.09,2.51-.62,4.07-1.95,4.98-4.23,.46-1.15,.37-2.4,.61-3.59,.08-.39-.3-.36-.57-.44-1.59-.53-2.74-1.56-3.25-3.17-.55-1.75-.13-3.31,1.22-4.57,1.43-1.34,3.13-1.79,4.99-1.19,1.1,.36,1.96,.43,3.04-.28,4.02-2.65,8.38-3.16,13.04-1.85,1.98,.55,3.97,1.2,6.15,.81,4.29-.77,5.54-4.25,3.85-7.71-1.25-2.56-3.37-4.49-4.79-6.94-1.54-2.66-2.76-5.32-1.63-8.49,.19-.54,.38-1.19-.41-1.67-1.84-1.12-2.26-3.09-1.98-4.9,.56-3.63,4.4-5.99,7.87-3.57,1.07,.75,1.87,.46,2.31-.81Zm-.3-9.23c-1.79-3.94-3.44-7.57-6.29-10.69-.89,2.17-2.25,3.65-4.48,4.01-.69,.11-.7,.44-.74,.93-.07,.82-.06,1.72-.6,2.37-.68,.83-.17,1.08,.47,1.36,1.97,.84,4.07,1.13,6.14,.86,1.9-.24,3.58,.08,5.5,1.16Zm-2.57,14.17c0-1.8-.82-2.95-2.14-2.97-1.77-.04-3,1.27-3.04,3.26-.04,1.68,.8,2.62,2.32,2.61,1.93-.02,2.86-.96,2.86-2.9Zm1.15,30.26c-.87,.27-1.63,.71-2.5,.93-2.5,.65-4.86-.02-7.19-.67-4.35-1.23-8.44-.97-12.26,1.66-.57,.4-.79,.68-.49,1.3,1.06,2.24-.5,4.92-2.63,5.49-.4,.1-.81,.21-.86,.82-.26,2.8-.78,5.52-2.86,7.74,3.3-.14,15.91-5.59,20.86-9.33,2.97-2.25,5.75-4.83,7.93-7.94Zm-10.53-53.17c1.85,.2,3.9-1.34,3.6-3.95,.01-.83,.05-1.67-.41-2.43-1.4-2.32-4.07-4.05-6.82-1.29-.77,.77-1.35,1.63-1.79,2.61-.28,.61-.68,1.13-1.39,1.15-.68,.01-.99-.61-1.29-1.12-.64-1.07-1.57-1.49-2.81-1.17-.6,.16-1.19,.39-1.78,.62-2.28,.86-2.84,2.15-1.92,4.44,.21,.53,.15,1.01-.31,1.4-.5,.41-.89,.26-1.36-.12-1.33-1.1-3.1-.99-4.44,.06-1.83,1.43-1.7,3.41-1.59,5.36,.07,1.16-.17,1.63-1.29,1.57-1.87-.09-3.17,.77-3.8,2.42-1.12,2.93-.55,4.21,1.83,4.66,.68,.12,1.33-.11,1.98-.28,1.73-.45,2.5,.18,2.15,1.91-.15,.76,.07,1.28,.55,1.7,.71,.62,1.52,1.13,2.48,1.32,1.86,.38,3.07-.24,4.03-1.92,.52-.9,.59-1.88,.7-2.85,.16-1.5,.54-1.94,1.95-1.61,2.58,.6,4.37-.75,6.05-2.3,.89-.82,1.19-1.91,.66-3.16-.42-1.01,.09-1.68,1.25-1.7,.98-.02,1.55-.48,1.88-1.34,.38-.96,.36-1.81-.44-2.61-.45-.45-.75-1.13-.26-1.73,.5-.61,1.07-.33,1.58,.07,.3,.24,.65,.25,1.01,.29Zm-16.72,60.37c1.51-.07,3.08-1.37,3.04-2.5-.06-1.51-1.4-2.64-3.08-2.61-1.66,.03-2.79,1.15-2.76,2.76,.02,1.27,1.39,2.42,2.8,2.35Zm-17.1,10.11c-1.67-1.43-2.7-3.33-3.99-5.01-1.15-1.49-2.5-2.53-4.42-2.68-.45-.04-.84-.35-1.34,.03-1.7,1.31-3.7,1.43-5.49,.56-1.9-.91-2.78-2.74-2.49-4.92,.12-.84-.2-1.46-.57-2.11-1.08-1.89-2.86-2.77-4.83-3.38-1.94-.59-4.01-.81-5.73-2.07,3.17,5.26,6.8,10.1,12.12,13.26,5.18,3.07,10.61,5.65,16.74,6.32Zm-5.43-47.98c1.4-1.69,1.04-3.55-.9-4.21-1.55-.52-3.23-.66-4.87-.39-1.65,.29-1.95,.07-2.27-1.64-.3-1.7-1.39-2.83-3-3.4-1.39-.49-2.66-.26-3.71,.87-.51,.55-1.05,1.09-1.63,1.57-.38,.32-.84,.63-1.41,.31-.6-.34-1.01-.9-.92-1.55,.21-1.55-.51-2.78-1.29-3.95-.77-1.16-2.48-1.15-3.39-.16s-1.41,2.19-1.88,3.41c-.28,.73-.74,1.29-1.52,.84-1.93-1.12-3.43-.57-4.89,.91-.96,.97-1.01,2.18-.89,3.28,.1,.86,1.21,1.03,2.02,1.26,.78,.22,1.56,.24,2.35,.11,1.45-.23,2.03,.42,1.64,1.83-.08,.3-.18,.61-.3,.9-.68,1.67-.03,3.23,1.67,3.83,1.39,.48,2.78,.36,4.15-.21,1.17-.5,2.04-.06,2.18,1.12,.15,1.32,.82,2.13,2.05,2.48,1.28,.36,2.55,.55,3.62-.61,.88-.95,1.54-1.93,1.63-3.29,.1-1.29,1.1-1.75,2.07-.97,1.1,.87,2.34,1.11,3.87,1.05,1.23,.24,2.38-.36,3.41-1.23,.78-.66,1.56-1.37,2.21-2.16Zm-4.88,36.76c.07-1.61-.95-2.82-2.4-2.85-1.62-.03-2.9,.92-2.82,2.22,.15,2.24,.25,2.96,2.75,3.05,1.46,.06,2.41-.89,2.47-2.42ZM10.61,63.11c1.29-1.54,.81-3.06-1.04-3.5-2.97-.72-4.17-2.72-3.97-5.57,.06-.84-.28-.98-.79-1-.69-.03-1.34-.23-1.98-.4-.63-.17-.7,.12-.66,.59,.29,3.4,.77,6.77,1.44,10.12,.6,2.99,1.47,5.9,2.9,9.02,.19-1.39,.33-2.47,.71-3.49,.79-2.12,1.94-4.03,3.39-5.77Z"/><path class="cls-2" d="M81.32,51.14c1.32,.02,2.14,1.17,2.14,2.97,0,1.94-.93,2.88-2.86,2.9-1.52,0-2.36-.93-2.32-2.61,.04-1.99,1.27-3.3,3.04-3.26Z"/><path class="cls-1" d="M77.68,27.25c.3,2.61-1.75,4.15-3.6,3.95-.36-.04-.71-.05-1.01-.29-.51-.4-1.08-.68-1.58-.07-.49,.6-.19,1.28,.26,1.73,.8,.8,.82,1.65,.44,2.61-.33,.86-.9,1.32-1.88,1.34-1.16,.02-1.67,.69-1.25,1.7,.53,1.25,.23,2.34-.66,3.16-1.68,1.55-3.47,2.9-6.05,2.3-1.41-.33-1.79,.11-1.95,1.61-.11,.97-.18,1.95-.7,2.85-.96,1.68-2.17,2.3-4.03,1.92-.96-.19-1.77-.7-2.48-1.32-.48-.42-.7-.94-.55-1.7,.35-1.73-.42-2.36-2.15-1.91-.65,.17-1.3,.4-1.98,.28-2.38-.45-2.95-1.73-1.83-4.66,.63-1.65,1.93-2.51,3.8-2.42,1.12,.06,1.36-.41,1.29-1.57-.11-1.95-.24-3.93,1.59-5.36,1.34-1.05,3.11-1.16,4.44-.06,.47,.38,.86,.53,1.36,.12,.46-.39,.52-.87,.31-1.4-.92-2.29-.36-3.58,1.92-4.44,.59-.23,1.18-.46,1.78-.62,1.24-.32,2.17,.1,2.81,1.17,.3,.51,.61,1.13,1.29,1.12,.71-.02,1.11-.54,1.39-1.15,.44-.98,1.02-1.84,1.79-2.61,2.75-2.76,5.42-1.03,6.82,1.29,.46,.76,.42,1.6,.41,2.43Zm-13.53,7.13c-.05-.14-.1-.29-.14-.45-.24-1.11-.81-1.59-1.7-1.32-.92,.28-.66,.92-.5,1.63,.45,1.91-.88,3.04-2.76,2.38-.66-.23-1.14-.09-1.4,.47-.27,.56,0,1.18,.51,1.42,.89,.4,1.82,.76,2.85,.47,1.73-.5,3.1-2.48,3.14-4.6Z"/><path d="M74.29,69.86c.31,2.02-.99,4.08-3.06,4.65-1.86,.51-3.7,.64-5.19-.99-.48-.52-.91-1.12-.77-1.79,.35-1.64,.48-3.38,1.65-4.72,.8-.91,1.89-1.11,3.45-1.05,1.53,.02,3.61,1.9,3.92,3.9Zm-5.06,2.82c2.47-.12,3.35-1.05,2.66-2.97-.33-.91-.9-1.73-2.15-1.68-1.18,.06-1.7,.66-1.89,1.72-.06,.31-.15,.61-.23,.92-.41,1.46,.1,2.09,1.61,2.01Z"/><path class="cls-2" d="M71.89,69.71c.69,1.92-.19,2.85-2.66,2.97-1.51,.08-2.02-.55-1.61-2.01,.08-.31,.17-.61,.23-.92,.19-1.06,.71-1.66,1.89-1.72,1.25-.05,1.82,.77,2.15,1.68Z"/><path d="M63.7,54.2c2.82,.7,3.93,3.18,2.43,5.48-1.8,2.77-5.96,2.83-7.93,.07-.28-.4-.32-.88-.29-1.36,.19-3.58,2.32-5.05,5.79-4.19Zm-1.36,5.44c1.29-.04,2.23-.81,2.21-1.81-.02-1.12-.83-1.74-2.24-1.71-1.44,.04-2.3,.81-2.34,2.1-.02,.66,1.32,1.46,2.37,1.42Z"/><path class="cls-2" d="M64.55,57.83c.02,1-.92,1.77-2.21,1.81-1.05,.04-2.39-.76-2.37-1.42,.04-1.29,.9-2.06,2.34-2.1,1.41-.03,2.22,.59,2.24,1.71Z"/><path d="M64.01,33.93c.04,.16,.09,.31,.14,.45-.04,2.12-1.41,4.1-3.14,4.6-1.03,.29-1.96-.07-2.85-.47-.52-.24-.78-.86-.51-1.42,.26-.56,.74-.7,1.4-.47,1.88,.66,3.21-.47,2.76-2.38-.16-.71-.42-1.35,.5-1.63,.89-.27,1.46,.21,1.7,1.32Z"/><path class="cls-2" d="M60.4,89.07c.04,1.13-1.53,2.43-3.04,2.5-1.41,.07-2.78-1.08-2.8-2.35-.03-1.61,1.1-2.73,2.76-2.76,1.68-.03,3.02,1.1,3.08,2.61Z"/><path d="M52.89,17.54c1.71,2.3,.48,5.25-1.8,6.71-.65,.41-1.46,.35-2.09,.13-.74-.27-1.03,.07-1.36,.52-.76,1.01-1.78,1.25-3,1.32-1.41,.08-2.75,.68-3.99,1.35-3.63,1.97-7.11,4.2-9.99,7.18-3.01,3.1-7.44,1.87-10.05,.37-4.17-2.4-7.33-5.82-9.92-9.76-1.9-2.87-2.48-6.05-1.58-9.54,.81-3.11,3.1-4.79,5.43-6.47C20.45,5.07,27.08,2.37,34.16,.76c2.62-.6,5.33-.7,8.28-.76,2.52,.1,5.18,.76,7.83,1.54,1.88,.55,2.97,3,2.79,4.86-.12,1.23-.15,2.54-.9,3.64-.19,.27-.16,.48,.09,.72,1.62,1.57,1.26,3.39,.53,5.17-.26,.63-.27,1.09,.11,1.61Zm-1.75,3.73c.78-1.3,.55-2.51-.66-3.47-1.44-1.14-1.44-1.21-.08-2.44,.67-.6,.97-1.36,.87-2.24-.09-.86-.83-.96-1.48-1.15-.91-.26-1.3-1.29-.56-1.78,1.47-.96,1.53-2.41,1.64-3.86,.09-1.11-.25-2.12-1.22-2.76-1.05-.69-2.13-.64-3.08,.16-.93,.78-.9,1.97-1.02,3.05-.12,1.04-.61,1.49-1.54,1.13-1.37-.52-2.85,.24-3.45,1.54-.51,1.12-.06,1.9,1.49,2.77,.9,.5,.94,1.36,.08,1.98-.35,.25-.73,.48-1.07,.75-.68,.55-1.02,1.31-.75,2.12,.24,.72,1.03,.6,1.65,.65,1.57,.13,1.96,.91,1.12,2.31-.37,.63-.64,1.28-.68,2.01-.03,.5,.07,.89,.5,1.25,1.65,1.41,2.85,1.17,3.75-.81,.56-1.23,.98-1.37,2.04-.69,1.24,.81,1.7,.71,2.45-.52ZM44.34,3.15c.66-.79,.2-.98-.55-1.01-2.84-.1-5.66,.06-8.44,.61-4.98,.99-9.76,2.56-14.29,5.12,.61,.57,1.23,1.12,1.82,1.7,1.82,1.83,5.23,2.17,7.4,.78,2.05-1.32,3.98-3.02,6.56-3.1,1.58-.04,2.92-.29,4.36-1.05,1.4-.74,2.9-1.04,3.08-2.95,0-.03,.03-.06,.06-.1Zm-3.83,17.23c.1-.42,.09-.61-.39-.85-2.3-1.17-2.71-3.5-1.04-5.53,.24-.3,.56-.59,.15-1.01-.82-.82-1.06-1.84-.88-2.94,.13-.74-.23-.77-.8-.75-1.04,.06-1.99,.37-2.94,.78-.87,.38-1.04,.65-.15,1.31,1.45,1.1,1.48,3.96,.15,5.17-2.04,1.85-5.02,1.4-6.25-1.36-.72-1.61-1.58-1.99-3.1-2.11-2.18-.17-3.63-1.7-5.12-3.11-1.09-1.02-2.06-.82-2.76,.53-.91,1.76-.77,3.65-.53,5.49,.31,2.33,1.2,4.51,2.05,6.67,1.04,2.62,1.29,5.22,.14,7.85-.25,.56-.14,.9,.31,1.22,2.04,1.45,4.12,2.82,6.75,2.91,.48,.01,1.03,.06,1.37-.28,.77-.77,1.82-1.11,2.6-1.88,.95-.95,1.91-1.95,3.05-2.64,2.7-1.67,5.09-3.88,8.45-4.94-1.56-1.37-1.44-2.93-1.06-4.53Zm-6.99-6.13c.11-.8-.71-1.55-2.03-1.59-.46,.02-1.29,.18-1.54,1.06-.19,.69,1.04,1.76,1.94,1.76,.82-.01,1.51-.31,1.63-1.23Zm-16.06,14.62c.29-1.76,.26-3.48-.45-5.2-.95-2.29-1.71-4.64-2.22-7.08-.3-1.44,0-2.86-.27-4.38-3.77,2.07-4.42,6.46-3.1,9.88,1.06,2.77,3.16,4.82,4.96,7.07,.17,.22,.36,.52,.64,.47,.34-.07,.39-.47,.44-.76Z"/><path class="cls-1" d="M50.48,17.8c1.21,.96,1.44,2.17,.66,3.47-.75,1.23-1.21,1.33-2.45,.52-1.06-.68-1.48-.54-2.04,.69-.9,1.98-2.1,2.22-3.75,.81-.43-.36-.53-.75-.5-1.25,.04-.73,.31-1.38,.68-2.01,.84-1.4,.45-2.18-1.12-2.31-.62-.05-1.41,.07-1.65-.65-.27-.81,.07-1.57,.75-2.12,.34-.27,.72-.5,1.07-.75,.86-.62,.82-1.48-.08-1.98-1.55-.87-2-1.65-1.49-2.77,.6-1.3,2.08-2.06,3.45-1.54,.93,.36,1.42-.09,1.54-1.13,.12-1.08,.09-2.27,1.02-3.05,.95-.8,2.03-.85,3.08-.16,.97,.64,1.31,1.65,1.22,2.76-.11,1.45-.17,2.9-1.64,3.86-.74,.49-.35,1.52,.56,1.78,.65,.19,1.39,.29,1.48,1.15,.1,.88-.2,1.64-.87,2.24-1.36,1.23-1.36,1.3,.08,2.44Z"/><path d="M36.95,73.22c2.12-.04,3.78,2.03,3.72,4.43-.05,1.8-2.02,3.59-3.85,3.51-2.58-.12-4.4-1.67-4.33-3.68,.19-3.15,1.66-4.2,4.46-4.26Zm1.59,4.41c.12-1.35-.91-2.34-2.22-2.29-.99,.03-1.67,.92-1.69,2.18,0,.86,.76,1.42,2.1,1.4,.72-.1,1.7-.15,1.81-1.29Z"/><path class="cls-2" d="M36.32,75.34c1.31-.05,2.34,.94,2.22,2.29-.11,1.14-1.09,1.19-1.81,1.29-1.34,.02-2.11-.54-2.1-1.4,.02-1.26,.7-2.15,1.69-2.18Z"/><path class="cls-1" d="M33.93,49.49c1.94,.66,2.3,2.52,.9,4.21-.65,.79-1.43,1.5-2.21,2.16-1.03,.87-2.18,1.47-3.41,1.23-1.53,.06-2.77-.18-3.87-1.05-.97-.78-1.97-.32-2.07,.97-.09,1.36-.75,2.34-1.63,3.29-1.07,1.16-2.34,.97-3.62,.61-1.23-.35-1.9-1.16-2.05-2.48-.14-1.18-1.01-1.62-2.18-1.12-1.37,.57-2.76,.69-4.15,.21-1.7-.6-2.35-2.16-1.67-3.83,.12-.29,.22-.6,.3-.9,.39-1.41-.19-2.06-1.64-1.83-.79,.13-1.57,.11-2.35-.11-.81-.23-1.92-.4-2.02-1.26-.12-1.1-.07-2.31,.89-3.28,1.46-1.48,2.96-2.03,4.89-.91,.78,.45,1.24-.11,1.52-.84,.47-1.22,.97-2.42,1.88-3.41s2.62-1,3.39,.16c.78,1.17,1.5,2.4,1.29,3.95-.09,.65,.32,1.21,.92,1.55,.57,.32,1.03,.01,1.41-.31,.58-.48,1.12-1.02,1.63-1.57,1.05-1.13,2.32-1.36,3.71-.87,1.61,.57,2.7,1.7,3,3.4,.32,1.71,.62,1.93,2.27,1.64,1.64-.27,3.32-.13,4.87,.39Zm-11.75,1.7c.28-.67-.04-1.07-.59-1.36-.63-.33-1.28-.63-2.01-.64-1.61,.04-3.06,.44-4.15,1.71-.44,.52-.51,1.11-.04,1.62,.46,.5,1.05,.39,1.47-.02,1.16-1.13,2.39-1.57,3.94-.78,.51,.26,1.1,.13,1.38-.53Z"/><path class="cls-2" d="M31.49,12.66c1.32,.04,2.14,.79,2.03,1.59-.12,.92-.81,1.22-1.63,1.23-.9,0-2.13-1.07-1.94-1.76,.25-.88,1.08-1.04,1.54-1.06Z"/><path d="M30.13,23.76c.15,1.91-2.01,3.8-4.03,3.72-2.72-.12-4.38-1.57-4.16-3.92,.24-2.65,1.29-3.71,3.8-3.98,2.92,.28,4.19,1.59,4.39,4.18Zm-2.11-.14c.01-1.15-.87-1.92-2.23-1.92-.87,.01-1.84,1.19-1.84,2.26,0,.71,.9,1.41,1.8,1.4,1.33-.02,2.25-.72,2.27-1.74Z"/><path class="cls-2" d="M27.55,87.61c1.45,.03,2.47,1.24,2.4,2.85-.06,1.53-1.01,2.48-2.47,2.42-2.5-.09-2.6-.81-2.75-3.05-.08-1.3,1.2-2.25,2.82-2.22Z"/><path class="cls-2" d="M25.79,21.7c1.36,0,2.24,.77,2.23,1.92-.02,1.02-.94,1.72-2.27,1.74-.9,.01-1.8-.69-1.8-1.4,0-1.07,.97-2.25,1.84-2.26Z"/><path d="M17.47,68.1c2.5-.02,5.07,2.19,4.95,4.62-.1,2.32-1.77,4.32-4.73,4.52-2.6,.17-5.2-1.81-4.77-4.18-.33-2.39,1.73-4.93,4.55-4.96Zm.03,7.16c1.3-.03,2.81-1.44,2.8-2.61-.01-1.1-1.36-2.38-2.5-2.38-1.79,0-2.73,1.02-2.8,3.01-.03,.99,1.25,2,2.5,1.98Z"/><path d="M21.59,49.83c.55,.29,.87,.69,.59,1.36-.28,.66-.87,.79-1.38,.53-1.55-.79-2.78-.35-3.94,.78-.42,.41-1.01,.52-1.47,.02-.47-.51-.4-1.1,.04-1.62,1.09-1.27,2.54-1.67,4.15-1.71,.73,0,1.38,.31,2.01,.64Z"/><path class="cls-2" d="M20.3,72.65c0,1.17-1.5,2.58-2.8,2.61-1.25,.02-2.53-.99-2.5-1.98,.07-1.99,1.01-3.01,2.8-3.01,1.14,0,2.49,1.28,2.5,2.38Z"/></g></g></svg>