<?xml version="1.0" encoding="UTF-8"?><svg id="Layer_2" xmlns="http://www.w3.org/2000/svg" viewBox="0 0 18.73 16.4"><defs><style>.cls-1{fill:#ee5d67;}</style></defs><g id="Layer_4"><g><path d="M5.06,15.42c-1.06,.7-2.24,1.22-3.59,.86C.38,15.98-.08,15.24,.03,14.18c-.18-1.25,.62-2.11,1.24-2.91,1.4-1.81,3.2-3.26,4.95-4.73,1.84-1.55,3.8-2.98,5.84-4.27,1.2-.76,2.44-1.47,3.7-2.12,1-.5,1.6,.38,2.26,.88,.73,.53,.81,1.31,.63,2.15-.27,1.21-1.31,1.85-2.04,2.72-1.91,2.29-4.45,3.87-6.59,5.89-1.52,1.43-3.24,2.52-4.96,3.64Zm-2.94-1.28c.67,.25,1.12-.12,1.58-.4,1.85-1.14,3.6-2.42,5.26-3.85,2.48-2.15,5.12-4.11,7.21-6.67,.17-.19,.52-.36,.24-.68-.23-.25-.51-.12-.76,.04-.81,.49-1.63,.97-2.44,1.47-3.01,1.86-5.71,4.12-8.31,6.5-1.1,1.01-2.35,2-2.79,3.59Z"/><path class="cls-1" d="M3.7,13.74c-.46,.28-.91,.65-1.58,.4,.44-1.59,1.7-2.58,2.79-3.59,2.59-2.38,5.3-4.64,8.31-6.5,.81-.5,1.63-.98,2.44-1.47,.25-.16,.53-.29,.76-.04,.28,.31-.08,.48-.24,.68-2.09,2.56-4.73,4.52-7.21,6.67-1.66,1.43-3.41,2.7-5.26,3.85Z"/></g></g></svg>