<?xml version="1.0" encoding="UTF-8"?><svg id="Layer_2" xmlns="http://www.w3.org/2000/svg" viewBox="0 0 10.29 22.53"><defs><style>.cls-1{fill:#ee5d67;}</style></defs><g id="Layer_8"><g><path class="cls-1" d="M8.3,4.1c-.68,3.31-1.89,6.44-3.18,9.55-.7,1.71-1.16,3.52-2.06,5.16-.26,.47-.53,.95-.95,1.7-.34-2.73,3.41-15.29,5.37-18.38,.72,.5,1.01,1.07,.83,1.98Z"/><path d="M9.7,6.41c-1.43,4.59-3.06,9.12-5.01,13.52-.35,.79-.91,1.41-1.49,2.05-.98,1.08-2.96,.47-3.14-1.18-.08-.79-.09-1.6,.04-2.39,.3-1.78,.73-3.53,1.32-5.23,.42-1.23,.6-2.53,1.36-4.03,.59-1.81,1.3-3.94,1.98-6.1,.21-.68,.57-1.27,.95-1.87C6.28,.27,7.29-.24,8.11,.11c.91,.4,1.89,.67,2.1,2.04,.23,1.53-.1,2.9-.52,4.26Zm-4.58,7.23c1.29-3.1,2.5-6.23,3.18-9.55,.18-.92-.1-1.49-.83-1.98-1.96,3.1-5.71,15.65-5.37,18.38,.42-.75,.69-1.23,.95-1.7,.9-1.63,1.36-3.45,2.06-5.16Z"/></g></g></svg>