<svg viewBox="0 0 256 85.97" xmlns="http://www.w3.org/2000/svg"><g fill="#1f3f35"><path d="m221.69 81.64h-15.48c-.23-1.34-.46-2.72-.63-3.72-2.52 1.3-5.06 2.91-7.81 3.96-4.89 1.86-9.94 1.49-14.78-.21-7.22-2.53-12.38-7.39-15.39-14.48-2.34-5.51-2.9-11.19-2.03-17.1 1.13-7.74 4.67-14.02 11.01-18.62 3.55-2.58 7.62-3.89 12-4.07 4.54-.18 9.1-.14 13.25 2.09 1.18.63 2.18 1.59 3.57 2.63v-27.85h16.3v77.37zm-28.27-39.45c-4.78-.25-8.2 1.87-10.33 6.06-1.23 2.43-1.61 5.07-1.46 7.8.38 7.04 5.46 13.18 13.69 12.11 2.84-.37 5.4-1.66 7.24-3.9 3.12-3.81 3.5-8.39 2.61-12.92-1.13-5.82-5.41-9.44-11.75-9.15z"/><path d="m124.56 59.31h-37.46c.86 4.99 3.63 8.24 8.21 9.56 4.56 1.32 8.94.73 12.55-2.79.19-.19.38-.38.54-.59.7-.96 1.22-2.48 2.12-2.75.98-.29 2.3.59 3.49.93 3.15.92 6.29 1.82 9.94 2.87-1.3 2.44-2.26 5.06-3.88 7.16-4.15 5.36-9.75 8.36-16.51 9.33-5.84.84-11.36.23-16.74-2.34-7.53-3.59-12.33-9.42-14.51-17.33-2.68-9.71-1.09-18.9 5.13-26.8 4.87-6.19 11.58-9.54 19.67-9.6 6.25-.05 12.14.98 17.44 4.71 5.44 3.82 8.35 9.11 9.34 15.43.62 3.94.47 8 .67 12.19zm-37.07-10.79h21.2c-1.08-7.34-5.33-8.41-10.66-8.64-5.18-.22-9.18 2.43-10.54 8.64z"/><path d="m163.99 44.48c-2.81.02-5.67-.29-8.41.14-4.75.75-7.19 4.16-8.34 8.56-.34 1.31-.43 2.72-.44 4.08-.04 8.06-.02 16.12-.02 24.34h-16.29v-52.95h15.53v5.89c2.77-3.29 5.91-5.61 10.03-6.17 2.29-.31 4.65-.24 6.97-.1.47.03 1.25 1.1 1.26 1.71.09 4.73.03 9.46.01 14.19-.1.1-.21.21-.31.31z"/><path d="m58.69 63.82c-1.89 4.51-3.35 9.26-5.77 13.46-3.57 6.21-12.25 8.1-18.52 3.76-3.78-2.62-4.96-6.63-6.55-10.45-5.63-13.48-11.18-27-16.74-40.51-.17-.42-.24-.87-.38-1.41h17.7c4.37 10.7 8.74 21.39 13.12 32.07.11.28.43.47.65.71 2.53 5.3 9.27 7.32 14.89 3.23.49-.35 1.07-.58 1.61-.86z"/></g><path d="m58.69 63.82c-.54.28-1.12.5-1.61.86-5.61 4.09-12.35 2.07-14.89-3.23 2.14-5.28 4.27-10.58 6.43-15.85 3.92-9.57 7.89-19.13 11.77-28.72.53-1.31 1.2-1.83 2.64-1.8 4.47.09 8.94.02 13.41.04.71 0 1.42.11 2.36.2-2.33 5.69-4.55 11.14-6.78 16.58-4 9.76-8.01 19.51-12.02 29.26-.27.65-.67 1.25-1.01 1.88-.11.26-.22.53-.32.79 0 0 .03-.01.03-.01z" fill="#81b97e"/><path d="m229.09 28.6h16.2v53.04h-16.2z" fill="#1f3f35"/><path d="m58.66 63.83c.11-.26.22-.53.32-.79-.11.26-.22.53-.32.79z" fill="#104135"/><path d="m163.99 44.48c.1-.1.21-.21.31-.31-.1.1-.21.21-.31.31z" fill="#4c6f66"/><circle cx="237.17" cy="11.66" fill="#81b97e" r="8.09"/></svg>