<svg fill="none" height="72" viewBox="0 0 65 72" width="65" xmlns="http://www.w3.org/2000/svg" xmlns:xlink="http://www.w3.org/1999/xlink"><mask id="a" height="72" maskUnits="userSpaceOnUse" width="65" x="0" y="0"><path d="m64.188 34.133c-.0434.1717-.0729.3466-.088.523-.012 1.53.006 3.062-.028 4.591-.0286.6345-.1004 1.2663-.215 1.891-.156.969-.336 1.934-.526 2.9-.0821.4286-.1941.851-.335 1.264-.1669.4631-.2472.9529-.237 1.445.013.492.017.984 0 1.476.0055.1987-.0356.396-.12.576-.0948.1482-.2419.2553-.412.3-.219.049-.373-.124-.455-.318-.0595-.1324-.0934-.2749-.1-.42-.011-.71-.026-1.422 0-2.131.0131-.3077.0745-.6114.182-.9.3084-.9903.5345-2.0045.676-3.032.155-.8.258-1.613.379-2.421.036-.2149.0567-.4321.062-.65.01-1.8767.0163-3.7533.019-5.63.0102-.6913-.0501-1.3819-.18-2.061-.0597-.5592-.1808-1.1102-.361-1.643-.0419-.1203-.0927-.2373-.152-.35-.5451-.8924-.8043-1.9301-.743-2.974-.0213-1.0746-.1944-2.1408-.514-3.167-.109-.7397-.3341-1.4575-.667-2.127-.3122-.6947-.5337-1.4267-.659-2.178-.1221-.437-.2943-.8584-.513-1.256-.1547-.2886-.2848-.5896-.389-.9-.4202-.9684-.9965-1.8613-1.706-2.643-.3818-.5078-.738-1.0345-1.067-1.578-.1416-.2093-.2998-.4069-.473-.591-.3254-.3413-.6587-.6747-1-1-.533-.494-1.072-.983-1.622-1.45799-.55-.475-1.074-.92701-1.64-1.35101-.551-.414-1.142-.776-1.711-1.166-.2765-.1717-.539-.36497-.785-.578-.2449-.27057-.5546-.47432-.9-.592-.1412-.03861-.2745-.10155-.394-.186-.7965-.51254-1.6461-.93736-2.534-1.267-.7-.3-1.382-.645-2.077-.958-.1703-.06251-.3452-.11198-.523-.148-.1789-.03095-.354-.08125-.522-.15-.6373-.30501-1.327-.48557-2.032-.532-.7544-.10876-1.4997-.27287-2.23-.491-.72-.22995-1.4694-.35522-2.225-.372-.816.014-1.634-.091-2.451-.089-.89 0-1.783.036-2.67.118-.5951.07293-1.1849.18348-1.766.331-.8507.18933-1.6987.39167-2.544.607-.32.0704-.6297.18095-.922.329-.5893.28515-1.2044.51351-1.837.682-.7152.25215-1.4482.45038-2.193.593-.531.12591-1.0443.31738-1.528.57-.4307.19608-.8487.41851-1.252.666-.855.517-1.694 1.06-2.548 1.58-.482.292-.985.55-1.47.837-1.0989.6453-2.1455 1.37588-3.13 2.185-1.0066.8122-1.9668 1.6802-2.87604 2.6-.85301.8982-1.60421 1.8879-2.23999 2.951-.341.558-.679 1.123-1.068 1.647-.82773 1.0882-1.46567 2.3083-1.88696 3.609-.284.9-.60002 1.793-.92602 2.683-.36971 1.1239-.61547 2.2848-.73298 3.462-.19313 1.3335-.26877 2.6813-.22601 4.028.05 1.071.17699 2.138.23999 3.208.03101.5779.03101 1.1571 0 1.735-.06814.9263-.02957 1.8575.11499 2.775.146.768.25599 1.542.41199 2.308.117.57.30003 1.126.42303 1.694.24588 1.1759.30057 2.3837.16199 3.577-.00751.0378-.02277.0737-.0448.1054-.02203.0316-.05033.0584-.08319.0786-.0729.0563-.16369.0842-.25561.0787-.09193-.0055-.17875-.0441-.24439-.1087-.14421-.181-.2439-.3934-.29102-.62-.06611-.3949-.09953-.7946-.09997-1.195-.04363-.9453-.19906-1.8822-.463014-2.791-.22-.9-.359006-1.818-.544006-2.726-.175665-.8548-.242874-1.7284-.200012-2.6.018-.362.099984-.725.083984-1.085-.038-.889-.109978-1.776-.177978-2.663-.1513874-1.2647-.1678243-2.5419-.0490115-3.81.1439995-1.061.2260225-2.131.3610225-3.194.067021-.4495.159481-.8949.276978-1.334.361997-1.471.960997-2.863 1.426997-4.3.49071-1.3138 1.17421-2.5473 2.02802-3.66.43463-.6287.8278-1.2851 1.177-1.965.3424-.664.78039-1.2742 1.29999-1.811.93333-.9693 1.87433-1.9337 2.823-2.893.96942-.96215 2.00932-1.85061 3.11102-2.658 2.2949-1.68498 4.8352-3.00709 7.532-3.92.892-.313 1.784-.63 2.682-.926.291-.1.606-.118.9-.2.6-.159 1.181-.371 1.784-.5 1.03-.211 2.07-.367 3.1-.553.34-.061.672-.18 1.014-.207.742-.06 1.489-.066 2.232-.113998 1.3269-.020939 2.6526.091628 3.957.335998 1.276.173 2.52.54 3.806.624.5626.01121 1.122.08977 1.666.234.19.059.377.125.567.183.2927.09.5863.17767.881.263.1065.02184.2117.04989.315.084 1.239.525 2.479 1.047 3.711 1.589.348.153.663.379 1 .55.7396.34414 1.4309.7839 2.056 1.308.5845.43059 1.1946.82532 1.827 1.182.434.3.834.643 1.243.975.6347.51666 1.2657 1.03767 1.893 1.563.14.116.263.251.393.379.4126.408.8246.8167 1.236 1.226.1206.1108.2298.2334.326.366.34.515.657 1.044 1 1.554.163.239.383.437.56.668.7418.8994 1.3208 1.9214 1.711 3.02.0212.0886.0549.1738.1.253.4421.7751.7466 1.6209.9 2.5.1178.3784.2567.75.416 1.113.1165.2458.2167.499.3.758.308 1.272.61 2.546.882 3.826.0588.377.0825.7586.071 1.14-.0037.821.2029 1.6293.6 2.348.3598.6364.5717 1.3456.62 2.075.049.645.2 1.282.308 1.923z" fill="#fff"/><path d="m15.968 65.348v-1.364c-.003-.0546-.003-.1094 0-.164.02-.285.151-.473.35-.482.102-.0033.2019.0297.2818.0933s.1346.1535.1542.2537c.0946.2925.1579.5942.189.9.003.2903-.0124.5806-.046.869-.017.345-.035.691-.034 1.036 0 .059.112.177.142.167.477-.142.8.141 1.134.392.185.137.391.245.587.367.072-.2.146-.406.216-.611.1-.31.2-.623.313-.93.128-.348.367-.518.591-.439.243.086.333.323.236.691-.0897.3726-.2002.7398-.331 1.1-.0513.1655-.059.3414-.0226.5107.0364.1694.1158.3265.2306.4563.0302.0263.0666.0445.1058.0531.0391.0086.0797.0072.1182-.0041.2181-.1183.4652-.1728.7128-.1571.2477.0158.4858.1011.6872.2461.167.115.156-.039.177-.139.145-.694.284-1.388.442-2.079.0566-.2294.1371-.4523.24-.665.07-.15.194-.285.389-.212.0438.0138.0844.0362.1194.0659.035.0298.0638.0662.0844.1073.0207.041.033.0857.0361.1315.0031.0459-.003.0919-.0179.1353-.1174.5333-.2337 1.0667-.349 1.6-.039.178-.07.357-.116.533-.051.194-.035.314.215.311.49-.0821.9932.0155 1.417.275.0638-.0308.116-.0813.149-.144.228-.879.443-1.761.671-2.639.0439-.1749.1112-.3431.2-.5.127-.217.33-.21.477-.008.0686.1083.1112.231.1244.3586.0132.1275-.0033.2564-.0484.3764-.107.423-.239.84-.344 1.264-.114.459-.2.923-.317 1.382-.044.179-.071.283.179.21.3755-.1157.7717-.1477 1.1609-.094s.762.1919 1.0921.405c.231.141.174-.071.186-.176.114-1.047.222-2.1.34-3.141.0196-.1994.0649-.3953.135-.583.022-.0561.0561-.1066.0998-.1481.0437-.0414.0961-.0728.1532-.0919.0587.0047.1156.0215.1673.0496s.0969.0667.1327.1134c.0909.1259.1542.2694.1861.4214.0319.1519.0315.3088-.0011.4606-.1013.8667-.1993 1.7333-.294 2.6-.0102.1271-.0129.2546-.008.382 0 .137.047.234.184.1.199-.1929.4654-.3007.7425-.3007.2772 0 .5435.1078.7425.3007.21.139.444.241.667.36.013-.252.033-.5.036-.755.009-.656-.006-1.313.023-1.967.0229-.2507.0867-.496.189-.726.073-.183.233-.2.322-.026.0976.1895.1548.3972.168.61.042.814.063 1.629.081 2.445 0 .213.077.261.261.165.161-.084.33-.157.485-.251.1713-.1068.3709-.1593.5726-.1506s.396.0783.5574.1996c.261.165.548.293.8.475.362.268.42.142.387-.244-.044-.505-.079-1.014-.171-1.512-.129-.7-.307-1.383-.464-2.073-.008-.036-.032-.076-.021-.106.045-.127.065-.3.158-.366.0346-.0235.0742-.0386.1156-.0442.0414-.0057.0835-.0016.1231.0117.0397.0134.0756.0357.1052.0653.0295.0296.0518.0656.0651.1052.1414.2748.2628.5596.363.852.28.864.552 1.732.8 2.606.07.245.127.326.4.235.4866-.2141 1.0324-.2523 1.544-.108.1884.0692.3901.095.5899.0754.1998-.0195.3927-.0839.5641-.1884.542-.281.537-.28.366-.889-.2682-.907-.6125-1.7898-1.029-2.639-.085-.1391-.1398-.2944-.161-.456.0091-.0671.033-.1314.07-.1881.037-.0568.0862-.1046.144-.1399.057-.0154.1171-.016.1745-.0018.0573.0141.1101.0426.1535.0828.1913.2192.3539.4618.484.722.4979.9324.8532 1.9342 1.054 2.972.034.245.111.453.421.46.1078.0189.2124.0525.311.1.427.14.528.075.49-.382-.0171-.7274-.146-1.4478-.382-2.136-.1272-.341-.234-.6893-.32-1.043-.0421-.1392-.059-.2848-.05-.43-.0003-.0552.0158-.1091.0462-.1552.0304-.046.0737-.082.1246-.1034.0508-.0214.1068-.0273.161-.0168.0541.0104.104.0367.1432.0754.084.07.1544.1547.208.25.4374.6745.7037 1.4454.776 2.246.014.253.074.5.1.756.017.178.1.265.276.259.5079-.0223 1.0157.0454 1.5.2.1042.0251.2131.0236.3165-.0045.1035-.028.1982-.0817.2755-.1561.0772-.0743.1344-.1669.1664-.2693.032-.1023.0378-.211.0166-.3161-.0499-.2312-.088-.4649-.114-.7-.0088-.2347.0096-.4696.055-.7.036-.188.175-.221.33-.111.207.148.428.284.479.567.064.356.14.709.194 1.066.043.283.059.308.341.253.1254-.0238.2493-.0549.371-.093.206-.065.335-.151.291-.427-.07-.4677-.1113-.9393-.124-1.412-.0424-1.149.1019-2.2972.427-3.4.1362-.3349.3208-.6479.548-.929.1-.151.116-.25-.046-.359-.7408-.5624-1.3771-1.2505-1.88-2.033-.905-1.23-1.842-2.438-2.773-3.65-.255-.331-.55-.632-.8-.965-.238-.312-.233-.506-.038-.675.0528-.0442.1138-.0774.1795-.0977.0657-.0204.1349-.0274.2034-.0208s.1349.0267.1955.0593c.0607.0325.1142.0768.1576.1302.8878.7811 1.6967 1.6476 2.415 2.587.44.668.876 1.338 1.335 1.993.3274.4813.681.9443 1.059 1.387.2789.3014.6492.5027 1.0538.5728.4047.0702.8211.0052 1.1852-.1848.129-.067.255-.141.385-.206.4317-.24.9144-.3734 1.4081-.389.4936-.0157.9839.0868 1.4299.299.247.116.495.233.732.368.6069.3431 1.3087.48 2 .39.2648-.0154.5226-.0899.7548-.2179.2323-.128.4329-.3064.5872-.5221.156-.224.3-.458.45-.684.377-.557.742-1.122 1.141-1.663.3004-.4168.7131-.7397 1.19-.931.253-.1.5-.224.747-.333.1722-.0662.3189-.1855.4187-.3407s.1475-.3381.1363-.5223c-.0034-.5806-.0401-1.1606-.11-1.737-.0402-.2168-.1297-.4215-.2614-.5983-.1318-.1769-.3023-.3211-.4986-.4217-.3529-.1765-.6444-.4555-.8362-.8004s-.275-.7396-.2388-1.1326c.035-.452.062-.907.129-1.355.1233-.9379.1297-1.8875.019-2.827-.016-.163-.015-.327-.028-.491-.051-.634-.131-1.267-.147-1.9.0085-.3388.0613-.6749.157-1 .023-.093.2-.229.271-.211.0639.0208.1223.0557.171.102.0486.0464.0862.1031.11.166.0997.3687.1667.7455.2 1.126.1411 1.155.2229 2.3166.245 3.48.0105.8001-.0497 1.5995-.18 2.389-.0334.2159-.0435.4349-.03.653-.0034.128.0278.2545.0903.3663.0624.1117.1539.2046.2647.2687.2.125.371.3.574.416.313.1928.5758.4569.767.7708s.3053.6687.333 1.0352c.1513.8465.1224 1.7154-.085 2.55-.1008.4282-.3166.8208-.6241 1.1353-.3075.3146-.6951.5392-1.1209.6497-.496.1377-.9261.4489-1.212.877-.39.549-.781 1.1-1.154 1.659-.2633.4205-.6554.7446-1.118.924-.4243.1644-.8585.302-1.3.412-.4111.1046-.8465.0488-1.218-.156-.318-.174-.66-.307-.99-.458-.5753-.2835-1.219-.399-1.857-.333-.3434.0313-.6803.1128-1 .242-.4215.2154-.8773.3555-1.347.414-.0913-.0024-.181.0234-.257.074-.6371.4639-1.0774 1.1496-1.234 1.922-.1367 1.1204-.1438 2.2529-.021 3.375.0583.1845.0645.3816.0181.5694-.0463.1879-.1436.3594-.2811.4956-.472.366-.953.8-1.613.652-.2003-.0554-.4121-.053-.611.007-.199.06-.3768.1751-.513.332-.0568.0734-.1283.1342-.2099.1785s-.1716.0711-.2641.0788-.1856-.0039-.2734-.0341-.1684-.0782-.2366-.1412c-.3885-.1984-.8263-.2793-1.26-.233-.156-.005-.351.174-.473.317-.455.535-.565.553-1.19.2-.2079-.1083-.4307-.1855-.661-.229-.1501-.0424-.31-.0338-.4547.0242-.1447.0581-.2661.1625-.3453.2968-.0414.0603-.0875.1171-.138.17-.432.484-.641.509-1.138.1-.3172-.2496-.7116-.3805-1.115-.37-.1365-.0105-.2736.0112-.4002.0633s-.2392.1332-.3288.2367c-.153.18-.311.356-.463.537-.32.382-.511.41-.94.172-.493-.273-1-.527-1.493-.794-.1257-.0758-.2697-.1158-.4165-.1158s-.2908.04-.4165.1158c-.346.2-.6876.4063-1.025.619-.0569.0543-.1316.0861-.2101.0894-.0786.0033-.1556-.0221-.2169-.0714-.4-.255-.838-.436-1.255-.661-.0359-.0283-.0776-.0483-.1221-.0587-.0445-.0103-.0907-.0107-.1354-.0012-.0447.0096-.0867.0289-.123.0565-.0364.0276-.0663.0629-.0875.1034-.136.214-.268.433-.386.657-.281.534-.61.616-1.091.24-.358-.28-.679-.609-1.053-.863-.2536-.1705-.5401-.2863-.841-.34-.1891-.038-.3855-.0152-.5608.0653-.1754.0805-.3207.2145-.4152.3827-.3.46-.673.424-.986-.033-.1715-.2762-.376-.5304-.609-.757-.341-.3-.582-.261-.9.057-.077.077-.142.169-.225.238-.0983.0982-.2305.1549-.3694.1582-.1389.0034-.2737-.0469-.3766-.1402-.115-.088-.208-.2-.317-.3-.0925-.1017-.2162-.1697-.3516-.1934s-.2748-.0018-.3964.0624c-.1194.0791-.2557.1289-.3979.1455-.1423.0166-.2864-.0005-.4208-.05-.1343-.0495-.2552-.1299-.3527-.2347-.0975-.1049-.169-.2312-.2086-.3688-.108-.252-.216-.425-.587-.386-.242.026-.528-.211-.767-.372-.2481-.1874-.5574-.2752-.867-.246-.0909.0094-.1826.0074-.273-.006-.096-.0045-.1901-.0283-.2768-.0699-.0866-.0416-.1639-.1002-.2274-.1723-.0636-.0721-.1119-.1563-.1423-.2475s-.0421-.1875-.0345-.2833c-.007-.492 0-.984 0-1.476z" fill="#fff"/><path d="m45.658 33.209c1.034.058 1.968.051 2.883.182.671.0848 1.3159.3129 1.891.669.2146.1383.4392.2603.672.365 1.0745.5038 2.0395 1.2139 2.84 2.09.2098.2279.4314.4445.664.649.5422.4914.9444 1.1176 1.166 1.815.313.853.614 1.709.928 2.562.2208.6411.266 1.3295.131 1.994-.187 1.072-.418 2.137-.651 3.2-.2146.8864-.5661 1.734-1.042 2.512-.2089.3609-.4429.7067-.7 1.035-.6877.8879-1.6772 1.4928-2.781 1.7-.569.116-1.123.3-1.69.424-1.3756.2442-2.793-.0263-3.982-.76-.518-.3017-1.005-.6537-1.454-1.051-.309-.252-.644-.473-.965-.711-.511-.377-1.008-.774-1.533-1.129-.4935-.3395-1.0064-.65-1.536-.93-.8803-.4048-1.6563-1.0059-2.2682-1.7572s-1.0435-1.6328-1.2618-2.5768c-.234-1.027-.4-2.072-.687-3.085-.1559-.5771-.2203-1.175-.191-1.772.0032-.1451.0189-.2896.047-.432.0855-.479.287-.9298.587-1.313.585-.7435 1.2485-1.4218 1.979-2.023.7306-.5802 1.6064-.949 2.532-1.066 1.023-.153 2.044-.321 3.069-.464.479-.069.969-.092 1.353-.127zm-8.614 6.333c.0176.3434.0563.6854.116 1.024.238 1.008.5 2.01.762 3.012.2047.8378.6625 1.5924 1.311 2.161.2798.2337.536.4943.765.778.1826.2246.4155.4031.68.521.8883.3772 1.7336.8489 2.521 1.407.2173.1935.4467.3729.687.537.6842.3412 1.303.8002 1.828 1.356.0244.0272.054.0492.087.065 1.0413.7462 2.3098 1.1068 3.588 1.02 1.1951-.1161 2.3569-.4606 3.422-1.015.6788-.3675 1.2257-.9382 1.564-1.632.4509-.8328.7454-1.7411.869-2.68.0401-.2508.1072-.4966.2-.733.07-.244.158-.483.208-.731.1-.5.174-1 .27-1.5.1234-.6478.0214-1.3182-.289-1.9-.0845-.1606-.1558-.3278-.213-.5-.165-.518-.318-1.041-.476-1.562-.0857-.2985-.2644-.5619-.51-.752-.2518-.1808-.4715-.4026-.65-.656-.4761-.6896-1.0698-1.2901-1.754-1.774-.5181-.4028-1.1113-.6983-1.745-.869-.2603-.0767-.5048-.1993-.722-.362-.3975-.2946-.873-.4654-1.367-.491-1.0327-.0667-2.066-.1073-3.1-.122-.7452.0037-1.486.1138-2.2.327-.523.144-1.064.226-1.6.32-.7099.1519-1.3943.4052-2.032.752-.0931.058-.1769.1294-.249.212-.223.214-.446.43-.664.649-.4256.4022-.7619.8895-.9871 1.4301-.2251.5406-.3341 1.1225-.3199 1.7079z" fill="#fff"/><path d="m6.63098 43.724c.0027-1.8251.4881-3.6171 1.40698-5.194.352-.57.62602-1.2 1.02802-1.726.36018-.455.78072-.8587 1.25002-1.2.7986-.6096 1.7143-1.048 2.69-1.288.441-.107.865-.284 1.306-.393.6724-.1607 1.3617-.2396 2.053-.235.872 0 1.744-.067 2.615-.116.1625-.0172.3224-.0541.476-.11.527-.1663 1.0982-.1181 1.59.134.6856.2984 1.314.7139 1.857 1.228.7007.6353 1.4536 1.2103 2.251 1.719.4209.2869.8264.5957 1.215.925.1971.1848.3452.4158.431.672.18.533.3 1.086.452 1.628.1428.4938.1193 1.0209-.067 1.5-.31.834-.623 1.666-.914 2.506-.1344.3954-.2453.7985-.332 1.207-.1452.6583-.3808 1.2933-.7 1.887-.216.4056-.551.7354-.96.945-.681.3898-1.2831.9036-1.775 1.515-.4747.5549-1.0598 1.0048-1.718 1.321-.3283.1486-.6685.2694-1.017.361-1.1776.3043-2.3846.4806-3.6.526-.3081.0177-.6145.0572-.917.118-.9021.1351-1.8235.0507-2.686-.246-.174-.0506-.3538-.0782-.535-.082-.8807-.0384-1.7191-.3882-2.36602-.987-.80179-.7267-1.38673-1.6612-1.69-2.7-.207-.582-.38001-1.176-.57801-1.761-.06947-.2256-.16124-.4436-.27398-.651-.30217-.4436-.47273-.9636-.49201-1.5zm8.40702 6.941c.761-.048 1.522-.122 2.283-.136.6553-.0069 1.304-.1319 1.915-.369.4118-.1849.8338-.3462 1.264-.483.4444-.1101.8346-.3759 1.1-.749.5362-.7374 1.2209-1.3543 2.01-1.811.4277-.2774.7813-.655 1.03-1.1.2241-.4371.385-.9037.478-1.386.2484-1.1376.6409-2.2388 1.168-3.277.1339-.2179.2192-.4621.2503-.7159.031-.2538.0071-.5114-.0703-.7551-.168-.518-.3-1.048-.467-1.568-.0427-.1195-.1195-.2238-.221-.3-.363-.272-.734-.534-1.11-.788-1.0427-.598-2.0116-1.3162-2.887-2.14-.3408-.2993-.7283-.5408-1.147-.715-.318-.1449-.6789-.1649-1.011-.056-.3345.0786-.6757.1248-1.019.138-1.145.05-2.291.079-3.437.12-.1276.0001-.2546.0166-.378.049-.956.291-1.934.529-2.856.9-.9403.3243-1.7374.9675-2.25301 1.818-.274.491-.59102.96-.91302 1.422-.68256.9554-1.02546 2.1119-.974 3.285-.00328.2901-.03037.5794-.08099.865-.12182.6091-.04831 1.2411.21002 1.806.23192.4931.40187 1.0131.50598 1.548.20665 1.2092.77091 2.3286 1.62002 3.214.4307.4248.9809.7078 1.577.811 1.1198.2536 2.2648.3788 3.413.373z" fill="#fff"/><path d="m35.155 59.533c-.293-.052-.549-.076-.792-.145-.8545-.1809-1.6653-.5271-2.387-1.019-.192-.15-.371-.4-.575-.427-.189-.021-.408.2-.608.325-.1359.0845-.2649.1795-.386.284-.9548.9449-2.2388 1.4826-3.582 1.5-.4392-.0127-.8683-.1348-1.2484-.3552-.3801-.2203-.6993-.532-.9286-.9068-.0948-.1346-.1601-.2879-.1913-.4496s-.0277-.3281.0103-.4884c.126-.568.224-1.142.368-1.7.31-1.215.62-2.432.97-3.636.325-1.117.712-2.215 1.055-3.326.272-.7388.7477-1.3854 1.372-1.865.764-.674 1.544-1.33 2.3-2.015.199-.2105.3728-.4434.518-.694.0761-.125.1429-.2553.2-.39.106-.219.225-.454.506-.425.146.01.2861.0619.4034.1495.1172.0876.2067.2072.2576.3445.1209.3417.3025.6588.536.936.446.4545.9301.8701 1.447 1.242.8652.5876 1.5337 1.4217 1.919 2.394.6 1.6 1.135 3.226 1.7 4.84.09.258.183.514.271.773.2.5106.2517 1.0673.149 1.606-.115.513-.147 1.046-.276 1.555-.0811.3581-.2616.6861-.5205.9464s-.5859.4425-.9435.5256c-.279.078-.548.195-.828.273-.249.066-.501.103-.716.148zm-.086-1.238c.2468.0129.4942.0129.741 0 .3304-.0071.6481-.1285.8992-.3434.251-.215.4199-.5102.4778-.8356.039-.505.158-1 .192-1.51.0103-.2715-.029-.5426-.116-.8-.465-1.476-.95-2.945-1.424-4.418-.2696-.8126-.6455-1.586-1.118-2.3-.1961-.3059-.4498-.5708-.747-.78-.7313-.485-1.3669-1.1006-1.875-1.816-.091-.131-.178-.171-.306-.065-.517.428-1.055.833-1.543 1.292s-.953 1-1.423 1.5c-.2152.1955-.4074.4149-.573.654-.5331.8711-.9528 1.8066-1.249 2.784-.5067 1.878-1.0026 3.759-1.488 5.643-.0473.2138-.0547.4345-.022.651.0091.1753.0752.3428.1882.477.113.1343.2667.228.4378.267.4336.143.8922.1939 1.3466.1497.4544-.0443.8946-.1828 1.2924-.4067.5247-.3247 1.0447-.658 1.56-1 1.281-.838 1.544-.756 2.471.115.2175.1882.4577.3485.715.477.4827.2427 1.0277.3334 1.563.26z" fill="#fff"/><path d="m9.57096 61.813c-.73336.0108-1.45127-.2109-2.05091-.6332s-1.05018-1.0237-1.28704-1.7178c-.185-.533-.35704-1.072-.57404-1.591s-.48399-1.017-.72699-1.525c-.29872-.6084-.78346-1.1058-1.38397-1.42-.60044-.366-1.03373-.9525-1.20703-1.634-.06009-.2596-.05055-.5305.02758-.7853.07814-.2548.22211-.4844.41742-.6657.28104-.2871.49278-.6346.61902-1.016.44824-1.2858.75667-2.6161.91999-3.968.026-.49.01801-.983.02301-1.474 0-.186-.00804-.381.22796-.435.04864-.0148.0999-.0191.15033-.0127.05044.0063.09897.0233.1424.0497.04342.0265.08072.0618.10955.1036.02884.0419.04853.0894.05774.1394.09046.311.16492.6264.22303.945.042.231.03295.472.06695.705.04299.6551-.03219 1.3125-.22198 1.941-.22889 1.0322-.59265 2.0298-1.08197 2.967-.15092.2702-.32598.5263-.52301.765-.12573.1362-.19556.3147-.19556.5s.06983.3638.19556.5c.14988.2724.38433.4886.66797.616.56968.2107 1.04579.6173 1.34301 1.147.6607 1.048 1.18811 2.1744 1.57001 3.353.10819.3278.24434.6456.40698.95.17618.3095.42577.571.72675.7614.30097.1905.64411.304.99927.3306.57543.0819 1.16231.0087 1.70001-.212.373-.146.765-.249 1.126-.419.4208-.1748.8759-.2513 1.3307-.2239.4549.0273.8975.158 1.2943.3819.216.1.424.213.645.293.4.143.576.052.691-.355.089-.314.123-.645.223-.955.1976-.7062.5936-1.341 1.141-1.829.9657-.8312 1.821-1.7826 2.545-2.831.1542-.2028.3371-.382.543-.532.0375-.0409.0831-.0736.1338-.096.0508-.0223.1057-.0339.1612-.0339s.1103.0116.1611.0339c.0508.0224.0964.0551.1339.096.0757.0813.1206.1866.1266.2975.006.111-.0271.2205-.0936.3095-.194.262-.434.492-.624.757-.6155.8567-1.3026 1.6596-2.054 2.4-.3009.364-.5687.7542-.8 1.166-.3211.3973-.5337.871-.617 1.375-.003.0181-.0077.0358-.014.053-.0369.2532-.1385.4925-.295.6949s-.3626.3609-.5983.4603c-.2358.0993-.4932.1362-.7473.1069-.2542-.0293-.4965-.1237-.7034-.2741-.6709-.3261-1.4291-.4271-2.162-.288-.5025.0819-.994.2208-1.465.414-.4521.1889-.9344.2953-1.42404.314z" fill="#fff"/><path d="m3.677 40.411c.09547-1.5403.49726-3.046 1.18195-4.429.46522-.9267.78562-1.9192.95001-2.943.078-.574.25203-1.135.34503-1.708.20864-1.1266.23829-2.2791.08795-3.415-.08034-.5579-.1234-1.1204-.12896-1.684-.00215-.5074-.07415-1.0122-.21399-1.5-.27-.9-.52399-1.814-.79999-2.716-.16-.517-.01805-.721.52795-.689.07016.0108.13913.0282.206.052-.0558.0363-.1077.0782-.15497.125-.181.222.02501.374.12201.523.44624.7106.74864 1.5019.89001 2.329.081.428.12.864.219 1.288.33855 1.8067.44336 3.6495.31195 5.483-.02856.3623-.10559.7192-.22901 1.061-.35 1.146-.70896 2.291-1.08496 3.429-.251.759-.55699 1.5-.79999 2.26-.37292 1.0091-.54284 2.082-.5 3.157.03.379.1.754.154 1.131.016.108.05301.213.06201.321.031.35-.05402.483-.32202.522-.373.055-.61498-.075-.64698-.407-.084-.8-.132-1.591-.177-2.19z" fill="#fff"/><path d="m59.5079 22.036c-.0657.952-.2234 1.8954-.4709 2.817-.364 1.445-.743 2.889-1.026 4.35-.208 1.222-.2528 2.4662-.1331 3.7.0594.4326.1657.8574.3171 1.267.2528.9882.6221 1.9429 1.1 2.844.5687 1.0282.787 2.2137.622 3.377-.0662.3941-.1849.7775-.353 1.14-.0151.0532-.0412.1026-.0768.1449-.0356.0422-.0798.0765-.1297.1004-.0498.0239-.1041.037-.1594.0383-.0552.0013-.1102-.0091-.1611-.0306-.1046-.037-.1925-.1104-.2476-.2068-.055-.0963-.0737-.2093-.0525-.3182.056-.322.133-.641.214-.957.1483-.6249.0901-1.281-.1659-1.87-.477-1.2-1.007-2.38-1.463-3.588-.3129-.8355-.4783-1.7189-.489-2.611-.0013-1.9123.2821-3.8142.841-5.643.234-.821.549-1.618.794-2.436.2387-.8031.3511-1.6384.333-2.476 0-.108-.031-.257.027-.317.1125-.107.25-.184.4-.224.037-.011.16.134.18.221.055.249.0759.504.0999.678z" fill="#fff"/><path d="m22.047 18.365c-.092 1.239-.1829 2.415-.2649 3.592-.024.345-.0161.692-.0371 1.037-.0062.1996-.0347.3978-.085.591-.115.391-.394.458-.689.167-.1363-.1462-.2604-.3034-.3709-.47-.714-.9873-1.4271-1.9757-2.1391-2.965-.046-.0507-.0977-.096-.154-.135-.0241.0649-.0425.1319-.055.2-.113.992-.221 1.985-.334 2.978.0006.0909-.024.1802-.071.258-.0888.1262-.2115.2247-.3539.284-.206.049-.3331-.116-.3861-.3-.0351-.1217-.05-.2484-.044-.375.062-.978.134-1.956.2-2.934.035-.525.072-1.051.094-1.577.01-.238.064-.431.31-.519.1142-.034.2365-.0284.3471.0159.1105.0443.2028.1247.2619.2281.22.311.423.635.637.951.622.9187 1.2451 1.8367 1.8691 2.754.0442.0566.0923.11.1439.16.0474-.0705.0882-.1451.122-.223.0177-.0706.0253-.1433.023-.216.042-.835.0801-1.67.1281-2.5.019-.326.0579-.651.0999-.975.034-.283.185-.41.425-.38.0871.0107.1675.0521.2267.1168.0592.0648.0934.1485.0963.2362z" fill="#fff"/><path d="m34.245 34.749c-.0977-.0685-.1897-.1447-.275-.228-.5933-.6355-1.2478-1.211-1.954-1.718-.0288-.0295-.0643-.0513-.1036-.0637-.0393-.0123-.081-.0147-.1214-.007-.0404.0078-.0783.0254-.1102.0513-.032.026-.057.0594-.0728.0974-.225.331-.443.666-.67 1s-.45.662-.7.976c-.1378.1686-.2956.3197-.47.45-.0587.0592-.137.095-.2202.1007-.0832.0058-.1656-.019-.2318-.0697-.0722-.0704-.1176-.1638-.1281-.264-.0106-.1003.0142-.2011.0701-.285.0519-.0745.1112-.1435.177-.206.5487-.6525 1.0343-1.3557 1.45-2.1.214-.349.213-.371-.085-.641-.6909-.6966-1.4436-1.3289-2.2491-1.889-.0632-.0361-.1185-.0843-.1629-.142-.113-.163-.27-.347-.121-.54s.316-.021.482.043c.7503.2833 1.4396.7072 2.031 1.249.16.147.3.313.47.453.321.27.345.261.595-.051.351-.44.7-.881 1.062-1.312.1015-.1247.2279-.2268.371-.3.0479-.0281.1031-.0412.1585-.0376.0554.0035.1085.0236.1524.0576.0438.034.0766.0804.0939.1331.0173.0528.0184.1095.0032.1629-.0453.1744-.1236.3384-.231.483-.324.483-.668.952-.993 1.434-.2.3-.181.3.085.526.561.485 1.125.968 1.657 1.481.1853.1986.3303.4312.427.685.094.203-.098.455-.386.471z" fill="#fff"/><path d="m31.608 13.141c-.5116-.0105-1.0045-.1943-1.3981-.5213-.3936-.3269-.6647-.7777-.7689-1.2787-.0912-.705.0601-1.42009.429-2.02777s.9335-1.07184 1.601-1.31623c.1251-.02413.2469-.06272.363-.115.1964-.11419.4183-.17731.6454-.1836s.4522.04445.6546.1476c.464.17093.8534.49937 1.1.928.2045.35527.3217.754.342 1.16341.0203.40939-.0567.81779-.225 1.19159-.2142.5643-.5872 1.0546-1.0739 1.4116-.4868.3571-1.0665.5656-1.6691.6004zm2.112-3.053c.0027-.26878-.0648-.53362-.1957-.76834-.131-.23473-.3209-.43121-.5511-.57007-.2301-.13886-.4925-.21527-.7612-.22169-.2687-.00641-.5345.05738-.771.18509-.3952.19731-.7252.50423-.9506.88407-.2254.37985-.3366.81654-.3204 1.25794-.0163.2163.0191.4334.1032.6334s.2146.3771.3807.5166c.1661.1396.3629.2377.5744.2862.2114.0485.4314.0461.6417-.0072.5167-.0931.9845-.3641 1.3223-.7659.3379-.4018.5246-.9091.5277-1.4341z" fill="#fff"/><path d="m43.522 22.533c-.045-.524-.1-1.047-.133-1.572-.0109-.1167-.0464-.2298-.1044-.3317-.0579-.1019-.1369-.1903-.2316-.2593-.515-.459-1.027-.922-1.511-1.412-.1329-.1661-.2204-.3639-.254-.574-.0303-.0885-.0266-.1851.0104-.2711.0369-.0859.1045-.155.1896-.1939.0848-.0363.1795-.0426.2684-.0178.0888.0247.1667.079.2206.1538.147.16.28.334.428.494.32.347.635.7.972 1.029.225.221.275.191.455-.063.4-.563.8-1.119 1.213-1.674.0788-.1.1647-.1942.257-.282.146-.148.3-.283.52-.129s.17.34.06.527c-.231.391-.459.783-.7 1.164-.2666.4127-.543.8183-.829 1.217-.1324.1931-.1831.4307-.141.661.1013.827.1227 1.6619.064 2.493-.035.355-.216.552-.433.518s-.342-.263-.336-.607c.005-.289 0-.578 0-.867z" fill="#fff"/><path d="m5.26699 29.037c-.028.2-.05499.38-.07599.559-.053.468-.11401.935-.15301 1.4-.11889.8635-.35438 1.7068-.70002 2.507-.0358.0578-.08544.1057-.14447.1394-.05902.0337-.12552.0521-.19348.0536-.06468-.0184-.12374-.0527-.17163-.0999s-.08312-.1057-.10242-.1701c-.03233-.2135-.01277-.4316.05701-.636.34079-.9391.5272-1.9273.552-2.926.031-.683-.08095-1.373-.11895-2.06-.01528-.1954-.00353-.3919.03497-.584.024-.1.14799-.264.21899-.26.06867.0059.1352.0269.19483.0615s.11093.0819.1502.1385c.13075.2594.22942.5338.29395.817.078.355.10802.718.15802 1.06z" fill="#fff"/><path d="m60.159 31.353c.0119.9628.134 1.921.364 2.856.044.232.1069.46.1479.692.057.333-.0569.541-.3139.6-.1353.0193-.2731-.0104-.3884-.0837-.1154-.0734-.2007-.1856-.2406-.3163-.055-.228-.065-.466-.1-.7-.2749-1.1856-.3975-2.4014-.365-3.618.0708-.502.1774-.9982.319-1.485.0219-.044.0532-.0827.0918-.1133.0385-.0306.0833-.0523.1312-.0637.04-.01.134.1.167.177.0438.1.0696.207.076.316.041.58.075 1.16.111 1.739z" fill="#fff"/><path d="m37.9441 39.679c.0093-.7761.1995-1.5394.5556-2.2291.356-.6897.868-1.2868 1.4953-1.7439.1352-.121.2764-.2352.4231-.342.1106-.0357.227-.0496.3429-.041-.0068.1007-.0308.1994-.071.292-.111.165-.255.308-.378.465-.37.472-.768.927-1.092 1.428-.1833.3108-.3108.6513-.377 1.006-.114.493-.1856.9948-.2139 1.5-.002.3627.0455.7241.1409 1.074.1.406.254.8.365 1.2.0434.1866.1241.3625.2372.5172.113.1546.2562.2849.4209.3828.6136.3703 1.0716.951 1.2889 1.634.138.374.335.725.505 1.086.008.016.018.031.026.048.076.153.144.316-.024.441s-.319.013-.415-.124c-.167-.237-.316-.487-.463-.737-.0483-.0965-.0884-.1968-.12-.3-.1951-.6676-.6202-1.2447-1.2-1.629-.3939-.2737-.691-.6651-.849-1.118-.4086-.8797-.6136-1.8401-.6-2.81z" fill="#fff"/><path d="m54.205 40.472c.083.958.162 1.915.25 2.873.0701.5066.0197 1.0225-.147 1.506-.3667 1.105-.8469 2.169-1.433 3.175-.316.486-.674.945-1 1.427-.2.3-.376.622-.562.934-.037.062-.062.148-.117.18-.1.057-.245.14-.32.1-.047-.0361-.0849-.0828-.1104-.1364-.0256-.0535-.0381-.1123-.0366-.1716.0139-.163.0656-.3205.151-.46.2964-.5211.6223-1.025.976-1.509.5375-.7109.989-1.4829 1.345-2.3.158-.347.275-.713.436-1.058.2186-.4819.3112-1.0115.269-1.539-.052-.923-.111-1.847-.122-2.771.0127-.4715.0598-.9414.141-1.406.012-.087.118-.161.18-.241.053.081.148.16.152.243.016.382.007.764.007 1.146z" fill="#fff"/><path d="m8.84302 42.952c.117-.709.22399-1.52.39099-2.319.122-.584.31699-1.155.49499-1.727.05-.16.09101-.43.315-.369.273.075.08.315.038.458-.32811 1.2495-.53511 2.5278-.61801 3.817-.05537.8582.10162 1.7169.45703 2.5.23398.552.45198 1.112.69998 1.656.1918.5719.5324 1.0825.987 1.479.1087.0969.2048.2071.286.328.163.2672.4227.4613.725.542.17.027.144.135.072.235-.059.0935-.148.1643-.2525.2006-.1044.0364-.2181.0362-.3225-.0006-.1067-.0265-.2048-.0798-.285-.155-.8754-.7466-1.5392-1.7101-1.92499-2.794-.11462-.3845-.27508-.7539-.47797-1.1-.2485-.5474-.40561-1.1318-.46503-1.73-.046-.307-.07199-.615-.11999-1.021z" fill="#fff"/><path d="m25.2 40.229c-.0494.6852-.207 1.3582-.467 1.994-.4262.925-.7259 1.9031-.891 2.908-.1262.4918-.2993.9703-.517 1.429-.0373.0829-.0963.1542-.171.206-.0287.0203-.0616.0338-.0963.0393-.0347.0056-.0702.0031-.1037-.0073-.0334-.0256-.0608-.0582-.0803-.0955-.0196-.0373-.0307-.0784-.0327-.1205.0262-.1236.07-.2428.1299-.354.2667-.4582.4098-.9778.4151-1.508.002-.1094.0251-.2173.068-.318.279-.845.519-1.707.855-2.529.2473-.5682.3519-1.1883.3046-1.8061-.0472-.6179-.2448-1.2149-.5756-1.7389-.0916-.1359-.1687-.281-.23-.433-.034-.1-.045-.283.015-.336.119-.1.221.017.307.121.4011.4744.696 1.0292.865 1.627.094.322.151.666.205.922z" fill="#fff"/><path d="m26.493 56.264c.0901-.9643.2886-1.9153.592-2.835.123-.437.238-.878.4-1.3.2-.525.427-1.037.649-1.552.072-.167.1749-.32.2409-.489.1963-.4898.4868-.9362.8551-1.314.585-.621 1.131-1.279 1.707-1.908.1-.108.358-.243.382-.217.182.2-.052.3-.143.442-.5506.8135-1.1642 1.5825-1.8351 2.3-.0131.0124-.0246.0265-.034.042-.6064.9694-1.0834 2.0139-1.419 3.107-.139.6769-.3186 1.3448-.5379 2-.2366.8593-.2834 1.7598-.137 2.639.024.235.08.467.09.7.007.144-.043.322-.226.31-.059-.0103-.1146-.0349-.1618-.0717-.0473-.0368-.0848-.0846-.1092-.1393-.124-.573-.213-1.144-.313-1.714z" fill="#fff"/></mask><g mask="url(#a)" stroke="#707070"><g stroke-width="2"><path d="m62.2 49.192 1.624-14.717-2.1-12.007-4.948-9.724-5.965-5.68-8.043-4.044-7.22-1.977-8.328.957-8.764 2.84399-5.932 3.39402-3.882 3.16099-4.022 4.936-2.57001 5.555-1.66498 7.456.540985 7.661.683015 6.78.44098 3.62" stroke-dasharray="130.336884" stroke-dashoffset="130.336884"/><path d="m5.63699 21.18.76902 4.354.781 4.79-1.55002 4.6-1.26999 4.606v3.823" stroke-dasharray="22.72965" stroke-dashoffset="22.72965"/><path d="m59.28 20.73-1.146 6.12-.906 4.486.906 4.293 1.459 3.526-.484 2.888" stroke-dasharray="21.934715" stroke-dashoffset="21.934715"/><path d="m31.231 12.678 2.3-.615.729-2.352-.729-1.7-2.3.35401-1.476 1.68599v1.749l.868.874 2.195.347" stroke-dasharray="16.463821" stroke-dashoffset="16.463821"/><path d="m17.28 23.887.7-5.55 3.689 5.865v-6.24" stroke-dasharray="18.762672" stroke-dashoffset="18.762672"/><path d="m40.959 17.731 3.727 3.541" stroke-dasharray="5.140934" stroke-dashoffset="5.140934"/><path d="m45.757 17.333-2.135 3.687.5 3.259" stroke-dasharray="7.55767" stroke-dashoffset="7.55767"/><path d="m33.784 28.9-4.522 6.658" stroke-dasharray="8.048444" stroke-dashoffset="8.048444"/><path d="m28.152 29.346 6.645 5.194" stroke-dasharray="8.434078" stroke-dashoffset="8.434078"/><path d="m4.367 26.849.45099 4.171-1 3.261" stroke-dasharray="7.606191" stroke-dashoffset="7.606191"/><path d="m59.593 28.9.309 4.485.675 2.815" stroke-dasharray="7.39043" stroke-dashoffset="7.39043"/><path d="m4.81799 44.64v3.693l-1.078 2.367-1.16498 2.324 1.58499 2.2 1.965 2.063.83801 2.717 2.08798 1.258 3.05501-.6h2.494l1.568.6.823-2.675 1.815-1.914 2.433-2.782" stroke-dasharray="36.153629" stroke-dashoffset="36.153629"/><path d="m41.83 53.713 2.322 2.063 2.211 2.906 1.683 2.674h2.2l1.351-1.008 3.148 1.008h2.475l1.3-2.674 2.389-1.613 1.174-1.98-1.174-2.6-.9-1.828v-7.711" stroke-dasharray="40.342155" stroke-dashoffset="40.342155"/><path d="m16.308 63 .3 4.22h1.8l2.029 1.735h1.817l1.792-.391 3.354 1.415 2.515-1.024 3.583.547h7.332l3.5-1.563 1.244-.663 1.016.4 2.279-7.953" stroke-dasharray="44.271503" stroke-dashoffset="44.271503"/></g><path d="m16.19 33.94h3.175l2.529.327 1.93 1.9 2.693 1.623.406 2.665-1.45 4.747-1.3 2.305-2.527 1.611-1.872 1.4-4.724.6-3.441-.3-2.08001-1.152-1.613-3-.84598-3.718.84598-3.472 2.048-2.938 3.09301-1.833 1.993-.776 3.775-.794" stroke-dasharray="61.777176" stroke-dashoffset="61.777176" stroke-width="3"/><path d="m44.689 33.567 4.35.58 3.33 1.586 2.447 2.477 1.478 3.3v4.42l-2.316 4.709-3.627 1.148h-3.439l-2.735-2.141-3.526-2.24-2.87-2.846-1.145-3.489-.27-3.28 2.758-2.678 3.334-.965 1.717-.855h3.025" stroke-dasharray="62.999611" stroke-dashoffset="62.999611" stroke-width="3"/><path d="m31.819 44.394 1.295 1.833 1.9 1.566 1.171 1.908.808 2.384.749 1.974v2.559l-.452 1.67-2.275.649-1.241-.352-2.551-1.464-2.375 1.816-2.854.48-1.1-.832v-1.966l1.1-4.533 1.419-2.8 1.7-2.318 1.819-1.673 1.628-1.551" stroke-dasharray="47.086861" stroke-dashoffset="47.086861" stroke-width="3"/><path d="m31.491 46.686-1.706 1.918-1.57 2.424-.961 3.571-.153 3.853" stroke-dasharray="13.009043" stroke-dashoffset="13.009043" stroke-width="3"/><path d="m23.786 37.257 1.064 2v1.416l-.527 2.314-.888 2.2-.6 1.718" stroke-dasharray="10.24688" stroke-dashoffset="10.24688" stroke-width="3"/><path d="m10.087 38.2-.70599 2.649-.48102 2.483.87803 2.721 1.21598 1.918 1.165 1.377.759.6" stroke-dasharray="13.17198" stroke-dashoffset="13.17198" stroke-width="2"/><path d="m40.959 35.557-2.024 1.69-.758 2.28.244 2.256 1.377 1.875.941 1.271.86 1.695" stroke-dasharray="13.117087" stroke-dashoffset="13.117087" stroke-width="2"/><path d="m54.012 38.948v2.527l.222 2.393-.874 2.875-2.688 3.97" stroke-dasharray="12.729584" stroke-dashoffset="12.729584" stroke-width="2"/><path d="m19.08 66.919.923-1.652" stroke-dasharray="1.892362" stroke-dashoffset="1.892362" stroke-width="2"/><path d="m22.836 64.85-.735 4.087" stroke-dasharray="4.152563" stroke-dashoffset="4.152563" stroke-width="2"/><path d="m25.721 64.6-1 3.807" stroke-dasharray="3.936146" stroke-dashoffset="3.936146" stroke-width="2"/><path d="m28.539 64.6-.566 4.391" stroke-dasharray="4.427327" stroke-dashoffset="4.427327" stroke-width="2"/><path d="m31.32 65.266v3.321" stroke-dasharray="3.320999" stroke-dashoffset="3.320999" stroke-width="2"/><path d="m34.378 64.85 1.094 3.925" stroke-dasharray="4.074615" stroke-dashoffset="4.074615" stroke-width="3"/><path d="m38.176 64 2.124 4.842" stroke-dasharray="5.287378" stroke-dashoffset="5.287378" stroke-width="3"/><path d="m40.788 64 1.472 4.55" stroke-dasharray="4.782187" stroke-dashoffset="4.782187" stroke-width="3"/></g></svg>