<svg width="65" height="72" viewBox="0 0 65 72" fill="none" xmlns="http://www.w3.org/2000/svg">
<mask id="mask0" mask-type="alpha" maskUnits="userSpaceOnUse" x="0" y="0" width="65" height="72">
<path d="M64.188 34.133C64.1446 34.3047 64.1151 34.4796 64.1 34.656C64.088 36.186 64.106 37.718 64.072 39.247C64.0434 39.8815 63.9716 40.5133 63.857 41.138C63.701 42.107 63.521 43.072 63.331 44.038C63.2489 44.4666 63.1369 44.889 62.996 45.302C62.8291 45.7651 62.7488 46.2549 62.759 46.747C62.772 47.239 62.776 47.731 62.759 48.223C62.7645 48.4217 62.7234 48.619 62.639 48.799C62.5442 48.9472 62.3971 49.0543 62.227 49.099C62.008 49.148 61.854 48.975 61.772 48.781C61.7125 48.6486 61.6786 48.5061 61.672 48.361C61.661 47.651 61.646 46.939 61.672 46.23C61.6851 45.9223 61.7465 45.6186 61.854 45.33C62.1624 44.3397 62.3885 43.3255 62.53 42.298C62.685 41.498 62.788 40.685 62.909 39.877C62.945 39.6621 62.9657 39.4449 62.971 39.227C62.981 37.3503 62.9873 35.4737 62.99 33.597C63.0002 32.9057 62.9399 32.2151 62.81 31.536C62.7503 30.9768 62.6292 30.4258 62.449 29.893C62.4071 29.7727 62.3563 29.6557 62.297 29.543C61.7519 28.6506 61.4927 27.6129 61.554 26.569C61.5327 25.4944 61.3596 24.4282 61.04 23.402C60.931 22.6623 60.7059 21.9445 60.373 21.275C60.0608 20.5803 59.8393 19.8483 59.714 19.097C59.5919 18.66 59.4197 18.2386 59.201 17.841C59.0463 17.5524 58.9162 17.2514 58.812 16.941C58.3918 15.9726 57.8155 15.0797 57.106 14.298C56.7242 13.7902 56.368 13.2635 56.039 12.72C55.8974 12.5107 55.7392 12.3131 55.566 12.129C55.2406 11.7877 54.9073 11.4543 54.566 11.129C54.033 10.635 53.494 10.146 52.944 9.67101C52.394 9.19601 51.87 8.744 51.304 8.32C50.753 7.906 50.162 7.544 49.593 7.154C49.3165 6.9823 49.054 6.78903 48.808 6.576C48.5631 6.30543 48.2534 6.10168 47.908 5.984C47.7668 5.94539 47.6335 5.88245 47.514 5.798C46.7175 5.28546 45.8679 4.86064 44.98 4.531C44.28 4.231 43.598 3.886 42.903 3.573C42.7327 3.51049 42.5578 3.46102 42.38 3.425C42.2011 3.39405 42.026 3.34375 41.858 3.275C41.2207 2.96999 40.531 2.78943 39.826 2.743C39.0716 2.63424 38.3263 2.47013 37.596 2.252C36.876 2.02205 36.1266 1.89678 35.371 1.88C34.555 1.894 33.737 1.789 32.92 1.791C32.03 1.791 31.137 1.827 30.25 1.909C29.6549 1.98193 29.0651 2.09248 28.484 2.24C27.6333 2.42933 26.7853 2.63167 25.94 2.847C25.62 2.9174 25.3103 3.02795 25.018 3.176C24.4287 3.46115 23.8136 3.68951 23.181 3.858C22.4658 4.11015 21.7328 4.30838 20.988 4.451C20.457 4.57691 19.9437 4.76838 19.46 5.021C19.0293 5.21708 18.6113 5.43951 18.208 5.687C17.353 6.204 16.514 6.747 15.66 7.267C15.178 7.559 14.675 7.817 14.19 8.104C13.0911 8.7493 12.0445 9.47988 11.06 10.289C10.0534 11.1012 9.0932 11.9692 8.18396 12.889C7.33095 13.7872 6.57975 14.7769 5.94397 15.84C5.60297 16.398 5.26497 16.963 4.87597 17.487C4.04824 18.5752 3.4103 19.7953 2.98901 21.096C2.70501 21.996 2.38899 22.889 2.06299 23.779C1.69328 24.9029 1.44752 26.0638 1.33001 27.241C1.13688 28.5745 1.06124 29.9223 1.104 31.269C1.154 32.34 1.28099 33.407 1.34399 34.477C1.375 35.0549 1.375 35.6341 1.34399 36.212C1.27585 37.1383 1.31442 38.0695 1.45898 38.987C1.60498 39.755 1.71497 40.529 1.87097 41.295C1.98797 41.865 2.171 42.421 2.294 42.989C2.53988 44.1649 2.59457 45.3727 2.45599 46.566C2.44848 46.6038 2.43322 46.6397 2.41119 46.6714C2.38916 46.703 2.36086 46.7298 2.328 46.75C2.2551 46.8063 2.16431 46.8342 2.07239 46.8287C1.98046 46.8232 1.89364 46.7846 1.828 46.72C1.68379 46.539 1.5841 46.3266 1.53698 46.1C1.47087 45.7051 1.43745 45.3054 1.43701 44.905C1.39338 43.9597 1.23795 43.0228 0.973996 42.114C0.753996 41.214 0.61499 40.296 0.42999 39.388C0.254325 38.5332 0.187116 37.6596 0.229978 36.788C0.247978 36.426 0.329962 36.063 0.313962 35.703C0.275962 34.814 0.203984 33.927 0.135984 33.04C-0.0154034 31.7753 -0.0318403 30.4981 0.0869725 29.23C0.230972 28.169 0.312995 27.099 0.447995 26.036C0.515016 25.5865 0.607476 25.1411 0.724973 24.702C1.08697 23.231 1.68597 21.839 2.15197 20.402C2.64268 19.0882 3.32618 17.8547 4.17999 16.742C4.61462 16.1133 5.00779 15.4569 5.35699 14.777C5.69939 14.113 6.13738 13.5028 6.65698 12.966C7.59031 11.9967 8.53131 11.0323 9.47998 10.073C10.4494 9.11085 11.4893 8.22239 12.591 7.415C14.8859 5.73002 17.4262 4.40791 20.123 3.495C21.015 3.182 21.907 2.865 22.805 2.569C23.096 2.469 23.411 2.451 23.705 2.369C24.305 2.21 24.886 1.998 25.489 1.869C26.519 1.658 27.559 1.502 28.589 1.316C28.929 1.255 29.261 1.136 29.603 1.109C30.345 1.049 31.092 1.043 31.835 0.995002C33.1619 0.974063 34.4876 1.08663 35.792 1.331C37.068 1.504 38.312 1.871 39.598 1.955C40.1606 1.96621 40.72 2.04477 41.264 2.189C41.454 2.248 41.641 2.314 41.831 2.372C42.1237 2.462 42.4173 2.54967 42.712 2.635C42.8185 2.65684 42.9237 2.68489 43.027 2.719C44.266 3.244 45.506 3.766 46.738 4.308C47.086 4.461 47.401 4.687 47.738 4.858C48.4776 5.20214 49.1689 5.6419 49.794 6.166C50.3785 6.59659 50.9886 6.99132 51.621 7.348C52.055 7.648 52.455 7.991 52.864 8.323C53.4987 8.83966 54.1297 9.36067 54.757 9.886C54.897 10.002 55.02 10.137 55.15 10.265C55.5626 10.673 55.9746 11.0817 56.386 11.491C56.5066 11.6018 56.6158 11.7244 56.712 11.857C57.052 12.372 57.369 12.901 57.712 13.411C57.875 13.65 58.095 13.848 58.272 14.079C59.0138 14.9784 59.5928 16.0004 59.983 17.099C60.0042 17.1876 60.0379 17.2728 60.083 17.352C60.5251 18.1271 60.8296 18.9729 60.983 19.852C61.1008 20.2304 61.2397 20.602 61.399 20.965C61.5155 21.2108 61.6157 21.464 61.699 21.723C62.007 22.995 62.309 24.269 62.581 25.549C62.6398 25.926 62.6635 26.3076 62.652 26.689C62.6483 27.51 62.8549 28.3183 63.252 29.037C63.6118 29.6734 63.8237 30.3826 63.872 31.112C63.921 31.757 64.072 32.394 64.18 33.035L64.188 34.133Z" fill="white"></path>
<path d="M15.968 65.348V63.984C15.965 63.9294 15.965 63.8746 15.968 63.82C15.988 63.535 16.119 63.347 16.318 63.338C16.42 63.3347 16.5199 63.3677 16.5998 63.4313C16.6797 63.4949 16.7344 63.5848 16.754 63.685C16.8486 63.9775 16.9119 64.2792 16.943 64.585C16.946 64.8753 16.9306 65.1656 16.897 65.454C16.88 65.799 16.862 66.145 16.863 66.49C16.863 66.549 16.975 66.667 17.005 66.657C17.482 66.515 17.805 66.798 18.139 67.049C18.324 67.186 18.53 67.294 18.726 67.416C18.798 67.216 18.872 67.01 18.942 66.805C19.042 66.495 19.142 66.182 19.255 65.875C19.383 65.527 19.622 65.357 19.846 65.436C20.089 65.522 20.179 65.759 20.082 66.127C19.9923 66.4996 19.8818 66.8668 19.751 67.227C19.6997 67.3925 19.692 67.5684 19.7284 67.7377C19.7648 67.9071 19.8442 68.0642 19.959 68.194C19.9892 68.2203 20.0256 68.2385 20.0648 68.2471C20.1039 68.2557 20.1445 68.2543 20.183 68.243C20.4011 68.1247 20.6482 68.0702 20.8958 68.0859C21.1435 68.1017 21.3816 68.187 21.583 68.332C21.75 68.447 21.739 68.293 21.76 68.193C21.905 67.499 22.044 66.805 22.202 66.114C22.2586 65.8846 22.3391 65.6617 22.442 65.449C22.512 65.299 22.636 65.164 22.831 65.237C22.8748 65.2508 22.9154 65.2732 22.9504 65.3029C22.9854 65.3327 23.0142 65.3691 23.0348 65.4102C23.0555 65.4512 23.0678 65.4959 23.0709 65.5417C23.074 65.5876 23.0679 65.6336 23.053 65.677C22.9356 66.2103 22.8193 66.7437 22.704 67.277C22.665 67.455 22.634 67.634 22.588 67.81C22.537 68.004 22.553 68.124 22.803 68.121C23.293 68.0389 23.7962 68.1365 24.22 68.396C24.2838 68.3652 24.336 68.3147 24.369 68.252C24.597 67.373 24.812 66.491 25.04 65.613C25.0839 65.4381 25.1512 65.2699 25.24 65.113C25.367 64.896 25.57 64.903 25.717 65.105C25.7856 65.2133 25.8282 65.336 25.8414 65.4636C25.8546 65.5911 25.8381 65.72 25.793 65.84C25.686 66.263 25.554 66.68 25.449 67.104C25.335 67.563 25.249 68.027 25.132 68.486C25.088 68.665 25.061 68.769 25.311 68.696C25.6865 68.5803 26.0827 68.5483 26.4719 68.602C26.8611 68.6557 27.2339 68.7939 27.564 69.007C27.795 69.148 27.738 68.936 27.75 68.831C27.864 67.784 27.972 66.731 28.09 65.69C28.1096 65.4906 28.1549 65.2947 28.225 65.107C28.247 65.0509 28.2811 65.0004 28.3248 64.9589C28.3685 64.9175 28.4209 64.8861 28.478 64.867C28.5367 64.8717 28.5936 64.8885 28.6453 64.9166C28.697 64.9447 28.7422 64.9833 28.778 65.03C28.8689 65.1559 28.9322 65.2994 28.9641 65.4514C28.996 65.6033 28.9956 65.7602 28.963 65.912C28.8617 66.7787 28.7637 67.6453 28.669 68.512C28.6588 68.6391 28.6561 68.7666 28.661 68.894C28.661 69.031 28.708 69.128 28.845 68.994C29.044 68.8011 29.3104 68.6933 29.5875 68.6933C29.8647 68.6933 30.131 68.8011 30.33 68.994C30.54 69.133 30.774 69.235 30.997 69.354C31.01 69.102 31.03 68.854 31.033 68.599C31.042 67.943 31.027 67.286 31.056 66.632C31.0789 66.3813 31.1427 66.136 31.245 65.906C31.318 65.723 31.478 65.706 31.567 65.88C31.6646 66.0695 31.7218 66.2772 31.735 66.49C31.777 67.304 31.798 68.119 31.816 68.935C31.816 69.148 31.893 69.196 32.077 69.1C32.238 69.016 32.407 68.943 32.562 68.849C32.7333 68.7422 32.9329 68.6897 33.1346 68.6984C33.3363 68.7071 33.5306 68.7767 33.692 68.898C33.953 69.063 34.24 69.191 34.492 69.373C34.854 69.641 34.912 69.515 34.879 69.129C34.835 68.624 34.8 68.115 34.708 67.617C34.579 66.917 34.401 66.234 34.244 65.544C34.236 65.508 34.212 65.468 34.223 65.438C34.268 65.311 34.288 65.138 34.381 65.072C34.4156 65.0485 34.4552 65.0334 34.4966 65.0278C34.538 65.0221 34.5801 65.0262 34.6197 65.0395C34.6594 65.0529 34.6953 65.0752 34.7249 65.1048C34.7544 65.1344 34.7767 65.1704 34.79 65.21C34.9314 65.4848 35.0528 65.7696 35.153 66.062C35.433 66.926 35.705 67.794 35.953 68.668C36.023 68.913 36.08 68.994 36.353 68.903C36.8396 68.6889 37.3854 68.6507 37.897 68.795C38.0854 68.8642 38.2871 68.89 38.4869 68.8704C38.6867 68.8509 38.8796 68.7865 39.051 68.682C39.593 68.401 39.588 68.402 39.417 67.793C39.1488 66.886 38.8045 66.0032 38.388 65.154C38.303 65.0149 38.2482 64.8596 38.227 64.698C38.2361 64.6309 38.26 64.5666 38.297 64.5099C38.334 64.4531 38.3832 64.4053 38.441 64.37C38.498 64.3546 38.5581 64.354 38.6155 64.3682C38.6728 64.3823 38.7256 64.4108 38.769 64.451C38.9603 64.6702 39.1229 64.9128 39.253 65.173C39.7509 66.1054 40.1062 67.1072 40.307 68.145C40.341 68.39 40.418 68.598 40.728 68.605C40.8358 68.6239 40.9404 68.6575 41.039 68.705C41.466 68.845 41.567 68.78 41.529 68.323C41.5119 67.5956 41.383 66.8752 41.147 66.187C41.0198 65.846 40.913 65.4977 40.827 65.144C40.7849 65.0048 40.768 64.8592 40.777 64.714C40.7767 64.6588 40.7928 64.6049 40.8232 64.5588C40.8536 64.5128 40.8969 64.4768 40.9478 64.4554C40.9986 64.434 41.0546 64.4281 41.1088 64.4386C41.1629 64.449 41.2128 64.4753 41.252 64.514C41.336 64.584 41.4064 64.6687 41.46 64.764C41.8974 65.4385 42.1637 66.2094 42.236 67.01C42.25 67.263 42.31 67.51 42.336 67.766C42.353 67.944 42.436 68.031 42.612 68.025C43.1199 68.0027 43.6277 68.0704 44.112 68.225C44.2162 68.2501 44.3251 68.2486 44.4285 68.2205C44.532 68.1925 44.6267 68.1388 44.704 68.0644C44.7812 67.9901 44.8384 67.8975 44.8704 67.7951C44.9024 67.6928 44.9082 67.5841 44.887 67.479C44.8371 67.2478 44.799 67.0141 44.773 66.779C44.7642 66.5443 44.7826 66.3094 44.828 66.079C44.864 65.891 45.003 65.858 45.158 65.968C45.365 66.116 45.586 66.252 45.637 66.535C45.701 66.891 45.777 67.244 45.831 67.601C45.874 67.884 45.89 67.909 46.172 67.854C46.2974 67.8302 46.4213 67.7991 46.543 67.761C46.749 67.696 46.878 67.61 46.834 67.334C46.764 66.8663 46.7227 66.3947 46.71 65.922C46.6676 64.773 46.8119 63.6248 47.137 62.522C47.2732 62.1871 47.4578 61.8741 47.685 61.593C47.785 61.442 47.801 61.343 47.639 61.234C46.8982 60.6716 46.2619 59.9835 45.759 59.201C44.854 57.971 43.917 56.763 42.986 55.551C42.731 55.22 42.436 54.919 42.186 54.586C41.948 54.274 41.953 54.08 42.148 53.911C42.2008 53.8668 42.2618 53.8336 42.3275 53.8133C42.3932 53.7929 42.4624 53.7859 42.5309 53.7925C42.5994 53.7991 42.6658 53.8192 42.7264 53.8518C42.7871 53.8843 42.8406 53.9286 42.884 53.982C43.7718 54.7631 44.5807 55.6296 45.299 56.569C45.739 57.237 46.175 57.907 46.634 58.562C46.9614 59.0433 47.315 59.5063 47.693 59.949C47.9719 60.2504 48.3422 60.4517 48.7468 60.5218C49.1515 60.592 49.5679 60.527 49.932 60.337C50.061 60.27 50.187 60.196 50.317 60.131C50.7487 59.891 51.2314 59.7576 51.7251 59.742C52.2187 59.7263 52.709 59.8288 53.155 60.041C53.402 60.157 53.65 60.274 53.887 60.409C54.4939 60.7521 55.1957 60.889 55.887 60.799C56.1518 60.7836 56.4096 60.7091 56.6418 60.5811C56.8741 60.4531 57.0747 60.2747 57.229 60.059C57.385 59.835 57.529 59.601 57.679 59.375C58.056 58.818 58.421 58.253 58.82 57.712C59.1204 57.2952 59.5331 56.9723 60.01 56.781C60.263 56.681 60.51 56.557 60.757 56.448C60.9292 56.3818 61.0759 56.2625 61.1757 56.1073C61.2755 55.9521 61.3232 55.7692 61.312 55.585C61.3086 55.0044 61.2719 54.4244 61.202 53.848C61.1618 53.6312 61.0723 53.4265 60.9406 53.2497C60.8088 53.0728 60.6383 52.9286 60.442 52.828C60.0891 52.6515 59.7976 52.3725 59.6058 52.0276C59.414 51.6827 59.3308 51.288 59.367 50.895C59.402 50.443 59.429 49.988 59.496 49.54C59.6193 48.6021 59.6257 47.6525 59.515 46.713C59.499 46.55 59.5 46.386 59.487 46.222C59.436 45.588 59.356 44.955 59.34 44.322C59.3485 43.9832 59.4013 43.6471 59.497 43.322C59.52 43.229 59.697 43.093 59.768 43.111C59.8319 43.1318 59.8903 43.1667 59.939 43.213C59.9876 43.2594 60.0252 43.3161 60.049 43.379C60.1487 43.7477 60.2157 44.1245 60.249 44.505C60.3901 45.66 60.4719 46.8216 60.494 47.985C60.5045 48.7851 60.4443 49.5845 60.314 50.374C60.2806 50.5899 60.2705 50.8089 60.284 51.027C60.2806 51.155 60.3118 51.2815 60.3743 51.3933C60.4367 51.505 60.5282 51.5979 60.639 51.662C60.839 51.787 61.01 51.962 61.213 52.078C61.526 52.2708 61.7888 52.5349 61.98 52.8488C62.1712 53.1627 62.2853 53.5175 62.313 53.884C62.4643 54.7305 62.4354 55.5994 62.228 56.434C62.1272 56.8622 61.9114 57.2548 61.6039 57.5693C61.2964 57.8839 60.9088 58.1085 60.483 58.219C59.987 58.3567 59.5569 58.6679 59.271 59.096C58.881 59.645 58.49 60.196 58.117 60.755C57.8537 61.1755 57.4616 61.4996 56.999 61.679C56.5747 61.8434 56.1405 61.981 55.699 62.091C55.2879 62.1956 54.8525 62.1398 54.481 61.935C54.163 61.761 53.821 61.628 53.491 61.477C52.9157 61.1935 52.272 61.078 51.634 61.144C51.2906 61.1753 50.9537 61.2568 50.634 61.386C50.2125 61.6014 49.7567 61.7415 49.287 61.8C49.1957 61.7976 49.106 61.8234 49.03 61.874C48.3929 62.3379 47.9526 63.0236 47.796 63.796C47.6593 64.9164 47.6522 66.0489 47.775 67.171C47.8333 67.3555 47.8395 67.5526 47.7931 67.7404C47.7468 67.9283 47.6495 68.0998 47.512 68.236C47.04 68.602 46.559 69.036 45.899 68.888C45.6987 68.8326 45.4869 68.835 45.288 68.895C45.089 68.955 44.9112 69.0701 44.775 69.227C44.7182 69.3004 44.6467 69.3612 44.5651 69.4055C44.4835 69.4498 44.3935 69.4766 44.301 69.4843C44.2085 69.492 44.1154 69.4804 44.0276 69.4502C43.9398 69.42 43.8592 69.372 43.791 69.309C43.4025 69.1106 42.9647 69.0297 42.531 69.076C42.375 69.071 42.18 69.25 42.058 69.393C41.603 69.928 41.493 69.946 40.868 69.593C40.6601 69.4847 40.4373 69.4075 40.207 69.364C40.0569 69.3216 39.897 69.3302 39.7523 69.3882C39.6076 69.4463 39.4862 69.5507 39.407 69.685C39.3656 69.7453 39.3195 69.8021 39.269 69.855C38.837 70.339 38.628 70.364 38.131 69.955C37.8138 69.7054 37.4194 69.5745 37.016 69.585C36.8795 69.5745 36.7424 69.5962 36.6158 69.6483C36.4892 69.7004 36.3766 69.7815 36.287 69.885C36.134 70.065 35.976 70.241 35.824 70.422C35.504 70.804 35.313 70.832 34.884 70.594C34.391 70.321 33.884 70.067 33.391 69.8C33.2653 69.7242 33.1213 69.6842 32.9745 69.6842C32.8277 69.6842 32.6837 69.7242 32.558 69.8C32.212 70 31.8704 70.2063 31.533 70.419C31.4761 70.4733 31.4014 70.5051 31.3229 70.5084C31.2443 70.5117 31.1673 70.4863 31.106 70.437C30.706 70.182 30.268 70.001 29.851 69.776C29.8151 69.7477 29.7734 69.7277 29.7289 69.7173C29.6844 69.707 29.6382 69.7066 29.5935 69.7161C29.5488 69.7257 29.5068 69.745 29.4705 69.7726C29.4341 69.8002 29.4042 69.8355 29.383 69.876C29.247 70.09 29.115 70.309 28.997 70.533C28.716 71.067 28.387 71.149 27.906 70.773C27.548 70.493 27.227 70.164 26.853 69.91C26.5994 69.7395 26.3129 69.6237 26.012 69.57C25.8229 69.532 25.6265 69.5548 25.4512 69.6353C25.2758 69.7158 25.1305 69.8498 25.036 70.018C24.736 70.478 24.363 70.442 24.05 69.985C23.8785 69.7088 23.674 69.4546 23.441 69.228C23.1 68.928 22.859 68.967 22.541 69.285C22.464 69.362 22.399 69.454 22.316 69.523C22.2177 69.6212 22.0855 69.6779 21.9466 69.6812C21.8077 69.6846 21.6729 69.6343 21.57 69.541C21.455 69.453 21.362 69.341 21.253 69.241C21.1605 69.1393 21.0368 69.0713 20.9014 69.0476C20.766 69.0239 20.6266 69.0458 20.505 69.11C20.3856 69.1891 20.2493 69.2389 20.1071 69.2555C19.9648 69.2721 19.8207 69.255 19.6863 69.2055C19.552 69.156 19.4311 69.0756 19.3336 68.9708C19.2361 68.8659 19.1646 68.7396 19.125 68.602C19.017 68.35 18.909 68.177 18.538 68.216C18.296 68.242 18.01 68.005 17.771 67.844C17.5229 67.6566 17.2136 67.5688 16.904 67.598C16.8131 67.6074 16.7214 67.6054 16.631 67.592C16.535 67.5875 16.4409 67.5637 16.3542 67.5221C16.2676 67.4805 16.1903 67.4219 16.1268 67.3498C16.0632 67.2777 16.0149 67.1935 15.9845 67.1023C15.9541 67.0111 15.9424 66.9148 15.95 66.819C15.943 66.327 15.95 65.835 15.95 65.343L15.968 65.348Z" fill="white"></path>
<path d="M45.658 33.209C46.692 33.267 47.626 33.26 48.541 33.391C49.212 33.4758 49.8569 33.7039 50.432 34.06C50.6466 34.1983 50.8712 34.3203 51.104 34.425C52.1785 34.9288 53.1435 35.6389 53.944 36.515C54.1538 36.7429 54.3754 36.9595 54.608 37.164C55.1502 37.6554 55.5524 38.2816 55.774 38.979C56.087 39.832 56.388 40.688 56.702 41.541C56.9228 42.1821 56.968 42.8705 56.833 43.535C56.646 44.607 56.415 45.672 56.182 46.735C55.9674 47.6214 55.6159 48.469 55.14 49.247C54.9311 49.6079 54.6971 49.9537 54.44 50.282C53.7523 51.1699 52.7628 51.7748 51.659 51.982C51.09 52.098 50.536 52.282 49.969 52.406C48.5934 52.6502 47.176 52.3797 45.987 51.646C45.469 51.3443 44.982 50.9923 44.533 50.595C44.224 50.343 43.889 50.122 43.568 49.884C43.057 49.507 42.56 49.11 42.035 48.755C41.5415 48.4155 41.0286 48.105 40.499 47.825C39.6187 47.4202 38.8427 46.8191 38.2308 46.0678C37.6189 45.3165 37.1873 44.435 36.969 43.491C36.735 42.464 36.569 41.419 36.282 40.406C36.1261 39.8289 36.0617 39.231 36.091 38.634C36.0942 38.4889 36.1099 38.3444 36.138 38.202C36.2235 37.723 36.425 37.2722 36.725 36.889C37.31 36.1455 37.9735 35.4672 38.704 34.866C39.4346 34.2858 40.3104 33.917 41.236 33.8C42.259 33.647 43.28 33.479 44.305 33.336C44.784 33.267 45.274 33.244 45.658 33.209V33.209ZM37.044 39.542C37.0616 39.8854 37.1003 40.2274 37.16 40.566C37.398 41.574 37.66 42.576 37.922 43.578C38.1267 44.4158 38.5845 45.1704 39.233 45.739C39.5128 45.9727 39.769 46.2333 39.998 46.517C40.1806 46.7416 40.4135 46.9201 40.678 47.038C41.5663 47.4152 42.4116 47.8869 43.199 48.445C43.4163 48.6385 43.6457 48.8179 43.886 48.982C44.5702 49.3232 45.189 49.7822 45.714 50.338C45.7384 50.3652 45.768 50.3872 45.801 50.403C46.8423 51.1492 48.1108 51.5098 49.389 51.423C50.5841 51.3069 51.7459 50.9624 52.811 50.408C53.4898 50.0405 54.0367 49.4698 54.375 48.776C54.8259 47.9432 55.1204 47.0349 55.244 46.096C55.2841 45.8452 55.3512 45.5994 55.444 45.363C55.514 45.119 55.602 44.88 55.652 44.632C55.752 44.132 55.826 43.632 55.922 43.132C56.0454 42.4842 55.9434 41.8138 55.633 41.232C55.5485 41.0714 55.4772 40.9042 55.42 40.732C55.255 40.214 55.102 39.691 54.944 39.17C54.8583 38.8715 54.6796 38.6081 54.434 38.418C54.1822 38.2372 53.9625 38.0154 53.784 37.762C53.3079 37.0724 52.7142 36.4719 52.03 35.988C51.5119 35.5852 50.9187 35.2897 50.285 35.119C50.0247 35.0423 49.7802 34.9197 49.563 34.757C49.1655 34.4624 48.69 34.2916 48.196 34.266C47.1633 34.1993 46.13 34.1587 45.096 34.144C44.3508 34.1477 43.61 34.2578 42.896 34.471C42.373 34.615 41.832 34.697 41.296 34.791C40.5861 34.9429 39.9017 35.1962 39.264 35.543C39.1709 35.601 39.0871 35.6724 39.015 35.755C38.792 35.969 38.569 36.185 38.351 36.404C37.9254 36.8062 37.5891 37.2935 37.3639 37.8341C37.1388 38.3747 37.0298 38.9566 37.044 39.542V39.542Z" fill="white"></path>
<path d="M6.63098 43.724C6.63368 41.8989 7.11908 40.1069 8.03796 38.53C8.38996 37.96 8.66398 37.33 9.06598 36.804C9.42616 36.349 9.8467 35.9453 10.316 35.604C11.1146 34.9944 12.0303 34.556 13.006 34.316C13.447 34.209 13.871 34.032 14.312 33.923C14.9844 33.7623 15.6737 33.6834 16.365 33.688C17.237 33.688 18.109 33.621 18.98 33.572C19.1425 33.5548 19.3024 33.5179 19.456 33.462C19.983 33.2957 20.5542 33.3439 21.046 33.596C21.7316 33.8944 22.36 34.3099 22.903 34.824C23.6037 35.4593 24.3566 36.0343 25.154 36.543C25.5749 36.8299 25.9804 37.1387 26.369 37.468C26.5661 37.6528 26.7142 37.8838 26.8 38.14C26.98 38.673 27.1 39.226 27.252 39.768C27.3948 40.2618 27.3713 40.7889 27.185 41.268C26.875 42.102 26.562 42.934 26.271 43.774C26.1366 44.1694 26.0257 44.5725 25.939 44.981C25.7938 45.6393 25.5582 46.2743 25.239 46.868C25.023 47.2736 24.688 47.6034 24.279 47.813C23.598 48.2028 22.9959 48.7166 22.504 49.328C22.0293 49.8829 21.4442 50.3328 20.786 50.649C20.4577 50.7976 20.1175 50.9184 19.769 51.01C18.5914 51.3143 17.3844 51.4906 16.169 51.536C15.8609 51.5537 15.5545 51.5932 15.252 51.654C14.3499 51.7891 13.4285 51.7047 12.566 51.408C12.392 51.3574 12.2122 51.3298 12.031 51.326C11.1503 51.2876 10.3119 50.9378 9.66498 50.339C8.86319 49.6123 8.27825 48.6778 7.97498 47.639C7.76798 47.057 7.59497 46.463 7.39697 45.878C7.3275 45.6524 7.23573 45.4344 7.12299 45.227C6.82082 44.7834 6.65026 44.2634 6.63098 43.727V43.724ZM15.038 50.665C15.799 50.617 16.56 50.543 17.321 50.529C17.9763 50.5221 18.625 50.3971 19.236 50.16C19.6478 49.9751 20.0698 49.8138 20.5 49.677C20.9444 49.5669 21.3346 49.3011 21.6 48.928C22.1362 48.1906 22.8209 47.5737 23.61 47.117C24.0377 46.8396 24.3913 46.462 24.64 46.017C24.8641 45.5799 25.025 45.1133 25.118 44.631C25.3664 43.4934 25.7589 42.3922 26.286 41.354C26.4199 41.1361 26.5052 40.8919 26.5363 40.6381C26.5673 40.3843 26.5434 40.1267 26.466 39.883C26.298 39.365 26.166 38.835 25.999 38.315C25.9563 38.1955 25.8795 38.0912 25.778 38.015C25.415 37.743 25.044 37.481 24.668 37.227C23.6253 36.629 22.6564 35.9108 21.781 35.087C21.4402 34.7877 21.0527 34.5462 20.634 34.372C20.316 34.2271 19.9551 34.2071 19.623 34.316C19.2885 34.3946 18.9473 34.4408 18.604 34.454C17.459 34.504 16.313 34.533 15.167 34.574C15.0394 34.5741 14.9124 34.5906 14.789 34.623C13.833 34.914 12.855 35.152 11.933 35.523C10.9927 35.8473 10.1956 36.4905 9.67999 37.341C9.40599 37.832 9.08897 38.301 8.76697 38.763C8.08441 39.7184 7.74151 40.8749 7.79297 42.048C7.78969 42.3381 7.7626 42.6274 7.71198 42.913C7.59016 43.5221 7.66367 44.1541 7.922 44.719C8.15392 45.2121 8.32387 45.7321 8.42798 46.267C8.63463 47.4762 9.19889 48.5956 10.048 49.481C10.4787 49.9058 11.0289 50.1888 11.625 50.292C12.7448 50.5456 13.8898 50.6708 15.038 50.665V50.665Z" fill="white"></path>
<path d="M35.155 59.533C34.862 59.481 34.606 59.457 34.363 59.388C33.5085 59.2071 32.6977 58.8609 31.976 58.369C31.784 58.219 31.605 57.969 31.401 57.942C31.212 57.921 30.993 58.142 30.793 58.267C30.6571 58.3515 30.5281 58.4465 30.407 58.551C29.4522 59.4959 28.1682 60.0336 26.825 60.051C26.3858 60.0383 25.9567 59.9162 25.5766 59.6958C25.1965 59.4755 24.8773 59.1638 24.648 58.789C24.5532 58.6544 24.4879 58.5011 24.4567 58.3394C24.4255 58.1777 24.429 58.0113 24.467 57.851C24.593 57.283 24.691 56.709 24.835 56.151C25.145 54.936 25.455 53.719 25.805 52.515C26.13 51.398 26.517 50.3 26.86 49.189C27.132 48.4502 27.6077 47.8036 28.232 47.324C28.996 46.65 29.776 45.994 30.532 45.309C30.731 45.0985 30.9048 44.8656 31.05 44.615C31.1261 44.49 31.1929 44.3597 31.25 44.225C31.356 44.006 31.475 43.771 31.756 43.8C31.902 43.81 32.0421 43.8619 32.1594 43.9495C32.2766 44.0371 32.3661 44.1567 32.417 44.294C32.5379 44.6357 32.7195 44.9528 32.953 45.23C33.399 45.6845 33.8831 46.1001 34.4 46.472C35.2652 47.0596 35.9337 47.8937 36.319 48.866C36.919 50.466 37.454 52.092 38.019 53.706C38.109 53.964 38.202 54.22 38.29 54.479C38.49 54.9896 38.5417 55.5463 38.439 56.085C38.324 56.598 38.292 57.131 38.163 57.64C38.0819 57.9981 37.9014 58.3261 37.6425 58.5864C37.3836 58.8467 37.0566 59.0289 36.699 59.112C36.42 59.19 36.151 59.307 35.871 59.385C35.622 59.451 35.37 59.488 35.155 59.533V59.533ZM35.069 58.295C35.3158 58.3079 35.5632 58.3079 35.81 58.295C36.1404 58.2879 36.4581 58.1665 36.7092 57.9516C36.9602 57.7366 37.1291 57.4414 37.187 57.116C37.226 56.611 37.345 56.116 37.379 55.606C37.3893 55.3345 37.35 55.0634 37.263 54.806C36.798 53.33 36.313 51.861 35.839 50.388C35.5694 49.5754 35.1935 48.802 34.721 48.088C34.5249 47.7821 34.2712 47.5172 33.974 47.308C33.2427 46.823 32.6071 46.2074 32.099 45.492C32.008 45.361 31.921 45.321 31.793 45.427C31.276 45.855 30.738 46.26 30.25 46.719C29.762 47.178 29.297 47.719 28.827 48.219C28.6118 48.4145 28.4196 48.6339 28.254 48.873C27.7209 49.7441 27.3012 50.6796 27.005 51.657C26.4983 53.535 26.0024 55.416 25.517 57.3C25.4697 57.5138 25.4623 57.7345 25.495 57.951C25.5041 58.1263 25.5702 58.2938 25.6832 58.428C25.7962 58.5623 25.9499 58.656 26.121 58.695C26.5546 58.838 27.0132 58.8889 27.4676 58.8447C27.922 58.8004 28.3622 58.6619 28.76 58.438C29.2847 58.1133 29.8047 57.78 30.32 57.438C31.601 56.6 31.864 56.682 32.791 57.553C33.0085 57.7412 33.2487 57.9015 33.506 58.03C33.9887 58.2727 34.5337 58.3634 35.069 58.29V58.295Z" fill="white"></path>
<path d="M9.57096 61.813C8.8376 61.8238 8.11969 61.6021 7.52005 61.1798C6.92041 60.7575 6.46987 60.1561 6.23301 59.462C6.04801 58.929 5.87597 58.39 5.65897 57.871C5.44197 57.352 5.17498 56.854 4.93198 56.346C4.63326 55.7376 4.14852 55.2402 3.54801 54.926C2.94757 54.56 2.51428 53.9735 2.34098 53.292C2.28089 53.0324 2.29043 52.7615 2.36856 52.5067C2.4467 52.2519 2.59067 52.0223 2.78598 51.841C3.06702 51.5539 3.27876 51.2064 3.405 50.825C3.85324 49.5392 4.16167 48.2089 4.32499 46.857C4.35099 46.367 4.343 45.874 4.348 45.383C4.348 45.197 4.33996 45.002 4.57596 44.948C4.6246 44.9332 4.67586 44.9289 4.72629 44.9353C4.77673 44.9416 4.82526 44.9586 4.86869 44.985C4.91211 45.0115 4.94941 45.0468 4.97824 45.0886C5.00708 45.1305 5.02677 45.178 5.03598 45.228C5.12644 45.539 5.2009 45.8544 5.25901 46.173C5.30101 46.404 5.29196 46.645 5.32596 46.878C5.36895 47.5331 5.29377 48.1905 5.10398 48.819C4.87509 49.8512 4.51133 50.8488 4.02201 51.786C3.87109 52.0562 3.69603 52.3123 3.499 52.551C3.37327 52.6872 3.30344 52.8657 3.30344 53.051C3.30344 53.2363 3.37327 53.4148 3.499 53.551C3.64888 53.8234 3.88333 54.0396 4.16697 54.167C4.73665 54.3777 5.21276 54.7843 5.50998 55.314C6.17068 56.362 6.69809 57.4884 7.07999 58.667C7.18818 58.9948 7.32433 59.3126 7.48697 59.617C7.66315 59.9265 7.91274 60.188 8.21372 60.3784C8.51469 60.5689 8.85783 60.6824 9.21299 60.709C9.78842 60.7909 10.3753 60.7177 10.913 60.497C11.286 60.351 11.678 60.248 12.039 60.078C12.4598 59.9032 12.9149 59.8267 13.3697 59.8541C13.8246 59.8814 14.2672 60.0121 14.664 60.236C14.88 60.336 15.088 60.449 15.309 60.529C15.709 60.672 15.885 60.581 16 60.174C16.089 59.86 16.123 59.529 16.223 59.219C16.4206 58.5128 16.8166 57.878 17.364 57.39C18.3297 56.5588 19.185 55.6074 19.909 54.559C20.0632 54.3562 20.2461 54.177 20.452 54.027C20.4895 53.9861 20.5351 53.9534 20.5858 53.931C20.6366 53.9087 20.6915 53.8971 20.747 53.8971C20.8025 53.8971 20.8573 53.9087 20.9081 53.931C20.9589 53.9534 21.0045 53.9861 21.042 54.027C21.1177 54.1083 21.1626 54.2136 21.1686 54.3245C21.1746 54.4355 21.1415 54.545 21.075 54.634C20.881 54.896 20.641 55.126 20.451 55.391C19.8355 56.2477 19.1484 57.0506 18.397 57.791C18.0961 58.155 17.8283 58.5452 17.597 58.957C17.2759 59.3543 17.0633 59.828 16.98 60.332C16.977 60.3501 16.9723 60.3678 16.966 60.385C16.9291 60.6382 16.8275 60.8775 16.671 61.0799C16.5145 61.2823 16.3084 61.4408 16.0727 61.5402C15.8369 61.6395 15.5795 61.6764 15.3254 61.6471C15.0712 61.6178 14.8289 61.5234 14.622 61.373C13.9511 61.0469 13.1929 60.9459 12.46 61.085C11.9575 61.1669 11.466 61.3058 10.995 61.499C10.5429 61.6879 10.0606 61.7943 9.57096 61.813V61.813Z" fill="white"></path>
<path d="M3.677 40.411C3.77247 38.8707 4.17426 37.365 4.85895 35.982C5.32417 35.0553 5.64457 34.0628 5.80896 33.039C5.88696 32.465 6.06099 31.904 6.15399 31.331C6.36263 30.2044 6.39228 29.0519 6.24194 27.916C6.1616 27.3581 6.11854 26.7956 6.11298 26.232C6.11083 25.7246 6.03883 25.2198 5.89899 24.732C5.62899 23.832 5.375 22.918 5.099 22.016C4.939 21.499 5.08095 21.295 5.62695 21.327C5.69711 21.3378 5.76608 21.3552 5.83295 21.379C5.77715 21.4153 5.72525 21.4572 5.67798 21.504C5.49698 21.726 5.70299 21.878 5.79999 22.027C6.24623 22.7376 6.54863 23.5289 6.69 24.356C6.771 24.784 6.81 25.22 6.909 25.644C7.24755 27.4507 7.35236 29.2935 7.22095 31.127C7.19239 31.4893 7.11536 31.8462 6.99194 32.188C6.64194 33.334 6.28298 34.479 5.90698 35.617C5.65598 36.376 5.34999 37.117 5.10699 37.877C4.73407 38.8861 4.56415 39.959 4.60699 41.034C4.63699 41.413 4.70699 41.788 4.76099 42.165C4.77699 42.273 4.814 42.378 4.823 42.486C4.854 42.836 4.76898 42.969 4.50098 43.008C4.12798 43.063 3.886 42.933 3.854 42.601C3.77 41.801 3.722 41.01 3.677 40.411Z" fill="white"></path>
<path d="M59.5079 22.036C59.4422 22.988 59.2845 23.9314 59.037 24.853C58.673 26.298 58.294 27.742 58.011 29.203C57.803 30.425 57.7582 31.6692 57.8779 32.903C57.9373 33.3356 58.0436 33.7604 58.195 34.17C58.4478 35.1582 58.8171 36.1129 59.295 37.014C59.8637 38.0422 60.082 39.2277 59.917 40.391C59.8508 40.7851 59.7321 41.1685 59.564 41.531C59.5489 41.5842 59.5228 41.6336 59.4872 41.6759C59.4516 41.7181 59.4074 41.7524 59.3575 41.7763C59.3077 41.8002 59.2534 41.8133 59.1981 41.8146C59.1429 41.8159 59.0879 41.8055 59.037 41.784C58.9324 41.747 58.8445 41.6736 58.7894 41.5772C58.7344 41.4809 58.7157 41.3679 58.7369 41.259C58.7929 40.937 58.8699 40.618 58.9509 40.302C59.0992 39.6771 59.041 39.021 58.785 38.432C58.308 37.232 57.778 36.052 57.322 34.844C57.0091 34.0085 56.8437 33.1251 56.833 32.233C56.8317 30.3207 57.1151 28.4188 57.674 26.59C57.908 25.769 58.223 24.972 58.468 24.154C58.7067 23.3509 58.8191 22.5156 58.801 21.678C58.801 21.57 58.77 21.421 58.828 21.361C58.9405 21.254 59.078 21.177 59.228 21.137C59.265 21.126 59.388 21.271 59.408 21.358C59.463 21.607 59.4839 21.862 59.5079 22.036V22.036Z" fill="white"></path>
<path d="M22.047 18.365C21.955 19.604 21.8641 20.78 21.7821 21.957C21.7581 22.302 21.766 22.649 21.745 22.994C21.7388 23.1936 21.7103 23.3918 21.66 23.585C21.545 23.976 21.266 24.043 20.971 23.752C20.8347 23.6058 20.7106 23.4486 20.6001 23.282C19.8861 22.2947 19.173 21.3063 18.461 20.317C18.415 20.2663 18.3633 20.221 18.307 20.182C18.2829 20.2469 18.2645 20.3139 18.252 20.382C18.139 21.374 18.031 22.367 17.918 23.36C17.9186 23.4509 17.894 23.5402 17.847 23.618C17.7582 23.7442 17.6355 23.8427 17.4931 23.902C17.2871 23.951 17.16 23.786 17.107 23.602C17.0719 23.4803 17.057 23.3536 17.063 23.227C17.125 22.249 17.197 21.271 17.263 20.293C17.298 19.768 17.335 19.242 17.357 18.716C17.367 18.478 17.421 18.285 17.667 18.197C17.7812 18.163 17.9035 18.1686 18.0141 18.2129C18.1246 18.2572 18.2169 18.3376 18.276 18.441C18.496 18.752 18.699 19.076 18.913 19.392C19.535 20.3107 20.1581 21.2287 20.7821 22.146C20.8263 22.2026 20.8744 22.256 20.926 22.306C20.9734 22.2355 21.0142 22.1609 21.048 22.083C21.0657 22.0124 21.0733 21.9397 21.071 21.867C21.113 21.032 21.1511 20.197 21.1991 19.367C21.2181 19.041 21.257 18.716 21.299 18.392C21.333 18.109 21.484 17.982 21.724 18.012C21.8111 18.0227 21.8915 18.0641 21.9507 18.1288C22.0099 18.1936 22.0441 18.2773 22.047 18.365V18.365Z" fill="white"></path>
<path d="M34.245 34.749C34.1473 34.6805 34.0553 34.6043 33.97 34.521C33.3767 33.8855 32.7222 33.31 32.016 32.803C31.9872 32.7735 31.9517 32.7517 31.9124 32.7393C31.8731 32.727 31.8314 32.7246 31.791 32.7323C31.7506 32.7401 31.7127 32.7577 31.6808 32.7836C31.6488 32.8096 31.6238 32.843 31.608 32.881C31.383 33.212 31.165 33.547 30.938 33.881C30.711 34.215 30.488 34.543 30.238 34.857C30.1002 35.0256 29.9424 35.1767 29.768 35.307C29.7093 35.3662 29.631 35.402 29.5478 35.4077C29.4646 35.4135 29.3822 35.3887 29.316 35.338C29.2438 35.2676 29.1984 35.1742 29.1879 35.074C29.1773 34.9737 29.2021 34.8729 29.258 34.789C29.3099 34.7145 29.3692 34.6455 29.435 34.583C29.9837 33.9305 30.4693 33.2273 30.885 32.483C31.099 32.134 31.098 32.112 30.8 31.842C30.1091 31.1454 29.3564 30.5131 28.5509 29.953C28.4877 29.9169 28.4324 29.8687 28.388 29.811C28.275 29.648 28.118 29.464 28.267 29.271C28.416 29.078 28.583 29.25 28.749 29.314C29.4993 29.5973 30.1886 30.0212 30.78 30.563C30.94 30.71 31.08 30.876 31.25 31.016C31.571 31.286 31.595 31.277 31.845 30.965C32.196 30.525 32.545 30.084 32.907 29.653C33.0085 29.5283 33.1349 29.4262 33.278 29.353C33.3259 29.3249 33.3811 29.3118 33.4365 29.3154C33.4919 29.3189 33.545 29.339 33.5889 29.373C33.6327 29.407 33.6655 29.4534 33.6828 29.5061C33.7001 29.5589 33.7012 29.6156 33.686 29.669C33.6407 29.8434 33.5624 30.0074 33.455 30.152C33.131 30.635 32.787 31.104 32.462 31.586C32.262 31.886 32.281 31.886 32.547 32.112C33.108 32.597 33.672 33.08 34.204 33.593C34.3893 33.7916 34.5343 34.0242 34.631 34.278C34.725 34.481 34.533 34.733 34.245 34.749V34.749Z" fill="white"></path>
<path d="M31.608 13.141C31.0964 13.1305 30.6035 12.9467 30.2099 12.6197C29.8163 12.2928 29.5452 11.842 29.441 11.341C29.3498 10.636 29.5011 9.92091 29.87 9.31323C30.2389 8.70555 30.8035 8.24139 31.471 7.997C31.5961 7.97287 31.7179 7.93428 31.834 7.882C32.0304 7.76781 32.2523 7.70469 32.4794 7.6984C32.7065 7.69211 32.9316 7.74285 33.134 7.846C33.598 8.01693 33.9874 8.34537 34.234 8.774C34.4385 9.12927 34.5557 9.528 34.576 9.93741C34.5963 10.3468 34.5193 10.7552 34.351 11.129C34.1368 11.6933 33.7638 12.1836 33.2771 12.5406C32.7903 12.8977 32.2106 13.1062 31.608 13.141V13.141ZM33.72 10.088C33.7227 9.81922 33.6552 9.55438 33.5243 9.31966C33.3933 9.08493 33.2034 8.88845 32.9732 8.74959C32.7431 8.61073 32.4807 8.53432 32.212 8.5279C31.9433 8.52149 31.6775 8.58528 31.441 8.71299C31.0458 8.9103 30.7158 9.21722 30.4904 9.59706C30.265 9.97691 30.1538 10.4136 30.17 10.855C30.1537 11.0713 30.1891 11.2884 30.2732 11.4884C30.3573 11.6884 30.4878 11.8655 30.6539 12.005C30.82 12.1446 31.0168 12.2427 31.2283 12.2912C31.4397 12.3397 31.6597 12.3373 31.87 12.284C32.3867 12.1909 32.8545 11.9199 33.1923 11.5181C33.5302 11.1163 33.7169 10.609 33.72 10.084V10.088Z" fill="white"></path>
<path d="M43.522 22.533C43.477 22.009 43.422 21.486 43.389 20.961C43.3781 20.8443 43.3426 20.7312 43.2846 20.6293C43.2267 20.5274 43.1477 20.439 43.053 20.37C42.538 19.911 42.026 19.448 41.542 18.958C41.4091 18.7919 41.3216 18.5941 41.288 18.384C41.2577 18.2955 41.2614 18.1989 41.2984 18.1129C41.3353 18.027 41.4029 17.9579 41.488 17.919C41.5728 17.8827 41.6675 17.8764 41.7564 17.9012C41.8452 17.9259 41.9231 17.9802 41.977 18.055C42.124 18.215 42.257 18.389 42.405 18.549C42.725 18.896 43.04 19.249 43.377 19.578C43.602 19.799 43.652 19.769 43.832 19.515C44.232 18.952 44.632 18.396 45.045 17.841C45.1238 17.741 45.2097 17.6468 45.302 17.559C45.448 17.411 45.602 17.276 45.822 17.43C46.042 17.584 45.992 17.77 45.882 17.957C45.651 18.348 45.423 18.74 45.182 19.121C44.9154 19.5337 44.639 19.9393 44.353 20.338C44.2206 20.5311 44.1699 20.7687 44.212 20.999C44.3133 21.826 44.3347 22.6609 44.276 23.492C44.241 23.847 44.06 24.044 43.843 24.01C43.626 23.976 43.501 23.747 43.507 23.403C43.512 23.114 43.507 22.825 43.507 22.536L43.522 22.533Z" fill="white"></path>
<path d="M5.26699 29.037C5.23899 29.237 5.212 29.417 5.191 29.596C5.138 30.064 5.07699 30.531 5.03799 30.996C4.9191 31.8595 4.68361 32.7028 4.33797 33.503C4.30217 33.5608 4.25253 33.6087 4.1935 33.6424C4.13448 33.6761 4.06798 33.6945 4.00002 33.696C3.93534 33.6776 3.87628 33.6433 3.82839 33.5961C3.7805 33.5489 3.74527 33.4904 3.72597 33.426C3.69364 33.2125 3.7132 32.9944 3.78298 32.79C4.12377 31.8509 4.31018 30.8627 4.33498 29.864C4.36598 29.181 4.25403 28.491 4.21603 27.804C4.20075 27.6086 4.2125 27.4121 4.251 27.22C4.275 27.12 4.39899 26.956 4.46999 26.96C4.53866 26.9659 4.60519 26.9869 4.66482 27.0215C4.72445 27.0561 4.77575 27.1034 4.81502 27.16C4.94577 27.4194 5.04444 27.6938 5.10897 27.977C5.18697 28.332 5.21699 28.695 5.26699 29.037V29.037Z" fill="white"></path>
<path d="M60.159 31.353C60.1709 32.3158 60.293 33.274 60.523 34.209C60.567 34.441 60.6299 34.669 60.6709 34.901C60.7279 35.234 60.614 35.442 60.357 35.501C60.2217 35.5203 60.0839 35.4906 59.9686 35.4173C59.8532 35.3439 59.7679 35.2317 59.728 35.101C59.673 34.873 59.663 34.635 59.628 34.401C59.3531 33.2154 59.2305 31.9996 59.263 30.783C59.3338 30.281 59.4404 29.7848 59.582 29.298C59.6039 29.254 59.6352 29.2153 59.6738 29.1847C59.7123 29.1541 59.7571 29.1324 59.805 29.121C59.845 29.111 59.939 29.221 59.972 29.298C60.0158 29.398 60.0416 29.505 60.048 29.614C60.089 30.194 60.123 30.774 60.159 31.353Z" fill="white"></path>
<path d="M37.9441 39.679C37.9534 38.9029 38.1436 38.1396 38.4997 37.4499C38.8557 36.7602 39.3677 36.1631 39.995 35.706C40.1302 35.585 40.2714 35.4708 40.4181 35.364C40.5287 35.3283 40.6451 35.3144 40.761 35.323C40.7542 35.4237 40.7302 35.5224 40.69 35.615C40.579 35.78 40.435 35.923 40.312 36.08C39.942 36.552 39.544 37.007 39.22 37.508C39.0367 37.8188 38.9092 38.1593 38.843 38.514C38.729 39.007 38.6574 39.5088 38.6291 40.014C38.6271 40.3767 38.6746 40.7381 38.77 41.088C38.87 41.494 39.024 41.888 39.135 42.288C39.1784 42.4746 39.2591 42.6505 39.3722 42.8052C39.4852 42.9598 39.6284 43.0901 39.7931 43.188C40.4067 43.5583 40.8647 44.139 41.082 44.822C41.22 45.196 41.417 45.547 41.587 45.908C41.595 45.924 41.605 45.939 41.613 45.956C41.689 46.109 41.757 46.272 41.589 46.397C41.421 46.522 41.27 46.41 41.174 46.273C41.007 46.036 40.858 45.786 40.711 45.536C40.6627 45.4395 40.6226 45.3392 40.591 45.236C40.3959 44.5684 39.9708 43.9913 39.391 43.607C38.9971 43.3333 38.7 42.9419 38.542 42.489C38.1334 41.6093 37.9284 40.6489 37.942 39.679H37.9441Z" fill="white"></path>
<path d="M54.205 40.472C54.288 41.43 54.367 42.387 54.455 43.345C54.5251 43.8516 54.4747 44.3675 54.308 44.851C53.9413 45.956 53.4611 47.02 52.875 48.026C52.559 48.512 52.201 48.971 51.875 49.453C51.675 49.753 51.499 50.075 51.313 50.387C51.276 50.449 51.251 50.535 51.196 50.567C51.096 50.624 50.951 50.707 50.876 50.667C50.829 50.6309 50.7911 50.5842 50.7656 50.5306C50.74 50.4771 50.7275 50.4183 50.729 50.359C50.7429 50.196 50.7946 50.0385 50.88 49.899C51.1764 49.3779 51.5023 48.874 51.856 48.39C52.3935 47.6791 52.845 46.9071 53.201 46.09C53.359 45.743 53.476 45.377 53.637 45.032C53.8556 44.5501 53.9482 44.0205 53.906 43.493C53.854 42.57 53.795 41.646 53.784 40.722C53.7967 40.2505 53.8438 39.7806 53.925 39.316C53.937 39.229 54.043 39.155 54.105 39.075C54.158 39.156 54.253 39.235 54.257 39.318C54.273 39.7 54.264 40.082 54.264 40.464L54.205 40.472Z" fill="white"></path>
<path d="M8.84302 42.952C8.96002 42.243 9.06701 41.432 9.23401 40.633C9.35601 40.049 9.551 39.478 9.729 38.906C9.779 38.746 9.82001 38.476 10.044 38.537C10.317 38.612 10.124 38.852 10.082 38.995C9.75389 40.2445 9.54689 41.5228 9.46399 42.812C9.40862 43.6702 9.56561 44.5289 9.92102 45.312C10.155 45.864 10.373 46.424 10.621 46.968C10.8128 47.5399 11.1534 48.0505 11.608 48.447C11.7167 48.5439 11.8128 48.6541 11.894 48.775C12.057 49.0422 12.3167 49.2363 12.619 49.317C12.789 49.344 12.763 49.452 12.691 49.552C12.632 49.6455 12.543 49.7163 12.4385 49.7526C12.3341 49.789 12.2204 49.7888 12.116 49.752C12.0093 49.7255 11.9112 49.6722 11.831 49.597C10.9556 48.8504 10.2918 47.8869 9.90601 46.803C9.79139 46.4185 9.63093 46.0491 9.42804 45.703C9.17954 45.1556 9.02243 44.5712 8.96301 43.973C8.91701 43.666 8.89102 43.358 8.84302 42.952V42.952Z" fill="white"></path>
<path d="M25.2 40.229C25.1506 40.9142 24.993 41.5872 24.733 42.223C24.3068 43.148 24.0071 44.1261 23.842 45.131C23.7158 45.6228 23.5427 46.1013 23.325 46.56C23.2877 46.6429 23.2287 46.7142 23.154 46.766C23.1253 46.7863 23.0924 46.7998 23.0577 46.8053C23.023 46.8109 22.9875 46.8084 22.954 46.798C22.9206 46.7724 22.8932 46.7398 22.8737 46.7025C22.8541 46.6652 22.843 46.6241 22.841 46.582C22.8672 46.4584 22.911 46.3392 22.9709 46.228C23.2376 45.7698 23.3807 45.2502 23.386 44.72C23.388 44.6106 23.4111 44.5027 23.454 44.402C23.733 43.557 23.973 42.695 24.309 41.873C24.5563 41.3048 24.6609 40.6847 24.6136 40.0669C24.5664 39.449 24.3688 38.852 24.038 38.328C23.9464 38.1921 23.8693 38.047 23.808 37.895C23.774 37.795 23.763 37.612 23.823 37.559C23.942 37.459 24.044 37.576 24.13 37.68C24.5311 38.1544 24.826 38.7092 24.995 39.307C25.089 39.629 25.146 39.973 25.2 40.229V40.229Z" fill="white"></path>
<path d="M26.493 56.264C26.5831 55.2997 26.7816 54.3487 27.085 53.429C27.208 52.992 27.323 52.551 27.485 52.129C27.685 51.604 27.912 51.092 28.134 50.577C28.206 50.41 28.3089 50.257 28.3749 50.088C28.5712 49.5982 28.8617 49.1518 29.23 48.774C29.815 48.153 30.361 47.495 30.937 46.866C31.037 46.758 31.295 46.623 31.319 46.649C31.501 46.849 31.267 46.949 31.176 47.091C30.6254 47.9045 30.0118 48.6735 29.3409 49.391C29.3278 49.4034 29.3163 49.4175 29.3069 49.433C28.7005 50.4024 28.2235 51.4469 27.8879 52.54C27.7489 53.2169 27.5693 53.8848 27.35 54.54C27.1134 55.3993 27.0666 56.2998 27.213 57.179C27.237 57.414 27.293 57.646 27.303 57.879C27.31 58.023 27.26 58.201 27.077 58.189C27.018 58.1787 26.9624 58.1541 26.9152 58.1173C26.8679 58.0805 26.8304 58.0327 26.806 57.978C26.682 57.405 26.593 56.834 26.493 56.264Z" fill="white"></path>
</mask>
<g id="anim" mask="url(#mask0)">
<path d="M62.2 49.192L63.824 34.475L61.724 22.468L56.776 12.744L50.811 7.064L42.768 3.02L35.548 1.043L27.22 2L18.456 4.84399L12.524 8.23801L8.642 11.399L4.62 16.335L2.04999 21.89L0.38501 29.346L0.925995 37.007L1.60901 43.787L2.04999 47.407" stroke="#707070" stroke-width="2" style="stroke-dasharray: 130.33688354492188px; stroke-dashoffset: 130.33688354492188px;"></path>
<path d="M5.63699 21.18L6.40601 25.534L7.18701 30.324L5.63699 34.924L4.367 39.53V43.353" stroke="#707070" stroke-width="2" style="stroke-dasharray: 22.729650497436523px; stroke-dashoffset: 22.729650497436523px;"></path>
<path d="M59.28 20.73L58.134 26.85L57.228 31.336L58.134 35.629L59.593 39.155L59.109 42.043" stroke="#707070" stroke-width="2" style="stroke-dasharray: 21.934715270996094px; stroke-dashoffset: 21.934715270996094px;"></path>
<path d="M31.231 12.678L33.531 12.063L34.26 9.711L33.531 8.011L31.231 8.36501L29.755 10.051V11.8L30.623 12.674L32.818 13.021" stroke="#707070" stroke-width="2" style="stroke-dasharray: 16.463821411132812px; stroke-dashoffset: 16.463821411132812px;"></path>
<path d="M17.28 23.887L17.98 18.337L21.669 24.202V17.962" stroke="#707070" stroke-width="2" style="stroke-dasharray: 18.762672424316406px; stroke-dashoffset: 18.762672424316406px;"></path>
<path d="M40.959 17.731L44.686 21.272" stroke="#707070" stroke-width="2" style="stroke-dasharray: 5.140934467315674px; stroke-dashoffset: 5.140934467315674px;"></path>
<path d="M45.757 17.333L43.622 21.02L44.122 24.279" stroke="#707070" stroke-width="2" style="stroke-dasharray: 7.557669639587402px; stroke-dashoffset: 7.557669639587402px;"></path>
<path d="M33.784 28.9L29.262 35.558" stroke="#707070" stroke-width="2" style="stroke-dasharray: 8.048443794250488px; stroke-dashoffset: 8.048443794250488px;"></path>
<path d="M28.152 29.346L34.797 34.54" stroke="#707070" stroke-width="2" style="stroke-dasharray: 8.434078216552734px; stroke-dashoffset: 8.434078216552734px;"></path>
<path d="M4.367 26.849L4.81799 31.02L3.81799 34.281" stroke="#707070" stroke-width="2" style="stroke-dasharray: 7.6061906814575195px; stroke-dashoffset: 7.6061906814575195px;"></path>
<path d="M59.593 28.9L59.902 33.385L60.577 36.2" stroke="#707070" stroke-width="2" style="stroke-dasharray: 7.390429973602295px; stroke-dashoffset: 7.390429973602295px;"></path>
<path d="M4.81799 44.64V48.333L3.73999 50.7L2.57501 53.024L4.16 55.224L6.125 57.287L6.96301 60.004L9.05099 61.262L12.106 60.662H14.6L16.168 61.262L16.991 58.587L18.806 56.673L21.239 53.891" stroke="#707070" stroke-width="2" style="stroke-dasharray: 36.153629302978516px; stroke-dashoffset: 36.153629302978516px;"></path>
<path d="M41.83 53.713L44.152 55.776L46.363 58.682L48.046 61.356H50.246L51.597 60.348L54.745 61.356H57.22L58.52 58.682L60.909 57.069L62.083 55.089L60.909 52.489L60.009 50.661V42.95" stroke="#707070" stroke-width="2" style="stroke-dasharray: 40.34215545654297px; stroke-dashoffset: 40.34215545654297px;"></path>
<path d="M16.308 63L16.608 67.22H18.408L20.437 68.955H22.254L24.046 68.564L27.4 69.979L29.915 68.955L33.498 69.502H40.83L44.33 67.939L45.574 67.276L46.59 67.676L48.869 59.723" stroke="#707070" stroke-width="2" style="stroke-dasharray: 44.27150344848633px; stroke-dashoffset: 44.27150344848633px;"></path>
<path d="M16.19 33.94H19.365L21.894 34.267L23.824 36.167L26.517 37.79L26.923 40.455L25.473 45.202L24.173 47.507L21.646 49.118L19.774 50.518L15.05 51.118L11.609 50.818L9.52899 49.666L7.91599 46.666L7.07001 42.948L7.91599 39.476L9.96399 36.538L13.057 34.705L15.05 33.929L18.825 33.135" stroke="#707070" stroke-width="3" style="stroke-dasharray: 61.77717590332031px; stroke-dashoffset: 61.77717590332031px;"></path>
<path d="M44.689 33.567L49.039 34.147L52.369 35.733L54.816 38.21L56.294 41.51V45.93L53.978 50.639L50.351 51.787H46.912L44.177 49.646L40.651 47.406L37.781 44.56L36.636 41.071L36.366 37.791L39.124 35.113L42.458 34.148L44.175 33.293H47.2" stroke="#707070" stroke-width="3" style="stroke-dasharray: 62.999610900878906px; stroke-dashoffset: 62.999610900878906px;"></path>
<path d="M31.819 44.394L33.114 46.227L35.014 47.793L36.185 49.701L36.993 52.085L37.742 54.059V56.618L37.29 58.288L35.015 58.937L33.774 58.585L31.223 57.121L28.848 58.937L25.994 59.417L24.894 58.585V56.619L25.994 52.086L27.413 49.286L29.113 46.968L30.932 45.295L32.56 43.744" stroke="#707070" stroke-width="3" style="stroke-dasharray: 47.08686065673828px; stroke-dashoffset: 47.08686065673828px;"></path>
<path d="M31.491 46.686L29.785 48.604L28.215 51.028L27.254 54.599L27.101 58.452" stroke="#707070" stroke-width="3" style="stroke-dasharray: 13.009042739868164px; stroke-dashoffset: 13.009042739868164px;"></path>
<path d="M23.786 37.257L24.85 39.257V40.673L24.323 42.987L23.435 45.187L22.835 46.905" stroke="#707070" stroke-width="3" style="stroke-dasharray: 10.246879577636719px; stroke-dashoffset: 10.246879577636719px;"></path>
<path d="M10.087 38.2L9.38101 40.849L8.89999 43.332L9.77802 46.053L10.994 47.971L12.159 49.348L12.918 49.948" stroke="#707070" stroke-width="2" style="stroke-dasharray: 13.171979904174805px; stroke-dashoffset: 13.171979904174805px;"></path>
<path d="M40.959 35.557L38.935 37.247L38.177 39.527L38.421 41.783L39.798 43.658L40.739 44.929L41.599 46.624" stroke="#707070" stroke-width="2" style="stroke-dasharray: 13.117087364196777px; stroke-dashoffset: 13.117087364196777px;"></path>
<path d="M54.012 38.948V41.475L54.234 43.868L53.36 46.743L50.672 50.713" stroke="#707070" stroke-width="2" style="stroke-dasharray: 12.729583740234375px; stroke-dashoffset: 12.729583740234375px;"></path>
<path d="M19.08 66.919L20.003 65.267" stroke="#707070" stroke-width="2" style="stroke-dasharray: 1.8923622369766235px; stroke-dashoffset: 1.8923622369766235px;"></path>
<path d="M22.836 64.85L22.101 68.937" stroke="#707070" stroke-width="2" style="stroke-dasharray: 4.152563095092773px; stroke-dashoffset: 4.152563095092773px;"></path>
<path d="M25.721 64.6L24.721 68.407" stroke="#707070" stroke-width="2" style="stroke-dasharray: 3.936145782470703px; stroke-dashoffset: 3.936145782470703px;"></path>
<path d="M28.539 64.6L27.973 68.991" stroke="#707070" stroke-width="2" style="stroke-dasharray: 4.4273271560668945px; stroke-dashoffset: 4.4273271560668945px;"></path>
<path d="M31.32 65.266V68.587" stroke="#707070" stroke-width="2" style="stroke-dasharray: 3.3209991455078125px; stroke-dashoffset: 3.3209991455078125px;"></path>
<path d="M34.378 64.85L35.472 68.775" stroke="#707070" stroke-width="3" style="stroke-dasharray: 4.074615001678467px; stroke-dashoffset: 4.074615001678467px;"></path>
<path d="M38.176 64L40.3 68.842" stroke="#707070" stroke-width="3" style="stroke-dasharray: 5.287378311157227px; stroke-dashoffset: 5.287378311157227px;"></path>
<path d="M40.788 64L42.26 68.55" stroke="#707070" stroke-width="3" style="stroke-dasharray: 4.782186985015869px; stroke-dashoffset: 4.782186985015869px;"></path>
</g>
</svg>