<?xml version="1.0" encoding="utf-8"?>
<!-- Generator: Adobe Illustrator 26.0.0, SVG Export Plug-In . SVG Version: 6.00 Build 0)  -->
<svg version="1.1" id="Layer_1" xmlns="http://www.w3.org/2000/svg" xmlns:xlink="http://www.w3.org/1999/xlink" x="0px" y="0px"
	 viewBox="0 0 783.9 872" style="enable-background:new 0 0 783.9 872;" xml:space="preserve">
<desc>Pixel Bakery is a multidisciplinary production studio centered around animation, commerical video film production, motion design, product photography, and graphic design.</desc>
<metadata><?xpacket begin="﻿" id="W5M0MpCehiHzreSzNTczkc9d"?>
<x:xmpmeta xmlns:x="adobe:ns:meta/" x:xmptk="Adobe XMP Core 7.1-c000 79.4d2f597, 2021/09/01-20:51:22        ">
   <rdf:RDF xmlns:rdf="http://www.w3.org/1999/02/22-rdf-syntax-ns#">
      <rdf:Description rdf:about=""
            xmlns:photoshop="http://ns.adobe.com/photoshop/1.0/"
            xmlns:xmpRights="http://ns.adobe.com/xap/1.0/rights/"
            xmlns:Iptc4xmpExt="http://iptc.org/std/Iptc4xmpExt/2008-02-29/"
            xmlns:exif="http://ns.adobe.com/exif/1.0/"
            xmlns:dc="http://purl.org/dc/elements/1.1/"
            xmlns:Iptc4xmpCore="http://iptc.org/std/Iptc4xmpCore/1.0/xmlns/"
            xmlns:plus="http://ns.useplus.org/ldf/xmp/1.0/"
            xmlns:xmp="http://ns.adobe.com/xap/1.0/"
            xmlns:xmpMM="http://ns.adobe.com/xap/1.0/mm/"
            xmlns:stEvt="http://ns.adobe.com/xap/1.0/sType/ResourceEvent#">
         <photoshop:DateCreated>2022-07-18T13:09:06</photoshop:DateCreated>
         <photoshop:City>Lincoln</photoshop:City>
         <photoshop:State>Nebraska</photoshop:State>
         <photoshop:Country>US</photoshop:Country>
         <photoshop:Source>https://pixelbakery.com</photoshop:Source>
         <xmpRights:Marked>True</xmpRights:Marked>
         <xmpRights:UsageTerms>
            <rdf:Alt>
               <rdf:li xml:lang="x-default">CC BY-NC-SA 3.0 United States</rdf:li>
            </rdf:Alt>
         </xmpRights:UsageTerms>
         <Iptc4xmpExt:DigitalSourceType>http://cv.iptc.org/newscodes/digitalsourcetype/digitalCapture</Iptc4xmpExt:DigitalSourceType>
         <Iptc4xmpExt:LocationCreated>
            <rdf:Bag>
               <rdf:li>
                  <rdf:Description>
                     <Iptc4xmpExt:City>Lincoln</Iptc4xmpExt:City>
                     <Iptc4xmpExt:ProvinceState>Nebraska</Iptc4xmpExt:ProvinceState>
                  </rdf:Description>
               </rdf:li>
            </rdf:Bag>
         </Iptc4xmpExt:LocationCreated>
         <Iptc4xmpExt:LocationShown>
            <rdf:Bag>
               <rdf:li>
                  <rdf:Description>
                     <Iptc4xmpExt:Sublocation>2124 Y Street, Suite 122</Iptc4xmpExt:Sublocation>
                     <Iptc4xmpExt:City>Lincoln</Iptc4xmpExt:City>
                     <Iptc4xmpExt:ProvinceState>NE</Iptc4xmpExt:ProvinceState>
                     <Iptc4xmpExt:CountryName>US</Iptc4xmpExt:CountryName>
                  </rdf:Description>
               </rdf:li>
            </rdf:Bag>
         </Iptc4xmpExt:LocationShown>
         <Iptc4xmpExt:OrganisationInImageName>
            <rdf:Bag>
               <rdf:li>Pixel Bakery</rdf:li>
            </rdf:Bag>
         </Iptc4xmpExt:OrganisationInImageName>
         <exif:DateTimeOriginal>2022-07-18T13:09:06.890-05:00</exif:DateTimeOriginal>
         <dc:creator>
            <rdf:Seq>
               <rdf:li>Pixel Bakery Design Studio</rdf:li>
            </rdf:Seq>
         </dc:creator>
         <dc:description>
            <rdf:Alt>
               <rdf:li xml:lang="x-default">Pixel Bakery is a multidisciplinary production studio centered around animation, commerical video film production, motion design, product photography, and graphic design.</rdf:li>
            </rdf:Alt>
         </dc:description>
         <dc:subject>
            <rdf:Bag>
               <rdf:li>Pixel Bakery</rdf:li>
               <rdf:li>animation</rdf:li>
               <rdf:li>video production</rdf:li>
               <rdf:li>motion design</rdf:li>
               <rdf:li>nebraska</rdf:li>
               <rdf:li>lincoln NE</rdf:li>
               <rdf:li>lincoln</rdf:li>
               <rdf:li>lincoln nebraska</rdf:li>
               <rdf:li>2d animation</rdf:li>
               <rdf:li>product photography</rdf:li>
            </rdf:Bag>
         </dc:subject>
         <dc:rights>
            <rdf:Alt>
               <rdf:li xml:lang="x-default">(cc) Pixel Bakery LLC, 2022</rdf:li>
            </rdf:Alt>
         </dc:rights>
         <Iptc4xmpCore:CreatorContactInfo>
            <rdf:Description>
               <Iptc4xmpCore:CiAdrExtadr>2124 Y St, Ste. 122</Iptc4xmpCore:CiAdrExtadr>
               <Iptc4xmpCore:CiAdrCity>Lincoln</Iptc4xmpCore:CiAdrCity>
               <Iptc4xmpCore:CiAdrRegion>NE</Iptc4xmpCore:CiAdrRegion>
               <Iptc4xmpCore:CiAdrPcode>68503</Iptc4xmpCore:CiAdrPcode>
               <Iptc4xmpCore:CiAdrCtry>US</Iptc4xmpCore:CiAdrCtry>
               <Iptc4xmpCore:CiEmailWork>hello@pixelbakery.com</Iptc4xmpCore:CiEmailWork>
               <Iptc4xmpCore:CiUrlWork>https://pixelbakery.com</Iptc4xmpCore:CiUrlWork>
            </rdf:Description>
         </Iptc4xmpCore:CreatorContactInfo>
         <plus:CopyrightOwner>
            <rdf:Seq>
               <rdf:li>
                  <rdf:Description>
                     <plus:CopyrightOwnerName>Pixel Bakery Design Studio</plus:CopyrightOwnerName>
                  </rdf:Description>
               </rdf:li>
            </rdf:Seq>
         </plus:CopyrightOwner>
         <plus:Licensor>
            <rdf:Seq>
               <rdf:li>
                  <rdf:Description>
                     <plus:LicensorName>Jordan Lambrecht</plus:LicensorName>
                     <plus:LicensorURL>https://pixelbakery.com</plus:LicensorURL>
                  </rdf:Description>
               </rdf:li>
            </rdf:Seq>
         </plus:Licensor>
         <xmp:MetadataDate>2022-09-14T16:27:32-05:00</xmp:MetadataDate>
         <xmpMM:InstanceID>xmp.iid:fcb98684-c015-4d90-ad72-9d4aea71f5d0</xmpMM:InstanceID>
         <xmpMM:DocumentID>xmp.did:fcb98684-c015-4d90-ad72-9d4aea71f5d0</xmpMM:DocumentID>
         <xmpMM:OriginalDocumentID>xmp.did:fcb98684-c015-4d90-ad72-9d4aea71f5d0</xmpMM:OriginalDocumentID>
         <xmpMM:History>
            <rdf:Seq>
               <rdf:li>
                  <rdf:Description>
                     <stEvt:action>saved</stEvt:action>
                     <stEvt:instanceID>xmp.iid:fcb98684-c015-4d90-ad72-9d4aea71f5d0</stEvt:instanceID>
                     <stEvt:when>2022-09-14T16:27:32-05:00</stEvt:when>
                     <stEvt:softwareAgent>Adobe Bridge 2022 (Macintosh)</stEvt:softwareAgent>
                     <stEvt:changed>/metadata</stEvt:changed>
                  </rdf:Description>
               </rdf:li>
            </rdf:Seq>
         </xmpMM:History>
      </rdf:Description>
   </rdf:RDF>
</x:xmpmeta>
                                                                                                    
                                                                                                    
                                                                                                    
                                                                                                    
                                                                                                    
                                                                                                    
                                                                                                    
                                                                                                    
                                                                                                    
                                                                                                    
                                                                                                    
                                                                                                    
                                                                                                    
                                                                                                    
                                                                                                    
                                                                                                    
                                                                                                    
                                                                                                    
                                                                                                    
                                                                                                    
                           
<?xpacket end="w"?></metadata>
<style type="text/css">
	.st0{fill:#66CCFF;}
	.st1{fill:#66CCFF;stroke:#045171;stroke-width:2;stroke-linecap:round;stroke-linejoin:round;}
	.st2{fill:#6EC3DD;stroke:#045171;stroke-width:2;stroke-linecap:round;stroke-linejoin:round;}
	.st3{fill:none;stroke:#045171;stroke-width:2;stroke-linecap:round;stroke-linejoin:round;}
	.st4{fill:none;stroke:#045171;stroke-linecap:round;stroke-linejoin:round;}
	.st5{fill:none;stroke:#045171;stroke-width:0.75;stroke-linecap:round;stroke-linejoin:round;}
	.st6{fill:#045171;}
	.st7{fill:#EEE7F1;}
</style>
<path id="Path_3034" class="st0" d="M82.2,516.3v73.9c0,6.7,4.3,12.6,10.6,14.8l80.9,27.5c0.6,0.2,1.2,0.5,1.8,0.7l53.2,25.8
	c2.6,1.3,5.5,1.8,8.3,1.5l35.9-3.5c1.2-0.1,2.4-0.1,3.6,0.1l100.2,13.3c2.4,0.3,4.8,1.2,6.8,2.6l76.1,52.4c1.5,1.1,2.9,2.4,4,3.9
	l22.2,31.8c0.9,1.3,2,2.5,3.3,3.5l73.5,56.4c0.9,0.7,1.8,1.5,2.5,2.4l33.6,40.3c4.1,5,10.9,6.9,17.1,4.8l65.5-22.4
	c2.3-0.8,4.3-2.1,6-3.7l55.3-55.4c4.1-4.1,5.6-10.1,3.9-15.6l-32.7-107.8c-1.3-4.3-0.7-8.9,1.6-12.7L778.9,547
	c3-5,3.1-11.2,0.1-16.2l-18.5-30.9c-1-1.7-2.4-3.2-4-4.4l-110.6-83.8c-6-4.5-7.9-12.7-4.6-19.4l29.3-58.9c2.3-4.6,2.2-10-0.3-14.4
	l-20.2-37.1c-1.9-3.5-5.1-6.1-8.9-7.4l-44.1-14.4l-66-25.4c-1.6-0.6-3.1-1.5-4.4-2.6l-89.4-74.6c-1.2-1-2.4-1.8-3.8-2.3l-81.9-35.3
	c-8-3.4-17.3,0.3-20.6,8.4v0c-5.6,13.5-25.1,12.6-29.4-1.4l-19.6-64.6c-0.8-2.6-2.2-4.9-4.2-6.8l-33.4-31.7c-2-1.9-4.5-3.2-7.1-3.9
	L167.3,3.2c-7.6-1.8-15.4,2.3-18.2,9.6l-33.9,89c-0.4,1-0.9,2-1.5,3L36.7,222.7c-0.9,1.4-1.6,2.9-2,4.5L19.3,285
	c-0.4,1.5-1,2.8-1.8,4.1L4.3,310.7c-2.7,4.4-3,9.9-0.9,14.6l17,37.4c1.6,3.6,4.5,6.4,8.1,7.9l42.3,17.9c5.7,2.4,9.4,7.9,9.5,14.1
	L82.2,516.3z"/>
<g id="Group_1343" transform="translate(0 1.077)">
	<g id="Group_770" transform="translate(38.261)">
		<path id="Path_2567" class="st1" d="M123.8,121.4l18.1-10.9c2.4-1.4,5.4-1.4,7.9,0l468.1,270.3c2.4,1.4,3.9,4,3.9,6.8l-1,354
			c0,2.8-1.5,5.4-4,6.8l-19,11.1"/>
		<path id="Path_2568" class="st2" d="M136.9,471.3c0,2.8,1.5,5.4,3.9,6.8"/>
	</g>
	<g id="Group_771" transform="translate(33.254 10.917)">
		<path id="Path_2569" class="st1" d="M127.7,478.1l468.1,270.3c3.8,2.2,8.6,0.9,10.8-2.9c0.7-1.2,1.1-2.5,1.1-3.9l1-352.7
			c0-3.6-1.9-6.9-5-8.7l-467-269.6c-3.8-2.2-8.6-0.9-10.8,2.9c-0.7,1.2-1.1,2.5-1.1,3.9l-1,354C123.8,474.1,125.3,476.7,127.7,478.1
			z"/>
	</g>
	<line id="Line_155" class="st3" x1="640.4" y1="394.3" x2="659.2" y2="385.3"/>
	<line id="Line_156" class="st3" x1="642.2" y1="407.1" x2="660.1" y2="398.8"/>
	<line id="Line_157" class="st3" x1="642.2" y1="420.5" x2="660.1" y2="412.2"/>
	<line id="Line_158" class="st3" x1="642.2" y1="433.9" x2="660.1" y2="425.6"/>
	<line id="Line_159" class="st3" x1="642.2" y1="447.4" x2="660.1" y2="439.1"/>
	<line id="Line_160" class="st3" x1="642.2" y1="460.8" x2="659.9" y2="452.6"/>
	<line id="Line_161" class="st3" x1="642.2" y1="474.2" x2="659.5" y2="466.2"/>
	<line id="Line_162" class="st3" x1="642.2" y1="487.7" x2="659.4" y2="479.7"/>
	<line id="Line_163" class="st3" x1="642.2" y1="501.1" x2="659.6" y2="493.1"/>
	<line id="Line_164" class="st3" x1="642.2" y1="514.6" x2="659.5" y2="506.5"/>
	<line id="Line_165" class="st3" x1="642.2" y1="528" x2="659.4" y2="520"/>
	<line id="Line_166" class="st3" x1="642.2" y1="541.4" x2="659.3" y2="533.5"/>
	<line id="Line_167" class="st3" x1="642.2" y1="554.9" x2="659.3" y2="546.9"/>
	<line id="Line_168" class="st3" x1="642.2" y1="568.3" x2="659.5" y2="560.3"/>
	<line id="Line_169" class="st3" x1="642.2" y1="581.7" x2="659.4" y2="573.7"/>
	<line id="Line_170" class="st3" x1="642.2" y1="595.2" x2="659.3" y2="587.3"/>
	<line id="Line_171" class="st3" x1="642.2" y1="608.6" x2="659" y2="600.8"/>
	<line id="Line_172" class="st3" x1="642.2" y1="622.1" x2="659.4" y2="614.1"/>
	<line id="Line_173" class="st3" x1="642.2" y1="635.5" x2="659.1" y2="627.6"/>
	<line id="Line_174" class="st3" x1="642.2" y1="648.9" x2="659.1" y2="641.1"/>
	<line id="Line_175" class="st3" x1="642.2" y1="662.4" x2="659.1" y2="654.5"/>
	<line id="Line_176" class="st3" x1="642.2" y1="675.8" x2="658.7" y2="668.1"/>
	<line id="Line_177" class="st3" x1="642.2" y1="689.2" x2="659.2" y2="681.4"/>
	<line id="Line_178" class="st3" x1="642.2" y1="702.7" x2="658.9" y2="694.9"/>
	<line id="Line_179" class="st3" x1="642.2" y1="716.1" x2="659" y2="708.3"/>
	<line id="Line_180" class="st3" x1="642.2" y1="729.6" x2="659.1" y2="721.7"/>
	<line id="Line_181" class="st3" x1="659" y1="735.2" x2="642.2" y2="743"/>
	<g id="Group_803" transform="translate(33.902 167.051)">
		<path id="Path_2570" class="st4" d="M157.5,381.8"/>
		<path id="Path_2571" class="st4" d="M194.2,360.7l73.8-42.5c0.5-0.3,0.7-0.9,0.4-1.4c-0.1-0.2-0.2-0.3-0.4-0.4L175,261.1
			c-3-1.8-6.7-1.8-9.7,0l-41.5,24.5"/>
		<path id="Path_2572" class="st4" d="M176,427"/>
		<path id="Path_2573" class="st4" d="M268.6,318l0.5,53.5c0,1.6-0.9,3.1-2.3,3.9L243,388.9"/>
		<path id="Path_2574" class="st4" d="M225.8,379.2l-0.1-25.4c0-1.1,0.6-2.1,1.5-2.6l33.1-19.1c1.4-0.8,3.3-0.3,4.1,1.1
			c0.3,0.5,0.4,1,0.4,1.5v32.8c0,1.1-0.6,2.1-1.5,2.6l-26.5,15.3"/>
		<path id="Path_2575" class="st4" d="M232.9,368.1l22.7-13.1c0.8-0.4,1.8-0.2,2.2,0.6c0.1,0.2,0.2,0.5,0.2,0.8v9.6
			c0,0.6-0.3,1.1-0.8,1.4l-22.7,13.1c-0.8,0.4-1.8,0.2-2.2-0.6c-0.1-0.2-0.2-0.5-0.2-0.8l-0.1-9.5
			C232.1,368.9,232.4,368.4,232.9,368.1z"/>
		<path id="Path_2576" class="st4" d="M215.4,285l102-58.7l9.5,6.3"/>
		<line id="Line_182" class="st4" x1="225.8" y1="291.3" x2="332.3" y2="229.8"/>
		<path id="Path_2577" class="st4" d="M270.2,342.6"/>
		<path id="Path_2578" class="st4" d="M264.8,347"/>
		<path id="Path_2579" class="st4" d="M268.9,344.6L395,271.8l9.6,6.2L269,356.2"/>
		<path id="Path_2580" class="st4" d="M310.3,217.3l87.6,50.3v-17l-87.6-50V217.3z"/>
		<line id="Line_183" class="st4" x1="317.4" y1="226.3" x2="317.4" y2="221.5"/>
		<line id="Line_184" class="st4" x1="395" y1="271.8" x2="395" y2="266"/>
		<path id="Path_2581" class="st4" d="M397.9,267.6l6.3-3l0.4,13.4"/>
		<line id="Line_185" class="st4" x1="326.9" y1="232.6" x2="326.9" y2="227.1"/>
		<path id="Path_2582" class="st4" d="M310.3,200.6l12.5-7.2c0,0,0,0,0,0l88.4,50.7c0,0,0,0,0,0c0,0,0,0,0,0l-13.3,6.5"/>
		<path id="Path_2583" class="st4" d="M411.9,244.1V226l-88.5-49.9l-0.2,17.2"/>
		<path id="Path_2584" class="st4" d="M323.4,176.1l46.3-26.3c1.9-1.1,4.2-1.1,6.1,0l84.7,49.7L411.9,226"/>
		<path id="Path_2585" class="st4" d="M380.3,254l14.3,8.2v-9.6l-14.3-8.2C380.3,244.4,379.9,254,380.3,254z"/>
		<line id="Line_186" class="st4" x1="392.5" y1="253.9" x2="382.4" y2="248.1"/>
		<line id="Line_187" class="st4" x1="392.5" y1="256.2" x2="382.4" y2="250.5"/>
		<line id="Line_188" class="st4" x1="392.5" y1="258.5" x2="382.4" y2="252.8"/>
		<path id="Path_2586" class="st4" d="M323.5,220.7l-9.6-5.4v-9.6l9.6,5.4V220.7z"/>
		<path id="Path_2587" class="st4" d="M456.7,252l-41.9,22.9l-0.2-46.6l41.9-22.9L456.7,252z"/>
		<path id="Path_2588" class="st4" d="M422.5,268.3l-5.8-3.3v-35.1l5.8,3.3C422.5,233.2,422.6,268.4,422.5,268.3z"/>
		<path id="Path_2589" class="st4" d="M416.7,229.8"/>
		<path id="Path_2590" class="st4" d="M416.9,229.7l24.1-13.1l4.5,3.4l-23.1,13.2"/>
		<path id="Path_2591" class="st4" d="M422.5,268.3l23.1-12.8v-35.5"/>
		<path id="Path_2592" class="st4" d="M425.5,236.5"/>
		<line id="Line_189" class="st4" x1="433.9" y1="231.7" x2="425.8" y2="236.3"/>
		<line id="Line_190" class="st4" x1="433.9" y1="235.6" x2="425.8" y2="240.3"/>
		<line id="Line_191" class="st4" x1="433.9" y1="239.5" x2="425.8" y2="244.2"/>
		<path id="Path_2593" class="st4" d="M425.8,263.2l8.1-4.7v-15.1l-8.1,4.7V263.2z"/>
		<path id="Path_2594" class="st4" d="M437.1,247.9l6.8-3.9v-19.7l-6.8,3.9V247.9z"/>
		<path id="Path_2595" class="st4" d="M437.1,256.7l6.8-3.9v-6.6l-6.8,3.9V256.7z"/>
		<circle id="Ellipse_13" class="st4" cx="451.7" cy="213.8" r="1.6"/>
		<circle id="Ellipse_14" class="st4" cx="451.7" cy="219.9" r="1.6"/>
		<circle id="Ellipse_15" class="st4" cx="451.7" cy="226" r="1.6"/>
		<circle id="Ellipse_16" class="st4" cx="451.7" cy="232.1" r="1.6"/>
		<circle id="Ellipse_17" class="st4" cx="451.7" cy="238.2" r="1.6"/>
		<circle id="Ellipse_18" class="st4" cx="451.7" cy="244.3" r="1.6"/>
		<circle id="Ellipse_19" class="st4" cx="451.7" cy="250.4" r="1.6"/>
		<path id="Path_2596" class="st4" d="M551.3,194.2l-90.8,53v-47.6"/>
		<line id="Line_192" class="st4" x1="460.7" y1="234.1" x2="540.1" y2="187.8"/>
		<path id="Path_2597" class="st4" d="M423.2,177.8"/>
		<line id="Line_193" class="st4" x1="424.3" y1="177.9" x2="473.8" y2="149"/>
		<path id="Path_2598" class="st4" d="M519.8,109.4"/>
		<line id="Line_194" class="st4" x1="413.7" y1="171.3" x2="462.8" y2="142.7"/>
		<path id="Path_2599" class="st4" d="M498,196.4"/>
		<g id="Group_772" transform="translate(93.945 129.445)">
			<path id="Path_2600" class="st4" d="M137.3,180.1"/>
			<path id="Path_2601" class="st4" d="M144.7,180.3"/>
			<path id="Path_2602" class="st4" d="M174.9,199.2l1.3-0.7l3.6,2.1l-3.7,1.9l-1.3-0.7"/>
			<path id="Path_2603" class="st4" d="M141.8,167.7l-1.1-2.1l2.1-3.6l1.9,3.7l-1.6,2.8"/>
			<path id="Path_2604" class="st4" d="M153.7,174.9l-1.3-2.6l2.1-3.6l1.9,3.7l-1.6,2.9"/>
			<path id="Path_2605" class="st4" d="M165.6,181.9l-1.4-2.7l2.1-3.6l1.9,3.7l-1.7,3.1"/>
			<path id="Path_2606" class="st4" d="M177.8,189.6l-1.9-3.7l2.1-3.6l1.9,3.7L177.8,189.6z"/>
			<path id="Path_2607" class="st4" d="M189.7,189.1l1.9,3.7l-2.1,3.6l-1.9-3.7L189.7,189.1z"/>
			<path id="Path_2608" class="st4" d="M152.4,157.8l3.7-1.9l3.6,2.1l-3.7,1.9L152.4,157.8z"/>
			<path id="Path_2609" class="st4" d="M164.1,164.5l3.7-1.9l3.6,2.1l-3.7,1.9L164.1,164.5z"/>
			<path id="Path_2610" class="st4" d="M175.9,171.3l3.7-1.9l3.6,2.1l-3.7,1.9L175.9,171.3z"/>
			<path id="Path_2611" class="st4" d="M187.6,178.1l3.7-1.9l3.6,2.1l-3.7,1.9L187.6,178.1z"/>
			<path id="Path_2612" class="st4" d="M199.3,184.9l3.7-1.9l3.6,2.1L203,187L199.3,184.9z"/>
			<path id="Path_2613" class="st4" d="M166.8,152.6l1.3-3.9l4-1.1l-1.3,3.9L166.8,152.6z"/>
			<path id="Path_2614" class="st4" d="M178.5,159.4l1.3-3.9l4-1.1l-1.3,3.9L178.5,159.4z"/>
			<path id="Path_2615" class="st4" d="M190.2,166.2l1.3-3.9l4-1.1l-1.3,3.9L190.2,166.2z"/>
			<path id="Path_2616" class="st4" d="M202,173l1.3-3.9l4-1.1l-1.3,3.9L202,173z"/>
			<path id="Path_2617" class="st4" d="M213.7,179.8l1.3-3.9l4-1.1l-1.3,3.9L213.7,179.8z"/>
			<path id="Path_2618" class="st4" d="M179.1,142.3l3.7-1.9l3.6,2.1l-3.7,1.9L179.1,142.3z"/>
			<path id="Path_2619" class="st4" d="M190.9,149.1l3.7-1.9l3.6,2.1l-3.7,1.9L190.9,149.1z"/>
			<path id="Path_2620" class="st4" d="M202.6,155.8l3.7-1.9l3.6,2.1l-3.7,1.9L202.6,155.8z"/>
			<path id="Path_2621" class="st4" d="M214.4,162.6l3.7-1.9l3.6,2.1l-3.7,1.9L214.4,162.6z"/>
			<path id="Path_2622" class="st4" d="M226.1,169.4l3.7-1.9l3.6,2.1l-3.7,1.9L226.1,169.4z"/>
			<path id="Path_2623" class="st4" d="M196.1,138.3l-1.9-3.7l2.1-3.6l1.9,3.7L196.1,138.3z"/>
			<path id="Path_2624" class="st4" d="M207.8,145.1l-1.9-3.7l2.1-3.6l1.9,3.7L207.8,145.1z"/>
			<path id="Path_2625" class="st4" d="M219.6,151.9l-1.9-3.7l2.1-3.6l1.9,3.7L219.6,151.9z"/>
			<path id="Path_2626" class="st4" d="M231.3,158.6l-1.9-3.7l2.1-3.6l1.9,3.7L231.3,158.6z"/>
			<path id="Path_2627" class="st4" d="M243.1,165.4l-1.9-3.7l2.1-3.6l1.9,3.7L243.1,165.4z"/>
			<path id="Path_2628" class="st4" d="M205.9,126.8l3.7-1.9l3.6,2.1l-3.7,1.9L205.9,126.8z"/>
			<path id="Path_2629" class="st4" d="M217.6,133.6l3.7-1.9l3.6,2.1l-3.7,1.9L217.6,133.6z"/>
			<path id="Path_2630" class="st4" d="M229.4,140.4l3.7-1.9l3.6,2.1l-3.7,1.9L229.4,140.4z"/>
			<path id="Path_2631" class="st4" d="M241.1,147.1l3.7-1.9l3.6,2.1l-3.7,1.9L241.1,147.1z"/>
			<path id="Path_2632" class="st4" d="M252.9,153.9l3.7-1.9l3.6,2.1l-3.7,1.9L252.9,153.9z"/>
			<path id="Path_2633" class="st4" d="M220.4,116.5l3.9,1.3l1.1,4l-3.9-1.3L220.4,116.5z"/>
			<path id="Path_2634" class="st4" d="M232.2,123.3l3.9,1.3l1.1,4l-3.9-1.3L232.2,123.3z"/>
			<path id="Path_2635" class="st4" d="M243.9,130l3.9,1.3l1.1,4l-3.9-1.3L243.9,130z"/>
			<path id="Path_2636" class="st4" d="M255.7,136.8l3.9,1.3l1.1,4l-3.9-1.3L255.7,136.8z"/>
			<path id="Path_2637" class="st4" d="M267.4,143.6l3.9,1.3l1.1,4l-3.9-1.3L267.4,143.6z"/>
			<path id="Path_2638" class="st4" d="M232.7,111.3l3.7-1.9l3.6,2.1l-3.7,1.9L232.7,111.3z"/>
			<path id="Path_2639" class="st4" d="M244.4,118.1l3.7-1.9l3.6,2.1l-3.7,1.9L244.4,118.1z"/>
			<path id="Path_2640" class="st4" d="M256.2,124.9l3.7-1.9l3.6,2.1l-3.7,1.9L256.2,124.9z"/>
			<path id="Path_2641" class="st4" d="M267.9,131.7l3.7-1.9l3.6,2.1l-3.7,1.9L267.9,131.7z"/>
			<path id="Path_2642" class="st4" d="M279.6,138.4l3.7-1.9l3.6,2.1l-3.7,1.9L279.6,138.4z"/>
			<path id="Path_2643" class="st4" d="M123.8,187.9"/>
		</g>
		<path id="Path_2644" class="st4" d="M253.4,420.9"/>
		<line id="Line_195" class="st4" x1="599.8" y1="221.3" x2="275.9" y2="408"/>
		<path id="Path_2645" class="st4" d="M187.1,426.3"/>
		<line id="Line_196" class="st4" x1="570.6" y1="205.3" x2="247.4" y2="391.5"/>
		<g id="Group_799" transform="translate(303.194 45.558)">
			<g id="Group_774" transform="translate(33.899 58.397)">
				<g id="Group_773">
					<path id="Path_2646" class="st5" d="M126.9,117l3.7-2.1c0.1-0.1,0-3.6,0-3.6l-3.7,2.1V117z"/>
					<path id="Path_2647" class="st5" d="M123.8,111.7l3.1,1.8v3.6l-3.1-1.8"/>
					<path id="Path_2648" class="st5" d="M130.6,111.3l-3.8-1.9l-3.1,1.6"/>
				</g>
			</g>
			<g id="Group_780" transform="translate(0 23.309)">
				<g id="Group_775" transform="translate(46.71 27.319)">
					<path id="Path_2649" class="st5" d="M127.6,117l3.7-2.1c0.1-0.1,0-3.6,0-3.6l-3.7,2.1V117z"/>
					<path id="Path_2650" class="st5" d="M127.5,117.1l-3.7-2.1c-0.1-0.1,0-3.6,0-3.6l3.7,2.1V117.1z"/>
					<path id="Path_2651" class="st5" d="M131.2,111.3l-3.8-1.9l-3.7,1.9"/>
				</g>
				<g id="Group_776" transform="translate(35.016 20.498)">
					<path id="Path_2652" class="st5" d="M127.6,117l3.7-2.1c0.1-0.1,0-3.6,0-3.6l-3.7,2.1V117z"/>
					<path id="Path_2653" class="st5" d="M127.5,117.1l-3.7-2.1c-0.1-0.1,0-3.6,0-3.6l3.7,2.1V117.1z"/>
					<path id="Path_2654" class="st5" d="M131.2,111.3l-3.8-1.9l-3.7,1.9"/>
				</g>
				<g id="Group_777" transform="translate(23.361 13.677)">
					<path id="Path_2655" class="st5" d="M131.2,114.9c0.1-0.1,0-3.6,0-3.6l-3.2,1.8"/>
					<path id="Path_2656" class="st5" d="M123.8,111.3"/>
					<path id="Path_2657" class="st5" d="M131.2,111.3l-3.8-1.9l-3.3,1.7"/>
				</g>
				<g id="Group_778" transform="translate(11.694 6.84)">
					<path id="Path_2658" class="st5" d="M131.2,114.9c0.1-0.1,0-3.6,0-3.6l-3.2,1.8"/>
					<path id="Path_2659" class="st5" d="M123.8,111.3"/>
					<path id="Path_2660" class="st5" d="M131.2,111.3l-3.8-1.9l-3.3,1.7"/>
				</g>
				<g id="Group_779">
					<path id="Path_2661" class="st5" d="M131.2,114.9c0.1-0.1,0-3.6,0-3.6l-3.2,1.8"/>
					<path id="Path_2662" class="st5" d="M123.8,111.3"/>
					<path id="Path_2663" class="st5" d="M131.2,111.3l-3.8-1.9l-3.3,1.7"/>
				</g>
			</g>
			<g id="Group_786" transform="translate(13.397 15.573)">
				<g id="Group_781" transform="translate(46.775 27.285)">
					<path id="Path_2664" class="st5" d="M127.6,117l3.7-2.1c0.1-0.1,0-3.6,0-3.6l-3.7,2.1V117z"/>
					<path id="Path_2665" class="st5" d="M127.5,117.1l-3.7-2.1c-0.1-0.1,0-3.6,0-3.6l3.7,2.1V117.1z"/>
					<path id="Path_2666" class="st5" d="M131.2,111.3l-3.8-1.9l-3.7,1.9"/>
				</g>
				<g id="Group_782" transform="translate(35.08 20.464)">
					<path id="Path_2667" class="st5" d="M127.6,117l3.7-2.1c0.1-0.1,0-3.6,0-3.6l-3.7,2.1V117z"/>
					<path id="Path_2668" class="st5" d="M127.5,117.1l-3.7-2.1c-0.1-0.1,0-3.6,0-3.6l3.7,2.1V117.1z"/>
					<path id="Path_2669" class="st5" d="M131.2,111.3l-3.8-1.9l-3.7,1.9"/>
				</g>
				<g id="Group_783" transform="translate(23.387 13.643)">
					<path id="Path_2670" class="st5" d="M127.6,117l3.7-2.1c0.1-0.1,0-3.6,0-3.6l-3.7,2.1V117z"/>
					<path id="Path_2671" class="st5" d="M127.5,117.1l-3.7-2.1c-0.1-0.1,0-3.6,0-3.6l3.7,2.1V117.1z"/>
					<path id="Path_2672" class="st5" d="M131.3,111.3l-3.8-1.9l-3.7,1.9"/>
				</g>
				<g id="Group_784" transform="translate(11.693 6.821)">
					<path id="Path_2673" class="st5" d="M127.6,117l3.7-2.1c0.1-0.1,0-3.6,0-3.6l-3.7,2.1V117z"/>
					<path id="Path_2674" class="st5" d="M127.5,117.1l-3.7-2.1c-0.1-0.1,0-3.6,0-3.6l3.7,2.1V117.1z"/>
					<path id="Path_2675" class="st5" d="M131.2,111.3l-3.8-1.9l-3.7,1.9"/>
				</g>
				<g id="Group_785">
					<path id="Path_2676" class="st5" d="M127.6,117l3.7-2.1c0.1-0.1,0-3.6,0-3.6l-3.7,2.1V117z"/>
					<path id="Path_2677" class="st5" d="M127.5,117.1l-3.7-2.1c-0.1-0.1,0-3.6,0-3.6l3.7,2.1V117.1z"/>
					<path id="Path_2678" class="st5" d="M131.2,111.3l-3.8-1.9l-3.7,1.9"/>
				</g>
			</g>
			<g id="Group_792" transform="translate(26.859 7.804)">
				<g id="Group_787" transform="translate(46.774 27.285)">
					<path id="Path_2679" class="st5" d="M127.6,117l3.7-2.1c0.1-0.1,0-3.6,0-3.6l-3.7,2.1V117z"/>
					<path id="Path_2680" class="st5" d="M127.5,117.1l-3.7-2.1c-0.1-0.1,0-3.6,0-3.6l3.7,2.1V117.1z"/>
					<path id="Path_2681" class="st5" d="M131.2,111.3l-3.8-1.9l-3.7,1.9"/>
				</g>
				<g id="Group_788" transform="translate(35.08 20.464)">
					<path id="Path_2682" class="st5" d="M127.6,117l3.7-2.1c0.1-0.1,0-3.6,0-3.6l-3.7,2.1V117z"/>
					<path id="Path_2683" class="st5" d="M127.5,117.1l-3.7-2.1c-0.1-0.1,0-3.6,0-3.6l3.7,2.1V117.1z"/>
					<path id="Path_2684" class="st5" d="M131.2,111.3l-3.8-1.9l-3.7,1.9"/>
				</g>
				<g id="Group_789" transform="translate(23.387 13.643)">
					<path id="Path_2685" class="st5" d="M127.6,117l3.7-2.1c0.1-0.1,0-3.6,0-3.6l-3.7,2.1V117z"/>
					<path id="Path_2686" class="st5" d="M127.5,117.1l-3.7-2.1c-0.1-0.1,0-3.6,0-3.6l3.7,2.1V117.1z"/>
					<path id="Path_2687" class="st5" d="M131.2,111.3l-3.8-1.9l-3.7,1.9"/>
				</g>
				<g id="Group_790" transform="translate(11.693 6.821)">
					<path id="Path_2688" class="st5" d="M127.6,117l3.7-2.1c0.1-0.1,0-3.6,0-3.6l-3.7,2.1V117z"/>
					<path id="Path_2689" class="st5" d="M127.5,117.1l-3.7-2.1c-0.1-0.1,0-3.6,0-3.6l3.7,2.1V117.1z"/>
					<path id="Path_2690" class="st5" d="M131.2,111.3l-3.8-1.9l-3.7,1.9"/>
				</g>
				<g id="Group_791">
					<path id="Path_2691" class="st5" d="M127.6,117l3.7-2.1c0.1-0.1,0-3.6,0-3.6l-3.7,2.1V117z"/>
					<path id="Path_2692" class="st5" d="M127.5,117.1l-3.7-2.1c-0.1-0.1,0-3.6,0-3.6l3.7,2.1V117.1z"/>
					<path id="Path_2693" class="st5" d="M131.2,111.3l-3.8-1.9l-3.7,1.9"/>
				</g>
			</g>
			<g id="Group_798" transform="translate(40.443)">
				<g id="Group_793" transform="translate(46.775 27.285)">
					<path id="Path_2694" class="st5" d="M127.6,117l3.7-2.1c0.1-0.1,0-3.6,0-3.6l-3.7,2.1V117z"/>
					<path id="Path_2695" class="st5" d="M127.5,117.1l-3.7-2.1c-0.1-0.1,0-3.6,0-3.6l3.7,2.1V117.1z"/>
					<path id="Path_2696" class="st5" d="M131.2,111.3l-3.8-1.9l-3.7,1.9"/>
				</g>
				<g id="Group_794" transform="translate(35.08 20.464)">
					<path id="Path_2697" class="st5" d="M127.6,117l3.7-2.1c0.1-0.1,0-3.6,0-3.6l-3.7,2.1V117z"/>
					<path id="Path_2698" class="st5" d="M127.5,117.1l-3.7-2.1c-0.1-0.1,0-3.6,0-3.6l3.7,2.1V117.1z"/>
					<path id="Path_2699" class="st5" d="M131.2,111.3l-3.8-1.9l-3.7,1.9"/>
				</g>
				<g id="Group_795" transform="translate(23.387 13.643)">
					<path id="Path_2700" class="st5" d="M127.6,117l3.7-2.1c0.1-0.1,0-3.6,0-3.6l-3.7,2.1V117z"/>
					<path id="Path_2701" class="st5" d="M127.5,117.1l-3.7-2.1c-0.1-0.1,0-3.6,0-3.6l3.7,2.1V117.1z"/>
					<path id="Path_2702" class="st5" d="M131.2,111.3l-3.8-1.9l-3.7,1.9"/>
				</g>
				<g id="Group_796" transform="translate(11.693 6.821)">
					<path id="Path_2703" class="st5" d="M127.6,117l3.7-2.1c0.1-0.1,0-3.6,0-3.6l-3.7,2.1V117z"/>
					<path id="Path_2704" class="st5" d="M127.5,117.1l-3.7-2.1c-0.1-0.1,0-3.6,0-3.6l3.7,2.1V117.1z"/>
					<path id="Path_2705" class="st5" d="M131.2,111.3l-3.8-1.9l-3.7,1.9"/>
				</g>
				<g id="Group_797">
					<path id="Path_2706" class="st5" d="M127.6,117l3.7-2.1c0.1-0.1,0-3.6,0-3.6l-3.7,2.1V117z"/>
					<path id="Path_2707" class="st5" d="M127.5,117.1l-3.7-2.1c-0.1-0.1,0-3.6,0-3.6l3.7,2.1V117.1z"/>
					<path id="Path_2708" class="st5" d="M131.2,111.3l-3.8-1.9l-3.7,1.9"/>
				</g>
			</g>
		</g>
		<g id="Group_800" transform="translate(107.89 243.865)">
			<circle id="Ellipse_20" class="st4" cx="128.5" cy="112.6" r="2.6"/>
			<path id="Path_2709" class="st4" d="M129.1,115.1c-1.4,1.2-3.4,1-4.6-0.3s-1-3.4,0.3-4.6c1.1-1,2.7-1.1,4-0.2"/>
		</g>
		<g id="Group_801" transform="translate(117.5 238.883)">
			<circle id="Ellipse_21" class="st4" cx="128.5" cy="112.6" r="2.6"/>
			<path id="Path_2710" class="st4" d="M129.1,115.1c-1.4,1.2-3.4,1-4.6-0.3c-1.2-1.4-1-3.4,0.3-4.6c1.1-1,2.7-1.1,3.9-0.2"/>
		</g>
		<g id="Group_802" transform="translate(127.109 233.9)">
			<circle id="Ellipse_22" class="st4" cx="128.5" cy="112.6" r="2.6"/>
			<path id="Path_2711" class="st4" d="M129.1,115.1c-1.4,1.2-3.4,1-4.6-0.3c-1.2-1.4-1-3.4,0.3-4.6c1.1-1,2.7-1.1,3.9-0.2"/>
		</g>
	</g>
	<g id="Group_1092" transform="translate(88.8 221.845)">
		<g id="Group_842">
			<g id="Group_804" transform="translate(1.062 39.546)">
				<path id="Path_2712" class="st6" d="M123.8,113.7l7.4-4.3l6.2,3.6l-7.4,4.3L123.8,113.7z"/>
			</g>
			<g id="Group_805" transform="translate(1.062 1.839)">
				<path id="Path_2713" class="st6" d="M123.9,113.7l7.4-4.3l-0.1,37.7l-7.4,4.3L123.9,113.7z"/>
			</g>
			<g id="Group_806" transform="translate(7.224 26.311)">
				<path id="Path_2714" class="st7" d="M123.8,113.7l7.4-4.3l0,16.8l-7.4,4.3L123.8,113.7z"/>
			</g>
			<g id="Group_807" transform="translate(8.28 29.016)">
				<path id="Path_2715" class="st6" d="M123.8,113.7l7.4-4.3l0,15.9l-7.4,4.3L123.8,113.7z"/>
			</g>
			<g id="Group_808" transform="translate(7.272 26.311)">
				<path id="Path_2716" class="st6" d="M123.8,113.7l7.4-4.3l0.8,1l-7.4,4.3L123.8,113.7z"/>
			</g>
			<g id="Group_809" transform="translate(8.072 27.322)">
				<path id="Path_2717" class="st6" d="M123.8,113.7l7.4-4.3c1.4,1.8,3.1,3.4,5.1,4.6l-7.4,4.3
					C126.9,117.1,125.2,115.5,123.8,113.7z"/>
			</g>
			<g id="Group_810" transform="translate(9.892 21.866)">
				<path id="Path_2718" class="st7" d="M131.1,109.4c0,0.1,0.1,0.2,0.1,0.2l-7.4,4.3c0-0.1-0.1-0.2-0.1-0.2L131.1,109.4z"/>
			</g>
			<g id="Group_811" transform="translate(9.43 20.966)">
				<path id="Path_2719" class="st7" d="M131.1,109.4c0.1,0.3,0.3,0.6,0.5,0.9l-7.4,4.3c-0.2-0.3-0.3-0.6-0.5-0.9L131.1,109.4z"/>
			</g>
			<g id="Group_812" transform="translate(10.032 22.104)">
				<path id="Path_2720" class="st7" d="M131.6,110.1l-7.4,4.3c-0.2-0.2-0.3-0.5-0.5-0.7l7.4-4.3
					C131.3,109.7,131.4,109.9,131.6,110.1z"/>
			</g>
			<g id="Group_813" transform="translate(8.606 17.464)">
				<path id="Path_2721" class="st7" d="M132,112.9l-7.4,4.3c-0.5-1.1-0.8-2.3-0.8-3.5l7.4-4.3C131.2,110.6,131.4,111.8,132,112.9z"
					/>
			</g>
			<g id="Group_814" transform="translate(10.514 22.83)">
				<path id="Path_2722" class="st7" d="M131.1,109.4c0.7,1,1.6,1.9,2.7,2.5l-7.4,4.3c-1.1-0.6-2-1.5-2.7-2.5L131.1,109.4z"/>
			</g>
			<g id="Group_815" transform="translate(13.227 25.358)">
				<path id="Path_2723" class="st7" d="M131.1,109.4c0.1,0,0.1,0.1,0.2,0.1l-7.4,4.3c-0.1,0-0.1-0.1-0.2-0.1L131.1,109.4z"/>
			</g>
			<g id="Group_816" transform="translate(13.446 25.478)">
				<path id="Path_2724" class="st7" d="M131.1,109.4c0.3,0.1,0.6,0.3,0.9,0.4l-7.4,4.3c-0.3-0.1-0.6-0.2-0.9-0.4L131.1,109.4z"/>
			</g>
			<g id="Group_817" transform="translate(8.606 16.075)">
				<path id="Path_2725" class="st7" d="M131.3,109.4c-0.1,0.5-0.2,0.9-0.2,1.4l-7.4,4.3c0-0.5,0.1-0.9,0.2-1.4L131.3,109.4z"/>
			</g>
			<g id="Group_818" transform="translate(8.791 14.974)">
				<path id="Path_2726" class="st7" d="M131.7,109.4c-0.3,0.3-0.5,0.7-0.6,1.1l-7.4,4.3c0.1-0.4,0.3-0.8,0.6-1.1L131.7,109.4z"/>
			</g>
			<g id="Group_819" transform="translate(9.367 14.889)">
				<path id="Path_2727" class="st7" d="M131.2,109.4C131.2,109.4,131.2,109.5,131.2,109.4l-7.4,4.4c0,0,0.1-0.1,0.1-0.1
					L131.2,109.4z"/>
			</g>
			<g id="Group_820" transform="translate(14.327 25.835)">
				<path id="Path_2728" class="st7" d="M132.7,109.5l-7.4,4.3c-0.5,0.1-1,0.1-1.6,0l7.4-4.3C131.6,109.6,132.2,109.6,132.7,109.5z"
					/>
			</g>
			<g id="Group_821" transform="translate(15.88 25.878)">
				<path id="Path_2729" class="st7" d="M131.1,109.4L131.1,109.4l-7.4,4.3h0l4.4-2.6l1.5-0.9l0.2-0.1l0.6-0.3l0.2-0.1
					C130.8,109.6,131,109.5,131.1,109.4z"/>
			</g>
			<g id="Group_822" transform="translate(13.231 24.142)">
				<path id="Path_2730" class="st6" d="M133.6,109.6l-7.4,4.3c-0.8,0.4-1.7,0.3-2.4-0.2l7.4-4.3C131.8,109.9,132.8,110,133.6,109.6
					z"/>
			</g>
			<g id="Group_823" transform="translate(15.891 25.662)">
				<path id="Path_2731" class="st7" d="M131.1,109.6c0.2,0,0.4-0.1,0.5-0.2l-7.4,4.3c-0.2,0.1-0.3,0.2-0.5,0.2l3.7-2.1l0.5-0.3
					l1-0.6l0.9-0.5l0.5-0.3C130.5,110,130.8,109.8,131.1,109.6z"/>
			</g>
			<g id="Group_824" transform="translate(9.665 15.809)">
				<path id="Path_2732" class="st6" d="M124.8,113.7l7.4-4.3c-0.7,0.5-1.1,1.4-1,2.3c0.1,2.5,1.5,4.7,3.6,6.1l-7.4,4.3
					c-2.1-1.3-3.4-3.6-3.6-6.1C123.7,115.1,124.1,114.2,124.8,113.7z"/>
			</g>
			<g id="Group_825" transform="translate(9.444 14.502)">
				<path id="Path_2733" class="st7" d="M131.1,109.8c0,0-0.1,0.1-0.1,0.1l-0.3,0.1l-0.3,0.2l-0.3,0.2l-0.1,0.1L129,111l-5.2,3
					c0.1-0.2,0.3-0.3,0.5-0.4l7.4-4.3C131.4,109.5,131.3,109.7,131.1,109.8z"/>
			</g>
			<g id="Group_826" transform="translate(13.161 31.94)">
				<path id="Path_2734" class="st6" d="M138.5,110.2l-7.4,4.3c-1.9,1.1-4.5,0.9-7.4-0.8l7.4-4.3
					C134.1,111.1,136.7,111.3,138.5,110.2z"/>
			</g>
			<g id="Group_827" transform="translate(7.326 7.224)">
				<path id="Path_2735" class="st7" d="M123.8,113.8l7.4-4.3l0.8-0.1l-7.4,4.3L123.8,113.8z"/>
			</g>
			<g id="Group_828" transform="translate(7.326 5.397)">
				<path id="Path_2736" class="st7" d="M123.8,113.7l7.4-4.3l0,1.9l-7.4,4.3L123.8,113.7z"/>
			</g>
			<g id="Group_829" transform="translate(1.169 1.839)">
				<path id="Path_2737" class="st7" d="M123.8,113.7l7.4-4.3l6.2,3.6l-7.4,4.3L123.8,113.7z"/>
			</g>
			<g id="Group_830" transform="translate(9.931 14.197)">
				<path id="Path_2738" class="st6" d="M123.8,114l7.4-4.3c1.1-0.5,2.4-0.4,3.3,0.4l-7.4,4.3C126.1,113.7,124.9,113.5,123.8,114z"
					/>
			</g>
			<g id="Group_831" transform="translate(0.114)">
				<path id="Path_2739" class="st6" d="M123.8,113.7l7.4-4.3l8.3,4.8l-7.4,4.3L123.8,113.7z"/>
			</g>
			<g id="Group_832" transform="translate(8.391 4.781)">
				<path id="Path_2740" class="st6" d="M123.8,113.7l7.4-4.3v1l-7.4,4.3V113.7z"/>
			</g>
			<g id="Group_833" transform="translate(13.257 14.857)">
				<path id="Path_2741" class="st6" d="M134.3,120.2l-7.4,4.3c0.9-0.7,1.4-1.8,1.3-2.9c-0.1-3.2-1.8-6.1-4.5-7.9l7.4-4.3
					c2.7,1.8,4.3,4.7,4.5,7.9C135.7,118.4,135.2,119.6,134.3,120.2z"/>
			</g>
			<g id="Group_834" transform="translate(20.563 26.209)">
				<path id="Path_2742" class="st7" d="M134.1,109.4c0,3.2-1.1,5.5-2.9,6.5l-7.4,4.3c1.8-1.1,2.9-3.3,2.9-6.5L134.1,109.4z"/>
			</g>
			<g id="Group_835" transform="translate(1.062 6.123)">
				<path id="Path_2743" class="st7" d="M135.9,115.9c5.1,2.9,10.3,10.4,10.3,17.9c0,6.5-4.6,9.1-10.3,5.7c-2-1.2-3.7-2.8-5.1-4.6
					l-0.8-1l0,16.8l-6.2-3.6l0.1-37.7l6.2,3.6l0,1.9l0.8-0.1C132.6,114.5,134.4,114.9,135.9,115.9z M135.9,132.9
					c2.5,1.4,4.5,0.2,4.5-2.6c-0.1-3.2-1.8-6.1-4.5-7.9c-2.6-1.5-4.6-0.4-4.7,2.6C131.5,128.3,133.2,131.2,135.9,132.9"/>
			</g>
			<g id="Group_836" transform="translate(8.138 7.125)">
				<path id="Path_2744" class="st7" d="M131.1,109.5c1.8-0.3,3.6,0.1,5.1,1l-7.4,4.3c-1.5-1-3.3-1.3-5.1-1.1L131.1,109.5z"/>
			</g>
			<g id="Group_837" transform="translate(0 4.284)">
				<path id="Path_2745" class="st6" d="M137,116.5c5.6,3.2,11.3,11.5,11.3,19.8c0,7.2-5,10-11.4,6.3c-1.8-1.1-3.5-2.5-4.8-4.1
					l0,15.9l-8.3-4.8l0.1-40.2l8.3,4.8v1C133.9,115.1,135.5,115.6,137,116.5z M136.9,141.4c5.8,3.3,10.3,0.8,10.3-5.7
					c0-7.5-5.2-15-10.3-17.9c-1.5-1-3.3-1.3-5.1-1.1l-0.8,0.1l0-1.9l-6.2-3.6l-0.1,37.7l6.2,3.6l0-16.8l0.8,1
					C133.2,138.6,135,140.1,136.9,141.4"/>
			</g>
			<g id="Group_838" transform="translate(8.606 18.481)">
				<path id="Path_2746" class="st6" d="M128.4,110.1c2.7,1.8,4.3,4.7,4.5,7.9c0,2.9-2,4.1-4.5,2.6c-2.7-1.7-4.5-4.7-4.6-7.9
					C123.8,109.7,125.8,108.6,128.4,110.1z M128.4,119.4c1.9,1.1,3.4,0.2,3.4-2c-0.1-2.4-1.4-4.7-3.4-6c-2-1.2-3.6-0.3-3.6,2
					C125,115.8,126.3,118,128.4,119.4"/>
			</g>
			<g id="Group_839" transform="translate(8.391 5.763)">
				<path id="Path_2747" class="st6" d="M123.8,113.7l7.4-4.3c1.7-0.1,3.4,0.4,4.8,1.3l-7.4,4.3
					C127.2,114.1,125.5,113.6,123.8,113.7z"/>
			</g>
			<g id="Group_840" transform="translate(13.228 8.275)">
				<path id="Path_2748" class="st6" d="M131.1,109.4c5.1,2.9,10.3,10.4,10.3,17.9l-7.4,4.3c0-7.5-5.2-15-10.3-17.9L131.1,109.4z"/>
			</g>
			<g id="Group_841" transform="translate(13.232 7.058)">
				<path id="Path_2749" class="st6" d="M139.2,136.4l-7.4,4.3c2-1.2,3.2-3.6,3.2-7.2c0-8.3-5.7-16.5-11.3-19.8l7.4-4.3
					c5.6,3.2,11.3,11.5,11.3,19.8C142.4,132.7,141.2,135.2,139.2,136.4z"/>
			</g>
		</g>
		<g id="Group_851" transform="translate(28.641 16.512)">
			<g id="Group_843" transform="translate(1.063 24.463)">
				<path id="Path_2750" class="st6" d="M123.8,113.7l7.4-4.3l6.2,3.6l-7.4,4.3L123.8,113.7z"/>
			</g>
			<g id="Group_844" transform="translate(1.063 1.839)">
				<path id="Path_2751" class="st6" d="M123.8,113.7l7.4-4.3l-0.1,22.6l-7.4,4.3L123.8,113.7z"/>
			</g>
			<g id="Group_845" transform="translate(7.225 5.397)">
				<path id="Path_2752" class="st7" d="M123.8,113.7l7.4-4.3l-0.1,22.6l-7.4,4.3L123.8,113.7z"/>
			</g>
			<g id="Group_846" transform="translate(1.063 6.123)">
				<path id="Path_2753" class="st7" d="M123.8,109.4l6.2,3.6l-0.1,22.6l-6.2-3.6L123.8,109.4z"/>
			</g>
			<g id="Group_847" transform="translate(1.127 1.839)">
				<path id="Path_2754" class="st7" d="M123.8,113.7l7.4-4.3l6.2,3.6l-7.4,4.3L123.8,113.7z"/>
			</g>
			<g id="Group_848" transform="translate(8.281 4.781)">
				<path id="Path_2755" class="st6" d="M123.8,113.7l7.4-4.3l-0.1,25.1l-7.4,4.3L123.8,113.7z"/>
			</g>
			<g id="Group_849" transform="translate(0.071)">
				<path id="Path_2756" class="st6" d="M123.8,113.7l7.4-4.3l8.3,4.8l-7.4,4.3L123.8,113.7z"/>
			</g>
			<g id="Group_850" transform="translate(0 4.284)">
				<path id="Path_2757" class="st6" d="M123.8,109.4l8.3,4.8l-0.1,25.1l-8.3-4.8L123.8,109.4z M131,137.4l0.1-22.6l-6.2-3.6
					l-0.1,22.6L131,137.4"/>
			</g>
		</g>
		<g id="Group_859" transform="translate(29.225 8.397)">
			<g id="Group_852" transform="translate(1.058 1.577)">
				<path id="Path_2758" class="st6" d="M124.6,113.7l7.4-4.3c-0.6,0.4-0.9,1.1-0.8,1.8c0.1,2,1.2,3.8,2.8,4.8
					c0.6,0.4,1.3,0.5,1.9,0.2l-7.4,4.3c-0.6,0.3-1.4,0.2-1.9-0.2c-1.6-1.1-2.7-2.9-2.8-4.8C123.7,114.8,124,114.1,124.6,113.7z"/>
			</g>
			<g id="Group_853" transform="translate(5.799 6.572)">
				<path id="Path_2759" class="st7" d="M132,109.4c0.1,0.7-0.3,1.4-0.8,1.8l-7.4,4.3c0.6-0.4,0.9-1.1,0.8-1.8L132,109.4z"/>
			</g>
			<g id="Group_854" transform="translate(1.885 1.382)">
				<path id="Path_2760" class="st7" d="M131.1,109.6c0.6-0.3,1.4-0.2,2,0.2l-7.4,4.3c-0.6-0.4-1.4-0.5-2-0.2L131.1,109.6z"/>
			</g>
			<g id="Group_855" transform="translate(1.058 5.666)">
				<path id="Path_2761" class="st7" d="M126.6,116.2c-1.6-1.1-2.7-2.9-2.8-4.8c0-1.8,1.3-2.5,2.8-1.6c1.6,1.1,2.6,2.9,2.7,4.8
					C129.3,116.4,128.1,117.1,126.6,116.2z"/>
			</g>
			<g id="Group_856" transform="translate(3.882 1.758)">
				<path id="Path_2762" class="st7" d="M131.1,109.4c1.6,1.1,2.6,2.9,2.7,4.8l-7.4,4.3c-0.1-1.9-1.1-3.7-2.7-4.8L131.1,109.4z"/>
			</g>
			<g id="Group_857" transform="translate(1.13)">
				<path id="Path_2763" class="st6" d="M123.8,114l7.4-4.3c0.9-0.4,2-0.3,2.8,0.3c2.2,1.5,3.6,4,3.8,6.7c0.1,1-0.3,1.9-1.1,2.5
					l-7.4,4.3c0.8-0.6,1.2-1.5,1.1-2.5c-0.2-2.7-1.6-5.2-3.8-6.7C125.7,113.7,124.7,113.5,123.8,114z"/>
			</g>
			<g id="Group_858" transform="translate(0 4.284)">
				<path id="Path_2764" class="st6" d="M127.6,118.8c-2.3-1.5-3.7-4-3.9-6.7c0-2.5,1.7-3.4,3.9-2.2c2.2,1.5,3.6,4,3.8,6.7
					C131.4,119,129.7,120,127.6,118.8z M127.6,111.2c-1.5-0.9-2.8-0.2-2.8,1.6c0.1,2,1.2,3.8,2.8,4.8c1.5,0.9,2.8,0.1,2.8-1.6
					C130.3,114,129.3,112.3,127.6,111.2"/>
			</g>
		</g>
		<g id="Group_880" transform="translate(39.272 22.608)">
			<g id="Group_860" transform="translate(2.155 25.135)">
				<path id="Path_2765" class="st6" d="M123.8,113.7l7.4-4.3l7.5,4.4l-7.4,4.3L123.8,113.7z"/>
			</g>
			<g id="Group_861" transform="translate(10.251 28.371)">
				<path id="Path_2766" class="st6" d="M126.3,113.7l7.4-4.3l-2.5,2.7l-7.4,4.3L126.3,113.7z"/>
			</g>
			<g id="Group_862" transform="translate(9.701 26.256)">
				<path id="Path_2767" class="st7" d="M126.8,113.7l7.4-4.3l-3.1,3.2l-7.4,4.3L126.8,113.7z"/>
			</g>
			<g id="Group_863" transform="translate(12.787 26.256)">
				<path id="Path_2768" class="st6" d="M123.8,113.7l7.4-4.3l3.1,6.8l-7.4,4.3L123.8,113.7z"/>
			</g>
			<g id="Group_864" transform="translate(2.155 17.876)">
				<path id="Path_2769" class="st6" d="M130.6,113.7l7.4-4.3l-6.9,7.3l-7.4,4.3L130.6,113.7z"/>
			</g>
			<g id="Group_865" transform="translate(2.048 2.412)">
				<path id="Path_2770" class="st6" d="M123.8,113.7l7.4-4.3l7,15.5l-7.4,4.3L123.8,113.7z"/>
			</g>
			<g id="Group_866" transform="translate(15.844 33.038)">
				<path id="Path_2771" class="st6" d="M123.8,113.7l7.4-4.3l7.5,4.3l-7.4,4.3L123.8,113.7z"/>
			</g>
			<g id="Group_867" transform="translate(16.582 22.287)">
				<path id="Path_2772" class="st7" d="M123.8,113.7l7.4-4.3l6.8,15.1l-7.4,4.3L123.8,113.7z"/>
			</g>
			<g id="Group_868" transform="translate(17.87 23.031)">
				<path id="Path_2773" class="st6" d="M123.8,113.7l7.4-4.3l7.5,16.7l-7.4,4.3L123.8,113.7z"/>
			</g>
			<g id="Group_869" transform="translate(9.584 6.763)">
				<path id="Path_2774" class="st7" d="M123.8,113.7l7.4-4.3l3.2,7.1l-7.4,4.3L123.8,113.7z"/>
			</g>
			<g id="Group_870" transform="translate(10.141 5.854)">
				<path id="Path_2775" class="st6" d="M123.8,113.7l7.4-4.3l2.7,5.9l-7.4,4.3L123.8,113.7z"/>
			</g>
			<g id="Group_871" transform="translate(12.822 10.491)">
				<path id="Path_2776" class="st6" d="M127,113.7l7.4-4.3l-3.2,3.4l-7.4,4.3L127,113.7z"/>
			</g>
			<g id="Group_872" transform="translate(16.582 14.853)">
				<path id="Path_2777" class="st7" d="M130.8,113.7l7.4-4.3l-7,7.4l-7.4,4.3L130.8,113.7z"/>
			</g>
			<g id="Group_873" transform="translate(16.042 10.491)">
				<path id="Path_2778" class="st7" d="M123.8,113.7l7.4-4.3l7.6,4.4l-7.4,4.3L123.8,113.7z"/>
			</g>
			<g id="Group_874" transform="translate(0 4.283)">
				<path id="Path_2779" class="st6" d="M149.4,124.2l-7.8,8.2l7.5,16.7l-10.1-5.8l-2.5-5.6l-2.5,2.7l-10.1-5.9l7.6-8l-7.7-17.1
					l10.1,5.9l2.7,5.9l2.7-2.8L149.4,124.2z M147.1,146.8l-6.8-15.1l7-7.4l-7.6-4.4l-3.2,3.4l-3.2-7.1l-7.5-4.4l7,15.5l-6.9,7.3
					l7.5,4.4l3.1-3.2l3.1,6.8L147.1,146.8"/>
			</g>
			<g id="Group_875" transform="translate(2.048 2.412)">
				<path id="Path_2780" class="st6" d="M123.8,113.7l7.4-4.3l7.5,4.4l-7.4,4.3L123.8,113.7z"/>
			</g>
			<g id="Group_876" transform="translate(0)">
				<path id="Path_2781" class="st6" d="M123.8,113.7l7.4-4.3l10.1,5.9l-7.4,4.3L123.8,113.7z"/>
			</g>
			<g id="Group_877" transform="translate(2.048 6.696)">
				<path id="Path_2782" class="st7" d="M145.3,121.9l-7,7.4l6.8,15.1l-7.5-4.3l-3.1-6.8l-3.1,3.2l-7.5-4.4l6.9-7.3l-7-15.5l7.5,4.4
					l3.2,7.1l3.2-3.4L145.3,121.9z"/>
			</g>
			<g id="Group_878" transform="translate(15.502 8.95)">
				<path id="Path_2783" class="st6" d="M123.8,113.7l7.4-4.3l10.1,5.8l-7.4,4.3L123.8,113.7z"/>
			</g>
			<g id="Group_879" transform="translate(17.87 14.799)">
				<path id="Path_2784" class="st6" d="M131.5,113.7l7.4-4.3l-7.8,8.2l-7.4,4.3L131.5,113.7z"/>
			</g>
		</g>
		<g id="Group_906" transform="translate(66.033 42.581)">
			<g id="Group_881" transform="translate(1.059 2.059)">
				<path id="Path_2785" class="st6" d="M126.8,113.7l7.4-4.3c-1.8,1.1-3,3.4-3,6.6c0,6.6,4.5,14.4,10.3,17.8
					c1.7,1.1,3.8,1.6,5.9,1.3l-7.4,4.3c-2,0.2-4.1-0.2-5.9-1.3c-5.8-3.3-10.3-11.2-10.3-17.8C123.8,117.1,124.9,114.8,126.8,113.7z"
					/>
			</g>
			<g id="Group_882" transform="translate(6.023 13.393)">
				<path id="Path_2786" class="st7" d="M123.8,113.7l7.4-4.3l0.4,1.1l-7.4,4.3L123.8,113.7z"/>
			</g>
			<g id="Group_883" transform="translate(6.402 14.491)">
				<path id="Path_2787" class="st7" d="M123.8,113.7l7.4-4.3c0.9,2.6,2.6,4.9,5,6.4c0.7,0.4,1.5,0.7,2.3,0.7l-7.4,4.3
					c-0.8-0.1-1.6-0.3-2.3-0.7C126.4,118.6,124.6,116.3,123.8,113.7z"/>
			</g>
			<g id="Group_884" transform="translate(13.672 21.663)">
				<path id="Path_2788" class="st7" d="M123.8,113.7l7.4-4.3l3.5,6.1l-7.4,4.3L123.8,113.7z"/>
			</g>
			<g id="Group_885" transform="translate(5.996 9.059)">
				<path id="Path_2789" class="st7" d="M124.1,113.7l7.4-4.3l-0.4,0.7l-7.4,4.3L124.1,113.7z"/>
			</g>
			<g id="Group_886" transform="translate(7.842 15.662)">
				<path id="Path_2790" class="st6" d="M123.8,113.7l7.4-4.3c0.8,1.7,2,3.1,3.5,4c0.6,0.4,1.4,0.6,2.1,0.6l-7.4,4.3
					c-0.7,0-1.5-0.2-2.1-0.6C125.8,116.8,124.5,115.4,123.8,113.7z"/>
			</g>
			<g id="Group_887" transform="translate(13.858 20.255)">
				<path id="Path_2791" class="st6" d="M123.8,113.7l7.4-4.3l5,8.7l-7.4,4.3L123.8,113.7z"/>
			</g>
			<g id="Group_888" transform="translate(13.504 20.255)">
				<path id="Path_2792" class="st6" d="M123.8,113.7l7.4-4.3l0.4,0l-7.4,4.3L123.8,113.7z"/>
			</g>
			<g id="Group_889" transform="translate(21.496 20.513)">
				<path id="Path_2793" class="st7" d="M131.2,109.4c0,0.6,0,1.2-0.1,1.8l-7.4,4.3c0.1-0.6,0.1-1.2,0.1-1.8L131.2,109.4z"/>
			</g>
			<g id="Group_890" transform="translate(6.023 13.393)">
				<path id="Path_2794" class="st6" d="M123.8,113.7l7.4-4.3l15.5,8.9l-7.4,4.3L123.8,113.7z"/>
			</g>
			<g id="Group_891" transform="translate(16.224 14.77)">
				<path id="Path_2795" class="st6" d="M123.8,113.7l7.4-4.3l0.3,1l-7.4,4.3L123.8,113.7z"/>
			</g>
			<g id="Group_892" transform="translate(7.792 9.529)">
				<path id="Path_2796" class="st6" d="M123.8,113.7l7.4-4.3l7,4.1l-7.4,4.3L123.8,113.7z"/>
			</g>
			<g id="Group_893" transform="translate(6.37 7.952)">
				<path id="Path_2797" class="st7" d="M132.2,109.4c-0.4,0.3-0.8,0.6-1.1,1.1l-7.4,4.3c0.2-0.5,0.6-0.8,1.1-1.1L132.2,109.4z"/>
			</g>
			<g id="Group_894" transform="translate(7.433 7.581)">
				<path id="Path_2798" class="st6" d="M123.8,114.1l7.4-4.3c1-0.6,2.5-0.5,4,0.4l-7.4,4.3C126.2,113.6,124.8,113.5,123.8,114.1z"
					/>
			</g>
			<g id="Group_895" transform="translate(11.417 8.361)">
				<path id="Path_2799" class="st6" d="M123.8,113.7l7.4-4.3c2.3,1.5,4,3.8,4.8,6.4l-7.4,4.3C127.8,117.5,126.1,115.2,123.8,113.7z
					"/>
			</g>
			<g id="Group_896" transform="translate(4.063 1.361)">
				<path id="Path_2800" class="st7" d="M131.1,110.1c1.9-1.1,4.5-0.9,7.4,0.7l-7.4,4.3c-2.9-1.7-5.5-1.8-7.4-0.7L131.1,110.1z"/>
			</g>
			<g id="Group_897" transform="translate(3.314)">
				<path id="Path_2801" class="st6" d="M123.8,114.5l7.4-4.3c2.1-1.2,5-1,8.1,0.8l-7.4,4.3C128.7,113.4,125.8,113.3,123.8,114.5z"
					/>
			</g>
			<g id="Group_898" transform="translate(11.433 2.781)">
				<path id="Path_2802" class="st7" d="M131.1,109.4c5.7,3.3,10.2,11.1,10.2,17.7l-7.4,4.3c0-6.6-4.5-14.4-10.2-17.7L131.1,109.4z"
					/>
			</g>
			<g id="Group_899" transform="translate(0 4.283)">
				<path id="Path_2803" class="st6" d="M135.2,111c6.3,3.6,11.2,12.2,11.2,19.6c0,0.8-0.1,1.7-0.2,2.5l-0.1,0.4l-14.5-8.4
					c0.8,1.7,2,3.1,3.5,4c0.6,0.4,1.4,0.6,2.1,0.6l0.4,0l5,8.7l-0.5,0.1c-2.4,0.5-4.9,0-7-1.4c-6.4-3.7-11.4-12.3-11.4-19.6
					C123.8,110.3,128.9,107.4,135.2,111z M145.3,131.7c0.1-0.6,0.1-1.2,0.1-1.8c0-6.6-4.5-14.4-10.2-17.7
					c-5.7-3.3-10.4-0.7-10.4,5.9c0,6.6,4.5,14.4,10.3,17.8c1.7,1.1,3.8,1.6,5.9,1.3l-3.5-6.1c-0.8-0.1-1.6-0.3-2.3-0.7
					c-2.3-1.5-4.1-3.8-5-6.4l-0.4-1.1L145.3,131.7"/>
			</g>
			<g id="Group_900" transform="translate(5.995 11.864)">
				<path id="Path_2804" class="st6" d="M129.2,110.2c2.3,1.5,4,3.8,4.8,6.4l0.3,1l-10.5-6.1l0.4-0.7
					C125.1,109.2,127,108.9,129.2,110.2z M125.6,111.4l7,4.1c-0.7-1.7-1.9-3.1-3.4-4C127.7,110.6,126.4,110.6,125.6,111.4"/>
			</g>
			<g id="Group_901" transform="translate(5.995 11.93)">
				<path id="Path_2805" class="st6" d="M134,116.5c-0.2-0.6-0.4-1.1-0.6-1.6l-0.8,0.4l-7-4.1l2.7-1.6c-0.3-0.1-0.6-0.2-1-0.3
					l-3.6,2.1l10.5,6.1l3.7-2.1c-0.1-0.3-0.3-0.7-0.4-1L134,116.5z"/>
			</g>
			<g id="Group_902" transform="translate(7.792 12.192)">
				<path id="Path_2806" class="st6" d="M124.1,110.8L124.1,110.8L124.1,110.8c-0.1,0.1-0.1,0.1-0.2,0.1l0,0c0,0,0,0-0.1,0l0,0
					c0,0-0.1,0-0.1,0.1l0.8-0.5C124.4,110.6,124.3,110.7,124.1,110.8z M126.5,109.4L126.5,109.4L126.5,109.4L126.5,109.4
					L126.5,109.4z"/>
			</g>
			<g id="Group_903" transform="translate(22.38 23.611)">
				<path id="Path_2807" class="st6" d="M123.8,113.7l7.4-4.3l-0.1,0.4l-7.4,4.3L123.8,113.7z"/>
			</g>
			<g id="Group_904" transform="translate(1.059 5.644)">
				<path id="Path_2808" class="st7" d="M144.3,128.6c0,0.6,0,1.2-0.1,1.8l-15.5-8.9l0.4,1.1c0.9,2.6,2.6,4.9,5,6.4
					c0.7,0.4,1.5,0.7,2.3,0.7l3.5,6.1c-2,0.2-4.1-0.2-5.9-1.3c-5.8-3.3-10.3-11.2-10.3-17.8c0-6.5,4.7-9.2,10.4-5.9
					C139.9,114.1,144.3,121.9,144.3,128.6z M128.7,117.8l10.5,6.1l-0.3-1c-0.8-2.6-2.5-4.9-4.8-6.4c-2.2-1.2-4.1-1-5,0.7
					L128.7,117.8"/>
			</g>
			<g id="Group_905" transform="translate(11.436 1.565)">
				<path id="Path_2809" class="st6" d="M123.8,113.7l7.4-4.3c6.3,3.6,11.2,12.2,11.2,19.6c0,0.8-0.1,1.7-0.2,2.5l-7.4,4.3
					c0.1-0.8,0.2-1.7,0.2-2.5C135,125.9,130.1,117.3,123.8,113.7z"/>
			</g>
		</g>
		<g id="Group_915" transform="translate(92.335 38.257)">
			<g id="Group_907" transform="translate(1.063 39.491)">
				<path id="Path_2810" class="st6" d="M123.8,113.7l7.4-4.3l6.2,3.6l-7.4,4.3L123.8,113.7z"/>
			</g>
			<g id="Group_908" transform="translate(1.063 1.828)">
				<path id="Path_2811" class="st6" d="M123.9,113.7l7.4-4.3l-0.1,37.7l-7.4,4.3L123.9,113.7z"/>
			</g>
			<g id="Group_909" transform="translate(1.169 1.828)">
				<path id="Path_2812" class="st7" d="M123.8,113.7l7.4-4.3l6.2,3.6l-7.4,4.3L123.8,113.7z"/>
			</g>
			<g id="Group_910" transform="translate(7.225 5.386)">
				<path id="Path_2813" class="st7" d="M123.9,113.7l7.4-4.3l-0.1,37.7l-7.4,4.3L123.9,113.7z"/>
			</g>
			<g id="Group_911" transform="translate(0 4.283)">
				<path id="Path_2814" class="st6" d="M123.9,109.4l8.3,4.8l-0.1,40.1l-8.3-4.8L123.9,109.4z M131,152.5l0.1-37.7l-6.2-3.6
					l-0.1,37.7L131,152.5"/>
			</g>
			<g id="Group_912" transform="translate(1.063 6.112)">
				<path id="Path_2815" class="st7" d="M130,113l-0.1,37.7l-6.2-3.6l0.1-37.7L130,113z"/>
			</g>
			<g id="Group_913" transform="translate(8.28 4.781)">
				<path id="Path_2816" class="st6" d="M123.9,113.7l7.4-4.3l-0.1,40.1l-7.4,4.3L123.9,113.7z"/>
			</g>
			<g id="Group_914" transform="translate(0.114)">
				<path id="Path_2817" class="st6" d="M123.8,113.7l7.4-4.3l8.3,4.8l-7.4,4.3L123.8,113.7z"/>
			</g>
		</g>
		<g id="Group_955" transform="translate(201.668 101.273)">
			<g id="Group_916" transform="translate(1.063 39.535)">
				<path id="Path_2818" class="st6" d="M123.8,113.7l7.4-4.3l6.2,3.6l-7.4,4.3L123.8,113.7z"/>
			</g>
			<g id="Group_917" transform="translate(8.281 43.924)">
				<path id="Path_2819" class="st6" d="M123.8,113.7l7.4-4.3v1l-7.4,4.3V113.7z"/>
			</g>
			<g id="Group_918" transform="translate(7.225 41.142)">
				<path id="Path_2820" class="st7" d="M123.8,113.7l7.4-4.3l0,2l-7.4,4.3L123.8,113.7z"/>
			</g>
			<g id="Group_919" transform="translate(7.231 41.142)">
				<path id="Path_2821" class="st6" d="M123.8,113.7l7.4-4.3l0.8,1.1l-7.4,4.3L123.8,113.7z"/>
			</g>
			<g id="Group_920" transform="translate(8.04 42.202)">
				<path id="Path_2822" class="st6" d="M123.8,113.7l7.4-4.3c1.4,1.9,3.1,3.6,5.1,4.8l-7.4,4.3
					C126.8,117.3,125.1,115.6,123.8,113.7z"/>
			</g>
			<g id="Group_921" transform="translate(9.854 36.981)">
				<path id="Path_2823" class="st7" d="M131.1,109.4l0.1,0.1l-7.4,4.3l-0.1-0.1L131.1,109.4z"/>
			</g>
			<g id="Group_922" transform="translate(9.916 37.089)">
				<path id="Path_2824" class="st7" d="M131.7,110.3l-7.4,4.3c-0.2-0.3-0.4-0.6-0.6-0.9l7.4-4.3C131.3,109.7,131.5,110,131.7,110.3
					z"/>
			</g>
			<g id="Group_923" transform="translate(9.38 36.05)">
				<path id="Path_2825" class="st7" d="M131.1,109.4c0.1,0.3,0.3,0.6,0.5,0.9l-7.4,4.3c-0.2-0.3-0.3-0.6-0.5-0.9L131.1,109.4z"/>
			</g>
			<g id="Group_924" transform="translate(8.744 34.144)">
				<path id="Path_2826" class="st7" d="M131.8,111.3l-7.4,4.3c-0.3-0.6-0.5-1.2-0.6-1.9l7.4-4.3
					C131.3,110.1,131.5,110.7,131.8,111.3z"/>
			</g>
			<g id="Group_925" transform="translate(10.494 37.974)">
				<path id="Path_2827" class="st7" d="M131.1,109.4c0.4,0.6,0.9,1.1,1.4,1.5l-7.4,4.3c-0.5-0.5-1-1-1.4-1.5L131.1,109.4z"/>
			</g>
			<g id="Group_926" transform="translate(8.564 32.536)">
				<path id="Path_2828" class="st7" d="M131.1,109.4c0,0.5,0.1,1.1,0.2,1.6l-7.4,4.3c-0.1-0.5-0.2-1.1-0.2-1.6L131.1,109.4z"/>
			</g>
			<g id="Group_927" transform="translate(11.872 39.519)">
				<path id="Path_2829" class="st7" d="M131.1,109.4c0.4,0.4,0.8,0.7,1.3,1l-7.4,4.3c-0.5-0.3-0.9-0.6-1.3-1L131.1,109.4z"/>
			</g>
			<g id="Group_928" transform="translate(13.185 40.485)">
				<path id="Path_2830" class="st7" d="M131.1,109.4c0.3,0.2,0.7,0.4,1.1,0.5l-7.4,4.3c-0.4-0.1-0.7-0.3-1.1-0.5L131.1,109.4z"/>
			</g>
			<g id="Group_929" transform="translate(8.564 31.353)">
				<path id="Path_2831" class="st7" d="M131.3,109.4c-0.1,0.4-0.1,0.8-0.1,1.2l-7.4,4.3c0-0.4,0-0.8,0.1-1.2L131.3,109.4z"/>
			</g>
			<g id="Group_930" transform="translate(8.696 30.307)">
				<path id="Path_2832" class="st7" d="M131.6,109.4c-0.2,0.3-0.4,0.7-0.4,1l-7.4,4.3c0.1-0.4,0.2-0.7,0.4-1L131.6,109.4z"/>
			</g>
			<g id="Group_931" transform="translate(14.271 40.956)">
				<path id="Path_2833" class="st7" d="M131.1,109.4c0.4,0.1,0.8,0.2,1.2,0.1l-7.4,4.3c-0.4,0-0.8,0-1.2-0.1L131.1,109.4z"/>
			</g>
			<g id="Group_932" transform="translate(9.143 29.991)">
				<path id="Path_2834" class="st7" d="M131.4,109.4c-0.1,0.1-0.2,0.2-0.3,0.3l-7.4,4.3c0.1-0.1,0.2-0.2,0.3-0.3L131.4,109.4z"/>
			</g>
			<g id="Group_933" transform="translate(15.437 41.003)">
				<path id="Path_2835" class="st7" d="M131.5,109.4l-7.4,4.3c-0.1,0-0.3,0.1-0.4,0.1l7.4-4.3C131.3,109.5,131.4,109.5,131.5,109.4
					z"/>
			</g>
			<g id="Group_934" transform="translate(15.821 40.783)">
				<path id="Path_2836" class="st7" d="M131.1,109.6c0.2,0,0.4-0.1,0.5-0.2l-7.4,4.3c-0.2,0.1-0.3,0.2-0.5,0.2l4.4-2.6l1.5-0.8
					l1.1-0.7C130.9,109.8,131,109.7,131.1,109.6z"/>
			</g>
			<g id="Group_935" transform="translate(13.189 39.268)">
				<path id="Path_2837" class="st6" d="M133.5,109.6l-7.4,4.3c-0.8,0.4-1.7,0.3-2.4-0.2l7.4-4.3C131.8,109.9,132.8,110,133.5,109.6
					z"/>
			</g>
			<g id="Group_936" transform="translate(9.4 29.62)">
				<path id="Path_2838" class="st7" d="M131.1,109.8c-0.1,0.1-0.2,0.2-0.4,0.2l-0.7,0.4L129,111l-5.2,3c0.1-0.1,0.3-0.3,0.5-0.4
					l7.4-4.3C131.4,109.5,131.3,109.6,131.1,109.8z"/>
			</g>
			<g id="Group_937" transform="translate(9.623 30.918)">
				<path id="Path_2839" class="st6" d="M124.8,113.7l7.4-4.3c-0.7,0.5-1.1,1.4-1,2.2c0.1,2.5,1.5,4.8,3.6,6.1l-7.4,4.3
					c-2.1-1.3-3.4-3.6-3.6-6.1C123.7,115.1,124.1,114.2,124.8,113.7z"/>
			</g>
			<g id="Group_938" transform="translate(13.119 47.012)">
				<path id="Path_2840" class="st6" d="M138.5,110.1l-7.4,4.3c-2,1.2-4.7,0.8-7.4-0.7l7.4-4.3C133.8,111,136.5,111.3,138.5,110.1z"
					/>
			</g>
			<g id="Group_939" transform="translate(1.063 1.828)">
				<path id="Path_2841" class="st6" d="M123.9,113.7l7.4-4.3l-0.1,37.7l-7.4,4.3L123.9,113.7z"/>
			</g>
			<g id="Group_940" transform="translate(7.284 22.082)">
				<path id="Path_2842" class="st7" d="M123.8,113.8l7.4-4.3l0.8-0.1l-7.4,4.3L123.8,113.8z"/>
			</g>
			<g id="Group_941" transform="translate(9.87 29.316)">
				<path id="Path_2843" class="st6" d="M123.8,114l7.4-4.3c1.1-0.5,2.4-0.4,3.3,0.4l-7.4,4.3C126.1,113.7,124.9,113.5,123.8,114z"
					/>
			</g>
			<g id="Group_942" transform="translate(13.215 29.984)">
				<path id="Path_2844" class="st6" d="M134.3,120.2l-7.4,4.3c1-0.7,1.5-1.8,1.3-3c-0.2-3.2-1.8-6.1-4.5-7.8l7.4-4.3
					c2.7,1.7,4.3,4.6,4.5,7.8C135.7,118.4,135.2,119.5,134.3,120.2z"/>
			</g>
			<g id="Group_943" transform="translate(8.087 22.046)">
				<path id="Path_2845" class="st7" d="M131.1,109.5c1.8-0.1,3.6,0.3,5.1,1.3l-7.4,4.3c-1.5-0.9-3.3-1.4-5.1-1.3
					C126,112.5,128.7,110.3,131.1,109.5z"/>
			</g>
			<g id="Group_944" transform="translate(20.498 40.963)">
				<path id="Path_2846" class="st7" d="M134.1,109.4c0,3.5-1.2,5.7-2.9,6.8l-7.4,4.3c1.8-1,2.9-3.2,2.9-6.8L134.1,109.4z"/>
			</g>
			<g id="Group_945" transform="translate(13.186 23.346)">
				<path id="Path_2847" class="st7" d="M131.1,109.4c5.8,3.3,10.3,11.1,10.3,17.6l-7.4,4.3c0-6.5-4.5-14.3-10.3-17.6L131.1,109.4z"
					/>
			</g>
			<g id="Group_946" transform="translate(1.17 1.828)">
				<path id="Path_2848" class="st7" d="M123.8,113.7l7.4-4.3l6.2,3.6l-7.4,4.3L123.8,113.7z"/>
			</g>
			<g id="Group_947" transform="translate(7.284 5.386)">
				<path id="Path_2849" class="st7" d="M123.8,113.7l7.4-4.3l0,16.8l-7.4,4.3L123.8,113.7z"/>
			</g>
			<g id="Group_948" transform="translate(13.189 22.13)">
				<path id="Path_2850" class="st6" d="M139.2,136.3l-7.4,4.3c1.9-1.1,3.2-3.5,3.2-7.4c0-7.2-5-15.8-11.3-19.4l7.4-4.3
					c6.4,3.7,11.3,12.2,11.3,19.4C142.4,132.8,141.1,135.2,139.2,136.3z"/>
			</g>
			<g id="Group_949" transform="translate(0 4.284)">
				<path id="Path_2851" class="st6" d="M136.9,131.5c6.4,3.7,11.3,12.2,11.3,19.4c0,8.3-5.8,9.9-11.4,6.7c-1.9-1.1-3.5-2.6-4.8-4.3
					v1l-8.3-4.8l0.1-40.1l8.3,4.8l0,15.9C133.8,130.2,135.5,130.7,136.9,131.5z M136.9,156.4c5.1,2.9,10.3,1.5,10.3-6
					c0-6.5-4.5-14.3-10.3-17.6c-1.5-0.9-3.3-1.4-5.1-1.3l-0.8,0.1l0-16.8l-6.2-3.6l-0.1,37.7l6.2,3.6l0-2l0.8,1.1
					C133.2,153.5,134.9,155.2,136.9,156.4"/>
			</g>
			<g id="Group_950" transform="translate(8.564 33.6)">
				<path id="Path_2852" class="st6" d="M128.4,110.1c2.7,1.7,4.3,4.6,4.5,7.8c0,2.9-2,4.1-4.5,2.7c-2.7-1.7-4.5-4.7-4.6-7.9
					C123.8,109.7,125.8,108.6,128.4,110.1z M128.4,119.4c1.9,1.1,3.4,0.2,3.4-2.1c-0.1-2.4-1.4-4.7-3.4-6c-2-1.2-3.6-0.3-3.6,1.9
					C124.9,115.7,126.3,118,128.4,119.4"/>
			</g>
			<g id="Group_951" transform="translate(8.349 20.686)">
				<path id="Path_2853" class="st6" d="M123.8,113.7l7.4-4.3c1.7,0.1,3.4,0.6,4.8,1.4l-7.4,4.3
					C127.1,114.3,125.5,113.8,123.8,113.7z"/>
			</g>
			<g id="Group_952" transform="translate(1.063 6.112)">
				<path id="Path_2854" class="st7" d="M135.9,130.9c5.8,3.3,10.3,11.1,10.3,17.6c0,7.5-5.3,9-10.3,6c-2-1.2-3.7-2.9-5.1-4.8
					l-0.8-1.1l0,1.9l-6.2-3.6l0.1-37.7l6.2,3.6l0,16.8l0.8-0.1C132.6,129.5,134.4,130,135.9,130.9z M135.9,148.1
					c2.5,1.4,4.5,0.2,4.5-2.7c-0.2-3.2-1.8-6.1-4.5-7.8c-2.6-1.5-4.6-0.4-4.7,2.6C131.4,143.4,133.1,146.3,135.9,148.1"/>
			</g>
			<g id="Group_953" transform="translate(0.114)">
				<path id="Path_2855" class="st6" d="M123.8,113.7l7.4-4.3l8.3,4.8l-7.4,4.3L123.8,113.7z"/>
			</g>
			<g id="Group_954" transform="translate(8.349 4.781)">
				<path id="Path_2856" class="st6" d="M123.8,113.7l7.4-4.3l0,15.9l-7.4,4.3L123.8,113.7z"/>
			</g>
		</g>
		<g id="Group_990" transform="translate(228.729 136.462)">
			<g id="Group_956" transform="translate(1.059 2.061)">
				<path id="Path_2857" class="st6" d="M126.8,113.7l7.4-4.3c-1.8,1.1-3,3.3-3,6.6c0,6.6,4.5,14.5,10.3,17.8c1.5,1,3.3,1.5,5.2,1.4
					l-7.4,4.3c-1.8,0.1-3.6-0.4-5.2-1.4c-5.8-3.4-10.4-11.2-10.3-17.8C123.8,117,124.9,114.8,126.8,113.7z"/>
			</g>
			<g id="Group_957" transform="translate(8.194 16.557)">
				<path id="Path_2858" class="st7" d="M131.1,109.4l0.1,0.1l-7.4,4.3c0,0,0-0.1-0.1-0.1L131.1,109.4z"/>
			</g>
			<g id="Group_958" transform="translate(8.258 16.669)">
				<path id="Path_2859" class="st7" d="M131.6,110.2l-7.4,4.3c-0.2-0.3-0.4-0.5-0.5-0.8l7.4-4.3C131.3,109.7,131.5,110,131.6,110.2
					z"/>
			</g>
			<g id="Group_959" transform="translate(7.757 15.704)">
				<path id="Path_2860" class="st7" d="M131.1,109.4c0.1,0.3,0.3,0.6,0.4,0.9l-7.4,4.3c-0.2-0.3-0.3-0.6-0.4-0.9L131.1,109.4z"/>
			</g>
			<g id="Group_960" transform="translate(8.773 17.471)">
				<path id="Path_2861" class="st7" d="M131.1,109.4c0.4,0.6,0.9,1.1,1.4,1.6l-7.4,4.3c-0.5-0.5-1-1-1.4-1.6L131.1,109.4z"/>
			</g>
			<g id="Group_961" transform="translate(10.145 19.048)">
				<path id="Path_2862" class="st7" d="M131.1,109.4c0.4,0.4,0.8,0.7,1.3,1l-7.4,4.3c-0.5-0.3-0.9-0.6-1.3-1L131.1,109.4z"/>
			</g>
			<g id="Group_962" transform="translate(6.896 12.105)">
				<path id="Path_2863" class="st7" d="M132,113l-7.4,4.3c-0.5-1.1-0.8-2.4-0.9-3.6l7.4-4.3C131.2,110.7,131.5,111.9,132,113z"/>
			</g>
			<g id="Group_963" transform="translate(11.422 19.999)">
				<path id="Path_2864" class="st7" d="M131.1,109.4c0.1,0.1,0.3,0.2,0.4,0.2l-7.4,4.3c-0.1-0.1-0.3-0.1-0.4-0.2L131.1,109.4z"/>
			</g>
			<g id="Group_964" transform="translate(11.849 20.223)">
				<path id="Path_2865" class="st7" d="M131.1,109.4c0.2,0.1,0.4,0.2,0.7,0.2l-7.4,4.3c-0.2-0.1-0.4-0.1-0.7-0.2l3.7-2.1
					L131.1,109.4z"/>
			</g>
			<g id="Group_965" transform="translate(6.896 10.933)">
				<path id="Path_2866" class="st7" d="M131.3,109.4c-0.1,0.4-0.1,0.8-0.1,1.2l-7.4,4.3c0-0.4,0-0.8,0.1-1.2l3.7-2.1l2.8-1.6
					L131.3,109.4z"/>
			</g>
			<g id="Group_966" transform="translate(16.56 27.772)">
				<path id="Path_2867" class="st6" d="M123.8,113.8l7.4-4.3l0.8-0.1l-7.4,4.3L123.8,113.8z"/>
			</g>
			<g id="Group_967" transform="translate(17.348 27.772)">
				<path id="Path_2868" class="st6" d="M123.8,113.7l7.4-4.3v1.6l-7.4,4.3V113.7z"/>
			</g>
			<g id="Group_968" transform="translate(12.504 20.471)">
				<path id="Path_2869" class="st7" d="M131.1,109.4c0.4,0.1,0.7,0.2,1.1,0.1l-7.4,4.3c-0.4,0-0.8,0-1.1-0.1L131.1,109.4z"/>
			</g>
			<g id="Group_969" transform="translate(13.63 20.523)">
				<path id="Path_2870" class="st7" d="M131.5,109.4l-7.4,4.3c-0.1,0-0.3,0.1-0.4,0.1l7.4-4.3C131.3,109.5,131.4,109.5,131.5,109.4
					z"/>
			</g>
			<g id="Group_970" transform="translate(7.038 9.623)">
				<path id="Path_2871" class="st7" d="M131.8,109.4c-0.3,0.4-0.6,0.8-0.7,1.3l-3.7,2.1l-3.7,2.1c0.1-0.5,0.4-0.9,0.7-1.3
					L131.8,109.4z"/>
			</g>
			<g id="Group_971" transform="translate(7.733 9.548)">
				<path id="Path_2872" class="st7" d="M131.2,109.4C131.2,109.4,131.2,109.5,131.2,109.4l-7.4,4.4c0,0,0-0.1,0.1-0.1L131.2,109.4z
					"/>
			</g>
			<g id="Group_972" transform="translate(14.01 20.311)">
				<path id="Path_2873" class="st7" d="M131.1,109.6c0.2,0,0.4-0.1,0.5-0.2l-7.4,4.3c-0.2,0.1-0.3,0.2-0.5,0.2l4.5-2.6l1.4-0.8
					l0.2-0.1l0.7-0.4C130.8,109.8,131,109.7,131.1,109.6z"/>
			</g>
			<g id="Group_973" transform="translate(11.426 18.783)">
				<path id="Path_2874" class="st6" d="M133.5,109.6l-7.4,4.3c-0.8,0.4-1.7,0.3-2.3-0.2l7.4-4.3C131.8,109.9,132.7,110,133.5,109.6
					z"/>
			</g>
			<g id="Group_974" transform="translate(7.808 9.223)">
				<path id="Path_2875" class="st7" d="M131.1,109.7c-0.1,0-0.1,0.1-0.2,0.1l-0.7,0.4l-0.9,0.5l-5.5,3.2c0.1-0.1,0.3-0.2,0.4-0.3
					l7.4-4.3C131.4,109.5,131.3,109.6,131.1,109.7z"/>
			</g>
			<g id="Group_975" transform="translate(7.955 10.506)">
				<path id="Path_2876" class="st6" d="M124.8,113.7l7.4-4.3c-0.7,0.5-1.1,1.3-1,2.2c0.1,2.5,1.4,4.7,3.5,6.1l-7.4,4.3
					c-2.1-1.4-3.3-3.6-3.5-6.1C123.7,115,124.1,114.2,124.8,113.7z"/>
			</g>
			<g id="Group_976" transform="translate(17.348 29.372)">
				<path id="Path_2877" class="st6" d="M123.8,113.7l7.4-4.3l6.3,3.6l-7.4,4.3L123.8,113.7z"/>
			</g>
			<g id="Group_977" transform="translate(8.238 8.908)">
				<path id="Path_2878" class="st6" d="M123.8,114l7.4-4.3c1-0.5,2.3-0.4,3.2,0.3l-7.4,4.3C126,113.6,124.8,113.5,123.8,114z"/>
			</g>
			<g id="Group_978" transform="translate(11.452 9.509)">
				<path id="Path_2879" class="st6" d="M134.2,120.2l-7.4,4.3c1-0.7,1.5-1.9,1.3-3c-0.1-3.2-1.8-6-4.4-7.8l7.4-4.3
					c2.6,1.7,4.3,4.6,4.4,7.8C135.7,118.4,135.2,119.5,134.2,120.2z"/>
			</g>
			<g id="Group_979" transform="translate(6.896 13.192)">
				<path id="Path_2880" class="st6" d="M128.3,110c2.6,1.7,4.3,4.6,4.4,7.8c0,3-2,4.2-4.4,2.7c-2.7-1.8-4.4-4.7-4.5-7.9
					C123.8,109.8,125.9,108.6,128.3,110z M128.3,119.3c1.9,1.1,3.4,0.2,3.4-2.1c-0.1-2.4-1.3-4.6-3.3-5.9c-1.9-1.1-3.5-0.2-3.5,2
					C124.9,115.7,126.2,117.9,128.3,119.3"/>
			</g>
			<g id="Group_980" transform="translate(4.061 1.36)">
				<path id="Path_2881" class="st7" d="M123.8,114.4l7.4-4.3c1.9-1.1,4.5-0.9,7.4,0.7c2,1.2,3.7,2.7,5.1,4.6l-7.4,4.3
					c-1.4-1.8-3.2-3.4-5.1-4.6C128.3,113.5,125.6,113.3,123.8,114.4z"/>
			</g>
			<g id="Group_981" transform="translate(16.618 7.343)">
				<path id="Path_2882" class="st7" d="M123.8,113.7l7.4-4.3l0.8,1l-7.4,4.3L123.8,113.7z"/>
			</g>
			<g id="Group_982" transform="translate(3.312)">
				<path id="Path_2883" class="st6" d="M123.8,114.5l7.4-4.3c2.1-1.2,5-1,8.2,0.8c1.8,1.1,3.5,2.5,4.9,4.1l-7.4,4.3
					c-1.4-1.6-3-3-4.9-4.1C128.7,113.4,125.8,113.3,123.8,114.5z"/>
			</g>
			<g id="Group_983" transform="translate(17.408 6.748)">
				<path id="Path_2884" class="st6" d="M123.8,113.7l7.4-4.3v1.6l-7.4,4.3V113.7z"/>
			</g>
			<g id="Group_984" transform="translate(23.644 10.383)">
				<path id="Path_2885" class="st7" d="M123.8,113.7l7.4-4.3l-0.1,22.6l-7.4,4.3L123.8,113.7z"/>
			</g>
			<g id="Group_985" transform="translate(17.412 6.748)">
				<path id="Path_2886" class="st7" d="M123.8,113.7l7.4-4.3l6.3,3.6l-7.4,4.3L123.8,113.7z"/>
			</g>
			<g id="Group_986" transform="translate(0 4.283)">
				<path id="Path_2887" class="st6" d="M140.1,114.3l8.4,4.9l-0.1,25.1l-8.4-4.9v-0.7c-1.7-0.1-3.4-0.6-4.9-1.6
					c-6.3-3.6-11.4-12.5-11.4-19.6s5.2-10.1,11.5-6.5c1.8,1.1,3.5,2.5,4.9,4.1L140.1,114.3z M147.4,142.4l0.1-22.6l-6.3-3.6v1.6
					l-0.8-1c-1.4-1.8-3.2-3.4-5.1-4.6c-5.7-3.3-10.4-0.7-10.4,5.8c0,6.6,4.5,14.5,10.3,17.8c1.5,1,3.3,1.5,5.2,1.4l0.8-0.1l0,1.6
					L147.4,142.4"/>
			</g>
			<g id="Group_987" transform="translate(1.059 5.644)">
				<path id="Path_2888" class="st7" d="M140.1,114.8l6.3,3.6l-0.1,22.6l-6.3-3.6l0-1.6l-0.8,0.1c-1.8,0.1-3.6-0.4-5.2-1.4
					c-5.8-3.4-10.4-11.2-10.3-17.8c0-6.5,4.7-9.2,10.4-5.8c2,1.2,3.7,2.7,5.1,4.6l0.8,1L140.1,114.8z M134.1,128.1
					c2.5,1.4,4.4,0.2,4.4-2.7c-0.1-3.2-1.8-6-4.4-7.8c-2.5-1.4-4.5-0.2-4.6,2.6C129.8,123.4,131.4,126.3,134.1,128.1"/>
			</g>
			<g id="Group_988" transform="translate(16.357 4.909)">
				<path id="Path_2889" class="st6" d="M123.8,113.7l7.4-4.3l8.4,4.9l-7.4,4.3L123.8,113.7z"/>
			</g>
			<g id="Group_989" transform="translate(24.7 9.766)">
				<path id="Path_2890" class="st6" d="M123.8,113.7l7.4-4.3l-0.1,25.1l-7.4,4.3L123.8,113.7z"/>
			</g>
		</g>
		<g id="Group_1009" transform="translate(258.236 133.976)">
			<g id="Group_991" transform="translate(1.063 39.491)">
				<path id="Path_2891" class="st6" d="M123.8,113.7l7.4-4.3l6.2,3.6l-7.4,4.3L123.8,113.7z"/>
			</g>
			<g id="Group_992" transform="translate(1.063 1.828)">
				<path id="Path_2892" class="st6" d="M123.9,113.7l7.4-4.3l-0.1,37.7l-7.4,4.3L123.9,113.7z"/>
			</g>
			<g id="Group_993" transform="translate(7.225 35.234)">
				<path id="Path_2893" class="st7" d="M123.8,113.7l7.4-4.3l0,7.8l-7.4,4.3L123.8,113.7z"/>
			</g>
			<g id="Group_994" transform="translate(8.281 38.794)">
				<path id="Path_2894" class="st6" d="M123.8,113.7l7.4-4.3l0,6.1l-7.4,4.3L123.8,113.7z"/>
			</g>
			<g id="Group_995" transform="translate(7.247 35.234)">
				<path id="Path_2895" class="st6" d="M123.8,113.7l7.4-4.3l6.7,11.7l-7.4,4.3L123.8,113.7z"/>
			</g>
			<g id="Group_996" transform="translate(13.969 46.943)">
				<path id="Path_2896" class="st6" d="M123.8,113.7l7.4-4.3l7.5,4.3l-7.4,4.3L123.8,113.7z"/>
			</g>
			<g id="Group_997" transform="translate(11.493 33.963)">
				<path id="Path_2897" class="st7" d="M123.8,113.7l7.4-4.3l10,17.3l-7.4,4.3L123.8,113.7z"/>
			</g>
			<g id="Group_998" transform="translate(13 34.844)">
				<path id="Path_2898" class="st6" d="M123.8,113.7l7.4-4.3l11,19.1l-7.4,4.3L123.8,113.7z"/>
			</g>
			<g id="Group_999" transform="translate(7.268 5.386)">
				<path id="Path_2899" class="st7" d="M123.8,113.7l7.4-4.3l-0.1,22.5l-7.4,4.3L123.8,113.7z"/>
			</g>
			<g id="Group_1000" transform="translate(7.268 24.082)">
				<path id="Path_2900" class="st6" d="M130.2,113.7l7.4-4.3l-6.5,3.8l-7.4,4.3L130.2,113.7z"/>
			</g>
			<g id="Group_1001" transform="translate(1.169 1.828)">
				<path id="Path_2901" class="st7" d="M123.8,113.7l7.4-4.3l6.2,3.6l-7.4,4.3L123.8,113.7z"/>
			</g>
			<g id="Group_1002" transform="translate(11.493 28.615)">
				<path id="Path_2902" class="st6" d="M123.8,119l7.4-4.3l10.1-5.3l-7.4,4.3L123.8,119z"/>
			</g>
			<g id="Group_1003" transform="translate(1.063 6.112)">
				<path id="Path_2903" class="st7" d="M130,113l-0.1,22.5l6.5-3.8l7.9,4.5l-10.1,5.3l10,17.3l-7.5-4.3l-6.7-11.7l0,7.8l-6.2-3.6
					l0.1-37.7L130,113z"/>
			</g>
			<g id="Group_1004" transform="translate(8.335 4.781)">
				<path id="Path_2904" class="st6" d="M123.8,113.7l7.4-4.3l-0.1,20.7l-7.4,4.3L123.8,113.7z"/>
			</g>
			<g id="Group_1005" transform="translate(0 4.283)">
				<path id="Path_2905" class="st6" d="M148,138.3l-11.2,5.9l11,19.1l-10.5-6.1l-5.2-9.1l0,6.1l-8.3-4.8l0.1-40.1l8.3,4.8
					l-0.1,20.7l4.9-2.9L148,138.3z M145.3,160.7l-10-17.3l10.1-5.3l-7.9-4.5l-6.5,3.8l0.1-22.5l-6.2-3.6l-0.1,37.7l6.2,3.6l0-7.8
					l6.7,11.7L145.3,160.7"/>
			</g>
			<g id="Group_1006" transform="translate(13.719 24.082)">
				<path id="Path_2906" class="st7" d="M123.8,113.7l7.4-4.3l7.9,4.5l-7.4,4.3L123.8,113.7z"/>
			</g>
			<g id="Group_1007" transform="translate(0.114)">
				<path id="Path_2907" class="st6" d="M123.8,113.7l7.4-4.3l8.3,4.8l-7.4,4.3L123.8,113.7z"/>
			</g>
			<g id="Group_1008" transform="translate(13.284 22.612)">
				<path id="Path_2908" class="st6" d="M123.8,113.7l7.4-4.3l10.9,6.3l-7.4,4.3L123.8,113.7z"/>
			</g>
		</g>
		<g id="Group_1035" transform="translate(282.588 167.545)">
			<g id="Group_1010" transform="translate(1.058 2.059)">
				<path id="Path_2909" class="st6" d="M126.8,113.7l7.4-4.3c-1.8,1.1-3,3.4-3,6.6c0,6.6,4.5,14.4,10.3,17.8
					c1.7,1.1,3.8,1.6,5.9,1.3l-7.4,4.3c-2,0.2-4.1-0.2-5.9-1.3c-5.8-3.3-10.3-11.2-10.3-17.8C123.8,117.1,124.9,114.8,126.8,113.7z"
					/>
			</g>
			<g id="Group_1011" transform="translate(6.023 13.393)">
				<path id="Path_2910" class="st7" d="M123.8,113.7l7.4-4.3l0.4,1.1l-7.4,4.3L123.8,113.7z"/>
			</g>
			<g id="Group_1012" transform="translate(6.402 14.491)">
				<path id="Path_2911" class="st7" d="M123.8,113.7l7.4-4.3c0.9,2.6,2.6,4.9,5,6.4c0.7,0.4,1.5,0.7,2.3,0.7l-7.4,4.3
					c-0.8-0.1-1.6-0.3-2.3-0.7C126.4,118.6,124.6,116.3,123.8,113.7z"/>
			</g>
			<g id="Group_1013" transform="translate(13.672 21.663)">
				<path id="Path_2912" class="st7" d="M123.8,113.7l7.4-4.3l3.5,6.1l-7.4,4.3L123.8,113.7z"/>
			</g>
			<g id="Group_1014" transform="translate(6.005 9.059)">
				<path id="Path_2913" class="st7" d="M124.1,113.7l7.4-4.3l-0.4,0.7l-7.4,4.3L124.1,113.7z"/>
			</g>
			<g id="Group_1015" transform="translate(7.842 15.662)">
				<path id="Path_2914" class="st6" d="M123.8,113.7l7.4-4.3c0.8,1.7,2,3.1,3.5,4c0.6,0.4,1.4,0.6,2.1,0.6l-7.4,4.3
					c-0.7,0-1.5-0.2-2.1-0.6C125.8,116.8,124.5,115.4,123.8,113.7z"/>
			</g>
			<g id="Group_1016" transform="translate(13.858 20.255)">
				<path id="Path_2915" class="st6" d="M123.8,113.7l7.4-4.3l5,8.7l-7.4,4.3L123.8,113.7z"/>
			</g>
			<g id="Group_1017" transform="translate(13.504 20.255)">
				<path id="Path_2916" class="st6" d="M123.8,113.7l7.4-4.3l0.4,0l-7.4,4.3L123.8,113.7z"/>
			</g>
			<g id="Group_1018" transform="translate(21.496 20.513)">
				<path id="Path_2917" class="st7" d="M131.2,109.4c0,0.6,0,1.2-0.1,1.8l-7.4,4.3c0.1-0.6,0.1-1.2,0.1-1.8L131.2,109.4z"/>
			</g>
			<g id="Group_1019" transform="translate(6.023 13.393)">
				<path id="Path_2918" class="st6" d="M123.8,113.7l7.4-4.3l15.5,8.9l-7.4,4.3L123.8,113.7z"/>
			</g>
			<g id="Group_1020" transform="translate(16.224 14.77)">
				<path id="Path_2919" class="st6" d="M123.8,113.7l7.4-4.3l0.3,1l-7.4,4.3L123.8,113.7z"/>
			</g>
			<g id="Group_1021" transform="translate(7.792 9.528)">
				<path id="Path_2920" class="st6" d="M123.8,113.7l7.4-4.3l7.1,4.1l-7.4,4.3L123.8,113.7z"/>
			</g>
			<g id="Group_1022" transform="translate(6.37 7.952)">
				<path id="Path_2921" class="st7" d="M132.2,109.4c-0.4,0.3-0.8,0.6-1.1,1.1l-7.4,4.3c0.2-0.5,0.6-0.8,1.1-1.1L132.2,109.4z"/>
			</g>
			<g id="Group_1023" transform="translate(7.433 7.581)">
				<path id="Path_2922" class="st6" d="M123.8,114.1l7.4-4.3c1-0.6,2.4-0.5,4,0.4l-7.4,4.3C126.2,113.6,124.8,113.5,123.8,114.1z"
					/>
			</g>
			<g id="Group_1024" transform="translate(11.417 8.361)">
				<path id="Path_2923" class="st6" d="M123.8,113.7l7.4-4.3c2.3,1.5,4,3.8,4.8,6.4l-7.4,4.3C127.8,117.5,126.1,115.2,123.8,113.7z
					"/>
			</g>
			<g id="Group_1025" transform="translate(1.058 5.644)">
				<path id="Path_2924" class="st7" d="M144.3,128.6c0,0.6,0,1.2-0.1,1.8l-15.5-8.9l0.4,1.1c0.9,2.6,2.6,4.9,5,6.4
					c0.7,0.4,1.5,0.7,2.3,0.7l3.5,6.1c-2,0.2-4.1-0.2-5.9-1.3c-5.8-3.3-10.3-11.2-10.3-17.8c0-6.5,4.7-9.2,10.4-5.9
					C139.9,114.1,144.3,121.9,144.3,128.6z M128.7,117.8l10.5,6.1l-0.3-1c-0.8-2.6-2.5-4.9-4.8-6.4c-2.2-1.2-4.1-1-5,0.7
					L128.7,117.8"/>
			</g>
			<g id="Group_1026" transform="translate(4.063 1.361)">
				<path id="Path_2925" class="st7" d="M131.1,110.1c1.9-1.1,4.5-0.9,7.4,0.7l-7.4,4.3c-2.9-1.7-5.5-1.8-7.4-0.7L131.1,110.1z"/>
			</g>
			<g id="Group_1027" transform="translate(3.314)">
				<path id="Path_2926" class="st6" d="M123.8,114.5l7.4-4.3c2.1-1.2,5-1,8.1,0.8l-7.4,4.3C128.7,113.4,125.8,113.3,123.8,114.5z"
					/>
			</g>
			<g id="Group_1028" transform="translate(11.433 2.781)">
				<path id="Path_2927" class="st7" d="M131.1,109.4c5.7,3.3,10.2,11.1,10.2,17.7l-7.4,4.3c0-6.6-4.4-14.4-10.2-17.7L131.1,109.4z"
					/>
			</g>
			<g id="Group_1029" transform="translate(0 4.283)">
				<path id="Path_2928" class="st6" d="M135.2,111c6.3,3.6,11.2,12.2,11.2,19.6c0,0.8-0.1,1.7-0.2,2.5l-0.1,0.4l-14.5-8.4
					c0.8,1.7,2,3.1,3.5,4c0.6,0.4,1.4,0.6,2.1,0.6l0.4,0l5,8.7l-0.5,0.1c-2.4,0.5-4.9,0-7-1.4c-6.4-3.7-11.4-12.3-11.4-19.6
					C123.8,110.3,128.9,107.4,135.2,111z M145.3,131.7c0.1-0.6,0.1-1.2,0.1-1.8c0-6.6-4.4-14.4-10.2-17.7
					c-5.7-3.3-10.4-0.7-10.4,5.9c0,6.6,4.5,14.4,10.3,17.8c1.7,1.1,3.8,1.6,5.9,1.3l-3.5-6.1c-0.8-0.1-1.6-0.3-2.3-0.7
					c-2.3-1.5-4.1-3.8-5-6.4l-0.4-1.1L145.3,131.7"/>
			</g>
			<g id="Group_1030" transform="translate(6.005 11.865)">
				<path id="Path_2929" class="st6" d="M129.2,110.2c2.3,1.5,4,3.8,4.8,6.4l0.3,1l-10.5-6.1l0.4-0.7
					C125.1,109.2,127,108.9,129.2,110.2z M125.5,111.4l7.1,4.1c-0.7-1.7-1.9-3.1-3.4-4C127.7,110.6,126.4,110.6,125.5,111.4"/>
			</g>
			<g id="Group_1031" transform="translate(6.005 11.933)">
				<path id="Path_2930" class="st6" d="M134,116.5c-0.2-0.6-0.4-1.1-0.6-1.6l-0.8,0.4l-7.1-4.1l2.7-1.6l-0.1,0l0,0
					c-0.1,0-0.1,0-0.2-0.1l0,0c0,0-0.1,0-0.1,0l0,0c-0.1,0-0.1,0-0.2,0l0,0c0,0-0.1,0-0.1,0l0,0c0,0,0,0-0.1,0l-3.6,2.1l10.5,6.1
					L134,116.5z"/>
			</g>
			<g id="Group_1032" transform="translate(7.792 13.344)">
				<path id="Path_2931" class="st6" d="M124.1,109.6L124.1,109.6L124.1,109.6l-0.2,0.1l0,0c0,0,0,0-0.1,0l0,0c0,0-0.1,0-0.1,0.1
					l0.8-0.5C124.4,109.5,124.3,109.5,124.1,109.6z"/>
			</g>
			<g id="Group_1033" transform="translate(22.38 23.611)">
				<path id="Path_2932" class="st6" d="M123.8,113.7l7.4-4.3l-0.1,0.4l-7.4,4.3L123.8,113.7z"/>
			</g>
			<g id="Group_1034" transform="translate(11.436 1.565)">
				<path id="Path_2933" class="st6" d="M123.8,113.7l7.4-4.3c6.3,3.6,11.2,12.2,11.2,19.6c0,0.8-0.1,1.7-0.2,2.5l-7.4,4.3
					c0.1-0.8,0.2-1.7,0.2-2.5C135,125.9,130.1,117.3,123.8,113.7z"/>
			</g>
		</g>
		<g id="Group_1057" transform="translate(308.89 178.249)">
			<g id="Group_1036" transform="translate(1.072 24.469)">
				<path id="Path_2934" class="st6" d="M123.8,113.7l7.4-4.3l6.2,3.6l-7.4,4.3L123.8,113.7z"/>
			</g>
			<g id="Group_1037" transform="translate(1.072 1.845)">
				<path id="Path_2935" class="st6" d="M123.8,113.7l7.4-4.3l-0.1,22.6l-7.4,4.3L123.8,113.7z"/>
			</g>
			<g id="Group_1038" transform="translate(7.225 16.654)">
				<path id="Path_2936" class="st7" d="M123.8,113.7l7.4-4.3l0,11.4l-7.4,4.3L123.8,113.7z"/>
			</g>
			<g id="Group_1039" transform="translate(8.28 17.266)">
				<path id="Path_2937" class="st6" d="M123.8,113.7l7.4-4.3l0,12.6l-7.4,4.3L123.8,113.7z"/>
			</g>
			<g id="Group_1040" transform="translate(7.257 14.109)">
				<path id="Path_2938" class="st7" d="M131.9,109.4c-0.6,0.7-0.8,1.6-0.8,2.5l-7.4,4.3c-0.1-0.9,0.2-1.8,0.8-2.5L131.9,109.4z"/>
			</g>
			<g id="Group_1041" transform="translate(8.037 14.037)">
				<path id="Path_2939" class="st7" d="M131.2,109.4L131.2,109.4l-7.4,4.4c0,0,0,0,0.1-0.1L131.2,109.4z"/>
			</g>
			<g id="Group_1042" transform="translate(8.316 14.943)">
				<path id="Path_2940" class="st6" d="M124.8,113.7l7.4-4.3c-0.7,0.5-1.1,1.4-1,2.3l-7.4,4.3C123.7,115.1,124,114.2,124.8,113.7z"
					/>
			</g>
			<g id="Group_1043" transform="translate(8.103 13.659)">
				<path id="Path_2941" class="st7" d="M131.1,109.8c-0.1,0-0.2,0.1-0.2,0.1l-0.8,0.4l-1,0.6l-5.4,3.1c0.1-0.1,0.3-0.3,0.5-0.4
					l7.4-4.3C131.4,109.5,131.3,109.6,131.1,109.8z"/>
			</g>
			<g id="Group_1044" transform="translate(7.287 5.397)">
				<path id="Path_2942" class="st7" d="M123.8,113.7l7.4-4.3v0.6l-7.4,4.3V113.7z"/>
			</g>
			<g id="Group_1045" transform="translate(1.136 1.845)">
				<path id="Path_2943" class="st7" d="M123.8,113.7l7.4-4.3l6.2,3.6l-7.4,4.3L123.8,113.7z"/>
			</g>
			<g id="Group_1046" transform="translate(7.287 6.044)">
				<path id="Path_2944" class="st7" d="M123.8,113.7l7.4-4.3l0.7,0.1l-7.4,4.3L123.8,113.7z"/>
			</g>
			<g id="Group_1047" transform="translate(8.58 13.367)">
				<path id="Path_2945" class="st6" d="M123.8,114l7.4-4.3c1-0.5,2.2-0.3,3.1,0.3c1.2,0.7,2.2,1.7,3,2.8l-7.4,4.3
					c-0.8-1.2-1.8-2.1-3-2.8C126,113.6,124.8,113.5,123.8,114z"/>
			</g>
			<g id="Group_1048" transform="translate(0.071)">
				<path id="Path_2946" class="st6" d="M123.8,113.7l7.4-4.3l8.3,4.8l-7.4,4.3L123.8,113.7z"/>
			</g>
			<g id="Group_1049" transform="translate(8.351 4.781)">
				<path id="Path_2947" class="st6" d="M123.8,113.7l7.4-4.3v0.1l-7.4,4.3V113.7z"/>
			</g>
			<g id="Group_1050" transform="translate(8.013 6.133)">
				<path id="Path_2948" class="st7" d="M123.8,113.7l7.4-4.3c1.4,0.2,2.7,0.7,3.9,1.4l-7.4,4.3
					C126.5,114.4,125.1,113.9,123.8,113.7z"/>
			</g>
			<g id="Group_1051" transform="translate(14.633 14.609)">
				<path id="Path_2949" class="st6" d="M123.8,115.9l7.4-4.3l4.1-2.2l-7.4,4.3L123.8,115.9z"/>
			</g>
			<g id="Group_1052" transform="translate(11.927 7.547)">
				<path id="Path_2950" class="st7" d="M123.8,113.7l7.4-4.3c2.8,1.8,5.2,4.2,6.8,7.1l-7.4,4.3
					C128.9,117.9,126.6,115.5,123.8,113.7z"/>
			</g>
			<g id="Group_1053" transform="translate(1.072 6.128)">
				<path id="Path_2951" class="st7" d="M134.6,115.1c2.8,1.8,5.2,4.2,6.8,7.1l-4.1,2.2c-0.8-1.2-1.8-2.1-3-2.8
					c-2.5-1.4-4.4-0.2-4.4,2.7l0,11.4l-6.2-3.6l0.1-22.6l6.2,3.6v0.6l0.7,0.1C132.1,113.9,133.4,114.4,134.6,115.1z"/>
			</g>
			<g id="Group_1054" transform="translate(19.875 14.837)">
				<path id="Path_2952" class="st6" d="M123.8,113.7l7.4-4.3l0.4,0.7l-7.4,4.3L123.8,113.7z"/>
			</g>
			<g id="Group_1055" transform="translate(8.351 4.901)">
				<path id="Path_2953" class="st6" d="M123.8,113.7l7.4-4.3c1.3,0.3,2.5,0.8,3.6,1.4c3.3,2.1,6.1,5,7.9,8.5l-7.4,4.3
					c-1.9-3.5-4.6-6.4-7.9-8.5C126.2,114.5,125,114,123.8,113.7z"/>
			</g>
			<g id="Group_1056" transform="translate(0 4.284)">
				<path id="Path_2954" class="st6" d="M143.6,124.3l0.4,0.7l-5.6,3l-0.4-0.6c-0.6-1.1-1.5-2-2.6-2.7c-1.9-1.1-3.4-0.2-3.4,2.1
					l0,12.6l-8.3-4.8l0.1-25.1l8.3,4.8v0.1c1.3,0.3,2.5,0.8,3.6,1.4C139,117.8,141.8,120.8,143.6,124.3z M138.4,126.2l4.1-2.2
					c-1.7-2.9-4-5.3-6.8-7.1c-1.2-0.7-2.5-1.2-3.9-1.4l-0.7-0.1v-0.6l-6.2-3.6l-0.1,22.6l6.2,3.6l0-11.4c0-2.9,2-4.1,4.4-2.7
					C136.6,124.1,137.6,125.1,138.4,126.2"/>
			</g>
		</g>
		<g id="Group_1091" transform="translate(330.53 190.724)">
			<g id="Group_1058" transform="translate(4.734 42.281)">
				<path id="Path_2955" class="st6" d="M123.8,113.7l7.4-4.3l4.4,2.5l-7.4,4.3L123.8,113.7z"/>
			</g>
			<g id="Group_1059" transform="translate(4.734 35.156)">
				<path id="Path_2956" class="st6" d="M123.8,113.7l7.4-4.3l0,7.1l-7.4,4.3L123.8,113.7z"/>
			</g>
			<g id="Group_1060" transform="translate(4.754 35.156)">
				<path id="Path_2957" class="st7" d="M123.8,113.7l7.4-4.3l4.5,2.6l-7.4,4.3L123.8,113.7z"/>
			</g>
			<g id="Group_1061" transform="translate(3.698 33.317)">
				<path id="Path_2958" class="st6" d="M123.8,113.7l7.4-4.3l5.6,3.2l-7.4,4.3L123.8,113.7z"/>
			</g>
			<g id="Group_1062" transform="translate(9.275 37.766)">
				<path id="Path_2959" class="st7" d="M131.1,109.4c0.7,0.4,1.4,0.7,2.1,0.8l-7.4,4.3c-0.8-0.1-1.5-0.4-2.1-0.8L131.1,109.4z"/>
			</g>
			<g id="Group_1063" transform="translate(11.421 38.568)">
				<path id="Path_2960" class="st7" d="M131.6,109.4l-7.4,4.3c-0.2,0-0.3,0-0.5,0l7.4-4.3C131.3,109.4,131.5,109.4,131.6,109.4z"/>
			</g>
			<g id="Group_1064" transform="translate(9.122 44.814)">
				<path id="Path_2961" class="st6" d="M139.3,110.4l-7.4,4.3c-2,1.2-4.8,0.9-8.1-1l7.4-4.3C134.4,111.3,137.3,111.6,139.3,110.4z"
					/>
			</g>
			<g id="Group_1065" transform="translate(11.903 38.312)">
				<path id="Path_2962" class="st7" d="M131.1,109.7c0.4,0,0.7-0.1,1-0.3l-7.4,4.3c-0.3,0.2-0.6,0.3-1,0.3l4.9-2.9l1.2-0.7l0.3-0.2
					l0.3-0.2l0.4-0.3C131,109.7,131.1,109.7,131.1,109.7z"/>
			</g>
			<g id="Group_1066" transform="translate(9.279 36.539)">
				<path id="Path_2963" class="st6" d="M134,109.9l-7.4,4.3c-0.7,0.4-1.6,0.2-2.9-0.5l7.4-4.3C132.4,110.1,133.3,110.3,134,109.9z"
					/>
			</g>
			<g id="Group_1067" transform="translate(12.9 34.881)">
				<path id="Path_2964" class="st6" d="M131.1,112.8l-7.4,4.3c0.9-0.5,1.3-1.7,1.3-3.4l7.4-4.3C132.5,111.2,132,112.3,131.1,112.8z
					"/>
			</g>
			<g id="Group_1068" transform="translate(1.068 14.034)">
				<path id="Path_2965" class="st6" d="M123.8,113.7l7.4-4.3c0,6,4.1,13.4,9.3,16.3c1,0.6,2.1,1,3.2,1.2l-7.4,4.3
					c-1.1-0.2-2.2-0.6-3.2-1.2C127.9,127.1,123.7,119.7,123.8,113.7z"/>
			</g>
			<g id="Group_1069" transform="translate(13.564 31.569)">
				<path id="Path_2966" class="st6" d="M123.8,113.7l7.4-4.3l0.7,0.1l-7.4,4.3L123.8,113.7z"/>
			</g>
			<g id="Group_1070" transform="translate(14.243 31.713)">
				<path id="Path_2967" class="st6" d="M123.8,113.7l7.4-4.3l0,3.2l-7.4,4.3L123.8,113.7z"/>
			</g>
			<g id="Group_1071" transform="translate(1.068 1.845)">
				<path id="Path_2968" class="st6" d="M123.8,113.7l7.4-4.3l0,12.2l-7.4,4.3L123.8,113.7z"/>
			</g>
			<g id="Group_1072" transform="translate(6.82 5.166)">
				<path id="Path_2969" class="st7" d="M123.8,113.7l7.4-4.3l0,12.2l-7.4,4.3L123.8,113.7z"/>
			</g>
			<g id="Group_1073" transform="translate(7.879 4.549)">
				<path id="Path_2970" class="st6" d="M123.8,113.7l7.4-4.3l0,13.4l-7.4,4.3L123.8,113.7z"/>
			</g>
			<g id="Group_1074" transform="translate(6.82 17.355)">
				<path id="Path_2971" class="st6" d="M131.1,109.4c0.1,2,0.9,3.8,2.2,5.3L126,119c-1.4-1.4-2.2-3.3-2.2-5.3L131.1,109.4z"/>
			</g>
			<g id="Group_1075" transform="translate(9.04 22.621)">
				<path id="Path_2972" class="st7" d="M132.4,110.4c0.8,0.5,1.7,0.7,2.6,0.5l-7.4,4.3c-0.9,0.2-1.8,0-2.6-0.5L132.4,110.4
					l-7.4,4.3c-0.4-0.3-0.9-0.6-1.2-1l7.4-4.3C131.5,109.8,131.9,110.1,132.4,110.4z"/>
			</g>
			<g id="Group_1076" transform="translate(13.245 21.662)">
				<path id="Path_2973" class="st6" d="M131.1,111.7l-7.4,4.3c0.7-0.5,1.1-1.4,1-2.3l7.4-4.3C132.3,110.3,131.9,111.2,131.1,111.7z
					"/>
			</g>
			<g id="Group_1077" transform="translate(7.879 17.966)">
				<path id="Path_2974" class="st6" d="M135.7,114.1l-7.4,4.3c-0.7,0.3-1.6,0.2-2.2-0.3c-1.5-1-2.4-2.6-2.4-4.4l7.4-4.3
					c0,1.8,0.9,3.4,2.4,4.4C134.2,114.3,135,114.4,135.7,114.1z"/>
			</g>
			<g id="Group_1078" transform="translate(14.28 9.473)">
				<path id="Path_2975" class="st6" d="M123.8,113.7l7.4-4.3l0,12.2l-7.4,4.3L123.8,113.7z"/>
			</g>
			<g id="Group_1079" transform="translate(13.004 23.963)">
				<path id="Path_2976" class="st7" d="M131.1,109.5c0.1,0,0.2-0.1,0.2-0.1l-7.4,4.3c-0.1,0-0.2,0.1-0.2,0.1L131.1,109.5z"/>
			</g>
			<g id="Group_1080" transform="translate(20.405 13.03)">
				<path id="Path_2977" class="st7" d="M123.8,113.7l7.4-4.3l-0.1,25.4l-7.4,4.3L123.8,113.7z"/>
			</g>
			<g id="Group_1081" transform="translate(21.464 12.414)">
				<path id="Path_2978" class="st6" d="M123.8,113.7l7.4-4.3l-0.1,26.6l-7.4,4.3L123.8,113.7z"/>
			</g>
			<g id="Group_1082" transform="translate(17.25 38.439)">
				<path id="Path_2979" class="st6" d="M134.3,109.4c0,3.7-1.2,6.2-3.2,7.4l-7.4,4.3c2-1.1,3.1-3.7,3.2-7.4L134.3,109.4z"/>
			</g>
			<g id="Group_1083" transform="translate(18.009 39.05)">
				<path id="Path_2980" class="st6" d="M131.1,117.5l-7.4,4.3c2.2-1.3,3.4-4,3.5-8.1l7.4-4.3C134.6,113.5,133.3,116.2,131.1,117.5z
					"/>
			</g>
			<g id="Group_1084" transform="translate(12.862 24.08)">
				<path id="Path_2981" class="st7" d="M131.3,109.4l-7.4,4.3c0,0-0.1,0-0.1,0l7.4-4.3C131.2,109.5,131.2,109.4,131.3,109.4z"/>
			</g>
			<g id="Group_1085" transform="translate(1.103 1.845)">
				<path id="Path_2982" class="st7" d="M123.8,113.7l7.4-4.3l5.8,3.3l-7.4,4.3L123.8,113.7z"/>
			</g>
			<g id="Group_1086" transform="translate(0.038)">
				<path id="Path_2983" class="st6" d="M123.8,113.7l7.4-4.3l7.9,4.5l-7.4,4.3L123.8,113.7z"/>
			</g>
			<g id="Group_1087" transform="translate(14.315 9.473)">
				<path id="Path_2984" class="st7" d="M123.8,113.7l7.4-4.3l6.2,3.6l-7.4,4.3L123.8,113.7z"/>
			</g>
			<g id="Group_1088" transform="translate(0 4.284)">
				<path id="Path_2985" class="st6" d="M137,117.1l8.3,4.8l-0.1,26.6c0,8.2-5.2,11.1-12.3,7l-5.4-3.1l0-9.6l5.6,3.2
					c2.5,1.4,3.9,0.6,3.9-2.3v-1.5c-1-0.3-2-0.7-2.9-1.2c-5.7-3.3-10.4-11.4-10.3-18.2l0-13.4l7.9,4.5l0,13.4c0,1.8,0.9,3.4,2.4,4.4
					c1.7,1,3,0.4,3-1.3L137,117.1z M144.2,147.9l0.1-25.4l-6.2-3.6l0,12.2c0,2.4-1.7,3.3-4,1.9c-2.1-1.4-3.4-3.7-3.4-6.2l0-12.2
					l-5.8-3.3l0,12.2c0,6,4.1,13.4,9.3,16.3c1,0.6,2.1,1,3.2,1.2l0.7,0.1l0,3.2c0,3.5-1.9,4.6-5,2.9l-4.5-2.6l0,7.1l4.4,2.5
					C139.4,158,144.1,155.3,144.2,147.9"/>
			</g>
			<g id="Group_1089" transform="translate(1.068 6.128)">
				<path id="Path_2986" class="st7" d="M143.2,120.6l-0.1,25.4c0,7.5-4.8,10.1-11.3,6.4l-4.4-2.5l0-7.1l4.5,2.6
					c3.1,1.8,5,0.7,5-2.9l0-3.2l-0.7-0.1c-1.1-0.2-2.2-0.6-3.2-1.2c-5.1-3-9.3-10.3-9.3-16.3l0-12.2l5.8,3.3l0,12.2
					c0.1,2.5,1.4,4.8,3.4,6.2c2.3,1.3,4,0.5,4-1.9l0-12.2L143.2,120.6z"/>
			</g>
			<g id="Group_1090" transform="translate(13.259 7.633)">
				<path id="Path_2987" class="st6" d="M123.8,113.7l7.4-4.3l8.3,4.8l-7.4,4.3L123.8,113.7z"/>
			</g>
		</g>
	</g>
	<path id="Path_2988" class="st4" d="M197.6,428.2"/>
	<path id="Path_2989" class="st4" d="M157.6,451.2"/>
	<path id="Path_2990" class="st4" d="M123.8,470.6"/>
</g>
</svg>
