<?xml version="1.0" encoding="UTF-8"?> <svg xmlns="http://www.w3.org/2000/svg" xmlns:xlink="http://www.w3.org/1999/xlink" width="257px" height="151px" viewBox="0 0 257 151"> <!-- Generator: Sketch 53.2 (72643) - https://sketchapp.com --> <title>ASA-logo-bw</title> <desc>Created with Sketch.</desc> <defs> <filter x="-17.7%" y="-34.5%" width="135.5%" height="169.0%" filterUnits="objectBoundingBox" id="filter-1"> <feOffset dx="0" dy="0" in="SourceAlpha" result="shadowOffsetOuter1"></feOffset> <feGaussianBlur stdDeviation="10" in="shadowOffsetOuter1" result="shadowBlurOuter1"></feGaussianBlur> <feColorMatrix values="0 0 0 0 0 0 0 0 0 0 0 0 0 0 0 0 0 0 0.4 0" type="matrix" in="shadowBlurOuter1" result="shadowMatrixOuter1"></feColorMatrix> <feMerge> <feMergeNode in="shadowMatrixOuter1"></feMergeNode> <feMergeNode in="SourceGraphic"></feMergeNode> </feMerge> </filter> </defs> <g id="Symbols" stroke="none" stroke-width="1" fill="none" fill-rule="evenodd"> <g id="Footer" transform="translate(-592.000000, -341.000000)" fill="#FFFFFF"> <g id="ASA-logo-bw" filter="url(#filter-1)" transform="translate(610.000000, 361.000000)"> <path d="M8.72972222,61.5970533 L28.2088889,0.200386667 L112.618229,0.200386667 L111.472778,3.21372 C96.5769444,3.96705333 33.1741667,4.72038667 11.4033333,61.5970533 L8.72972222,61.5970533" id="Fill-1"></path> <path d="M42.3408333,47.6603867 C38.5213889,42.3870533 43.4866667,37.4903867 43.4866667,37.4903867 C46.5422222,34.85372 71.7811111,20.1983733 79.7713889,19.4103867 C83.5908333,19.03372 89.32,19.03372 91.6116667,22.42372 C93.1394444,24.68372 92.5642361,28.46922 90.4658333,29.20372 C78.6255556,33.3470533 59.5283333,41.63372 48.4519444,49.54372 C46.0357639,51.26923 42.3408333,47.6603867 42.3408333,47.6603867" id="Fill-2"></path> <path d="M95.4311111,63.10372 L115.673785,1.33038667 L123.694618,1.33038667 L140.8825,56.7003867 L144.32,51.4270533 C148.903333,55.19372 157.305729,58.58372 160.743229,52.1803867 C164.180729,45.7770533 158.833507,37.8670533 150.812674,31.8403867 C142.79184,25.81372 139.35434,12.25372 145.465833,6.22705333 C151.576562,0.200386667 160.361285,-3.56628 171.055729,5.47372 L167.236285,12.25372 C163.41684,8.86372 157.341632,6.42781667 153.868229,11.8770533 C149.66684,18.46872 163.41684,29.5803867 166.090451,32.2170533 C173.093403,39.12286 172.583507,48.6020533 172.201562,50.8620533 C171.819618,53.1220533 188.62441,1.70705333 188.62441,1.70705333 L197.409514,1.70705333 L216.506736,63.4803867 L204.666458,63.4803867 L199.701181,46.9070533 L182.896389,46.9070533 L177.16684,63.10372 L168.764062,63.10372 L171.437674,53.6870533 C172.583507,50.2970533 169.901875,65.0842333 155.014062,64.6103867 C149.093924,64.4220533 145.083507,61.97372 142.409896,60.4670533 L142.79184,62.7270533 L131.333507,62.7270533 L126.750174,46.5303867 L109.181111,46.5303867 L103.833889,63.10372 L95.4311111,63.10372 Z M112.236285,38.4320533 L125.031424,38.4320533 L118.72934,14.3253867 L112.236285,38.4320533 Z M185.378646,38.4320533 L198.173403,38.4320533 L191.871319,14.3253867 L185.378646,38.4320533 Z" id="Fill-33"></path> <path d="M7.74965278,71.5064 L11.3257986,71.5064 L18.720625,88.7170533 L15.1177431,88.7170533 L13.3161111,84.16127 L5.65201389,84.16127 L3.85038194,88.7170533 L0.3815625,88.7170533 L7.74965278,71.5064 Z M6.56600694,81.8711367 L12.4284722,81.8711367 L9.55090278,74.4711433 L9.4703125,74.4711433 L6.56600694,81.8711367 L6.56600694,81.8711367 Z" id="Fill-6"></path> <path d="M19.6346181,76.2550367 L22.5385417,76.2550367 L22.5385417,77.9907167 L22.6191319,77.9907167 C23.533125,76.7612767 24.6892708,75.9175433 26.8946181,75.9175433 C28.5885417,75.9175433 30.1751389,76.5684233 30.7938889,77.9907167 C31.8155903,76.7130633 33.1329167,75.9175433 35.1503472,75.9175433 C38.0813889,75.9175433 39.8024306,77.0746633 39.8024306,80.1117267 L39.8024306,88.7170533 L36.7361806,88.7170533 L36.7361806,81.4375933 C36.7361806,79.4608467 36.6021181,78.0867667 34.2088542,78.0867667 C32.1379514,78.0867667 31.2510764,79.3162067 31.2510764,81.4134867 L31.2510764,88.7170533 L28.1852083,88.7170533 L28.1852083,80.7143933 C28.1852083,79.00282 27.5943403,78.0867667 25.7380903,78.0867667 C24.1514931,78.0867667 22.6997222,79.2438867 22.6997222,81.31706 L22.6997222,88.7170533 L19.6346181,88.7170533 L19.6346181,76.2550367" id="Fill-7"></path> <path d="M44.5301389,83.19738 C44.5301389,85.1496433 45.7134028,86.8853233 48.2686111,86.8853233 C50.043125,86.8853233 51.1186806,86.18623 51.6568403,84.81215 L54.5607639,84.81215 C53.8885417,87.5358267 51.3069792,89.0549233 48.2686111,89.0549233 C43.9117708,89.0549233 41.4650347,86.33087 41.4650347,82.49791 C41.4650347,78.9546067 44.0462153,75.9175433 48.1880208,75.9175433 C52.5704514,75.9175433 55.2597222,79.4608467 54.7486806,83.19738 L44.5301389,83.19738 Z M51.6835764,81.38938 C51.5754861,79.6540767 50.2581597,78.0867667 48.1880208,78.0867667 C46.0632639,78.0867667 44.6107292,79.5331667 44.5301389,81.38938 L51.6835764,81.38938 L51.6835764,81.38938 Z" id="Fill-8"></path> <path d="M56.1981597,76.2550367 L59.0753472,76.2550367 L59.0753472,78.6657033 L59.1292014,78.6657033 C59.4782986,77.33946 61.3074306,75.9175433 63.1896528,75.9175433 C63.8886111,75.9175433 64.0765278,75.9657567 64.3457986,75.9898633 L64.3457986,78.64122 C63.9153472,78.5930067 63.4581597,78.5210633 63.0284722,78.5210633 C60.9308333,78.5210633 59.2636458,80.0394067 59.2636458,82.7875667 L59.2636458,88.7170533 L56.1981597,88.7170533 L56.1981597,76.2550367" id="Fill-9"></path> <path d="M65.2544444,88.7170533 L68.3203125,88.7170533 L68.3203125,76.2550367 L65.2544444,76.2550367 L65.2544444,88.7170533 Z M65.2544444,74.1095433 L68.3203125,74.1095433 L68.3203125,71.5064 L65.2544444,71.5064 L65.2544444,74.1095433 Z" id="Fill-10"></path> <path d="M80.0169792,80.4251133 C79.7752083,78.9063933 78.5380903,78.0867667 76.8441667,78.0867667 C75.2575694,78.0867667 73.0254861,78.83445 73.0254861,82.61882 C73.0254861,84.6919933 74.0475694,86.8853233 76.7089583,86.8853233 C78.4838542,86.8853233 79.7213542,85.82463 80.0169792,84.0407367 L83.0828472,84.0407367 C82.5179514,87.27103 80.28625,89.0549233 76.7089583,89.0549233 C72.3532639,89.0549233 69.96,86.2826567 69.96,82.61882 C69.96,78.85818 72.2459375,75.9175433 76.8174306,75.9175433 C80.0437153,75.9175433 82.7864583,77.3639433 83.0828472,80.4251133 L80.0169792,80.4251133" id="Fill-11"></path> <path d="M96.2022569,85.9451633 C96.2022569,86.62015 96.3634375,86.8853233 96.9283333,86.8853233 C97.11625,86.8853233 97.3587847,86.8853233 97.6811458,86.83711 L97.6811458,88.7415367 C97.2243403,88.8858 96.2561111,89.0549233 95.7450694,89.0549233 C94.5083333,89.0549233 93.6206944,88.66884 93.3789236,87.5358267 C92.1689236,88.5968967 90.2053472,89.0549233 88.5656597,89.0549233 C86.0646875,89.0549233 83.8058681,87.8492133 83.8058681,85.4148167 C83.8058681,82.3054333 86.5753472,81.7991933 89.1572917,81.53402 C91.361875,81.17242 93.3250694,81.38938 93.3250694,79.7742333 C93.3250694,78.3523167 91.6846181,78.0867667 90.4478819,78.0867667 C88.7268403,78.0867667 87.5168403,78.7139167 87.3820139,80.06389 L84.3165278,80.06389 C84.5315625,76.8577033 87.5706944,75.9175433 90.6357986,75.9175433 C93.3521875,75.9175433 96.2022569,76.9059167 96.2022569,79.5331667 L96.2022569,85.9451633 Z M93.1363889,82.47418 C92.1956597,83.0286333 90.7163889,83.00415 89.3723264,83.22111 C88.0546181,83.4139633 86.8709722,83.8478833 86.8709722,85.2942833 C86.8709722,86.5237233 88.6195139,86.8853233 89.6950694,86.8853233 C91.0395139,86.8853233 93.1363889,86.25855 93.1363889,84.52287 L93.1363889,82.47418 L93.1363889,82.47418 Z" id="Fill-12"></path> <path d="M99.0229167,76.2550367 L101.927222,76.2550367 L101.927222,78.0867667 L101.980694,78.1353567 C102.895451,76.7612767 104.481285,75.9175433 106.309653,75.9175433 C109.322049,75.9175433 111.231007,77.3639433 111.231007,80.1603167 L111.231007,88.7170533 L108.165903,88.7170533 L108.165903,80.88314 C108.112049,78.9308767 107.251146,78.0867667 105.449514,78.0867667 C103.405729,78.0867667 102.088403,79.5331667 102.088403,81.3652733 L102.088403,88.7170533 L99.0229167,88.7170533 L99.0229167,76.2550367" id="Fill-13"></path> <path d="M122.788264,82.98042 C122.788264,85.6317767 124.966111,86.6683633 127.655382,86.6683633 C130.61316,86.6683633 131.715451,85.36698 131.715451,84.06522 C131.715451,82.7393533 130.909167,82.2090067 130.128854,81.9438333 C128.784792,81.4858067 127.036632,81.17242 124.401215,80.52154 C121.121076,79.72602 120.152847,77.9425033 120.152847,76.1582333 C120.152847,72.7117333 123.702257,71.0965867 127.171076,71.0965867 C131.177674,71.0965867 134.539167,73.0010133 134.539167,76.59253 L131.177674,76.59253 C131.016493,74.3747167 129.349306,73.55509 127.036632,73.55509 C125.477153,73.55509 123.51434,74.06133 123.51434,75.79701 C123.51434,77.0023433 124.427951,77.67733 125.799896,78.0148233 C126.095521,78.0867667 130.344653,79.0755167 131.338854,79.34069 C133.866944,80.0156767 135.076944,81.9438333 135.076944,83.72735 C135.076944,87.58404 131.258264,89.1268667 127.440347,89.1268667 C123.056771,89.1268667 119.507743,87.2469233 119.427153,82.98042 L122.788264,82.98042" id="Fill-14"></path> <path d="M135.639549,82.47418 C135.639549,78.6657033 138.194375,75.9175433 142.658542,75.9175433 C147.121563,75.9175433 149.676771,78.6657033 149.676771,82.47418 C149.676771,86.3067633 147.121563,89.0549233 142.658542,89.0549233 C138.194375,89.0549233 135.639549,86.3067633 135.639549,82.47418 Z M146.611667,82.47418 C146.611667,80.3286867 145.400521,78.0867667 142.658542,78.0867667 C139.915417,78.0867667 138.705417,80.3286867 138.705417,82.47418 C138.705417,84.6434033 139.915417,86.8853233 142.658542,86.8853233 C145.400521,86.8853233 146.611667,84.6434033 146.611667,82.47418 L146.611667,82.47418 Z" id="Fill-15"></path> <path d="M148.863611,76.2550367 L152.225104,76.2550367 L155.855104,85.5594567 L155.908576,85.5594567 L159.432014,76.2550367 L162.631563,76.2550367 L157.226667,89.39204 C156.231701,91.6335833 155.506007,93.6585433 152.305694,93.6585433 C151.579618,93.6585433 150.88066,93.61033 150.180937,93.51428 L150.180937,91.20004 C150.665243,91.27236 151.149167,91.3687867 151.633472,91.3687867 C153.058125,91.3687867 153.407986,90.6938 153.784965,89.6331067 L154.134062,88.66884 L148.863611,76.2550367" id="Fill-16"></path> <path d="M163.540208,71.5064 L166.605312,71.5064 L166.605312,77.8698067 L166.659167,77.8698067 C167.492951,76.66485 169.240729,75.9175433 170.80059,75.9175433 C175.183403,75.9175433 177.30816,78.9063933 177.30816,82.5461233 C177.30816,85.89695 175.425938,89.0549233 171.311632,89.0549233 C169.429028,89.0549233 167.412361,88.64511 166.497986,87.0058567 L166.444132,87.0058567 L166.444132,88.7170533 L163.540208,88.7170533 L163.540208,71.5064 Z M170.397257,78.0867667 C167.815312,78.0867667 166.497986,79.8465533 166.497986,82.49791 C166.497986,85.00538 167.922639,86.8853233 170.397257,86.8853233 C173.193854,86.8853233 174.242674,84.66751 174.242674,82.49791 C174.242674,80.23226 172.924583,78.0867667 170.397257,78.0867667 L170.397257,78.0867667 Z" id="Fill-17"></path> <path d="M181.256701,83.19738 C181.256701,85.1496433 182.439583,86.8853233 184.994028,86.8853233 C186.768542,86.8853233 187.844097,86.18623 188.382257,84.81215 L191.286181,84.81215 C190.613958,87.5358267 188.032396,89.0549233 184.994028,89.0549233 C180.637951,89.0549233 178.190451,86.33087 178.190451,82.49791 C178.190451,78.9546067 180.772396,75.9175433 184.913438,75.9175433 C189.295868,75.9175433 191.985139,79.4608467 191.474479,83.19738 L181.256701,83.19738 Z M188.408993,81.38938 C188.300903,79.6540767 186.983576,78.0867667 184.913438,78.0867667 C182.788681,78.0867667 181.33691,79.5331667 181.256701,81.38938 L188.408993,81.38938 L188.408993,81.38938 Z" id="Fill-18"></path> <path d="M204.970486,85.9451633 C204.970486,86.62015 205.131667,86.8853233 205.696562,86.8853233 C205.884479,86.8853233 206.127014,86.8853233 206.448993,86.83711 L206.448993,88.7415367 C205.992569,88.8858 205.02434,89.0549233 204.513299,89.0549233 C203.276562,89.0549233 202.389687,88.66884 202.147153,87.5358267 C200.937153,88.5968967 198.97434,89.0549233 197.333125,89.0549233 C194.832535,89.0549233 192.573715,87.8492133 192.573715,85.4148167 C192.573715,82.3054333 195.343576,81.7991933 197.924757,81.53402 C200.130104,81.17242 202.093299,81.38938 202.093299,79.7742333 C202.093299,78.3523167 200.452847,78.0867667 199.216111,78.0867667 C197.495069,78.0867667 196.285069,78.7139167 196.150243,80.06389 L193.084757,80.06389 C193.299792,76.8577033 196.338924,75.9175433 199.404028,75.9175433 C202.120035,75.9175433 204.970486,76.9059167 204.970486,79.5331667 L204.970486,85.9451633 Z M201.904618,82.47418 C200.963889,83.0286333 199.484618,83.00415 198.140556,83.22111 C196.822847,83.4139633 195.639201,83.8478833 195.639201,85.2942833 C195.639201,86.5237233 197.386979,86.8853233 198.462535,86.8853233 C199.807743,86.8853233 201.904618,86.25855 201.904618,84.52287 L201.904618,82.47418 L201.904618,82.47418 Z" id="Fill-19"></path> <path d="M207.791146,76.2550367 L210.695451,76.2550367 L210.695451,78.0867667 L210.748924,78.1353567 C211.663681,76.7612767 213.249514,75.9175433 215.078646,75.9175433 C218.089514,75.9175433 219.999236,77.3639433 219.999236,80.1603167 L219.999236,88.7170533 L216.933368,88.7170533 L216.933368,80.88314 C216.879514,78.9308767 216.019375,78.0867667 214.217743,78.0867667 C212.173958,78.0867667 210.856632,79.5331667 210.856632,81.3652733 L210.856632,88.7170533 L207.791146,88.7170533 L207.791146,76.2550367" id="Fill-20"></path> <path d="M49.7604861,91.8464 L53.3373958,91.8464 L60.7322222,109.05743 L57.1285764,109.05743 L55.3269444,104.50127 L47.6636111,104.50127 L45.8619792,109.05743 L42.3931597,109.05743 L49.7604861,91.8464 Z M48.5772222,102.211137 L54.4400694,102.211137 L51.5628819,94.8111433 L51.4822917,94.8111433 L48.5772222,102.211137 L48.5772222,102.211137 Z" id="Fill-21"></path> <path d="M63.958125,105.0561 C64.1189236,106.646763 65.4641319,107.224947 67.1045833,107.224947 C68.2607292,107.224947 70.2773958,107.00874 70.1968056,105.586447 C70.1162153,104.13967 67.8841319,103.970923 65.6520486,103.51252 C63.3932292,103.079353 61.1882639,102.356153 61.1882639,99.8249533 C61.1882639,97.1012767 64.4691667,96.2575433 66.9964931,96.2575433 C69.8469444,96.2575433 72.4285069,97.3182367 72.8054861,100.090503 L69.6051736,100.090503 C69.3359028,98.7883667 68.1259028,98.4267667 66.7814583,98.4267667 C65.8938194,98.4267667 64.2541319,98.61962 64.2541319,99.70442 C64.2541319,101.054393 66.5129514,101.247247 68.7717708,101.705273 C71.0030903,102.162923 73.2619097,102.886123 73.2619097,105.34538 C73.2619097,108.310123 69.9282986,109.394547 67.0499653,109.394547 C63.5544097,109.394547 60.9464931,107.996737 60.8926389,105.0561 L63.958125,105.0561" id="Fill-22"></path> <path d="M77.4243403,105.0561 C77.5855208,106.646763 78.9299653,107.224947 80.5704167,107.224947 C81.7265625,107.224947 83.7436111,107.00874 83.6630208,105.586447 C83.5820486,104.13967 81.3507292,103.970923 79.1186458,103.51252 C76.8598264,103.079353 74.6548611,102.356153 74.6548611,99.8249533 C74.6548611,97.1012767 77.9353819,96.2575433 80.4630903,96.2575433 C83.3131597,96.2575433 85.8951042,97.3182367 86.2713194,100.090503 L83.0717708,100.090503 C82.8025,98.7883667 81.5925,98.4267667 80.2480556,98.4267667 C79.3604167,98.4267667 77.7199653,98.61962 77.7199653,99.70442 C77.7199653,101.054393 79.9787847,101.247247 82.2376042,101.705273 C84.4696875,102.162923 86.7285069,102.886123 86.7285069,105.34538 C86.7285069,108.310123 83.39375,109.394547 80.5165625,109.394547 C77.0210069,109.394547 74.4123264,107.996737 74.3584722,105.0561 L77.4243403,105.0561" id="Fill-23"></path> <path d="M87.1261111,102.81418 C87.1261111,99.0057033 89.6801736,96.2575433 94.1443403,96.2575433 C98.608125,96.2575433 101.163333,99.0057033 101.163333,102.81418 C101.163333,106.646763 98.608125,109.394547 94.1443403,109.394547 C89.6801736,109.394547 87.1261111,106.646763 87.1261111,102.81418 Z M98.0970833,102.81418 C98.0970833,100.668687 96.8870833,98.4267667 94.1443403,98.4267667 C91.4012153,98.4267667 90.1912153,100.668687 90.1912153,102.81418 C90.1912153,104.983403 91.4012153,107.224947 94.1443403,107.224947 C96.8870833,107.224947 98.0970833,104.983403 98.0970833,102.81418 L98.0970833,102.81418 Z" id="Fill-24"></path> <path d="M112.073958,100.765113 C111.832188,99.2463933 110.594687,98.4267667 108.900764,98.4267667 C107.314549,98.4267667 105.082465,99.17445 105.082465,102.95882 C105.082465,105.031993 106.104549,107.224947 108.766319,107.224947 C110.541215,107.224947 111.777951,106.16463 112.073958,104.380737 L115.139062,104.380737 C114.574549,107.61103 112.342465,109.394547 108.766319,109.394547 C104.410625,109.394547 102.016597,106.62228 102.016597,102.95882 C102.016597,99.19818 104.302153,96.2575433 108.873646,96.2575433 C112.100694,96.2575433 114.843819,97.7039433 115.139062,100.765113 L112.073958,100.765113" id="Fill-25"></path> <path d="M116.561806,109.05743 L119.62691,109.05743 L119.62691,96.5950367 L116.561806,96.5950367 L116.561806,109.05743 Z M116.561806,94.4495433 L119.62691,94.4495433 L119.62691,91.8464 L116.561806,91.8464 L116.561806,94.4495433 Z" id="Fill-26"></path> <path d="M133.313507,106.284787 C133.313507,106.96015 133.474687,107.224947 134.039583,107.224947 C134.228264,107.224947 134.469653,107.224947 134.792778,107.17711 L134.792778,109.081913 C134.33559,109.2258 133.367361,109.394547 132.856319,109.394547 C131.619201,109.394547 130.732326,109.00884 130.490174,107.875827 C129.279792,108.936897 127.317361,109.394547 125.67691,109.394547 C123.175556,109.394547 120.9175,108.189213 120.9175,105.755193 C120.9175,102.645433 123.686597,102.139193 126.268542,101.87402 C128.473507,101.51242 130.436319,101.72938 130.436319,100.114233 C130.436319,98.6923167 128.795868,98.4267667 127.559132,98.4267667 C125.83809,98.4267667 124.62809,99.0539167 124.493646,100.40389 L121.427778,100.40389 C121.643194,97.1977033 124.681944,96.2575433 127.747049,96.2575433 C130.463056,96.2575433 133.313507,97.2459167 133.313507,99.8731667 L133.313507,106.284787 Z M130.248403,102.81418 C129.30691,103.368633 127.828403,103.34415 126.483194,103.56111 C125.165868,103.753963 123.982604,104.187883 123.982604,105.634283 C123.982604,106.863723 125.730382,107.224947 126.806319,107.224947 C128.150764,107.224947 130.248403,106.598173 130.248403,104.863247 L130.248403,102.81418 L130.248403,102.81418 Z" id="Fill-27"></path> <path d="M135.004757,96.5950367 L137.317431,96.5950367 L137.317431,92.8585033 L140.382535,92.8585033 L140.382535,96.5950367 L143.152396,96.5950367 L143.152396,98.6441033 L140.382535,98.6441033 L140.382535,105.29679 C140.382535,106.429803 140.490625,107.00874 141.861806,107.00874 C142.292257,107.00874 142.721944,107.00874 143.152396,106.91156 L143.152396,109.033323 C142.480174,109.081913 141.835069,109.177587 141.162847,109.177587 C137.962535,109.177587 137.370903,108.06868 137.317431,105.99626 L137.317431,98.6441033 L135.004757,98.6441033 L135.004757,96.5950367" id="Fill-28"></path> <path d="M145.216424,109.05743 L148.281528,109.05743 L148.281528,96.5950367 L145.216424,96.5950367 L145.216424,109.05743 Z M145.216424,94.4495433 L148.281528,94.4495433 L148.281528,91.8464 L145.216424,91.8464 L145.216424,94.4495433 Z" id="Fill-29"></path> <path d="M149.679062,102.81418 C149.679062,99.0057033 152.233889,96.2575433 156.698056,96.2575433 C161.161076,96.2575433 163.716285,99.0057033 163.716285,102.81418 C163.716285,106.646763 161.161076,109.394547 156.698056,109.394547 C152.233889,109.394547 149.679062,106.646763 149.679062,102.81418 Z M160.650035,102.81418 C160.650035,100.668687 159.440035,98.4267667 156.698056,98.4267667 C153.954931,98.4267667 152.744931,100.668687 152.744931,102.81418 C152.744931,104.983403 153.954931,107.224947 156.698056,107.224947 C159.440035,107.224947 160.650035,104.983403 160.650035,102.81418 L160.650035,102.81418 Z" id="Fill-30"></path> <path d="M165.780313,96.5950367 L168.684236,96.5950367 L168.684236,98.4267667 L168.73809,98.47498 C169.652083,97.1012767 171.238681,96.2575433 173.067049,96.2575433 C176.079444,96.2575433 177.988403,97.7039433 177.988403,100.49994 L177.988403,109.05743 L174.922917,109.05743 L174.922917,101.22314 C174.868681,99.2708767 174.008542,98.4267667 172.20691,98.4267667 C170.163125,98.4267667 168.845417,99.8731667 168.845417,101.705273 L168.845417,109.05743 L165.780313,109.05743 L165.780313,96.5950367" id="Fill-31"></path> <path d="M184.33059,107.83477 C184.33059,105.407907 186.18684,103.577307 188.564826,103.577307 C190.916458,103.577307 192.77309,105.407907 192.77309,107.83477 C192.77309,110.303067 190.916458,112.120107 188.564826,112.120107 C186.18684,112.120107 184.33059,110.303067 184.33059,107.83477 Z M188.564826,112.974387 C191.397326,112.974387 193.817326,110.804787 193.817326,107.83477 C193.817326,104.893003 191.397326,102.723027 188.564826,102.723027 C185.704826,102.723027 183.28559,104.893003 183.28559,107.83477 C183.28559,110.804787 185.704826,112.974387 188.564826,112.974387 Z M187.465208,108.24157 L188.51059,108.24157 L190.091076,110.804787 L191.108576,110.804787 L189.403958,108.201267 C190.283576,108.093163 190.95809,107.631747 190.95809,106.57369 C190.95809,105.407907 190.25684,104.893003 188.840208,104.893003 L186.557326,104.893003 L186.557326,110.804787 L187.465208,110.804787 L187.465208,108.24157 Z M187.465208,107.482587 L187.465208,105.651987 L188.70309,105.651987 C189.33559,105.651987 190.00934,105.787587 190.00934,106.520203 C190.00934,107.42797 189.321458,107.482587 188.551458,107.482587 L187.465208,107.482587 L187.465208,107.482587 Z" id="Fill-32"></path> </g> </g> </g> </svg> 