<svg viewBox="0 0 779.19 866.58" xmlns="http://www.w3.org/2000/svg"><path d="m82.24 516.27v73.9a15.62 15.62 0 0 0 10.6 14.83l80.95 27.48a16.37 16.37 0 0 1 1.79.73l53.15 25.77a15.66 15.66 0 0 0 8.33 1.5l35.94-3.48a15.14 15.14 0 0 1 3.56.06l100.14 13.21a15.54 15.54 0 0 1 6.8 2.62l76.1 52.37a15.37 15.37 0 0 1 4 4l22.16 31.85a15.8 15.8 0 0 0 3.31 3.47l73.51 56.42a15.35 15.35 0 0 1 2.5 2.4l33.57 40.33a15.62 15.62 0 0 0 17.06 4.79l65.52-22.4a15.6 15.6 0 0 0 6-3.74l55.34-55.45a15.62 15.62 0 0 0 3.89-15.57l-32.71-107.87a15.66 15.66 0 0 1 1.63-12.7l63.54-103.79a15.64 15.64 0 0 0 .07-16.2l-18.55-30.87a15.7 15.7 0 0 0 -4-4.41l-110.54-83.81a15.62 15.62 0 0 1 -4.56-19.41l29.3-58.9a15.62 15.62 0 0 0 -.27-14.43l-20.2-37.06a15.58 15.58 0 0 0 -8.86-7.37l-44-14.41-66-25.43a15.42 15.42 0 0 1 -4.39-2.58l-89.44-74.59a15.44 15.44 0 0 0 -3.82-2.34l-81.87-35.3a15.63 15.63 0 0 0 -20.62 8.36c-5.61 13.55-25.12 12.59-29.37-1.44l-19.6-64.59a15.55 15.55 0 0 0 -4.19-6.79l-33.48-31.72a15.57 15.57 0 0 0 -7.14-3.87l-70.06-16.67a15.63 15.63 0 0 0 -18.21 9.63l-33.94 89a15.37 15.37 0 0 1 -1.51 3l-76.93 117.86a15.88 15.88 0 0 0 -2 4.51l-15.43 57.83a15.11 15.11 0 0 1 -1.77 4.13l-13.22 21.58a15.62 15.62 0 0 0 -.9 14.6l17 37.43a15.64 15.64 0 0 0 8.14 7.93l42.25 17.9a15.6 15.6 0 0 1 9.53 14.11z" fill="#38ccff" transform="translate(-2.03 -2.74)"/><path d="m162 122.44 18.14-10.88a7.8 7.8 0 0 1 7.87 0l468.15 270.28a7.86 7.86 0 0 1 3.94 6.84l-1 354a7.8 7.8 0 0 1 -4 6.82l-19 11.06" fill="#38ccff" stroke="#005174" stroke-linecap="round" stroke-linejoin="round" stroke-width="2" transform="translate(-2.03 -2.74)"/><path d="m175.21 472.37a7.86 7.86 0 0 0 3.94 6.84" fill="#cef" stroke="#005174" stroke-linecap="round" stroke-linejoin="round" stroke-width="2" transform="translate(-2.03 -2.74)"/><path d="m161 490.13 468.09 270.28a7.89 7.89 0 0 0 10.76-2.88 7.8 7.8 0 0 0 1-3.92l1-352.75a10 10 0 0 0 -5-8.73l-467-269.65a7.87 7.87 0 0 0 -11.81 6.8l-1 354a7.87 7.87 0 0 0 3.96 6.85z" fill="#38ccff" stroke="#005174" stroke-linecap="round" stroke-linejoin="round" stroke-width="2" transform="translate(-2.03 -2.74)"/><path d="m638.39 392.67 18.74-8.99" fill="none" stroke="#005174" stroke-linecap="round" stroke-linejoin="round" stroke-width="2"/><path d="m640.18 405.39 17.85-8.29" fill="none" stroke="#005174" stroke-linecap="round" stroke-linejoin="round" stroke-width="2"/><path d="m640.18 418.83 17.85-8.29" fill="none" stroke="#005174" stroke-linecap="round" stroke-linejoin="round" stroke-width="2"/><path d="m640.18 432.27 17.85-8.29" fill="none" stroke="#005174" stroke-linecap="round" stroke-linejoin="round" stroke-width="2"/><path d="m640.18 445.7 17.85-8.29" fill="none" stroke="#005174" stroke-linecap="round" stroke-linejoin="round" stroke-width="2"/><path d="m640.18 459.14 17.69-8.21" fill="none" stroke="#005174" stroke-linecap="round" stroke-linejoin="round" stroke-width="2"/><path d="m640.18 472.58 17.3-8.03" fill="none" stroke="#005174" stroke-linecap="round" stroke-linejoin="round" stroke-width="2"/><path d="m640.18 486.01 17.2-7.98" fill="none" stroke="#005174" stroke-linecap="round" stroke-linejoin="round" stroke-width="2"/><path d="m640.18 499.45 17.35-8.06" fill="none" stroke="#005174" stroke-linecap="round" stroke-linejoin="round" stroke-width="2"/><path d="m640.18 512.89 17.3-8.03" fill="none" stroke="#005174" stroke-linecap="round" stroke-linejoin="round" stroke-width="2"/><path d="m640.18 526.33 17.16-7.97" fill="none" stroke="#005174" stroke-linecap="round" stroke-linejoin="round" stroke-width="2"/><path d="m640.18 539.76 17.05-7.91" fill="none" stroke="#005174" stroke-linecap="round" stroke-linejoin="round" stroke-width="2"/><path d="m640.18 553.2 17.06-7.92" fill="none" stroke="#005174" stroke-linecap="round" stroke-linejoin="round" stroke-width="2"/><path d="m640.18 566.64 17.29-8.03" fill="none" stroke="#005174" stroke-linecap="round" stroke-linejoin="round" stroke-width="2"/><path d="m640.18 580.08 17.23-8.01" fill="none" stroke="#005174" stroke-linecap="round" stroke-linejoin="round" stroke-width="2"/><path d="m640.18 593.51 17.07-7.93" fill="none" stroke="#005174" stroke-linecap="round" stroke-linejoin="round" stroke-width="2"/><path d="m640.18 606.95 16.76-7.78" fill="none" stroke="#005174" stroke-linecap="round" stroke-linejoin="round" stroke-width="2"/><path d="m640.18 620.39 17.19-7.99" fill="none" stroke="#005174" stroke-linecap="round" stroke-linejoin="round" stroke-width="2"/><path d="m640.18 633.82 16.89-7.84" fill="none" stroke="#005174" stroke-linecap="round" stroke-linejoin="round" stroke-width="2"/><path d="m640.18 647.26 16.86-7.83" fill="none" stroke="#005174" stroke-linecap="round" stroke-linejoin="round" stroke-width="2"/><path d="m640.18 660.7 16.93-7.86" fill="none" stroke="#005174" stroke-linecap="round" stroke-linejoin="round" stroke-width="2"/><path d="m640.18 674.14 16.53-7.68" fill="none" stroke="#005174" stroke-linecap="round" stroke-linejoin="round" stroke-width="2"/><path d="m640.18 687.57 16.96-7.87" fill="none" stroke="#005174" stroke-linecap="round" stroke-linejoin="round" stroke-width="2"/><path d="m640.18 701.01 16.72-7.77" fill="none" stroke="#005174" stroke-linecap="round" stroke-linejoin="round" stroke-width="2"/><path d="m640.18 714.45 16.82-7.82" fill="none" stroke="#005174" stroke-linecap="round" stroke-linejoin="round" stroke-width="2"/><path d="m640.18 727.88 16.85-7.82" fill="none" stroke="#005174" stroke-linecap="round" stroke-linejoin="round" stroke-width="2"/><path d="m657.02 733.5-16.84 7.82" fill="none" stroke="#005174" stroke-linecap="round" stroke-linejoin="round" stroke-width="2"/><path d="m228.12 528.84 73.88-42.47a1 1 0 0 0 .37-1.39.89.89 0 0 0 -.36-.36l-93.1-55.4a9.53 9.53 0 0 0 -9.73 0l-41.49 24.5" fill="none" stroke="#005174" stroke-linecap="round" stroke-linejoin="round" transform="translate(-2.03 -2.74)"/><path d="m302.48 486.17.5 53.47a4.47 4.47 0 0 1 -2.27 3.94l-23.78 13.5" fill="none" stroke="#005174" stroke-linecap="round" stroke-linejoin="round" transform="translate(-2.03 -2.74)"/><path d="m259.71 547.34-.09-25.34a3 3 0 0 1 1.5-2.6l33.1-19.08a3 3 0 0 1 4.49 2.59v32.84a3 3 0 0 1 -1.5 2.59l-26.53 15.3" fill="none" stroke="#005174" stroke-linecap="round" stroke-linejoin="round" transform="translate(-2.03 -2.74)"/><path d="m266.79 536.19 22.73-13.1a1.62 1.62 0 0 1 2.42 1.4v9.58a1.63 1.63 0 0 1 -.81 1.4l-22.65 13.06a1.62 1.62 0 0 1 -2.21-.59 1.71 1.71 0 0 1 -.22-.8l-.05-9.54a1.63 1.63 0 0 1 .79-1.41z" fill="none" stroke="#005174" stroke-linecap="round" stroke-linejoin="round" transform="translate(-2.03 -2.74)"/><path d="m249.33 453.17 102-58.74 9.48 6.33" fill="none" stroke="#005174" stroke-linecap="round" stroke-linejoin="round" transform="translate(-2.03 -2.74)"/><path d="m257.7 456.65 106.51-61.46" fill="none" stroke="#005174" stroke-linecap="round" stroke-linejoin="round"/><path d="m302.84 512.75 126.1-72.75 9.63 6.19-135.63 78.15" fill="none" stroke="#005174" stroke-linecap="round" stroke-linejoin="round" transform="translate(-2.03 -2.74)"/><path d="m344.22 385.42 87.63 50.35v-17l-87.63-50z" fill="none" stroke="#005174" stroke-linecap="round" stroke-linejoin="round" transform="translate(-2.03 -2.74)"/><path d="m349.29 391.68v-4.81" fill="none" stroke="#005174" stroke-linecap="round" stroke-linejoin="round"/><path d="m426.91 437.21v-5.81" fill="none" stroke="#005174" stroke-linecap="round" stroke-linejoin="round"/><path d="m431.85 435.77 6.31-3 .41 13.39" fill="none" stroke="#005174" stroke-linecap="round" stroke-linejoin="round" transform="translate(-2.03 -2.74)"/><path d="m358.78 398.02v-5.53" fill="none" stroke="#005174" stroke-linecap="round" stroke-linejoin="round"/><path d="m344.22 368.69 12.55-7.2 88.4 50.67s0 0 0 0l-13.32 6.53" fill="none" stroke="#005174" stroke-linecap="round" stroke-linejoin="round" transform="translate(-2.03 -2.74)"/><path d="m445.79 412.19v-18.1l-88.52-49.89-.19 17.16" fill="none" stroke="#005174" stroke-linecap="round" stroke-linejoin="round" transform="translate(-2.03 -2.74)"/><path d="m357.27 344.2 46.29-26.29a6.07 6.07 0 0 1 6.07 0l84.74 49.66-48.58 26.48" fill="none" stroke="#005174" stroke-linecap="round" stroke-linejoin="round" transform="translate(-2.03 -2.74)"/><path d="m414.2 422.12 14.27 8.2v-9.61l-14.28-8.16s-.39 9.57.01 9.57z" fill="none" stroke="#005174" stroke-linecap="round" stroke-linejoin="round" transform="translate(-2.03 -2.74)"/><path d="m424.37 419.28-10.08-5.75" fill="none" stroke="#005174" stroke-linecap="round" stroke-linejoin="round"/><path d="m424.37 421.6-10.08-5.75" fill="none" stroke="#005174" stroke-linecap="round" stroke-linejoin="round"/><path d="m424.37 423.92-10.08-5.75" fill="none" stroke="#005174" stroke-linecap="round" stroke-linejoin="round"/><path d="m357.42 388.79-9.58-5.39v-9.57l9.58 5.39z" fill="none" stroke="#005174" stroke-linecap="round" stroke-linejoin="round" transform="translate(-2.03 -2.74)"/><path d="m490.56 420.11-41.93 22.89-.23-46.6 41.93-22.85z" fill="none" stroke="#005174" stroke-linecap="round" stroke-linejoin="round" transform="translate(-2.03 -2.74)"/><path d="m456.39 436.43-5.8-3.33v-35.1l5.8 3.33s.08 35.17 0 35.1z" fill="none" stroke="#005174" stroke-linecap="round" stroke-linejoin="round" transform="translate(-2.03 -2.74)"/><path d="m450.84 397.79 24.09-13.14 4.52 3.4-23.06 13.24" fill="none" stroke="#005174" stroke-linecap="round" stroke-linejoin="round" transform="translate(-2.03 -2.74)"/><path d="m456.39 436.43 23.15-12.83v-35.52" fill="none" stroke="#005174" stroke-linecap="round" stroke-linejoin="round" transform="translate(-2.03 -2.74)"/><path d="m465.8 397.05-8.14 4.68" fill="none" stroke="#005174" stroke-linecap="round" stroke-linejoin="round"/><path d="m465.8 400.98-8.14 4.68" fill="none" stroke="#005174" stroke-linecap="round" stroke-linejoin="round"/><path d="m465.8 404.91-8.14 4.68" fill="none" stroke="#005174" stroke-linecap="round" stroke-linejoin="round"/><path d="m459.68 431.34 8.15-4.69v-15.07l-8.15 4.68z" fill="none" stroke="#005174" stroke-linecap="round" stroke-linejoin="round" transform="translate(-2.03 -2.74)"/><path d="m471 416 6.84-3.94v-19.7l-6.84 3.94z" fill="none" stroke="#005174" stroke-linecap="round" stroke-linejoin="round" transform="translate(-2.03 -2.74)"/><path d="m471 424.82 6.84-3.93v-6.6l-6.84 3.93z" fill="none" stroke="#005174" stroke-linecap="round" stroke-linejoin="round" transform="translate(-2.03 -2.74)"/><circle cx="483.62" cy="379.2" fill="none" r="1.6" stroke="#005174" stroke-linecap="round" stroke-linejoin="round"/><circle cx="483.62" cy="385.31" fill="none" r="1.6" stroke="#005174" stroke-linecap="round" stroke-linejoin="round"/><circle cx="483.62" cy="391.41" fill="none" r="1.6" stroke="#005174" stroke-linecap="round" stroke-linejoin="round"/><circle cx="483.62" cy="397.52" fill="none" r="1.6" stroke="#005174" stroke-linecap="round" stroke-linejoin="round"/><circle cx="483.62" cy="403.62" fill="none" r="1.6" stroke="#005174" stroke-linecap="round" stroke-linejoin="round"/><circle cx="483.62" cy="409.73" fill="none" r="1.6" stroke="#005174" stroke-linecap="round" stroke-linejoin="round"/><circle cx="483.62" cy="415.83" fill="none" r="1.6" stroke="#005174" stroke-linecap="round" stroke-linejoin="round"/><path d="m585.19 362.32-90.82 53v-47.62" fill="none" stroke="#005174" stroke-linecap="round" stroke-linejoin="round" transform="translate(-2.03 -2.74)"/><path d="m492.56 399.52 79.4-46.33" fill="none" stroke="#005174" stroke-linecap="round" stroke-linejoin="round"/><path d="m456.19 343.28 49.48-28.88" fill="none" stroke="#005174" stroke-linecap="round" stroke-linejoin="round"/><path d="m445.55 336.73 49.11-28.65" fill="none" stroke="#005174" stroke-linecap="round" stroke-linejoin="round"/><path d="m302.77 496.75 1.34-.69 3.64 2.06-3.69 1.88-1.29-.73" fill="none" stroke="#005174" stroke-linecap="round" stroke-linejoin="round" transform="translate(-2.03 -2.74)"/><path d="m269.6 465.25-1.08-2.11 2.07-3.64 1.88 3.69-1.6 2.82" fill="none" stroke="#005174" stroke-linecap="round" stroke-linejoin="round" transform="translate(-2.03 -2.74)"/><path d="m281.57 472.48-1.3-2.56 2.06-3.64 1.89 3.69-1.64 2.88" fill="none" stroke="#005174" stroke-linecap="round" stroke-linejoin="round" transform="translate(-2.03 -2.74)"/><path d="m293.4 479.43-1.4-2.72 2.06-3.65 1.89 3.69-1.73 3.06" fill="none" stroke="#005174" stroke-linecap="round" stroke-linejoin="round" transform="translate(-2.03 -2.74)"/><path d="m305.64 487.18-1.89-3.69 2.06-3.64 1.89 3.69z" fill="none" stroke="#005174" stroke-linecap="round" stroke-linejoin="round" transform="translate(-2.03 -2.74)"/><path d="m317.55 486.63 1.89 3.69-2.06 3.68-1.89-3.69z" fill="none" stroke="#005174" stroke-linecap="round" stroke-linejoin="round" transform="translate(-2.03 -2.74)"/><path d="m280.22 455.33 3.69-1.88 3.64 2.06-3.69 1.89z" fill="none" stroke="#005174" stroke-linecap="round" stroke-linejoin="round" transform="translate(-2.03 -2.74)"/><path d="m292 462.12 3.69-1.89 3.64 2.06-3.69 1.89z" fill="none" stroke="#005174" stroke-linecap="round" stroke-linejoin="round" transform="translate(-2.03 -2.74)"/><path d="m303.7 468.9 3.69-1.89 3.64 2.06-3.69 1.93z" fill="none" stroke="#005174" stroke-linecap="round" stroke-linejoin="round" transform="translate(-2.03 -2.74)"/><path d="m315.44 475.69 3.69-1.89 3.65 2.06-3.7 1.89z" fill="none" stroke="#005174" stroke-linecap="round" stroke-linejoin="round" transform="translate(-2.03 -2.74)"/><path d="m327.18 482.46 3.69-1.88 3.65 2.06-3.69 1.89z" fill="none" stroke="#005174" stroke-linecap="round" stroke-linejoin="round" transform="translate(-2.03 -2.74)"/><path d="m294.61 450.21 1.28-3.94 4-1.12-1.27 3.94z" fill="none" stroke="#005174" stroke-linecap="round" stroke-linejoin="round" transform="translate(-2.03 -2.74)"/><path d="m306.35 457 1.28-3.94 4-1.12-1.27 3.94z" fill="none" stroke="#005174" stroke-linecap="round" stroke-linejoin="round" transform="translate(-2.03 -2.74)"/><path d="m318.1 463.78 1.27-3.95 4-1.12-1.28 4z" fill="none" stroke="#005174" stroke-linecap="round" stroke-linejoin="round" transform="translate(-2.03 -2.74)"/><path d="m329.84 470.56 1.27-3.95 4-1.12-1.28 3.95z" fill="none" stroke="#005174" stroke-linecap="round" stroke-linejoin="round" transform="translate(-2.03 -2.74)"/><path d="m341.58 477.34 1.28-3.94 4-1.12-1.28 3.94z" fill="none" stroke="#005174" stroke-linecap="round" stroke-linejoin="round" transform="translate(-2.03 -2.74)"/><path d="m307 439.85 3.69-1.89 3.65 2.06-3.69 1.89z" fill="none" stroke="#005174" stroke-linecap="round" stroke-linejoin="round" transform="translate(-2.03 -2.74)"/><path d="m318.73 446.63 3.69-1.89 3.64 2.07-3.69 1.88z" fill="none" stroke="#005174" stroke-linecap="round" stroke-linejoin="round" transform="translate(-2.03 -2.74)"/><path d="m330.47 453.41 3.69-1.88 3.64 2.06-3.69 1.88z" fill="none" stroke="#005174" stroke-linecap="round" stroke-linejoin="round" transform="translate(-2.03 -2.74)"/><path d="m342.21 460.2 3.69-1.89 3.64 2.06-3.69 1.89z" fill="none" stroke="#005174" stroke-linecap="round" stroke-linejoin="round" transform="translate(-2.03 -2.74)"/><path d="m354 467 3.69-1.89 3.65 2.06-3.7 1.89z" fill="none" stroke="#005174" stroke-linecap="round" stroke-linejoin="round" transform="translate(-2.03 -2.74)"/><path d="m324 435.86-1.89-3.69 2.06-3.64 1.89 3.69z" fill="none" stroke="#005174" stroke-linecap="round" stroke-linejoin="round" transform="translate(-2.03 -2.74)"/><path d="m335.69 442.64-1.89-3.64 2.06-3.64 1.89 3.69z" fill="none" stroke="#005174" stroke-linecap="round" stroke-linejoin="round" transform="translate(-2.03 -2.74)"/><path d="m347.43 449.43-1.89-3.7 2.07-3.64 1.88 3.69z" fill="none" stroke="#005174" stroke-linecap="round" stroke-linejoin="round" transform="translate(-2.03 -2.74)"/><path d="m359.17 456.21-1.88-3.69 2.06-3.65 1.88 3.7z" fill="none" stroke="#005174" stroke-linecap="round" stroke-linejoin="round" transform="translate(-2.03 -2.74)"/><path d="m370.92 463-1.92-3.7 2.06-3.64 1.89 3.69z" fill="none" stroke="#005174" stroke-linecap="round" stroke-linejoin="round" transform="translate(-2.03 -2.74)"/><path d="m333.75 424.36 3.69-1.88 3.65 2.06-3.7 1.88z" fill="none" stroke="#005174" stroke-linecap="round" stroke-linejoin="round" transform="translate(-2.03 -2.74)"/><path d="m345.49 431.15 3.69-1.89 3.65 2.06-3.69 1.89z" fill="none" stroke="#005174" stroke-linecap="round" stroke-linejoin="round" transform="translate(-2.03 -2.74)"/><path d="m357.23 437.93 3.7-1.89 3.64 2.06-3.69 1.9z" fill="none" stroke="#005174" stroke-linecap="round" stroke-linejoin="round" transform="translate(-2.03 -2.74)"/><path d="m369 444.71 3.69-1.89 3.64 2.06-3.69 1.89z" fill="none" stroke="#005174" stroke-linecap="round" stroke-linejoin="round" transform="translate(-2.03 -2.74)"/><path d="m380.72 451.49 3.69-1.88 3.64 2.06-3.69 1.88z" fill="none" stroke="#005174" stroke-linecap="round" stroke-linejoin="round" transform="translate(-2.03 -2.74)"/><path d="m348.27 414.05 3.94 1.28 1.12 4-3.94-1.27z" fill="none" stroke="#005174" stroke-linecap="round" stroke-linejoin="round" transform="translate(-2.03 -2.74)"/><path d="m360 420.84 3.95 1.27 1.12 4-3.95-1.28z" fill="none" stroke="#005174" stroke-linecap="round" stroke-linejoin="round" transform="translate(-2.03 -2.74)"/><path d="m371.76 427.62 3.94 1.27 1.12 4-3.95-1.28z" fill="none" stroke="#005174" stroke-linecap="round" stroke-linejoin="round" transform="translate(-2.03 -2.74)"/><path d="m383.5 434.4 3.94 1.28 1.12 4-3.94-1.28z" fill="none" stroke="#005174" stroke-linecap="round" stroke-linejoin="round" transform="translate(-2.03 -2.74)"/><path d="m395.24 441.19 3.94 1.27 1.12 4-3.94-1.28z" fill="none" stroke="#005174" stroke-linecap="round" stroke-linejoin="round" transform="translate(-2.03 -2.74)"/><path d="m360.52 408.88 3.69-1.89 3.64 2.06-3.69 1.88z" fill="none" stroke="#005174" stroke-linecap="round" stroke-linejoin="round" transform="translate(-2.03 -2.74)"/><path d="m372.26 415.66 3.69-1.89 3.65 2.06-3.7 1.89z" fill="none" stroke="#005174" stroke-linecap="round" stroke-linejoin="round" transform="translate(-2.03 -2.74)"/><path d="m384 422.44 3.69-1.88 3.65 2.06-3.69 1.88z" fill="none" stroke="#005174" stroke-linecap="round" stroke-linejoin="round" transform="translate(-2.03 -2.74)"/><path d="m395.75 429.23 3.69-1.89 3.64 2.06-3.69 1.89z" fill="none" stroke="#005174" stroke-linecap="round" stroke-linejoin="round" transform="translate(-2.03 -2.74)"/><path d="m407.49 436 3.69-1.89 3.64 2.06-3.69 1.89z" fill="none" stroke="#005174" stroke-linecap="round" stroke-linejoin="round" transform="translate(-2.03 -2.74)"/><path d="m631.72 386.65-323.98 186.7" fill="none" stroke="#005174" stroke-linecap="round" stroke-linejoin="round"/><path d="m602.46 370.69-323.18 186.23" fill="none" stroke="#005174" stroke-linecap="round" stroke-linejoin="round"/><path d="m497.9 389.13 3.69-2.13c.09-.09 0-3.65 0-3.65l-3.69 2.13z" fill="none" stroke="#005174" stroke-linecap="round" stroke-linejoin="round" stroke-width=".75" transform="translate(-2.03 -2.74)"/><path d="m494.75 383.74 3.08 1.78v3.65l-3.06-1.77" fill="none" stroke="#005174" stroke-linecap="round" stroke-linejoin="round" stroke-width=".75" transform="translate(-2.03 -2.74)"/><path d="m501.59 383.35-3.76-1.85-3.07 1.57" fill="none" stroke="#005174" stroke-linecap="round" stroke-linejoin="round" stroke-width=".75" transform="translate(-2.03 -2.74)"/><path d="m511.36 381.36 3.69-2.13c.09-.09 0-3.65 0-3.65l-3.69 2.13z" fill="none" stroke="#005174" stroke-linecap="round" stroke-linejoin="round" stroke-width=".75" transform="translate(-2.03 -2.74)"/><path d="m511.29 381.4-3.69-2.13c-.08-.09 0-3.65 0-3.65l3.69 2.13z" fill="none" stroke="#005174" stroke-linecap="round" stroke-linejoin="round" stroke-width=".75" transform="translate(-2.03 -2.74)"/><path d="m515.05 375.59-3.75-1.85-3.7 1.88" fill="none" stroke="#005174" stroke-linecap="round" stroke-linejoin="round" stroke-width=".75" transform="translate(-2.03 -2.74)"/><path d="m499.67 374.54 3.69-2.13c.09-.09 0-3.65 0-3.65l-3.69 2.13z" fill="none" stroke="#005174" stroke-linecap="round" stroke-linejoin="round" stroke-width=".75" transform="translate(-2.03 -2.74)"/><path d="m499.6 374.58-3.69-2.13c-.09-.09 0-3.65 0-3.65l3.69 2.13z" fill="none" stroke="#005174" stroke-linecap="round" stroke-linejoin="round" stroke-width=".75" transform="translate(-2.03 -2.74)"/><path d="m503.36 368.76-3.76-1.85-3.69 1.89" fill="none" stroke="#005174" stroke-linecap="round" stroke-linejoin="round" stroke-width=".75" transform="translate(-2.03 -2.74)"/><path d="m491.66 365.59c.09-.09 0-3.65 0-3.65l-3.2 1.85" fill="none" stroke="#005174" stroke-linecap="round" stroke-linejoin="round" stroke-width=".75" transform="translate(-2.03 -2.74)"/><path d="m491.66 361.94-3.75-1.85-3.27 1.67" fill="none" stroke="#005174" stroke-linecap="round" stroke-linejoin="round" stroke-width=".75" transform="translate(-2.03 -2.74)"/><path d="m480 358.75c.08-.09 0-3.65 0-3.65l-3.2 1.9" fill="none" stroke="#005174" stroke-linecap="round" stroke-linejoin="round" stroke-width=".75" transform="translate(-2.03 -2.74)"/><path d="m480 355.1-3.76-1.85-3.24 1.67" fill="none" stroke="#005174" stroke-linecap="round" stroke-linejoin="round" stroke-width=".75" transform="translate(-2.03 -2.74)"/><path d="m468.3 351.91c.09-.09 0-3.65 0-3.65l-3.2 1.85" fill="none" stroke="#005174" stroke-linecap="round" stroke-linejoin="round" stroke-width=".75" transform="translate(-2.03 -2.74)"/><path d="m468.3 348.26-3.75-1.85-3.27 1.67" fill="none" stroke="#005174" stroke-linecap="round" stroke-linejoin="round" stroke-width=".75" transform="translate(-2.03 -2.74)"/><path d="m524.82 373.59 3.69-2.13c.09-.09 0-3.65 0-3.65l-3.69 2.13z" fill="none" stroke="#005174" stroke-linecap="round" stroke-linejoin="round" stroke-width=".75" transform="translate(-2.03 -2.74)"/><path d="m524.76 373.63-3.69-2.13c-.09-.09 0-3.65 0-3.65l3.69 2.13z" fill="none" stroke="#005174" stroke-linecap="round" stroke-linejoin="round" stroke-width=".75" transform="translate(-2.03 -2.74)"/><path d="m528.51 367.81-3.75-1.81-3.69 1.89" fill="none" stroke="#005174" stroke-linecap="round" stroke-linejoin="round" stroke-width=".75" transform="translate(-2.03 -2.74)"/><path d="m513.13 366.77 3.69-2.13c.09-.09 0-3.65 0-3.65l-3.69 2.13z" fill="none" stroke="#005174" stroke-linecap="round" stroke-linejoin="round" stroke-width=".75" transform="translate(-2.03 -2.74)"/><path d="m513.06 366.81-3.69-2.13c-.09-.09 0-3.65 0-3.65l3.69 2.13z" fill="none" stroke="#005174" stroke-linecap="round" stroke-linejoin="round" stroke-width=".75" transform="translate(-2.03 -2.74)"/><path d="m516.82 361-3.76-1.85-3.69 1.85" fill="none" stroke="#005174" stroke-linecap="round" stroke-linejoin="round" stroke-width=".75" transform="translate(-2.03 -2.74)"/><path d="m501.43 360 3.69-2.13c.09-.09 0-3.65 0-3.65l-3.69 2.13z" fill="none" stroke="#005174" stroke-linecap="round" stroke-linejoin="round" stroke-width=".75" transform="translate(-2.03 -2.74)"/><path d="m501.37 360-3.69-2.13c-.09-.09 0-3.65 0-3.65l3.69 2.13z" fill="none" stroke="#005174" stroke-linecap="round" stroke-linejoin="round" stroke-width=".75" transform="translate(-2.03 -2.74)"/><path d="m505.13 354.17-3.76-1.85-3.69 1.89" fill="none" stroke="#005174" stroke-linecap="round" stroke-linejoin="round" stroke-width=".75" transform="translate(-2.03 -2.74)"/><path d="m489.74 353.13 3.69-2.13c.09-.09 0-3.65 0-3.65l-3.69 2.13z" fill="none" stroke="#005174" stroke-linecap="round" stroke-linejoin="round" stroke-width=".75" transform="translate(-2.03 -2.74)"/><path d="m489.67 353.16-3.67-2.16c-.08-.08 0-3.65 0-3.65l3.69 2.13z" fill="none" stroke="#005174" stroke-linecap="round" stroke-linejoin="round" stroke-width=".75" transform="translate(-2.03 -2.74)"/><path d="m493.43 347.35-3.76-1.85-3.67 1.88" fill="none" stroke="#005174" stroke-linecap="round" stroke-linejoin="round" stroke-width=".75" transform="translate(-2.03 -2.74)"/><path d="m478.05 346.3 3.69-2.13c.09-.08 0-3.64 0-3.64l-3.69 2.13z" fill="none" stroke="#005174" stroke-linecap="round" stroke-linejoin="round" stroke-width=".75" transform="translate(-2.03 -2.74)"/><path d="m478 346.34-3.69-2.13c-.09-.08 0-3.65 0-3.65l3.69 2.13z" fill="none" stroke="#005174" stroke-linecap="round" stroke-linejoin="round" stroke-width=".75" transform="translate(-2.03 -2.74)"/><path d="m481.74 340.53-3.74-1.85-3.69 1.88" fill="none" stroke="#005174" stroke-linecap="round" stroke-linejoin="round" stroke-width=".75" transform="translate(-2.03 -2.74)"/><path d="m538.28 365.82 3.7-2.13c.08-.09 0-3.65 0-3.65l-3.7 2.13z" fill="none" stroke="#005174" stroke-linecap="round" stroke-linejoin="round" stroke-width=".75" transform="translate(-2.03 -2.74)"/><path d="m538.22 365.86-3.69-2.13c-.09-.09 0-3.65 0-3.65l3.69 2.13z" fill="none" stroke="#005174" stroke-linecap="round" stroke-linejoin="round" stroke-width=".75" transform="translate(-2.03 -2.74)"/><path d="m542 360-3.76-1.85-3.69 1.89" fill="none" stroke="#005174" stroke-linecap="round" stroke-linejoin="round" stroke-width=".75" transform="translate(-2.03 -2.74)"/><path d="m526.59 359 3.69-2.13c.09-.09 0-3.65 0-3.65l-3.69 2.13z" fill="none" stroke="#005174" stroke-linecap="round" stroke-linejoin="round" stroke-width=".75" transform="translate(-2.03 -2.74)"/><path d="m526.52 359-3.69-2.13c-.08-.09 0-3.65 0-3.65l3.69 2.13z" fill="none" stroke="#005174" stroke-linecap="round" stroke-linejoin="round" stroke-width=".75" transform="translate(-2.03 -2.74)"/><path d="m530.28 353.22-3.76-1.85-3.69 1.89" fill="none" stroke="#005174" stroke-linecap="round" stroke-linejoin="round" stroke-width=".75" transform="translate(-2.03 -2.74)"/><path d="m514.9 352.18 3.69-2.13c.09-.09 0-3.65 0-3.65l-3.69 2.13z" fill="none" stroke="#005174" stroke-linecap="round" stroke-linejoin="round" stroke-width=".75" transform="translate(-2.03 -2.74)"/><path d="m514.83 352.22-3.69-2.13c-.09-.09 0-3.65 0-3.65l3.69 2.13z" fill="none" stroke="#005174" stroke-linecap="round" stroke-linejoin="round" stroke-width=".75" transform="translate(-2.03 -2.74)"/><path d="m518.59 346.4-3.76-1.85-3.69 1.89" fill="none" stroke="#005174" stroke-linecap="round" stroke-linejoin="round" stroke-width=".75" transform="translate(-2.03 -2.74)"/><path d="m503.2 345.36 3.69-2.13c.09-.09 0-3.65 0-3.65l-3.69 2.13z" fill="none" stroke="#005174" stroke-linecap="round" stroke-linejoin="round" stroke-width=".75" transform="translate(-2.03 -2.74)"/><path d="m503.14 345.39-3.69-2.13c-.09-.08 0-3.64 0-3.64l3.69 2.13z" fill="none" stroke="#005174" stroke-linecap="round" stroke-linejoin="round" stroke-width=".75" transform="translate(-2.03 -2.74)"/><path d="m506.89 339.58-3.75-1.85-3.69 1.89" fill="none" stroke="#005174" stroke-linecap="round" stroke-linejoin="round" stroke-width=".75" transform="translate(-2.03 -2.74)"/><path d="m491.51 338.54 3.69-2.13c.09-.09 0-3.65 0-3.65l-3.69 2.13z" fill="none" stroke="#005174" stroke-linecap="round" stroke-linejoin="round" stroke-width=".75" transform="translate(-2.03 -2.74)"/><path d="m491.44 338.57-3.69-2.13c-.08-.08 0-3.65 0-3.65l3.69 2.13z" fill="none" stroke="#005174" stroke-linecap="round" stroke-linejoin="round" stroke-width=".75" transform="translate(-2.03 -2.74)"/><path d="m495.2 332.76-3.76-1.85-3.69 1.88" fill="none" stroke="#005174" stroke-linecap="round" stroke-linejoin="round" stroke-width=".75" transform="translate(-2.03 -2.74)"/><path d="m551.87 358 3.69-2.13c.09-.09 0-3.65 0-3.65l-3.69 2.13z" fill="none" stroke="#005174" stroke-linecap="round" stroke-linejoin="round" stroke-width=".75" transform="translate(-2.03 -2.74)"/><path d="m551.8 358.05-3.69-2.13c-.08-.08 0-3.64 0-3.64l3.69 2.13z" fill="none" stroke="#005174" stroke-linecap="round" stroke-linejoin="round" stroke-width=".75" transform="translate(-2.03 -2.74)"/><path d="m555.56 352.24-3.76-1.85-3.69 1.89" fill="none" stroke="#005174" stroke-linecap="round" stroke-linejoin="round" stroke-width=".75" transform="translate(-2.03 -2.74)"/><path d="m540.17 351.2 3.7-2.13c.08-.09 0-3.65 0-3.65l-3.7 2.13z" fill="none" stroke="#005174" stroke-linecap="round" stroke-linejoin="round" stroke-width=".75" transform="translate(-2.03 -2.74)"/><path d="m540.11 351.23-3.69-2.13c-.09-.08 0-3.65 0-3.65l3.69 2.13z" fill="none" stroke="#005174" stroke-linecap="round" stroke-linejoin="round" stroke-width=".75" transform="translate(-2.03 -2.74)"/><path d="m543.87 345.42-3.76-1.85-3.69 1.88" fill="none" stroke="#005174" stroke-linecap="round" stroke-linejoin="round" stroke-width=".75" transform="translate(-2.03 -2.74)"/><path d="m528.48 344.38 3.69-2.13c.09-.09 0-3.65 0-3.65l-3.69 2.13z" fill="none" stroke="#005174" stroke-linecap="round" stroke-linejoin="round" stroke-width=".75" transform="translate(-2.03 -2.74)"/><path d="m528.42 344.41-3.7-2.13c-.08-.08 0-3.65 0-3.65l3.7 2.13z" fill="none" stroke="#005174" stroke-linecap="round" stroke-linejoin="round" stroke-width=".75" transform="translate(-2.03 -2.74)"/><path d="m532.17 338.6-3.75-1.85-3.7 1.88" fill="none" stroke="#005174" stroke-linecap="round" stroke-linejoin="round" stroke-width=".75" transform="translate(-2.03 -2.74)"/><path d="m516.79 337.55 3.69-2.13c.08-.08 0-3.65 0-3.65l-3.69 2.13z" fill="none" stroke="#005174" stroke-linecap="round" stroke-linejoin="round" stroke-width=".75" transform="translate(-2.03 -2.74)"/><path d="m516.72 337.59-3.72-2.13c-.09-.09 0-3.65 0-3.65l3.69 2.13z" fill="none" stroke="#005174" stroke-linecap="round" stroke-linejoin="round" stroke-width=".75" transform="translate(-2.03 -2.74)"/><path d="m520.48 331.77-3.76-1.85-3.72 1.89" fill="none" stroke="#005174" stroke-linecap="round" stroke-linejoin="round" stroke-width=".75" transform="translate(-2.03 -2.74)"/><path d="m505.09 330.73 3.7-2.13c.08-.08 0-3.65 0-3.65l-3.7 2.13z" fill="none" stroke="#005174" stroke-linecap="round" stroke-linejoin="round" stroke-width=".75" transform="translate(-2.03 -2.74)"/><path d="m505 330.77-3.69-2.13c-.09-.09 0-3.65 0-3.65l3.69 2.13z" fill="none" stroke="#005174" stroke-linecap="round" stroke-linejoin="round" stroke-width=".75" transform="translate(-2.03 -2.74)"/><path d="m508.79 325-3.79-1.9-3.66 1.9" fill="none" stroke="#005174" stroke-linecap="round" stroke-linejoin="round" stroke-width=".75" transform="translate(-2.03 -2.74)"/><circle cx="268.27" cy="521.9" fill="none" r="2.59" stroke="#005174" stroke-linecap="round" stroke-linejoin="round"/><path d="m270.94 527.14a3.26 3.26 0 1 1 -.31-5.17" fill="none" stroke="#005174" stroke-linecap="round" stroke-linejoin="round" transform="translate(-2.03 -2.74)"/><circle cx="277.88" cy="516.91" fill="none" r="2.59" stroke="#005174" stroke-linecap="round" stroke-linejoin="round"/><path d="m280.55 522.15a3.26 3.26 0 1 1 -.31-5.17" fill="none" stroke="#005174" stroke-linecap="round" stroke-linejoin="round" transform="translate(-2.03 -2.74)"/><circle cx="287.49" cy="511.93" fill="none" r="2.59" stroke="#005174" stroke-linecap="round" stroke-linejoin="round"/><g transform="translate(-2.03 -2.74)"><path d="m290.16 517.17a3.26 3.26 0 1 1 -.31-5.17" fill="none" stroke="#005174" stroke-linecap="round" stroke-linejoin="round"/><path d="m213.62 376.17 7.37-4.29 6.16 3.56-7.37 4.29z" fill="#045171"/><path d="m213.73 338.46 7.37-4.28-.1 37.71-7.38 4.28z" fill="#045171"/><path d="m219.83 362.93 7.37-4.28v16.79l-7.37 4.29z" fill="#f3f4f6"/><path d="m220.88 365.64 7.38-4.29v15.92l-7.37 4.28z" fill="#045171"/><path d="m219.83 362.93 7.37-4.28.8 1-7.37 4.28z" fill="#045171"/><path d="m220.63 364 7.37-4.29a18.85 18.85 0 0 0 5.09 4.62l-7.37 4.28a18.66 18.66 0 0 1 -5.09-4.61z" fill="#045171"/><path d="m229.82 354.21c.05.08.1.15.14.23l-7.37 4.29-.14-.24z" fill="#f3f4f6"/><path d="m229.36 353.31c.14.3.29.6.46.9l-7.37 4.28c-.17-.3-.32-.6-.46-.9z" fill="#f3f4f6"/><path d="m230.44 355.17-7.37 4.28q-.25-.34-.48-.72l7.37-4.29c.15.25.32.49.48.73z" fill="#f3f4f6"/><path d="m229.36 353.31-7.36 4.28a8.51 8.51 0 0 1 -.82-3.5l7.37-4.28a8.51 8.51 0 0 0 .81 3.5z" fill="#f3f4f6"/><path d="m230.44 355.17a9.13 9.13 0 0 0 2.72 2.53l-7.37 4.3a9.13 9.13 0 0 1 -2.72-2.53z" fill="#f3f4f6"/><path d="m233.16 357.7.22.12-7.38 4.28-.22-.12z" fill="#f3f4f6"/><path d="m233.38 357.82a3.94 3.94 0 0 0 .88.35l-7.37 4.29a4.52 4.52 0 0 1 -.88-.36z" fill="#f3f4f6"/><path d="m228.72 348.41a4.7 4.7 0 0 0 -.18 1.39l-7.37 4.29a4.66 4.66 0 0 1 .18-1.39z" fill="#f3f4f6"/><path d="m229.3 347.31a3 3 0 0 0 -.58 1.1l-7.37 4.29a2.84 2.84 0 0 1 .58-1.1z" fill="#f3f4f6"/><path d="m229.37 347.23-.07.08-7.37 4.29.07-.09z" fill="#f3f4f6"/><path d="m235.81 358.22-7.37 4.28a2.82 2.82 0 0 1 -1.55 0l7.37-4.29a2.82 2.82 0 0 0 1.55.01z" fill="#f3f4f6"/><path d="m235.81 358.22-7.37 4.28 4.43-2.57 1.47-.85.19-.12.57-.33.19-.1a4 4 0 0 1 .52-.31z" fill="#f3f4f6"/><path d="m235.59 356.71-7.37 4.29a2.39 2.39 0 0 1 -2.43-.24l7.37-4.28a2.41 2.41 0 0 0 2.43.23z" fill="#045171"/><path d="m235.82 358.22a2 2 0 0 0 .52-.22l-7.34 4.29a2.57 2.57 0 0 1 -.52.21l3.69-2.14.48-.28 1-.56.93-.54.45-.26a8.34 8.34 0 0 1 .79-.5z" fill="#f3f4f6"/><path d="m223.24 352.43 7.37-4.28a2.45 2.45 0 0 0 -1 2.26 7.63 7.63 0 0 0 3.56 6.07l-7.37 4.28a7.67 7.67 0 0 1 -3.57-6.06 2.5 2.5 0 0 1 1.01-2.27z" fill="#045171"/><path d="m229.37 347.23a.47.47 0 0 1 -.12.07l-.26.15-.27.16-.28.16-.14.08-1.07.62-5.23 3a2.22 2.22 0 0 1 .49-.38l7.37-4.29a2.63 2.63 0 0 0 -.49.43z" fill="#f3f4f6"/><path d="m240.49 365.07-7.37 4.29c-1.86 1.08-4.47.9-7.4-.8l7.37-4.28c2.91 1.72 5.54 1.87 7.4.79z" fill="#045171"/><path d="m219.89 344 7.37-4.28.81-.12-7.37 4.29z" fill="#f3f4f6"/><path d="m219.89 342 7.37-4.28v1.94l-7.37 4.34z" fill="#f3f4f6"/><path d="m213.73 338.46 7.37-4.28 6.16 3.56-7.37 4.26z" fill="#f3f4f6"/><path d="m222.49 351.13 7.37-4.29a3.32 3.32 0 0 1 3.33.36l-7.37 4.28a3.3 3.3 0 0 0 -3.33-.35z" fill="#045171"/><path d="m212.67 336.62 7.37-4.28 8.28 4.78-7.32 4.28z" fill="#045171"/><path d="m221 341.4 7.37-4.28v1l-7.37 4.28z" fill="#045171"/><path d="m236.34 358-7.34 4.29a3.21 3.21 0 0 0 1.32-2.93 10 10 0 0 0 -4.47-7.88l7.37-4.28a10 10 0 0 1 4.48 7.87 3.22 3.22 0 0 1 -1.36 2.93z" fill="#045171"/><path d="m243.42 358.55c0 3.22-1.12 5.47-2.93 6.52l-7.37 4.29c1.81-1.06 2.92-3.3 2.93-6.53z" fill="#f3f4f6"/><path d="m225.79 344.9c5.06 2.92 10.28 10.42 10.26 17.93 0 6.55-4.56 9.07-10.33 5.73a18.66 18.66 0 0 1 -5.09-4.61l-.8-1-.05 16.8-6.16-3.56.11-37.71 6.16 3.56v1.96l.81-.11a7.19 7.19 0 0 1 5.09 1.01zm0 17.08c2.48 1.43 4.5.25 4.51-2.62a10 10 0 0 0 -4.48-7.88c-2.6-1.5-4.64-.35-4.65 2.61a9.93 9.93 0 0 0 4.62 7.9" fill="#f3f4f6"/><path d="m228.07 339.56a7.24 7.24 0 0 1 5.09 1.05l-7.37 4.29a7.19 7.19 0 0 0 -5.09-1z" fill="#f3f4f6"/><path d="m225.79 343.69c5.58 3.22 11.34 11.5 11.32 19.76 0 7.22-5 10-11.39 6.33a19.37 19.37 0 0 1 -4.84-4.14v15.92l-8.28-4.78.11-40.15 8.28 4.78v1a8.19 8.19 0 0 1 4.8 1.28zm-.07 24.88c5.77 3.33 10.31.81 10.33-5.73 0-7.51-5.2-15-10.26-17.94a7.24 7.24 0 0 0 -5.09-1l-.81.11v-2.01l-6.16-3.55-.11 37.7 6.16 3.56.05-16.79.8 1a18.86 18.86 0 0 0 5.09 4.62" fill="#045171"/><path d="m225.82 351.48a10 10 0 0 1 4.47 7.88c0 2.87-2 4.05-4.5 2.62a9.9 9.9 0 0 1 -4.62-7.89c0-2.96 2.04-4.09 4.65-2.61zm0 9.28c1.9 1.1 3.44.19 3.45-2a7.66 7.66 0 0 0 -3.43-6c-2-1.16-3.58-.29-3.59 2a7.67 7.67 0 0 0 3.57 6.06" fill="#045171"/><path d="m221 342.4 7.37-4.28a8.19 8.19 0 0 1 4.84 1.28l-7.37 4.29a8.27 8.27 0 0 0 -4.84-1.29z" fill="#045171"/><path d="m233.16 340.61c5.06 2.93 10.28 10.43 10.26 17.94l-7.37 4.28c0-7.51-5.2-15-10.26-17.93z" fill="#045171"/><path d="m241.25 366.37-7.37 4.28c2-1.16 3.22-3.64 3.23-7.21 0-8.26-5.74-16.54-11.32-19.76l7.37-4.28c5.58 3.22 11.34 11.5 11.32 19.76-.01 3.56-1.23 6.05-3.23 7.21z" fill="#045171"/><path d="m242.26 377.6 7.37-4.29 6.17 3.56-7.37 4.29z" fill="#045171"/><path d="m242.33 355 7.37-4.28-.06 22.62-7.37 4.29z" fill="#045171"/><path d="m248.49 358.53 7.37-4.28-.06 22.62-7.37 4.29z" fill="#f3f4f6"/><path d="m242.33 355 6.16 3.56-.06 22.63-6.16-3.56z" fill="#f3f4f6"/><path d="m242.33 355 7.37-4.28 6.16 3.56-7.37 4.28z" fill="#f3f4f6"/><path d="m249.55 357.92 7.37-4.29-.07 25.07-7.37 4.3z" fill="#045171"/><path d="m241.27 353.14 7.37-4.29 8.28 4.78-7.37 4.29z" fill="#045171"/><path d="m241.27 353.14 8.28 4.78-.07 25.08-8.28-4.79zm7.16 28 .06-22.63-6.16-3.51-.07 22.63 6.17 3.56" fill="#045171"/><path d="m243.67 346.6 7.37-4.29a2 2 0 0 0 -.83 1.78 6.28 6.28 0 0 0 2.8 4.85 1.93 1.93 0 0 0 1.94.17l-7.37 4.28a1.91 1.91 0 0 1 -1.94-.17 6.26 6.26 0 0 1 -2.8-4.84 2 2 0 0 1 .83-1.78z" fill="#045171"/><path d="m255.79 347.31a2 2 0 0 1 -.83 1.8l-7.38 4.28a2 2 0 0 0 .83-1.8z" fill="#f3f4f6"/><path d="m251 342.31a2 2 0 0 1 2 .18l-7.37 4.29a2 2 0 0 0 -2-.18z" fill="#f3f4f6"/><path d="m245.65 353.22a6.24 6.24 0 0 1 -2.8-4.84c0-1.76 1.3-2.48 2.82-1.6a6.2 6.2 0 0 1 2.75 4.81c-.01 1.76-1.27 2.49-2.77 1.63z" fill="#f3f4f6"/><path d="m253 342.49a6.23 6.23 0 0 1 2.75 4.82l-7.38 4.28a6.16 6.16 0 0 0 -2.74-4.81z" fill="#f3f4f6"/><path d="m242.91 345.28 7.38-4.28a2.72 2.72 0 0 1 2.75.27 8.58 8.58 0 0 1 3.8 6.65 2.72 2.72 0 0 1 -1.14 2.48l-7.37 4.28a2.7 2.7 0 0 0 1.14-2.47 8.6 8.6 0 0 0 -3.8-6.66 2.76 2.76 0 0 0 -2.76-.27z" fill="#045171"/><path d="m245.64 354.44a8.51 8.51 0 0 1 -3.86-6.68c0-2.45 1.75-3.44 3.89-2.21a8.58 8.58 0 0 1 3.8 6.65c0 2.42-1.76 3.43-3.83 2.24zm0-7.66c-1.53-.88-2.82-.16-2.83 1.6a6.3 6.3 0 0 0 2.8 4.85c1.5.86 2.76.12 2.77-1.64a6.21 6.21 0 0 0 -2.75-4.81" fill="#045171"/><path d="m254 384.37 7.37-4.29 7.54 4.36-7.37 4.28z" fill="#045171"/><path d="m264.61 387.6 7.37-4.28-2.53 2.68-7.37 4.29z" fill="#045171"/><path d="m264.62 385.49 7.38-4.29-3.09 3.24-7.37 4.28z" fill="#f3f4f6"/><path d="m264.62 385.49 7.38-4.29 3.06 6.79-7.37 4.28z" fill="#045171"/><path d="m260.87 377.11 7.37-4.29-6.88 7.26-7.36 4.29z" fill="#045171"/><path d="m253.88 361.64 7.37-4.28 7 15.46-7.37 4.29z" fill="#045171"/><path d="m267.68 392.27 7.37-4.29 7.5 4.34-7.37 4.28z" fill="#045171"/><path d="m268.41 381.52 7.37-4.29 6.77 15.09-7.37 4.28z" fill="#f3f4f6"/><path d="m269.7 382.26 7.37-4.28 7.51 16.73-7.37 4.29z" fill="#045171"/><path d="m261.42 366 7.37-4.28 3.23 7.14-7.37 4.28z" fill="#f3f4f6"/><path d="m262 365.08 7.37-4.28 2.69 5.93-7.4 4.27z" fill="#045171"/><path d="m267.87 369.72 7.37-4.28-3.24 3.41-7.37 4.28z" fill="#045171"/><path d="m275.43 374.08 7.37-4.28-7 7.43-7.37 4.29z" fill="#f3f4f6"/><path d="m267.87 369.72 7.37-4.28 7.56 4.36-7.37 4.28z" fill="#f3f4f6"/><path d="m277.46 374-7.76 8.23 7.51 16.77-10.08-5.82-2.51-5.57-2.53 2.66-10.09-5.87 7.62-8-7.74-17.13 10.12 5.82 2.69 5.93 2.67-2.84zm-2.28 22.57-6.77-15.08 7-7.44-7.55-4.36-3.22 3.41-3.22-7.1-7.54-4.35 7 15.47-6.88 7.25 7.55 4.35 3.08-3.23 3.06 6.78 7.51 4.33" fill="#045171"/><path d="m253.88 361.64 7.37-4.28 7.54 4.35-7.37 4.29z" fill="#045171"/><path d="m251.83 359.23 7.37-4.23 10.14 5.85-7.34 4.23z" fill="#045171"/><path d="m275.43 374.09-7 7.43 6.77 15.09-7.51-4.34-3.06-6.78-3.08 3.23-7.55-4.35 6.88-7.26-7-15.46 7.54 4.35 3.24 7.14 3.22-3.42z" fill="#f3f4f6"/><path d="m267.33 368.19 7.37-4.29 10.13 5.85-7.37 4.25z" fill="#045171"/><path d="m277.46 374 7.38-4.28-7.77 8.28-7.37 4.28z" fill="#045171"/><path d="m282.66 381.26 7.34-4.26c-1.85 1.07-3 3.35-3 6.59 0 6.63 4.5 14.45 10.3 17.8a9 9 0 0 0 5.86 1.35l-7.34 4.26a9 9 0 0 1 -5.86-1.35c-5.8-3.34-10.32-11.16-10.3-17.8 0-3.23 1.15-5.51 3-6.59z" fill="#045171"/><path d="m284.62 392.6 7.37-4.29.38 1.1-7.37 4.29z" fill="#f3f4f6"/><path d="m285 393.69 7.38-4.28a12.38 12.38 0 0 0 5 6.43 4.88 4.88 0 0 0 2.29.74l-7.38 4.29a5 5 0 0 1 -2.29-.74 12.45 12.45 0 0 1 -5-6.44z" fill="#f3f4f6"/><path d="m292.26 400.87 7.37-4.28 3.55 6.13-7.37 4.28z" fill="#f3f4f6"/><path d="m285 388.26 7.37-4.28-.37.66-7.37 4.29z" fill="#f3f4f6"/><path d="m286.43 394.87 7.37-4.29a9.6 9.6 0 0 0 3.55 4.05 3.69 3.69 0 0 0 2.12.58l-7.38 4.29a3.8 3.8 0 0 1 -2.12-.59 9.61 9.61 0 0 1 -3.54-4.04z" fill="#045171"/><path d="m292.45 399.46 7.37-4.28 5 8.66-7.37 4.28z" fill="#045171"/><path d="m292.1 399.5 7.37-4.29h.35l-7.37 4.28z" fill="#045171"/><path d="m307.57 395.43a15.74 15.74 0 0 1 -.11 1.82l-7.37 4.28a15.7 15.7 0 0 0 .11-1.81z" fill="#f3f4f6"/><path d="m284.62 392.6 7.37-4.29 15.47 8.94-7.37 4.28z" fill="#045171"/><path d="m294.82 394 7.37-4.28.31 1-7.37 4.28z" fill="#045171"/><path d="m286.38 388.73 7.38-4.28 7 4.07-7.37 4.28z" fill="#045171"/><path d="m293.4 382.87a2.92 2.92 0 0 0 -1.07 1.11l-7.33 4.28a2.9 2.9 0 0 1 1.07-1.1z" fill="#f3f4f6"/><path d="m286 387.16 7.37-4.29c1-.6 2.45-.47 4 .41l-7.37 4.28c-1.52-.88-2.94-1-4-.4z" fill="#045171"/><path d="m290 387.56 7.37-4.28a11.5 11.5 0 0 1 4.81 6.41l-7.36 4.31a11.5 11.5 0 0 0 -4.82-6.44z" fill="#045171"/><path d="m290 377c1.88-1.09 4.49-.94 7.37.72l-7.37 4.28c-2.88-1.67-5.49-1.82-7.37-.73z" fill="#f3f4f6"/><path d="m281.91 380 7.37-4.28c2.07-1.2 5-1 8.12.8l-7.4 4.25c-3.14-1.83-6-2-8.09-.77z" fill="#045171"/><path d="m297.4 377.7c5.72 3.3 10.19 11.09 10.17 17.73l-7.37 4.29c0-6.65-4.45-14.43-10.17-17.73z" fill="#f3f4f6"/><path d="m290 380.77c6.32 3.64 11.25 12.24 11.23 19.56a13.76 13.76 0 0 1 -.2 2.48l-.09.45-14.54-8.39a9.61 9.61 0 0 0 3.54 4 3.8 3.8 0 0 0 2.12.59h.36l5 8.66-.51.13a9.62 9.62 0 0 1 -7-1.38c-6.39-3.69-11.38-12.32-11.36-19.63s5.19-10.1 11.45-6.47zm10.06 20.76a13.74 13.74 0 0 0 .11-1.81c0-6.65-4.45-14.43-10.17-17.74s-10.36-.66-10.38 5.87 4.51 14.45 10.31 17.8a9 9 0 0 0 5.85 1.35l-3.54-6.13a5 5 0 0 1 -2.29-.74 12.42 12.42 0 0 1 -5-6.43l-.38-1.1 15.47 8.93" fill="#045171"/><path d="m290 387.56a11.5 11.5 0 0 1 4.81 6.41l.31 1-10.54-6.09.37-.66c.96-1.64 2.89-1.91 5.05-.66zm-3.63 1.17 7.05 4.07a8.81 8.81 0 0 0 -3.42-4c-1.45-.84-2.77-.83-3.63 0" fill="#045171"/><path d="m294.82 394a12.2 12.2 0 0 0 -.63-1.61l-.76.44-7.05-4.07 2.75-1.6a5.39 5.39 0 0 0 -1-.28l-3.57 2.07 10.57 6.05 3.7-2.15c-.13-.33-.26-.66-.41-1z" fill="#045171"/><path d="m286.75 388.46h-.06-.06l-.09.07.81-.47a2.48 2.48 0 0 0 -.6.4zm2.38-1.32h-.06z" fill="#045171"/><path d="m301.06 402.81 7.37-4.28-.09.44-7.34 4.29z" fill="#045171"/><path d="m300.2 399.72a15.7 15.7 0 0 1 -.11 1.81l-15.47-8.93.37 1.1a12.43 12.43 0 0 0 5 6.43 5 5 0 0 0 2.29.74l3.55 6.13a8.93 8.93 0 0 1 -5.85-1.35c-5.8-3.35-10.33-11.16-10.31-17.8s4.67-9.16 10.38-5.86 10.17 11.08 10.15 17.73zm-15.61-10.8 10.54 6.08-.31-1a11.5 11.5 0 0 0 -4.81-6.41c-2.17-1.25-4.1-1-5.05.7l-.37.67" fill="#f3f4f6"/><path d="m290 380.77 7.37-4.28c6.32 3.64 11.25 12.23 11.23 19.55a13.79 13.79 0 0 1 -.2 2.49l-7.37 4.29a13.94 13.94 0 0 0 .2-2.49c.05-7.33-4.89-15.92-11.23-19.56z" fill="#045171"/><path d="m306 414.37 7.37-4.29 6.16 3.56-7.37 4.29z" fill="#045171"/><path d="m306.06 376.71 7.37-4.29-.1 37.66-7.33 4.29z" fill="#045171"/><path d="m306.06 376.71 7.37-4.29 6.17 3.58-7.37 4.29z" fill="#f3f4f6"/><path d="m312.23 380.27 7.37-4.27-.11 37.67-7.37 4.28z" fill="#f3f4f6"/><path d="m305 374.88 8.28 4.78-.12 40.1-8.27-4.76zm7.11 43.05.11-37.66-6.17-3.56-.1 37.66z" fill="#045171"/><path d="m312.23 380.27-.11 37.66-6.12-3.56.1-37.66z" fill="#f3f4f6"/><path d="m313.29 379.66 7.37-4.28-.11 40.1-7.38 4.28z" fill="#045171"/><path d="m305 374.88 7.37-4.28 8.28 4.78-7.37 4.29z" fill="#045171"/><path d="m415.29 477.43 7.37-4.28 6.16 3.56-7.37 4.29z" fill="#045171"/><path d="m422.51 481.82 7.37-4.28v1l-7.37 4.28z" fill="#045171"/><path d="m421.46 479 7.37-4.29v2l-7.38 4.29z" fill="#f3f4f6"/><path d="m421.46 479 7.37-4.29.81 1.06-7.37 4.29z" fill="#045171"/><path d="m422.27 480.1 7.37-4.29a17.39 17.39 0 0 0 5.08 4.81l-7.37 4.29a17.52 17.52 0 0 1 -5.08-4.81z" fill="#045171"/><path d="m431.45 470.59.07.11-7.38 4.3-.06-.11z" fill="#f3f4f6"/><path d="m432.09 471.59-7.37 4.28c-.2-.29-.4-.58-.58-.89l7.38-4.28a10.34 10.34 0 0 0 .57.89z" fill="#f3f4f6"/><path d="m431 469.66a10.12 10.12 0 0 0 .47.93l-7.37 4.29c-.17-.3-.33-.62-.47-.93z" fill="#f3f4f6"/><path d="m431 469.66-7.39 4.34a10 10 0 0 1 -.61-2l7.37-4.28a9.88 9.88 0 0 0 .63 1.94z" fill="#f3f4f6"/><path d="m432.09 471.59a10.12 10.12 0 0 0 1.38 1.54l-7.37 4.28a10.12 10.12 0 0 1 -1.38-1.54z" fill="#f3f4f6"/><path d="m430.16 466.15a7.29 7.29 0 0 0 .18 1.61l-7.34 4.24a7.29 7.29 0 0 1 -.18-1.61z" fill="#f3f4f6"/><path d="m433.47 473.13a7.79 7.79 0 0 0 1.31 1l-7.37 4.28a7.74 7.74 0 0 1 -1.31-1z" fill="#f3f4f6"/><path d="m434.78 474.1a4.79 4.79 0 0 0 1.09.47l-7.37 4.28a4.79 4.79 0 0 1 -1.09-.47z" fill="#f3f4f6"/><path d="m430.3 465a4.65 4.65 0 0 0 -.14 1.18l-7.37 4.28a5.2 5.2 0 0 1 .13-1.18z" fill="#f3f4f6"/><path d="m430.74 463.92a3 3 0 0 0 -.44 1.05l-7.38 4.28a3.37 3.37 0 0 1 .45-1.05z" fill="#f3f4f6"/><path d="m435.87 474.57a3.29 3.29 0 0 0 1.17.12l-7.38 4.31a2.86 2.86 0 0 1 -1.16-.12z" fill="#f3f4f6"/><path d="m431 463.6a2.6 2.6 0 0 0 -.26.32l-7.37 4.28a1.94 1.94 0 0 1 .26-.31z" fill="#f3f4f6"/><path d="m437.42 474.62-7.37 4.28a2.66 2.66 0 0 1 -.39.07l7.38-4.28z" fill="#f3f4f6"/><path d="m437.42 474.62a2.7 2.7 0 0 0 .53-.22l-7.38 4.28a2 2 0 0 1 -.52.22l4.45-2.59 1.46-.85 1.12-.65a2.27 2.27 0 0 1 .34-.19z" fill="#f3f4f6"/><path d="m437.2 473.1-7.38 4.29a2.36 2.36 0 0 1 -2.4-.23l7.37-4.28a2.37 2.37 0 0 0 2.41.22z" fill="#045171"/><path d="m431 463.6a2.08 2.08 0 0 1 -.38.22l-.69.4-1.07.63-5.23 3a2.07 2.07 0 0 1 .47-.37l7.37-4.29a2.4 2.4 0 0 0 -.47.41z" fill="#f3f4f6"/><path d="m424.85 468.81 7.37-4.28a2.43 2.43 0 0 0 -1 2.23 7.72 7.72 0 0 0 3.57 6.12l-7.37 4.28a7.72 7.72 0 0 1 -3.57-6.12 2.43 2.43 0 0 1 1-2.23z" fill="#045171"/><path d="m442.1 481.34-7.37 4.28c-2 1.15-4.71.83-7.38-.71l7.37-4.29c2.67 1.55 5.4 1.87 7.38.72z" fill="#045171"/><path d="m415.4 439.72 7.37-4.28-.11 37.71-7.37 4.28z" fill="#045171"/><path d="m421.51 460.08 7.37-4.29.8-.1-7.37 4.31z" fill="#f3f4f6"/><path d="m424.1 467.52 7.37-4.29a3.32 3.32 0 0 1 3.34.37l-7.37 4.28a3.3 3.3 0 0 0 -3.34-.36z" fill="#045171"/><path d="m438 474.4-7.38 4.28a3.26 3.26 0 0 0 1.35-3 9.94 9.94 0 0 0 -4.48-7.82l7.37-4.28a9.94 9.94 0 0 1 4.48 7.82 3.25 3.25 0 0 1 -1.34 3z" fill="#045171"/><path d="m429.69 455.69a8.64 8.64 0 0 1 5.1 1.27l-7.38 4.28a8.62 8.62 0 0 0 -5.1-1.26c2.22-1.29 4.95-3.49 7.38-4.29z" fill="#f3f4f6"/><path d="m445 474.58c0 3.53-1.18 5.73-2.94 6.76l-7.37 4.28c1.76-1 2.93-3.22 2.94-6.76z" fill="#f3f4f6"/><path d="m434.78 457c5.78 3.33 10.28 11.07 10.26 17.62l-7.37 4.28c0-6.54-4.49-14.29-10.26-17.62z" fill="#f3f4f6"/><path d="m415.4 439.72 7.37-4.28 6.16 3.56-7.37 4.28z" fill="#f3f4f6"/><path d="m421.56 443.29 7.37-4.29-.05 16.79-7.37 4.29z" fill="#f3f4f6"/><path d="m442.86 482.63-7.37 4.28c1.94-1.13 3.23-3.55 3.24-7.44 0-7.22-5-15.77-11.31-19.44l7.37-4.29c6.36 3.68 11.33 12.22 11.31 19.45-.01 3.89-1.3 6.31-3.24 7.44z" fill="#045171"/><path d="m427.42 460c6.36 3.67 11.33 12.22 11.31 19.44 0 8.27-5.81 9.88-11.39 6.65a18 18 0 0 1 -4.83-4.3v1l-8.28-4.79.11-40.14 8.28 4.78v15.91a9.89 9.89 0 0 1 4.8 1.45zm-.07 24.88c5 2.92 10.3 1.46 10.32-6.05 0-6.54-4.49-14.29-10.26-17.62a8.62 8.62 0 0 0 -5.1-1.26l-.8.1.05-16.79-6.16-3.56-.11 37.7 6.16 3.56v-2l.81 1.06a17.39 17.39 0 0 0 5.08 4.81" fill="#045171"/><path d="m427.44 467.88a9.94 9.94 0 0 1 4.48 7.82c0 2.91-2 4.11-4.51 2.68a10 10 0 0 1 -4.62-7.95c.01-2.94 2.05-4.05 4.65-2.55zm0 9.28c1.88 1.09 3.44.17 3.44-2.07a7.61 7.61 0 0 0 -3.42-6c-2-1.17-3.58-.3-3.59 1.94a7.67 7.67 0 0 0 3.57 6.12" fill="#045171"/><path d="m422.58 458.59 7.42-4.29a10 10 0 0 1 4.84 1.45l-7.42 4.25a9.89 9.89 0 0 0 -4.84-1.41z" fill="#045171"/><path d="m427.41 461.24c5.77 3.33 10.28 11.08 10.26 17.62 0 7.51-5.27 9-10.32 6.05a17.52 17.52 0 0 1 -5.08-4.81l-.81-1.06v1.96l-6.16-3.56.11-37.71 6.16 3.56-.05 16.79.8-.1a8.62 8.62 0 0 1 5.09 1.26zm0 17.14c2.48 1.43 4.5.23 4.51-2.68a9.94 9.94 0 0 0 -4.48-7.82c-2.6-1.5-4.64-.39-4.65 2.55a10 10 0 0 0 4.62 7.95" fill="#f3f4f6"/><path d="m414.34 437.9 7.37-4.29 8.28 4.78-7.37 4.29z" fill="#045171"/><path d="m422.62 442.68 7.37-4.29v15.9l-7.37 4.29z" fill="#045171"/><path d="m445.35 475.15 7.37-4.29c-1.85 1.08-3 3.35-3 6.58 0 6.63 4.53 14.46 10.35 17.82a8.77 8.77 0 0 0 5.15 1.4l-7.37 4.28a8.82 8.82 0 0 1 -5.16-1.4c-5.81-3.36-10.36-11.19-10.34-17.82.01-3.23 1.15-5.5 3-6.57z" fill="#045171"/><path d="m456.85 485.36.07.11-7.37 4.28-.07-.11z" fill="#f3f4f6"/><path d="m457.43 486.27-7.37 4.29c-.18-.26-.35-.53-.51-.8l7.37-4.29c.16.28.33.53.51.8z" fill="#f3f4f6"/><path d="m456.42 484.51c.13.29.28.57.43.85l-7.37 4.28c-.16-.28-.3-.56-.43-.85z" fill="#f3f4f6"/><path d="m457.43 486.27a9.84 9.84 0 0 0 1.37 1.58l-7.37 4.28a9.77 9.77 0 0 1 -1.37-1.57z" fill="#f3f4f6"/><path d="m458.8 487.85a7.45 7.45 0 0 0 1.28.95l-7.37 4.28a6.54 6.54 0 0 1 -1.28-.95z" fill="#f3f4f6"/><path d="m456.42 484.51-7.37 4.28a8.83 8.83 0 0 1 -.87-3.6l7.38-4.28a8.69 8.69 0 0 0 .86 3.6z" fill="#f3f4f6"/><path d="m460.08 488.8c.15.08.29.16.43.22l-7.37 4.29a4.5 4.5 0 0 1 -.43-.23z" fill="#f3f4f6"/><path d="m460.51 489a4 4 0 0 0 .65.25l-7.37 4.29a5.12 5.12 0 0 1 -.65-.25l3.68-2.14z" fill="#f3f4f6"/><path d="m455.7 479.73a4.28 4.28 0 0 0 -.14 1.18l-7.38 4.28a4.64 4.64 0 0 1 .15-1.17l3.68-2.14 2.83-1.64z" fill="#f3f4f6"/><path d="m457.85 500.94 7.37-4.29.79-.08-7.37 4.29z" fill="#045171"/><path d="m458.64 500.86 7.37-4.29v1.6l-7.37 4.29z" fill="#045171"/><path d="m461.16 489.27a3.09 3.09 0 0 0 1.13.12l-7.37 4.29a3.09 3.09 0 0 1 -1.13-.12z" fill="#f3f4f6"/><path d="m462.67 489.32-7.37 4.29a2.53 2.53 0 0 1 -.38.07l7.37-4.29a1.59 1.59 0 0 0 .38-.07z" fill="#f3f4f6"/><path d="m456.39 478.42a3 3 0 0 0 -.7 1.31l-3.69 2.15-3.68 2.12a3 3 0 0 1 .7-1.31z" fill="#f3f4f6"/><path d="m456.47 478.35-.08.07-7.39 4.29.08-.08z" fill="#f3f4f6"/><path d="m462.67 489.32a1.62 1.62 0 0 0 .51-.21l-7.37 4.29a2.28 2.28 0 0 1 -.51.21l4.48-2.6 1.44-.84.19-.11.74-.43a5.48 5.48 0 0 1 .52-.31z" fill="#f3f4f6"/><path d="m462.43 487.81-7.37 4.29a2.32 2.32 0 0 1 -2.34-.23l7.37-4.29a2.3 2.3 0 0 0 2.34.23z" fill="#045171"/><path d="m456.47 478.35-.22.13-.71.41-.93.54-5.51 3.2a2.29 2.29 0 0 1 .43-.32l7.37-4.31a2 2 0 0 0 -.43.35z" fill="#f3f4f6"/><path d="m450.27 483.59 7.37-4.28a2.44 2.44 0 0 0 -1 2.21 7.73 7.73 0 0 0 3.48 6.06l-7.38 4.29a7.76 7.76 0 0 1 -3.47-6.07 2.44 2.44 0 0 1 1-2.21z" fill="#045171"/><path d="m458.64 502.46 7.37-4.29 6.3 3.64-7.38 4.28z" fill="#045171"/><path d="m449.53 482.31 7.37-4.31a3.19 3.19 0 0 1 3.21.29l-7.37 4.28a3.17 3.17 0 0 0 -3.21-.26z" fill="#045171"/><path d="m463.18 489.11-7.37 4.29a3.33 3.33 0 0 0 1.33-3 9.69 9.69 0 0 0 -4.4-7.77l7.37-4.28a9.66 9.66 0 0 1 4.4 7.77 3.29 3.29 0 0 1 -1.33 2.99z" fill="#045171"/><path d="m452.74 482.59a9.72 9.72 0 0 1 4.4 7.77c0 3-1.95 4.16-4.43 2.72a10.06 10.06 0 0 1 -4.53-7.89c.01-2.83 2.1-4.02 4.56-2.6zm0 9.28c1.88 1.08 3.37.16 3.37-2.12a7.4 7.4 0 0 0 -3.34-5.94c-1.89-1.09-3.49-.18-3.5 2a7.76 7.76 0 0 0 3.47 6.07" fill="#045171"/><path d="m445.35 475.15 7.37-4.29c1.89-1.1 4.52-.94 7.41.73a18.83 18.83 0 0 1 5.15 4.55l-7.37 4.29a18.51 18.51 0 0 0 -5.15-4.55c-2.9-1.68-5.52-1.83-7.41-.73z" fill="#f3f4f6"/><path d="m457.91 480.43 7.37-4.29.79 1-7.37 4.28z" fill="#f3f4f6"/><path d="m444.6 473.86 7.37-4.29c2.08-1.21 5-1 8.16.8a19.74 19.74 0 0 1 4.88 4.08l-7.37 4.29a19.53 19.53 0 0 0 -4.88-4.08c-3.18-1.84-6.08-2.01-8.16-.8z" fill="#045171"/><path d="m458.7 479.83 7.37-4.28v1.59l-7.37 4.28z" fill="#045171"/><path d="m465 483.47 7.37-4.29-.07 22.63-7.37 4.28z" fill="#f3f4f6"/><path d="m458.7 479.83 7.37-4.28 6.3 3.63-7.37 4.29z" fill="#f3f4f6"/><path d="m457.65 478 8.41 4.86-.06 25.06-8.42-4.86v-.74a10.33 10.33 0 0 1 -4.88-1.56c-6.3-3.64-11.42-12.46-11.4-19.65s5.17-10.09 11.47-6.45a19.53 19.53 0 0 1 4.88 4.08zm7.28 28.1.07-22.62-6.3-3.64v1.59l-.79-1a18.67 18.67 0 0 0 -5.15-4.55c-5.72-3.3-10.39-.69-10.41 5.84s4.52 14.46 10.34 17.82a8.8 8.8 0 0 0 5.16 1.4l.79-.08v1.6l6.3 3.64" fill="#045171"/><path d="m458.7 479.83 6.3 3.64-.07 22.62-6.3-3.63v-1.6l-.8.08a8.77 8.77 0 0 1 -5.15-1.4c-5.82-3.36-10.37-11.19-10.35-17.82s4.69-9.15 10.41-5.85a18.69 18.69 0 0 1 5.15 4.55l.79 1zm-6 13.25c2.48 1.44 4.42.24 4.43-2.72a9.69 9.69 0 0 0 -4.4-7.77c-2.46-1.42-4.55-.23-4.55 2.6a10 10 0 0 0 4.52 7.9" fill="#f3f4f6"/><path d="m457.65 478 7.37-4.28 8.41 4.86-7.37 4.28z" fill="#045171"/><path d="m466.06 482.85 7.37-4.28-.07 25.07-7.36 4.28z" fill="#045171"/><path d="m471.86 510.09 7.37-4.28 6.16 3.55-7.39 4.29z" fill="#045171"/><path d="m472 472.43 7.38-4.29-.11 37.67-7.37 4.28z" fill="#045171"/><path d="m478 505.83 7.37-4.28v7.81l-7.37 4.29z" fill="#f3f4f6"/><path d="m479.09 509.39 7.37-4.28v6.08l-7.37 4.29z" fill="#045171"/><path d="m478 505.83 7.37-4.28 6.73 11.71-7.38 4.28z" fill="#045171"/><path d="m484.76 517.54 7.38-4.28 7.52 4.34-7.37 4.29z" fill="#045171"/><path d="m482.29 504.56 7.37-4.28 10 17.32-7.37 4.29z" fill="#f3f4f6"/><path d="m483.8 505.44 7.37-4.28 11.05 19.14-7.38 4.28z" fill="#045171"/><path d="m478.13 476 7.37-4.28-.06 22.49-7.37 4.29z" fill="#f3f4f6"/><path d="m484.51 494.68 7.38-4.28-6.46 3.8-7.37 4.28z" fill="#045171"/><path d="m472 472.43 7.38-4.29 6.16 3.56-7.41 4.3z" fill="#f3f4f6"/><path d="m482.29 504.56 7.37-4.28 10.08-5.35-7.37 4.28z" fill="#045171"/><path d="m478.13 476-.06 22.49 6.45-3.8 7.85 4.53-10.08 5.35 10 17.32-7.52-4.34-6.77-11.72v7.82l-6.16-3.56.11-37.67z" fill="#f3f4f6"/><path d="m479.19 475.38 7.37-4.28-.06 20.74-7.37 4.28z" fill="#045171"/><path d="m495 499.51-11.2 5.93 11 19.14-10.52-6.07-5.23-9.12v6.09l-8.28-4.78.12-40.1 8.28 4.78-.06 20.74 4.95-2.91zm-2.7 22.38-10-17.33 10.08-5.35-7.85-4.53-6.45 3.8.06-22.5-6.14-3.55-.11 37.66 6.16 3.56v-7.82l6.72 11.71z" fill="#045171"/><path d="m484.51 494.68 7.38-4.28 7.85 4.53-7.37 4.29z" fill="#f3f4f6"/><path d="m470.91 470.6 7.37-4.29 8.28 4.79-7.37 4.28z" fill="#045171"/><path d="m484.08 493.21 7.37-4.28 10.91 6.3-7.36 4.28z" fill="#045171"/><path d="m499.21 506.23 7.37-4.29c-1.85 1.08-3 3.36-3 6.59 0 6.64 4.51 14.45 10.31 17.8a8.93 8.93 0 0 0 5.85 1.35l-7.37 4.32a9.05 9.05 0 0 1 -5.85-1.35c-5.8-3.35-10.33-11.17-10.31-17.8.01-3.27 1.15-5.55 3-6.62z" fill="#045171"/><path d="m501.17 517.56 7.37-4.28.38 1.1-7.37 4.28z" fill="#f3f4f6"/><path d="m501.55 518.66 7.37-4.28a12.42 12.42 0 0 0 5 6.43 5 5 0 0 0 2.29.74l-7.37 4.28a4.92 4.92 0 0 1 -2.29-.74 12.38 12.38 0 0 1 -5-6.43z" fill="#f3f4f6"/><path d="m508.82 525.83 7.37-4.28 3.55 6.13-7.37 4.32z" fill="#f3f4f6"/><path d="m501.52 513.23 7.37-4.29-.37.67-7.37 4.29z" fill="#f3f4f6"/><path d="m503 519.83 7.37-4.28a9.61 9.61 0 0 0 3.54 4 3.78 3.78 0 0 0 2.12.59l-7.37 4.28a3.7 3.7 0 0 1 -2.12-.59 9.56 9.56 0 0 1 -3.54-4z" fill="#045171"/><path d="m509 524.42 7.37-4.28 5 8.66-7.37 4.29z" fill="#045171"/><path d="m508.65 524.46 7.37-4.28h.36l-7.38 4.24z" fill="#045171"/><path d="m524.12 520.4a12.22 12.22 0 0 1 -.11 1.81l-7.37 4.28a13.64 13.64 0 0 0 .11-1.81z" fill="#f3f4f6"/><path d="m501.17 517.56 7.37-4.28 15.46 8.93-7.37 4.28z" fill="#045171"/><path d="m511.37 518.94 7.37-4.29.31 1-7.37 4.35z" fill="#045171"/><path d="m502.94 513.7 7.37-4.29 7.05 4.07-7.36 4.29z" fill="#045171"/><path d="m510 507.84a2.87 2.87 0 0 0 -1.06 1.1l-7.37 4.29a2.9 2.9 0 0 1 1.06-1.11z" fill="#f3f4f6"/><path d="m502.58 512.12 7.37-4.28c1-.6 2.45-.48 4 .41l-7.38 4.28c-1.57-.89-2.96-1.01-3.99-.41z" fill="#045171"/><path d="m506.56 512.53 7.37-4.28a11.44 11.44 0 0 1 4.81 6.4l-7.37 4.29a11.47 11.47 0 0 0 -4.81-6.41z" fill="#045171"/><path d="m516.75 524.68a13.79 13.79 0 0 1 -.11 1.82l-15.47-8.93.38 1.1a12.38 12.38 0 0 0 5 6.43 5 5 0 0 0 2.29.74l3.55 6.13a9 9 0 0 1 -5.86-1.35c-5.8-3.35-10.32-11.16-10.3-17.8s4.67-9.16 10.37-5.87 10.17 11.05 10.15 17.73zm-15.6-10.78 10.53 6.1-.31-1a11.48 11.48 0 0 0 -4.8-6.41c-2.17-1.25-4.1-1-5.05.7l-.37.67" fill="#f3f4f6"/><path d="m506.58 501.94c1.88-1.09 4.49-.94 7.37.73l-7.37 4.33c-2.88-1.66-5.49-1.82-7.37-.72z" fill="#f3f4f6"/><path d="m498.46 504.94 7.37-4.28c2.08-1.21 4.95-1 8.12.79l-7.37 4.28c-3.17-1.83-6.05-2-8.12-.79z" fill="#045171"/><path d="m514 502.67c5.72 3.3 10.19 11.08 10.17 17.73l-7.37 4.28c0-6.64-4.45-14.43-10.17-17.73z" fill="#f3f4f6"/><path d="m506.58 505.73c6.32 3.65 11.25 12.24 11.23 19.56a13.87 13.87 0 0 1 -.2 2.49l-.08.44-14.53-8.39a9.56 9.56 0 0 0 3.54 4 3.7 3.7 0 0 0 2.12.59h.35l5 8.67-.5.12a9.56 9.56 0 0 1 -7-1.38c-6.39-3.69-11.39-12.31-11.37-19.62s5.16-10.11 11.44-6.48zm10.06 20.76a13.64 13.64 0 0 0 .11-1.81c0-6.64-4.45-14.43-10.17-17.73s-10.36-.67-10.37 5.87 4.5 14.45 10.3 17.8a9 9 0 0 0 5.86 1.34l-3.55-6.13a4.92 4.92 0 0 1 -2.29-.74 12.38 12.38 0 0 1 -5-6.43l-.38-1.1 15.47 8.93" fill="#045171"/><path d="m506.56 512.53a11.42 11.42 0 0 1 4.81 6.41l.31 1-10.53-6.09.37-.66c.95-1.64 2.88-1.91 5.04-.66zm-3.62 1.17 7.05 4.07a8.84 8.84 0 0 0 -3.43-4c-1.45-.84-2.77-.83-3.62 0" fill="#045171"/><path d="m511.37 518.94a11.68 11.68 0 0 0 -.63-1.61l-.75.44-7.05-4.07 2.75-1.6-.12-.05h-.16-.14l-.17-.05h-.13-.06l-3.58 2.08 10.35 5.92z" fill="#045171"/><path d="m503.3 513.43h-.06-.06l-.06.05-.09.08.81-.47a2.28 2.28 0 0 0 -.54.34z" fill="#045171"/><path d="m517.61 527.78 7.38-4.29-.09.45-7.37 4.28z" fill="#045171"/><path d="m506.58 505.73 7.37-4.28c6.32 3.65 11.25 12.24 11.23 19.56a13.94 13.94 0 0 1 -.2 2.49l-7.37 4.28a13.79 13.79 0 0 0 .2-2.49c.02-7.29-4.91-15.91-11.23-19.56z" fill="#045171"/><path d="m522.52 539.34 7.37-4.28 6.16 3.55-7.38 4.28z" fill="#045171"/><path d="m522.59 516.72 7.37-4.29-.07 22.63-7.37 4.28z" fill="#045171"/><path d="m528.71 531.53 7.37-4.29v11.37l-7.38 4.28z" fill="#f3f4f6"/><path d="m529.77 532.14 7.37-4.29v12.59l-7.37 4.28z" fill="#045171"/><path d="m536.86 524.7a3.77 3.77 0 0 0 -.78 2.54l-7.37 4.29a3.78 3.78 0 0 1 .78-2.55z" fill="#f3f4f6"/><path d="m536.92 524.63-.06.07-7.37 4.3.06-.07z" fill="#f3f4f6"/><path d="m530.77 529.82 7.37-4.29a2.51 2.51 0 0 0 -1 2.32l-7.37 4.29a2.5 2.5 0 0 1 1-2.32z" fill="#045171"/><path d="m536.92 524.63a1.71 1.71 0 0 1 -.23.13l-.76.44-1 .58-5.39 3.13a2 2 0 0 1 .48-.38l7.37-4.28a2 2 0 0 0 -.47.38z" fill="#f3f4f6"/><path d="m528.74 520.27 7.37-4.28v.64l-7.37 4.29z" fill="#f3f4f6"/><path d="m522.59 516.72 7.37-4.29 6.15 3.56-7.37 4.28z" fill="#f3f4f6"/><path d="m528.74 520.92 7.37-4.29.72.09-7.37 4.28z" fill="#f3f4f6"/><path d="m530 528.53 7.37-4.28a3.06 3.06 0 0 1 3.1.31 9.16 9.16 0 0 1 3 2.85l-7.37 4.28a9.26 9.26 0 0 0 -3-2.85 3.06 3.06 0 0 0 -3.1-.31z" fill="#045171"/><path d="m521.52 514.87 7.37-4.28 8.28 4.78-7.37 4.28z" fill="#045171"/><path d="m529.8 519.65 7.37-4.28v.12l-7.37 4.28z" fill="#045171"/><path d="m529.46 521 7.37-4.29a10.57 10.57 0 0 1 3.92 1.42l-7.37 4.28a10.38 10.38 0 0 0 -3.92-1.41z" fill="#f3f4f6"/><path d="m536.08 531.68 7.37-4.28 4.11-2.21-7.37 4.29z" fill="#045171"/><path d="m533.38 522.42 7.37-4.28a20.28 20.28 0 0 1 6.81 7.06l-7.37 4.28a20.37 20.37 0 0 0 -6.81-7.06z" fill="#f3f4f6"/><path d="m533.38 522.42a20.28 20.28 0 0 1 6.81 7.06l-4.1 2.21a9.26 9.26 0 0 0 -3-2.85c-2.47-1.42-4.41-.24-4.42 2.69v11.36l-6.15-3.55.06-22.62 6.15 3.55v.65l.73.09a10.4 10.4 0 0 1 3.92 1.41z" fill="#f3f4f6"/><path d="m541.32 529.71 7.38-4.29.37.66-7.37 4.28z" fill="#045171"/><path d="m529.8 519.77 7.37-4.28a12.48 12.48 0 0 1 3.58 1.43 22.8 22.8 0 0 1 8 8.51l-7.38 4.28a22.69 22.69 0 0 0 -7.94-8.51 12.48 12.48 0 0 0 -3.63-1.43z" fill="#045171"/><path d="m541.32 529.71.37.65-5.58 3-.37-.62a7.53 7.53 0 0 0 -2.61-2.68c-1.91-1.1-3.36-.21-3.36 2.07v12.58l-8.28-4.78.07-25.07 8.28 4.78v.12a12.48 12.48 0 0 1 3.58 1.43 22.69 22.69 0 0 1 7.9 8.52zm-5.24 2 4.1-2.21a20.28 20.28 0 0 0 -6.81-7.06 10.4 10.4 0 0 0 -3.91-1.41l-.73-.09v-.65l-6.15-3.55-.07 22.62 6.16 3.55v-11.36c0-2.93 1.95-4.11 4.42-2.69a9.26 9.26 0 0 1 3 2.85" fill="#045171"/><path d="m547.82 569.63 7.37-4.29 4.39 2.54-7.37 4.28z" fill="#045171"/><path d="m547.84 562.5 7.38-4.28v7.12l-7.38 4.29z" fill="#045171"/><path d="m547.84 562.5 7.37-4.28 4.53 2.61-7.37 4.28z" fill="#f3f4f6"/><path d="m546.79 560.66 7.37-4.28 5.58 3.22-7.37 4.29z" fill="#045171"/><path d="m559.74 560.83a5.67 5.67 0 0 0 2.14.8l-7.37 4.28a5.78 5.78 0 0 1 -2.15-.8z" fill="#f3f4f6"/><path d="m562.36 561.65-7.36 4.29a3.85 3.85 0 0 1 -.48 0l7.37-4.29a2.57 2.57 0 0 0 .47-0z" fill="#f3f4f6"/><path d="m567.71 568.87-7.37 4.28c-2 1.17-4.84.91-8.13-1l7.37-4.28c3.29 1.9 6.12 2.13 8.13 1z" fill="#045171"/><path d="m562.36 561.65a2.17 2.17 0 0 0 1-.27l-7.36 4.28a2.18 2.18 0 0 1 -1 .28l4.93-2.87 1.22-.71.32-.18.32-.19.44-.26z" fill="#f3f4f6"/><path d="m562.62 560.08-7.37 4.28c-.67.39-1.65.24-2.88-.47l7.37-4.29c1.26.72 2.26.87 2.88.48z" fill="#045171"/><path d="m563.36 561.38-7.36 4.28c.86-.5 1.34-1.66 1.34-3.43l7.37-4.29c-.01 1.77-.49 2.94-1.35 3.44z" fill="#045171"/><path d="m544.16 541.39 7.37-4.29c0 6 4.14 13.36 9.27 16.32a10.66 10.66 0 0 0 3.22 1.22l-7.37 4.28a10.9 10.9 0 0 1 -3.22-1.21c-5.13-2.97-9.29-10.29-9.27-16.32z" fill="#045171"/><path d="m556.65 558.92 7.37-4.29.69.15-7.37 4.28z" fill="#045171"/><path d="m557.34 559.06 7.37-4.28v3.16l-7.37 4.29z" fill="#045171"/><path d="m544.19 529.19 7.37-4.28v12.19l-7.37 4.28z" fill="#045171"/><path d="m549.94 532.51 7.38-4.28v12.19l-7.37 4.28z" fill="#f3f4f6"/><path d="m551 531.9 7.37-4.29v13.42l-7.37 4.28z" fill="#045171"/><path d="m557.28 540.42a8 8 0 0 0 2.22 5.26l-7.37 4.32a8 8 0 0 1 -2.22-5.27z" fill="#045171"/><path d="m560.72 546.65a3.38 3.38 0 0 0 2.6.54l-7.32 4.29a3.43 3.43 0 0 1 -2.6-.54l7.37-4.29-7.37 4.29a5.72 5.72 0 0 1 -1.22-1l7.37-4.29a5.43 5.43 0 0 0 1.17 1z" fill="#f3f4f6"/><path d="m563.71 547-7.38 4.28a2.48 2.48 0 0 0 1-2.3l7.37-4.28a2.51 2.51 0 0 1 -.99 2.3z" fill="#045171"/><path d="m563 545.72-7.42 4.28a2.24 2.24 0 0 1 -2.23-.29 5.43 5.43 0 0 1 -2.38-4.4l7.37-4.28a5.46 5.46 0 0 0 2.39 4.4 2.27 2.27 0 0 0 2.27.29z" fill="#045171"/><path d="m557.4 536.82 7.38-4.28v12.18l-7.41 4.28z" fill="#045171"/><path d="m563.46 547.14.25-.11-7.38 4.28a1.34 1.34 0 0 1 -.24.12z" fill="#f3f4f6"/><path d="m563.57 540.38 7.37-4.29-.07 25.41-7.38 4.29z" fill="#f3f4f6"/><path d="m564.63 539.76 7.37-4.28-.07 26.63-7.37 4.29z" fill="#045171"/><path d="m570.87 561.5c0 3.7-1.19 6.22-3.16 7.37l-7.37 4.28c2-1.15 3.14-3.67 3.15-7.36z" fill="#045171"/><path d="m568.47 570.17-7.37 4.29c2.16-1.26 3.44-4 3.45-8.06l7.37-4.29c-.01 4.05-1.29 6.81-3.45 8.06z" fill="#045171"/><path d="m563.46 547.14-7.37 4.29-.14.05 7.37-4.29z" fill="#f3f4f6"/><path d="m544.19 529.19 7.37-4.28 5.76 3.32-7.38 4.28z" fill="#f3f4f6"/><path d="m543.13 527.35 7.37-4.29 7.88 4.55-7.38 4.29z" fill="#045171"/><path d="m557.4 536.82 7.38-4.28 6.16 3.55-7.37 4.29z" fill="#f3f4f6"/><path d="m556.35 535 8.28 4.78-.08 26.64c0 8.15-5.22 11.1-12.34 7l-5.45-3.15v-9.57l5.58 3.23c2.47 1.42 3.9.6 3.9-2.27v-1.53a11.64 11.64 0 0 1 -2.85-1.17c-5.71-3.3-10.35-11.45-10.33-18.16v-13.41l7.94 4.51v13.41a5.46 5.46 0 0 0 2.39 4.4c1.68 1 2.95.41 3-1.31zm7.14 30.81.08-25.41-6.17-3.56v12.19c0 2.41-1.73 3.25-4 1.93a7.76 7.76 0 0 1 -3.44-6.24v-12.19l-5.75-3.32v12.19c0 6 4.14 13.36 9.27 16.32a10.66 10.66 0 0 0 3.22 1.22l.69.14v3.17c0 3.54-1.91 4.65-5 2.88l-4.52-2.61v7.13l4.39 2.53c6.52 3.76 11.26 1.08 11.28-6.37" fill="#045171"/><path d="m563.57 540.38-.08 25.41c0 7.45-4.76 10.13-11.28 6.37l-4.39-2.53v-7.13l4.52 2.61c3.06 1.77 5 .66 5-2.88v-3.17l-.69-.14a10.66 10.66 0 0 1 -3.22-1.22c-5.13-3-9.29-10.28-9.27-16.32v-12.19l5.75 3.32v12.19a7.76 7.76 0 0 0 3.44 6.24c2.29 1.32 4 .48 4-1.93v-12.19z" fill="#f3f4f6"/><path d="m556.35 535 7.37-4.29 8.28 4.78-7.37 4.29z" fill="#045171"/></g></svg>