<svg id="Layer_1" data-name="Layer 1" xmlns="http://www.w3.org/2000/svg" viewBox="0 0 779.19 866.58"><defs><style>.cls-1,.cls-2{fill:#6cf;}.cls-2,.cls-3,.cls-4,.cls-5,.cls-6{stroke:#045171;stroke-linecap:round;stroke-linejoin:round;}.cls-2,.cls-3,.cls-4{stroke-width:2px;}.cls-3{fill:#6ec3dd;}.cls-4,.cls-5,.cls-6{fill:none;}.cls-6{stroke-width:0.75px;}.cls-7{fill:#045171;}.cls-8{fill:#eee7f1;}</style></defs><path id="Path_3034" data-name="Path 3034" class="cls-1" d="M82.24,516.27v73.9A15.62,15.62,0,0,0,92.84,605l80.95,27.48a16.37,16.37,0,0,1,1.79.73l53.15,25.77a15.66,15.66,0,0,0,8.33,1.5L273,657a15.14,15.14,0,0,1,3.56.06L376.7,670.27a15.54,15.54,0,0,1,6.8,2.62l76.1,52.37a15.37,15.37,0,0,1,4,4l22.16,31.85a15.8,15.8,0,0,0,3.31,3.47L562.58,821a15.35,15.35,0,0,1,2.5,2.4l33.57,40.33a15.62,15.62,0,0,0,17.06,4.79l65.52-22.4a15.6,15.6,0,0,0,6-3.74l55.34-55.45a15.62,15.62,0,0,0,3.89-15.57L713.75,663.49a15.66,15.66,0,0,1,1.63-12.7L778.92,547a15.64,15.64,0,0,0,.07-16.2l-18.55-30.87a15.7,15.7,0,0,0-4-4.41L645.9,411.71a15.62,15.62,0,0,1-4.56-19.41l29.3-58.9a15.62,15.62,0,0,0-.27-14.43l-20.2-37.06a15.58,15.58,0,0,0-8.86-7.37l-44-14.41-66-25.43a15.42,15.42,0,0,1-4.39-2.58l-89.44-74.59a15.44,15.44,0,0,0-3.82-2.34l-81.87-35.3a15.63,15.63,0,0,0-20.62,8.36h0c-5.61,13.55-25.12,12.59-29.37-1.44l-19.6-64.59a15.55,15.55,0,0,0-4.19-6.79L244.53,23.71a15.57,15.57,0,0,0-7.14-3.87L167.33,3.17a15.63,15.63,0,0,0-18.21,9.63l-33.94,89a15.37,15.37,0,0,1-1.51,3L36.74,222.66a15.88,15.88,0,0,0-2,4.51L19.31,285a15.11,15.11,0,0,1-1.77,4.13L4.32,310.71a15.62,15.62,0,0,0-.9,14.6l17,37.43a15.64,15.64,0,0,0,8.14,7.93l42.25,17.9a15.6,15.6,0,0,1,9.53,14.11Z" transform="translate(-2.03 -2.74)"/><g id="Group_1343" data-name="Group 1343"><g id="Group_770" data-name="Group 770"><path id="Path_2567" data-name="Path 2567" class="cls-2" d="M162,122.44l18.14-10.88a7.8,7.8,0,0,1,7.87,0L656.16,381.84a7.86,7.86,0,0,1,3.94,6.84l-1,354a7.8,7.8,0,0,1-4,6.82l-19,11.06" transform="translate(-2.03 -2.74)"/><path id="Path_2568" data-name="Path 2568" class="cls-3" d="M175.21,472.37a7.86,7.86,0,0,0,3.94,6.84" transform="translate(-2.03 -2.74)"/></g><g id="Group_771" data-name="Group 771"><path id="Path_2569" data-name="Path 2569" class="cls-2" d="M161,490.13,629.09,760.41a7.89,7.89,0,0,0,10.76-2.88,7.8,7.8,0,0,0,1-3.92l1-352.75a10,10,0,0,0-5-8.73l-467-269.65a7.87,7.87,0,0,0-11.81,6.8l-1,354A7.87,7.87,0,0,0,161,490.13Z" transform="translate(-2.03 -2.74)"/></g><line id="Line_155" data-name="Line 155" class="cls-4" x1="638.39" y1="392.67" x2="657.13" y2="383.68"/><line id="Line_156" data-name="Line 156" class="cls-4" x1="640.18" y1="405.39" x2="658.03" y2="397.1"/><line id="Line_157" data-name="Line 157" class="cls-4" x1="640.18" y1="418.83" x2="658.03" y2="410.54"/><line id="Line_158" data-name="Line 158" class="cls-4" x1="640.18" y1="432.27" x2="658.03" y2="423.98"/><line id="Line_159" data-name="Line 159" class="cls-4" x1="640.18" y1="445.7" x2="658.03" y2="437.41"/><line id="Line_160" data-name="Line 160" class="cls-4" x1="640.18" y1="459.14" x2="657.87" y2="450.93"/><line id="Line_161" data-name="Line 161" class="cls-4" x1="640.18" y1="472.58" x2="657.48" y2="464.55"/><line id="Line_162" data-name="Line 162" class="cls-4" x1="640.18" y1="486.01" x2="657.38" y2="478.03"/><line id="Line_163" data-name="Line 163" class="cls-4" x1="640.18" y1="499.45" x2="657.53" y2="491.39"/><line id="Line_164" data-name="Line 164" class="cls-4" x1="640.18" y1="512.89" x2="657.48" y2="504.86"/><line id="Line_165" data-name="Line 165" class="cls-4" x1="640.18" y1="526.33" x2="657.34" y2="518.36"/><line id="Line_166" data-name="Line 166" class="cls-4" x1="640.18" y1="539.76" x2="657.23" y2="531.85"/><line id="Line_167" data-name="Line 167" class="cls-4" x1="640.18" y1="553.2" x2="657.24" y2="545.28"/><line id="Line_168" data-name="Line 168" class="cls-4" x1="640.18" y1="566.64" x2="657.47" y2="558.61"/><line id="Line_169" data-name="Line 169" class="cls-4" x1="640.18" y1="580.08" x2="657.41" y2="572.07"/><line id="Line_170" data-name="Line 170" class="cls-4" x1="640.18" y1="593.51" x2="657.25" y2="585.58"/><line id="Line_171" data-name="Line 171" class="cls-4" x1="640.18" y1="606.95" x2="656.94" y2="599.17"/><line id="Line_172" data-name="Line 172" class="cls-4" x1="640.18" y1="620.39" x2="657.37" y2="612.4"/><line id="Line_173" data-name="Line 173" class="cls-4" x1="640.18" y1="633.82" x2="657.07" y2="625.98"/><line id="Line_174" data-name="Line 174" class="cls-4" x1="640.18" y1="647.26" x2="657.04" y2="639.43"/><line id="Line_175" data-name="Line 175" class="cls-4" x1="640.18" y1="660.7" x2="657.11" y2="652.84"/><line id="Line_176" data-name="Line 176" class="cls-4" x1="640.18" y1="674.14" x2="656.71" y2="666.46"/><line id="Line_177" data-name="Line 177" class="cls-4" x1="640.18" y1="687.57" x2="657.14" y2="679.7"/><line id="Line_178" data-name="Line 178" class="cls-4" x1="640.18" y1="701.01" x2="656.9" y2="693.24"/><line id="Line_179" data-name="Line 179" class="cls-4" x1="640.18" y1="714.45" x2="657" y2="706.63"/><line id="Line_180" data-name="Line 180" class="cls-4" x1="640.18" y1="727.88" x2="657.03" y2="720.06"/><line id="Line_181" data-name="Line 181" class="cls-4" x1="657.02" y1="733.5" x2="640.18" y2="741.32"/><g id="Group_803" data-name="Group 803"><path id="Path_2570" data-name="Path 2570" class="cls-5" d="M191.45,549.93" transform="translate(-2.03 -2.74)"/><path id="Path_2571" data-name="Path 2571" class="cls-5" d="M228.12,528.84,302,486.37a1,1,0,0,0,.37-1.39.89.89,0,0,0-.36-.36l-93.1-55.4a9.53,9.53,0,0,0-9.73,0l-41.49,24.5" transform="translate(-2.03 -2.74)"/><path id="Path_2572" data-name="Path 2572" class="cls-5" d="M209.93,595.11" transform="translate(-2.03 -2.74)"/><path id="Path_2573" data-name="Path 2573" class="cls-5" d="M302.48,486.17l.5,53.47a4.47,4.47,0,0,1-2.27,3.94l-23.78,13.5" transform="translate(-2.03 -2.74)"/><path id="Path_2574" data-name="Path 2574" class="cls-5" d="M259.71,547.34,259.62,522a3,3,0,0,1,1.5-2.6l33.1-19.08a3,3,0,0,1,4.49,2.59v32.84a3,3,0,0,1-1.5,2.59l-26.53,15.3" transform="translate(-2.03 -2.74)"/><path id="Path_2575" data-name="Path 2575" class="cls-5" d="M266.79,536.19l22.73-13.1a1.62,1.62,0,0,1,2.42,1.4v9.58a1.63,1.63,0,0,1-.81,1.4l-22.65,13.06a1.62,1.62,0,0,1-2.21-.59,1.71,1.71,0,0,1-.22-.8L266,537.6A1.63,1.63,0,0,1,266.79,536.19Z" transform="translate(-2.03 -2.74)"/><path id="Path_2576" data-name="Path 2576" class="cls-5" d="M249.33,453.17l102-58.74,9.48,6.33" transform="translate(-2.03 -2.74)"/><line id="Line_182" data-name="Line 182" class="cls-5" x1="257.7" y1="456.65" x2="364.21" y2="395.19"/><path id="Path_2577" data-name="Path 2577" class="cls-5" d="M304.11,510.7" transform="translate(-2.03 -2.74)"/><path id="Path_2578" data-name="Path 2578" class="cls-5" d="M298.67,515.15" transform="translate(-2.03 -2.74)"/><path id="Path_2579" data-name="Path 2579" class="cls-5" d="M302.84,512.75,428.94,440l9.63,6.19L302.94,524.34" transform="translate(-2.03 -2.74)"/><path id="Path_2580" data-name="Path 2580" class="cls-5" d="M344.22,385.42l87.63,50.35v-17l-87.63-50Z" transform="translate(-2.03 -2.74)"/><line id="Line_183" data-name="Line 183" class="cls-5" x1="349.29" y1="391.68" x2="349.29" y2="386.87"/><line id="Line_184" data-name="Line 184" class="cls-5" x1="426.91" y1="437.21" x2="426.91" y2="431.4"/><path id="Path_2581" data-name="Path 2581" class="cls-5" d="M431.85,435.77l6.31-3,.41,13.39" transform="translate(-2.03 -2.74)"/><line id="Line_185" data-name="Line 185" class="cls-5" x1="358.78" y1="398.02" x2="358.78" y2="392.49"/><path id="Path_2582" data-name="Path 2582" class="cls-5" d="M344.22,368.69l12.55-7.2h0l88.4,50.67s0,0,0,0h0l-13.32,6.53" transform="translate(-2.03 -2.74)"/><path id="Path_2583" data-name="Path 2583" class="cls-5" d="M445.79,412.19v-18.1L357.27,344.2l-.19,17.16" transform="translate(-2.03 -2.74)"/><path id="Path_2584" data-name="Path 2584" class="cls-5" d="M357.27,344.2l46.29-26.29a6.07,6.07,0,0,1,6.07,0l84.74,49.66-48.58,26.48" transform="translate(-2.03 -2.74)"/><path id="Path_2585" data-name="Path 2585" class="cls-5" d="M414.2,422.12l14.27,8.2v-9.61l-14.28-8.16S413.8,422.12,414.2,422.12Z" transform="translate(-2.03 -2.74)"/><line id="Line_186" data-name="Line 186" class="cls-5" x1="424.37" y1="419.28" x2="414.29" y2="413.53"/><line id="Line_187" data-name="Line 187" class="cls-5" x1="424.37" y1="421.6" x2="414.29" y2="415.85"/><line id="Line_188" data-name="Line 188" class="cls-5" x1="424.37" y1="423.92" x2="414.29" y2="418.17"/><path id="Path_2586" data-name="Path 2586" class="cls-5" d="M357.42,388.79l-9.58-5.39v-9.57l9.58,5.39Z" transform="translate(-2.03 -2.74)"/><path id="Path_2587" data-name="Path 2587" class="cls-5" d="M490.56,420.11,448.63,443l-.23-46.6,41.93-22.85Z" transform="translate(-2.03 -2.74)"/><path id="Path_2588" data-name="Path 2588" class="cls-5" d="M456.39,436.43l-5.8-3.33V398l5.8,3.33S456.47,436.5,456.39,436.43Z" transform="translate(-2.03 -2.74)"/><path id="Path_2589" data-name="Path 2589" class="cls-5" d="M450.59,398" transform="translate(-2.03 -2.74)"/><path id="Path_2590" data-name="Path 2590" class="cls-5" d="M450.84,397.79l24.09-13.14,4.52,3.4-23.06,13.24" transform="translate(-2.03 -2.74)"/><path id="Path_2591" data-name="Path 2591" class="cls-5" d="M456.39,436.43l23.15-12.83V388.08" transform="translate(-2.03 -2.74)"/><path id="Path_2592" data-name="Path 2592" class="cls-5" d="M459.39,404.6" transform="translate(-2.03 -2.74)"/><line id="Line_189" data-name="Line 189" class="cls-5" x1="465.8" y1="397.05" x2="457.66" y2="401.73"/><line id="Line_190" data-name="Line 190" class="cls-5" x1="465.8" y1="400.98" x2="457.66" y2="405.66"/><line id="Line_191" data-name="Line 191" class="cls-5" x1="465.8" y1="404.91" x2="457.66" y2="409.59"/><path id="Path_2593" data-name="Path 2593" class="cls-5" d="M459.68,431.34l8.15-4.69V411.58l-8.15,4.68Z" transform="translate(-2.03 -2.74)"/><path id="Path_2594" data-name="Path 2594" class="cls-5" d="M471,416l6.84-3.94v-19.7L471,396.3Z" transform="translate(-2.03 -2.74)"/><path id="Path_2595" data-name="Path 2595" class="cls-5" d="M471,424.82l6.84-3.93v-6.6L471,418.22Z" transform="translate(-2.03 -2.74)"/><circle id="Ellipse_13" data-name="Ellipse 13" class="cls-5" cx="483.62" cy="379.2" r="1.6"/><circle id="Ellipse_14" data-name="Ellipse 14" class="cls-5" cx="483.62" cy="385.31" r="1.6"/><circle id="Ellipse_15" data-name="Ellipse 15" class="cls-5" cx="483.62" cy="391.41" r="1.6"/><circle id="Ellipse_16" data-name="Ellipse 16" class="cls-5" cx="483.62" cy="397.52" r="1.6"/><circle id="Ellipse_17" data-name="Ellipse 17" class="cls-5" cx="483.62" cy="403.62" r="1.6"/><circle id="Ellipse_18" data-name="Ellipse 18" class="cls-5" cx="483.62" cy="409.73" r="1.6"/><circle id="Ellipse_19" data-name="Ellipse 19" class="cls-5" cx="483.62" cy="415.83" r="1.6"/><path id="Path_2596" data-name="Path 2596" class="cls-5" d="M585.19,362.32l-90.82,53V367.7" transform="translate(-2.03 -2.74)"/><line id="Line_192" data-name="Line 192" class="cls-5" x1="492.56" y1="399.52" x2="571.96" y2="353.19"/><path id="Path_2597" data-name="Path 2597" class="cls-5" d="M457.06,345.89" transform="translate(-2.03 -2.74)"/><line id="Line_193" data-name="Line 193" class="cls-5" x1="456.19" y1="343.28" x2="505.67" y2="314.4"/><path id="Path_2598" data-name="Path 2598" class="cls-5" d="M553.71,277.55" transform="translate(-2.03 -2.74)"/><line id="Line_194" data-name="Line 194" class="cls-5" x1="445.55" y1="336.73" x2="494.66" y2="308.08"/><path id="Path_2599" data-name="Path 2599" class="cls-5" d="M531.93,364.57" transform="translate(-2.03 -2.74)"/><g id="Group_772" data-name="Group 772"><path id="Path_2600" data-name="Path 2600" class="cls-5" d="M265.17,477.65" transform="translate(-2.03 -2.74)"/><path id="Path_2601" data-name="Path 2601" class="cls-5" d="M272.51,477.83" transform="translate(-2.03 -2.74)"/><path id="Path_2602" data-name="Path 2602" class="cls-5" d="M302.77,496.75l1.34-.69,3.64,2.06L304.06,500l-1.29-.73" transform="translate(-2.03 -2.74)"/><path id="Path_2603" data-name="Path 2603" class="cls-5" d="M269.6,465.25l-1.08-2.11,2.07-3.64,1.88,3.69-1.6,2.82" transform="translate(-2.03 -2.74)"/><path id="Path_2604" data-name="Path 2604" class="cls-5" d="M281.57,472.48l-1.3-2.56,2.06-3.64,1.89,3.69-1.64,2.88" transform="translate(-2.03 -2.74)"/><path id="Path_2605" data-name="Path 2605" class="cls-5" d="M293.4,479.43,292,476.71l2.06-3.65,1.89,3.69-1.73,3.06" transform="translate(-2.03 -2.74)"/><path id="Path_2606" data-name="Path 2606" class="cls-5" d="M305.64,487.18l-1.89-3.69,2.06-3.64,1.89,3.69Z" transform="translate(-2.03 -2.74)"/><path id="Path_2607" data-name="Path 2607" class="cls-5" d="M317.55,486.63l1.89,3.69L317.38,494l-1.89-3.69Z" transform="translate(-2.03 -2.74)"/><path id="Path_2608" data-name="Path 2608" class="cls-5" d="M280.22,455.33l3.69-1.88,3.64,2.06-3.69,1.89Z" transform="translate(-2.03 -2.74)"/><path id="Path_2609" data-name="Path 2609" class="cls-5" d="M292,462.12l3.69-1.89,3.64,2.06-3.69,1.89Z" transform="translate(-2.03 -2.74)"/><path id="Path_2610" data-name="Path 2610" class="cls-5" d="M303.7,468.9l3.69-1.89,3.64,2.06L307.34,471Z" transform="translate(-2.03 -2.74)"/><path id="Path_2611" data-name="Path 2611" class="cls-5" d="M315.44,475.69l3.69-1.89,3.65,2.06-3.7,1.89Z" transform="translate(-2.03 -2.74)"/><path id="Path_2612" data-name="Path 2612" class="cls-5" d="M327.18,482.46l3.69-1.88,3.65,2.06-3.69,1.89Z" transform="translate(-2.03 -2.74)"/><path id="Path_2613" data-name="Path 2613" class="cls-5" d="M294.61,450.21l1.28-3.94,4-1.12-1.27,3.94Z" transform="translate(-2.03 -2.74)"/><path id="Path_2614" data-name="Path 2614" class="cls-5" d="M306.35,457l1.28-3.94,4-1.12-1.27,3.94Z" transform="translate(-2.03 -2.74)"/><path id="Path_2615" data-name="Path 2615" class="cls-5" d="M318.1,463.78l1.27-3.95,4-1.12-1.28,4Z" transform="translate(-2.03 -2.74)"/><path id="Path_2616" data-name="Path 2616" class="cls-5" d="M329.84,470.56l1.27-3.95,4-1.12-1.28,3.95Z" transform="translate(-2.03 -2.74)"/><path id="Path_2617" data-name="Path 2617" class="cls-5" d="M341.58,477.34l1.28-3.94,4-1.12-1.28,3.94Z" transform="translate(-2.03 -2.74)"/><path id="Path_2618" data-name="Path 2618" class="cls-5" d="M307,439.85l3.69-1.89,3.65,2.06-3.69,1.89Z" transform="translate(-2.03 -2.74)"/><path id="Path_2619" data-name="Path 2619" class="cls-5" d="M318.73,446.63l3.69-1.89,3.64,2.07-3.69,1.88Z" transform="translate(-2.03 -2.74)"/><path id="Path_2620" data-name="Path 2620" class="cls-5" d="M330.47,453.41l3.69-1.88,3.64,2.06-3.69,1.88Z" transform="translate(-2.03 -2.74)"/><path id="Path_2621" data-name="Path 2621" class="cls-5" d="M342.21,460.2l3.69-1.89,3.64,2.06-3.69,1.89Z" transform="translate(-2.03 -2.74)"/><path id="Path_2622" data-name="Path 2622" class="cls-5" d="M354,467l3.69-1.89,3.65,2.06-3.7,1.89Z" transform="translate(-2.03 -2.74)"/><path id="Path_2623" data-name="Path 2623" class="cls-5" d="M324,435.86l-1.89-3.69,2.06-3.64,1.89,3.69Z" transform="translate(-2.03 -2.74)"/><path id="Path_2624" data-name="Path 2624" class="cls-5" d="M335.69,442.64,333.8,439l2.06-3.64,1.89,3.69Z" transform="translate(-2.03 -2.74)"/><path id="Path_2625" data-name="Path 2625" class="cls-5" d="M347.43,449.43l-1.89-3.7,2.07-3.64,1.88,3.69Z" transform="translate(-2.03 -2.74)"/><path id="Path_2626" data-name="Path 2626" class="cls-5" d="M359.17,456.21l-1.88-3.69,2.06-3.65,1.88,3.7Z" transform="translate(-2.03 -2.74)"/><path id="Path_2627" data-name="Path 2627" class="cls-5" d="M370.92,463,369,459.3l2.06-3.64,1.89,3.69Z" transform="translate(-2.03 -2.74)"/><path id="Path_2628" data-name="Path 2628" class="cls-5" d="M333.75,424.36l3.69-1.88,3.65,2.06-3.7,1.88Z" transform="translate(-2.03 -2.74)"/><path id="Path_2629" data-name="Path 2629" class="cls-5" d="M345.49,431.15l3.69-1.89,3.65,2.06-3.69,1.89Z" transform="translate(-2.03 -2.74)"/><path id="Path_2630" data-name="Path 2630" class="cls-5" d="M357.23,437.93l3.7-1.89,3.64,2.06L360.88,440Z" transform="translate(-2.03 -2.74)"/><path id="Path_2631" data-name="Path 2631" class="cls-5" d="M369,444.71l3.69-1.89,3.64,2.06-3.69,1.89Z" transform="translate(-2.03 -2.74)"/><path id="Path_2632" data-name="Path 2632" class="cls-5" d="M380.72,451.49l3.69-1.88,3.64,2.06-3.69,1.88Z" transform="translate(-2.03 -2.74)"/><path id="Path_2633" data-name="Path 2633" class="cls-5" d="M348.27,414.05l3.94,1.28,1.12,4-3.94-1.27Z" transform="translate(-2.03 -2.74)"/><path id="Path_2634" data-name="Path 2634" class="cls-5" d="M360,420.84l3.95,1.27,1.12,4-3.95-1.28Z" transform="translate(-2.03 -2.74)"/><path id="Path_2635" data-name="Path 2635" class="cls-5" d="M371.76,427.62l3.94,1.27,1.12,4-3.95-1.28Z" transform="translate(-2.03 -2.74)"/><path id="Path_2636" data-name="Path 2636" class="cls-5" d="M383.5,434.4l3.94,1.28,1.12,4-3.94-1.28Z" transform="translate(-2.03 -2.74)"/><path id="Path_2637" data-name="Path 2637" class="cls-5" d="M395.24,441.19l3.94,1.27,1.12,4-3.94-1.28Z" transform="translate(-2.03 -2.74)"/><path id="Path_2638" data-name="Path 2638" class="cls-5" d="M360.52,408.88l3.69-1.89,3.64,2.06-3.69,1.88Z" transform="translate(-2.03 -2.74)"/><path id="Path_2639" data-name="Path 2639" class="cls-5" d="M372.26,415.66l3.69-1.89,3.65,2.06-3.7,1.89Z" transform="translate(-2.03 -2.74)"/><path id="Path_2640" data-name="Path 2640" class="cls-5" d="M384,422.44l3.69-1.88,3.65,2.06-3.69,1.88Z" transform="translate(-2.03 -2.74)"/><path id="Path_2641" data-name="Path 2641" class="cls-5" d="M395.75,429.23l3.69-1.89,3.64,2.06-3.69,1.89Z" transform="translate(-2.03 -2.74)"/><path id="Path_2642" data-name="Path 2642" class="cls-5" d="M407.49,436l3.69-1.89,3.64,2.06-3.69,1.89Z" transform="translate(-2.03 -2.74)"/><path id="Path_2643" data-name="Path 2643" class="cls-5" d="M251.61,485.49" transform="translate(-2.03 -2.74)"/></g><path id="Path_2644" data-name="Path 2644" class="cls-5" d="M287.29,589.05" transform="translate(-2.03 -2.74)"/><line id="Line_195" data-name="Line 195" class="cls-5" x1="631.72" y1="386.65" x2="307.74" y2="573.35"/><path id="Path_2645" data-name="Path 2645" class="cls-5" d="M221,594.4" transform="translate(-2.03 -2.74)"/><line id="Line_196" data-name="Line 196" class="cls-5" x1="602.46" y1="370.69" x2="279.28" y2="556.92"/><g id="Group_799" data-name="Group 799"><g id="Group_774" data-name="Group 774"><g id="Group_773" data-name="Group 773"><path id="Path_2646" data-name="Path 2646" class="cls-6" d="M497.9,389.13l3.69-2.13c.09-.09,0-3.65,0-3.65l-3.69,2.13Z" transform="translate(-2.03 -2.74)"/><path id="Path_2647" data-name="Path 2647" class="cls-6" d="M494.75,383.74l3.08,1.78v3.65l-3.06-1.77" transform="translate(-2.03 -2.74)"/><path id="Path_2648" data-name="Path 2648" class="cls-6" d="M501.59,383.35l-3.76-1.85-3.07,1.57" transform="translate(-2.03 -2.74)"/></g></g><g id="Group_780" data-name="Group 780"><g id="Group_775" data-name="Group 775"><path id="Path_2649" data-name="Path 2649" class="cls-6" d="M511.36,381.36l3.69-2.13c.09-.09,0-3.65,0-3.65l-3.69,2.13Z" transform="translate(-2.03 -2.74)"/><path id="Path_2650" data-name="Path 2650" class="cls-6" d="M511.29,381.4l-3.69-2.13c-.08-.09,0-3.65,0-3.65l3.69,2.13Z" transform="translate(-2.03 -2.74)"/><path id="Path_2651" data-name="Path 2651" class="cls-6" d="M515.05,375.59l-3.75-1.85-3.7,1.88" transform="translate(-2.03 -2.74)"/></g><g id="Group_776" data-name="Group 776"><path id="Path_2652" data-name="Path 2652" class="cls-6" d="M499.67,374.54l3.69-2.13c.09-.09,0-3.65,0-3.65l-3.69,2.13Z" transform="translate(-2.03 -2.74)"/><path id="Path_2653" data-name="Path 2653" class="cls-6" d="M499.6,374.58l-3.69-2.13c-.09-.09,0-3.65,0-3.65l3.69,2.13Z" transform="translate(-2.03 -2.74)"/><path id="Path_2654" data-name="Path 2654" class="cls-6" d="M503.36,368.76l-3.76-1.85-3.69,1.89" transform="translate(-2.03 -2.74)"/></g><g id="Group_777" data-name="Group 777"><path id="Path_2655" data-name="Path 2655" class="cls-6" d="M491.66,365.59c.09-.09,0-3.65,0-3.65l-3.2,1.85" transform="translate(-2.03 -2.74)"/><path id="Path_2656" data-name="Path 2656" class="cls-6" d="M484.22,362" transform="translate(-2.03 -2.74)"/><path id="Path_2657" data-name="Path 2657" class="cls-6" d="M491.66,361.94l-3.75-1.85-3.27,1.67" transform="translate(-2.03 -2.74)"/></g><g id="Group_778" data-name="Group 778"><path id="Path_2658" data-name="Path 2658" class="cls-6" d="M480,358.75c.08-.09,0-3.65,0-3.65L476.8,357" transform="translate(-2.03 -2.74)"/><path id="Path_2659" data-name="Path 2659" class="cls-6" d="M472.55,355.14" transform="translate(-2.03 -2.74)"/><path id="Path_2660" data-name="Path 2660" class="cls-6" d="M480,355.1l-3.76-1.85L473,354.92" transform="translate(-2.03 -2.74)"/></g><g id="Group_779" data-name="Group 779"><path id="Path_2661" data-name="Path 2661" class="cls-6" d="M468.3,351.91c.09-.09,0-3.65,0-3.65l-3.2,1.85" transform="translate(-2.03 -2.74)"/><path id="Path_2662" data-name="Path 2662" class="cls-6" d="M460.86,348.3" transform="translate(-2.03 -2.74)"/><path id="Path_2663" data-name="Path 2663" class="cls-6" d="M468.3,348.26l-3.75-1.85-3.27,1.67" transform="translate(-2.03 -2.74)"/></g></g><g id="Group_786" data-name="Group 786"><g id="Group_781" data-name="Group 781"><path id="Path_2664" data-name="Path 2664" class="cls-6" d="M524.82,373.59l3.69-2.13c.09-.09,0-3.65,0-3.65l-3.69,2.13Z" transform="translate(-2.03 -2.74)"/><path id="Path_2665" data-name="Path 2665" class="cls-6" d="M524.76,373.63l-3.69-2.13c-.09-.09,0-3.65,0-3.65l3.69,2.13Z" transform="translate(-2.03 -2.74)"/><path id="Path_2666" data-name="Path 2666" class="cls-6" d="M528.51,367.81,524.76,366l-3.69,1.89" transform="translate(-2.03 -2.74)"/></g><g id="Group_782" data-name="Group 782"><path id="Path_2667" data-name="Path 2667" class="cls-6" d="M513.13,366.77l3.69-2.13c.09-.09,0-3.65,0-3.65l-3.69,2.13Z" transform="translate(-2.03 -2.74)"/><path id="Path_2668" data-name="Path 2668" class="cls-6" d="M513.06,366.81l-3.69-2.13c-.09-.09,0-3.65,0-3.65l3.69,2.13Z" transform="translate(-2.03 -2.74)"/><path id="Path_2669" data-name="Path 2669" class="cls-6" d="M516.82,361l-3.76-1.85L509.37,361" transform="translate(-2.03 -2.74)"/></g><g id="Group_783" data-name="Group 783"><path id="Path_2670" data-name="Path 2670" class="cls-6" d="M501.43,360l3.69-2.13c.09-.09,0-3.65,0-3.65l-3.69,2.13Z" transform="translate(-2.03 -2.74)"/><path id="Path_2671" data-name="Path 2671" class="cls-6" d="M501.37,360l-3.69-2.13c-.09-.09,0-3.65,0-3.65l3.69,2.13Z" transform="translate(-2.03 -2.74)"/><path id="Path_2672" data-name="Path 2672" class="cls-6" d="M505.13,354.17l-3.76-1.85-3.69,1.89" transform="translate(-2.03 -2.74)"/></g><g id="Group_784" data-name="Group 784"><path id="Path_2673" data-name="Path 2673" class="cls-6" d="M489.74,353.13l3.69-2.13c.09-.09,0-3.65,0-3.65l-3.69,2.13Z" transform="translate(-2.03 -2.74)"/><path id="Path_2674" data-name="Path 2674" class="cls-6" d="M489.67,353.16,486,351c-.08-.08,0-3.65,0-3.65l3.69,2.13Z" transform="translate(-2.03 -2.74)"/><path id="Path_2675" data-name="Path 2675" class="cls-6" d="M493.43,347.35l-3.76-1.85L486,347.38" transform="translate(-2.03 -2.74)"/></g><g id="Group_785" data-name="Group 785"><path id="Path_2676" data-name="Path 2676" class="cls-6" d="M478.05,346.3l3.69-2.13c.09-.08,0-3.64,0-3.64l-3.69,2.13Z" transform="translate(-2.03 -2.74)"/><path id="Path_2677" data-name="Path 2677" class="cls-6" d="M478,346.34l-3.69-2.13c-.09-.08,0-3.65,0-3.65l3.69,2.13Z" transform="translate(-2.03 -2.74)"/><path id="Path_2678" data-name="Path 2678" class="cls-6" d="M481.74,340.53,478,338.68l-3.69,1.88" transform="translate(-2.03 -2.74)"/></g></g><g id="Group_792" data-name="Group 792"><g id="Group_787" data-name="Group 787"><path id="Path_2679" data-name="Path 2679" class="cls-6" d="M538.28,365.82l3.7-2.13c.08-.09,0-3.65,0-3.65l-3.7,2.13Z" transform="translate(-2.03 -2.74)"/><path id="Path_2680" data-name="Path 2680" class="cls-6" d="M538.22,365.86l-3.69-2.13c-.09-.09,0-3.65,0-3.65l3.69,2.13Z" transform="translate(-2.03 -2.74)"/><path id="Path_2681" data-name="Path 2681" class="cls-6" d="M542,360l-3.76-1.85-3.69,1.89" transform="translate(-2.03 -2.74)"/></g><g id="Group_788" data-name="Group 788"><path id="Path_2682" data-name="Path 2682" class="cls-6" d="M526.59,359l3.69-2.13c.09-.09,0-3.65,0-3.65l-3.69,2.13Z" transform="translate(-2.03 -2.74)"/><path id="Path_2683" data-name="Path 2683" class="cls-6" d="M526.52,359l-3.69-2.13c-.08-.09,0-3.65,0-3.65l3.69,2.13Z" transform="translate(-2.03 -2.74)"/><path id="Path_2684" data-name="Path 2684" class="cls-6" d="M530.28,353.22l-3.76-1.85-3.69,1.89" transform="translate(-2.03 -2.74)"/></g><g id="Group_789" data-name="Group 789"><path id="Path_2685" data-name="Path 2685" class="cls-6" d="M514.9,352.18l3.69-2.13c.09-.09,0-3.65,0-3.65l-3.69,2.13Z" transform="translate(-2.03 -2.74)"/><path id="Path_2686" data-name="Path 2686" class="cls-6" d="M514.83,352.22l-3.69-2.13c-.09-.09,0-3.65,0-3.65l3.69,2.13Z" transform="translate(-2.03 -2.74)"/><path id="Path_2687" data-name="Path 2687" class="cls-6" d="M518.59,346.4l-3.76-1.85-3.69,1.89" transform="translate(-2.03 -2.74)"/></g><g id="Group_790" data-name="Group 790"><path id="Path_2688" data-name="Path 2688" class="cls-6" d="M503.2,345.36l3.69-2.13c.09-.09,0-3.65,0-3.65l-3.69,2.13Z" transform="translate(-2.03 -2.74)"/><path id="Path_2689" data-name="Path 2689" class="cls-6" d="M503.14,345.39l-3.69-2.13c-.09-.08,0-3.64,0-3.64l3.69,2.13Z" transform="translate(-2.03 -2.74)"/><path id="Path_2690" data-name="Path 2690" class="cls-6" d="M506.89,339.58l-3.75-1.85-3.69,1.89" transform="translate(-2.03 -2.74)"/></g><g id="Group_791" data-name="Group 791"><path id="Path_2691" data-name="Path 2691" class="cls-6" d="M491.51,338.54l3.69-2.13c.09-.09,0-3.65,0-3.65l-3.69,2.13Z" transform="translate(-2.03 -2.74)"/><path id="Path_2692" data-name="Path 2692" class="cls-6" d="M491.44,338.57l-3.69-2.13c-.08-.08,0-3.65,0-3.65l3.69,2.13Z" transform="translate(-2.03 -2.74)"/><path id="Path_2693" data-name="Path 2693" class="cls-6" d="M495.2,332.76l-3.76-1.85-3.69,1.88" transform="translate(-2.03 -2.74)"/></g></g><g id="Group_798" data-name="Group 798"><g id="Group_793" data-name="Group 793"><path id="Path_2694" data-name="Path 2694" class="cls-6" d="M551.87,358l3.69-2.13c.09-.09,0-3.65,0-3.65l-3.69,2.13Z" transform="translate(-2.03 -2.74)"/><path id="Path_2695" data-name="Path 2695" class="cls-6" d="M551.8,358.05l-3.69-2.13c-.08-.08,0-3.64,0-3.64l3.69,2.13Z" transform="translate(-2.03 -2.74)"/><path id="Path_2696" data-name="Path 2696" class="cls-6" d="M555.56,352.24l-3.76-1.85-3.69,1.89" transform="translate(-2.03 -2.74)"/></g><g id="Group_794" data-name="Group 794"><path id="Path_2697" data-name="Path 2697" class="cls-6" d="M540.17,351.2l3.7-2.13c.08-.09,0-3.65,0-3.65l-3.7,2.13Z" transform="translate(-2.03 -2.74)"/><path id="Path_2698" data-name="Path 2698" class="cls-6" d="M540.11,351.23l-3.69-2.13c-.09-.08,0-3.65,0-3.65l3.69,2.13Z" transform="translate(-2.03 -2.74)"/><path id="Path_2699" data-name="Path 2699" class="cls-6" d="M543.87,345.42l-3.76-1.85-3.69,1.88" transform="translate(-2.03 -2.74)"/></g><g id="Group_795" data-name="Group 795"><path id="Path_2700" data-name="Path 2700" class="cls-6" d="M528.48,344.38l3.69-2.13c.09-.09,0-3.65,0-3.65l-3.69,2.13Z" transform="translate(-2.03 -2.74)"/><path id="Path_2701" data-name="Path 2701" class="cls-6" d="M528.42,344.41l-3.7-2.13c-.08-.08,0-3.65,0-3.65l3.7,2.13Z" transform="translate(-2.03 -2.74)"/><path id="Path_2702" data-name="Path 2702" class="cls-6" d="M532.17,338.6l-3.75-1.85-3.7,1.88" transform="translate(-2.03 -2.74)"/></g><g id="Group_796" data-name="Group 796"><path id="Path_2703" data-name="Path 2703" class="cls-6" d="M516.79,337.55l3.69-2.13c.08-.08,0-3.65,0-3.65l-3.69,2.13Z" transform="translate(-2.03 -2.74)"/><path id="Path_2704" data-name="Path 2704" class="cls-6" d="M516.72,337.59,513,335.46c-.09-.09,0-3.65,0-3.65l3.69,2.13Z" transform="translate(-2.03 -2.74)"/><path id="Path_2705" data-name="Path 2705" class="cls-6" d="M520.48,331.77l-3.76-1.85L513,331.81" transform="translate(-2.03 -2.74)"/></g><g id="Group_797" data-name="Group 797"><path id="Path_2706" data-name="Path 2706" class="cls-6" d="M505.09,330.73l3.7-2.13c.08-.08,0-3.65,0-3.65l-3.7,2.13Z" transform="translate(-2.03 -2.74)"/><path id="Path_2707" data-name="Path 2707" class="cls-6" d="M505,330.77l-3.69-2.13c-.09-.09,0-3.65,0-3.65l3.69,2.13Z" transform="translate(-2.03 -2.74)"/><path id="Path_2708" data-name="Path 2708" class="cls-6" d="M508.79,325,505,323.1,501.34,325" transform="translate(-2.03 -2.74)"/></g></g></g><g id="Group_800" data-name="Group 800"><circle id="Ellipse_20" data-name="Ellipse 20" class="cls-5" cx="268.27" cy="521.9" r="2.59"/><path id="Path_2709" data-name="Path 2709" class="cls-5" d="M270.94,527.14a3.26,3.26,0,1,1-.31-5.17" transform="translate(-2.03 -2.74)"/></g><g id="Group_801" data-name="Group 801"><circle id="Ellipse_21" data-name="Ellipse 21" class="cls-5" cx="277.88" cy="516.91" r="2.59"/><path id="Path_2710" data-name="Path 2710" class="cls-5" d="M280.55,522.15a3.26,3.26,0,1,1-.31-5.17" transform="translate(-2.03 -2.74)"/></g><g id="Group_802" data-name="Group 802"><circle id="Ellipse_22" data-name="Ellipse 22" class="cls-5" cx="287.49" cy="511.93" r="2.59"/><path id="Path_2711" data-name="Path 2711" class="cls-5" d="M290.16,517.17a3.26,3.26,0,1,1-.31-5.17" transform="translate(-2.03 -2.74)"/></g></g><g id="Group_1092" data-name="Group 1092"><g id="Group_842" data-name="Group 842"><g id="Group_804" data-name="Group 804"><path id="Path_2712" data-name="Path 2712" class="cls-7" d="M213.62,376.17l7.37-4.29,6.16,3.56-7.37,4.29Z" transform="translate(-2.03 -2.74)"/></g><g id="Group_805" data-name="Group 805"><path id="Path_2713" data-name="Path 2713" class="cls-7" d="M213.73,338.46l7.37-4.28-.1,37.71-7.38,4.28Z" transform="translate(-2.03 -2.74)"/></g><g id="Group_806" data-name="Group 806"><path id="Path_2714" data-name="Path 2714" class="cls-8" d="M219.83,362.93l7.37-4.28,0,16.79-7.37,4.29Z" transform="translate(-2.03 -2.74)"/></g><g id="Group_807" data-name="Group 807"><path id="Path_2715" data-name="Path 2715" class="cls-7" d="M220.88,365.64l7.38-4.29,0,15.92-7.37,4.28Z" transform="translate(-2.03 -2.74)"/></g><g id="Group_808" data-name="Group 808"><path id="Path_2716" data-name="Path 2716" class="cls-7" d="M219.83,362.93l7.37-4.28.8,1-7.37,4.28Z" transform="translate(-2.03 -2.74)"/></g><g id="Group_809" data-name="Group 809"><path id="Path_2717" data-name="Path 2717" class="cls-7" d="M220.63,364l7.37-4.29a18.85,18.85,0,0,0,5.09,4.62l-7.37,4.28A18.66,18.66,0,0,1,220.63,364Z" transform="translate(-2.03 -2.74)"/></g><g id="Group_810" data-name="Group 810"><path id="Path_2718" data-name="Path 2718" class="cls-8" d="M229.82,354.21c.05.08.1.15.14.23l-7.37,4.29-.14-.24Z" transform="translate(-2.03 -2.74)"/></g><g id="Group_811" data-name="Group 811"><path id="Path_2719" data-name="Path 2719" class="cls-8" d="M229.36,353.31c.14.3.29.6.46.9l-7.37,4.28c-.17-.3-.32-.6-.46-.9Z" transform="translate(-2.03 -2.74)"/></g><g id="Group_812" data-name="Group 812"><path id="Path_2720" data-name="Path 2720" class="cls-8" d="M230.44,355.17l-7.37,4.28q-.25-.34-.48-.72l7.37-4.29C230.11,354.69,230.28,354.93,230.44,355.17Z" transform="translate(-2.03 -2.74)"/></g><g id="Group_813" data-name="Group 813"><path id="Path_2721" data-name="Path 2721" class="cls-8" d="M229.36,353.31,222,357.59a8.51,8.51,0,0,1-.82-3.5l7.37-4.28A8.51,8.51,0,0,0,229.36,353.31Z" transform="translate(-2.03 -2.74)"/></g><g id="Group_814" data-name="Group 814"><path id="Path_2722" data-name="Path 2722" class="cls-8" d="M230.44,355.17a9.13,9.13,0,0,0,2.72,2.53L225.79,362a9.13,9.13,0,0,1-2.72-2.53Z" transform="translate(-2.03 -2.74)"/></g><g id="Group_815" data-name="Group 815"><path id="Path_2723" data-name="Path 2723" class="cls-8" d="M233.16,357.7l.22.12L226,362.1l-.22-.12Z" transform="translate(-2.03 -2.74)"/></g><g id="Group_816" data-name="Group 816"><path id="Path_2724" data-name="Path 2724" class="cls-8" d="M233.38,357.82a3.94,3.94,0,0,0,.88.35l-7.37,4.29a4.52,4.52,0,0,1-.88-.36Z" transform="translate(-2.03 -2.74)"/></g><g id="Group_817" data-name="Group 817"><path id="Path_2725" data-name="Path 2725" class="cls-8" d="M228.72,348.41a4.7,4.7,0,0,0-.18,1.39l-7.37,4.29a4.66,4.66,0,0,1,.18-1.39Z" transform="translate(-2.03 -2.74)"/></g><g id="Group_818" data-name="Group 818"><path id="Path_2726" data-name="Path 2726" class="cls-8" d="M229.3,347.31a3,3,0,0,0-.58,1.1l-7.37,4.29a2.84,2.84,0,0,1,.58-1.1Z" transform="translate(-2.03 -2.74)"/></g><g id="Group_819" data-name="Group 819"><path id="Path_2727" data-name="Path 2727" class="cls-8" d="M229.37,347.23l-.07.08-7.37,4.29.07-.09Z" transform="translate(-2.03 -2.74)"/></g><g id="Group_820" data-name="Group 820"><path id="Path_2728" data-name="Path 2728" class="cls-8" d="M235.81,358.22l-7.37,4.28a2.82,2.82,0,0,1-1.55,0l7.37-4.29A2.82,2.82,0,0,0,235.81,358.22Z" transform="translate(-2.03 -2.74)"/></g><g id="Group_821" data-name="Group 821"><path id="Path_2729" data-name="Path 2729" class="cls-8" d="M235.81,358.22h0l-7.37,4.28h0l4.43-2.57,1.47-.85.19-.12.57-.33.19-.1A4,4,0,0,1,235.81,358.22Z" transform="translate(-2.03 -2.74)"/></g><g id="Group_822" data-name="Group 822"><path id="Path_2730" data-name="Path 2730" class="cls-7" d="M235.59,356.71,228.22,361a2.39,2.39,0,0,1-2.43-.24l7.37-4.28A2.41,2.41,0,0,0,235.59,356.71Z" transform="translate(-2.03 -2.74)"/></g><g id="Group_823" data-name="Group 823"><path id="Path_2731" data-name="Path 2731" class="cls-8" d="M235.82,358.22a2,2,0,0,0,.52-.22L229,362.29a2.57,2.57,0,0,1-.52.21l3.69-2.14.48-.28,1-.56.93-.54.45-.26A8.34,8.34,0,0,1,235.82,358.22Z" transform="translate(-2.03 -2.74)"/></g><g id="Group_824" data-name="Group 824"><path id="Path_2732" data-name="Path 2732" class="cls-7" d="M223.24,352.43l7.37-4.28a2.45,2.45,0,0,0-1,2.26,7.63,7.63,0,0,0,3.56,6.07l-7.37,4.28a7.67,7.67,0,0,1-3.57-6.06A2.5,2.5,0,0,1,223.24,352.43Z" transform="translate(-2.03 -2.74)"/></g><g id="Group_825" data-name="Group 825"><path id="Path_2733" data-name="Path 2733" class="cls-8" d="M229.37,347.23a.47.47,0,0,1-.12.07l-.26.15-.27.16-.28.16-.14.08-1.07.62-5.23,3a2.22,2.22,0,0,1,.49-.38l7.37-4.29A2.63,2.63,0,0,0,229.37,347.23Z" transform="translate(-2.03 -2.74)"/></g><g id="Group_826" data-name="Group 826"><path id="Path_2734" data-name="Path 2734" class="cls-7" d="M240.49,365.07l-7.37,4.29c-1.86,1.08-4.47.9-7.4-.8l7.37-4.28C236,366,238.63,366.15,240.49,365.07Z" transform="translate(-2.03 -2.74)"/></g><g id="Group_827" data-name="Group 827"><path id="Path_2735" data-name="Path 2735" class="cls-8" d="M219.89,344l7.37-4.28.81-.12-7.37,4.29Z" transform="translate(-2.03 -2.74)"/></g><g id="Group_828" data-name="Group 828"><path id="Path_2736" data-name="Path 2736" class="cls-8" d="M219.89,342l7.37-4.28v1.94L219.89,344Z" transform="translate(-2.03 -2.74)"/></g><g id="Group_829" data-name="Group 829"><path id="Path_2737" data-name="Path 2737" class="cls-8" d="M213.73,338.46l7.37-4.28,6.16,3.56L219.89,342Z" transform="translate(-2.03 -2.74)"/></g><g id="Group_830" data-name="Group 830"><path id="Path_2738" data-name="Path 2738" class="cls-7" d="M222.49,351.13l7.37-4.29a3.32,3.32,0,0,1,3.33.36l-7.37,4.28A3.3,3.3,0,0,0,222.49,351.13Z" transform="translate(-2.03 -2.74)"/></g><g id="Group_831" data-name="Group 831"><path id="Path_2739" data-name="Path 2739" class="cls-7" d="M212.67,336.62l7.37-4.28,8.28,4.78L221,341.4Z" transform="translate(-2.03 -2.74)"/></g><g id="Group_832" data-name="Group 832"><path id="Path_2740" data-name="Path 2740" class="cls-7" d="M221,341.4l7.37-4.28v1L221,342.4Z" transform="translate(-2.03 -2.74)"/></g><g id="Group_833" data-name="Group 833"><path id="Path_2741" data-name="Path 2741" class="cls-7" d="M236.34,358,229,362.29a3.21,3.21,0,0,0,1.32-2.93,10,10,0,0,0-4.47-7.88l7.37-4.28a10,10,0,0,1,4.48,7.87A3.22,3.22,0,0,1,236.34,358Z" transform="translate(-2.03 -2.74)"/></g><g id="Group_834" data-name="Group 834"><path id="Path_2742" data-name="Path 2742" class="cls-8" d="M243.42,358.55c0,3.22-1.12,5.47-2.93,6.52l-7.37,4.29c1.81-1.06,2.92-3.3,2.93-6.53Z" transform="translate(-2.03 -2.74)"/></g><g id="Group_835" data-name="Group 835"><path id="Path_2743" data-name="Path 2743" class="cls-8" d="M225.79,344.9c5.06,2.92,10.28,10.42,10.26,17.93,0,6.55-4.56,9.07-10.33,5.73a18.66,18.66,0,0,1-5.09-4.61l-.8-1-.05,16.8-6.16-3.56.11-37.71,6.16,3.56V344l.81-.11A7.19,7.19,0,0,1,225.79,344.9Zm0,17.08c2.48,1.43,4.5.25,4.51-2.62a10,10,0,0,0-4.48-7.88c-2.6-1.5-4.64-.35-4.65,2.61a9.93,9.93,0,0,0,4.62,7.9" transform="translate(-2.03 -2.74)"/></g><g id="Group_836" data-name="Group 836"><path id="Path_2744" data-name="Path 2744" class="cls-8" d="M228.07,339.56a7.24,7.24,0,0,1,5.09,1.05l-7.37,4.29a7.19,7.19,0,0,0-5.09-1Z" transform="translate(-2.03 -2.74)"/></g><g id="Group_837" data-name="Group 837"><path id="Path_2745" data-name="Path 2745" class="cls-7" d="M225.79,343.69c5.58,3.22,11.34,11.5,11.32,19.76,0,7.22-5,10-11.39,6.33a19.37,19.37,0,0,1-4.84-4.14l0,15.92-8.28-4.78.11-40.15,8.28,4.78v1A8.19,8.19,0,0,1,225.79,343.69Zm-.07,24.88c5.77,3.33,10.31.81,10.33-5.73,0-7.51-5.2-15-10.26-17.94a7.24,7.24,0,0,0-5.09-1l-.81.11V342l-6.16-3.55-.11,37.7,6.16,3.56.05-16.79.8,1a18.86,18.86,0,0,0,5.09,4.62" transform="translate(-2.03 -2.74)"/></g><g id="Group_838" data-name="Group 838"><path id="Path_2746" data-name="Path 2746" class="cls-7" d="M225.82,351.48a10,10,0,0,1,4.47,7.88c0,2.87-2,4.05-4.5,2.62a9.9,9.9,0,0,1-4.62-7.89C221.17,351.13,223.21,350,225.82,351.48Zm0,9.28c1.9,1.1,3.44.19,3.45-2a7.66,7.66,0,0,0-3.43-6c-2-1.16-3.58-.29-3.59,2a7.67,7.67,0,0,0,3.57,6.06" transform="translate(-2.03 -2.74)"/></g><g id="Group_839" data-name="Group 839"><path id="Path_2747" data-name="Path 2747" class="cls-7" d="M221,342.4l7.37-4.28a8.19,8.19,0,0,1,4.84,1.28l-7.37,4.29A8.27,8.27,0,0,0,221,342.4Z" transform="translate(-2.03 -2.74)"/></g><g id="Group_840" data-name="Group 840"><path id="Path_2748" data-name="Path 2748" class="cls-7" d="M233.16,340.61c5.06,2.93,10.28,10.43,10.26,17.94l-7.37,4.28c0-7.51-5.2-15-10.26-17.93Z" transform="translate(-2.03 -2.74)"/></g><g id="Group_841" data-name="Group 841"><path id="Path_2749" data-name="Path 2749" class="cls-7" d="M241.25,366.37l-7.37,4.28c2-1.16,3.22-3.64,3.23-7.21,0-8.26-5.74-16.54-11.32-19.76l7.37-4.28c5.58,3.22,11.34,11.5,11.32,19.76C244.47,362.72,243.25,365.21,241.25,366.37Z" transform="translate(-2.03 -2.74)"/></g></g><g id="Group_851" data-name="Group 851"><g id="Group_843" data-name="Group 843"><path id="Path_2750" data-name="Path 2750" class="cls-7" d="M242.26,377.6l7.37-4.29,6.17,3.56-7.37,4.29Z" transform="translate(-2.03 -2.74)"/></g><g id="Group_844" data-name="Group 844"><path id="Path_2751" data-name="Path 2751" class="cls-7" d="M242.33,355l7.37-4.28-.06,22.62-7.37,4.29Z" transform="translate(-2.03 -2.74)"/></g><g id="Group_845" data-name="Group 845"><path id="Path_2752" data-name="Path 2752" class="cls-8" d="M248.49,358.53l7.37-4.28-.06,22.62-7.37,4.29Z" transform="translate(-2.03 -2.74)"/></g><g id="Group_846" data-name="Group 846"><path id="Path_2753" data-name="Path 2753" class="cls-8" d="M242.33,355l6.16,3.56-.06,22.63-6.16-3.56Z" transform="translate(-2.03 -2.74)"/></g><g id="Group_847" data-name="Group 847"><path id="Path_2754" data-name="Path 2754" class="cls-8" d="M242.33,355l7.37-4.28,6.16,3.56-7.37,4.28Z" transform="translate(-2.03 -2.74)"/></g><g id="Group_848" data-name="Group 848"><path id="Path_2755" data-name="Path 2755" class="cls-7" d="M249.55,357.92l7.37-4.29-.07,25.07L249.48,383Z" transform="translate(-2.03 -2.74)"/></g><g id="Group_849" data-name="Group 849"><path id="Path_2756" data-name="Path 2756" class="cls-7" d="M241.27,353.14l7.37-4.29,8.28,4.78-7.37,4.29Z" transform="translate(-2.03 -2.74)"/></g><g id="Group_850" data-name="Group 850"><path id="Path_2757" data-name="Path 2757" class="cls-7" d="M241.27,353.14l8.28,4.78L249.48,383l-8.28-4.79Zm7.16,28,.06-22.63L242.33,355l-.07,22.63,6.17,3.56" transform="translate(-2.03 -2.74)"/></g></g><g id="Group_859" data-name="Group 859"><g id="Group_852" data-name="Group 852"><path id="Path_2758" data-name="Path 2758" class="cls-7" d="M243.67,346.6l7.37-4.29a2,2,0,0,0-.83,1.78,6.28,6.28,0,0,0,2.8,4.85,1.93,1.93,0,0,0,1.94.17l-7.37,4.28a1.91,1.91,0,0,1-1.94-.17,6.26,6.26,0,0,1-2.8-4.84A2,2,0,0,1,243.67,346.6Z" transform="translate(-2.03 -2.74)"/></g><g id="Group_853" data-name="Group 853"><path id="Path_2759" data-name="Path 2759" class="cls-8" d="M255.79,347.31a2,2,0,0,1-.83,1.8l-7.38,4.28a2,2,0,0,0,.83-1.8Z" transform="translate(-2.03 -2.74)"/></g><g id="Group_854" data-name="Group 854"><path id="Path_2760" data-name="Path 2760" class="cls-8" d="M251,342.31a2,2,0,0,1,2,.18l-7.37,4.29a2,2,0,0,0-2-.18Z" transform="translate(-2.03 -2.74)"/></g><g id="Group_855" data-name="Group 855"><path id="Path_2761" data-name="Path 2761" class="cls-8" d="M245.65,353.22a6.24,6.24,0,0,1-2.8-4.84c0-1.76,1.3-2.48,2.82-1.6a6.2,6.2,0,0,1,2.75,4.81C248.41,353.35,247.15,354.08,245.65,353.22Z" transform="translate(-2.03 -2.74)"/></g><g id="Group_856" data-name="Group 856"><path id="Path_2762" data-name="Path 2762" class="cls-8" d="M253,342.49a6.23,6.23,0,0,1,2.75,4.82l-7.38,4.28a6.16,6.16,0,0,0-2.74-4.81Z" transform="translate(-2.03 -2.74)"/></g><g id="Group_857" data-name="Group 857"><path id="Path_2763" data-name="Path 2763" class="cls-7" d="M242.91,345.28l7.38-4.28a2.72,2.72,0,0,1,2.75.27,8.58,8.58,0,0,1,3.8,6.65,2.72,2.72,0,0,1-1.14,2.48l-7.37,4.28a2.7,2.7,0,0,0,1.14-2.47,8.6,8.6,0,0,0-3.8-6.66A2.76,2.76,0,0,0,242.91,345.28Z" transform="translate(-2.03 -2.74)"/></g><g id="Group_858" data-name="Group 858"><path id="Path_2764" data-name="Path 2764" class="cls-7" d="M245.64,354.44a8.51,8.51,0,0,1-3.86-6.68c0-2.45,1.75-3.44,3.89-2.21a8.58,8.58,0,0,1,3.8,6.65C249.47,354.62,247.71,355.63,245.64,354.44Zm0-7.66c-1.53-.88-2.82-.16-2.83,1.6a6.3,6.3,0,0,0,2.8,4.85c1.5.86,2.76.12,2.77-1.64a6.21,6.21,0,0,0-2.75-4.81" transform="translate(-2.03 -2.74)"/></g></g><g id="Group_880" data-name="Group 880"><g id="Group_860" data-name="Group 860"><path id="Path_2765" data-name="Path 2765" class="cls-7" d="M254,384.37l7.37-4.29,7.54,4.36-7.37,4.28Z" transform="translate(-2.03 -2.74)"/></g><g id="Group_861" data-name="Group 861"><path id="Path_2766" data-name="Path 2766" class="cls-7" d="M264.61,387.6l7.37-4.28L269.45,386l-7.37,4.29Z" transform="translate(-2.03 -2.74)"/></g><g id="Group_862" data-name="Group 862"><path id="Path_2767" data-name="Path 2767" class="cls-8" d="M264.62,385.49,272,381.2l-3.09,3.24-7.37,4.28Z" transform="translate(-2.03 -2.74)"/></g><g id="Group_863" data-name="Group 863"><path id="Path_2768" data-name="Path 2768" class="cls-7" d="M264.62,385.49,272,381.2l3.06,6.79-7.37,4.28Z" transform="translate(-2.03 -2.74)"/></g><g id="Group_864" data-name="Group 864"><path id="Path_2769" data-name="Path 2769" class="cls-7" d="M260.87,377.11l7.37-4.29-6.88,7.26L254,384.37Z" transform="translate(-2.03 -2.74)"/></g><g id="Group_865" data-name="Group 865"><path id="Path_2770" data-name="Path 2770" class="cls-7" d="M253.88,361.64l7.37-4.28,7,15.46-7.37,4.29Z" transform="translate(-2.03 -2.74)"/></g><g id="Group_866" data-name="Group 866"><path id="Path_2771" data-name="Path 2771" class="cls-7" d="M267.68,392.27l7.37-4.29,7.5,4.34-7.37,4.28Z" transform="translate(-2.03 -2.74)"/></g><g id="Group_867" data-name="Group 867"><path id="Path_2772" data-name="Path 2772" class="cls-8" d="M268.41,381.52l7.37-4.29,6.77,15.09-7.37,4.28Z" transform="translate(-2.03 -2.74)"/></g><g id="Group_868" data-name="Group 868"><path id="Path_2773" data-name="Path 2773" class="cls-7" d="M269.7,382.26l7.37-4.28,7.51,16.73L277.21,399Z" transform="translate(-2.03 -2.74)"/></g><g id="Group_869" data-name="Group 869"><path id="Path_2774" data-name="Path 2774" class="cls-8" d="M261.42,366l7.37-4.28,3.23,7.14-7.37,4.28Z" transform="translate(-2.03 -2.74)"/></g><g id="Group_870" data-name="Group 870"><path id="Path_2775" data-name="Path 2775" class="cls-7" d="M262,365.08l7.37-4.28,2.69,5.93L264.66,371Z" transform="translate(-2.03 -2.74)"/></g><g id="Group_871" data-name="Group 871"><path id="Path_2776" data-name="Path 2776" class="cls-7" d="M267.87,369.72l7.37-4.28L272,368.85l-7.37,4.28Z" transform="translate(-2.03 -2.74)"/></g><g id="Group_872" data-name="Group 872"><path id="Path_2777" data-name="Path 2777" class="cls-8" d="M275.43,374.08l7.37-4.28-7,7.43-7.37,4.29Z" transform="translate(-2.03 -2.74)"/></g><g id="Group_873" data-name="Group 873"><path id="Path_2778" data-name="Path 2778" class="cls-8" d="M267.87,369.72l7.37-4.28,7.56,4.36-7.37,4.28Z" transform="translate(-2.03 -2.74)"/></g><g id="Group_874" data-name="Group 874"><path id="Path_2779" data-name="Path 2779" class="cls-7" d="M277.46,374l-7.76,8.23L277.21,399l-10.08-5.82-2.51-5.57-2.53,2.66L252,384.4l7.62-8-7.74-17.13L262,365.09l2.69,5.93,2.67-2.84Zm-2.28,22.57-6.77-15.08,7-7.44-7.55-4.36-3.22,3.41L261.42,366l-7.54-4.35,7,15.47L254,384.37l7.55,4.35,3.08-3.23,3.06,6.78,7.51,4.33" transform="translate(-2.03 -2.74)"/></g><g id="Group_875" data-name="Group 875"><path id="Path_2780" data-name="Path 2780" class="cls-7" d="M253.88,361.64l7.37-4.28,7.54,4.35L261.42,366Z" transform="translate(-2.03 -2.74)"/></g><g id="Group_876" data-name="Group 876"><path id="Path_2781" data-name="Path 2781" class="cls-7" d="M251.83,359.23,259.2,355l10.14,5.85L262,365.08Z" transform="translate(-2.03 -2.74)"/></g><g id="Group_877" data-name="Group 877"><path id="Path_2782" data-name="Path 2782" class="cls-8" d="M275.43,374.09l-7,7.43,6.77,15.09-7.51-4.34-3.06-6.78-3.08,3.23L254,384.37l6.88-7.26-7-15.46,7.54,4.35,3.24,7.14,3.22-3.42Z" transform="translate(-2.03 -2.74)"/></g><g id="Group_878" data-name="Group 878"><path id="Path_2783" data-name="Path 2783" class="cls-7" d="M267.33,368.19l7.37-4.29,10.13,5.85L277.46,374Z" transform="translate(-2.03 -2.74)"/></g><g id="Group_879" data-name="Group 879"><path id="Path_2784" data-name="Path 2784" class="cls-7" d="M277.46,374l7.38-4.28L277.07,378l-7.37,4.28Z" transform="translate(-2.03 -2.74)"/></g></g><g id="Group_906" data-name="Group 906"><g id="Group_881" data-name="Group 881"><path id="Path_2785" data-name="Path 2785" class="cls-7" d="M282.66,381.26,290,377c-1.85,1.07-3,3.35-3,6.59,0,6.63,4.5,14.45,10.3,17.8a9,9,0,0,0,5.86,1.35L295.82,407a9,9,0,0,1-5.86-1.35c-5.8-3.34-10.32-11.16-10.3-17.8C279.66,384.62,280.81,382.34,282.66,381.26Z" transform="translate(-2.03 -2.74)"/></g><g id="Group_882" data-name="Group 882"><path id="Path_2786" data-name="Path 2786" class="cls-8" d="M284.62,392.6l7.37-4.29.38,1.1L285,393.7Z" transform="translate(-2.03 -2.74)"/></g><g id="Group_883" data-name="Group 883"><path id="Path_2787" data-name="Path 2787" class="cls-8" d="M285,393.69l7.38-4.28a12.38,12.38,0,0,0,5,6.43,4.88,4.88,0,0,0,2.29.74l-7.38,4.29a5,5,0,0,1-2.29-.74A12.45,12.45,0,0,1,285,393.69Z" transform="translate(-2.03 -2.74)"/></g><g id="Group_884" data-name="Group 884"><path id="Path_2788" data-name="Path 2788" class="cls-8" d="M292.26,400.87l7.37-4.28,3.55,6.13L295.81,407Z" transform="translate(-2.03 -2.74)"/></g><g id="Group_885" data-name="Group 885"><path id="Path_2789" data-name="Path 2789" class="cls-8" d="M285,388.26l7.37-4.28-.37.66-7.37,4.29Z" transform="translate(-2.03 -2.74)"/></g><g id="Group_886" data-name="Group 886"><path id="Path_2790" data-name="Path 2790" class="cls-7" d="M286.43,394.87l7.37-4.29a9.6,9.6,0,0,0,3.55,4.05,3.69,3.69,0,0,0,2.12.58l-7.38,4.29a3.8,3.8,0,0,1-2.12-.59A9.61,9.61,0,0,1,286.43,394.87Z" transform="translate(-2.03 -2.74)"/></g><g id="Group_887" data-name="Group 887"><path id="Path_2791" data-name="Path 2791" class="cls-7" d="M292.45,399.46l7.37-4.28,5,8.66-7.37,4.28Z" transform="translate(-2.03 -2.74)"/></g><g id="Group_888" data-name="Group 888"><path id="Path_2792" data-name="Path 2792" class="cls-7" d="M292.1,399.5l7.37-4.29.35,0-7.37,4.28Z" transform="translate(-2.03 -2.74)"/></g><g id="Group_889" data-name="Group 889"><path id="Path_2793" data-name="Path 2793" class="cls-8" d="M307.57,395.43a15.74,15.74,0,0,1-.11,1.82l-7.37,4.28a15.7,15.7,0,0,0,.11-1.81Z" transform="translate(-2.03 -2.74)"/></g><g id="Group_890" data-name="Group 890"><path id="Path_2794" data-name="Path 2794" class="cls-7" d="M284.62,392.6l7.37-4.29,15.47,8.94-7.37,4.28Z" transform="translate(-2.03 -2.74)"/></g><g id="Group_891" data-name="Group 891"><path id="Path_2795" data-name="Path 2795" class="cls-7" d="M294.82,394l7.37-4.28.31,1L295.13,395Z" transform="translate(-2.03 -2.74)"/></g><g id="Group_892" data-name="Group 892"><path id="Path_2796" data-name="Path 2796" class="cls-7" d="M286.38,388.73l7.38-4.28,7,4.07-7.37,4.28Z" transform="translate(-2.03 -2.74)"/></g><g id="Group_893" data-name="Group 893"><path id="Path_2797" data-name="Path 2797" class="cls-8" d="M293.4,382.87a2.92,2.92,0,0,0-1.07,1.11L285,388.26a2.9,2.9,0,0,1,1.07-1.1Z" transform="translate(-2.03 -2.74)"/></g><g id="Group_894" data-name="Group 894"><path id="Path_2798" data-name="Path 2798" class="cls-7" d="M286,387.16l7.37-4.29c1-.6,2.45-.47,4,.41L290,387.56C288.48,386.68,287.06,386.56,286,387.16Z" transform="translate(-2.03 -2.74)"/></g><g id="Group_895" data-name="Group 895"><path id="Path_2799" data-name="Path 2799" class="cls-7" d="M290,387.56l7.37-4.28a11.5,11.5,0,0,1,4.81,6.41L294.82,394A11.5,11.5,0,0,0,290,387.56Z" transform="translate(-2.03 -2.74)"/></g><g id="Group_896" data-name="Group 896"><path id="Path_2800" data-name="Path 2800" class="cls-8" d="M290,377c1.88-1.09,4.49-.94,7.37.72L290,382c-2.88-1.67-5.49-1.82-7.37-.73Z" transform="translate(-2.03 -2.74)"/></g><g id="Group_897" data-name="Group 897"><path id="Path_2801" data-name="Path 2801" class="cls-7" d="M281.91,380l7.37-4.28c2.07-1.2,5-1,8.12.8L290,380.77C286.86,378.94,284,378.77,281.91,380Z" transform="translate(-2.03 -2.74)"/></g><g id="Group_898" data-name="Group 898"><path id="Path_2802" data-name="Path 2802" class="cls-8" d="M297.4,377.7c5.72,3.3,10.19,11.09,10.17,17.73l-7.37,4.29c0-6.65-4.45-14.43-10.17-17.73Z" transform="translate(-2.03 -2.74)"/></g><g id="Group_899" data-name="Group 899"><path id="Path_2803" data-name="Path 2803" class="cls-7" d="M290,380.77c6.32,3.64,11.25,12.24,11.23,19.56a13.76,13.76,0,0,1-.2,2.48l-.09.45-14.54-8.39a9.61,9.61,0,0,0,3.54,4,3.8,3.8,0,0,0,2.12.59l.36,0,5,8.66-.51.13a9.62,9.62,0,0,1-7-1.38c-6.39-3.69-11.38-12.32-11.36-19.63S283.74,377.14,290,380.77Zm10.06,20.76a13.74,13.74,0,0,0,.11-1.81c0-6.65-4.45-14.43-10.17-17.74s-10.36-.66-10.38,5.87,4.51,14.45,10.31,17.8a9,9,0,0,0,5.85,1.35l-3.54-6.13a5,5,0,0,1-2.29-.74,12.42,12.42,0,0,1-5-6.43l-.38-1.1,15.47,8.93" transform="translate(-2.03 -2.74)"/></g><g id="Group_900" data-name="Group 900"><path id="Path_2804" data-name="Path 2804" class="cls-7" d="M290,387.56a11.5,11.5,0,0,1,4.81,6.41l.31,1-10.54-6.09.37-.66C285.91,386.58,287.84,386.31,290,387.56Zm-3.63,1.17,7.05,4.07a8.81,8.81,0,0,0-3.42-4c-1.45-.84-2.77-.83-3.63,0" transform="translate(-2.03 -2.74)"/></g><g id="Group_901" data-name="Group 901"><path id="Path_2805" data-name="Path 2805" class="cls-7" d="M294.82,394a12.2,12.2,0,0,0-.63-1.61l-.76.44-7.05-4.07,2.75-1.6a5.39,5.39,0,0,0-1-.28l-3.57,2.07L295.13,395l3.7-2.15c-.13-.33-.26-.66-.41-1Z" transform="translate(-2.03 -2.74)"/></g><g id="Group_902" data-name="Group 902"><path id="Path_2806" data-name="Path 2806" class="cls-7" d="M286.75,388.46l-.06,0,0,0,0,0,0,0-.06,0,0,0-.09.07.81-.47A2.48,2.48,0,0,0,286.75,388.46Zm2.38-1.32h0l-.06,0h0Z" transform="translate(-2.03 -2.74)"/></g><g id="Group_903" data-name="Group 903"><path id="Path_2807" data-name="Path 2807" class="cls-7" d="M301.06,402.81l7.37-4.28-.09.44L301,403.26Z" transform="translate(-2.03 -2.74)"/></g><g id="Group_904" data-name="Group 904"><path id="Path_2808" data-name="Path 2808" class="cls-8" d="M300.2,399.72a15.7,15.7,0,0,1-.11,1.81l-15.47-8.93.37,1.1a12.43,12.43,0,0,0,5,6.43,5,5,0,0,0,2.29.74l3.55,6.13a8.93,8.93,0,0,1-5.85-1.35c-5.8-3.35-10.33-11.16-10.31-17.8s4.67-9.16,10.38-5.86S300.22,393.07,300.2,399.72Zm-15.61-10.8L295.13,395l-.31-1a11.5,11.5,0,0,0-4.81-6.41c-2.17-1.25-4.1-1-5.05.7l-.37.67" transform="translate(-2.03 -2.74)"/></g><g id="Group_905" data-name="Group 905"><path id="Path_2809" data-name="Path 2809" class="cls-7" d="M290,380.77l7.37-4.28c6.32,3.64,11.25,12.23,11.23,19.55a13.79,13.79,0,0,1-.2,2.49l-7.37,4.29a13.94,13.94,0,0,0,.2-2.49C301.28,393,296.34,384.41,290,380.77Z" transform="translate(-2.03 -2.74)"/></g></g><g id="Group_915" data-name="Group 915"><g id="Group_907" data-name="Group 907"><path id="Path_2810" data-name="Path 2810" class="cls-7" d="M306,414.37l7.37-4.29,6.16,3.56-7.37,4.29Z" transform="translate(-2.03 -2.74)"/></g><g id="Group_908" data-name="Group 908"><path id="Path_2811" data-name="Path 2811" class="cls-7" d="M306.06,376.71l7.37-4.29-.1,37.66L306,414.37Z" transform="translate(-2.03 -2.74)"/></g><g id="Group_909" data-name="Group 909"><path id="Path_2812" data-name="Path 2812" class="cls-8" d="M306.06,376.71l7.37-4.29L319.6,376l-7.37,4.29Z" transform="translate(-2.03 -2.74)"/></g><g id="Group_910" data-name="Group 910"><path id="Path_2813" data-name="Path 2813" class="cls-8" d="M312.23,380.27,319.6,376l-.11,37.67-7.37,4.28Z" transform="translate(-2.03 -2.74)"/></g><g id="Group_911" data-name="Group 911"><path id="Path_2814" data-name="Path 2814" class="cls-7" d="M305,374.88l8.28,4.78-.12,40.1L304.89,415Zm7.11,43.05.11-37.66-6.17-3.56-.1,37.66,6.16,3.56" transform="translate(-2.03 -2.74)"/></g><g id="Group_912" data-name="Group 912"><path id="Path_2815" data-name="Path 2815" class="cls-8" d="M312.23,380.27l-.11,37.66L306,414.37l.1-37.66Z" transform="translate(-2.03 -2.74)"/></g><g id="Group_913" data-name="Group 913"><path id="Path_2816" data-name="Path 2816" class="cls-7" d="M313.29,379.66l7.37-4.28-.11,40.1-7.38,4.28Z" transform="translate(-2.03 -2.74)"/></g><g id="Group_914" data-name="Group 914"><path id="Path_2817" data-name="Path 2817" class="cls-7" d="M305,374.88l7.37-4.28,8.28,4.78-7.37,4.29Z" transform="translate(-2.03 -2.74)"/></g></g><g id="Group_955" data-name="Group 955"><g id="Group_916" data-name="Group 916"><path id="Path_2818" data-name="Path 2818" class="cls-7" d="M415.29,477.43l7.37-4.28,6.16,3.56L421.45,481Z" transform="translate(-2.03 -2.74)"/></g><g id="Group_917" data-name="Group 917"><path id="Path_2819" data-name="Path 2819" class="cls-7" d="M422.51,481.82l7.37-4.28v1l-7.37,4.28Z" transform="translate(-2.03 -2.74)"/></g><g id="Group_918" data-name="Group 918"><path id="Path_2820" data-name="Path 2820" class="cls-8" d="M421.46,479l7.37-4.29v2L421.45,481Z" transform="translate(-2.03 -2.74)"/></g><g id="Group_919" data-name="Group 919"><path id="Path_2821" data-name="Path 2821" class="cls-7" d="M421.46,479l7.37-4.29.81,1.06-7.37,4.29Z" transform="translate(-2.03 -2.74)"/></g><g id="Group_920" data-name="Group 920"><path id="Path_2822" data-name="Path 2822" class="cls-7" d="M422.27,480.1l7.37-4.29a17.39,17.39,0,0,0,5.08,4.81l-7.37,4.29A17.52,17.52,0,0,1,422.27,480.1Z" transform="translate(-2.03 -2.74)"/></g><g id="Group_921" data-name="Group 921"><path id="Path_2823" data-name="Path 2823" class="cls-8" d="M431.45,470.59l.07.11L424.14,475l-.06-.11Z" transform="translate(-2.03 -2.74)"/></g><g id="Group_922" data-name="Group 922"><path id="Path_2824" data-name="Path 2824" class="cls-8" d="M432.09,471.59l-7.37,4.28c-.2-.29-.4-.58-.58-.89l7.38-4.28A10.34,10.34,0,0,0,432.09,471.59Z" transform="translate(-2.03 -2.74)"/></g><g id="Group_923" data-name="Group 923"><path id="Path_2825" data-name="Path 2825" class="cls-8" d="M431,469.66a10.12,10.12,0,0,0,.47.93l-7.37,4.29c-.17-.3-.33-.62-.47-.93Z" transform="translate(-2.03 -2.74)"/></g><g id="Group_924" data-name="Group 924"><path id="Path_2826" data-name="Path 2826" class="cls-8" d="M431,469.66,423.61,474A10,10,0,0,1,423,472l7.37-4.28A9.88,9.88,0,0,0,431,469.66Z" transform="translate(-2.03 -2.74)"/></g><g id="Group_925" data-name="Group 925"><path id="Path_2827" data-name="Path 2827" class="cls-8" d="M432.09,471.59a10.12,10.12,0,0,0,1.38,1.54l-7.37,4.28a10.12,10.12,0,0,1-1.38-1.54Z" transform="translate(-2.03 -2.74)"/></g><g id="Group_926" data-name="Group 926"><path id="Path_2828" data-name="Path 2828" class="cls-8" d="M430.16,466.15a7.29,7.29,0,0,0,.18,1.61L423,472a7.29,7.29,0,0,1-.18-1.61Z" transform="translate(-2.03 -2.74)"/></g><g id="Group_927" data-name="Group 927"><path id="Path_2829" data-name="Path 2829" class="cls-8" d="M433.47,473.13a7.79,7.79,0,0,0,1.31,1l-7.37,4.28a7.74,7.74,0,0,1-1.31-1Z" transform="translate(-2.03 -2.74)"/></g><g id="Group_928" data-name="Group 928"><path id="Path_2830" data-name="Path 2830" class="cls-8" d="M434.78,474.1a4.79,4.79,0,0,0,1.09.47l-7.37,4.28a4.79,4.79,0,0,1-1.09-.47Z" transform="translate(-2.03 -2.74)"/></g><g id="Group_929" data-name="Group 929"><path id="Path_2831" data-name="Path 2831" class="cls-8" d="M430.3,465a4.65,4.65,0,0,0-.14,1.18l-7.37,4.28a5.2,5.2,0,0,1,.13-1.18Z" transform="translate(-2.03 -2.74)"/></g><g id="Group_930" data-name="Group 930"><path id="Path_2832" data-name="Path 2832" class="cls-8" d="M430.74,463.92a3,3,0,0,0-.44,1.05l-7.38,4.28a3.37,3.37,0,0,1,.45-1.05Z" transform="translate(-2.03 -2.74)"/></g><g id="Group_931" data-name="Group 931"><path id="Path_2833" data-name="Path 2833" class="cls-8" d="M435.87,474.57a3.29,3.29,0,0,0,1.17.12L429.66,479a2.86,2.86,0,0,1-1.16-.12Z" transform="translate(-2.03 -2.74)"/></g><g id="Group_932" data-name="Group 932"><path id="Path_2834" data-name="Path 2834" class="cls-8" d="M431,463.6a2.6,2.6,0,0,0-.26.32l-7.37,4.28a1.94,1.94,0,0,1,.26-.31Z" transform="translate(-2.03 -2.74)"/></g><g id="Group_933" data-name="Group 933"><path id="Path_2835" data-name="Path 2835" class="cls-8" d="M437.42,474.62l-7.37,4.28a2.66,2.66,0,0,1-.39.07l7.38-4.28Z" transform="translate(-2.03 -2.74)"/></g><g id="Group_934" data-name="Group 934"><path id="Path_2836" data-name="Path 2836" class="cls-8" d="M437.42,474.62a2.7,2.7,0,0,0,.53-.22l-7.38,4.28a2,2,0,0,1-.52.22l4.45-2.59,1.46-.85,1.12-.65A2.27,2.27,0,0,1,437.42,474.62Z" transform="translate(-2.03 -2.74)"/></g><g id="Group_935" data-name="Group 935"><path id="Path_2837" data-name="Path 2837" class="cls-7" d="M437.2,473.1l-7.38,4.29a2.36,2.36,0,0,1-2.4-.23l7.37-4.28A2.37,2.37,0,0,0,437.2,473.1Z" transform="translate(-2.03 -2.74)"/></g><g id="Group_936" data-name="Group 936"><path id="Path_2838" data-name="Path 2838" class="cls-8" d="M431,463.6a2.08,2.08,0,0,1-.38.22l-.69.4-1.07.63-5.23,3a2.07,2.07,0,0,1,.47-.37l7.37-4.29A2.4,2.4,0,0,0,431,463.6Z" transform="translate(-2.03 -2.74)"/></g><g id="Group_937" data-name="Group 937"><path id="Path_2839" data-name="Path 2839" class="cls-7" d="M424.85,468.81l7.37-4.28a2.43,2.43,0,0,0-1,2.23,7.72,7.72,0,0,0,3.57,6.12l-7.37,4.28a7.72,7.72,0,0,1-3.57-6.12A2.43,2.43,0,0,1,424.85,468.81Z" transform="translate(-2.03 -2.74)"/></g><g id="Group_938" data-name="Group 938"><path id="Path_2840" data-name="Path 2840" class="cls-7" d="M442.1,481.34l-7.37,4.28c-2,1.15-4.71.83-7.38-.71l7.37-4.29C437.39,482.17,440.12,482.49,442.1,481.34Z" transform="translate(-2.03 -2.74)"/></g><g id="Group_939" data-name="Group 939"><path id="Path_2841" data-name="Path 2841" class="cls-7" d="M415.4,439.72l7.37-4.28-.11,37.71-7.37,4.28Z" transform="translate(-2.03 -2.74)"/></g><g id="Group_940" data-name="Group 940"><path id="Path_2842" data-name="Path 2842" class="cls-8" d="M421.51,460.08l7.37-4.29.8-.1L422.31,460Z" transform="translate(-2.03 -2.74)"/></g><g id="Group_941" data-name="Group 941"><path id="Path_2843" data-name="Path 2843" class="cls-7" d="M424.1,467.52l7.37-4.29a3.32,3.32,0,0,1,3.34.37l-7.37,4.28A3.3,3.3,0,0,0,424.1,467.52Z" transform="translate(-2.03 -2.74)"/></g><g id="Group_942" data-name="Group 942"><path id="Path_2844" data-name="Path 2844" class="cls-7" d="M438,474.4l-7.38,4.28a3.26,3.26,0,0,0,1.35-3,9.94,9.94,0,0,0-4.48-7.82l7.37-4.28a9.94,9.94,0,0,1,4.48,7.82A3.25,3.25,0,0,1,438,474.4Z" transform="translate(-2.03 -2.74)"/></g><g id="Group_943" data-name="Group 943"><path id="Path_2845" data-name="Path 2845" class="cls-8" d="M429.69,455.69a8.64,8.64,0,0,1,5.1,1.27l-7.38,4.28a8.62,8.62,0,0,0-5.1-1.26C424.53,458.69,427.26,456.49,429.69,455.69Z" transform="translate(-2.03 -2.74)"/></g><g id="Group_944" data-name="Group 944"><path id="Path_2846" data-name="Path 2846" class="cls-8" d="M445,474.58c0,3.53-1.18,5.73-2.94,6.76l-7.37,4.28c1.76-1,2.93-3.22,2.94-6.76Z" transform="translate(-2.03 -2.74)"/></g><g id="Group_945" data-name="Group 945"><path id="Path_2847" data-name="Path 2847" class="cls-8" d="M434.78,457c5.78,3.33,10.28,11.07,10.26,17.62l-7.37,4.28c0-6.54-4.49-14.29-10.26-17.62Z" transform="translate(-2.03 -2.74)"/></g><g id="Group_946" data-name="Group 946"><path id="Path_2848" data-name="Path 2848" class="cls-8" d="M415.4,439.72l7.37-4.28,6.16,3.56-7.37,4.28Z" transform="translate(-2.03 -2.74)"/></g><g id="Group_947" data-name="Group 947"><path id="Path_2849" data-name="Path 2849" class="cls-8" d="M421.56,443.29l7.37-4.29-.05,16.79-7.37,4.29Z" transform="translate(-2.03 -2.74)"/></g><g id="Group_948" data-name="Group 948"><path id="Path_2850" data-name="Path 2850" class="cls-7" d="M442.86,482.63l-7.37,4.28c1.94-1.13,3.23-3.55,3.24-7.44,0-7.22-5-15.77-11.31-19.44l7.37-4.29c6.36,3.68,11.33,12.22,11.31,19.45C446.09,479.08,444.8,481.5,442.86,482.63Z" transform="translate(-2.03 -2.74)"/></g><g id="Group_949" data-name="Group 949"><path id="Path_2851" data-name="Path 2851" class="cls-7" d="M427.42,460c6.36,3.67,11.33,12.22,11.31,19.44,0,8.27-5.81,9.88-11.39,6.65a18,18,0,0,1-4.83-4.3v1L414.23,478l.11-40.14,8.28,4.78,0,15.91A9.89,9.89,0,0,1,427.42,460Zm-.07,24.88c5,2.92,10.3,1.46,10.32-6.05,0-6.54-4.49-14.29-10.26-17.62a8.62,8.62,0,0,0-5.1-1.26l-.8.1.05-16.79-6.16-3.56-.11,37.7,6.16,3.56v-2l.81,1.06a17.39,17.39,0,0,0,5.08,4.81" transform="translate(-2.03 -2.74)"/></g><g id="Group_950" data-name="Group 950"><path id="Path_2852" data-name="Path 2852" class="cls-7" d="M427.44,467.88a9.94,9.94,0,0,1,4.48,7.82c0,2.91-2,4.11-4.51,2.68a10,10,0,0,1-4.62-7.95C422.8,467.49,424.84,466.38,427.44,467.88Zm0,9.28c1.88,1.09,3.44.17,3.44-2.07a7.61,7.61,0,0,0-3.42-6c-2-1.17-3.58-.3-3.59,1.94a7.67,7.67,0,0,0,3.57,6.12" transform="translate(-2.03 -2.74)"/></g><g id="Group_951" data-name="Group 951"><path id="Path_2853" data-name="Path 2853" class="cls-7" d="M422.58,458.59,430,454.3a10,10,0,0,1,4.84,1.45L427.42,460A9.89,9.89,0,0,0,422.58,458.59Z" transform="translate(-2.03 -2.74)"/></g><g id="Group_952" data-name="Group 952"><path id="Path_2854" data-name="Path 2854" class="cls-8" d="M427.41,461.24c5.77,3.33,10.28,11.08,10.26,17.62,0,7.51-5.27,9-10.32,6.05a17.52,17.52,0,0,1-5.08-4.81l-.81-1.06V481l-6.16-3.56.11-37.71,6.16,3.56-.05,16.79.8-.1A8.62,8.62,0,0,1,427.41,461.24Zm0,17.14c2.48,1.43,4.5.23,4.51-2.68a9.94,9.94,0,0,0-4.48-7.82c-2.6-1.5-4.64-.39-4.65,2.55a10,10,0,0,0,4.62,7.95" transform="translate(-2.03 -2.74)"/></g><g id="Group_953" data-name="Group 953"><path id="Path_2855" data-name="Path 2855" class="cls-7" d="M414.34,437.9l7.37-4.29,8.28,4.78-7.37,4.29Z" transform="translate(-2.03 -2.74)"/></g><g id="Group_954" data-name="Group 954"><path id="Path_2856" data-name="Path 2856" class="cls-7" d="M422.62,442.68l7.37-4.29,0,15.9-7.37,4.29Z" transform="translate(-2.03 -2.74)"/></g></g><g id="Group_990" data-name="Group 990"><g id="Group_956" data-name="Group 956"><path id="Path_2857" data-name="Path 2857" class="cls-7" d="M445.35,475.15l7.37-4.29c-1.85,1.08-3,3.35-3,6.58,0,6.63,4.53,14.46,10.35,17.82a8.77,8.77,0,0,0,5.15,1.4l-7.37,4.28a8.82,8.82,0,0,1-5.16-1.4c-5.81-3.36-10.36-11.19-10.34-17.82C442.36,478.49,443.5,476.22,445.35,475.15Z" transform="translate(-2.03 -2.74)"/></g><g id="Group_957" data-name="Group 957"><path id="Path_2858" data-name="Path 2858" class="cls-8" d="M456.85,485.36l.07.11-7.37,4.28-.07-.11Z" transform="translate(-2.03 -2.74)"/></g><g id="Group_958" data-name="Group 958"><path id="Path_2859" data-name="Path 2859" class="cls-8" d="M457.43,486.27l-7.37,4.29c-.18-.26-.35-.53-.51-.8l7.37-4.29C457.08,485.75,457.25,486,457.43,486.27Z" transform="translate(-2.03 -2.74)"/></g><g id="Group_959" data-name="Group 959"><path id="Path_2860" data-name="Path 2860" class="cls-8" d="M456.42,484.51c.13.29.28.57.43.85l-7.37,4.28c-.16-.28-.3-.56-.43-.85Z" transform="translate(-2.03 -2.74)"/></g><g id="Group_960" data-name="Group 960"><path id="Path_2861" data-name="Path 2861" class="cls-8" d="M457.43,486.27a9.84,9.84,0,0,0,1.37,1.58l-7.37,4.28a9.77,9.77,0,0,1-1.37-1.57Z" transform="translate(-2.03 -2.74)"/></g><g id="Group_961" data-name="Group 961"><path id="Path_2862" data-name="Path 2862" class="cls-8" d="M458.8,487.85a7.45,7.45,0,0,0,1.28.95l-7.37,4.28a6.54,6.54,0,0,1-1.28-.95Z" transform="translate(-2.03 -2.74)"/></g><g id="Group_962" data-name="Group 962"><path id="Path_2863" data-name="Path 2863" class="cls-8" d="M456.42,484.51l-7.37,4.28a8.83,8.83,0,0,1-.87-3.6l7.38-4.28A8.69,8.69,0,0,0,456.42,484.51Z" transform="translate(-2.03 -2.74)"/></g><g id="Group_963" data-name="Group 963"><path id="Path_2864" data-name="Path 2864" class="cls-8" d="M460.08,488.8c.15.08.29.16.43.22l-7.37,4.29a4.5,4.5,0,0,1-.43-.23Z" transform="translate(-2.03 -2.74)"/></g><g id="Group_964" data-name="Group 964"><path id="Path_2865" data-name="Path 2865" class="cls-8" d="M460.51,489a4,4,0,0,0,.65.25l-7.37,4.29a5.12,5.12,0,0,1-.65-.25l3.68-2.14Z" transform="translate(-2.03 -2.74)"/></g><g id="Group_965" data-name="Group 965"><path id="Path_2866" data-name="Path 2866" class="cls-8" d="M455.7,479.73a4.28,4.28,0,0,0-.14,1.18l-7.38,4.28a4.64,4.64,0,0,1,.15-1.17l3.68-2.14,2.83-1.64Z" transform="translate(-2.03 -2.74)"/></g><g id="Group_966" data-name="Group 966"><path id="Path_2867" data-name="Path 2867" class="cls-7" d="M457.85,500.94l7.37-4.29.79-.08-7.37,4.29Z" transform="translate(-2.03 -2.74)"/></g><g id="Group_967" data-name="Group 967"><path id="Path_2868" data-name="Path 2868" class="cls-7" d="M458.64,500.86l7.37-4.29v1.6l-7.37,4.29Z" transform="translate(-2.03 -2.74)"/></g><g id="Group_968" data-name="Group 968"><path id="Path_2869" data-name="Path 2869" class="cls-8" d="M461.16,489.27a3.09,3.09,0,0,0,1.13.12l-7.37,4.29a3.09,3.09,0,0,1-1.13-.12Z" transform="translate(-2.03 -2.74)"/></g><g id="Group_969" data-name="Group 969"><path id="Path_2870" data-name="Path 2870" class="cls-8" d="M462.67,489.32l-7.37,4.29a2.53,2.53,0,0,1-.38.07l7.37-4.29A1.59,1.59,0,0,0,462.67,489.32Z" transform="translate(-2.03 -2.74)"/></g><g id="Group_970" data-name="Group 970"><path id="Path_2871" data-name="Path 2871" class="cls-8" d="M456.39,478.42a3,3,0,0,0-.7,1.31L452,481.88,448.32,484a3,3,0,0,1,.7-1.31Z" transform="translate(-2.03 -2.74)"/></g><g id="Group_971" data-name="Group 971"><path id="Path_2872" data-name="Path 2872" class="cls-8" d="M456.47,478.35l-.08.07L449,482.71l.08-.08Z" transform="translate(-2.03 -2.74)"/></g><g id="Group_972" data-name="Group 972"><path id="Path_2873" data-name="Path 2873" class="cls-8" d="M462.67,489.32a1.62,1.62,0,0,0,.51-.21l-7.37,4.29a2.28,2.28,0,0,1-.51.21l4.48-2.6,1.44-.84.19-.11.74-.43A5.48,5.48,0,0,1,462.67,489.32Z" transform="translate(-2.03 -2.74)"/></g><g id="Group_973" data-name="Group 973"><path id="Path_2874" data-name="Path 2874" class="cls-7" d="M462.43,487.81l-7.37,4.29a2.32,2.32,0,0,1-2.34-.23l7.37-4.29A2.3,2.3,0,0,0,462.43,487.81Z" transform="translate(-2.03 -2.74)"/></g><g id="Group_974" data-name="Group 974"><path id="Path_2875" data-name="Path 2875" class="cls-8" d="M456.47,478.35l-.22.13-.71.41-.93.54-5.51,3.2a2.29,2.29,0,0,1,.43-.32L456.9,478A2,2,0,0,0,456.47,478.35Z" transform="translate(-2.03 -2.74)"/></g><g id="Group_975" data-name="Group 975"><path id="Path_2876" data-name="Path 2876" class="cls-7" d="M450.27,483.59l7.37-4.28a2.44,2.44,0,0,0-1,2.21,7.73,7.73,0,0,0,3.48,6.06l-7.38,4.29a7.76,7.76,0,0,1-3.47-6.07A2.44,2.44,0,0,1,450.27,483.59Z" transform="translate(-2.03 -2.74)"/></g><g id="Group_976" data-name="Group 976"><path id="Path_2877" data-name="Path 2877" class="cls-7" d="M458.64,502.46l7.37-4.29,6.3,3.64-7.38,4.28Z" transform="translate(-2.03 -2.74)"/></g><g id="Group_977" data-name="Group 977"><path id="Path_2878" data-name="Path 2878" class="cls-7" d="M449.53,482.31,456.9,478a3.19,3.19,0,0,1,3.21.29l-7.37,4.28A3.17,3.17,0,0,0,449.53,482.31Z" transform="translate(-2.03 -2.74)"/></g><g id="Group_978" data-name="Group 978"><path id="Path_2879" data-name="Path 2879" class="cls-7" d="M463.18,489.11l-7.37,4.29a3.33,3.33,0,0,0,1.33-3,9.69,9.69,0,0,0-4.4-7.77l7.37-4.28a9.66,9.66,0,0,1,4.4,7.77A3.29,3.29,0,0,1,463.18,489.11Z" transform="translate(-2.03 -2.74)"/></g><g id="Group_979" data-name="Group 979"><path id="Path_2880" data-name="Path 2880" class="cls-7" d="M452.74,482.59a9.72,9.72,0,0,1,4.4,7.77c0,3-1.95,4.16-4.43,2.72a10.06,10.06,0,0,1-4.53-7.89C448.19,482.36,450.28,481.17,452.74,482.59Zm0,9.28c1.88,1.08,3.37.16,3.37-2.12a7.4,7.4,0,0,0-3.34-5.94c-1.89-1.09-3.49-.18-3.5,2a7.76,7.76,0,0,0,3.47,6.07" transform="translate(-2.03 -2.74)"/></g><g id="Group_980" data-name="Group 980"><path id="Path_2881" data-name="Path 2881" class="cls-8" d="M445.35,475.15l7.37-4.29c1.89-1.1,4.52-.94,7.41.73a18.83,18.83,0,0,1,5.15,4.55l-7.37,4.29a18.51,18.51,0,0,0-5.15-4.55C449.86,474.2,447.24,474.05,445.35,475.15Z" transform="translate(-2.03 -2.74)"/></g><g id="Group_981" data-name="Group 981"><path id="Path_2882" data-name="Path 2882" class="cls-8" d="M457.91,480.43l7.37-4.29.79,1-7.37,4.28Z" transform="translate(-2.03 -2.74)"/></g><g id="Group_982" data-name="Group 982"><path id="Path_2883" data-name="Path 2883" class="cls-7" d="M444.6,473.86l7.37-4.29c2.08-1.21,5-1,8.16.8a19.74,19.74,0,0,1,4.88,4.08l-7.37,4.29a19.53,19.53,0,0,0-4.88-4.08C449.58,472.82,446.68,472.65,444.6,473.86Z" transform="translate(-2.03 -2.74)"/></g><g id="Group_983" data-name="Group 983"><path id="Path_2884" data-name="Path 2884" class="cls-7" d="M458.7,479.83l7.37-4.28v1.59l-7.37,4.28Z" transform="translate(-2.03 -2.74)"/></g><g id="Group_984" data-name="Group 984"><path id="Path_2885" data-name="Path 2885" class="cls-8" d="M465,483.47l7.37-4.29-.07,22.63-7.37,4.28Z" transform="translate(-2.03 -2.74)"/></g><g id="Group_985" data-name="Group 985"><path id="Path_2886" data-name="Path 2886" class="cls-8" d="M458.7,479.83l7.37-4.28,6.3,3.63L465,483.47Z" transform="translate(-2.03 -2.74)"/></g><g id="Group_986" data-name="Group 986"><path id="Path_2887" data-name="Path 2887" class="cls-7" d="M457.65,478l8.41,4.86L466,507.92l-8.42-4.86v-.74a10.33,10.33,0,0,1-4.88-1.56c-6.3-3.64-11.42-12.46-11.4-19.65s5.17-10.09,11.47-6.45a19.53,19.53,0,0,1,4.88,4.08Zm7.28,28.1.07-22.62-6.3-3.64v1.59l-.79-1a18.67,18.67,0,0,0-5.15-4.55c-5.72-3.3-10.39-.69-10.41,5.84s4.52,14.46,10.34,17.82a8.8,8.8,0,0,0,5.16,1.4l.79-.08v1.6l6.3,3.64" transform="translate(-2.03 -2.74)"/></g><g id="Group_987" data-name="Group 987"><path id="Path_2888" data-name="Path 2888" class="cls-8" d="M458.7,479.83l6.3,3.64-.07,22.62-6.3-3.63v-1.6l-.8.08a8.77,8.77,0,0,1-5.15-1.4c-5.82-3.36-10.37-11.19-10.35-17.82s4.69-9.15,10.41-5.85a18.69,18.69,0,0,1,5.15,4.55l.79,1Zm-6,13.25c2.48,1.44,4.42.24,4.43-2.72a9.69,9.69,0,0,0-4.4-7.77c-2.46-1.42-4.55-.23-4.55,2.6a10,10,0,0,0,4.52,7.9" transform="translate(-2.03 -2.74)"/></g><g id="Group_988" data-name="Group 988"><path id="Path_2889" data-name="Path 2889" class="cls-7" d="M457.65,478l7.37-4.28,8.41,4.86-7.37,4.28Z" transform="translate(-2.03 -2.74)"/></g><g id="Group_989" data-name="Group 989"><path id="Path_2890" data-name="Path 2890" class="cls-7" d="M466.06,482.85l7.37-4.28-.07,25.07L466,507.92Z" transform="translate(-2.03 -2.74)"/></g></g><g id="Group_1009" data-name="Group 1009"><g id="Group_991" data-name="Group 991"><path id="Path_2891" data-name="Path 2891" class="cls-7" d="M471.86,510.09l7.37-4.28,6.16,3.55L478,513.65Z" transform="translate(-2.03 -2.74)"/></g><g id="Group_992" data-name="Group 992"><path id="Path_2892" data-name="Path 2892" class="cls-7" d="M472,472.43l7.38-4.29-.11,37.67-7.37,4.28Z" transform="translate(-2.03 -2.74)"/></g><g id="Group_993" data-name="Group 993"><path id="Path_2893" data-name="Path 2893" class="cls-8" d="M478,505.83l7.37-4.28,0,7.81L478,513.65Z" transform="translate(-2.03 -2.74)"/></g><g id="Group_994" data-name="Group 994"><path id="Path_2894" data-name="Path 2894" class="cls-7" d="M479.09,509.39l7.37-4.28v6.08l-7.37,4.29Z" transform="translate(-2.03 -2.74)"/></g><g id="Group_995" data-name="Group 995"><path id="Path_2895" data-name="Path 2895" class="cls-7" d="M478,505.83l7.37-4.28,6.73,11.71-7.38,4.28Z" transform="translate(-2.03 -2.74)"/></g><g id="Group_996" data-name="Group 996"><path id="Path_2896" data-name="Path 2896" class="cls-7" d="M484.76,517.54l7.38-4.28,7.52,4.34-7.37,4.29Z" transform="translate(-2.03 -2.74)"/></g><g id="Group_997" data-name="Group 997"><path id="Path_2897" data-name="Path 2897" class="cls-8" d="M482.29,504.56l7.37-4.28,10,17.32-7.37,4.29Z" transform="translate(-2.03 -2.74)"/></g><g id="Group_998" data-name="Group 998"><path id="Path_2898" data-name="Path 2898" class="cls-7" d="M483.8,505.44l7.37-4.28,11.05,19.14-7.38,4.28Z" transform="translate(-2.03 -2.74)"/></g><g id="Group_999" data-name="Group 999"><path id="Path_2899" data-name="Path 2899" class="cls-8" d="M478.13,476l7.37-4.28-.06,22.49-7.37,4.29Z" transform="translate(-2.03 -2.74)"/></g><g id="Group_1000" data-name="Group 1000"><path id="Path_2900" data-name="Path 2900" class="cls-7" d="M484.51,494.68l7.38-4.28-6.46,3.8-7.37,4.28Z" transform="translate(-2.03 -2.74)"/></g><g id="Group_1001" data-name="Group 1001"><path id="Path_2901" data-name="Path 2901" class="cls-8" d="M472,472.43l7.38-4.29,6.16,3.56L478.13,476Z" transform="translate(-2.03 -2.74)"/></g><g id="Group_1002" data-name="Group 1002"><path id="Path_2902" data-name="Path 2902" class="cls-7" d="M482.29,504.56l7.37-4.28,10.08-5.35-7.37,4.28Z" transform="translate(-2.03 -2.74)"/></g><g id="Group_1003" data-name="Group 1003"><path id="Path_2903" data-name="Path 2903" class="cls-8" d="M478.13,476l-.06,22.49,6.45-3.8,7.85,4.53-10.08,5.35,10,17.32-7.52-4.34L478,505.83l0,7.82-6.16-3.56.11-37.67Z" transform="translate(-2.03 -2.74)"/></g><g id="Group_1004" data-name="Group 1004"><path id="Path_2904" data-name="Path 2904" class="cls-7" d="M479.19,475.38l7.37-4.28-.06,20.74-7.37,4.28Z" transform="translate(-2.03 -2.74)"/></g><g id="Group_1005" data-name="Group 1005"><path id="Path_2905" data-name="Path 2905" class="cls-7" d="M495,499.51l-11.2,5.93,11,19.14-10.52-6.07-5.23-9.12,0,6.09-8.28-4.78.12-40.1,8.28,4.78-.06,20.74,4.95-2.91Zm-2.7,22.38-10-17.33,10.08-5.35-7.85-4.53-6.45,3.8.06-22.5L472,472.43l-.11,37.66,6.16,3.56,0-7.82,6.72,11.71,7.53,4.35" transform="translate(-2.03 -2.74)"/></g><g id="Group_1006" data-name="Group 1006"><path id="Path_2906" data-name="Path 2906" class="cls-8" d="M484.51,494.68l7.38-4.28,7.85,4.53-7.37,4.29Z" transform="translate(-2.03 -2.74)"/></g><g id="Group_1007" data-name="Group 1007"><path id="Path_2907" data-name="Path 2907" class="cls-7" d="M470.91,470.6l7.37-4.29,8.28,4.79-7.37,4.28Z" transform="translate(-2.03 -2.74)"/></g><g id="Group_1008" data-name="Group 1008"><path id="Path_2908" data-name="Path 2908" class="cls-7" d="M484.08,493.21l7.37-4.28,10.91,6.3L495,499.51Z" transform="translate(-2.03 -2.74)"/></g></g><g id="Group_1035" data-name="Group 1035"><g id="Group_1010" data-name="Group 1010"><path id="Path_2909" data-name="Path 2909" class="cls-7" d="M499.21,506.23l7.37-4.29c-1.85,1.08-3,3.36-3,6.59,0,6.64,4.51,14.45,10.31,17.8a8.93,8.93,0,0,0,5.85,1.35L512.37,532a9.05,9.05,0,0,1-5.85-1.35c-5.8-3.35-10.33-11.17-10.31-17.8C496.22,509.58,497.36,507.3,499.21,506.23Z" transform="translate(-2.03 -2.74)"/></g><g id="Group_1011" data-name="Group 1011"><path id="Path_2910" data-name="Path 2910" class="cls-8" d="M501.17,517.56l7.37-4.28.38,1.1-7.37,4.28Z" transform="translate(-2.03 -2.74)"/></g><g id="Group_1012" data-name="Group 1012"><path id="Path_2911" data-name="Path 2911" class="cls-8" d="M501.55,518.66l7.37-4.28a12.42,12.42,0,0,0,5,6.43,5,5,0,0,0,2.29.74l-7.37,4.28a4.92,4.92,0,0,1-2.29-.74A12.38,12.38,0,0,1,501.55,518.66Z" transform="translate(-2.03 -2.74)"/></g><g id="Group_1013" data-name="Group 1013"><path id="Path_2912" data-name="Path 2912" class="cls-8" d="M508.82,525.83l7.37-4.28,3.55,6.13L512.37,532Z" transform="translate(-2.03 -2.74)"/></g><g id="Group_1014" data-name="Group 1014"><path id="Path_2913" data-name="Path 2913" class="cls-8" d="M501.52,513.23l7.37-4.29-.37.67-7.37,4.29Z" transform="translate(-2.03 -2.74)"/></g><g id="Group_1015" data-name="Group 1015"><path id="Path_2914" data-name="Path 2914" class="cls-7" d="M503,519.83l7.37-4.28a9.61,9.61,0,0,0,3.54,4,3.78,3.78,0,0,0,2.12.59l-7.37,4.28a3.7,3.7,0,0,1-2.12-.59A9.56,9.56,0,0,1,503,519.83Z" transform="translate(-2.03 -2.74)"/></g><g id="Group_1016" data-name="Group 1016"><path id="Path_2915" data-name="Path 2915" class="cls-7" d="M509,524.42l7.37-4.28,5,8.66L514,533.09Z" transform="translate(-2.03 -2.74)"/></g><g id="Group_1017" data-name="Group 1017"><path id="Path_2916" data-name="Path 2916" class="cls-7" d="M508.65,524.46l7.37-4.28.36,0L509,524.42Z" transform="translate(-2.03 -2.74)"/></g><g id="Group_1018" data-name="Group 1018"><path id="Path_2917" data-name="Path 2917" class="cls-8" d="M524.12,520.4a12.22,12.22,0,0,1-.11,1.81l-7.37,4.28a13.64,13.64,0,0,0,.11-1.81Z" transform="translate(-2.03 -2.74)"/></g><g id="Group_1019" data-name="Group 1019"><path id="Path_2918" data-name="Path 2918" class="cls-7" d="M501.17,517.56l7.37-4.28L524,522.21l-7.37,4.28Z" transform="translate(-2.03 -2.74)"/></g><g id="Group_1020" data-name="Group 1020"><path id="Path_2919" data-name="Path 2919" class="cls-7" d="M511.37,518.94l7.37-4.29.31,1L511.68,520Z" transform="translate(-2.03 -2.74)"/></g><g id="Group_1021" data-name="Group 1021"><path id="Path_2920" data-name="Path 2920" class="cls-7" d="M502.94,513.7l7.37-4.29,7.05,4.07L510,517.77Z" transform="translate(-2.03 -2.74)"/></g><g id="Group_1022" data-name="Group 1022"><path id="Path_2921" data-name="Path 2921" class="cls-8" d="M510,507.84a2.87,2.87,0,0,0-1.06,1.1l-7.37,4.29a2.9,2.9,0,0,1,1.06-1.11Z" transform="translate(-2.03 -2.74)"/></g><g id="Group_1023" data-name="Group 1023"><path id="Path_2922" data-name="Path 2922" class="cls-7" d="M502.58,512.12l7.37-4.28c1-.6,2.45-.48,4,.41l-7.38,4.28C505,511.64,503.61,511.52,502.58,512.12Z" transform="translate(-2.03 -2.74)"/></g><g id="Group_1024" data-name="Group 1024"><path id="Path_2923" data-name="Path 2923" class="cls-7" d="M506.56,512.53l7.37-4.28a11.44,11.44,0,0,1,4.81,6.4l-7.37,4.29A11.47,11.47,0,0,0,506.56,512.53Z" transform="translate(-2.03 -2.74)"/></g><g id="Group_1025" data-name="Group 1025"><path id="Path_2924" data-name="Path 2924" class="cls-8" d="M516.75,524.68a13.79,13.79,0,0,1-.11,1.82l-15.47-8.93.38,1.1a12.38,12.38,0,0,0,5,6.43,5,5,0,0,0,2.29.74l3.55,6.13a9,9,0,0,1-5.86-1.35c-5.8-3.35-10.32-11.16-10.3-17.8s4.67-9.16,10.37-5.87S516.77,518,516.75,524.68Zm-15.6-10.78L511.68,520l-.31-1a11.48,11.48,0,0,0-4.8-6.41c-2.17-1.25-4.1-1-5.05.7l-.37.67" transform="translate(-2.03 -2.74)"/></g><g id="Group_1026" data-name="Group 1026"><path id="Path_2925" data-name="Path 2925" class="cls-8" d="M506.58,501.94c1.88-1.09,4.49-.94,7.37.73L506.58,507c-2.88-1.66-5.49-1.82-7.37-.72Z" transform="translate(-2.03 -2.74)"/></g><g id="Group_1027" data-name="Group 1027"><path id="Path_2926" data-name="Path 2926" class="cls-7" d="M498.46,504.94l7.37-4.28c2.08-1.21,4.95-1,8.12.79l-7.37,4.28C503.41,503.9,500.53,503.73,498.46,504.94Z" transform="translate(-2.03 -2.74)"/></g><g id="Group_1028" data-name="Group 1028"><path id="Path_2927" data-name="Path 2927" class="cls-8" d="M514,502.67c5.72,3.3,10.19,11.08,10.17,17.73l-7.37,4.28c0-6.64-4.45-14.43-10.17-17.73Z" transform="translate(-2.03 -2.74)"/></g><g id="Group_1029" data-name="Group 1029"><path id="Path_2928" data-name="Path 2928" class="cls-7" d="M506.58,505.73c6.32,3.65,11.25,12.24,11.23,19.56a13.87,13.87,0,0,1-.2,2.49l-.08.44L503,519.83a9.56,9.56,0,0,0,3.54,4,3.7,3.7,0,0,0,2.12.59l.35,0,5,8.67-.5.12a9.56,9.56,0,0,1-7-1.38c-6.39-3.69-11.39-12.31-11.37-19.62S500.3,502.1,506.58,505.73Zm10.06,20.76a13.64,13.64,0,0,0,.11-1.81c0-6.64-4.45-14.43-10.17-17.73s-10.36-.67-10.37,5.87,4.5,14.45,10.3,17.8a9,9,0,0,0,5.86,1.34l-3.55-6.13a4.92,4.92,0,0,1-2.29-.74,12.38,12.38,0,0,1-5-6.43l-.38-1.1,15.47,8.93" transform="translate(-2.03 -2.74)"/></g><g id="Group_1030" data-name="Group 1030"><path id="Path_2929" data-name="Path 2929" class="cls-7" d="M506.56,512.53a11.42,11.42,0,0,1,4.81,6.41l.31,1-10.53-6.09.37-.66C502.47,511.55,504.4,511.28,506.56,512.53Zm-3.62,1.17,7.05,4.07a8.84,8.84,0,0,0-3.43-4c-1.45-.84-2.77-.83-3.62,0" transform="translate(-2.03 -2.74)"/></g><g id="Group_1031" data-name="Group 1031"><path id="Path_2930" data-name="Path 2930" class="cls-7" d="M511.37,518.94a11.68,11.68,0,0,0-.63-1.61l-.75.44-7.05-4.07,2.75-1.6-.12-.05h0l-.16,0,0,0-.14,0h0l-.17-.05h0l-.13,0h0l-.06,0-3.58,2.08L511.68,520Z" transform="translate(-2.03 -2.74)"/></g><g id="Group_1032" data-name="Group 1032"><path id="Path_2931" data-name="Path 2931" class="cls-7" d="M503.3,513.43l-.06,0,0,0-.06,0,0,0-.06.05,0,0-.09.08.81-.47A2.28,2.28,0,0,0,503.3,513.43Z" transform="translate(-2.03 -2.74)"/></g><g id="Group_1033" data-name="Group 1033"><path id="Path_2932" data-name="Path 2932" class="cls-7" d="M517.61,527.78l7.38-4.29-.09.45-7.37,4.28Z" transform="translate(-2.03 -2.74)"/></g><g id="Group_1034" data-name="Group 1034"><path id="Path_2933" data-name="Path 2933" class="cls-7" d="M506.58,505.73l7.37-4.28c6.32,3.65,11.25,12.24,11.23,19.56a13.94,13.94,0,0,1-.2,2.49l-7.37,4.28a13.79,13.79,0,0,0,.2-2.49C517.83,518,512.9,509.38,506.58,505.73Z" transform="translate(-2.03 -2.74)"/></g></g><g id="Group_1057" data-name="Group 1057"><g id="Group_1036" data-name="Group 1036"><path id="Path_2934" data-name="Path 2934" class="cls-7" d="M522.52,539.34l7.37-4.28,6.16,3.55-7.38,4.28Z" transform="translate(-2.03 -2.74)"/></g><g id="Group_1037" data-name="Group 1037"><path id="Path_2935" data-name="Path 2935" class="cls-7" d="M522.59,516.72l7.37-4.29-.07,22.63-7.37,4.28Z" transform="translate(-2.03 -2.74)"/></g><g id="Group_1038" data-name="Group 1038"><path id="Path_2936" data-name="Path 2936" class="cls-8" d="M528.71,531.53l7.37-4.29,0,11.37-7.38,4.28Z" transform="translate(-2.03 -2.74)"/></g><g id="Group_1039" data-name="Group 1039"><path id="Path_2937" data-name="Path 2937" class="cls-7" d="M529.77,532.14l7.37-4.29,0,12.59-7.37,4.28Z" transform="translate(-2.03 -2.74)"/></g><g id="Group_1040" data-name="Group 1040"><path id="Path_2938" data-name="Path 2938" class="cls-8" d="M536.86,524.7a3.77,3.77,0,0,0-.78,2.54l-7.37,4.29a3.78,3.78,0,0,1,.78-2.55Z" transform="translate(-2.03 -2.74)"/></g><g id="Group_1041" data-name="Group 1041"><path id="Path_2939" data-name="Path 2939" class="cls-8" d="M536.92,524.63l-.06.07L529.49,529l.06-.07Z" transform="translate(-2.03 -2.74)"/></g><g id="Group_1042" data-name="Group 1042"><path id="Path_2940" data-name="Path 2940" class="cls-7" d="M530.77,529.82l7.37-4.29a2.51,2.51,0,0,0-1,2.32l-7.37,4.29A2.5,2.5,0,0,1,530.77,529.82Z" transform="translate(-2.03 -2.74)"/></g><g id="Group_1043" data-name="Group 1043"><path id="Path_2941" data-name="Path 2941" class="cls-8" d="M536.92,524.63a1.71,1.71,0,0,1-.23.13l-.76.44-1,.58-5.39,3.13a2,2,0,0,1,.48-.38l7.37-4.28A2,2,0,0,0,536.92,524.63Z" transform="translate(-2.03 -2.74)"/></g><g id="Group_1044" data-name="Group 1044"><path id="Path_2942" data-name="Path 2942" class="cls-8" d="M528.74,520.27l7.37-4.28v.64l-7.37,4.29Z" transform="translate(-2.03 -2.74)"/></g><g id="Group_1045" data-name="Group 1045"><path id="Path_2943" data-name="Path 2943" class="cls-8" d="M522.59,516.72l7.37-4.29,6.15,3.56-7.37,4.28Z" transform="translate(-2.03 -2.74)"/></g><g id="Group_1046" data-name="Group 1046"><path id="Path_2944" data-name="Path 2944" class="cls-8" d="M528.74,520.92l7.37-4.29.72.09L529.46,521Z" transform="translate(-2.03 -2.74)"/></g><g id="Group_1047" data-name="Group 1047"><path id="Path_2945" data-name="Path 2945" class="cls-7" d="M530,528.53l7.37-4.28a3.06,3.06,0,0,1,3.1.31,9.16,9.16,0,0,1,3,2.85l-7.37,4.28a9.26,9.26,0,0,0-3-2.85A3.06,3.06,0,0,0,530,528.53Z" transform="translate(-2.03 -2.74)"/></g><g id="Group_1048" data-name="Group 1048"><path id="Path_2946" data-name="Path 2946" class="cls-7" d="M521.52,514.87l7.37-4.28,8.28,4.78-7.37,4.28Z" transform="translate(-2.03 -2.74)"/></g><g id="Group_1049" data-name="Group 1049"><path id="Path_2947" data-name="Path 2947" class="cls-7" d="M529.8,519.65l7.37-4.28v.12l-7.37,4.28Z" transform="translate(-2.03 -2.74)"/></g><g id="Group_1050" data-name="Group 1050"><path id="Path_2948" data-name="Path 2948" class="cls-8" d="M529.46,521l7.37-4.29a10.57,10.57,0,0,1,3.92,1.42l-7.37,4.28A10.38,10.38,0,0,0,529.46,521Z" transform="translate(-2.03 -2.74)"/></g><g id="Group_1051" data-name="Group 1051"><path id="Path_2949" data-name="Path 2949" class="cls-7" d="M536.08,531.68l7.37-4.28,4.11-2.21-7.37,4.29Z" transform="translate(-2.03 -2.74)"/></g><g id="Group_1052" data-name="Group 1052"><path id="Path_2950" data-name="Path 2950" class="cls-8" d="M533.38,522.42l7.37-4.28a20.28,20.28,0,0,1,6.81,7.06l-7.37,4.28A20.37,20.37,0,0,0,533.38,522.42Z" transform="translate(-2.03 -2.74)"/></g><g id="Group_1053" data-name="Group 1053"><path id="Path_2951" data-name="Path 2951" class="cls-8" d="M533.38,522.42a20.28,20.28,0,0,1,6.81,7.06l-4.1,2.21a9.26,9.26,0,0,0-3-2.85c-2.47-1.42-4.41-.24-4.42,2.69l0,11.36-6.15-3.55.06-22.62,6.15,3.55v.65l.73.09A10.4,10.4,0,0,1,533.38,522.42Z" transform="translate(-2.03 -2.74)"/></g><g id="Group_1054" data-name="Group 1054"><path id="Path_2952" data-name="Path 2952" class="cls-7" d="M541.32,529.71l7.38-4.29.37.66-7.37,4.28Z" transform="translate(-2.03 -2.74)"/></g><g id="Group_1055" data-name="Group 1055"><path id="Path_2953" data-name="Path 2953" class="cls-7" d="M529.8,519.77l7.37-4.28a12.48,12.48,0,0,1,3.58,1.43,22.8,22.8,0,0,1,8,8.51l-7.38,4.28a22.69,22.69,0,0,0-7.94-8.51A12.48,12.48,0,0,0,529.8,519.77Z" transform="translate(-2.03 -2.74)"/></g><g id="Group_1056" data-name="Group 1056"><path id="Path_2954" data-name="Path 2954" class="cls-7" d="M541.32,529.71l.37.65-5.58,3-.37-.62a7.53,7.53,0,0,0-2.61-2.68c-1.91-1.1-3.36-.21-3.36,2.07l0,12.58-8.28-4.78.07-25.07,8.28,4.78v.12a12.48,12.48,0,0,1,3.58,1.43A22.69,22.69,0,0,1,541.32,529.71Zm-5.24,2,4.1-2.21a20.28,20.28,0,0,0-6.81-7.06,10.4,10.4,0,0,0-3.91-1.41l-.73-.09v-.65l-6.15-3.55-.07,22.62,6.16,3.55,0-11.36c0-2.93,1.95-4.11,4.42-2.69a9.26,9.26,0,0,1,3,2.85" transform="translate(-2.03 -2.74)"/></g></g><g id="Group_1091" data-name="Group 1091"><g id="Group_1058" data-name="Group 1058"><path id="Path_2955" data-name="Path 2955" class="cls-7" d="M547.82,569.63l7.37-4.29,4.39,2.54-7.37,4.28Z" transform="translate(-2.03 -2.74)"/></g><g id="Group_1059" data-name="Group 1059"><path id="Path_2956" data-name="Path 2956" class="cls-7" d="M547.84,562.5l7.38-4.28,0,7.12-7.38,4.29Z" transform="translate(-2.03 -2.74)"/></g><g id="Group_1060" data-name="Group 1060"><path id="Path_2957" data-name="Path 2957" class="cls-8" d="M547.84,562.5l7.37-4.28,4.53,2.61-7.37,4.28Z" transform="translate(-2.03 -2.74)"/></g><g id="Group_1061" data-name="Group 1061"><path id="Path_2958" data-name="Path 2958" class="cls-7" d="M546.79,560.66l7.37-4.28,5.58,3.22-7.37,4.29Z" transform="translate(-2.03 -2.74)"/></g><g id="Group_1062" data-name="Group 1062"><path id="Path_2959" data-name="Path 2959" class="cls-8" d="M559.74,560.83a5.67,5.67,0,0,0,2.14.8l-7.37,4.28a5.78,5.78,0,0,1-2.15-.8Z" transform="translate(-2.03 -2.74)"/></g><g id="Group_1063" data-name="Group 1063"><path id="Path_2960" data-name="Path 2960" class="cls-8" d="M562.36,561.65,555,565.94a3.85,3.85,0,0,1-.48,0l7.37-4.29A2.57,2.57,0,0,0,562.36,561.65Z" transform="translate(-2.03 -2.74)"/></g><g id="Group_1064" data-name="Group 1064"><path id="Path_2961" data-name="Path 2961" class="cls-7" d="M567.71,568.87l-7.37,4.28c-2,1.17-4.84.91-8.13-1l7.37-4.28C562.87,569.77,565.7,570,567.71,568.87Z" transform="translate(-2.03 -2.74)"/></g><g id="Group_1065" data-name="Group 1065"><path id="Path_2962" data-name="Path 2962" class="cls-8" d="M562.36,561.65a2.17,2.17,0,0,0,1-.27L556,565.66a2.18,2.18,0,0,1-1,.28l4.93-2.87,1.22-.71.32-.18.32-.19.44-.26Z" transform="translate(-2.03 -2.74)"/></g><g id="Group_1066" data-name="Group 1066"><path id="Path_2963" data-name="Path 2963" class="cls-7" d="M562.62,560.08l-7.37,4.28c-.67.39-1.65.24-2.88-.47l7.37-4.29C561,560.32,562,560.47,562.62,560.08Z" transform="translate(-2.03 -2.74)"/></g><g id="Group_1067" data-name="Group 1067"><path id="Path_2964" data-name="Path 2964" class="cls-7" d="M563.36,561.38,556,565.66c.86-.5,1.34-1.66,1.34-3.43l7.37-4.29C564.7,559.71,564.22,560.88,563.36,561.38Z" transform="translate(-2.03 -2.74)"/></g><g id="Group_1068" data-name="Group 1068"><path id="Path_2965" data-name="Path 2965" class="cls-7" d="M544.16,541.39l7.37-4.29c0,6,4.14,13.36,9.27,16.32a10.66,10.66,0,0,0,3.22,1.22l-7.37,4.28a10.9,10.9,0,0,1-3.22-1.21C548.3,554.74,544.14,547.42,544.16,541.39Z" transform="translate(-2.03 -2.74)"/></g><g id="Group_1069" data-name="Group 1069"><path id="Path_2966" data-name="Path 2966" class="cls-7" d="M556.65,558.92l7.37-4.29.69.15-7.37,4.28Z" transform="translate(-2.03 -2.74)"/></g><g id="Group_1070" data-name="Group 1070"><path id="Path_2967" data-name="Path 2967" class="cls-7" d="M557.34,559.06l7.37-4.28v3.16l-7.37,4.29Z" transform="translate(-2.03 -2.74)"/></g><g id="Group_1071" data-name="Group 1071"><path id="Path_2968" data-name="Path 2968" class="cls-7" d="M544.19,529.19l7.37-4.28,0,12.19-7.37,4.28Z" transform="translate(-2.03 -2.74)"/></g><g id="Group_1072" data-name="Group 1072"><path id="Path_2969" data-name="Path 2969" class="cls-8" d="M549.94,532.51l7.38-4.28,0,12.19-7.37,4.28Z" transform="translate(-2.03 -2.74)"/></g><g id="Group_1073" data-name="Group 1073"><path id="Path_2970" data-name="Path 2970" class="cls-7" d="M551,531.9l7.37-4.29,0,13.42L551,545.31Z" transform="translate(-2.03 -2.74)"/></g><g id="Group_1074" data-name="Group 1074"><path id="Path_2971" data-name="Path 2971" class="cls-7" d="M557.28,540.42a8,8,0,0,0,2.22,5.26L552.13,550a8,8,0,0,1-2.22-5.27Z" transform="translate(-2.03 -2.74)"/></g><g id="Group_1075" data-name="Group 1075"><path id="Path_2972" data-name="Path 2972" class="cls-8" d="M560.72,546.65a3.38,3.38,0,0,0,2.6.54L556,551.48a3.43,3.43,0,0,1-2.6-.54l7.37-4.29-7.37,4.29a5.72,5.72,0,0,1-1.22-1l7.37-4.29A5.43,5.43,0,0,0,560.72,546.65Z" transform="translate(-2.03 -2.74)"/></g><g id="Group_1076" data-name="Group 1076"><path id="Path_2973" data-name="Path 2973" class="cls-7" d="M563.71,547l-7.38,4.28a2.48,2.48,0,0,0,1-2.3l7.37-4.28A2.51,2.51,0,0,1,563.71,547Z" transform="translate(-2.03 -2.74)"/></g><g id="Group_1077" data-name="Group 1077"><path id="Path_2974" data-name="Path 2974" class="cls-7" d="M563,545.72,555.58,550a2.24,2.24,0,0,1-2.23-.29,5.43,5.43,0,0,1-2.38-4.4l7.37-4.28a5.46,5.46,0,0,0,2.39,4.4A2.27,2.27,0,0,0,563,545.72Z" transform="translate(-2.03 -2.74)"/></g><g id="Group_1078" data-name="Group 1078"><path id="Path_2975" data-name="Path 2975" class="cls-7" d="M557.4,536.82l7.38-4.28,0,12.18L557.37,549Z" transform="translate(-2.03 -2.74)"/></g><g id="Group_1079" data-name="Group 1079"><path id="Path_2976" data-name="Path 2976" class="cls-8" d="M563.46,547.14l.25-.11-7.38,4.28a1.34,1.34,0,0,1-.24.12Z" transform="translate(-2.03 -2.74)"/></g><g id="Group_1080" data-name="Group 1080"><path id="Path_2977" data-name="Path 2977" class="cls-8" d="M563.57,540.38l7.37-4.29-.07,25.41-7.38,4.29Z" transform="translate(-2.03 -2.74)"/></g><g id="Group_1081" data-name="Group 1081"><path id="Path_2978" data-name="Path 2978" class="cls-7" d="M564.63,539.76l7.37-4.28-.07,26.63-7.37,4.29Z" transform="translate(-2.03 -2.74)"/></g><g id="Group_1082" data-name="Group 1082"><path id="Path_2979" data-name="Path 2979" class="cls-7" d="M570.87,561.5c0,3.7-1.19,6.22-3.16,7.37l-7.37,4.28c2-1.15,3.14-3.67,3.15-7.36Z" transform="translate(-2.03 -2.74)"/></g><g id="Group_1083" data-name="Group 1083"><path id="Path_2980" data-name="Path 2980" class="cls-7" d="M568.47,570.17l-7.37,4.29c2.16-1.26,3.44-4,3.45-8.06l7.37-4.29C571.91,566.16,570.63,568.92,568.47,570.17Z" transform="translate(-2.03 -2.74)"/></g><g id="Group_1084" data-name="Group 1084"><path id="Path_2981" data-name="Path 2981" class="cls-8" d="M563.46,547.14l-7.37,4.29-.14.05,7.37-4.29Z" transform="translate(-2.03 -2.74)"/></g><g id="Group_1085" data-name="Group 1085"><path id="Path_2982" data-name="Path 2982" class="cls-8" d="M544.19,529.19l7.37-4.28,5.76,3.32-7.38,4.28Z" transform="translate(-2.03 -2.74)"/></g><g id="Group_1086" data-name="Group 1086"><path id="Path_2983" data-name="Path 2983" class="cls-7" d="M543.13,527.35l7.37-4.29,7.88,4.55L551,531.9Z" transform="translate(-2.03 -2.74)"/></g><g id="Group_1087" data-name="Group 1087"><path id="Path_2984" data-name="Path 2984" class="cls-8" d="M557.4,536.82l7.38-4.28,6.16,3.55-7.37,4.29Z" transform="translate(-2.03 -2.74)"/></g><g id="Group_1088" data-name="Group 1088"><path id="Path_2985" data-name="Path 2985" class="cls-7" d="M556.35,535l8.28,4.78-.08,26.64c0,8.15-5.22,11.1-12.34,7l-5.45-3.15,0-9.57,5.58,3.23c2.47,1.42,3.9.6,3.9-2.27v-1.53a11.64,11.64,0,0,1-2.85-1.17c-5.71-3.3-10.35-11.45-10.33-18.16l0-13.41L551,531.9l0,13.41a5.46,5.46,0,0,0,2.39,4.4c1.68,1,2.95.41,3-1.31Zm7.14,30.81.08-25.41-6.17-3.56,0,12.19c0,2.41-1.73,3.25-4,1.93a7.76,7.76,0,0,1-3.44-6.24l0-12.19-5.75-3.32,0,12.19c0,6,4.14,13.36,9.27,16.32a10.66,10.66,0,0,0,3.22,1.22l.69.14v3.17c0,3.54-1.91,4.65-5,2.88l-4.52-2.61,0,7.13,4.39,2.53c6.52,3.76,11.26,1.08,11.28-6.37" transform="translate(-2.03 -2.74)"/></g><g id="Group_1089" data-name="Group 1089"><path id="Path_2986" data-name="Path 2986" class="cls-8" d="M563.57,540.38l-.08,25.41c0,7.45-4.76,10.13-11.28,6.37l-4.39-2.53,0-7.13,4.52,2.61c3.06,1.77,5,.66,5-2.88v-3.17l-.69-.14a10.66,10.66,0,0,1-3.22-1.22c-5.13-3-9.29-10.28-9.27-16.32l0-12.19,5.75,3.32,0,12.19a7.76,7.76,0,0,0,3.44,6.24c2.29,1.32,4,.48,4-1.93l0-12.19Z" transform="translate(-2.03 -2.74)"/></g><g id="Group_1090" data-name="Group 1090"><path id="Path_2987" data-name="Path 2987" class="cls-7" d="M556.35,535l7.37-4.29,8.28,4.78-7.37,4.29Z" transform="translate(-2.03 -2.74)"/></g></g></g><path id="Path_2988" data-name="Path 2988" class="cls-5" d="M197.61,429.25" transform="translate(-2.03 -2.74)"/><path id="Path_2989" data-name="Path 2989" class="cls-5" d="M157.55,452.29" transform="translate(-2.03 -2.74)"/><path id="Path_2990" data-name="Path 2990" class="cls-5" d="M123.76,471.72" transform="translate(-2.03 -2.74)"/></g></svg>