<?xml version="1.0" encoding="UTF-8"?><svg id="Layer_1" xmlns="http://www.w3.org/2000/svg" viewBox="0 0 100 100"><defs><style>.cls-1{fill:#005274;}.cls-2{fill:#efe8f2;}.cls-3{fill:#ff5e64;}</style></defs><rect class="cls-3" width="100" height="100"/><circle class="cls-3" cx="50" cy="50" r="50"/><g><path class="cls-2" d="M48.18,31.67c0,6.66-4.48,11.72-10.43,11.72-2.84,0-4.88-.98-6.31-2.66v10.92h-7.37V20.57h7.37v2.04c1.42-1.69,3.46-2.66,6.31-2.66,5.95,0,10.43,5.06,10.43,11.72Zm-7.42,0c0-2.89-1.91-4.84-4.66-4.84s-4.66,1.95-4.66,4.84,1.91,4.84,4.66,4.84,4.66-1.95,4.66-4.84Z"/><path class="cls-2" d="M79.76,31.99c0,6.66-4.48,11.72-10.43,11.72-2.84,0-4.89-.98-6.31-2.66v2.04h-7.37V12.01h7.37v10.92c1.42-1.69,3.46-2.66,6.31-2.66,5.95,0,10.43,5.06,10.43,11.72Zm-7.42,0c0-2.89-1.91-4.84-4.66-4.84s-4.66,1.95-4.66,4.84,1.91,4.84,4.66,4.84,4.66-1.95,4.66-4.84Z"/><path class="cls-2" d="M47.53,51.23v31.08h-7.37v-2.04c-1.42,1.69-3.46,2.67-6.31,2.67-5.95,0-10.43-5.06-10.43-11.72s4.48-11.72,10.43-11.72c2.84,0,4.88,.98,6.31,2.66v-10.92h7.37Zm-7.37,19.98c0-2.89-1.91-4.84-4.66-4.84s-4.66,1.95-4.66,4.84,1.91,4.84,4.66,4.84,4.66-1.95,4.66-4.84Z"/><path class="cls-2" d="M74.5,75.5c0,5.55-5.06,7.46-9.59,7.46s-8.17-1.51-9.95-5.28l6.44-3.24c.58,1.64,1.73,2.44,3.46,2.44,1.29,0,2-.4,2-1.2,0-2.31-10.83-.84-10.83-8.7,0-5.02,4.4-7.46,8.93-7.46,4,0,7.33,1.51,9.15,5.15l-6.22,2.8c-.62-1.24-1.51-1.91-2.75-1.91-1.02,0-1.64,.4-1.64,1.07,0,2.44,11.01,.44,11.01,8.88Z"/></g><g><path class="cls-1" d="M51.18,33.67c0,6.66-4.48,11.72-10.43,11.72-2.84,0-4.88-.98-6.31-2.66v10.92h-7.37V22.57h7.37v2.04c1.42-1.69,3.46-2.66,6.31-2.66,5.95,0,10.43,5.06,10.43,11.72Zm-7.42,0c0-2.89-1.91-4.84-4.66-4.84s-4.66,1.95-4.66,4.84,1.91,4.84,4.66,4.84,4.66-1.95,4.66-4.84Z"/><path class="cls-1" d="M77.76,33.99c0,6.66-4.48,11.72-10.43,11.72-2.84,0-4.89-.98-6.31-2.66v2.04h-7.37V14.01h7.37v10.92c1.42-1.69,3.46-2.66,6.31-2.66,5.95,0,10.43,5.06,10.43,11.72Zm-7.42,0c0-2.89-1.91-4.84-4.66-4.84s-4.66,1.95-4.66,4.84,1.91,4.84,4.66,4.84,4.66-1.95,4.66-4.84Z"/><path class="cls-1" d="M49.53,48.23v31.08h-7.37v-2.04c-1.42,1.69-3.46,2.67-6.31,2.67-5.95,0-10.43-5.06-10.43-11.72s4.48-11.72,10.43-11.72c2.84,0,4.88,.98,6.31,2.66v-10.92h7.37Zm-7.37,19.98c0-2.89-1.91-4.84-4.66-4.84s-4.66,1.95-4.66,4.84,1.91,4.84,4.66,4.84,4.66-1.95,4.66-4.84Z"/><path class="cls-1" d="M71.5,72.5c0,5.55-5.06,7.46-9.59,7.46s-8.17-1.51-9.95-5.28l6.44-3.24c.58,1.64,1.73,2.44,3.46,2.44,1.29,0,2-.4,2-1.2,0-2.31-10.83-.84-10.83-8.7,0-5.02,4.4-7.46,8.93-7.46,4,0,7.33,1.51,9.15,5.15l-6.22,2.8c-.62-1.24-1.51-1.91-2.75-1.91-1.02,0-1.64,.4-1.64,1.07,0,2.44,11.01,.44,11.01,8.88Z"/></g></svg>