<?xml version="1.0" encoding="UTF-8"?><svg id="Layer_1" xmlns="http://www.w3.org/2000/svg" viewBox="0 0 100 100"><defs><style>.cls-1{fill:#005274;}.cls-2{fill:#efe8f2;}</style></defs><rect class="cls-2" width="100" height="100"/><circle class="cls-2" cx="50" cy="50" r="50"/><g><path class="cls-1" d="M50.26,34.06c0,6.43-4.33,11.31-10.07,11.31-2.74,0-4.71-.94-6.08-2.57v10.54h-7.11V23.35h7.11v1.97c1.37-1.63,3.34-2.57,6.08-2.57,5.74,0,10.07,4.88,10.07,11.31Zm-7.16,0c0-2.79-1.84-4.67-4.5-4.67s-4.5,1.88-4.5,4.67,1.84,4.67,4.5,4.67,4.5-1.88,4.5-4.67Z"/><path class="cls-1" d="M76.85,34.38c0,6.43-4.33,11.31-10.07,11.31-2.74,0-4.71-.94-6.09-2.57v1.97h-7.11V15.1h7.11v10.54c1.37-1.63,3.34-2.57,6.08-2.57,5.74,0,10.07,4.88,10.07,11.31Zm-7.16,0c0-2.79-1.84-4.67-4.5-4.67s-4.5,1.89-4.5,4.67,1.84,4.67,4.5,4.67,4.5-1.89,4.5-4.67Z"/><path class="cls-1" d="M48.65,49.32v29.99h-7.11v-1.97c-1.37,1.63-3.34,2.57-6.08,2.57-5.74,0-10.07-4.88-10.07-11.31s4.33-11.31,10.07-11.31c2.74,0,4.71,.94,6.08,2.57v-10.54h7.11Zm-7.11,19.28c0-2.79-1.84-4.67-4.5-4.67s-4.5,1.88-4.5,4.67,1.84,4.67,4.5,4.67,4.5-1.89,4.5-4.67Z"/><path class="cls-1" d="M71.5,72.5c0,5.55-5.06,7.46-9.59,7.46s-8.17-1.51-9.95-5.28l6.44-3.24c.58,1.64,1.73,2.44,3.46,2.44,1.29,0,2-.4,2-1.2,0-2.31-10.83-.84-10.83-8.7,0-5.02,4.4-7.46,8.93-7.46,4,0,7.33,1.51,9.15,5.15l-6.22,2.8c-.62-1.24-1.51-1.91-2.75-1.91-1.02,0-1.64,.4-1.64,1.07,0,2.44,11.01,.44,11.01,8.88Z"/></g></svg>