<svg viewBox="0 0 505.65 332.91" xmlns="http://www.w3.org/2000/svg"><path d="m17.98 22.44h469.69c9.92 0 17.98 8.06 17.98 17.98v274.51c0 9.92-8.06 17.98-17.98 17.98h-469.69c-9.92 0-17.98-8.06-17.98-17.98v-274.51c0-9.92 8.06-17.98 17.98-17.98z" fill="#eee7f1"/><g fill="none" stroke="#b2adb4" stroke-linecap="round" stroke-linejoin="round" stroke-width="9"><path d="m47.19 64.61h411.28"/><path d="m47.19 98.14h411.28"/><path d="m47.19 131.67h411.28"/><path d="m47.19 165.2h411.28"/><path d="m47.19 198.72h411.28"/><path d="m47.19 232.25h411.28"/></g><path d="m158.86 22.44h-121.45c0-12.39 10.05-22.44 22.45-22.44h76.56c12.39 0 22.44 10.05 22.44 22.44z" fill="#f3a2c4"/></svg>