<?xml version="1.0" encoding="UTF-8"?><svg id="Layer_2" xmlns="http://www.w3.org/2000/svg" viewBox="0 0 505.65 332.91"><defs><style>.cls-1{fill:#f3a2c4;}.cls-2{fill:#eee7f1;}.cls-3{fill:none;stroke:#b2adb4;stroke-linecap:round;stroke-linejoin:round;stroke-width:9px;}</style></defs><g id="Layer_1-2"><g id="Group_1"><path id="Group_8" class="cls-2" d="M17.98,22.44H487.67c9.92,0,17.98,8.06,17.98,17.98V314.93c0,9.92-8.06,17.98-17.98,17.98H17.98c-9.92,0-17.98-8.06-17.98-17.98V40.42c0-9.92,8.06-17.98,17.98-17.98Z"/><line id="Group_7" class="cls-3" x1="47.19" y1="64.61" x2="458.47" y2="64.61"/><line id="Group_6" class="cls-3" x1="47.19" y1="98.14" x2="458.47" y2="98.14"/><line id="Group_5" class="cls-3" x1="47.19" y1="131.67" x2="458.47" y2="131.67"/><line id="Group_4" class="cls-3" x1="47.19" y1="165.2" x2="458.47" y2="165.2"/><line id="Group_3" class="cls-3" x1="47.19" y1="198.72" x2="458.47" y2="198.72"/><line id="Group_2" class="cls-3" x1="47.19" y1="232.25" x2="458.47" y2="232.25"/><path id="Group_1-2" class="cls-1" d="M158.86,22.44H37.41C37.41,10.05,47.46,0,59.86,0h76.56c12.39,0,22.44,10.05,22.44,22.44Z"/></g></g></svg>