<svg id="Layer_1" data-name="Layer 1" xmlns="http://www.w3.org/2000/svg" viewBox="0 0 270 270"><defs><style>.cls-1{fill:#efe8f2;}</style></defs><path class="cls-1" d="M106.85,236.74a.74.74,0,0,0,.74.74h54.16a.74.74,0,0,0,0-1.48H107.59A.74.74,0,0,0,106.85,236.74Z"/><path class="cls-1" d="M159.4,239.8H109.94a.74.74,0,0,0,0,1.48H159.4A.74.74,0,0,0,159.4,239.8Z"/><path class="cls-1" d="M109.83,214.07c.19.16,49.5,0,49.74.05a.74.74,0,0,0,.74-.74.75.75,0,0,0-.74-.74H110.11A.74.74,0,0,0,109.83,214.07Z"/><path class="cls-1" d="M270,197.31l0-167.85a12.7,12.7,0,0,0-12.7-12.71l-244.58,0A12.72,12.72,0,0,0,0,29.49L0,197.34a12.72,12.72,0,0,0,12.7,12.71H104.4l-1,21.64c-.23,5.95-3.92,10.91-8.67,14.21-2.75,2-1.09,6.78,2.32,6.67l75.81.68a3.77,3.77,0,0,0,2.6-6.48,33.55,33.55,0,0,1-10.38-21.39l-1-15.34H257.3A12.72,12.72,0,0,0,270,197.31ZM12.7,18.25l244.58,0a11.2,11.2,0,0,1,11.23,11.23V178.82l-267,0V29.48A11.23,11.23,0,0,1,12.7,18.25ZM163.64,225.48a35,35,0,0,0,10.84,22.36,2.26,2.26,0,0,1-1.58,3.93l-75.81-.68A2.26,2.26,0,0,1,95.68,247c5.1-3.55,9-8.92,9.22-15.28l1-21.72h56.73Zm93.66-16.93-244.58,0A11.23,11.23,0,0,1,1.49,197.34v-17l267,0v17A11.25,11.25,0,0,1,257.3,208.55Z"/><path class="cls-1" d="M24.18,168.33l221.65,0a11.72,11.72,0,0,0,11.7-11.7V42.84a11.71,11.71,0,0,0-11.7-11.7l-221.65,0a11.71,11.71,0,0,0-11.7,11.7V156.63A11.76,11.76,0,0,0,24.18,168.33Zm0-135.69,221.65,0A10.21,10.21,0,0,1,256,42.84V156.61a10.21,10.21,0,0,1-10.22,10.22l-221.65,0A10.24,10.24,0,0,1,14,156.63V42.86A10.24,10.24,0,0,1,24.17,32.64Z"/><path class="cls-1" d="M132.72,27.61A3.21,3.21,0,1,0,135,22.13,3.23,3.23,0,0,0,132.72,27.61Zm1-3.5a1.75,1.75,0,0,1,3,1.23A1.73,1.73,0,1,1,133.76,24.11Z"/></svg>