<svg id="Layer_1" data-name="Layer 1" xmlns="http://www.w3.org/2000/svg" viewBox="0 0 270 270"><defs><style>.cls-1{fill:#efe8f2;}</style></defs><g id="Headphones"><path class="cls-1" d="M132.19,88.87C113,85.94,102.69,114.38,110,129.38c9.32,20,31.49,9,35.29-11.23C147.9,106.73,144,91.54,132.19,88.87Zm11.77,29c-3.7,19.4-24.22,29.45-32.76,11-6.36-13.6,1.39-38.07,18.1-38.93C142.18,90.23,146.69,106.41,144,117.87Z"/><path class="cls-1" d="M263.39,131.43a32,32,0,0,0-3.09-6.75,36.79,36.79,0,0,0-7.52-16.1c21.26-44.25,1.85-92-41.39-103.89A53.6,53.6,0,0,0,195.09.27c-51.57-4.17-76.35,40.05-78.38,69.58-37.76,5.91-50.43,54-21.88,78.94l6.53,5.65c22.47,19.85,51.64.09,59.92-29.59,6.07-20.51.69-47.27-19.46-55.27,2.77-20,18.34-53.91,52.49-62.71,16.43,1.87,32.77,14.74,38.33,30.7a107,107,0,0,1-3.33,59.73l.05-.23c-23-4.95-44.21,13.23-50.36,35.8-6.05,20.95,1.05,45.84,20.75,55.23l-4.69,7.5a4.92,4.92,0,0,0,1,6.37c-14.9,21.93-36.7,45.78-63.92,57.85-22.82,9.73-38.31,11.48-43.61,4.9s.32-21.48,5.43-29.84c4.61-7.53,10.48-12.36,15.19-16.24,5.71-4.7,10.23-8.41,9.8-14.42a13.35,13.35,0,0,0-6-9.93c-11.7-7.87-35.76,9.22-44.73,23.46C59.59,231,38.05,249.72,13.57,245c-15.65-8.42-4.23-30.07,14-47.3l.13-.15c4.65-6.94,5.18-18.95,2.59-25.22a5.79,5.79,0,0,0,1.83-6.85L25.64,150a3.17,3.17,0,0,0-4.14-1.68l-2.42-5.91a2.52,2.52,0,0,0-3.26-1.36l-.94.39a2.5,2.5,0,0,0-1.36,3.25l2.47,6a3.14,3.14,0,0,0-1.07,3.78L21.43,170A5.82,5.82,0,0,0,29.15,173c2.53,6.66,2,20-4.66,25.78-17.77,17.65-27.7,38.68-11.43,47.42l.2.06c25.18,4.88,47.16-14.2,56-27.77,8.55-13.61,31.77-30.34,42.93-23.11a12.16,12.16,0,0,1,5.41,8.9c.37,5.32-3.69,8.67-9.32,13.3-4.79,3.94-10.75,8.85-15.48,16.58-7.22,11.68-15.62,36.16,6.73,35.81,8,0,19.15-3,33.12-9,27.48-12.16,49.47-36.2,64.51-58.34a5,5,0,0,0,6.23-1.87l6.09-9.74c11,1.62,21.54-1.74,30.82-9.28C258.84,174.9,269.67,149.9,263.39,131.43Zm-240.65,18c1.18,0,1.73,1.08,2.06,2l-8.21,3.62L16.15,154a1.82,1.82,0,0,1,1-2.38C17.55,151.49,22.39,149.25,22.74,149.4Zm-5.55.73-1.58-3.84L18.69,145l1.58,3.86Zm-1.8-7.46c.5-.18,1.28-.67,1.83-.38s.75,1,1,1.46l-3.07,1.3C14.71,144.22,14.29,143.17,15.39,142.67Zm9.71,29.2a4.41,4.41,0,0,1-2.44-2.41l-5.55-13.18,8.2-3.62L30.92,166C32.55,169.5,28.63,173.47,25.1,171.87ZM256,116.1a37.06,37.06,0,0,1,2.2,5.57,25.92,25.92,0,0,0-3.35-3.51,42.16,42.16,0,0,0-3.69-6.29c.34-.65.67-1.3,1-2A37.5,37.5,0,0,1,256,116.1Zm-5.56-2.89c.68,1,1.32,2,1.92,3.08a25.69,25.69,0,0,0-2.75-1.57C249.89,114.22,250.16,113.72,250.43,113.21Zm-2.56-81.8c16.08,22.5,16.27,55,.52,82.76-6.16-2.73-13.09-2.55-19.74,0,12.59-26,16.46-51.31,11-77.19a51.47,51.47,0,0,0-21-28.3A67,67,0,0,1,247.87,31.41Zm-37.63,149.2c-31.07-15.79-18.32-64.21,13.44-70.32-.22.67-1.25,1.67-.35,2.22l4.31,2.07c-17.9,7.3-28.25,31.85-22.08,50,3.17,9.76,10.05,16.63,19.32,18.65A29.28,29.28,0,0,1,210.24,180.61ZM81.42,105A43.34,43.34,0,0,1,118.14,71C92.5,82.64,80.43,124.49,96.26,148.26A45,45,0,0,1,81.42,105ZM159,89.8c4,10.31,4.35,22.63,1,34.69-8.25,29.05-35.56,47-56.55,30,0-.06-1.12-1-1.18-1.06-21.94-21.21-11-66.77,14.42-80.29C133.21,63.63,152.34,71.32,159,89.8Zm14-74.51c-23.7,16.22-30.6,42.83-32.49,53.83a28.33,28.33,0,0,0-15.92-.51,3.67,3.67,0,0,0-1,.1c1-6.88,7-39.67,35.33-54.68,4.44-2.35,17.37-9.19,32.21-7.61A70.66,70.66,0,0,0,173,15.29Zm63.45,53.92a107.59,107.59,0,0,0-2.57-32c-5.8-16.63-22.58-29.72-39.53-31.65-16.5-3-31.2,4.77-36,7.32-29.25,15.6-35.21,49.19-36,56.08l-4.24.7c2.33-30.07,27.15-72,76.9-68,18.69,1.51,37.81,15.85,43.41,35.73,5.32,25.38,1.57,50.22-10.69,75.79l-3.16-1.52A106.4,106.4,0,0,0,236.48,69.21ZM183.64,170.54c-17-30.7,8-79.3,45.28-72.19a103,103,0,0,1-4.48,10.43c-31.36,5-46.43,50.87-19.16,70.47L200.46,187A36.76,36.76,0,0,1,183.64,170.54Zm18.65,29.58a3.62,3.62,0,0,1-6.56-1.1,3.58,3.58,0,0,1,.46-2.71L206.38,180a28.82,28.82,0,0,0,6.55,3.08Zm8-10.27,4-6.38a29.83,29.83,0,0,0,15.44.3,25,25,0,0,0,6.8-.76C228.41,188.65,219.25,191.05,210.28,189.85Zm50.65-31.68c-5.68,15.81-23.05,28.92-39.13,22.73-7-2.71-12.35-8.67-15-16.77-5.6-16.22,2.93-38.39,18-46.66,9.33-5.53,20.83-5.45,29,1.57l0,.06h0C264.57,128.37,266.16,144.73,260.93,158.17Z"/><path class="cls-1" d="M247.54,138.63a12.77,12.77,0,0,0-19.39,4.18c-5.92,9.1-1.32,20.14,8.28,21.36C248.7,168.45,258.66,144.11,247.54,138.63Zm-18.3,20.12c-3.21-4-3.19-10.14.07-15.29,1.56-3.58,7.94-8.5,14.62-5.42-9.34.63-16.31,16.66-10.39,23.91A10.78,10.78,0,0,1,229.24,158.75Zm20.31-4.05c-7,15.13-21.68,8.75-15.37-6.7C240.94,133.19,255.88,138.8,249.55,154.7Z"/><path class="cls-1" d="M130.62,109.13l4.45-6a.67.67,0,0,0-1.07-.79L129.79,108l-2.57-3.45,3.48-4.67a.67.67,0,0,0-1.07-.79l-3.24,4.34-3.23-4.34c-.51-.7-1.6.11-1.07.79l3.47,4.67L123,108l-4.21-5.65a.67.67,0,0,0-1.07.79l4.45,6-2.57,3.45-5.18-7a.67.67,0,0,0-1.07.8l5.42,7.28L113.34,121a.67.67,0,0,0,1.07.8l5.18-7,2.57,3.45-4.45,6a.67.67,0,0,0,1.07.79l4.21-5.65,2.57,3.45-3.47,4.66a.67.67,0,0,0,1.07.8l3.23-4.34,3.24,4.34a.67.67,0,0,0,1.07-.8l-3.48-4.66,2.57-3.45L134,125a.67.67,0,0,0,1.07-.79l-4.45-6,2.57-3.45,5.19,7c.5.7,1.59-.12,1.07-.8L134,113.7l5.43-7.28c.52-.68-.57-1.5-1.07-.8l-5.19,7Zm-4.23-3.44,2.57,3.44-2.57,3.45-2.57-3.45Zm-6,8,2.57-3.45,2.57,3.45L123,117.15Zm6,8-2.57-3.44,2.57-3.45,2.57,3.45Zm3.4-4.56-2.57-3.45,2.57-3.45,2.57,3.45Z"/></g></svg>