<svg id="Layer_1" data-name="Layer 1" xmlns="http://www.w3.org/2000/svg" viewBox="0 0 270 270"><defs><style>.cls-1{fill:#efe8f2;}</style></defs><path class="cls-1" d="M183.08,207h0l-.09-.07-.07-.06h0l-43.16-26.39a1,1,0,0,0-1.3.19,98.06,98.06,0,0,1-34.22,24.67,95.43,95.43,0,0,1-14.07,4.76c-9.26-27.59,5.64-65.24,11.38-78l8.54,7.75a1.06,1.06,0,0,0,1.06.2,1,1,0,0,0,.66-.85l5.57-49.27v-.07a.61.61,0,0,0,0-.14.31.31,0,0,0,0-.1s0-.1,0-.15l0-.07a.82.82,0,0,0-.12-.2l0,0A1.06,1.06,0,0,0,117,89s0,0,0,0l0,0-.06-.05L72.43,62.48a1,1,0,0,0-.89-.08L32.64,77.2l0,0a.81.81,0,0,0-.18.1l0,0h0a.91.91,0,0,0-.17.17l0,.06a1,1,0,0,0-.1.17.14.14,0,0,0,0,.06,1.05,1.05,0,0,0-.06.24v0s0,0,0,0a.67.67,0,0,0,0,.2s0,0,0,.08a.66.66,0,0,0,.06.2l0,.08a.83.83,0,0,0,.07.13l8,10.35C24.47,119.51,8.9,165.06,23.15,210.71a54.49,54.49,0,0,0,10.24,18.75,24.05,24.05,0,0,0,6.82,5.64l53.1,29.64a.93.93,0,0,0,.46.12A51.21,51.21,0,0,0,116.15,270l1.36,0c38.74-1.06,67.6-29.2,81.35-45.88a1.05,1.05,0,0,0-.07-1.39ZM77.19,104.22,35.33,78.38,71.81,64.51,114,89.58Zm-.75,2L79,108.78,42.11,88.24,37.3,82Zm7.27,7.59a.92.92,0,0,0,.23.09l.81.83C55,170.9,52.72,227,79.16,254.22l.58.59-38.53-21.5A22.15,22.15,0,0,1,35,228.14,52.63,52.63,0,0,1,25.09,210c-14-44.7,1.27-89.49,16.76-119.51Zm1.22,143a53.64,53.64,0,0,1-4.29-4C54.7,226,57.22,170.65,86.92,115a1,1,0,0,0-.17-1.2l-7.84-8,36.2-14.4L110,136.92l-8.09-7.35a1,1,0,0,0-.9-.24,1,1,0,0,0-.73.58c-6.92,15.07-27.69,66.46-4.37,94.93a43.47,43.47,0,0,0,6,6,37.15,37.15,0,0,0,10.37,6c12.63,4.72,27.61,2.09,44.55-7.82a135.15,135.15,0,0,0,25.59-19.81l14.31,14.3c-13.54,16.24-41.73,43.39-79.36,44.42A48.5,48.5,0,0,1,84.93,256.75Zm73.13-30.89c-21.54,13.38-36.43,12.3-45.12,9a35.07,35.07,0,0,1-9.79-5.67A40.65,40.65,0,0,1,90.84,212,98.18,98.18,0,0,0,105,207.23a99.92,99.92,0,0,0,34.37-24.56l41.31,25.27A136.07,136.07,0,0,1,158.06,225.86Z"/><path class="cls-1" d="M227.74,181.78c13.51-22.71,28.55-58.48,23.83-100.23A142.55,142.55,0,0,0,249.15,67a60.49,60.49,0,0,0-7.64-19.24A48.31,48.31,0,0,0,226,32l-.2-.15L180.61,6.15A60.82,60.82,0,0,0,168.05,1.6C124.55-8.75,82,33.91,69.9,47.31h0l0,0,0,0a.76.76,0,0,0-.11.14l0,0a1.21,1.21,0,0,0,0,.14l0,.08a.59.59,0,0,0,0,.14s0,.05,0,.07a1.09,1.09,0,0,0,.08.43l0,.06a.75.75,0,0,0,.07.12.86.86,0,0,0,.07.1l0,.05L84.73,63.83A1.1,1.1,0,0,0,85,64l45,24.44a1,1,0,0,0,.89,0h0l.14-.08.14-.11,0,0h0c4.63-4.89,24.71-24.84,47.34-28.79a108.82,108.82,0,0,1,1.87,10.77c2.67,22-1.39,44.44-12.06,66.78l-10.22-5.58a1,1,0,0,0-1,0,1.07,1.07,0,0,0-.56.79l-6.47,49a1,1,0,0,0,.52,1l44.62,25.2h0a.85.85,0,0,0,.22.09h0a1.9,1.9,0,0,0,.25,0,.76.76,0,0,0,.21,0l.08,0,.09,0,39.21-15.79A1,1,0,0,0,236,191a1,1,0,0,0-.27-.93Zm-75.43-.95L158.49,134l42.35,23.12L195,204.94Zm45-120.43a37.71,37.71,0,0,1,9.56,4.46,39.81,39.81,0,0,1,8.62,7.34c24.09,27.5,1.14,81.14-4.16,92.53l-8.61-8.91a.64.64,0,0,0-.15-.13l0,0-.05,0L170.19,138c10.88-22.73,15-45.62,12.29-68a109.62,109.62,0,0,0-1.86-10.84A39.42,39.42,0,0,1,197.28,60.4ZM197.05,205l5.65-46.2,8.15,8.45a1,1,0,0,0,1.67-.27c3.23-6.68,30.77-66.13,4.49-96.13A41.69,41.69,0,0,0,208,63.13a40.1,40.1,0,0,0-10.07-4.71c-12.61-3.82-26.82-1.21-42.23,7.76a124,124,0,0,0-25.17,19.89L117.2,72.44c34.09-38.86,79-55.36,106.82-39.26a45.91,45.91,0,0,1,15.75,15.71,58.41,58.41,0,0,1,7.36,18.59,137.14,137.14,0,0,1,2.39,14.3c4.7,41.52-10.43,77.09-24,99.61a1,1,0,0,0,.14,1.25l7.51,7.78ZM115.57,71.18,72.27,47.77C84.36,34.56,125.9-6.32,167.57,3.61A58.11,58.11,0,0,1,179.64,8L212,26.32C183.55,19.92,145.44,37.08,115.57,71.18Zm-.4,2.13L125,83.41,86.1,62.28,76.19,52.23Z"/></svg>