<svg id="Layer_1" data-name="Layer 1" xmlns="http://www.w3.org/2000/svg" viewBox="0 0 270 270"><defs><style>.cls-1{fill:#efe8f2;}</style></defs><path class="cls-1" d="M263.79,129.84c-22.55-58.65-129.69-89.59-193.33-68C54.32,66.92,16.5,78.79,4,111.2v0c-8.36,21.46-4.65,46.07,22.39,58.35,10.12,3.68,15.86.55,26.49.92,20.51.1,36.18,6.61,43.72,9.73,17.53,7.29,18,13.14,34.17,21.55C134.94,204,157.22,215,184,215,231.39,215.09,289.21,185.32,263.79,129.84Zm-192-63.78c40.56-12.73,76.42-5.13,94.08-.17a65,65,0,0,0-16.23,8.65C115.66,62.71,55,63.68,14.45,101.05,29.75,79.31,58.44,70.25,71.79,66.06ZM8,113.18c38.13-41.7,98.24-47.72,137.5-35.28-21.66,18.89-24.65,47.61-24.88,59.56-3.59-2-73.57.08-79.38-.24-7.47.21-12.5,1.52-21.64-2.48-7.64-4.14-11.91-7.32-13.95-13.86A58.5,58.5,0,0,1,8,113.18Zm124.84,84.69c-16.06-8.49-16.45-14.22-34.54-21.72-7.79-3.24-24-10-45.39-10.07-9.85-.41-16.12,2.6-25-.64-19.44-8.69-24-24.16-23.39-36.94,8.5,11.52,24.9,15,36.74,13.13l69.78-.7c44.77,4.26,86.24,27.81,116.09,61.18C191.69,217,153.94,209.49,132.79,197.87Zm98.63,2.41A189.82,189.82,0,0,0,125,138.36c-.64-21.56,11-61.61,48.52-70.2C194.75,74.7,243,89.89,259.7,131.49,272.68,159.52,263.7,186.22,231.42,200.28Z"/></svg>