<svg id="Layer_1" data-name="Layer 1" xmlns="http://www.w3.org/2000/svg" viewBox="0 0 270 270"><defs><style>.cls-1{fill:#efe8f2;}</style></defs><g id="Ink_Pen" data-name="Ink Pen"><path class="cls-1" d="M135.9,27.57a4.15,4.15,0,0,0-2.1,0c-5.33,1.25-4.38,9.19,1.09,9.18S141.18,28.87,135.9,27.57Zm-1,7.07c-3.32,0-3.38-5.08,0-5.11h0C138.2,29.53,138.22,34.62,134.88,34.64Z"/><path class="cls-1" d="M143.35,63.79c.65,0,1.71.13,2-.66m0,0a1.06,1.06,0,0,0,.08-.4l-.06-11.52,4.75-14.44a4.83,4.83,0,0,0-.72-4.46A67.05,67.05,0,0,1,136.29.89a1.05,1.05,0,0,0-2.06-.08,86.52,86.52,0,0,1-13.68,31.68,4.86,4.86,0,0,0-.67,4.27l4.37,14a3.64,3.64,0,0,1,0,.51s.08,11.8.13,11.93c-4.47,6.81-4.53,20.19,0,27.14-1.53,18.16-3.29,47.55-3,84.92.14,23.1,1,45.62,2.62,66.93a55.24,55.24,0,0,0,6.08,21.37c3.41,7.18,6.51,9.55,10.84.66a54.61,54.61,0,0,0,6.38-22.79c1.19-20.83,1.77-42.67,1.72-64.92-.08-37.57-1.95-67.64-3.51-86.31,4.32-7.59,3.53-20.93-.21-27.1-.26.79-1.32.66-2,.66,3.4,5.76,4.42,18,.46,25.21l-17.67.08c-4.29-6.91-3.81-18.68.26-25.21l16.95-.08M121.88,36.13a2.8,2.8,0,0,1,.39-2.44,87.72,87.72,0,0,0,11.59-23.36L134,27.68a4.58,4.58,0,0,1,1.05-.14,4.09,4.09,0,0,1,1.05.14L136,9.74A69,69,0,0,0,147.7,33.58a2.75,2.75,0,0,1,.4,2.53l-4.41,13.23L126,49.42Zm21.36,15.31v2.05l-16.85.08v-2Zm-16.83,4.23,16.85-.08,0,6.1-16.85.08ZM135.63,268c-.9,0-2.7-3.46-3.66-5.33a53.06,53.06,0,0,1-5.86-20.55c-3.82-42.14-3-118.23.38-150.89l17-.08c3.29,32.86,4.75,107.65,1.73,150.24a52.69,52.69,0,0,1-6.14,21.92C138.4,264.54,136.59,268,135.63,268Z"/></g></svg>