<svg id="Layer_1" data-name="Layer 1" xmlns="http://www.w3.org/2000/svg" viewBox="0 0 270 270"><defs><style>.cls-1{fill:#efe8f2;}</style></defs><path class="cls-1" d="M99.19,102.89a.9.9,0,0,0,.37.07.93.93,0,0,0,.85-.56l.55-1.25a.93.93,0,0,0-1.71-.75l-.55,1.26a.94.94,0,0,0,.49,1.23Z"/><path class="cls-1" d="M269.35,142.74,213.74,125a92.54,92.54,0,0,0-27.62-25.87,20.4,20.4,0,0,0-9.54-2.92,50.7,50.7,0,0,0-7,.07.94.94,0,0,0-.69-.88c-3.08-.82-6.23-1.51-9.35-2.05a107.17,107.17,0,0,0-21.79-1.48A6.33,6.33,0,0,0,133,94.39a23,23,0,0,0-4.76,12.47,21.69,21.69,0,0,0,.08,3.69,10.49,10.49,0,0,0-1.24-2,11.93,11.93,0,0,0-8.83-4.3c-2.91.34-5.86.59-8.79.77a1.51,1.51,0,0,0-.09-.18l-3.9-6.5a6.09,6.09,0,0,0-5.3-3l-22.22.24a6.78,6.78,0,0,0-4.6,1.88,87.62,87.62,0,0,0-19.87,28.33,9.42,9.42,0,0,1-3.82,4.32c-3.73,2.23-7.57,4.34-11.43,6.28A177.56,177.56,0,0,1,.71,150.26a.93.93,0,0,0-.58.43,1,1,0,0,0-.1.7.92.92,0,0,0,.9.71.9.9,0,0,0,.23,0A180.16,180.16,0,0,0,39,138.14c3.91-2,7.79-4.1,11.55-6.35a11.3,11.3,0,0,0,4.57-5.17,86,86,0,0,1,10.42-17.68,85.14,85.14,0,0,1,9-10,4.9,4.9,0,0,1,3.33-1.36l22.27-.25a4.25,4.25,0,0,1,3.63,2.06l3.5,5.82-.28,0a154.31,154.31,0,0,1-21.49-.6,1,1,0,0,0-.69.2,1,1,0,0,0-.33.64.94.94,0,0,0,.84,1,154.92,154.92,0,0,0,21.75.6c3.78-.16,7.55-.46,11.16-.89a9.94,9.94,0,0,1,7.29,3.6,10.12,10.12,0,0,1,1.57,8.86,1.15,1.15,0,0,0,0,.31,9.08,9.08,0,0,0-3.65,6.68c0,.25-.37,5.27,1.88,8.17a6.83,6.83,0,0,1,.65,3,6.72,6.72,0,0,1-.4,2.18c-.17.34-.33.69-.47,1-.06.11-.11.2-.17.29a1,1,0,0,0-.13.63,10.31,10.31,0,0,0-.38,2.67,9.58,9.58,0,0,0,1.59,5.23.82.82,0,0,0,.06.26,6,6,0,0,1-.24,4.75,5.85,5.85,0,0,1-3.58,2.87,1,1,0,0,0-.59.48,4.2,4.2,0,0,0-.29,2.81c1.12,4.89-.3,9.67-3.54,11.89a9.08,9.08,0,0,1-5.51,1.42.91.91,0,0,0-.85.44,14.18,14.18,0,0,1-4.45,4.44,14,14,0,0,1-6.91,2.12L72,179a30.79,30.79,0,0,0-12,1.81l-44.31,16a.94.94,0,0,0-.56,1.2,1,1,0,0,0,.88.61.87.87,0,0,0,.32-.06l44.31-16a28.94,28.94,0,0,1,11.23-1.71l28.21,1.31a16.06,16.06,0,0,0,7.92-2.4,16.23,16.23,0,0,0,4.75-4.59h.13a10.54,10.54,0,0,0,6-1.76c3.93-2.7,5.61-8.13,4.3-13.85a2.47,2.47,0,0,1,0-1.21,7.78,7.78,0,0,0,4.29-3.67,7.37,7.37,0,0,0,.83-3.4.18.18,0,0,0,.07,0,10.68,10.68,0,0,0,5.13,2.05h0a4.86,4.86,0,0,0-3.39,4.72l.06,4.82a4.75,4.75,0,0,0,1.79,3.73,25.32,25.32,0,0,0,2.09,1.47,29.64,29.64,0,0,0,17.14,4.35,71.62,71.62,0,0,0,45.6-.56,3,3,0,0,1,1.79-.08l53.13,13.91a.85.85,0,0,0,.23,0,.94.94,0,0,0,.24-1.84l-53.13-13.9a4.88,4.88,0,0,0-2.88.12,69.63,69.63,0,0,1-44.57.49.83.83,0,0,0-.32,0,27.76,27.76,0,0,1-16.23-4.05,21.17,21.17,0,0,1-1.94-1.36,2.88,2.88,0,0,1-1.07-2.28L132,158.1a3,3,0,0,1,2.1-2.92l26.8-8.61a4.84,4.84,0,0,1,2.68,1.51c1.62,1.95,1.29,5.42-.78,8.28l-16.33,5.92a1,1,0,0,0-.56,1.2.94.94,0,0,0,.88.61.86.86,0,0,0,.32-.05l16.59-6a.91.91,0,0,0,.42-.31c2.75-3.59,3.12-8.15.89-10.82a5.91,5.91,0,0,0-1.78-1.43,6.33,6.33,0,0,0,2.59-4,6.65,6.65,0,0,0-3.91-6.9,17.49,17.49,0,0,0,2.7-4.58,17.91,17.91,0,0,0,.92-9.8h.75c.06,4.53,1.24,18.13,12.34,28A36.79,36.79,0,0,0,197.52,157l.14,0a.93.93,0,0,0,.92-.79.93.93,0,0,0-.78-1.07,35.09,35.09,0,0,1-17.93-8.34c-10.53-9.38-11.65-22.3-11.71-26.63h4.71a.93.93,0,1,0,0-1.86h-8.54a5.22,5.22,0,0,0-4.45,2.58l-6,10.14c-4.68,4.06-10.48,3.84-13,1.07-2-2.19-1.48-5.65-1.26-6.71a33.72,33.72,0,0,0,2.75-7.39,34.07,34.07,0,0,0,.87-5.44,8.27,8.27,0,0,1,3.47-6.23,46.73,46.73,0,0,1,9.32-5,47.56,47.56,0,0,1,20.39-3.25,18.48,18.48,0,0,1,8.67,2.65,90.43,90.43,0,0,1,27.25,25.6.91.91,0,0,0,.48.36l55.91,17.84a1,1,0,0,0,.29,0,.93.93,0,0,0,.28-1.82ZM153,100.63a1,1,0,0,0-.24-.16,23.27,23.27,0,0,0-2.8-1,21.39,21.39,0,0,0-7.1-.72,1,1,0,0,0-.64.31.9.9,0,0,0-.23.68.92.92,0,0,0,.34.67.83.83,0,0,0,.65.2,19.55,19.55,0,0,1,6.48.66c.46.13.91.27,1.35.43a48.7,48.7,0,0,0-5.08,3.08,10.13,10.13,0,0,0-4.27,7.62,32,32,0,0,1-.82,5.14,32.77,32.77,0,0,1-2.66,7.09.74.74,0,0,0-.08.22c-.28,1.25-1,5.56,1.67,8.48a7.57,7.57,0,0,0,1.24,1.08l-6.89.14a15,15,0,0,1-2.53-.29l-.13-.07a1.09,1.09,0,0,0-.47,0,20.88,20.88,0,0,1-3-.69,3.48,3.48,0,0,1-.8-.68c-.08-.16-.16-.32-.24-.45a1,1,0,0,0-.29-.31c-1.36-2.4-1.1-6.23-1.09-6.27a7.71,7.71,0,0,1,1-3.23c2-3.46,7.18-5.15,13.07-4.29a.93.93,0,0,0,1.06-.79,1,1,0,0,0-.18-.7.91.91,0,0,0-.61-.36,20.1,20.1,0,0,0-7.88.34,1.1,1.1,0,0,0-.06-.26,20.61,20.61,0,0,1,2.72-21,4.45,4.45,0,0,1,3.39-1.78,104,104,0,0,1,21.42,1.45c2.34.4,4.7.9,7,1.47a48.29,48.29,0,0,0-10.89,2.92C154.57,99.91,153.77,100.26,153,100.63Zm10.69,19.62a16.24,16.24,0,0,1-.77,9,15.75,15.75,0,0,1-3,4.75l-7.21.15a15,15,0,0,0,2.57-1.85.73.73,0,0,0,.18-.22l6.05-10.28A3.34,3.34,0,0,1,163.66,120.25Zm-3,24.43-23.53,6.62a8.79,8.79,0,0,1-7.61-1.44,7.9,7.9,0,0,1-3.22-6.4,7.56,7.56,0,0,1,.45-2.55,9.33,9.33,0,0,0,.61-1.37,8.75,8.75,0,0,1,3.6-3.45,16.28,16.28,0,0,0,3.06.33l26.18-.54a5,5,0,0,1,3.77,5.26A4.7,4.7,0,0,1,160.67,144.68Zm-32.3-9.11c-.19.15-.37.3-.54.46,0-.21,0-.42-.06-.61ZM130,117.2a.47.47,0,0,0,.06.09c-.27.11-.53.22-.78.34a13,13,0,0,0,.15-1.92C129.6,116.21,129.79,116.71,130,117.2Z"/><path class="cls-1" d="M199.21,159.78a.91.91,0,0,0-1,.83c-.1.91-.17,1.85-.23,2.8a.94.94,0,0,0,.23.68,1,1,0,0,0,.65.31h0a.92.92,0,0,0,.93-.87c.06-.92.14-1.84.22-2.73A.93.93,0,0,0,199.21,159.78Z"/><path class="cls-1" d="M200.72,151.37a.85.85,0,0,0,.23,0,.93.93,0,0,0,.91-.7c.38-1.49.82-3,1.3-4.39a67.44,67.44,0,0,1,2.53-6.4.93.93,0,0,0-.47-1.23.88.88,0,0,0-.71,0,.9.9,0,0,0-.52.49,67.6,67.6,0,0,0-2.6,6.58c-.49,1.46-.94,3-1.34,4.51A.93.93,0,0,0,200.72,151.37Z"/><path class="cls-1" d="M135.53,104a.94.94,0,0,0-1.14.67,15.79,15.79,0,0,0-.08,7.64.93.93,0,0,0,.91.72.76.76,0,0,0,.21,0,.94.94,0,0,0,.7-1.12,13.92,13.92,0,0,1,.06-6.73.94.94,0,0,0-.66-1.15Z"/><path class="cls-1" d="M130.18,123a.94.94,0,0,0-.7.09,1,1,0,0,0-.44.59,16,16,0,0,0-.12,6.78.93.93,0,0,0,.9.7.85.85,0,0,0,.23,0,.93.93,0,0,0,.57-.43.89.89,0,0,0,.1-.71,14,14,0,0,1,.14-5.86.94.94,0,0,0-.68-1.13Z"/><path class="cls-1" d="M137.54,157.45a.89.89,0,0,0-.6-.38,1,1,0,0,0-.69.15,1,1,0,0,0-.39.63,10.36,10.36,0,0,0,.65,5.52.92.92,0,0,0,.84.54,1,1,0,0,0,.41-.1.93.93,0,0,0,.43-1.24,8.73,8.73,0,0,1-.49-4.43A.86.86,0,0,0,137.54,157.45Z"/><path class="cls-1" d="M133.14,141.44a.9.9,0,0,0-.14-.7.93.93,0,0,0-1.69.33,9.55,9.55,0,0,0,.88,6.34.93.93,0,0,0,.83.5.91.91,0,0,0,.43-.1.93.93,0,0,0,.4-1.26A7.67,7.67,0,0,1,133.14,141.44Z"/><path class="cls-1" d="M157.19,109.55a1,1,0,0,0-1.32.16.94.94,0,0,0,.18,1.31,10.48,10.48,0,0,1,2.72,3.15,9.63,9.63,0,0,1,.79,1.83.94.94,0,0,0,.89.64,1,1,0,0,0,.29,0,.9.9,0,0,0,.54-.47.88.88,0,0,0,.06-.71,12,12,0,0,0-.94-2.16A12.23,12.23,0,0,0,157.19,109.55Z"/><path class="cls-1" d="M120.53,120.61a.82.82,0,0,0,.26,0,1,1,0,0,0,.9-.68,8.75,8.75,0,0,0-3.77-9.88.93.93,0,0,0-1.29.29.94.94,0,0,0,.3,1.29,6.94,6.94,0,0,1,2.87,3.61,7,7,0,0,1,.09,4.17A.94.94,0,0,0,120.53,120.61Z"/><path class="cls-1" d="M111.48,168a.9.9,0,0,0-.39.6.88.88,0,0,0,.15.7.93.93,0,0,0,.76.4.88.88,0,0,0,.53-.16c2.76-1.9,4-5.7,3-9.7a.93.93,0,0,0-.42-.58.87.87,0,0,0-.7-.12.89.89,0,0,0-.58.42.87.87,0,0,0-.12.7C114.48,163.44,113.57,166.55,111.48,168Z"/><path class="cls-1" d="M61.59,141.87a.93.93,0,1,0-1.23-1.4,16.94,16.94,0,0,1-2.18,1.63,20.37,20.37,0,0,1-12.86,2.73.91.91,0,0,0-.69.19.93.93,0,0,0-.33.64.88.88,0,0,0,.2.68.89.89,0,0,0,.63.34,25.29,25.29,0,0,0,2.6.13,21,21,0,0,0,11.45-3.13A19,19,0,0,0,61.59,141.87Z"/><path class="cls-1" d="M58.41,170.57c-1.4-.92-5.47-.82-8.77-.24a10.35,10.35,0,0,0-2.83.94.93.93,0,0,0,.42,1.77.92.92,0,0,0,.42-.1,8.14,8.14,0,0,1,2.32-.78c3.87-.68,6.89-.38,7.42,0a1,1,0,0,0,.71.13.89.89,0,0,0,.58-.4.92.92,0,0,0,.14-.7A.9.9,0,0,0,58.41,170.57Z"/><path class="cls-1" d="M105.63,72.37a.93.93,0,0,0,.92.75h.17a.93.93,0,0,0,.6-.4.9.9,0,0,0,.14-.7l-3.55-18.48a.89.89,0,0,0-.4-.6.9.9,0,0,0-.69-.14.93.93,0,0,0-.59.39.88.88,0,0,0-.15.7Z"/><path class="cls-1" d="M131.58,197.64a.93.93,0,0,0-.4-.6.9.9,0,0,0-.69-.14.92.92,0,0,0-.74,1.09l3.54,18.48a.94.94,0,0,0,.92.76l.18,0a1,1,0,0,0,.59-.39,1,1,0,0,0,.15-.7Z"/><path class="cls-1" d="M169.32,192.75l-15.58-10.56a.94.94,0,0,0-1.3.25.9.9,0,0,0-.14.7,1,1,0,0,0,.39.59l15.58,10.56a.94.94,0,0,0,1.3-.25.9.9,0,0,0,.14-.7A.93.93,0,0,0,169.32,192.75Z"/><path class="cls-1" d="M67.89,77.26,83.47,87.82A1,1,0,0,0,84,88a1,1,0,0,0,.78-.41.92.92,0,0,0,.14-.7,1,1,0,0,0-.39-.6L68.94,75.71a.94.94,0,0,0-1.3.25.92.92,0,0,0-.14.7A1,1,0,0,0,67.89,77.26Z"/><path class="cls-1" d="M132.48,78.41a.94.94,0,0,0,.52.16.91.91,0,0,0,.77-.41l10.56-15.58a.93.93,0,0,0-.25-1.3,1,1,0,0,0-1.3.25L132.22,77.11a.92.92,0,0,0-.14.7A.93.93,0,0,0,132.48,78.41Z"/><path class="cls-1" d="M104.73,191.59a.91.91,0,0,0-.7-.14,1,1,0,0,0-.59.39L92.88,207.42a.92.92,0,0,0,.25,1.3.94.94,0,0,0,.52.16,1,1,0,0,0,.78-.41L105,192.89a.88.88,0,0,0,.15-.7A.93.93,0,0,0,104.73,191.59Z"/><path class="cls-1" d="M119.67,73.11h.19a.92.92,0,0,0,.91-.75l3.55-18.49a.93.93,0,0,0-.74-1.09.89.89,0,0,0-.69.15.93.93,0,0,0-.4.59L118.94,72A.94.94,0,0,0,119.67,73.11Z"/><path class="cls-1" d="M117.53,196.9a.88.88,0,0,0-.69.14.93.93,0,0,0-.4.6l-3.55,18.48a.92.92,0,0,0,.14.7,1,1,0,0,0,.59.39l.18,0a.93.93,0,0,0,.92-.76L118.27,198a.92.92,0,0,0-.74-1.09Z"/><path class="cls-1" d="M144.58,191.85a.93.93,0,0,0-1.55,1l10.56,15.58a.93.93,0,0,0,.77.41.92.92,0,0,0,.53-.16.94.94,0,0,0,.25-1.3Z"/><path class="cls-1" d="M92.63,78.16a.94.94,0,0,0,.77.41,1,1,0,0,0,.53-.16,1,1,0,0,0,.25-1.3L83.62,61.53a.88.88,0,0,0-.6-.39.91.91,0,0,0-.7.14.93.93,0,0,0-.25,1.3Z"/></svg>