<svg id="Layer_1" data-name="Layer 1" xmlns="http://www.w3.org/2000/svg" viewBox="0 0 270 270"><defs><style>.cls-1{fill:#efe8f2;}</style></defs><path class="cls-1" d="M62.78,103a.58.58,0,0,0-.81.16l-2.35,3.54a.6.6,0,0,0,.17.82.59.59,0,0,0,.82-.17L63,103.76A.58.58,0,0,0,62.78,103Z"/><path class="cls-1" d="M51.56,92.71a.59.59,0,0,0-.82.17l-2.23,3.37a.58.58,0,0,0,.17.81.59.59,0,0,0,.82-.16l2.23-3.37A.6.6,0,0,0,51.56,92.71Z"/><path class="cls-1" d="M170.94,42.49c-6.39-14.27-27.18-15.21-35.07-1.8l-3.08,5.1a11.84,11.84,0,0,0,1,13.83l28.71,37a9.94,9.94,0,0,0,10.94,3.09,9.79,9.79,0,0,0,6.83-8.87,100.77,100.77,0,0,0-9.32-48.39Zm8.15,48.32c-.22,7.84-10.86,11.24-15.68,5.11l-28.71-37a10.7,10.7,0,0,1-.91-12.48l3.09-5.1a18.65,18.65,0,0,1,17.19-8.95A18.32,18.32,0,0,1,169.87,43,99.66,99.66,0,0,1,179.09,90.81Z"/><path class="cls-1" d="M164.28,118.23,65.14,53.8a.77.77,0,0,0-1.08.23.78.78,0,0,0,.23,1.09l99.14,64.43A.79.79,0,0,0,164.28,118.23Z"/><path class="cls-1" d="M71.07,46.94,96.24,63.29c.62.43,1.29-.58.64-1L71.71,46A.59.59,0,0,0,71.07,46.94Z"/><path class="cls-1" d="M73.51,43.89,98.35,60A.59.59,0,0,0,99,59L74.15,42.9A.59.59,0,0,0,73.51,43.89Z"/><path class="cls-1" d="M76.09,40.93l24.38,15.84a.55.55,0,0,0,.32.1.6.6,0,0,0,.33-1.09L76.74,39.94C76.11,39.52,75.44,40.52,76.09,40.93Z"/><path class="cls-1" d="M78.62,38l23.65,15.37a.55.55,0,0,0,.32.1.6.6,0,0,0,.32-1.09L79.27,37A.59.59,0,0,0,78.62,38Z"/><path class="cls-1" d="M199.17,174.55c4.61-1,8,2.16,12.79,6.52,4,3.71,9.08,8.33,16.43,11.52,7.1,3.08,22.13,7.21,28.14.8,7.26-8.85-1.88-25.85-9.53-39-14.06-22.58-37.74-38.82-59-49.29C223.93,26.83,120.67-42,68.06,31L57.22,47.7a14.82,14.82,0,0,0,4.34,20.48l3.06,2-12,18.06a3.48,3.48,0,0,0-3.25,1.56l-4,6-2.56-1.7a2.77,2.77,0,0,0-3.59.48L14.4,122.93a14.61,14.61,0,0,0,.89,20.1c.24.81,1.27,1.27,1.85,1.71s1.41,1.08,2.22,1c.2.1.42.16.62.24a15,15,0,0,0,4.65,9.77c.25.85,1.32,1.32,1.92,1.78s1.48,1.14,2.33,1.1a15.31,15.31,0,0,0,20-7.26L66.1,115.76a2.86,2.86,0,0,0-1-3.62l-2.71-1.8L66.58,104a3.68,3.68,0,0,0,.16-3.76L80,80.19l75.91,49.33a14.21,14.21,0,0,0,19.64-4.17c2.95-4.75,9.62-14.25,11.9-19.21,21,10.36,44.59,26.5,58.51,48.84,11.35,18.8,14.78,32.15,9.67,37.6s-18.85,2.37-26.8-1.08c-7.17-3.11-12.12-7.65-16.1-11.3-4.82-4.42-8.63-7.92-13.84-6.8a11.82,11.82,0,0,0-8,6.5c-5.45,11.22,12.49,30.19,26.07,36.29,12.63,5.91,31.72,22.47,30.6,44.49-5.45,14.75-25.82,7.41-43.16-6.46l-.15-.08c-7-3.34-17.64-2.12-22.88,1.06a5.66,5.66,0,0,0-6.45-1.83,1.4,1.4,0,0,0-1.69-.39c-.56.27-1.42.54-1.6,1.22-.41.79.89,2.66,1.2,3.53,0,0-2.07.93-2.1.94a.58.58,0,0,0-.29.78.59.59,0,0,0,.78.29l2.06-.93s0,0,.05,0l1.13,2.39-2.89,1.3a.59.59,0,1,0,.48,1.08l2.91-1.31c.53.92,1.15,3.1,2,3.28.64.29,1.39-.2,2-.46h0a1.43,1.43,0,0,0,.75-1.66,5.76,5.76,0,0,0,2.28-7.18c5.33-3.22,17.76-4.71,23.79.6,17.65,13.38,37.3,19.49,42.94,4.16l0-.18c1.18-22.65-18.25-39.57-31.23-45.66a60.91,60.91,0,0,1-13.77-9.39C191.52,194.39,185.08,179.44,199.17,174.55ZM65.61,70.81l.85.56L54.71,89.11a3.21,3.21,0,0,0-.85-.56ZM63.83,98.33A3.66,3.66,0,0,0,60.44,100l-4.19,6.33-1.57-1a2.82,2.82,0,0,0-.79-3.84l-2.56-1.7,4-6a3.46,3.46,0,0,0,.16-3.59L67.45,72l9.66,6.28Zm1.06,1.57a2.16,2.16,0,0,1,.43.37c-.32.37-.78,1.66-1.47,1.19s.31-1.37.53-1.82A2.45,2.45,0,0,1,64.89,99.9ZM54.5,114.3c-2.4,2.08-4.89,4.29-7.38,6.59l7-14.58,2.34,1.55C55.83,110.07,55.17,112.22,54.5,114.3Zm3-5.76,2.11,1.4q-1.66,1.38-3.44,2.9C56.67,111.35,57.11,109.92,57.53,108.54Zm-31.8,37.34a13.51,13.51,0,0,1-3.85-.43c6.45-1.83,12.84-14.14,18-27.32L50.7,105.75a1.75,1.75,0,0,1,2.47-.1l-8.44,17.49C36.68,130.79,29.11,139.09,25.73,145.88Zm17.54-19.72-5.88,12.18a13.33,13.33,0,0,1-10.3,7.43C29.83,140.59,35.3,134,43.27,126.16ZM49.66,100l3.58,2.37a1.61,1.61,0,0,1,.45,2.2,2.89,2.89,0,0,0-3.88.39L41,115c1.37-3.67,2.62-7.36,3.75-10.84Q47.13,102.12,49.66,100Zm-4.21,2c.43-1.37.84-2.69,1.23-4l2,1.29C47.6,100.18,46.54,101.07,45.45,102Zm7.11-11.49.64-1a2.24,2.24,0,0,1,.85.57l-.64,1A.51.51,0,0,1,52.56,90.51Zm-2.17-.07a2.31,2.31,0,0,1,1.47-1,1.74,1.74,0,1,0,2.81,1.87A2.35,2.35,0,0,1,54.32,93l-3.79,5.73-3.93-2.6ZM14.63,140.51a13.4,13.4,0,0,1,.66-16.8L40.17,95.35a1.57,1.57,0,0,1,2-.27l3.44,2.27c-.63,2.1-1.27,4.14-1.9,6.11C30.28,115.12,13.69,131.46,14.63,140.51Zm5.3,4a3.64,3.64,0,0,1-.85-.16,13,13,0,0,1-2.36-1.59c-4.16-6.41,6-19,26.32-37.11-1.4,4.27-2.81,8.22-4.2,11.84L23.7,134.73A15.26,15.26,0,0,0,19.93,144.5Zm4.65-9,13-14.76c-5.91,14.49-11.6,22.77-16.42,23.67A14.1,14.1,0,0,1,24.58,135.51Zm-.64,17.75a13.9,13.9,0,0,1-2.74-6.78,14.54,14.54,0,0,0,4,.59A12.3,12.3,0,0,0,23.94,153.26Zm5.46,4.12a4.89,4.89,0,0,1-.83-.17,13.81,13.81,0,0,1-2.48-1.67c-1.65-2.21-1.26-4.82.38-8.53a14.47,14.47,0,0,0,12-8.15l7.27-15.06c2.48-2.35,5.18-4.79,8.07-7.33C45,143.25,36.22,158.07,29.4,157.38Zm35.05-44.25a1.67,1.67,0,0,1,.59,2.12L47.82,150.9a14.12,14.12,0,0,1-16.4,7.44c9.2-2.44,18.3-25.42,24.1-43.36q2.48-2.15,5.15-4.36Zm1.14-9.76-4,6-4.17-2.76,4-6A2.51,2.51,0,0,1,63,99.53c-2,2.38,1.5,4.72,2.91,1.92A2.5,2.5,0,0,1,65.59,103.37Zm.39-4.1a3.07,3.07,0,0,0-.94-.62L78.1,78.93l.94.62Zm116.38,13.48-7.77,12a13,13,0,0,1-18,3.82L62.2,67.19h0a13.64,13.64,0,0,1-4-18.85L69.05,31.65a66.54,66.54,0,0,1,92-19.51A72.82,72.82,0,0,1,182.36,112.75ZM178.5,264l-.85.4a.28.28,0,0,1-.2,0,.25.25,0,0,1-.15-.13l-4.48-9.48a.28.28,0,0,1,0-.2c0-.17.88-.48,1-.56a.27.27,0,0,1,.35.13l4.48,9.48A.27.27,0,0,1,178.5,264Zm.79-1.71-3.73-7.9A4.4,4.4,0,0,1,179.29,262.29Z"/></svg>