<svg id="Layer_1" data-name="Layer 1" xmlns="http://www.w3.org/2000/svg" viewBox="0 0 270 270"><defs><style>.cls-1{fill:#efe8f2;}</style></defs><path class="cls-1" d="M263.56,128.19c.44-13.36-13-26.4-21.28-29.25C232.77,70.49,203,58.52,184.22,58.51,146.87,26,78.26,50.63,60.54,62.86a18,18,0,0,0-7.46,9.41A17.44,17.44,0,0,0,52.69,82a39.56,39.56,0,0,0-13.94,6.47c-15.93,10.73-34.4,34-26.93,57.06C-2.7,156.81-2.25,186.05,4.66,198.33.92,227.78,40.93,240.59,51,210.23c6.62.22,22.55-6.7,24.73-17.27,14.33,2.77,33.06-1.25,43.45-12.85l0,.1c23.64,4.42,50.26.95,69.62-13.9,13.31,2.69,28.14.29,38.76-8.42,3.42,2.63,12.21,5,17.7,2.44l-.07.07c10.7,9.16,26.93.86,24.65-15A36.2,36.2,0,0,0,263.56,128.19Zm-216.1,83s0,.07,0,.11c-.15.37-.34.77-.53,1.18-.27.6-.58,1.15-.88,1.7a20.77,20.77,0,0,1-7.56,8l-.11.07c-.5.29-1,.55-1.59.8l-.65.29a23.4,23.4,0,0,1-2.37.78,19,19,0,0,1-16.34-3l-.63-.42h0A24.77,24.77,0,0,1,8,207.25a19.61,19.61,0,0,1-.37-8.5A22.6,22.6,0,0,1,21.72,191a24.51,24.51,0,0,1,15.4,2.92c.73.44,1.48.85,2.17,1.36l.36.27c.43.33.84.68,1.25,1a22.34,22.34,0,0,1,7.38,12.21C48.13,209.34,47.85,210.18,47.46,211.17Zm20.61-11.61-.19.21c-.11.11-.24.21-.36.31a27.18,27.18,0,0,1-16.63,7.17,25.06,25.06,0,0,0-8.21-13c-.45-.38-.89-.79-1.36-1.14l-.21-.14a27.38,27.38,0,0,0-20-4.82,25.15,25.15,0,0,0-14.47,7.38c-4.08-8.75-5-20.42-2.39-30.68C8,150,18.89,138.14,37.8,142.13a42.8,42.8,0,0,1,19,10.94l.21.19c7.15,7,12.75,16.65,16,28.09.2.67.32,1.32.45,2C74.72,189.85,72.23,195.44,68.07,199.56Zm40.85-15c-10.13,5.82-24,7.42-32.55,5.49a43.43,43.43,0,0,0-1.8-13.59,58.31,58.31,0,0,0-15.41-25.2l-.56-.55-1.21-1.09a52,52,0,0,0-8.07-5.89c-.32-.18-.64-.38-1-.55s-.88-.47-1.32-.69c-.59-.3-1.18-.59-1.77-.86l-.91-.4c-.69-.29-1.38-.55-2.08-.81-.33-.12-.66-.25-1-.36s-.73-.21-1.09-.33a32.36,32.36,0,0,0-9.72-1.38H30c-.62,0-1.24.07-1.86.14s-1.15.13-1.72.23l-.86.14A29,29,0,0,0,17,142a27.66,27.66,0,0,0-2.59,1.59c-4.51-15.7,3.54-31.05,14-42.16.32-.34.63-.7,1-1l.16-.16c1.76-1.8,3.58-3.49,5.42-5s3.77-3,5.61-4.28a36.7,36.7,0,0,1,13.64-6.2,38.68,38.68,0,0,1,4.9-.76A37.31,37.31,0,0,1,78.4,87.5a71,71,0,0,1,15.34,9.41c.34.27.71.52,1.05.8l.37.34A77.15,77.15,0,0,1,118.5,133a73.72,73.72,0,0,1,3.29,32.11c-.1.75-.15,1.5-.27,2.24C120.68,175.08,115.6,180.73,108.92,184.57Zm73.63-17.28c-.11.06-.21.16-.32.22a88.66,88.66,0,0,1-29.59,10.38c-2.59.42-5.19.72-7.81.92s-5.26.27-7.9.24-5.3-.18-8-.44-5.31-.63-8-1.11a38.58,38.58,0,0,0,3.82-12.42c1.25-8.58.47-18.65-2.22-28.71a86.28,86.28,0,0,0-7-17.89c-.13-.24-.24-.49-.37-.73s-.27-.43-.4-.65a86.07,86.07,0,0,0-13-16.84c-.29-.28-.57-.58-.86-.86s-.82-.77-1.23-1.15a69,69,0,0,0-19.66-13.2l-.45-.23c-.54-.26-1.1-.48-1.64-.71a43.42,43.42,0,0,0-22.54-2.62l.09,0a14.62,14.62,0,0,1,6.48-16C72,59,87.29,52.68,104.24,48.91c26.75-6,57.52-5.51,77.22,11.21,10.66,9.05,18.06,22.87,19.84,43,0,.17,0,.31,0,.47a107.63,107.63,0,0,1-.14,21c-1.06,10.56-3.55,21.05-7.49,29.23C190.79,159.89,187.06,164.68,182.55,167.29Zm46.24-14.6c-.25.25-.52.48-.77.72-.44.42-.87.84-1.32,1.24l-.54.43a39.39,39.39,0,0,1-21,9l-.33,0c-1,.11-1.94.2-2.95.24h-.71c-.89,0-1.78,0-2.69,0l-.35,0c-1,0-2.1-.09-3.18-.2s-2.41-.27-3.65-.47a55.82,55.82,0,0,0,5.42-9.5,93.34,93.34,0,0,0,7.22-26.34,113.12,113.12,0,0,0,.92-13.47c0-.34,0-.67,0-1,0-1.46-.08-2.91-.14-4.36-.08-1.64-.16-3.27-.32-5-.05-.56-.11-1.11-.17-1.67A87.48,87.48,0,0,0,200,83.07c-.43-1.26-.86-2.53-1.37-3.76-.15-.38-.31-.75-.46-1.13a55.44,55.44,0,0,0-10.57-16.45,54.75,54.75,0,0,1,14.84,3,63.85,63.85,0,0,1,24.73,15.39l.7.67c.36.38.69.8,1,1.19a50.54,50.54,0,0,1,10.77,18.55,53.89,53.89,0,0,1,2.72,14.82v.43c0,.85.05,1.71,0,2.56,0,.63-.05,1.26-.08,1.89,0,.36,0,.72,0,1.08a50.61,50.61,0,0,1-9.66,26.91l-.14.19c-.43.58-.89,1.12-1.35,1.67l-.45.56c-.34.38-.7.75-1.05,1.12S229.1,152.38,228.79,152.69Zm12.9,5.45a15,15,0,0,1-11.8-2.29A35.48,35.48,0,0,0,239.13,144a62.69,62.69,0,0,0,6.18-27.59,45.8,45.8,0,0,0-1.86-13.58,26.32,26.32,0,0,1,7.66,5.42,32.91,32.91,0,0,1,9.41,18.13,23.19,23.19,0,0,1-.82,10.38l0,.08c-.09.37-.21.74-.31,1.1a35.83,35.83,0,0,1-4.25,9.43C251.76,152.64,247.08,156.89,241.69,158.14Zm25.21-9.3c-.22,4.41-1.84,8.44-5.81,10.83a6.6,6.6,0,0,1-.7.37,11,11,0,0,1-6.41,1c-2.54-.28-4.86-1.16-5.86-2.11a32.18,32.18,0,0,0,5.59-4.83,40.2,40.2,0,0,0,2.63-3.34c.37-.51.74-1,1.08-1.56.16-.23.33-.45.47-.68.65-1,1.23-2.12,1.78-3.23a3.65,3.65,0,0,0,.18-.34c.34-.7.63-1.43.93-2.15s.52-1.21.73-1.82l.05-.15a39.6,39.6,0,0,0,1.76-7.22,33.08,33.08,0,0,1,3.63,14C267,148,266.92,148.44,266.9,148.84Z"/><path class="cls-1" d="M83,161.72a70,70,0,0,0-5.24-10.42c-7.26-11.81-17.56-20.07-29.42-23.14a1.34,1.34,0,0,0-1.08.15l0,0a1.27,1.27,0,0,0-.13.11,1.62,1.62,0,0,0-.49,1.67,1.35,1.35,0,0,0,1,.94c1,.26,2,.56,3,.91a39.85,39.85,0,0,1,5.77,2.52,48,48,0,0,1,14.93,12.74,59.25,59.25,0,0,1,4,5.78,63.71,63.71,0,0,1,3.45,6.45Q80,162,81,164.7t1.83,5.57a1.51,1.51,0,0,0,.29.58,1.48,1.48,0,0,0,1.54.41,1.4,1.4,0,0,0,1-1.81A77.13,77.13,0,0,0,83,161.72Z"/><path class="cls-1" d="M36.15,179.19a26.5,26.5,0,0,0-22.34,3.33,1.3,1.3,0,0,0-.55.71.3.3,0,0,0,0,.1,1.55,1.55,0,0,0,0,.8,1.76,1.76,0,0,0,.09.2,1.71,1.71,0,0,0,.28.42,1.09,1.09,0,0,0,.24.24,1.29,1.29,0,0,0,.76.26h.05c1-.56,2-1.05,3-1.52a28.49,28.49,0,0,1,9.29-2.6l.52,0c.23,0,.47,0,.7,0a20.38,20.38,0,0,1,7.12,1m0,0h0a15.35,15.35,0,0,1,3.14,1.16,26,26,0,0,1,3.87,2.49,27.9,27.9,0,0,0,3.35,2.24h0c1.7-.59,1.73-1.56.9-2.65-1.09-1.43-3.69-3.07-6.07-4.29a22.37,22.37,0,0,0-4.33-1.8"/><path class="cls-1" d="M111.61,83.86a1.39,1.39,0,0,0-1-.36.34.34,0,0,0-.1,0l-.13,0a1.63,1.63,0,0,0-1.22,1.29,1.3,1.3,0,0,0,.41,1.19s0,.07.07.09l0,0a81.13,81.13,0,0,1,16.69,20.4c.22.38.47.72.68,1.1a82.55,82.55,0,0,1,10.1,33.07,90.5,90.5,0,0,1-.4,19.71h0a1.45,1.45,0,0,0,.36,1.18,1.48,1.48,0,0,0,1.12.51c.06,0,.11-.06.18-.07a1.51,1.51,0,0,0,.77-.29s0,0,.05,0a1.48,1.48,0,0,0,.48-.89c1.76-13.52,1.44-34-10.06-54.62A83.89,83.89,0,0,0,111.61,83.86Z"/><path class="cls-1" d="M90.71,70.14a1.49,1.49,0,0,0-1.29,2.69,91.74,91.74,0,0,1,11.74,6.73,1.52,1.52,0,0,0,.84.25,1.49,1.49,0,0,0,.83-2.72A94.61,94.61,0,0,0,90.71,70.14Z"/></svg>