<svg id="Layer_1" data-name="Layer 1" xmlns="http://www.w3.org/2000/svg" viewBox="0 0 270 270"><defs><style>.cls-1{fill:#efe8f2;}</style></defs><g id="Measuring_Cup" data-name="Measuring Cup"><path class="cls-1" d="M267.85,78.33c-4.75-8.06-19.18-6.3-27.24-6.77,0-.26,5.79-28.61,5.75-28.83a1.73,1.73,0,0,0-.77-1.41A211.91,211.91,0,0,0,185.41,17c-56.49-13.2-106-.16-137.62,13.1-7.4,3.53-31.07,4.21-39.11,5.42a2.84,2.84,0,0,0-1.09.11C.82,35.39-1.68,41.38,1.14,47l35.45,74.1a123.66,123.66,0,0,1,11.73,42A436.88,436.88,0,0,0,61.64,237c7.07,20.26,76.08,25.54,105.58,18.73,6.66-1.3,39.44-8.23,40.09-18.13.1,0,8.78-43.82,8.82-43.88l6.67,0c9.08-.9,16.28-10.31,18.81-17.73l27.87-87.87A11,11,0,0,0,267.85,78.33ZM8.26,38.67c8.5-1.26,33.24-2,40.75-5.72C97.25,10.2,181.1,4.86,241.45,42.53,185,69.42,105.61,83.45,30.75,43.2L8.44,43.11C5.87,43.05,6.91,39.3,8.26,38.67Zm158.35,214c-41.81,7.47-92.56-.59-101.88-16,.28-6.88,36.17-14.29,69.83-14.43,33.6-.38,70.13,8.42,69.68,15C204.41,242.26,185.24,249,166.61,252.65Zm38.48-19.8c-24.27-18-114.42-18.46-141.34-.38a423.61,423.61,0,0,1-12.3-69.65,126.77,126.77,0,0,0-12-43.06L4,45.66C3.23,44,2.6,41.63,3.84,40a4.84,4.84,0,0,0,4.58,6.21l22.32.1c75.14,40.83,155.58,25.82,211.9-1l-5.22,26.09-8.67-.25c-6.64-.84-11.67,8.06-15.57,11.91-2.17,2.4,0,5.94,3.09,5.94l17.47.78-16.83,84c-18-.18-16.06-1.83-25.35,13.65-2.29,2.59.18,6.27,3.46,6.15l17.91.07ZM242.27,90.23c5.67.17,11.36,4.46,9.83,10.17l-21.38,73.53-10.61-.07L236.92,90Zm24.21-3-27.87,87.87c-1.83,5.79-6.16,11-12.28,14.6-1.12,1.86-29.09.47-31.3.81a1.26,1.26,0,0,1-1.18-.56l6.66-10.86a5.29,5.29,0,0,1,4.54-2.16l24.76.16-1.08,3.71c-.77,2.65-3.93,4.45-7.41,4.32a1.65,1.65,0,0,0-1.64,1.5,1.57,1.57,0,0,0,1.5,1.64c5,.2,9.4-2.56,10.57-6.58l23.37-80.38a9.78,9.78,0,0,0-1.55-8.59,14.45,14.45,0,0,0-11.16-5.6l-26-1.16c-.52,0-.86-.26-.87-.72l7.73-8.74a7,7,0,0,1,5.39-2.11l9.59.28a.69.69,0,0,0,.61,0l16,.46C261.62,75.18,268.48,80.39,266.48,87.21Z"/><path class="cls-1" d="M29.8,50.66a1.57,1.57,0,0,0-1.58,1.57l-.14,31.18a1.58,1.58,0,0,0,3.15,0l.13-31.19A1.58,1.58,0,0,0,29.8,50.66Z"/><path class="cls-1" d="M20.74,50.63a1.57,1.57,0,0,0-1.58,1.56L19.1,66.86a1.58,1.58,0,0,0,3.15,0l.06-14.68A1.57,1.57,0,0,0,20.74,50.63Z"/></g><path class="cls-1" d="M150.24,141.13a199.13,199.13,0,0,1-50,2.14c-1.81-.15-2.48,2.72.06,2.91,18.81,1.62,38.18.89,50.57-2C154.38,143.43,152.5,140.7,150.24,141.13Z"/><path class="cls-1" d="M152.29,178a198.1,198.1,0,0,1-50,2.14c-1.82-.14-2.49,2.72,0,2.91,18.82,1.62,38.18.9,50.58-2C156.43,180.26,154.56,177.54,152.29,178Z"/><path class="cls-1" d="M150.24,160.6c-27.34,4.89-58.48,3.13-79.38-3-.68-.17-1.3.35-1.31,1.32a2.08,2.08,0,0,0,1.67,1.94v0c24.7,6.56,60.47,7.23,79.61,2.82C154.38,162.9,152.5,160.18,150.24,160.6Z"/><path class="cls-1" d="M155.23,195.78c-27.81,5-59.57,3.06-80.46-3.3-.68-.17-1.3.37-1.32,1.35a2.08,2.08,0,0,0,1.67,1.93h0c24.72,6.83,61.27,7.59,80.7,3.11C159.38,198.08,157.5,195.36,155.23,195.78Z"/></svg>