<svg id="Layer_1" data-name="Layer 1" xmlns="http://www.w3.org/2000/svg" viewBox="0 0 270 270"><defs><style>.cls-1{fill:#efe8f2;}</style></defs><line class="cls-1" x1="151.61" y1="146.9" x2="151.61" y2="146.9"/><path class="cls-1" d="M151.69,146.54h0m-10.76,49.59c-.14.38-.36.7-.84.69C140.57,196.83,140.79,196.51,140.93,196.13Zm10.76-49.59c.15-.11,3-126.7,3-126.88-.78-26.12-38.47-26.25-39.44-.15.1.3,1.61,126.7,1.9,126.92a.71.71,0,0,0,.07.32c0,.06,10.32,23.11,10.38,23.14a65,65,0,0,0-.14,26.17h0c-1.54,10.17-1.16,24-1.09,36.26.09,10.18-.5,21.46.82,30.71a7,7,0,0,0,6.9,7h0c3.21,0,6.19-2.88,6.95-6.78,1.24-8.9.93-19.73,1.15-29.47.13-14.54.94-27.14-1.12-38.32a56,56,0,0,0-.07-25.49s.29-.61.76-1.62l-.72,1.57.72-1.57c1.35-2.93,4.25-9.27,6.56-14.3l3.26-7.12.08-.36h0m-1.69-.32-10.28,22.43-10.76,0S118.86,146,118.82,146L117,19.5c.9-23.79,35.23-23.63,35.94.14l-3,126.58m-10.43,24.93a55.93,55.93,0,0,1-.17,23.92l-10.33,0a65.42,65.42,0,0,1,0-23.92ZM127.63,195.6a.82.82,0,0,1,.75-.47A.82.82,0,0,0,127.63,195.6Zm.27,1a.6.6,0,0,1-.13-.09A1,1,0,0,0,127.9,196.61Zm6.23,71.64a5.23,5.23,0,0,1-5.17-5.33c-1.31-9.27-.72-20.45-.81-30.6-.07-11.92-.44-25.5,1-35.44l10.58,0c1.31,10.76,1.05,22.85.76,36.79-.23,9.63.08,20.51-1.13,29.22C138.75,266,136.51,268.26,134.13,268.25Z"/><path class="cls-1" d="M144.61,146a.86.86,0,0,0-.87-.87l-19.86-.09a.88.88,0,0,0,0,1.75l19.86.08A.87.87,0,0,0,144.61,146Z"/><path class="cls-1" d="M142.14,150.1l-6.75,14.72a.87.87,0,1,0,1.59.73l6.74-14.73a.87.87,0,1,0-1.58-.72Z"/><path class="cls-1" d="M138.47,149.65a.85.85,0,0,0-1.15.43l-6.75,14.72A.87.87,0,0,0,131,166a.86.86,0,0,0,1.15-.43l6.75-14.73A.86.86,0,0,0,138.47,149.65Z"/><path class="cls-1" d="M133.65,149.63a.85.85,0,0,0-1.15.43L128,159.89a.87.87,0,0,0,1.59.73l4.5-9.84A.86.86,0,0,0,133.65,149.63Z"/><path class="cls-1" d="M128.83,149.61a.87.87,0,0,0-1.16.42l-2.13,4.65a.87.87,0,0,0,1.59.73l2.13-4.65A.86.86,0,0,0,128.83,149.61Z"/></svg>