<svg id="Layer_1" data-name="Layer 1" xmlns="http://www.w3.org/2000/svg" viewBox="0 0 270 270"><defs><style>.cls-1{fill:#efe8f2;}</style></defs><g id="Slate"><path class="cls-1" d="M227.08,242.45l-182.51,1.4a.7.7,0,1,0,0,1.39l182.5-1.4a.7.7,0,0,0,0-1.39Z"/><path class="cls-1" d="M45.86,107.92a2.77,2.77,0,0,0,0,5.54A2.77,2.77,0,0,0,45.86,107.92Zm0,4.16a1.39,1.39,0,0,1,0-2.78A1.39,1.39,0,0,1,45.87,112.08Z"/><path class="cls-1" d="M69.75,129.5a2.77,2.77,0,0,0,0,5.54A2.77,2.77,0,0,0,69.75,129.5Zm1.4,2.77a1.39,1.39,0,0,1-2.78,0A1.39,1.39,0,0,1,71.15,132.27Z"/><path class="cls-1" d="M236.65,254.53l-.26-111.33a4.67,4.67,0,0,0-.73-2.49,2.71,2.71,0,0,0,1-2.08l.16-13.79a2.56,2.56,0,0,0-2.51-2.56l-164.35-1.8L62,113.16c.24-.3,139.08-96.75,139.15-97.17,0,0,1.66-3.93,1.65-3.94,1.46-2.7-5.64-7.92-6.89-9.09-1.88-2.06-6.73-2.63-9-1.07L36.71,106a5.55,5.55,0,0,0-2.08,7.27l2.11,4.27-.12,2.64a2.1,2.1,0,0,0-1.95,2l-.55,14.46a2.72,2.72,0,0,0,1.05,2.26,5.32,5.32,0,0,0-.39,1.74l-3,114a14.38,14.38,0,0,0,4.12,10.49,17.39,17.39,0,0,0,12.52,5s172.6.07,172.61.09A15.71,15.71,0,0,0,236.65,254.53ZM82.3,138.52l12.63-16.39,15.51.18L98,138.71C94.25,138.67,85.94,138.59,82.3,138.52Zm46.05-16-12.53,16.38-16.13-.16,12.48-16.4Zm35.26.39-12.49,16.33L135,139.07l12.35-16.36Zm34.67.38-12.47,16.29-15.56-.15,12.31-16.31Zm11.62.13,5.63.06-12.29,16.27-15.7-.15L200,123.29Zm23.19.25L220.58,139.9,205,139.75l12.28-16.27Zm2.15,15a1.5,1.5,0,0,1-.67,1.15c-.28-.06-.54.17-.77.27l-11.49-.11,12.4-16.11a1.1,1.1,0,0,1,.69,1Zm-66.7.78-15.7-.15,12.49-16.33,15.52.17Zm-35.3-.34-15.69-.15,12.52-16.38,15.51.18Zm-91.47-5.33a1.39,1.39,0,0,1,0-2.77A1.39,1.39,0,0,1,41.77,133.72Zm31.57-6.82c0,2.68-.06,5.92-.07,8.71L42.37,135A2.76,2.76,0,1,0,41,135a3.93,3.93,0,0,1-3.43-4.08l1-22.23a2.91,2.91,0,0,1,2.92-2.8l9.6.06a2.89,2.89,0,0,1,2,.77l19.53,18.09A2.56,2.56,0,0,1,73.34,126.9ZM61,112.19l-1.08-1L200.65,13.71,200,15.27ZM187.7,3c1.75-1.19,6-.68,7.33,1,2.79,2.21,6.69,5.9,6.6,7.35C167.07,35.2,123.28,65.49,58.86,110.22L54,105.68a4.37,4.37,0,0,0-2.89-1.15l-9.6,0h-.21ZM35.86,112.61a4.17,4.17,0,0,1,1.63-5.51c-.55,1-.49,6.42-.62,7.55Zm-.36,24.06.55-14.45a.71.71,0,0,1,.51-.67l-.43,9.28a5.38,5.38,0,0,0,5.5,5.57c1.77,0,25.48.62,32.31.61a.69.69,0,0,0,.69-.61c.06-.06.07-9.67.1-9.74.18-2-2-3.56-3.29-4.79l21.76.24L80.55,138.54l-43.68-.43c-.25-.09-.54-.37-.85-.32A1.27,1.27,0,0,1,35.5,136.67Zm195.61,128a14.17,14.17,0,0,1-10,4.18s-172.6-.11-172.61-.1c-8.06.17-15.6-5.82-15.25-14.05l3-114a3.56,3.56,0,0,1,.23-1.22c6.81.16,56.59.61,62.05.65l135.34,1.32h0a2.65,2.65,0,0,0,.63-.07,3.36,3.36,0,0,1,.59,1.86l.26,111.34A14.18,14.18,0,0,1,231.11,264.65Z"/><path class="cls-1" d="M134.09,205.15a.65.65,0,0,0,.44-.16l91.81-.37a.7.7,0,0,0,0-1.39l-91.5.38,1.47-40.6,89.61-.22a.69.69,0,0,0,0-1.38l-90.24.21h0l-90.31.22a.69.69,0,0,0,0,1.38l89.56-.21-1.47,40.61L44.81,204a.69.69,0,0,0,0,1.38L133.7,205A.74.74,0,0,0,134.09,205.15Z"/><path class="cls-1" d="M48.64,192.42a.7.7,0,0,0,.83.52l30.31-7.21a.69.69,0,0,0-.31-1.34L49.16,191.6A.68.68,0,0,0,48.64,192.42Z"/><path class="cls-1" d="M82.46,180.31l-30.3,7.21a.69.69,0,0,0,.31,1.34l30.3-7.21A.69.69,0,0,0,82.46,180.31Z"/><path class="cls-1" d="M55.34,193.86a.69.69,0,0,0,.83.52l30.31-7.21a.69.69,0,0,0-.31-1.35L55.86,193A.69.69,0,0,0,55.34,193.86Z"/><path class="cls-1" d="M144.69,191.39a.69.69,0,0,0,.83.52l30.32-7.21a.69.69,0,0,0-.32-1.35l-30.31,7.21A.69.69,0,0,0,144.69,191.39Z"/><path class="cls-1" d="M148.36,187.85c.1,0,30.35-7.22,30.47-7.23a.69.69,0,0,0-.31-1.35l-30.32,7.21A.7.7,0,0,0,148.36,187.85Z"/><path class="cls-1" d="M152.06,193.36c.1,0,30.35-7.22,30.46-7.23a.69.69,0,0,0-.31-1.34L151.9,192A.69.69,0,0,0,152.06,193.36Z"/></g></svg>