<svg id="Layer_1" data-name="Layer 1" xmlns="http://www.w3.org/2000/svg" viewBox="0 0 270 270"><defs><style>.cls-1{fill:#efe8f2;}</style></defs><g id="Coffee_Cup" data-name="Coffee Cup"><path class="cls-1" d="M225.5,39.74l-.61-7.48a.38.38,0,0,0,0-.1s0,0,0-.06h0c.07-2.51-2.46-4.63-7.93-6.6-.79-.28-1.63-.56-2.54-.84v0h0L210.64,9.35a1,1,0,0,0-.8-.75v0h0C208.53,2.94,170.79,0,134.2,0,98.91,0,60.7,2.79,60,8.94c0,0,0,0-.07.07V9a1,1,0,0,0-.19.34L55.2,24.53c-5.43,1.63-8.69,3.36-10,5.31a3.68,3.68,0,0,0-.72,2.39s0,0,0,0h0l0,0a.14.14,0,0,0,0-.06c-.25.26-.23,4.16-.18,8.49,0,1.42,0,2.64,0,2.74a4,4,0,0,0,3,3.92c2.79.73,5.8,1.45,8.94,2.14l1,.24c0,.2.51,4.58,3.41,27.3.86,6.76,1.54,12.1,1.54,12.21h0v0a1.16,1.16,0,0,0,.12.92h0c.24.4,3.32,25.45,6.9,54.47,6,48.91,13.52,109.79,14.33,110.1C98.37,264.59,117,270,136,270a89.71,89.71,0,0,0,50.79-15.23c.78-.19,8.52-62.29,17.78-137.29C209,81.82,212.8,51,213.1,49.68h0c4.11-1.22,7.87-2.51,11.17-3.82a2.45,2.45,0,0,0,1.52-2.5ZM134.91,2.33c44.25,0,71.07,4,72.69,6.72-3.29,4.5-39.95,6.54-72.62,6.54-32.95,0-69.78-2-72.79-6.44C63.42,6.36,90,2.33,134.91,2.33Zm-73.42,9c9.74,4.72,44.11,6.84,73.88,6.84,27.63,0,63.38-1.86,73.35-7.13l4.76,19.19a326,326,0,0,1-81.33,10.26,328.06,328.06,0,0,1-76.64-9ZM47,31.89a1.16,1.16,0,0,1,0-.18,1.79,1.79,0,0,1,.23-.54l.1-.15c.88-1.29,3.24-2.59,7.09-3.88L53,31.93a1.14,1.14,0,0,0,.13.91c22,6.34,47.84,9.6,79,10h0a329.42,329.42,0,0,0,83-10.63,1.14,1.14,0,0,0,.82-1.37l-.9-3.6c3.77,1.27,6.09,2.55,6.94,3.83l.1.15a2.5,2.5,0,0,1,.23.54c0,.05,0,.1,0,.15a1.7,1.7,0,0,1,0,.55,2.5,2.5,0,0,1-.67,1.24s0,0-.07.08a6.45,6.45,0,0,1-.6.53l-.22.16A8.57,8.57,0,0,1,220,35l-.28.15a22.5,22.5,0,0,1-3.57,1.54l-.46.17-1.38.44-.57.17-1.6.45-.29.07c-15.79,4.13-46.82,6.83-75,6.83h-4.41c-28.17,0-59.15-2.7-75-6.81l-.4-.11c-.54-.14-1.06-.29-1.57-.44l-.6-.18c-.47-.14-.93-.28-1.36-.43l-.47-.17c-.92-.32-1.77-.66-2.5-1l-.09,0c-.33-.15-.61-.31-.9-.47l-.36-.2c-.27-.16-.51-.31-.73-.47l-.25-.2a6,6,0,0,1-.58-.51l-.05-.07a2.53,2.53,0,0,1-.68-1.24A2.44,2.44,0,0,1,47,31.89ZM185.13,253.13a86.83,86.83,0,0,1-49,14.57h0c-18.47,0-37.07-5.31-51-14.55L79.31,208.9h.21v0a210.69,210.69,0,0,0,51.5,6.37,210.09,210.09,0,0,0,60-8.7Zm6.21-48.89h0v0a212.5,212.5,0,0,1-60,8.84H131a211.69,211.69,0,0,1-51.75-6.46v0L64.66,91.22a231.29,231.29,0,0,0,66.1,9.63A232.89,232.89,0,0,0,206,88.38Zm15-118.33h0v0a232.44,232.44,0,0,1-75.5,12.68c-3.5,0-7-.08-10.56-.25a233.08,233.08,0,0,1-55.87-9.52v0h0L59.48,50.31c21.49,5.17,52.85,8.38,81.86,8.38,19.61,0,47.56-1.44,69.43-8.33Zm5-37.81Zm.91-.26Zm1.54-.49c-.51.17-1,.32-1.56.48l-.18,0h0a.91.91,0,0,0-.65.28s0,0,0,0c-18.28,5.4-42.68,8.26-70.56,8.26-33.62,0-69.25-4.28-93-11.16a1.76,1.76,0,0,1-1.29-1.72l0-8C56.78,43.42,98.17,47,134.66,47c14.12,0,29-.54,42.46-1.66l.32,0,2.66-.24,1-.09,2-.19,1.4-.14,1.61-.18,1.59-.17,1.44-.17,1.53-.19,1.49-.19,1.36-.18,1.57-.22,1.16-.17,1.73-.26.84-.14,1.95-.32.52-.09,2.15-.4.21,0c8.93-1.71,15.77-3.87,19.18-6.53l.6,8.35C220.5,45,217.23,46.21,213.78,47.35Z"/><path class="cls-1" d="M145.05,126.18a16.62,16.62,0,0,0-13.92,7.37,17.7,17.7,0,0,0-2.94-3.25,16.16,16.16,0,0,0-10.62-4.2,17.63,17.63,0,0,0-5.52.94,13.83,13.83,0,0,0-8.93,8.25,23.36,23.36,0,0,0,1.13,18.87c3.82,6.45,10.16,11.77,16.3,16.91a124.55,124.55,0,0,1,9.78,8.79l1,.51h0c3.64-3.46,7.58-6.9,11.39-10.24,1.62-1.41,3.23-2.82,4.81-4.23,4.77-4.13,9.88-9.09,11.61-14.47,2.12-6.46,2.45-15.25-2.95-20.56A15,15,0,0,0,145.05,126.18ZM157,150.68c-1.69,5.09-6.34,9.47-11,13.51-1.6,1.43-3.24,2.86-4.89,4.3-3.36,2.94-6.84,6-10,9-2.95-2.86-6.29-5.74-9.51-8.53-3.61-3.12-7.34-6.35-10.69-9.67a22.57,22.57,0,0,1-6.73-20,12.78,12.78,0,0,1,8.57-10.08,13.46,13.46,0,0,1,4.59-.81c5.09,0,9.85,2.88,12.77,7.72l1,1.48c2.88-5.6,8.36-9.21,13.95-9.21a13.33,13.33,0,0,1,9.49,4.06C160.4,138.22,157.9,147.86,157,150.68Z"/></g></svg>