<svg id="Layer_1" data-name="Layer 1" xmlns="http://www.w3.org/2000/svg" viewBox="0 0 270 270"><defs><style>.cls-1{fill:#efe8f2;}</style></defs><path class="cls-1" d="M81.33,153.93c4.8-8.62,0-16.5-13.32-14.27,3.14-7.48-4.22-14.07-12.56-11.81-19.49,2.27-25.83,21-25.81,30.26a.51.51,0,0,0,.41.51c.91.18,2.3.45,4,.75l.79.13C46,161.28,74.36,165.35,81.33,153.93Zm-17.59,6.54c-9.91.78-21.59-.76-28.56-1.94,1.36-5,7.28-8.63,14.15-8.63,7.66,0,14,4.48,14.43,10.19A1.56,1.56,0,0,1,63.74,160.47Zm.89-.08c.28-6.4-7.16-11.51-15.3-11.5-7.37,0-13.71,4-15.15,9.47-1.43-.25-2.64-.48-3.51-.65.2-9.72,6.71-26.74,25-28.87,8.58-2.18,14.56,4.67,11.06,11.28a.5.5,0,0,0,.56.72c12.41-2.49,17.93,4,13.18,12.59C78,157.75,71.83,159.71,64.63,160.39Z"/><path class="cls-1" d="M76.77,134.07A134.64,134.64,0,0,0,102.28,137c9.42,0,18.47-1.69,21.64-7.49.13-.24,3.21-6,.62-10.17-2.06-3.35-7-4.74-12.84-3.65,2.56-6.41-2.64-12.87-10.28-11.71-5.5.56-10.23.24-16.39,4.76-7.11,5.37-10.51,15.15-8.65,24.92A.5.5,0,0,0,76.77,134.07Zm2.75-.48c3.63-12.33,27.63-10.88,28.65,2.2C98,136.72,85.57,134.74,79.52,133.59Zm6.12-24c6-4.38,10.55-4,15.9-4.56,3.79-.61,7.59,1,9.08,4.1s.09,6.43-.21,7.07a.5.5,0,0,0,.56.71c11.89-2.47,16.22,4.3,12.06,12.15-2.21,4.05-7.57,6-13.92,6.66-.13-6.33-6.93-11.44-15.14-11.64-7.45-.18-14,3.81-15.44,9.34l-1.22-.24C75.67,123.86,78.92,114.63,85.64,109.56Z"/><path class="cls-1" d="M118.53,111.37a130.36,130.36,0,0,0,24.67,2.82c9.12,0,17.88-1.62,21-7.2.13-.23,3.12-5.75.6-9.79-2-3.21-6.8-4.55-12.41-3.52,2.5-6.16-2.67-12.39-10-11.24-5.31.53-9.89.23-15.84,4.57-6.89,5.16-10.18,14.57-8.38,24A.49.49,0,0,0,118.53,111.37Zm3.71-.31c3.39-11.08,25.88-9.9,26.94,1.89C139.81,113.86,128.44,112.2,122.24,111.06Zm4.88-23.24c5.92-4.3,10.39-3.8,15.77-4.42,7.43-.76,10.8,5.68,8.16,10.75a.51.51,0,0,0,.57.71c11.39-2.37,15.71,4.06,11.64,11.64-2.09,3.81-7.11,5.64-13.07,6.35h0c-.33-5.75-6.65-10.37-14.39-10.53-7.07-.14-13.17,3.5-14.55,8.56l-2.17-.43C117.49,101.54,120.63,92.69,127.12,87.82Z"/><path class="cls-1" d="M158.21,90a123.78,123.78,0,0,0,23.23,2.64c8.6,0,16.86-1.52,19.75-6.76.12-.22,2.95-5.42.57-9.22-1.88-3-6.4-4.27-11.66-3.32,2.32-5.82-2.61-11.61-9.46-10.53-5,.5-9.31.22-14.92,4.29-6.49,4.85-9.59,13.68-7.9,22.5A.5.5,0,0,0,158.21,90Zm4.87-.11c3.18-10,22.68-9.14,24.08,1.52C179,92.23,169.15,91,163.08,89.91Zm3.25-22c5.56-4,9.77-3.57,14.82-4.15,6.95-.72,10.14,5.28,7.66,10a.51.51,0,0,0,.57.72c10.66-2.21,14.75,3.74,10.93,10.87-2,3.59-6.77,5.31-12.45,6,.28-5.31-6.05-9.52-13-9.52-6.26,0-11.66,3.36-12.83,7.89-1.38-.24-2.52-.47-3.33-.64C157.27,80.77,160.22,72.49,166.33,67.94Z"/><path class="cls-1" d="M108.59,174.21a.5.5,0,0,0-.5.51V187.6a.5.5,0,0,0,.5.51.51.51,0,0,0,.51-.51V174.72A.51.51,0,0,0,108.59,174.21Z"/><path class="cls-1" d="M112.08,173.28a.5.5,0,0,0-.51.5v12.89a.51.51,0,0,0,.51.51.5.5,0,0,0,.5-.51V173.78A.5.5,0,0,0,112.08,173.28Z"/><path class="cls-1" d="M115.56,175.18a.51.51,0,0,0-.51.51v9.2a.5.5,0,0,0,.51.5.5.5,0,0,0,.5-.5v-9.2A.5.5,0,0,0,115.56,175.18Z"/><path class="cls-1" d="M153.28,149.56a.51.51,0,0,0-.51.51v11.47a.51.51,0,0,0,1,0V150.07A.51.51,0,0,0,153.28,149.56Z"/><path class="cls-1" d="M156.76,148.73a.51.51,0,0,0-.51.51V160.7a.51.51,0,1,0,1,0V149.24A.51.51,0,0,0,156.76,148.73Z"/><path class="cls-1" d="M160.24,150.43a.5.5,0,0,0-.51.5v8.19a.51.51,0,0,0,1,0v-8.19A.5.5,0,0,0,160.24,150.43Z"/><path class="cls-1" d="M194.59,127.81a.51.51,0,0,0-.51.51v10.23a.51.51,0,0,0,.51.51.5.5,0,0,0,.5-.51V128.32A.5.5,0,0,0,194.59,127.81Z"/><path class="cls-1" d="M197.79,127.07a.51.51,0,0,0-.51.5v10.24a.51.51,0,1,0,1,0V127.57A.51.51,0,0,0,197.79,127.07Z"/><path class="cls-1" d="M201,128.58a.51.51,0,0,0-.51.51v7.3a.51.51,0,0,0,1,0v-7.3A.51.51,0,0,0,201,128.58Z"/><path class="cls-1" d="M233.54,106.8a.51.51,0,0,0-.51.51v9.35a.51.51,0,0,0,.51.51.5.5,0,0,0,.5-.51v-9.35A.5.5,0,0,0,233.54,106.8Z"/><path class="cls-1" d="M236.46,106.13a.5.5,0,0,0-.5.5V116a.5.5,0,0,0,.5.5.5.5,0,0,0,.51-.5v-9.36A.5.5,0,0,0,236.46,106.13Z"/><path class="cls-1" d="M239.39,107.51a.51.51,0,0,0-.51.51v6.67a.51.51,0,0,0,1,0V108A.51.51,0,0,0,239.39,107.51Z"/><path class="cls-1" d="M70.35,142.8a.51.51,0,0,0-.51.51v12.88a.51.51,0,1,0,1,0V143.31A.51.51,0,0,0,70.35,142.8Z"/><path class="cls-1" d="M73.83,141.87a.5.5,0,0,0-.51.5v12.89a.51.51,0,0,0,1,0V142.37A.5.5,0,0,0,73.83,141.87Z"/><path class="cls-1" d="M77.31,143.77a.51.51,0,0,0-.51.51v9.2a.51.51,0,0,0,1,0v-9.2A.51.51,0,0,0,77.31,143.77Z"/><path class="cls-1" d="M112.91,131.41a.51.51,0,0,0,.51-.51V119.43a.5.5,0,0,0-.51-.5.5.5,0,0,0-.5.5V130.9A.5.5,0,0,0,112.91,131.41Z"/><path class="cls-1" d="M116.39,130.58a.51.51,0,0,0,.51-.51V118.6a.5.5,0,0,0-.51-.5.5.5,0,0,0-.5.5v11.47A.5.5,0,0,0,116.39,130.58Z"/><path class="cls-1" d="M119.87,129a.51.51,0,0,0,.51-.51V120.3a.51.51,0,0,0-.51-.51.5.5,0,0,0-.5.51v8.18A.5.5,0,0,0,119.87,129Z"/><path class="cls-1" d="M154.17,108.58a.5.5,0,0,0,.51-.5l.13-10.24a.5.5,0,0,0-.5-.51.46.46,0,0,0-.51.5l-.13,10.23A.52.52,0,0,0,154.17,108.58Z"/><path class="cls-1" d="M157.38,107.88a.51.51,0,0,0,.51-.51L158,97.14a.51.51,0,1,0-1,0l-.13,10.23A.52.52,0,0,0,157.38,107.88Z"/><path class="cls-1" d="M160.6,106.5a.5.5,0,0,0,.51-.5l.09-7.31a.5.5,0,0,0-.5-.51c-.28-.06-.51.22-.51.5L160.1,106A.5.5,0,0,0,160.6,106.5Z"/><path class="cls-1" d="M191,88a.5.5,0,0,0,.5-.5V78.18a.5.5,0,0,0-.5-.51.51.51,0,0,0-.51.51v9.35A.5.5,0,0,0,191,88Z"/><path class="cls-1" d="M193.88,87.36a.51.51,0,0,0,.51-.51V77.5a.51.51,0,1,0-1,0v9.35A.51.51,0,0,0,193.88,87.36Z"/><path class="cls-1" d="M196.81,86.06a.5.5,0,0,0,.5-.5V78.88a.5.5,0,0,0-.5-.51.51.51,0,0,0-.51.51v6.68A.5.5,0,0,0,196.81,86.06Z"/><path class="cls-1" d="M267.23,108.54l-83.69-57a6.34,6.34,0,0,0-6.43-.42L4.73,138.07a6.47,6.47,0,0,0-1.41,10.49L80,217.89a6.39,6.39,0,0,0,7.41.85l6.46-3.57,1.37-.76,1.53-.85c15.58.1,26.33-2.73,26.82-14.84l8.24-4.57,8.48-4.69c15.48.28,26.53-2.82,26.87-14.88l12.82-7.1,4-2.2c14.31.17,24.33-2.54,24.73-13.69l16.67-9.23c.24.26.64.14,1,.17,14.52-.27,23.48-2.82,23.89-13.93l10.87-6,5.64-3.12A6.46,6.46,0,0,0,267.23,108.54Zm-146.39,96.6c-2.79,4.84-10.31,7.34-22.35,7.46l1.16-.64,3.13-1.74,19.78-10.94A14.36,14.36,0,0,1,120.84,205.14Zm43.59-24.07c-2.8,4.86-10.36,7.36-22.47,7.46l24.19-13.39A14.18,14.18,0,0,1,164.43,181.07Zm41.69-23.58c-2.55,4.43-9.43,6.72-20.44,6.84l14.08-7.79,7.92-4.39A13.26,13.26,0,0,1,206.12,157.49Zm41.52-22.83c-2.57,4.47-9.55,6.77-20.73,6.84l19.15-10.6,3.15-1.74A13,13,0,0,1,247.64,134.66Zm18.59-16.09L260,122h0L98.33,211.53,86.9,217.86a5.4,5.4,0,0,1-6.24-.72L4,147.81A5.43,5.43,0,0,1,5.19,139L177.56,52a5.36,5.36,0,0,1,5.41.35l83.69,57A5.44,5.44,0,0,1,266.23,118.57Z"/><path class="cls-1" d="M231.6,102.16c2.34-5.77-2.36-11.75-9.31-10.9-1.11.14-2.2.28-3.28.31-13.51,0-23.54,12.89-20.63,27.32a.5.5,0,0,0,.39.4A127.28,127.28,0,0,0,222.7,122c8.86,0,17.36-1.57,20.34-7,.13-.23,3-5.59.59-9.49C241.7,102.47,237,101.18,231.6,102.16Zm-26,17.34c2.21-10.23,22.84-9.83,24,.71l0,.46C221.72,121.62,212.11,120.55,205.55,119.5Zm36.61-4.93c-1.9,3.43-6.27,5.19-11.55,6l-.05-.4c-1.34-11.75-23.54-12.19-26-.79h0c-2.24-.37-4.07-.73-5.23-1-1.53-8.59,1.52-17.13,7.81-21.83,5.74-4.16,10.08-3.67,15.29-4.27,7.17-.74,10.47,5.46,7.9,10.36a.52.52,0,0,0,.57.72C241.88,101.07,246.1,107.2,242.16,114.57Z"/><path class="cls-1" d="M192.7,123.1c2.51-6.09-2.43-12.56-9.84-11.63-1.18.14-2.34.29-3.49.32-14.37,0-25,13.77-21.88,29.11a.52.52,0,0,0,.39.4c7.45,1.7,41,7.41,47-4.51C209.1,129,205.28,121,192.7,123.1ZM164,141.41c2.8-11,25-10.48,26.3,1l.06.44C181.56,143.88,170.85,142.56,164,141.41Zm40-5.11c-2.06,3.76-6.88,5.64-12.67,6.44l0-.39C189.84,129.66,166,129,163,141.24c-1.93-.34-3.5-.65-4.55-.87-2.75-14.62,7.33-27.59,21-27.56,1.21,0,2.4-.2,3.58-.34,3.72-.44,7.19,1.21,8.64,4.11,1.54,3.08.09,6.36-.22,7a.52.52,0,0,0,.57.72C203.72,121.84,208.17,128.47,204,136.3Z"/><path class="cls-1" d="M150.81,145.79c2.59-6.35-2.38-13-10.14-12.12-1.22.15-2.41.31-3.61.34-14.9,0-25.78,14.37-22.6,30.27a.53.53,0,0,0,.39.41c7.71,1.77,42.34,7.71,48.57-4.68C167.77,151.92,163.88,143.54,150.81,145.79ZM120,164.64a2,2,0,0,1-.19.57.46.46,0,0,1-.5.22.46.46,0,0,0,.5-.22,2,2,0,0,0,.19-.57c3.17-12.38,27.23-11.67,28.65,1.24l.08.44C139.06,167.5,127.07,165.89,120,164.64Zm42.56-5.12c-2.11,3.86-7,5.82-12.89,6.67v-.39c-1.6-14.11-27.22-14.88-30.67-1.34-1.48-.27-2.71-.51-3.57-.7-1.71-9.57,1.64-19.09,8.58-24.33,6.14-4.51,10.88-4.12,16.39-4.7,8.1-1.13,12.07,5.86,9.15,11.53a.51.51,0,0,0,.57.72C162.35,144.41,166.84,151.43,162.53,159.52Z"/><path class="cls-1" d="M105.8,170.48c3.26-7.69-4.31-14.51-12.91-12.17-20.15,2.4-26.57,21.53-26.59,31.16a.52.52,0,0,0,.41.51c1.67.34,4.47.87,7.93,1.4l.55.08c12.1,2.06,39.28,4,44.34-6.3.15-.26,3.61-6.37.71-10.83C117.93,170.77,112.32,169.3,105.8,170.48Zm-30.29,20c1.28-5,7.24-8.78,14.18-8.78,7.55,0,13.81,4.35,14.4,10C94.85,192.82,83.48,191.67,75.51,190.48Zm43.14-5.82c-2.24,3.9-7.35,5.94-13.56,6.85-1.92-13.79-27.06-14.45-30.59-1.18-3.11-.48-5.62-1-7.17-1.26.19-10,6.9-27.57,25.76-29.77,8.85-2.25,15,4.83,11.4,11.64a.51.51,0,0,0,.56.73C117.86,169.09,123.55,175.79,118.65,184.66Z"/></svg>