<svg id="Layer_1" data-name="Layer 1" xmlns="http://www.w3.org/2000/svg" viewBox="0 0 490 125"><defs><style>.cls-1{fill:#ed6970;}.cls-2{fill:#f2a8ca;}</style></defs><path class="cls-1" d="M45.64,41.12c0,12.76-9.38,22.61-20.81,22.61-6.23,0-10.75-2.31-13.83-6.25V79.66H0v-60H11v5.05c3.08-3.93,7.6-6.25,13.83-6.25C36.26,18.5,45.64,28.35,45.64,41.12Zm-11,0c0-7.2-5-12.08-11.86-12.08S11,33.92,11,41.12s5,12.07,11.78,12.07S34.64,48.31,34.64,41.12Z"/><path class="cls-1" d="M52.12,7.79a6.79,6.79,0,1,1,13.57,0,6.79,6.79,0,0,1-13.57,0ZM53.4,19.7h11V62.53h-11Z"/><path class="cls-1" d="M101.09,62.53l-9.22-13-9.29,13H69.86L85.48,40.69l-14.93-21H83.26l8.61,12.08,8.62-12.08h12.63L98.19,40.6,113.8,62.53Z"/><path class="cls-1" d="M139.73,53.71a11.82,11.82,0,0,0,9.56-4.28l8.87,5.13c-4,5.83-10.41,9.17-18.6,9.17-14.33,0-23.37-9.85-23.37-22.61s9.13-22.62,22.52-22.62c12.63,0,21.58,10,21.58,22.62a26.32,26.32,0,0,1-.42,4.54H127.7C129.24,51.31,133.93,53.71,139.73,53.71Zm9.56-16.62c-1.37-6.17-6-8.65-10.58-8.65-5.89,0-9.9,3.17-11.18,8.65Z"/><path class="cls-1" d="M170.1,0h11V62.53h-11Z"/><path class="cls-1" d="M262.41,41.12c0,12.76-9.39,22.61-20.82,22.61-6.23,0-10.75-2.31-13.82-6.25v5.05h-11v-60h11V24.75c3.07-3.93,7.59-6.25,13.82-6.25C253,18.5,262.41,28.35,262.41,41.12Zm-11,0c0-7.2-5-12.08-11.86-12.08s-11.77,4.88-11.77,12.08,5,12.07,11.77,12.07S251.4,48.31,251.4,41.12Z"/><path class="cls-1" d="M313.59,19.7V62.53h-11V57.48c-3.07,3.85-7.67,6.25-13.9,6.25-11.35,0-20.73-9.85-20.73-22.61s9.38-22.62,20.73-22.62c6.23,0,10.83,2.4,13.9,6.25V19.7Zm-11,21.42c0-7.2-5-12.08-11.86-12.08S279,33.92,279,41.12s5,12.07,11.77,12.07S302.58,48.31,302.58,41.12Z"/><path class="cls-1" d="M350.1,62.53,334.57,43.09V62.53h-11v-60h11v36L349.24,19.7h13.14L345.24,40.86l17.65,21.67Z"/><path class="cls-1" d="M388.74,53.71a11.82,11.82,0,0,0,9.56-4.28l8.87,5.13c-4,5.83-10.41,9.17-18.6,9.17-14.33,0-23.37-9.85-23.37-22.61s9.12-22.62,22.52-22.62c12.62,0,21.58,10,21.58,22.62a26.32,26.32,0,0,1-.42,4.54H376.71C378.25,51.31,382.94,53.71,388.74,53.71Zm9.56-16.62c-1.37-6.17-6-8.65-10.58-8.65-5.89,0-9.9,3.17-11.18,8.65Z"/><path class="cls-1" d="M441,18.84V31.18c-5.72-.69-13,1.88-13,10.88V62.53H417V19.7h11v7.37C430.2,21.24,435.58,18.84,441,18.84Z"/><path class="cls-1" d="M490,19.7,474.47,62.53C470,74.87,462.79,80.26,452,79.66V69.38c6.06.09,9.13-2.48,11.18-8.22L445.64,19.7h12l11.09,28.78,9.47-28.78Z"/><path class="cls-2" d="M54.54,73.5v39.44H47.3v-3.32a10.9,10.9,0,0,1-9.1,4.11c-7.52,0-13.69-6.48-13.69-14.87S30.68,84,38.2,84a10.9,10.9,0,0,1,9.1,4.11V73.5ZM47.3,98.86a7.55,7.55,0,0,0-7.75-8,7.95,7.95,0,0,0,0,15.89A7.55,7.55,0,0,0,47.3,98.86Z"/><path class="cls-2" d="M80.8,107.14a7.76,7.76,0,0,0,6.29-2.82l5.84,3.38c-2.64,3.83-6.85,6-12.24,6-9.43,0-15.38-6.48-15.38-14.87S71.32,84,80.13,84c8.31,0,14.2,6.59,14.2,14.88a16.66,16.66,0,0,1-.28,3H72.89C73.9,105.56,77,107.14,80.8,107.14Zm6.29-10.93a6.81,6.81,0,0,0-7-5.69c-3.87,0-6.51,2.08-7.35,5.69Z"/><path class="cls-2" d="M125,104.72c0,6.08-5.27,9-11.28,9-5.61,0-9.76-2.36-11.78-6.7l6.28-3.55a5.35,5.35,0,0,0,5.5,3.66c2.3,0,3.87-.79,3.87-2.42,0-4.12-14.48-1.86-14.48-11.78,0-5.75,4.89-9,10.67-9a11.82,11.82,0,0,1,10.66,6l-6.17,3.38a4.76,4.76,0,0,0-4.49-2.87c-1.8,0-3.26.79-3.26,2.31C110.55,96.94,125,94.35,125,104.72Z"/><path class="cls-2" d="M134.46,76.94a4.47,4.47,0,1,1,4.44,4.45A4.49,4.49,0,0,1,134.46,76.94Zm.84,7.83h7.24v28.17H135.3Z"/><path class="cls-2" d="M183.35,84.77v26.82c0,9.24-7.24,13.41-14.65,13.41-6,0-10.83-2.31-13.3-6.87l6.17-3.55c1.18,2.19,3,3.94,7.35,3.94,4.55,0,7.35-2.48,7.35-6.93v-3a10.68,10.68,0,0,1-9,4.28c-8,0-14-6.48-14-14.42A14.1,14.1,0,0,1,167.3,84a10.68,10.68,0,0,1,9,4.28V84.77Zm-7.08,13.64a7.86,7.86,0,1,0-7.85,7.71A7.5,7.5,0,0,0,176.27,98.41Z"/><path class="cls-2" d="M221.74,95.64v17.3H214.5V96.55c0-3.84-2.3-5.81-5.56-5.81-3.54,0-6.17,2.09-6.17,7v15.21h-7.24V84.77h7.24v3.16c1.68-2.54,4.6-4,8.36-4C217.08,84,221.74,88.15,221.74,95.64Z"/><path class="cls-2" d="M274.33,104.72c0,6.08-5.28,9-11.28,9-5.62,0-9.77-2.36-11.79-6.7l6.29-3.55a5.34,5.34,0,0,0,5.5,3.66c2.3,0,3.87-.79,3.87-2.42,0-4.12-14.48-1.86-14.48-11.78,0-5.75,4.88-9,10.66-9a11.83,11.83,0,0,1,10.67,6l-6.18,3.38a4.74,4.74,0,0,0-4.49-2.87c-1.79,0-3.25.79-3.25,2.31C259.85,96.94,274.33,94.35,274.33,104.72Z"/><path class="cls-2" d="M293.47,91.76v11.72c0,3,2.19,3.1,6.34,2.87v6.59c-10.16,1.13-13.58-1.86-13.58-9.46V91.76h-4.88v-7h4.88V79.08l7.24-2.2v7.89h6.34v7Z"/><path class="cls-2" d="M336.74,84.77v28.17H329.5v-3.15c-1.68,2.53-4.6,3.94-8.36,3.94-5.95,0-10.61-4.17-10.61-11.66V84.77h7.24v16.4c0,3.83,2.3,5.8,5.56,5.8,3.53,0,6.17-2.08,6.17-7V84.77Z"/><path class="cls-2" d="M377.49,73.5v39.44h-7.24v-3.32a10.9,10.9,0,0,1-9.1,4.11c-7.52,0-13.69-6.48-13.69-14.87S353.63,84,361.15,84a10.9,10.9,0,0,1,9.1,4.11V73.5Zm-7.24,25.36a7.78,7.78,0,1,0-7.75,7.94A7.55,7.55,0,0,0,370.25,98.86Z"/><path class="cls-2" d="M388.88,76.94a4.47,4.47,0,1,1,4.44,4.45A4.49,4.49,0,0,1,388.88,76.94Zm.84,7.83H397v28.17h-7.24Z"/><path class="cls-2" d="M407.74,98.86a14.85,14.85,0,1,1,14.82,14.87A14.69,14.69,0,0,1,407.74,98.86Zm22.45,0a7.61,7.61,0,1,0-7.63,7.77A7.48,7.48,0,0,0,430.19,98.86Z"/></svg>