<svg id="a9437359-c43b-4bb2-a2d8-be38a8cce6ef" data-name="Layer 1" xmlns="http://www.w3.org/2000/svg" viewBox="0 0 270 270"><path d="M84.1,112.4a.5.5,0,0,0-.6.1L81.9,115c-.1.2-.1.5.1.6a.5.5,0,0,0,.6-.1l1.6-2.5A.4.4,0,0,0,84.1,112.4Z" fill="#efe8f2"/><path d="M76.2,105.2a.5.5,0,0,0-.6.1l-1.5,2.4c-.2.2-.1.4.1.6a.4.4,0,0,0,.5-.1l1.6-2.4C76.4,105.6,76.4,105.3,76.2,105.2Z" fill="#efe8f2"/><path d="M160.3,69.8c-4.5-10-19.1-10.7-24.7-1.3l-2.2,3.6a8.4,8.4,0,0,0,.7,9.8L154.4,108a7.1,7.1,0,0,0,12.5-4.1,70.4,70.4,0,0,0-6.6-34.1Zm5.8,34.1c-.2,5.5-7.7,7.9-11.1,3.6L134.8,81.4a7.5,7.5,0,0,1-.7-8.8l2.2-3.6a13,13,0,0,1,12.1-6.3,12.8,12.8,0,0,1,11.2,7.5A71.1,71.1,0,0,1,166.1,103.9Z" fill="#efe8f2"/><path d="M155.6,123.2,85.8,77.8a.6.6,0,0,0-.8.1.5.5,0,0,0,.2.8L155,124.1C155.6,124.5,156.3,123.6,155.6,123.2Z" fill="#efe8f2"/><path d="M90,72.9l17.7,11.6c.4.3.9-.4.4-.7L90.4,72.2C90,72,89.5,72.7,90,72.9Z" fill="#efe8f2"/><path d="M91.7,70.8l17.5,11.4c.4.3.9-.4.4-.7L92.1,70.1C91.7,69.8,91.2,70.5,91.7,70.8Z" fill="#efe8f2"/><path d="M93.5,68.7l17.2,11.2h.2c.4.1.6-.5.2-.7L93.9,68C93.5,67.7,93,68.4,93.5,68.7Z" fill="#efe8f2"/><path d="M95.3,66.6l16.6,10.8h.3c.4,0,.5-.5.2-.8L95.7,65.9C95.3,65.6,94.8,66.3,95.3,66.6Z" fill="#efe8f2"/><path d="M180.2,162.9c3.3-.7,5.7,1.5,9,4.6s6.4,5.8,11.6,8.1,15.6,5.1,19.8.5c5.2-6.2-1.3-18.2-6.7-27.4-9.9-16-26.6-27.4-41.6-34.8,25.4-55.1-47.4-103.7-84.5-52.2L80.2,73.5a10.4,10.4,0,0,0,3,14.4l2.2,1.4L77,102a2.6,2.6,0,0,0-2.3,1.1l-2.8,4.3-1.8-1.2a1.9,1.9,0,0,0-2.5.3L50,126.5a10.4,10.4,0,0,0,.6,14.2c.2.5.9.9,1.3,1.2s1,.7,1.6.7l.4.2a11.2,11.2,0,0,0,3.3,6.9c.2.5,1,.9,1.4,1.2a3,3,0,0,0,1.6.8,10.9,10.9,0,0,0,14.1-5.1l12.1-25.2a1.8,1.8,0,0,0-.7-2.5l-1.9-1.3,3-4.4a2.9,2.9,0,0,0,.1-2.7l9.4-14.1,53.5,34.7a9.5,9.5,0,0,0,7.5,1.4,10,10,0,0,0,6.3-4.3c2.1-3.3,6.8-10,8.4-13.5,14.8,7.3,31.4,18.6,41.2,34.4,8,13.2,10.4,22.6,6.8,26.5s-13.3,1.6-18.9-.8-8.5-5.4-11.3-7.9-6.1-5.6-9.8-4.8a8.5,8.5,0,0,0-5.6,4.5c-3.8,7.9,8.8,21.3,18.4,25.6s22.4,15.8,21.6,31.4c-3.9,10.4-18.2,5.2-30.4-4.6h-.2c-4.9-2.4-12.4-1.5-16.1.7a4,4,0,0,0-4.5-1.3,1.1,1.1,0,0,0-1.2-.3c-.4.2-1,.4-1.1.9s.6,1.9.8,2.5l-1.5.6a.4.4,0,0,0,.4.8l1.4-.6c0-.1,0-.1.1-.1l.8,1.7-2.1.9a.4.4,0,0,0,.4.8l2-.9c.4.6.8,2.2,1.4,2.3s1-.2,1.4-.3h0a.9.9,0,0,0,.5-1.2,4,4,0,0,0,1.6-5.1c3.8-2.2,12.6-3.3,16.8.4,12.5,9.5,26.3,13.8,30.3,3v-.2c.8-15.9-12.9-27.8-22-32.1a45.7,45.7,0,0,1-9.7-6.6C174.8,176.9,170.3,166.3,180.2,162.9ZM86.1,89.8l.6.4-8.3,12.5-.6-.4Zm-1.2,19.4a2.5,2.5,0,0,0-2.4,1.1l-3,4.5-1.1-.8a1.9,1.9,0,0,0-.6-2.7L76,110.1l2.8-4.2a2.5,2.5,0,0,0,.2-2.5l8.4-12.8L94.2,95Zm.7,1.1.3.2c-.2.3-.5,1.2-1,.9s.2-1,.3-1.3A.5.5,0,0,1,85.6,110.3Zm-7.3,10.1c-1.7,1.5-3.5,3-5.2,4.7L78,114.8l1.7,1.1C79.2,117.4,78.7,118.9,78.3,120.4Zm2.1-4,1.5.9-2.4,2.1Q79.9,117.8,80.4,116.4ZM58,142.7l-2.7-.3c4.5-1.3,9-10,12.6-19.3l7.7-8.7a1.2,1.2,0,0,1,1.7-.1l-5.9,12.3C65.7,132,60.4,137.9,58,142.7Zm12.4-13.9-4.2,8.6a9.3,9.3,0,0,1-7.2,5.2Q61.9,137.1,70.4,128.8Zm4.5-18.5,2.5,1.7a1.2,1.2,0,0,1,.3,1.6,1.9,1.9,0,0,0-2.7.2l-6.2,7.1,2.6-7.6Zm-3,1.4.9-2.8,1.3,1Zm5-8,.5-.7.6.4-.5.6C77.3,104.4,76.6,104,76.9,103.7Zm-1.5-.1a1.4,1.4,0,0,1,1-.7,1.2,1.2,0,1,0,2,1.3,1.3,1.3,0,0,1-.3,1.2l-2.6,4.1-2.8-1.9ZM50.2,138.9a9.5,9.5,0,0,1,.4-11.9l17.6-19.9a1,1,0,0,1,1.4-.2l2.4,1.6c-.4,1.5-.9,2.9-1.3,4.3C61.2,121,49.5,132.5,50.2,138.9Zm3.7,2.8h-.6a9.1,9.1,0,0,1-1.6-1.1c-3-4.6,4.2-13.4,18.5-26.2q-1.5,4.5-3,8.4L56.6,134.8A11,11,0,0,0,53.9,141.7Zm3.3-6.3L66.3,125c-4.2,10.2-8.2,16-11.6,16.6A10.1,10.1,0,0,1,57.2,135.4Zm-.5,12.5a10.6,10.6,0,0,1-1.9-4.8,9,9,0,0,0,2.8.4A9.4,9.4,0,0,0,56.7,147.9Zm3.9,2.9-.6-.2-1.7-1.1c-1.2-1.6-.9-3.4.2-6a10.5,10.5,0,0,0,8.5-5.8l5.1-10.6c1.7-1.6,3.6-3.4,5.7-5.2C71.6,140.8,65.4,151.3,60.6,150.8Zm24.7-31.2a1.1,1.1,0,0,1,.4,1.5L73.6,146.2A10.1,10.1,0,0,1,62,151.5c6.5-1.8,12.9-18,17-30.6l3.6-3.1Zm.8-6.9L83.3,117l-3-2,2.8-4.2a1.6,1.6,0,0,1,1.2-.8c-1.4,1.7,1,3.3,2,1.4A1.5,1.5,0,0,1,86.1,112.7Zm.3-2.9-.7-.4,9.2-13.9.7.4Zm82,9.5-5.5,8.4a9.1,9.1,0,0,1-12.7,2.7L83.7,87.2h0a9.6,9.6,0,0,1-2.8-13.3l7.6-11.7a46.9,46.9,0,0,1,64.8-13.8A51.3,51.3,0,0,1,168.4,119.3Zm-2.7,106.6-.6.3h-.3l-3.1-6.7h-.1c0-.1.7-.4.7-.4s.2,0,.3.1l3.1,6.7C165.8,225.7,165.7,225.9,165.7,225.9Zm.5-1.2-2.6-5.6A3.1,3.1,0,0,1,166.2,224.7Z" fill="#efe8f2"/></svg>