<svg id="bbeae32b-d523-40e8-9cb7-203726ad319c" data-name="Layer 1" xmlns="http://www.w3.org/2000/svg" viewBox="0 0 270 270"><g id="e774c0ed-813b-4847-9729-16c982dd6053" data-name="Color Swatches"><path d="M170.1,126.9a5.1,5.1,0,0,0-1.5-3.7l-12.3-12.7c-2.6-2.9-6.6-1.5-8.7,1.2,1.7-3.6,2.9-8-1.7-10L131.1,96a5.2,5.2,0,0,0-6.4,2.3c-1.3-1.2-17.1-.4-18.9-.6a5.8,5.8,0,0,0-5.9,5.9v64.9a5.8,5.8,0,0,0,5.9,5.9h16.3a5.8,5.8,0,0,0,5.7-4.7h.3l11.2-10.9c.2,0,.3-.1.4-.3l21.7-21C163.2,135.2,170.5,130.2,170.1,126.9ZM130.7,97c19.6,8.5,20.6,2.6,12.5,23L128,114.2V103.6a6,6,0,0,0-2.3-4.7A3.9,3.9,0,0,1,130.7,97Zm18.9,50.3-11.3-11.7,5.7-14.5h0l16.2,16Zm-10.5,10.1-6.5-7,.7-1.8a.5.5,0,0,0,.3-.7l4.3-11.1L148.8,148Zm-6.5-10-4.6-1.6V131.3l9.5,3.4Zm5.3-13.7-9.9-3.5V115.4l14.8,5.7ZM128,147l4.2,1.4-.7,1.8a.4.4,0,0,0-.1.3l-3.4,8.9Zm-5.9,26.3H105.8a4.8,4.8,0,0,1-4.8-4.8V103.6a4.7,4.7,0,0,1,4.8-4.8c1.7.2,17.6-.7,18.7.7h.3a5,5,0,0,1,2.1,4v58.7a.2.2,0,0,0,0,.3C126.8,166.5,128,173.1,122.1,173.3Zm5.9-5.1v-5.8l4.2-10.8,6.1,6.6Zm33-31.9c-.2-.1-16.4-16.4-16.6-16.4l2.2-5.7c2.3-2.3,5.6-6.3,8.9-3L167.8,124a4,4,0,0,1,0,5.7Z" fill="#efe8f2"/><path d="M114.3,158.8c-5.6.1-5.6,8.6,0,8.6S119.9,158.9,114.3,158.8Zm0,7.5c-4.1.1-4.1-6.4,0-6.4S118.4,166.4,114.3,166.3Z" fill="#efe8f2"/></g></svg>