<svg id="b91bbdd8-7822-4f29-9f7b-34e320a470b4" data-name="Layer 1" xmlns="http://www.w3.org/2000/svg" viewBox="0 0 270 270"><g id="a5b2a93d-933d-4985-b343-fe511b3c7e2b" data-name="Ink Pen"><path d="M135.5,75.3h-1.2a2.6,2.6,0,1,0,1.2,0Zm-.6,3.9a1.4,1.4,0,0,1,0-2.8h0A1.4,1.4,0,1,1,134.9,79.2Z" fill="#efe8f2"/><path d="M139.6,95.4c.4,0,1,.1,1.1-.3m0,0V88.4l2.7-8a2.8,2.8,0,0,0-.4-2.5,36.9,36.9,0,0,1-7.3-17.4.6.6,0,0,0-1.1,0A49.3,49.3,0,0,1,127,78.1a2.4,2.4,0,0,0-.4,2.3l2.4,7.8v6.9c-2.5,3.8-2.5,11.2,0,15.1-.8,10.1-1.8,26.4-1.7,47.2.1,12.8.6,25.3,1.5,37.2a29.1,29.1,0,0,0,3.4,11.8c1.9,4,3.6,5.3,6,.4a29.4,29.4,0,0,0,3.5-12.7c.7-11.5,1-23.7,1-36,0-20.9-1.1-37.6-1.9-48,2.3-4.2,1.9-11.6-.2-15-.1.4-.7.3-1.1.3,1.9,3.2,2.5,10.1.3,14h-9.8c-2.4-3.9-2.1-10.4.1-14h9.4M127.7,80.1a1.7,1.7,0,0,1,.2-1.4,48,48,0,0,0,6.5-13v9.7h1.2v-10a39.5,39.5,0,0,0,6.6,13.3,1.7,1.7,0,0,1,.2,1.4l-2.5,7.3H130Zm11.9,8.5v1.1h-9.4V88.6Zm-9.4,2.3h9.4v3.4h-9.4Zm5.1,118c-.5,0-1.4-2-2-3a30.4,30.4,0,0,1-3.2-11.4c-2.2-23.4-1.7-65.7.2-83.8h9.4c1.8,18.3,2.7,59.8,1,83.5a30.5,30.5,0,0,1-3.4,12.2C136.9,207,135.9,208.9,135.3,208.9Z" fill="#efe8f2"/></g></svg>