<svg id="b9fb1ccd-092a-4f3e-9910-d0f2edc7c815" data-name="Layer 1" xmlns="http://www.w3.org/2000/svg" viewBox="0 0 270 270"><path d="M90.5,150.5c3.9-7-.1-13.5-11-11.7,2.6-6.1-3.4-11.5-10.3-9.7C53.2,131,48,146.3,48.1,154c0,.2.1.3.3.4l3.3.6h.6C61.5,156.6,84.7,159.9,90.5,150.5ZM76,155.9c-8.1.6-17.7-.6-23.4-1.6,1.1-4.1,6-7.1,11.6-7.1s11.5,3.7,11.8,8.4C76.1,155.7,76,155.8,76,155.9Zm.8-.1c.2-5.2-5.9-9.4-12.6-9.4s-11.2,3.3-12.4,7.8l-2.9-.6c.2-7.9,5.5-21.9,20.5-23.7,7-1.7,11.9,3.9,9.1,9.3a.4.4,0,0,0,.4.6c10.2-2.1,14.7,3.3,10.8,10.3C87.7,153.7,82.7,155.3,76.8,155.8Z" fill="#efe8f2"/><path d="M86.7,134.2a103.5,103.5,0,0,0,20.9,2.4c7.8,0,15.2-1.3,17.8-6.1.1-.2,2.6-4.9.5-8.3s-5.8-3.9-10.5-3c2.1-5.3-2.2-10.6-8.5-9.6-4.5.4-8.3.2-13.4,3.9s-8.6,12.4-7.1,20.4A.3.3,0,0,0,86.7,134.2Zm2.3-.4c3-10.1,22.6-8.9,23.5,1.8C104.1,136.4,93.9,134.8,89,133.8Zm5-19.7c4.9-3.6,8.7-3.3,13-3.7s6.3.8,7.5,3.4a6.7,6.7,0,0,1-.2,5.8c-.1.2.2.6.5.5,9.7-2,13.3,3.6,9.9,10-1.8,3.3-6.2,4.9-11.4,5.5-.2-5.2-5.7-9.4-12.5-9.6s-11.5,3.1-12.6,7.7l-1-.2C85.8,125.9,88.5,118.3,94,114.1Z" fill="#efe8f2"/><path d="M121,115.6a106.5,106.5,0,0,0,20.2,2.3c7.5,0,14.7-1.3,17.2-5.9.1-.2,2.6-4.7.5-8s-5.6-3.7-10.2-2.9c2.1-5-2.2-10.2-8.2-9.2-4.3.4-8.1.2-13,3.7s-8.3,12-6.8,19.7A.3.3,0,0,0,121,115.6Zm3-.2c2.8-9.1,21.3-8.2,22.1,1.5C138.4,117.7,129.1,116.3,124,115.4Zm4-19.1c4.9-3.5,8.6-3.1,13-3.6,6.1-.7,8.8,4.6,6.7,8.8a.4.4,0,0,0,.4.6c9.4-2,12.9,3.3,9.6,9.5-1.7,3.1-5.9,4.7-10.7,5.2h-.1c-.2-4.7-5.4-8.5-11.8-8.6s-10.8,2.9-11.9,7l-1.8-.3C120.1,107.6,122.7,100.3,128,96.3Z" fill="#efe8f2"/><path d="M153.5,98.1a98.5,98.5,0,0,0,19.1,2.2c7,0,13.8-1.3,16.2-5.6.1-.2,2.4-4.4.5-7.5s-5.3-3.5-9.6-2.8c1.9-4.7-2.1-9.5-7.8-8.6-4.1.4-7.6.2-12.2,3.5s-7.9,11.2-6.5,18.5A.5.5,0,0,0,153.5,98.1Zm4-.1c2.6-8.2,18.6-7.5,19.8,1.3C170.6,99.9,162.5,98.9,157.5,98Zm2.7-18c4.6-3.3,8-2.9,12.2-3.4s8.3,4.3,6.2,8.2c-.1.3.2.7.5.6,8.7-1.8,12.1,3.1,9,8.9-1.7,3-5.6,4.4-10.2,4.9.2-4.4-5-7.8-10.7-7.8s-9.5,2.8-10.5,6.5l-2.7-.6C152.8,90.5,155.2,83.7,160.2,80Z" fill="#efe8f2"/><path d="M112.8,167.2a.4.4,0,0,0-.4.4v10.6a.4.4,0,0,0,.4.4.4.4,0,0,0,.4-.4V167.6A.4.4,0,0,0,112.8,167.2Z" fill="#efe8f2"/><path d="M115.7,166.4a.4.4,0,0,0-.4.4v10.6a.4.4,0,1,0,.8,0V166.8A.4.4,0,0,0,115.7,166.4Z" fill="#efe8f2"/><path d="M118.5,168a.4.4,0,0,0-.4.4v7.5a.4.4,0,0,0,.4.4c.3,0,.5-.1.5-.4v-7.5C119,168.1,118.8,168,118.5,168Z" fill="#efe8f2"/><path d="M149.5,146.9a.5.5,0,0,0-.4.5v9.4a.4.4,0,1,0,.8,0v-9.4A.5.5,0,0,0,149.5,146.9Z" fill="#efe8f2"/><path d="M152.3,146.3a.4.4,0,0,0-.4.4v9.4a.4.4,0,0,0,.4.4.5.5,0,0,0,.5-.4v-9.4C152.8,146.4,152.6,146.3,152.3,146.3Z" fill="#efe8f2"/><path d="M155.2,147.7a.4.4,0,0,0-.4.4v6.7a.4.4,0,0,0,.8,0v-6.7A.4.4,0,0,0,155.2,147.7Z" fill="#efe8f2"/><path d="M183.4,129.1a.4.4,0,0,0-.4.4v8.4a.4.4,0,0,0,.4.4.4.4,0,0,0,.4-.4v-8.4A.4.4,0,0,0,183.4,129.1Z" fill="#efe8f2"/><path d="M186,128.5a.4.4,0,0,0-.4.4v8.4a.4.4,0,1,0,.8,0v-8.4A.4.4,0,0,0,186,128.5Z" fill="#efe8f2"/><path d="M188.6,129.7a.4.4,0,0,0-.4.4v6a.5.5,0,0,0,.4.5c.3,0,.4-.2.4-.5v-6A.4.4,0,0,0,188.6,129.7Z" fill="#efe8f2"/><path d="M215.3,111.9a.4.4,0,0,0-.4.4V120a.4.4,0,0,0,.4.4.4.4,0,0,0,.4-.4v-7.7A.4.4,0,0,0,215.3,111.9Z" fill="#efe8f2"/><path d="M217.7,111.3a.4.4,0,0,0-.4.4v7.7a.4.4,0,0,0,.4.4.4.4,0,0,0,.4-.4v-7.7A.4.4,0,0,0,217.7,111.3Z" fill="#efe8f2"/><path d="M220.1,112.4a.5.5,0,0,0-.4.5v5.4a.5.5,0,0,0,.4.5c.3,0,.4-.2.4-.5v-5.4C220.5,112.6,220.4,112.4,220.1,112.4Z" fill="#efe8f2"/><path d="M81.5,141.4a.5.5,0,0,0-.5.4v10.6a.5.5,0,0,0,.5.4.4.4,0,0,0,.4-.4V141.8A.4.4,0,0,0,81.5,141.4Z" fill="#efe8f2"/><path d="M84.3,140.6a.4.4,0,0,0-.4.4v10.6a.4.4,0,0,0,.8,0V141A.4.4,0,0,0,84.3,140.6Z" fill="#efe8f2"/><path d="M87.2,142.2a.4.4,0,0,0-.4.4v7.6a.4.4,0,0,0,.4.4.4.4,0,0,0,.4-.4v-7.6A.4.4,0,0,0,87.2,142.2Z" fill="#efe8f2"/><path d="M116.4,132.1a.5.5,0,0,0,.4-.5v-9.4a.4.4,0,0,0-.4-.4.4.4,0,0,0-.4.4v9.4C116,131.9,116.1,132.1,116.4,132.1Z" fill="#efe8f2"/><path d="M119.2,131.4a.4.4,0,0,0,.4-.4v-9.5a.4.4,0,0,0-.4-.4.4.4,0,0,0-.4.4V131A.4.4,0,0,0,119.2,131.4Z" fill="#efe8f2"/><path d="M122.1,130.1a.4.4,0,0,0,.4-.4v-6.8a.4.4,0,0,0-.8,0v6.8A.4.4,0,0,0,122.1,130.1Z" fill="#efe8f2"/><path d="M150.2,113.3a.4.4,0,0,0,.4-.4v-8.4a.4.4,0,0,0-.4-.4.4.4,0,0,0-.4.4v8.4A.4.4,0,0,0,150.2,113.3Z" fill="#efe8f2"/><path d="M152.9,112.7c.2.1.4-.1.4-.4v-8.4a.4.4,0,0,0-.4-.4.5.5,0,0,0-.5.4v8.4C152.4,112.6,152.6,112.7,152.9,112.7Z" fill="#efe8f2"/><path d="M155.5,111.6a.4.4,0,0,0,.4-.4v-6a.4.4,0,0,0-.4-.4c-.3-.1-.4.2-.4.4v6A.4.4,0,0,0,155.5,111.6Z" fill="#efe8f2"/><path d="M180.4,96.5a.4.4,0,0,0,.4-.4V88.4a.4.4,0,0,0-.8,0v7.7A.4.4,0,0,0,180.4,96.5Z" fill="#efe8f2"/><path d="M182.8,95.9a.4.4,0,0,0,.4-.4V87.8a.4.4,0,0,0-.8,0v7.7A.4.4,0,0,0,182.8,95.9Z" fill="#efe8f2"/><path d="M185.2,94.9a.5.5,0,0,0,.4-.5V89a.4.4,0,1,0-.8,0v5.4A.5.5,0,0,0,185.2,94.9Z" fill="#efe8f2"/><path d="M243,113.3,174.3,66.5a5.3,5.3,0,0,0-5.3-.3L27.6,137.5a5.3,5.3,0,0,0-1.1,8.6L89.4,203a5,5,0,0,0,3.5,1.4,5.5,5.5,0,0,0,2.5-.7l5.3-2.9,1.2-.7,1.2-.6c12.8,0,21.6-2.3,22-12.2l6.8-3.8,6.9-3.8c12.7.2,21.8-2.3,22.1-12.2l10.5-5.9,3.3-1.8c11.7.2,19.9-2,20.3-11.2l13.6-7.6c.2.3.6.2.8.2,11.9-.2,19.3-2.3,19.6-11.5l8.9-4.9,4.7-2.5C245.9,120.5,246.2,115.3,243,113.3ZM122.9,192.5c-2.3,4-8.5,6.1-18.4,6.2l1-.6,2.6-1.4,16.2-9A12.8,12.8,0,0,1,122.9,192.5Zm35.7-19.7c-2.3,4-8.5,6-18.4,6.1l19.8-11A10.3,10.3,0,0,1,158.6,172.8Zm34.2-19.4c-2.1,3.7-7.7,5.6-16.7,5.7l11.5-6.4,6.5-3.6A9.4,9.4,0,0,1,192.8,153.4Zm34.1-18.7c-2.1,3.7-7.8,5.6-17,5.6l15.7-8.7,2.6-1.4A10.7,10.7,0,0,1,226.9,134.7Zm15.3-13.2-5.2,2.8h0L104.4,197.8,95,203a4.4,4.4,0,0,1-5.1-.6L27,145.5a4.4,4.4,0,0,1,1-7.2L169.4,66.9a4.5,4.5,0,0,1,2-.4,4.2,4.2,0,0,1,2.4.7L242.5,114A4.4,4.4,0,0,1,242.2,121.5Z" fill="#efe8f2"/><path d="M213.7,108.1c2-4.8-1.9-9.7-7.6-9l-2.7.3c-11.1-.1-19.3,10.5-16.9,22.4a.3.3,0,0,0,.3.3,104,104,0,0,0,19.6,2.2c7.3,0,14.3-1.2,16.7-5.7.1-.1,2.5-4.5.5-7.7S218.2,107.3,213.7,108.1Zm-21.3,14.2c1.8-8.4,18.7-8.1,19.7.6v.3C205.6,124,197.7,123.1,192.4,122.3Zm30-4.1c-1.6,2.9-5.1,4.3-9.5,4.9v-.3c-1.1-9.6-19.3-10-21.4-.6h0l-4.2-.8c-1.3-7.1,1.2-14.1,6.4-17.9s8.2-3.1,12.5-3.6c5.9-.6,8.6,4.5,6.5,8.5a.4.4,0,0,0,.4.6C222.2,107.2,225.6,112.2,222.4,118.2Z" fill="#efe8f2"/><path d="M181.8,125.2c2.1-5-2-10.3-8-9.5l-2.9.3c-11.8-.1-20.5,11.3-18,23.8l.4.4c6.1,1.4,33.6,6,38.5-3.7C195.3,130,192.1,123.5,181.8,125.2Zm-23.5,15.1c2.3-9.1,20.5-8.6,21.5.8v.4C172.7,142.3,163.9,141.2,158.3,140.3Zm32.8-4.2c-1.7,3-5.7,4.6-10.4,5.2V141c-1.2-10.4-20.8-10.9-23.3-.9l-3.7-.7c-2.2-12,6-22.6,17.2-22.6a25.8,25.8,0,0,0,2.9-.3c3.1-.3,6,1,7.1,3.4s.1,5.2-.1,5.7a.4.4,0,0,0,.4.6C190.9,124.2,194.5,129.6,191.1,136.1Z" fill="#efe8f2"/><path d="M147.5,143.9c2.1-5.3-2-10.7-8.4-10a28.5,28.5,0,0,1-2.9.3C124,134.2,115,146,117.6,159a.8.8,0,0,0,.4.4c6.3,1.4,34.7,6.3,39.8-3.9C161.4,148.9,158.2,142,147.5,143.9Zm-25.3,15.4-.2.5-.4.2.4-.2.2-.5c2.6-10.1,22.3-9.6,23.5,1v.4C137.8,161.7,128,160.3,122.2,159.3Zm34.9-4.2c-1.8,3.2-5.8,4.8-10.6,5.5v-.3c-1.3-11.6-22.3-12.2-25.2-1.1l-2.9-.6c-1.4-7.9,1.4-15.7,7.1-20s8.9-3.3,13.4-3.8c6.6-.9,9.9,4.8,7.5,9.4a.4.4,0,0,0,.5.6C156.9,142.7,160.6,148.5,157.1,155.1Z" fill="#efe8f2"/><path d="M110.5,164.1c2.7-6.3-3.5-11.9-10.6-10-16.5,2-21.8,17.7-21.8,25.6a.4.4,0,0,0,.4.4l6.5,1.1h.4c10,1.7,32.2,3.3,36.4-5.2.1-.2,3-5.2.6-8.8S115.9,163.1,110.5,164.1ZM85.7,180.5c1-4.1,5.9-7.2,11.6-7.2s11.4,3.6,11.8,8.2C101.6,182.4,92.2,181.5,85.7,180.5Zm35.4-4.8c-1.9,3.2-6.1,4.9-11.1,5.7-1.6-11.4-22.2-11.9-25.1-1l-5.9-1c.1-8.3,5.6-22.7,21.1-24.5,7.3-1.8,12.3,4,9.4,9.6a.4.4,0,0,0,.4.6C120.4,163,125.1,168.5,121.1,175.7Z" fill="#efe8f2"/></svg>