<svg id="f93ae257-f1ae-4644-a627-077eb9c543a0" data-name="Layer 1" xmlns="http://www.w3.org/2000/svg" viewBox="0 0 270 270"><path d="M274.7,78.2h-.5c-.1.1-.1.2-.2.2a2.7,2.7,0,0,1-1.6,1.4,1.8,1.8,0,0,1-1.6-.1c-1-.6-1.2-2.1-.4-3.4l.2-.2a1.3,1.3,0,0,1-.4-.9l-.5.6c-1,1.7-.7,3.8.7,4.6a2,2,0,0,0,1.3.4l1-.2a4.1,4.1,0,0,0,2-1.7,1.6,1.6,0,0,0,.4-.7Z" fill="#045171"/><path d="M203.3,163.4,169.7,86.7a24.1,24.1,0,0,0-24.5-14.5L75.5,79.3c-6.5.5-11.1,7.5-9.5,13.8l20,88.1c2.3,10,10.8,16.8,20.4,16.8a20.2,20.2,0,0,0,4.3-.5l84.4-17.7C202.2,178.5,206.4,169.9,203.3,163.4ZM195,179l-84.5,17.7C99.8,199,89.3,192.1,86.8,181l-20-88.1c-1.5-5.8,2.8-12.3,8.8-12.8L145.3,73a23.2,23.2,0,0,1,23.6,14l33.7,76.7a11.4,11.4,0,0,1-.4,9.7A10.4,10.4,0,0,1,195,179Z" fill="#efe8f2"/><path d="M120.2,163.5a17.5,17.5,0,0,0-11.5-3c-11.8.6-19.5,12.9-11.9,21.6h.1c5.7,6.8,18.5,6.9,24.8.4A12.1,12.1,0,0,0,120.2,163.5ZM97.6,181.7a5.4,5.4,0,0,1-.2-2.5c2.2-11.3,24.5-7.9,22.6,3.7C113.9,188.1,102.6,187.5,97.6,181.7Zm23.4.3c.4-5.6-5.5-9.8-11-10.5s-13.7,2.3-13.5,8.8c-6-8.8,2.9-19.3,13.6-19S130.1,173.1,121,182Z" fill="#efe8f2"/><path d="M156.2,158.8a16.4,16.4,0,0,0-11.1-3c-11.5.7-18.9,12.5-11.5,20.9h0c8.6,9.9,28.6,4.2,27.9-9.2A12,12,0,0,0,156.2,158.8Zm-21.9,17.5a6.5,6.5,0,0,1-.1-2.4c.6-4.5,6-7.4,12.1-6.6s10.8,5.4,9.7,10.2C150.1,182.5,139.2,182,134.3,176.3Zm22.7.3c.3-4.7-4.3-9.2-10.6-10.1s-13.2,2.7-13.1,8.5c-5.8-8.5,2.8-18.7,13.2-18.4S165.7,168,157,176.6Z" fill="#efe8f2"/><path d="M182.8,151.5c-10.5-1.2-19.1,8.3-13.8,17.2h.1c5.9,10.1,25.1,8.8,26.7-3.9C196.5,158.2,190.6,152.2,182.8,151.5Zm-13,16.9a7.8,7.8,0,0,1,.3-2.2c1.3-3.9,6.6-5.7,12-4s9,6,7.2,10.7C183.1,176.4,173.6,174.5,169.8,168.4Zm20.5,3.8c2.1-11.3-19-16.3-21.2-5.3-3.6-8.1,4.8-15.7,13.6-14.6C193.9,153.2,199.7,165.7,190.3,172.2Z" fill="#efe8f2"/><path d="M103.5,156.6c19.5-2.2,17.7-25.6-1.8-24.8-11,.7-18.1,12-11,20h0A15.5,15.5,0,0,0,103.5,156.6Zm-.5-24c11.1-.1,18.1,11.2,10,19.1.4-11.6-22.1-13.7-22.6-1.6C85,142,93.1,132.4,103,132.6ZM91.4,151.4a6,6,0,0,1-.1-2.3c2-10.3,22.5-7.2,20.8,3.4C106.5,157.3,96,156.8,91.4,151.4Z" fill="#efe8f2"/><path d="M124.6,146.9h0c8,9.2,26.5,4,25.8-8.5-.5-6.6-7.3-11.5-15.2-10.9-9.9.5-17.7,11.1-10.6,19.4Zm.8-.5a5.3,5.3,0,0,1-.2-2.2c2.2-10.3,21.9-6.5,20.1,3.3C139.9,152.1,129.8,151.7,125.4,146.4Zm11.1-18.1c10.8-.1,17.5,10.8,9.7,18.4.3-4.4-4-8.5-9.8-9.3s-12.1,2-12.1,7.7C118.9,136.8,127.7,128,136.5,128.3Z" fill="#efe8f2"/><path d="M155.8,133.3a9.5,9.5,0,0,0,1.5,6.1h0c5.7,9.6,23.5,7.8,24.8-3.6C182.8,121.2,158,118.7,155.8,133.3Zm2.3,5.9a4.4,4.4,0,0,1,.2-2c3.4-8.7,20.7-2.9,17.7,6.1C170.4,146.5,161.5,144.8,158.1,139.2Zm18.9,3.4a3.5,3.5,0,0,1-.3,1.1,3.5,3.5,0,0,0,.3-1.1c1.9-10-17.2-15.3-19.7-4.9-3.2-7.5,4.6-14.3,12.6-13.3C180.2,125.2,185.5,136.7,177,142.6Z" fill="#efe8f2"/><path d="M106,109.1a14.8,14.8,0,0,0-9.7-2.5c-9.9.5-16.4,10.8-10,18.1h0a14.3,14.3,0,0,0,10.5,4.4C108.5,129.4,115.8,116.3,106,109.1Zm-8.5-1.7c9.5-.3,16.5,9.7,9.1,17.1,0-10.8-20.2-12-20.5-1.5C81.3,115.7,88.6,107.2,97.5,107.4ZM87.1,124.3a4.7,4.7,0,0,1-.2-2c.6-3.9,5.2-6.4,10.4-5.7s9.4,4.1,8.4,8.7C100.7,129.5,91.5,129.4,87.1,124.3Z" fill="#efe8f2"/><path d="M137.2,120.6c8.2-8.2-.2-19-10.5-17.9s-15.9,10.5-9.7,17.5h.1C121.6,125.8,132.2,125.9,137.2,120.6Zm-9.3-17.1c9.1-.3,15.9,9.3,8.8,16.5.2-4-3.7-7.7-8.9-8.4s-11,1.7-11,6.9C112.3,111.5,119.3,103.3,127.9,103.5Zm-10.1,16.3a4.4,4.4,0,0,1-.1-2c1.9-9.2,19.8-5.8,18.1,3C130.9,125,121.7,124.5,117.8,119.8Z" fill="#efe8f2"/><path d="M145.3,108a9,9,0,0,0,1.3,5.5h.1c5.1,8.8,21.3,7.2,22.5-3.2C169.7,96.6,147.1,95,145.3,108Zm2.2,5.3a4,4,0,0,1,.2-1.9c2.9-7.8,18.7-2.5,15.9,5.5C158.6,119.8,150.6,118.3,147.5,113.3Zm17.1,3c1.5-9-15.5-13.7-17.9-4.5-2.7-6.7,4.2-12.8,11.4-11.9C166.8,100.5,172.5,110.5,164.6,116.3Z" fill="#efe8f2"/><path d="M101.5,101.3c7.4-7.4-.2-17.1-9.4-16.1S77.8,94.6,83.4,101h0C87.5,106,97,106.1,101.5,101.3Zm-17.4-.7a5.5,5.5,0,0,1-.1-1.8c1.6-8,17.4-5.6,16.2,2.6C95.9,105.1,87.6,104.7,84.1,100.6ZM82,95.8c-.5-5.3,5-9.9,11.1-9.8,8.1-.3,14.2,8.1,8,14.6C101,91.7,84,90,83.2,99.3A7.3,7.3,0,0,1,82,95.8Z" fill="#efe8f2"/><path d="M110,97.1h0c6.3,7.3,21,3.2,20.4-6.7-.4-5.2-5.8-9.1-12-8.6-8.3.5-13.8,9.1-8.4,15.3Zm.8-.4a5,5,0,0,1-.2-1.7c1.2-7.4,16.7-5.7,15.6,2.5C122.2,101.1,114.1,100.7,110.8,96.7Zm8.6-14.1c8.2-.2,13.5,8.2,7.8,14.1-.3-8.9-16.8-9.9-17.4-1.3C106.1,89.3,112.1,82.4,119.4,82.6Z" fill="#efe8f2"/><path d="M138,91.4h.1c2.7,4.9,11.1,6.6,15.9,3.1,7.3-5.1,2.9-15-5.9-15.7-7.1-1-14.1,5.7-10.1,12.5C138.1,91.3,138,91.4,138,91.4Zm.9-.3a3.8,3.8,0,0,1,.1-1.5c2.6-6.7,16-2.2,13.7,4.7C148.4,96.9,141.3,95.2,138.9,91.1Zm9.2-11.5c7.8.6,12.1,9.3,5.7,14,1.1-7.7-13.4-11.7-15.6-3.9C135.8,83.7,142.3,78.8,148.1,79.6Z" fill="#efe8f2"/><path d="M96.7,99.6l-9.6-1.4c-.5-.1-.6.8-.1.8l9.6,1.4C97.1,100.5,97.2,99.6,96.7,99.6Z" fill="#efe8f2"/><path d="M95.5,101.4l-7.7-1.1a.5.5,0,0,0-.5.4.4.4,0,0,0,.4.4l7.7,1.1C95.9,102.3,96,101.4,95.5,101.4Z" fill="#efe8f2"/><path d="M123.8,95.5l-9.6-1.3c-.2,0-.4.1-.4.3a.3.3,0,0,0,.3.5l9.6,1.4C124.2,96.4,124.4,95.6,123.8,95.5Z" fill="#efe8f2"/><path d="M122.6,97.3l-7.7-1c-.2-.1-.4.1-.4.3a.3.3,0,0,0,.3.5l7.7,1.1A.5.5,0,0,0,122.6,97.3Z" fill="#efe8f2"/><path d="M150.9,91.4l-9.5-1.3a.4.4,0,1,0-.2.8l9.6,1.3A.4.4,0,1,0,150.9,91.4Z" fill="#efe8f2"/><path d="M149.7,93.2l-7.6-1.1a.5.5,0,0,0-.2.9l7.7,1C150.1,94.1,150.2,93.3,149.7,93.2Z" fill="#efe8f2"/><path d="M101.9,123.3l-10.4-1.5c-.3,0-.5.1-.5.4s.1.4.3.4l10.5,1.5C102.3,124.2,102.4,123.3,101.9,123.3Z" fill="#efe8f2"/><path d="M100.5,125.2l-8.3-1.1c-.2-.1-.4.1-.5.3s.2.5.4.5l8.3,1.2C100.9,126.1,101.1,125.3,100.5,125.2Z" fill="#efe8f2"/><path d="M132.2,119.1l-10.4-1.5a.5.5,0,1,0-.1.9l10.4,1.4A.4.4,0,1,0,132.2,119.1Z" fill="#efe8f2"/><path d="M130.9,121.1l-8.3-1.2c-.3,0-.5.1-.5.4a.4.4,0,0,0,.4.4l8.3,1.2C131.3,122,131.4,121.1,130.9,121.1Z" fill="#efe8f2"/><path d="M161,113.6l-10.4-1.4a.4.4,0,1,0-.2.8l10.5,1.4C161.4,114.5,161.5,113.7,161,113.6Z" fill="#efe8f2"/><path d="M159.6,115.6l-8.3-1.2c-.5-.1-.6.8-.1.8l8.3,1.2A.4.4,0,1,0,159.6,115.6Z" fill="#efe8f2"/><path d="M107.4,150.7l-11.3-1.6a.4.4,0,0,0-.4.4c-.1.2.1.4.3.4l11.3,1.6C107.8,151.6,107.9,150.7,107.4,150.7Z" fill="#efe8f2"/><path d="M105.9,152.8,97,151.5a.5.5,0,0,0-.5.4.5.5,0,0,0,.3.5l9,1.2A.4.4,0,1,0,105.9,152.8Z" fill="#efe8f2"/><path d="M140.9,145.2l-11.2-1.5c-.2-.1-.4.1-.5.3a.5.5,0,0,0,.4.5l11.2,1.6C141.3,146.2,141.5,145.3,140.9,145.2Z" fill="#efe8f2"/><path d="M139.5,147.4l-9-1.3a.5.5,0,0,0-.5.4.4.4,0,0,0,.4.4l9,1.3C139.9,148.3,140,147.4,139.5,147.4Z" fill="#efe8f2"/><path d="M173.4,139.6l-11.2-1.5a.3.3,0,0,0-.5.3.5.5,0,0,0,.4.5l11.2,1.5C173.8,140.5,173.9,139.7,173.4,139.6Z" fill="#efe8f2"/><path d="M172,141.7l-9-1.2a.4.4,0,1,0-.1.8l8.9,1.3C172.4,142.6,172.5,141.8,172,141.7Z" fill="#efe8f2"/><path d="M114.6,181.8l-12.2-1.7c-.5-.1-.6.7-.1.8l12.2,1.7C115,182.7,115.2,181.8,114.6,181.8Z" fill="#efe8f2"/><path d="M113.1,184.1l-9.8-1.4a.4.4,0,0,0-.4.4c-.1.2.1.4.3.4l9.7,1.4C113.5,185,113.6,184.1,113.1,184.1Z" fill="#efe8f2"/><path d="M151,175.9l-12.2-1.7c-.2-.1-.4.1-.5.3a.5.5,0,0,0,.4.5l12.2,1.7C151.4,176.8,151.5,175.9,151,175.9Z" fill="#efe8f2"/><path d="M149.4,178.2l-9.7-1.4c-.2,0-.5.1-.5.4a.4.4,0,0,0,.4.4l9.7,1.4C149.8,179.1,150,178.2,149.4,178.2Z" fill="#efe8f2"/><path d="M186.2,169l-12.1-1.7a.3.3,0,0,0-.5.3c0,.3.1.5.3.5l12.2,1.7A.4.4,0,1,0,186.2,169Z" fill="#efe8f2"/><path d="M184.7,171.3l-9.8-1.4c-.5-.1-.6.8-.1.8l9.8,1.4C185.1,172.2,185.2,171.3,184.7,171.3Z" fill="#efe8f2"/></svg>