<svg id="bcacb119-425a-4039-ac0e-232e125d9f9a" data-name="Layer 1" xmlns="http://www.w3.org/2000/svg" viewBox="0 0 270 270"><path d="M167.4,133.7c-5.7-14.7-32.6-22.5-48.6-17.1-4.1,1.3-13.6,4.3-16.7,12.4h0c-2.1,5.4-1.2,11.6,5.6,14.7,2.5.9,4,.1,6.7.2a27.1,27.1,0,0,1,10.9,2.5c4.4,1.8,4.6,3.3,8.6,5.4a32.3,32.3,0,0,0,13.4,3.3C159.2,155.1,173.7,147.6,167.4,133.7Zm-48.3-16a42.3,42.3,0,0,1,23.7-.1,17.8,17.8,0,0,0-4.1,2.2c-8.6-3-23.8-2.7-34,6.7C108.6,121,115.8,118.7,119.1,117.7Zm-16,11.8c9.6-10.5,24.7-12,34.5-8.8-5.4,4.7-6.2,11.9-6.2,14.9-.9-.5-18.5,0-20,0s-3.1.3-5.4-.7-3-1.8-3.5-3.4A7.6,7.6,0,0,1,103.1,129.5Zm31.3,21.3c-4-2.1-4.1-3.6-8.6-5.5a29.6,29.6,0,0,0-11.4-2.5c-2.5-.1-4.1.7-6.3-.2a9.1,9.1,0,0,1-5.9-9.2c2.2,2.9,6.3,3.7,9.2,3.3l17.6-.2c11.2,1.1,21.6,7,29.1,15.4A28.8,28.8,0,0,1,134.4,150.8Zm24.8.6a50.2,50.2,0,0,0-15.6-11.9,48.3,48.3,0,0,0-11.1-3.7c-.2-5.4,2.7-15.4,12.2-17.6,5.3,1.7,17.4,5.5,21.6,15.9C169.6,141.2,167.3,147.9,159.2,151.4Z" fill="#efe8f2"/></svg>