<svg id="a30c4c4b-32e2-4ea4-ba59-2c88e1bbc89c" data-name="Layer 1" xmlns="http://www.w3.org/2000/svg" viewBox="0 0 270 270"><g id="a9118801-e6d9-42b4-becc-495c6d284ccc" data-name="Internet Browser"><path d="M139.2,98.7H114.8a.4.4,0,1,0,0,.8h24.4C139.7,99.5,139.7,98.6,139.2,98.7Z" fill="#efe8f2"/><path d="M180.2,96.1h-6a2,2,0,0,0-1.5.6c-.7.7-.5,1.9-.6,2.7a2.2,2.2,0,0,0,2.1,2.1c.4-.1,6.5.1,6.7-.2a2,2,0,0,0,1.3-1.9V98.2A2.1,2.1,0,0,0,180.2,96.1Zm1.2,2.1v1.2a1.2,1.2,0,0,1-1.2,1.2h-6a1.6,1.6,0,0,1-.9-.3c-.5-.5-.3-1.6-.3-2.1a1.1,1.1,0,0,1,1.2-1.2h6A1.3,1.3,0,0,1,181.4,98.2Z" fill="#efe8f2"/><path d="M192.8,96.1h-6a2.1,2.1,0,0,0-2.1,2c.1.9-.1,2.1.7,2.7a1.8,1.8,0,0,0,1.4.6h6a2,2,0,0,0,2-2c0-.9.1-2.1-.6-2.7A2,2,0,0,0,192.8,96.1Zm1.2,2v1.3a1.3,1.3,0,0,1-1.2,1.2h-6a1.2,1.2,0,0,1-.9-.4c-.5-.4-.3-1.5-.3-2.1a1.2,1.2,0,0,1,1.2-1.2h6A1.3,1.3,0,0,1,194,98.1Z" fill="#efe8f2"/><path d="M199,91.5a3.1,3.1,0,0,0-2.2-.9l-123.3.2A3.5,3.5,0,0,0,70,94.3v81.6a3.6,3.6,0,0,0,3.6,3.5l123.2-.2a3.1,3.1,0,0,0,3.1-3.1V93.6A3.1,3.1,0,0,0,199,91.5ZM70.9,106.6H85.3v9.7H70.9Zm0,10.4H85.3v9.6H70.9Zm0,10.4H85.3V137H70.9Zm0,16.3v-5.8H85.4v9.6H70.9Zm0,13.5v-8.9H85.4v9.6H70.9Zm0,4.1v-2.6H85.4v9.5H71Zm13.8,17.3h-11a2.7,2.7,0,0,1-2.7-2.7v-6.8H85.4v9.5Zm114.5-2.5a2.4,2.4,0,0,1-2.3,2.3l-109.1.2H86.3v-4.3l-.2-67.8,111.5-.2H199ZM199,93.6v11.9l-112.1.2h-16V94.3a2.7,2.7,0,0,1,1.7-2.5c1.2-.6,123.1-.2,124.3-.4A2.2,2.2,0,0,1,199,93.6Z" fill="#efe8f2"/><path d="M77.6,96.8a2.5,2.5,0,1,0,0,4.9C80.8,101.7,80.8,96.9,77.6,96.8Zm1.6,2.5c0,2.1-3.2,2.1-3.3,0A1.7,1.7,0,1,1,79.2,99.3Z" fill="#efe8f2"/><path d="M84.7,96.8c-3.3,0-3.2,4.9,0,4.9A2.5,2.5,0,0,0,84.7,96.8Zm1.6,2.5a1.6,1.6,0,0,1-3.2,0A1.6,1.6,0,1,1,86.3,99.3Z" fill="#efe8f2"/><path d="M91.8,96.8c-3.2,0-3.2,4.9,0,4.9A2.5,2.5,0,1,0,91.8,96.8Zm1.7,2.4c-.1,2.2-3.3,2.2-3.3.1A1.7,1.7,0,0,1,93.5,99.2Z" fill="#efe8f2"/><path d="M108.6,98.7H98c-.5,0-.5.9,0,.9h10.6C109.2,99.6,109.2,98.7,108.6,98.7Z" fill="#efe8f2"/><path d="M167.6,95.9h-6a2.5,2.5,0,0,0-1.4.6c-.7.7-.6,1.9-.6,2.7a2.2,2.2,0,0,0,2.1,2.1c.4-.1,6.4.1,6.7-.2a2.1,2.1,0,0,0,1.3-1.9V98A2.2,2.2,0,0,0,167.6,95.9Zm1.2,2.1v1.2a1.2,1.2,0,0,1-1.2,1.2h-5.9a1.2,1.2,0,0,1-.9-.3c-.5-.4-.3-1.5-.4-2.1a1.2,1.2,0,0,1,1.2-1.2h6A1.2,1.2,0,0,1,168.8,98Z" fill="#efe8f2"/><path d="M174.1,160.9a.8.8,0,0,0,1-.1l1.8-1.2h.4l3.2,4.8a1.4,1.4,0,0,0,1.9.5l2.6-1.4a1.5,1.5,0,0,0,.7-1,1.4,1.4,0,0,0-.3-1.2l-3.3-4.5a.2.2,0,0,1,.1-.4l1.5-1a.9.9,0,0,0,0-1.6l-9.2-5.1a1.3,1.3,0,0,0-1.8,1.2l.8,10.1A.8.8,0,0,0,174.1,160.9Zm-1-10.9Zm.5-.1h0a.2.2,0,0,1,.1-.3h.4l9.2,5h0c-.6.4-2,1-2.1,1.7a2.9,2.9,0,0,0,.2.9l3.4,4.5a.8.8,0,0,1-.2,1l-2.6,1.4a.7.7,0,0,1-.9-.2l-3.1-4.9a1.2,1.2,0,0,0-1.6-.3l-1.8,1.3c-.1,0-.3,0-.3-.2Z" fill="#efe8f2"/></g></svg>