<svg id="ee60ceca-aeeb-4904-954d-8358d4bb0884" data-name="Layer 1" xmlns="http://www.w3.org/2000/svg" viewBox="0 0 270 270"><path d="M178.2,143.6a14.5,14.5,0,0,0-14.5-12.1c4.6-15.6-11.8-29.6-26.4-22a20.3,20.3,0,0,0-11.4,10.9,12.5,12.5,0,0,0-10.8,1.3c-4.7,1.3-8.5,6.5-9.7,10.6a23.2,23.2,0,0,0-3.8,2h0l-.3.2h-.2c-15.3,7.1-11.1,27.7,5.9,28.1h56c7.1,0,13.6-5.1,14.6-12.2A15.5,15.5,0,0,0,178.2,143.6Zm-46.3-30a19.9,19.9,0,0,0-4.2,7.5l-1-.4A19.5,19.5,0,0,1,131.9,113.6Zm-19,10a13.7,13.7,0,0,0-3.3,7.7,16.5,16.5,0,0,0-3.2.6A16.3,16.3,0,0,1,112.9,123.6ZM163,161.8H107a15.6,15.6,0,0,1-5.7-1.1c-10.8-4.3-11.9-17.7-2.2-24.1-6.7,7.2-3.6,18.6,5.4,22a16.2,16.2,0,0,0,5.8,1.1h53.8a14.5,14.5,0,0,0,11.5-5.7A14.2,14.2,0,0,1,163,161.8Zm1.1-3H110.3a14.5,14.5,0,0,1-10-3.8c-7-6.5-4.3-17.5,4-21.3a15.6,15.6,0,0,1,5.7-1.6.4.4,0,0,0,.4-.4c0-2.4,1.8-7.3,5.1-9.2l.4-.3a11.8,11.8,0,0,1,11.9-.1c.2.2.5,0,.6-.2a18.2,18.2,0,0,1,15.1-13.5c9.8-1.6,19.4,6.5,20.1,16.2a20.6,20.6,0,0,1-.9,7.4.7.7,0,0,0,.5.4,13.6,13.6,0,0,1,14.3,13.4C177.6,153,171.3,158.9,164.1,158.8Z" fill="#efe8f2"/></svg>