<svg id="a566d503-9716-416a-ab89-665c9ca36905" data-name="Layer 1" xmlns="http://www.w3.org/2000/svg" viewBox="0 0 270 270"><path d="M119.5,190.9a.4.4,0,0,0,.4.4h29.8a.4.4,0,0,0,0-.8H119.9A.4.4,0,0,0,119.5,190.9Z" fill="#efe8f2"/><path d="M148.4,192.6H121.2a.4.4,0,0,0,0,.8h27.2A.4.4,0,0,0,148.4,192.6Z" fill="#efe8f2"/><path d="M121.2,178.5h27.3a.4.4,0,0,0,0-.8H121.3C120.9,177.7,120.8,178.3,121.2,178.5Z" fill="#efe8f2"/><path d="M209.2,169.3V77a6.8,6.8,0,0,0-7-7H67.8a7,7,0,0,0-7,7v92.3a7,7,0,0,0,2,4.9,7.3,7.3,0,0,0,5,2.1h50.4l-.6,11.9c-.1,3.3-2.1,6-4.7,7.9a2,2,0,0,0,1.3,3.6l41.6.4a2.1,2.1,0,0,0,1.5-3.6,18.7,18.7,0,0,1-5.8-11.7l-.5-8.5h51.2A6.9,6.9,0,0,0,209.2,169.3ZM67.8,70.8H202.2a5.9,5.9,0,0,1,2.3.5,6.2,6.2,0,0,1,3.9,5.7v82.1H61.6V77A6.2,6.2,0,0,1,67.8,70.8Zm82.9,113.9a19.7,19.7,0,0,0,6,12.3,1.3,1.3,0,0,1-.9,2.2l-41.6-.4a1.2,1.2,0,0,1-.8-2.2,11.3,11.3,0,0,0,5.1-8.4l.5-12h31.2Zm51.5-9.3H67.8a6,6,0,0,1-4.4-1.8,6.2,6.2,0,0,1-1.8-4.3v-9.4H208.4v9.4A6.1,6.1,0,0,1,202.2,175.4Z" fill="#efe8f2"/><path d="M74.1,153.3H195.9a6.5,6.5,0,0,0,6.5-6.4V84.3a6.3,6.3,0,0,0-1.8-4.5,6.8,6.8,0,0,0-4.6-1.9H74.1a6.5,6.5,0,0,0-6.5,6.5v62.5A6.4,6.4,0,0,0,74.1,153.3Zm0-74.6H195.9a5.6,5.6,0,0,1,4,1.7,5.1,5.1,0,0,1,1.6,3.9v62.6a5.5,5.5,0,0,1-1.6,4,5.9,5.9,0,0,1-4,1.6H74.1a5.6,5.6,0,0,1-5.6-5.6V84.4A5.7,5.7,0,0,1,74.1,78.7Z" fill="#efe8f2"/><path d="M133.7,76a1.9,1.9,0,0,0,3.1-1.3A1.7,1.7,0,0,0,135,73,1.8,1.8,0,0,0,133.7,76Zm.6-2a.9.9,0,0,1,1.6.7C135.8,76.5,133.2,75.4,134.3,74Z" fill="#efe8f2"/></svg>