<svg id="a821e6b1-c40a-4f6e-b76a-9e89a465105c" data-name="Layer 1" xmlns="http://www.w3.org/2000/svg" viewBox="0 0 270 270"><path d="M212.7,124.7c-7.4-4.7-12.3-4.9-16.2-5s-8.6-1.3-13.5-7l5.7-2a3.9,3.9,0,0,0,1.4-.5c3.3-1.8,4.5-7.5,3.5-13.2l.4-.3,19.7-3.5c7.7-2.5,4.4-13.8-3.5-11.6l-18.3,8.2h-.5v-.2h0c-3.1-6.3-7.5-9.8-11.6-7.6l-13.5,4h0l-1.5.5c-4.8-11.7-13.2-23.8-23.9-14.3-7.8,6.3-16.4,8.6-26,6.1-13.2-3.9-43.7,1.5-46.9,17-.8,5,3.6,10,12.7,18-2,2.6-2.8,6.9-2.2,12.1l-1.6,1.8-29.4,5.1c-11,3.7-6.3,19.8,5,16.9l27.3-12.3,2.6.3c3.3,5.7,8.1,9.4,12.7,6.4l13.3-4.6c3.4,5.6,2.5,10.9,2.4,17.2s.1,27,10.4,37.2c13.7,13.5,45.4,8.7,56.9-5.3,8.3-10.2,24.7-16.7,35.1-18,6.3-1.2,10.8-2,13.6-6.8C232.7,153.1,225.4,132.9,212.7,124.7ZM192.2,90.8l18.4-8.2c6.3-1.6,9,7.5,2.8,9.5-.2.1-19.8,3.4-20,3.6a2.3,2.3,0,0,0-.1-.4s-1.2-4.1-1.4-4.4ZM68.7,95.3c1.7-10.7,20-16.4,31.1-17.4A47,47,0,0,1,114.7,79c9.7,2.6,18.6.2,26.6-6.2,10.2-9,17.9,2.6,22.6,13.8l-1.5.5h0c-11,3.5-77.3,23.6-79.6,24.3a4.8,4.8,0,0,0-1.7,1.2C72.3,104.8,68,99.9,68.7,95.3Zm11,40.4c-.6,0-27.2,12.2-27.7,12.3-9.8,2.5-13.9-11.5-4.3-14.7l29.5-5.1.3-.2,3.9-4.6c1.4-1.4,4.8,3.6,5.2,6s.1,7-1.5,6.9Zm14.8,6.9c-3.8,2.5-7.6-.5-10.9-5.4h.5c1.1.2,2.4.1,2.9-1.1a12,12,0,0,0,.7-7.1,12.5,12.5,0,0,0-4.4-6.7c-1.8-1.2-2.9.5-3.9,1.7-.9-9.7,4.4-16.3,11.4-9.1S100.6,137.9,94.5,142.6Zm2.2-.8c5.2-7.5.3-27.2-9.8-30.7l74.4-22.5h0l4.9-1.5h0L180,82.9a2.6,2.6,0,0,1,1-.4c3.2-1.2,7.9,3.6,10,9s3,15.3-1.4,17.7l-.9.4h-.3Zm129.3,21c-2.7,4.4-7,5.2-13,6.3-10.9,1.5-26.9,7.8-35.6,18.3-12.1,14.3-42.8,18.1-55.7,5.3-10.1-10-10.2-29.3-10.2-36.6s1-11.8-2.4-17.5l73-25.6.8.9h0c4.9,5.4,8.1,6.6,13.6,6.6C216.4,119.6,234.3,146.6,226,162.8Z" fill="#efe8f2"/><path d="M78.9,129.7c-.1-.4-.5-1-1-.7a.8.8,0,0,0-.2.8,2.6,2.6,0,0,1,.5.9,9.9,9.9,0,0,1,.9,3.4c0,.4,0,1,.6,1s.3-2.1.2-2.9A5.2,5.2,0,0,0,78.9,129.7Z" fill="#efe8f2"/><path d="M181.9,86.4,152.8,96a.6.6,0,0,0,.2,1.1c.1.1,29.1-9.6,29.3-9.6S182.6,86.2,181.9,86.4Z" fill="#efe8f2"/><path d="M186.7,89.9l-29.2,9.6a.6.6,0,0,0,.4,1.1L187,91A.6.6,0,0,0,186.7,89.9Z" fill="#efe8f2"/></svg>