<svg id="aec3d16e-8af5-4756-a54f-866bf0877b85" data-name="Layer 1" xmlns="http://www.w3.org/2000/svg" viewBox="0 0 270 270"><path d="M169.4,116c-5.5-6.8-16.7-8.7-24.5-6a24.5,24.5,0,0,0-12.7,10.3l-1.2-.4c-3.8-1.6-17-6.5-26.1-.1-3.6,2.3-8.9,7.8-4.3,13.6v7.2c0,2.7,1.7,4.6,3,6.1,3.3,3.7,7.6,5.1,16.2,7.9A59.3,59.3,0,0,0,130,157l24.8,4.2h.3a1.6,1.6,0,0,0,1.5-.9l8.5-13.3a23.2,23.2,0,0,0,4.2-11.7v-4.8C171.7,125,171.8,119.7,169.4,116Zm-13.7,44.1a.8.8,0,0,1-.8.2l-24.7-4.1a61.7,61.7,0,0,1-10.2-2.4c-8.4-2.7-12.6-4.1-15.8-7.7-1.2-1.4-2.7-3.2-2.7-5.5v-6.2c3.7,4.6,8,5.9,17.5,9a58,58,0,0,0,10.8,2.4l25.7,4.4h.5Zm12.8-24.8c-.1,3.5-1.6,7.5-4.1,11.3l-7.8,12.3.3-8.9a2.2,2.2,0,0,0,1-.9l8.8-13.7a25.8,25.8,0,0,0,1.8-3.2Zm-2.5-.4-8.8,13.7a1.5,1.5,0,0,1-1.6.8L129.9,145a60.7,60.7,0,0,1-10.7-2.4c-8.9-2.9-13.3-4.4-16.6-8.2a6,6,0,0,1-1.1-1.2h0c-4.1-5.2-.4-9.8,3.9-12.6,7.1-5.5,20-2.3,25.3.2l1.9.7a22.7,22.7,0,0,1,31.1-8.9C172.4,116.5,172,125.7,166,134.9Z" fill="#efe8f2"/><path d="M156.4,111.3c-4.9-.2-8.8-1.3-15.4,2.6a18.7,18.7,0,0,0-6.9,8.3c-.1.2-.5.4-.7.2h0c-6.8-3.4-20.2-5.8-30.1,1.2-4.7,4.4-.1,10.1,6.7,13.1a156.1,156.1,0,0,0,44.8,9.7,2.4,2.4,0,0,0,2.1-1.2l10.8-18.5C170.2,119.6,165.4,111.6,156.4,111.3Zm-54.1,15.4a4.5,4.5,0,0,1,1.5-2.4c9.5-6.5,21.1-4.9,29.7-1v13.4c-4.7-2.3-15.4-5.5-24.9-1.6C104.3,132.8,101.7,129.5,102.3,126.7Zm53.9,18a1.4,1.4,0,0,1-1.5.8,156.7,156.7,0,0,1-44.4-9.6l-.6-.3c9.3-3.4,18.9-.3,23.3,1.8a1.3,1.3,0,0,0,1.8-.7,18,18,0,0,1,18.5-10.5l3,.2a12.3,12.3,0,0,1,8.5,3.6Zm10.7-18.4-1.7,3a12.6,12.6,0,0,0-8.8-3.7l-3-.2c-7-1.1-15.7,2.8-19.1,10.4V123.1l.5-.6a18,18,0,0,1,6.7-7.9c6.3-3.8,10-2.6,14.8-2.4C164.8,112.4,169.2,119.8,166.9,126.3Z" fill="#efe8f2"/></svg>