<svg id="a33cbe29-f705-4357-8a9b-2d94a74deab2" data-name="Layer 1" xmlns="http://www.w3.org/2000/svg" viewBox="0 0 270 270"><path d="M134.8,132.7l1,46.9a.5.5,0,0,0,.7.3c.4-.2-1-46.9-.8-47.2S134.8,132.2,134.8,132.7Z" fill="#efe8f2"/><path d="M133.2,186.4a3.2,3.2,0,1,0,3.1-3.3A3.3,3.3,0,0,0,133.2,186.4Zm5.5-.1a2.4,2.4,0,0,1-4.7.1A2.4,2.4,0,0,1,138.7,186.3Z" fill="#efe8f2"/><path d="M131.9,77.5l-8.1.2a2.9,2.9,0,0,0-2.1.9,3,3,0,0,0-.8,2l.9,41a3,3,0,0,0,3,2.9l5.7-.2v62.4a5.9,5.9,0,0,0,5.9,5.8,5.8,5.8,0,0,0,5.7-6l-2.5-62.3,6.5-.2a3,3,0,0,0,2.9-2.9l-.6-27.7C148.5,84.7,140.6,77.1,131.9,77.5Zm9.4,109a5,5,0,0,1-8.4,3.8,5.3,5.3,0,0,1-1.5-3.6V124.3h7.5Zm6.3-93.1.6,27.7a2,2,0,0,1-2,2.1l-21.5.4a2,2,0,0,1-2.1-2l-.8-41a2,2,0,0,1,.6-1.5,2,2,0,0,1,1.4-.6l8.2-.2A15.5,15.5,0,0,1,147.6,93.4Z" fill="#efe8f2"/><path d="M136.7,80.8a.4.4,0,0,0-.4.8,16.1,16.1,0,0,1,8.4,13.8.5.5,0,0,0,.7.3C145.8,89.6,141.9,83.7,136.7,80.8Z" fill="#efe8f2"/></svg>