<svg id="Layer_1" data-name="Layer 1" xmlns="http://www.w3.org/2000/svg" viewBox="0 0 270 270"><defs><style>.cls-1{fill:#045171;}.cls-2{fill:#efe8f2;}</style></defs><path class="cls-1" d="M274.73,78.17a2.06,2.06,0,0,1-.57-.09c0,.09-.08.18-.13.27a3.21,3.21,0,0,1-1.59,1.36,1.86,1.86,0,0,1-1.64-.1c-1-.6-1.15-2.15-.36-3.45l.13-.17a1.76,1.76,0,0,1-.4-.85,4.31,4.31,0,0,0-.44.59c-1,1.69-.74,3.75.64,4.59a2.48,2.48,0,0,0,1.31.36,3.09,3.09,0,0,0,1.05-.2,4.05,4.05,0,0,0,2-1.7,4.25,4.25,0,0,0,.32-.64A1.66,1.66,0,0,1,274.73,78.17Z"/><path class="cls-2" d="M203.33,163.41l-33.65-76.7a24.09,24.09,0,0,0-24.46-14.55L75.53,79.28C69,79.81,64.36,86.82,66,93.1L86,181.18a20.8,20.8,0,0,0,24.71,16.34l84.43-17.68C202.25,178.53,206.41,169.9,203.33,163.41ZM195,179l-84.43,17.68C99.77,199,89.34,192.06,86.82,181l-20-88.08c-1.48-5.8,2.83-12.32,8.85-12.81L145.31,73a23.27,23.27,0,0,1,23.6,14.07l33.65,76.69a11.2,11.2,0,0,1-.31,9.67A10.62,10.62,0,0,1,195,179Z"/><path class="cls-2" d="M120.2,163.52a17.51,17.51,0,0,0-11.53-3c-11.8.67-19.5,12.93-11.87,21.59,0,0,0,.05,0,.07h0c5.75,6.78,18.51,6.88,24.8.4A12.06,12.06,0,0,0,120.2,163.52ZM97.55,181.66a6.41,6.41,0,0,1-.15-2.5c2.19-11.26,24.48-7.84,22.6,3.72C113.86,188.13,102.57,187.55,97.55,181.66ZM121,182c.41-5.65-5.43-9.81-10.93-10.48-6-1-13.76,2.25-13.52,8.79-6-8.8,2.83-19.34,13.63-19.08C121.65,161,130.12,173.06,121,182Z"/><path class="cls-2" d="M156.22,158.75a17,17,0,0,0-11.15-2.94c-11.43.65-18.86,12.51-11.49,20.89,0,0,0,0,0,.06h0c8.61,9.91,28.61,4.27,27.83-9.15A12,12,0,0,0,156.22,158.75ZM134.33,176.3a6.4,6.4,0,0,1-.15-2.42c.62-4.45,6-7.39,12.09-6.55,6.25.9,10.79,5.39,9.74,10.13C150.13,182.49,139.2,182,134.33,176.3Zm22.64.32c.35-4.75-4.28-9.23-10.58-10.11-7-.93-13.22,2.73-13.08,8.47-5.78-8.5,2.77-18.64,13.19-18.4C157.64,156.33,165.73,168,157,176.62Z"/><path class="cls-2" d="M182.8,151.48c-10.47-1.21-19.14,8.34-13.77,17.17v.06h0c6,10.14,25.18,8.79,26.77-3.88C196.47,158.23,190.63,152.24,182.8,151.48Zm-13,16.92a5.6,5.6,0,0,1,.25-2.2c1.26-3.93,6.63-5.73,12-4,4.57,1.36,9.1,6,7.21,10.69C183.09,176.39,173.63,174.53,169.84,168.4Zm20.5,3.82c2-11.34-19-16.36-21.27-5.29-3.62-8.16,4.84-15.71,13.65-14.62C193.93,153.23,199.73,165.72,190.34,172.22Z"/><path class="cls-2" d="M103.55,156.64c19.48-2.2,17.65-25.59-1.9-24.8-10.91.62-18,12-11,20,0,0,0,0,0,.05h0C93.54,155.12,98.62,157.07,103.55,156.64Zm-.55-24c11.14-.14,18.07,11.2,10,19,.35-11.54-22.15-13.7-22.62-1.58C85,142,93.11,132.41,103,132.62ZM91.43,151.4a5.92,5.92,0,0,1-.15-2.29c2-10.33,22.48-7.21,20.8,3.4C106.53,157.3,96,156.83,91.43,151.4Z"/><path class="cls-2" d="M124.61,146.9h0c8,9.17,26.46,3.95,25.74-8.46-.51-6.61-7.32-11.51-15.15-10.91-9.89.46-17.74,11.06-10.63,19.32C124.6,146.87,124.6,146.89,124.61,146.9Zm.74-.45a5.69,5.69,0,0,1-.14-2.21c2.22-10.3,21.91-6.51,20.08,3.28C139.93,152.13,129.78,151.69,125.35,146.45Zm11.17-18.13c10.74-.14,17.45,10.78,9.71,18.36.27-4.37-4-8.47-9.79-9.28-5.31-.89-12.19,2-12.1,7.74C118.94,136.83,127.67,128,136.52,128.32Z"/><path class="cls-2" d="M155.84,133.33a9.81,9.81,0,0,0,1.45,6.1v0h0c5.72,9.61,23.45,7.84,24.76-3.59C182.8,121.15,158,118.73,155.84,133.33Zm2.26,5.84a5.22,5.22,0,0,1,.23-2c3.34-8.69,20.68-2.86,17.63,6.12C170.4,146.5,161.54,144.81,158.1,139.17ZM177,142.61a4.78,4.78,0,0,1-.35,1.11,4.78,4.78,0,0,0,.35-1.11c1.91-10-17.22-15.27-19.69-4.9-3.21-7.48,4.55-14.33,12.61-13.34C180.24,125.21,185.54,136.66,177,142.61Z"/><path class="cls-2" d="M106,109.13a14.63,14.63,0,0,0-9.67-2.56c-9.91.58-16.38,10.83-10,18.14a.09.09,0,0,0,0,.05h0a13.82,13.82,0,0,0,10.44,4.41C108.48,129.35,115.77,116.35,106,109.13Zm-8.44-1.78c9.47-.26,16.52,9.72,9.12,17.12,0-10.75-20.21-12-20.58-1.46C81.3,115.68,88.64,107.16,97.51,107.35Zm-10.45,17a5.18,5.18,0,0,1-.13-2.07c.53-3.82,5.19-6.34,10.38-5.62,4.43.52,9.35,4.08,8.38,8.67C100.68,129.52,91.5,129.38,87.06,124.33Z"/><path class="cls-2" d="M137.23,120.61c8.15-8.26-.21-19-10.54-17.94-9.6.54-15.84,10.51-9.66,17.56a0,0,0,0,0,0,0h0C121.62,125.77,132.21,125.88,137.23,120.61Zm-9.35-17.16c9.08-.25,16,9.3,8.83,16.5.18-3.94-3.68-7.61-8.91-8.34-4.8-.81-11,1.73-11,6.92C112.25,111.46,119.33,103.26,127.88,103.45Zm-10.09,16.38a5.11,5.11,0,0,1-.13-2c2-9.28,19.79-5.84,18.11,3C131,125,121.7,124.51,117.79,119.83Z"/><path class="cls-2" d="M145.33,108a8.89,8.89,0,0,0,1.32,5.53v0h0c5.19,8.75,21.32,7.15,22.51-3.25C169.72,96.56,147.07,95,145.33,108Zm2.14,5.29a4.78,4.78,0,0,1,.19-1.81c2.91-7.82,18.71-2.52,15.91,5.5C158.55,119.83,150.59,118.32,147.47,113.25Zm17.17,3c1.48-9-15.51-13.71-17.93-4.48C144,105.06,150.93,99,158.15,99.88,166.84,100.46,172.52,110.52,164.64,116.27Z"/><path class="cls-2" d="M101.54,101.32c7.35-7.38-.21-17.13-9.48-16.15-8.62.49-14.24,9.46-8.69,15.8v0h0C87.49,106,97,106.06,101.54,101.32Zm-17.4-.74A4.55,4.55,0,0,1,84,98.82c1.58-8,17.39-5.58,16.15,2.61C95.87,105.14,87.65,104.73,84.14,100.58ZM82,95.81c-.49-5.27,5-9.94,11.13-9.85,8-.23,14.2,8.17,8,14.62C101,91.73,84,90.05,83.15,99.28A7.75,7.75,0,0,1,82,95.81Z"/><path class="cls-2" d="M110,97.1h0c6.28,7.29,21,3.17,20.37-6.67-.4-5.24-5.77-9.1-12-8.64-8.35.47-13.78,9.15-8.41,15.29Zm.77-.41a4.62,4.62,0,0,1-.12-1.69c1.2-7.39,16.7-5.69,15.58,2.51C122.16,101.06,114.11,100.71,110.76,96.69Zm8.67-14.11c8.18-.14,13.49,8.18,7.73,14.07-.31-8.83-16.76-9.82-17.38-1.25C106.08,89.32,112.14,82.43,119.43,82.58Z"/><path class="cls-2" d="M138.05,91.37h0c2.76,5,11.16,6.64,15.93,3.12,7.33-5.08,2.91-15-5.86-15.71C141,77.83,134,84.54,138.05,91.33Zm.82-.27a3.93,3.93,0,0,1,.17-1.53c2.58-6.69,16-2.21,13.67,4.72C148.39,96.86,141.3,95.25,138.87,91.1Zm9.19-11.5c7.82.61,12.09,9.31,5.7,14,1.14-7.71-13.38-11.76-15.6-3.9C135.83,83.75,142.34,78.78,148.06,79.6Z"/><path class="cls-2" d="M96.71,99.56l-9.59-1.34a.42.42,0,0,0-.11.83l9.58,1.33A.41.41,0,0,0,96.71,99.56Z"/><path class="cls-2" d="M95.47,101.36l-7.65-1.06a.41.41,0,0,0-.47.35.41.41,0,0,0,.35.47l7.66,1.07A.42.42,0,0,0,95.47,101.36Z"/><path class="cls-2" d="M123.82,95.53l-9.59-1.34a.42.42,0,0,0-.11.83l9.58,1.33A.41.41,0,0,0,123.82,95.53Z"/><path class="cls-2" d="M122.58,97.34l-7.65-1.07a.41.41,0,0,0-.47.35.42.42,0,0,0,.35.47l7.66,1.07A.41.41,0,0,0,122.58,97.34Z"/><path class="cls-2" d="M150.94,91.39l-9.58-1.33a.41.41,0,0,0-.12.82l9.59,1.34A.42.42,0,0,0,150.94,91.39Z"/><path class="cls-2" d="M149.71,93.2l-7.66-1.07a.41.41,0,0,0-.11.82L149.59,94A.41.41,0,0,0,149.71,93.2Z"/><path class="cls-2" d="M101.88,123.27l-10.43-1.46a.41.41,0,1,0-.11.82l10.42,1.46A.41.41,0,0,0,101.88,123.27Z"/><path class="cls-2" d="M100.53,125.23l-8.32-1.16a.41.41,0,1,0-.12.82l8.33,1.16A.41.41,0,0,0,100.53,125.23Z"/><path class="cls-2" d="M132.24,119.1l-10.43-1.46a.42.42,0,0,0-.11.83l10.42,1.45A.41.41,0,0,0,132.24,119.1Z"/><path class="cls-2" d="M130.89,121.06l-8.32-1.16a.41.41,0,0,0-.47.36.41.41,0,0,0,.35.46l8.33,1.17A.42.42,0,0,0,130.89,121.06Z"/><path class="cls-2" d="M161,113.62l-10.43-1.46c-.53-.09-.64.76-.11.83l10.42,1.45A.41.41,0,0,0,161,113.62Z"/><path class="cls-2" d="M159.64,115.58l-8.33-1.16a.41.41,0,0,0-.12.82l8.33,1.16A.41.41,0,0,0,159.64,115.58Z"/><path class="cls-2" d="M107.37,150.67l-11.23-1.56a.4.4,0,0,0-.47.35.42.42,0,0,0,.36.47l11.22,1.56A.41.41,0,0,0,107.37,150.67Z"/><path class="cls-2" d="M105.92,152.78l-9-1.25a.42.42,0,0,0-.12.83l9,1.25A.42.42,0,0,0,105.92,152.78Z"/><path class="cls-2" d="M140.93,145.24l-11.23-1.56a.41.41,0,0,0-.47.35.42.42,0,0,0,.36.47l11.22,1.57A.42.42,0,0,0,140.93,145.24Z"/><path class="cls-2" d="M139.48,147.36l-9-1.25a.41.41,0,1,0-.12.82l9,1.25A.41.41,0,0,0,139.48,147.36Z"/><path class="cls-2" d="M173.4,139.62l-11.22-1.56a.41.41,0,1,0-.12.82l11.23,1.57A.42.42,0,0,0,173.4,139.62Z"/><path class="cls-2" d="M172,141.74l-9-1.25a.41.41,0,0,0-.12.82l9,1.25A.41.41,0,0,0,172,141.74Z"/><path class="cls-2" d="M114.63,181.77l-12.19-1.7a.42.42,0,0,0-.12.83l12.19,1.7A.42.42,0,0,0,114.63,181.77Z"/><path class="cls-2" d="M113.05,184.07l-9.73-1.36a.41.41,0,1,0-.11.82l9.73,1.36A.41.41,0,0,0,113.05,184.07Z"/><path class="cls-2" d="M151,175.88l-12.19-1.7a.42.42,0,0,0-.47.36.43.43,0,0,0,.36.47l12.19,1.69A.41.41,0,0,0,151,175.88Z"/><path class="cls-2" d="M149.42,178.18l-9.73-1.36a.41.41,0,0,0-.47.35.4.4,0,0,0,.35.47L149.3,179A.41.41,0,0,0,149.42,178.18Z"/><path class="cls-2" d="M186.25,169l-12.19-1.7a.41.41,0,0,0-.47.35.42.42,0,0,0,.36.47l12.18,1.7A.41.41,0,0,0,186.25,169Z"/><path class="cls-2" d="M184.68,171.27l-9.74-1.35c-.53-.1-.65.76-.11.82l9.73,1.36A.42.42,0,0,0,184.68,171.27Z"/></svg>