<svg id="Layer_1" data-name="Layer 1" xmlns="http://www.w3.org/2000/svg" viewBox="0 0 270 270"><defs><style>.cls-1{fill:#efe8f2;}</style></defs><path class="cls-1" d="M136.37,198.83c.35-2.22,2.48-11.48,2.37-13.53V73.72a3.71,3.71,0,0,0-1.09-2.64,3.77,3.77,0,0,0-6.39,2.64V185.37a14.32,14.32,0,0,0,.24,2.61l2,10.84A1.47,1.47,0,0,0,136.37,198.83ZM135,71.09a2.64,2.64,0,0,1,2.63,2.63v7.33h-5.26V73.72A2.63,2.63,0,0,1,135,71.09Zm2.63,11.07V85.5h-5.26V82.16Zm-5.26,103.21V86.61h5.26V185.3c.07,1.78-.88,5.54-1.18,7.32h-3C133.21,190.87,132.3,187.08,132.37,185.37Zm2.56,13.54a.34.34,0,0,1-.35-.29l-.9-4.89h2.55l-.95,4.89A.34.34,0,0,1,134.93,198.91Z"/></svg>