<svg id="Layer_1" data-name="Layer 1" xmlns="http://www.w3.org/2000/svg" viewBox="0 0 270 270"><defs><style>.cls-1{fill:#efe8f2;}</style></defs><path class="cls-1" d="M190.49,130.87c-.38-19.09-34.5-26.59-53.7-18.6l-49.43-29c-3.23-2.11-8.33-.74-7.81,3.47l0,4.69a4.62,4.62,0,0,0,2.26,3.94l42.26,25.13c-5.27,5.71-5.73,13.69-.87,19.71,9.59,28.73,54.45,28.81,63.78.09A15.19,15.19,0,0,0,190.49,130.87ZM82,83.5a5.36,5.36,0,0,1,4.91.48l48.87,28.67a36.25,36.25,0,0,0-7.73,4.24L83.15,90.43a5.5,5.5,0,0,1-2.77-3.76,2.51,2.51,0,0,0,0-.55A2.83,2.83,0,0,1,82,83.5Zm.23,11.14a3.81,3.81,0,0,1-1.85-3.23l0-2.48a7,7,0,0,0,2.34,2.21l44.64,26.3a26.36,26.36,0,0,0-2.69,2.42Zm72.89,15.28c19,0,34.51,9.4,34.51,21-1.69,27.76-67.34,27.74-69,0C120.65,119.32,136.13,109.92,155.15,109.92Zm0,51.17c-13.48,0-25.64-7.75-30.38-19.1,13.15,14.12,47.64,14.1,60.76,0C181,153.32,168.81,161.09,155.16,161.09Z"/><path class="cls-1" d="M154.7,146.64c9.69,0,18.28-2.66,23.57-6.75a.39.39,0,0,0,.25-.17.39.39,0,0,0,.31-.28C193,126.57,174.45,114,154.7,114.18,114.59,115.63,117.55,146.08,154.7,146.64ZM131.3,139c.65-4.83,4.67-7.2,9.59-7.38a7.88,7.88,0,0,0,5-2.21c5.12-5,13.8-4.17,17.95.59a6.34,6.34,0,0,0,4.38,1.94c5,.21,9,2.74,9.55,7.33C167.1,148,141.83,147.92,131.3,139Zm47.44-.55c-.88-4.68-5.09-7.29-10.27-7.51a5.5,5.5,0,0,1-3.81-1.68c-4.73-5.34-14-5.78-19.62-.29a6.13,6.13,0,0,1-3.93,1.65c-5,.24-9.82,2.69-10.66,7.63a13.8,13.8,0,0,1-2.76-3.41c6.17-16.71,48.29-16.51,53.9.23A13.9,13.9,0,0,1,178.74,138.47ZM154.7,115c16.74.17,31.74,7.89,27.38,19.15-6.55-16.64-48-16.77-54.88-.29C123.24,122.78,138.05,115.18,154.7,115Z"/><path class="cls-1" d="M152.9,130.05a.59.59,0,0,0,0,1.18A.59.59,0,0,0,152.9,130.05Zm-.25.59a.25.25,0,0,1,.49,0C153.14,130.91,152.65,130.91,152.65,130.64Z"/><path class="cls-1" d="M157.49,131.37a.59.59,0,0,0,0,1.18A.59.59,0,0,0,157.49,131.37Zm-.25.59a.25.25,0,0,1,.49,0C157.73,132.23,157.24,132.23,157.24,132Z"/><path class="cls-1" d="M137.38,135.11a.59.59,0,0,0,0,1.17A.59.59,0,0,0,137.38,135.11Zm-.24.58c0-.31.49-.31.49,0S137.14,136,137.14,135.69Z"/><path class="cls-1" d="M169.71,137.06a.59.59,0,0,0,0,1.17A.59.59,0,0,0,169.71,137.06Zm-.25.59a.25.25,0,0,1,.49,0C170,137.92,169.46,137.92,169.46,137.65Z"/><path class="cls-1" d="M164.56,140a.59.59,0,0,0,0,1.17A.59.59,0,0,0,164.56,140Zm-.25.58a.25.25,0,0,1,.49,0C164.8,140.86,164.31,140.86,164.31,140.59Z"/><path class="cls-1" d="M141.27,137.79a.59.59,0,0,0,0,1.17A.59.59,0,0,0,141.27,137.79Zm-.24.58c0-.31.49-.31.49,0S141,138.65,141,138.37Z"/><path class="cls-1" d="M132.47,149.77a.58.58,0,0,0,.25,1.14A.58.58,0,0,0,132.47,149.77Zm.36.52a.25.25,0,0,1-.48.1.25.25,0,0,1,.48-.1h0l-.07,0Z"/><path class="cls-1" d="M139.38,154.57a.59.59,0,0,0-1.15.25.59.59,0,0,0,1.15-.25Zm-.37.26a.24.24,0,0,1-.44-.08l.4-.09-.4.09C138.5,154.29,139.23,154.42,139,154.83Z"/><path class="cls-1" d="M177.72,149a.59.59,0,0,0,.91.74A.59.59,0,0,0,177.72,149Zm.65.52a.25.25,0,0,1-.38-.31C178.18,149,178.57,149.32,178.37,149.56Z"/><path class="cls-1" d="M157.44,157.61a.59.59,0,0,0,.91.74A.59.59,0,0,0,157.44,157.61Zm.65.52c-.2.25-.59-.07-.38-.31S158.29,157.89,158.09,158.13Z"/><path class="cls-1" d="M149,164.45a.59.59,0,0,0,.91.74A.59.59,0,0,0,149,164.45Zm.64.53c-.19.25-.58-.07-.38-.31h0C149.45,164.42,149.84,164.74,149.63,165Z"/><path class="cls-1" d="M166.05,166.7a.59.59,0,0,0,.06,1.17A.59.59,0,1,0,166.05,166.7Zm.25.74a.25.25,0,0,1-.38-.31C166.12,166.88,166.5,167.2,166.3,167.44Z"/><path class="cls-1" d="M157,173.81a.59.59,0,0,0,.06,1.17A.59.59,0,1,0,157,173.81Zm.25.74c-.21.25-.59-.07-.39-.31A.25.25,0,0,1,157.28,174.55Z"/><path class="cls-1" d="M159.25,169.37a.59.59,0,0,0,.11,1.17A.59.59,0,0,0,159.25,169.37Zm.24.74c-.2.25-.58-.07-.38-.31S159.7,169.87,159.49,170.11Z"/><path class="cls-1" d="M164.79,179.35a.59.59,0,0,0,.06,1.17A.59.59,0,1,0,164.79,179.35Zm.25.74c-.2.25-.59-.07-.38-.31S165.24,179.85,165,180.09Z"/><path class="cls-1" d="M147.76,170.69a.59.59,0,0,0,.91.75A.59.59,0,0,0,147.76,170.69Zm.64.53c-.2.25-.58-.07-.38-.31S148.61,171,148.4,171.22Z"/><path class="cls-1" d="M170.19,185.1a.58.58,0,0,0,.9.74A.58.58,0,0,0,170.19,185.1Zm.64.53c-.2.25-.59-.07-.38-.31h0C170.65,185.07,171,185.39,170.83,185.63Z"/><path class="cls-1" d="M152.33,183.25a.61.61,0,0,0-.39.21.59.59,0,1,0,.39-.21Zm.25.74-.32-.26.32.27c-.2.24-.58-.08-.38-.32S152.79,183.75,152.58,184Z"/><path class="cls-1" d="M142,178a.59.59,0,0,0,.9.75A.59.59,0,0,0,142,178Zm.64.53c-.2.25-.59-.07-.38-.31S142.79,178.33,142.59,178.57Z"/><path class="cls-1" d="M172.63,175.67a.59.59,0,0,0,.91.74A.59.59,0,0,0,172.63,175.67Zm.65.52c-.2.25-.59-.07-.38-.31S173.48,176,173.28,176.19Z"/><path class="cls-1" d="M161.54,186.75a.59.59,0,0,0,.91.75A.59.59,0,0,0,161.54,186.75Zm.65.53c-.2.25-.59-.07-.38-.31S162.39,187,162.19,187.28Z"/></svg>