<svg id="Layer_1" data-name="Layer 1" xmlns="http://www.w3.org/2000/svg" viewBox="0 0 270 270"><defs><style>.cls-1{fill:#efe8f2;}</style></defs><path class="cls-1" d="M170.86,133.1c.13-3.73-3.62-7.36-5.94-8.16-2.65-7.93-10.95-11.27-16.19-11.28-10.42-9.07-29.56-2.19-34.5,1.22a4.93,4.93,0,0,0-2.08,2.62,4.88,4.88,0,0,0-.11,2.73,11,11,0,0,0-3.89,1.8c-4.44,3-9.59,9.48-7.51,15.92-4,3.13-3.93,11.29-2,14.72-1,8.21,10.12,11.78,12.92,3.32,1.85.06,6.29-1.87,6.9-4.82,4,.77,9.22-.35,12.12-3.59v0c6.6,1.23,14,.27,19.42-3.88a13.1,13.1,0,0,0,10.81-2.35,5.78,5.78,0,0,0,4.94.69l0,0c3,2.55,7.51.23,6.88-4.2A10.17,10.17,0,0,0,170.86,133.1Zm-60.28,23.15v0c0,.1-.1.21-.15.33a5.16,5.16,0,0,1-.24.47,5.89,5.89,0,0,1-2.11,2.22l0,0-.45.23-.18.07a5.67,5.67,0,0,1-.66.22,5.31,5.31,0,0,1-4.56-.83l-.17-.12h0a6.88,6.88,0,0,1-2.45-3.74,5.3,5.3,0,0,1-.11-2.37,6.35,6.35,0,0,1,3.94-2.16,6.85,6.85,0,0,1,4.3.82c.2.12.41.24.6.38l.1.07.35.29a6.25,6.25,0,0,1,2.06,3.41A6.82,6.82,0,0,1,110.58,156.25Zm5.75-3.24,0,.06-.1.08a7.53,7.53,0,0,1-4.64,2,7.06,7.06,0,0,0-2.29-3.63l-.38-.32-.06,0a7.65,7.65,0,0,0-5.57-1.34,7,7,0,0,0-4,2.06,13.37,13.37,0,0,1-.66-8.56c1-4.13,4.07-7.44,9.35-6.33a12,12,0,0,1,5.29,3s0,0,0,.05a17.71,17.71,0,0,1,4.47,7.84c.06.19.09.37.13.55A4.92,4.92,0,0,1,116.33,153Zm11.39-4.18a14,14,0,0,1-9.07,1.53,12.33,12.33,0,0,0-.51-3.79,16.06,16.06,0,0,0-4.3-7l-.15-.15-.34-.31a14,14,0,0,0-2.25-1.64l-.27-.16-.37-.19-.49-.24-.26-.11-.58-.22-.28-.1-.3-.1a9,9,0,0,0-2.71-.38h-.13l-.52,0-.48.06-.24,0a8.05,8.05,0,0,0-2.38.87,7.85,7.85,0,0,0-.73.44c-1.26-4.38,1-8.66,3.89-11.76l.27-.28,0,0c.5-.5,1-1,1.52-1.4s1-.84,1.56-1.2a10.32,10.32,0,0,1,3.81-1.72,9,9,0,0,1,1.36-.22,10.5,10.5,0,0,1,5.4,1,19.86,19.86,0,0,1,4.28,2.62l.29.23.11.09a21.69,21.69,0,0,1,6.51,9.74,20.65,20.65,0,0,1,.91,9c0,.21,0,.42-.07.63A6.39,6.39,0,0,1,127.72,148.83ZM148.26,144l-.09.06a24.62,24.62,0,0,1-8.25,2.89c-.72.12-1.45.21-2.18.26s-1.46.08-2.2.07-1.48,0-2.22-.12-1.48-.18-2.22-.31a10.86,10.86,0,0,0,1.06-3.47,20.37,20.37,0,0,0-.62-8,24.19,24.19,0,0,0-1.94-5l-.1-.2a1.74,1.74,0,0,1-.11-.18,23.9,23.9,0,0,0-3.63-4.7l-.24-.24-.34-.32a19.05,19.05,0,0,0-5.48-3.68l-.13-.07-.46-.2a12.19,12.19,0,0,0-6.28-.73h0a4.08,4.08,0,0,1,.09-2.3,4.15,4.15,0,0,1,1.72-2.18,37.62,37.62,0,0,1,11.76-4.6c7.46-1.67,16-1.54,21.54,3.12,3,2.53,5,6.38,5.53,12a.51.51,0,0,1,0,.13,30.17,30.17,0,0,1,0,5.85,25.2,25.2,0,0,1-2.09,8.15A8.48,8.48,0,0,1,148.26,144Zm12.9-4.07-.21.2-.37.34-.15.12a11,11,0,0,1-5.87,2.52h-.09c-.27,0-.55.06-.83.07h-1c-.3,0-.59,0-.89-.05s-.67-.08-1-.13a15.29,15.29,0,0,0,1.51-2.66,26.13,26.13,0,0,0,2-7.34,31.1,31.1,0,0,0,.25-3.76c0-.09,0-.18,0-.28,0-.4,0-.81,0-1.21s0-.92-.09-1.38c0-.16,0-.31,0-.47a23.82,23.82,0,0,0-1.16-5.39c-.12-.36-.24-.71-.38-1,0-.11-.09-.21-.13-.32a15.44,15.44,0,0,0-2.95-4.59,15.2,15.2,0,0,1,4.14.83,17.81,17.81,0,0,1,6.9,4.29c.06.06.13.12.19.19s.19.22.29.33a13.94,13.94,0,0,1,3,5.17,14.4,14.4,0,0,1,.76,4.14s0,.08,0,.12c0,.24,0,.47,0,.71l0,.53c0,.1,0,.2,0,.3a14.12,14.12,0,0,1-2.69,7.51.1.1,0,0,0,0,0c-.12.16-.25.31-.38.47l-.12.15-.3.31C161.33,139.75,161.25,139.85,161.16,139.94Zm3.6,1.52a4.23,4.23,0,0,1-3.29-.64,10,10,0,0,0,2.58-3.31,17.42,17.42,0,0,0,1.72-7.69,12.53,12.53,0,0,0-.52-3.79,7.48,7.48,0,0,1,2.14,1.51A9.15,9.15,0,0,1,170,132.6a6.36,6.36,0,0,1-.23,2.9v0l-.09.31a10.31,10.31,0,0,1-1.19,2.63A6.49,6.49,0,0,1,164.76,141.46Zm7-2.6a3.5,3.5,0,0,1-1.62,3l-.19.1a3.08,3.08,0,0,1-1.79.28,3.12,3.12,0,0,1-1.64-.59,8.69,8.69,0,0,0,1.56-1.34,10.77,10.77,0,0,0,.74-.93l.3-.44.13-.19c.18-.29.34-.59.5-.9a.41.41,0,0,1,.05-.09c.09-.2.17-.4.26-.61s.14-.33.2-.5a.08.08,0,0,0,0,0,10.26,10.26,0,0,0,.49-2,9.21,9.21,0,0,1,1,3.91C171.81,138.64,171.8,138.75,171.79,138.86Z"/><path class="cls-1" d="M120.5,142.45a20.16,20.16,0,0,0-1.46-2.9,13.89,13.89,0,0,0-8.21-6.46.38.38,0,0,0-.3,0h0l0,0a.45.45,0,0,0-.13.47.37.37,0,0,0,.28.26c.28.07.56.16.83.25a10.5,10.5,0,0,1,1.61.71,13.44,13.44,0,0,1,4.17,3.55,17.62,17.62,0,0,1,1.12,1.61,17.1,17.1,0,0,1,1,1.8c.22.47.43,1,.61,1.46s.36,1,.51,1.56a.6.6,0,0,0,.08.16.39.39,0,0,0,.43.11.38.38,0,0,0,.29-.5A22,22,0,0,0,120.5,142.45Z"/><path class="cls-1" d="M107.43,147.33a7.37,7.37,0,0,0-6.23.93.36.36,0,0,0-.16.19v0a.41.41,0,0,0,0,.22l0,.06a.75.75,0,0,0,.07.12l.07.07a.38.38,0,0,0,.21.07h0a8.29,8.29,0,0,1,.84-.43,8,8,0,0,1,2.59-.72h.34a5.73,5.73,0,0,1,2,.27m0,0h0a4.39,4.39,0,0,1,.87.33,7.14,7.14,0,0,1,1.08.69,8.1,8.1,0,0,0,.94.63h0c.47-.16.48-.43.25-.73a5.56,5.56,0,0,0-1.69-1.2,5.9,5.9,0,0,0-1.21-.5"/><path class="cls-1" d="M128.48,120.73a.39.39,0,0,0-.28-.09h-.06a.45.45,0,0,0-.34.36.36.36,0,0,0,.11.34l0,0h0a22.4,22.4,0,0,1,4.66,5.69l.19.3a23.13,23.13,0,0,1,2.82,9.23,25.1,25.1,0,0,1-.12,5.5h0a.44.44,0,0,0,.1.32.42.42,0,0,0,.32.15l0,0a.39.39,0,0,0,.21-.08l0,0a.38.38,0,0,0,.13-.25A24.63,24.63,0,0,0,133.5,127,23.61,23.61,0,0,0,128.48,120.73Z"/><path class="cls-1" d="M122.65,116.91a.42.42,0,0,0-.56.19.42.42,0,0,0,.2.56,25.45,25.45,0,0,1,3.27,1.87.4.4,0,0,0,.23.08.42.42,0,0,0,.35-.19.4.4,0,0,0-.11-.57A26.7,26.7,0,0,0,122.65,116.91Z"/></svg>