<svg id="Layer_1" data-name="Layer 1" xmlns="http://www.w3.org/2000/svg" viewBox="0 0 270 270"><defs><style>.cls-1{fill:#efe8f2;}</style></defs><g id="Measuring_Cup" data-name="Measuring Cup"><path class="cls-1" d="M169.94,120.09c-1.24-2.12-5-1.65-7.16-1.78,0-.07,1.52-7.52,1.51-7.58a.45.45,0,0,0-.2-.37A55.75,55.75,0,0,0,148.26,104c-14.86-3.48-27.89,0-36.2,3.44-2,.93-8.17,1.11-10.29,1.43a.65.65,0,0,0-.28,0c-1.79,0-2.44,1.52-1.7,3l9.32,19.49a32.36,32.36,0,0,1,3.09,11,115.16,115.16,0,0,0,3.5,19.44c1.86,5.33,20,6.72,27.78,4.93,1.75-.34,10.37-2.17,10.54-4.77,0,0,2.31-11.53,2.32-11.54h1.75c2.39-.24,4.29-2.71,4.95-4.67l7.33-23.11A2.88,2.88,0,0,0,169.94,120.09Zm-68.28-10.43c2.24-.33,8.74-.52,10.72-1.5,12.69-6,34.75-7.39,50.62,2.52-14.86,7.07-35.73,10.76-55.42.17l-5.87,0C101,110.81,101.31,109.83,101.66,109.66ZM143.32,166c-11,2-24.35-.16-26.8-4.21.07-1.81,9.51-3.76,18.37-3.79s18.44,2.21,18.32,4C153.26,163.21,148.22,165,143.32,166Zm10.12-5.21c-6.39-4.74-30.1-4.86-37.18-.1A111.21,111.21,0,0,1,113,142.32,33.35,33.35,0,0,0,109.86,131l-9.32-19.49a1.48,1.48,0,0,1,0-1.48,1.28,1.28,0,0,0,1.2,1.64l5.87,0c19.77,10.74,40.93,6.79,55.75-.26l-1.38,6.87-2.28-.07c-1.75-.22-3.07,2.12-4.1,3.14a1,1,0,0,0,.82,1.56l4.59.2-4.42,22.1c-4.74-.05-4.23-.48-6.67,3.59a1,1,0,0,0,.91,1.61l4.71,0Zm9.78-37.52c1.49,0,3,1.18,2.58,2.68l-5.62,19.34-2.79,0,4.42-22.06Zm6.37-.79-7.34,23.11a7.05,7.05,0,0,1-3.22,3.84c-.3.49-7.66.13-8.24.22a.33.33,0,0,1-.31-.15l1.75-2.86a1.41,1.41,0,0,1,1.2-.57l6.51,0-.29,1a1.88,1.88,0,0,1-1.94,1.14.43.43,0,0,0-.44.39.41.41,0,0,0,.4.43,2.69,2.69,0,0,0,2.78-1.73l6.15-21.14a2.59,2.59,0,0,0-.41-2.26,3.78,3.78,0,0,0-2.94-1.47l-6.84-.31a.21.21,0,0,1-.23-.19l2-2.3a1.85,1.85,0,0,1,1.42-.55l2.52.07a.18.18,0,0,0,.16,0l4.2.12C168.31,119.26,170.11,120.64,169.59,122.43Z"/><path class="cls-1" d="M107.33,112.82a.41.41,0,0,0-.42.41l0,8.2a.41.41,0,1,0,.82,0l0-8.2A.41.41,0,0,0,107.33,112.82Z"/><path class="cls-1" d="M105,112.81a.41.41,0,0,0-.42.41l0,3.86a.42.42,0,0,0,.83,0l0-3.86A.41.41,0,0,0,105,112.81Z"/></g><path class="cls-1" d="M139,136.61a52,52,0,0,1-13.16.56.39.39,0,1,0,0,.77,47,47,0,0,0,13.31-.52C140.1,137.22,139.6,136.5,139,136.61Z"/><path class="cls-1" d="M139.55,146.3a52,52,0,0,1-13.16.56.39.39,0,1,0,0,.77,47.33,47.33,0,0,0,13.31-.52C140.64,146.91,140.14,146.19,139.55,146.3Z"/><path class="cls-1" d="M139,141.73a49.55,49.55,0,0,1-20.88-.78c-.18,0-.34.09-.35.35a.55.55,0,0,0,.44.51h0c6.49,1.72,15.9,1.9,20.94.74C140.1,142.34,139.6,141.62,139,141.73Z"/><path class="cls-1" d="M140.32,151c-7.31,1.3-15.67.8-21.16-.87-.18-.05-.35.1-.35.35a.54.54,0,0,0,.44.51h0c6.51,1.8,16.12,2,21.23.82C141.41,151.59,140.92,150.88,140.32,151Z"/></svg>