<svg id="Layer_1" data-name="Layer 1" xmlns="http://www.w3.org/2000/svg" viewBox="0 0 270 270"><defs><style>.cls-1{fill:#efe8f2;}</style></defs><g id="Measuring_Spoons" data-name="Measuring Spoons"><path class="cls-1" d="M182.45,116.75a4.81,4.81,0,0,0-2.22-4c-4.31-2.54-10.37,3.91-10.16,9a6.38,6.38,0,0,0-2.41,1.48l-1.91.15-43.68-8.52a7,7,0,0,0-3.87.49c-3.25-8.2-17.8-11-25.58-5.84-8.68,5.3-5.57,15.3,4,18.51-6.08,7.2,2.13,15.77,11.55,15.64-3.38,5,1.07,10.76,7.71,12.23,6.57,1.69,14.76-2.89,11.45-9.72a2,2,0,0,1,1.24-1.88L153,135.45l-11.67,9.76a11.36,11.36,0,0,0-1.87,4.41c-4.46-1.89-11.49-.8-12.69,4.3-.83,3.8,2.66,7.79,7.78,8.91,4.17,1.06,10.12-.53,10.89-5.72a5.6,5.6,0,0,0-1.29-4c.47-.83.16-3.26,1.39-4l27.87-20a5,5,0,0,0,1.74-2.38C179.12,126.49,182.86,120.77,182.45,116.75Zm-55.21,32.42a6.53,6.53,0,0,1-3.9,2.74.4.4,0,0,0,.07-.51,5.52,5.52,0,0,0-9.31,0,9.27,9.27,0,0,1-6-5.88C111.42,137.48,127,140.72,127.24,149.17ZM123,152a14.49,14.49,0,0,1-8.07-.34,4.68,4.68,0,0,1,7.8.16A.41.41,0,0,0,123,152Zm1.07-9.94-.1.29a13.88,13.88,0,0,0-5.82-2.16,8,8,0,0,0,2.51-8.54,3.19,3.19,0,0,1,2.31-1.21l36.84-2.59-34.59,13A2,2,0,0,0,124,142.08Zm-10.36-3.78c-2.26-4-8.55-4.05-10.91-.11-3.71-1.11-6.5-3.19-7.32-5.66a7.41,7.41,0,0,1,2.13-4.37.36.36,0,0,0,.25-.26c6.13-6,20.79-3.79,22.3,5.43C119.18,135.56,116.89,137.35,113.68,138.3Zm-.84.24a19.18,19.18,0,0,1-9.22-.11A5.62,5.62,0,0,1,112.84,138.54Zm-9.57-14.39a27.49,27.49,0,0,1-5.22-.7,7.12,7.12,0,0,1,11.85-.13c-.53.16-1.08.3-1.64.43a17.19,17.19,0,0,0-5,.41Zm15.15,3.94a12.8,12.8,0,0,0-3.33-2.48,9.05,9.05,0,0,0,3.75-7.14,5.08,5.08,0,0,1,2.51-.08l27.29,6.19-27.23,2A5.29,5.29,0,0,0,118.42,128.09Zm-4.16-2.89a16.83,16.83,0,0,0-3.82-1.18c3.4-1.1,6.19-2.92,7.56-4.94A8.7,8.7,0,0,1,114.26,125.2Zm49.61,1.13-1.37.52-39.61,2.78a3.91,3.91,0,0,0-2.59,1.18,9.2,9.2,0,0,0-1.33-2.09,4.57,4.57,0,0,1,2.5-1.28l44.23-3.3a.2.2,0,0,0,.11,0l.75-.06Zm-44.44-10.57a5,5,0,0,1,2.48-.15l40.69,7.93-11.13.83-29.94-6.79a5.69,5.69,0,0,0-2.72,0,8.06,8.06,0,0,0-.33-1.55Zm-26.37-5.61c7.89-5.26,23.64-1.73,24.89,7.34-1,2.23-3.52,4.28-7.22,5.56-2.92-5-10.74-4.83-13.54.18h0c-4.43-1.22-7.78-3.53-8.83-6.31C88.6,114.28,90.25,111.88,93.06,110.15Zm-4.62,8.64c2.16,3.1,7,5.42,12.73,6a12.58,12.58,0,0,0-3.91,2.46C92.4,125.67,89.07,122.4,88.44,118.79Zm18.67,23.93c-6-.45-10.81-4-11.59-8.26,4.51,6.6,19.78,7.47,24.58.61a7.83,7.83,0,0,1-3.16,5,10.56,10.56,0,0,0-8,2.66A15.33,15.33,0,0,1,107.11,142.72Zm9,12.28c-4.8-1-8.22-4.43-8.21-7.89,2.38,5.82,14.35,8.43,19.08,3.72C125.73,154.22,121.05,156.07,116.08,155Zm12.23-11.56a2.67,2.67,0,0,0-1.6,1.6,9.89,9.89,0,0,0-2.07-2.17c.15-.45.33-1,.85-1.18L161.93,128l-7.1,5.94Zm12.82,18.06c-4.84,2.42-13.46-1-13.67-6.15,2.53,4.88,12.1,7,16.64,3.51A5.89,5.89,0,0,1,141.13,161.5Zm-7.25-2.38c1.77-2.33,4.92-1.88,6.48.4A13.17,13.17,0,0,1,133.88,159.12Zm10.69-1.94a6.05,6.05,0,0,1-3.76,2.24.4.4,0,0,0,.05-.5,4.65,4.65,0,0,0-7.79-.09c-2.83-1.13-5-3.16-5.39-5.21C130.62,146.44,144.76,149.53,144.57,157.18Zm29.94-31.43a4.1,4.1,0,0,1-1.62,2.7l-27.87,20c-1.32.84-1.26,2.55-1.53,3.89a10.47,10.47,0,0,0-3.23-2.35c-.16-.95,1.27-3.78,1.58-4.12,0,0,27.12-23.16,28.28-23.3a5.79,5.79,0,0,0,.71,2.3.42.42,0,0,0,.57.14.41.41,0,0,0,.15-.57,4.91,4.91,0,0,1-.61-2.07A3,3,0,0,1,174.51,125.75Zm5.79-3.88a8.27,8.27,0,0,1-5,4,3.84,3.84,0,0,0-4.4-4.42c-.13-4.34,5.26-10.25,8.9-8.07C182.46,115.13,181.86,119.26,180.3,121.87Z"/><path class="cls-1" d="M141.94,148.9a.41.41,0,0,0-.46.69c.45.24,1.12,1,1.48.51S142.35,149.24,141.94,148.9Z"/></g></svg>