<svg id="Layer_1" data-name="Layer 1" xmlns="http://www.w3.org/2000/svg" viewBox="0 0 270 270"><defs><style>.cls-1{fill:#efe8f2;}</style></defs><g id="Color_Swatches" data-name="Color Swatches"><path class="cls-1" d="M170.1,126.89a5.11,5.11,0,0,0-1.46-3.68l-12.32-12.75c-2.65-2.81-6.63-1.48-8.75,1.26,1.71-3.63,3-8-1.66-10L131.1,96a5.18,5.18,0,0,0-6.38,2.35c-1.28-1.24-17.12-.39-19-.63a5.9,5.9,0,0,0-5.88,5.88v65a5.88,5.88,0,0,0,5.88,5.88h16.32a5.88,5.88,0,0,0,5.75-4.67.57.57,0,0,0,.27-.13l11.23-10.86a.5.5,0,0,0,.33-.32l21.74-21C163.19,135.18,170.46,130.18,170.1,126.89ZM130.7,97c19.58,8.47,20.6,2.62,12.47,23L128,114.17V103.55a5.89,5.89,0,0,0-2.31-4.66A4.06,4.06,0,0,1,130.7,97Zm18.89,50.28-11.27-11.62L144,121.07,144,121l16.17,16Zm-10.45,10.11-6.53-6.93.69-1.81a.52.52,0,0,0,.3-.77l4.28-11.08L148.8,148Zm-6.54-10L128,145.81V131.33l9.52,3.41Zm5.28-13.67L128,130.15V115.36l14.8,5.7ZM128,147l4.23,1.43-.68,1.77a.56.56,0,0,0-.14.36L128,159.37Zm-5.88,26.31H105.77a4.78,4.78,0,0,1-4.77-4.78v-65a4.78,4.78,0,0,1,4.77-4.77c1.72.22,17.63-.64,18.74.69a.46.46,0,0,0,.3.17,4.8,4.8,0,0,1,2,3.91v58.72a.48.48,0,0,0,0,.29C126.8,166.54,128,173.14,122.09,173.29Zm5.88-5.11v-5.73l4.19-10.86,6.18,6.56Zm33-31.92c-.15-.1-16.39-16.34-16.57-16.38l2.2-5.7c2.31-2.32,5.6-6.26,8.9-3L167.85,124a4.08,4.08,0,0,1-.1,5.74Z"/><path class="cls-1" d="M114.29,158.84c-5.6,0-5.61,8.54,0,8.57S119.89,158.87,114.29,158.84Zm0,7.46c-4.12.06-4.12-6.41,0-6.35S118.41,166.36,114.29,166.3Z"/></g></svg>