<svg id="Layer_1" data-name="Layer 1" xmlns="http://www.w3.org/2000/svg" viewBox="0 0 270 270"><defs><style>.cls-1{fill:#efe8f2;}</style></defs><g id="Ink_Pen" data-name="Ink Pen"><path class="cls-1" d="M135.5,75.31a2.44,2.44,0,0,0-1.17,0,2.58,2.58,0,1,0,1.17,0Zm-.57,3.94a1.42,1.42,0,0,1,0-2.84h0A1.42,1.42,0,0,1,134.93,79.25Z"/><path class="cls-1" d="M139.64,95.44c.36,0,1,.07,1.09-.37m0,0a.54.54,0,0,0,.05-.22l0-6.4,2.64-8A2.65,2.65,0,0,0,143,78a37.24,37.24,0,0,1-7.26-17.46.59.59,0,0,0-1.15,0,48,48,0,0,1-7.6,17.6,2.71,2.71,0,0,0-.37,2.37l2.43,7.8a2,2,0,0,1,0,.28s0,6.56.07,6.63c-2.48,3.78-2.52,11.21,0,15.07-.85,10.09-1.83,26.42-1.7,47.18.08,12.84.57,25.35,1.46,37.19a30.64,30.64,0,0,0,3.38,11.87c1.89,4,3.62,5.3,6,.37a30.5,30.5,0,0,0,3.55-12.66c.66-11.58,1-23.71,1-36.07,0-20.87-1.08-37.58-2-48,2.4-4.22,2-11.63-.12-15.06-.14.44-.73.37-1.09.37,1.89,3.2,2.45,10,.25,14l-9.81,0c-2.39-3.84-2.12-10.38.14-14l9.42,0M127.71,80.07a1.55,1.55,0,0,1,.22-1.35,49,49,0,0,0,6.44-13l0,9.64a2.33,2.33,0,0,1,.59-.08,2.25,2.25,0,0,1,.58.08l0-10a38.31,38.31,0,0,0,6.51,13.25,1.49,1.49,0,0,1,.23,1.4l-2.45,7.35-9.82,0Zm11.87,8.51v1.14l-9.36,0V88.62Zm-9.35,2.35,9.36-.05,0,3.39-9.37,0Zm5.12,117.93c-.5,0-1.5-1.92-2-3a29.59,29.59,0,0,1-3.25-11.42c-2.12-23.41-1.66-65.68.21-83.82l9.45,0c1.83,18.26,2.64,59.81,1,83.47a29.19,29.19,0,0,1-3.41,12.18C136.89,207,135.88,208.86,135.35,208.86Z"/></g></svg>