<svg id="Layer_1" data-name="Layer 1" xmlns="http://www.w3.org/2000/svg" viewBox="0 0 270 270"><defs><style>.cls-1{fill:#efe8f2;}</style></defs><path class="cls-1" d="M212.71,124.71c-7.39-4.74-12.28-4.91-16.21-5-5.41.06-8.59-1.27-13.54-6.94l5.75-2a3.74,3.74,0,0,0,1.43-.51c3.3-1.8,4.45-7.54,3.51-13.17l.3-.36,19.73-3.45c7.69-2.49,4.37-13.77-3.47-11.66l-18.34,8.2-.48-.05s0,0,0,0h0s0,0,0,0l-.09-.18,0-.06h0c-3.12-6.23-7.44-9.73-11.61-7.62l-13.47,4.09h0l-1.5.45c-4.79-11.71-13.18-23.75-23.93-14.25-7.76,6.25-16.4,8.54-25.93,6-13.19-3.91-43.69,1.52-46.94,17-.81,5,3.64,10.06,12.69,18.06-2,2.54-2.81,6.87-2.21,12l-1.57,1.84-29.36,5.13c-11.08,3.65-6.31,19.78,5,16.81l27.3-12.2,2.57.25c3.37,5.7,8.12,9.43,12.76,6.44l13.3-4.66c3.4,5.58,2.45,10.93,2.34,17.23,0,7.37.12,26.95,10.43,37.18C134.77,206.76,166.46,202,178,188c8.27-10.18,24.68-16.72,35.07-18,6.25-1.17,10.76-2,13.57-6.73C232.75,153.05,225.44,132.88,212.71,124.71ZM192.19,90.83,210.6,82.6c6.34-1.64,9,7.47,2.83,9.54-.23.08-19.84,3.4-20,3.54,0-.07-.09-.41-.09-.41s-1.2-4.08-1.41-4.39A.52.52,0,0,0,192.19,90.83ZM68.71,95.32c1.74-10.73,20-16.4,31.07-17.45A46.93,46.93,0,0,1,114.67,79c9.78,2.57,18.63.22,26.59-6.18,10.26-9,18,2.62,22.62,13.84-.13.06-1.28.41-1.51.48h0c-10.93,3.42-77.24,23.55-79.52,24.25a4.35,4.35,0,0,0-1.72,1.24C72.3,104.82,68,99.94,68.71,95.32Zm11,40.41c-.51,0-27.2,12.15-27.64,12.28-9.78,2.53-13.89-11.53-4.33-14.69l29.49-5.15a.53.53,0,0,0,.33-.19l3.88-4.54c1.4-1.44,4.8,3.55,5.18,5.91.58,2.1.15,7.05-1.43,6.91Zm14.84,6.82c-3.84,2.54-7.63-.46-10.87-5.32l.43,0h0c1.15.2,2.48.15,3-1.11a11.46,11.46,0,0,0-3.79-13.72c-1.76-1.22-2.88.43-3.89,1.66-.91-9.66,4.42-16.26,11.43-9.15C97.07,120.83,100.59,137.86,94.5,142.55Zm2.19-.76c5.17-7.49.28-27.23-9.75-30.65l74.34-22.55h0l4.91-1.47v0L180,82.9a5.64,5.64,0,0,1,.93-.42c3.25-1.21,8,3.65,10,9,2.3,5.66,3,15.3-1.43,17.74a3.09,3.09,0,0,1-.92.35l-.23,0Zm129.27,21c-2.62,4.39-7,5.2-13,6.33-10.87,1.44-26.87,7.79-35.53,18.26-12.11,14.27-42.86,18.07-55.74,5.28-10.07-10-10.15-29.3-10.18-36.58.13-6.36,1-11.83-2.38-17.51l73-25.57.77.85h0c4.92,5.38,8.16,6.66,13.61,6.62C216.42,119.56,234.26,146.58,226,162.82Z"/><path class="cls-1" d="M78.94,129.66c-.17-.4-.5-.91-1-.63a.54.54,0,0,0-.2.76c.13.23.34.64.47.88a9.73,9.73,0,0,1,.85,3.43c0,.42,0,1,.6,1,1-.14.3-2.09.23-2.86A6.84,6.84,0,0,0,78.94,129.66Z"/><path class="cls-1" d="M181.93,86.43,152.79,96a.56.56,0,0,0,.18,1.08c.13,0,29.15-9.61,29.3-9.63A.55.55,0,0,0,181.93,86.43Z"/><path class="cls-1" d="M186.68,89.94l-29.13,9.6a.56.56,0,0,0,.34,1.06L187,91A.56.56,0,0,0,186.68,89.94Z"/></svg>