<svg id="Layer_1" data-name="Layer 1" xmlns="http://www.w3.org/2000/svg" viewBox="0 0 270 270"><defs><style>.cls-1{fill:#efe8f2;}</style></defs><path class="cls-1" d="M119.53,190.93a.4.4,0,0,0,.4.4h29.78a.41.41,0,0,0,0-.81H119.93A.4.4,0,0,0,119.53,190.93Z"/><path class="cls-1" d="M148.41,192.61H121.23a.41.41,0,0,0,0,.82h27.18A.41.41,0,0,0,148.41,192.61Z"/><path class="cls-1" d="M121.17,178.46c.1.09,27.2,0,27.34,0a.41.41,0,0,0,0-.81H121.32A.41.41,0,0,0,121.17,178.46Z"/><path class="cls-1" d="M209.21,169.25V77a7,7,0,0,0-7-7H67.77a7,7,0,0,0-7,7v92.27a7,7,0,0,0,7,7h50.39l-.53,11.89a10.24,10.24,0,0,1-4.77,7.81,2.07,2.07,0,0,0,1.27,3.67l41.68.38a2.07,2.07,0,0,0,1.43-3.56,18.44,18.44,0,0,1-5.71-11.77l-.56-8.43h51.24A7,7,0,0,0,209.21,169.25ZM67.77,70.82H202.22a6.05,6.05,0,0,1,2.31.45A6.19,6.19,0,0,1,208.39,77v82.11H61.61V77A6.18,6.18,0,0,1,67.77,70.82Zm83,113.92a19.29,19.29,0,0,0,6,12.29,1.24,1.24,0,0,1-.87,2.16l-41.67-.38a1.24,1.24,0,0,1-.77-2.22,11,11,0,0,0,5.07-8.4l.53-11.94h31.19Zm51.49-9.31H67.78a6.18,6.18,0,0,1-6.17-6.17v-9.36H208.4v9.35A6.18,6.18,0,0,1,202.23,175.43Z"/><path class="cls-1" d="M74.08,153.32H195.92a6.44,6.44,0,0,0,6.43-6.43V84.34a6.44,6.44,0,0,0-6.43-6.43H74.07a6.44,6.44,0,0,0-6.43,6.43v62.54A6.46,6.46,0,0,0,74.08,153.32Zm0-74.59H195.92a5.63,5.63,0,0,1,5.62,5.62v62.54a5.62,5.62,0,0,1-5.62,5.62H74.08a5.63,5.63,0,0,1-5.62-5.62V84.35A5.62,5.62,0,0,1,74.07,78.73Z"/><path class="cls-1" d="M133.75,76A1.77,1.77,0,1,0,135,73,1.78,1.78,0,0,0,133.75,76Zm.57-1.93a1,1,0,0,1,1.63.68A1,1,0,1,1,134.32,74Z"/></svg>