<svg id="Layer_1" data-name="Layer 1" xmlns="http://www.w3.org/2000/svg" viewBox="0 0 270 270"><defs><style>.cls-1{fill:#efe8f2;}</style></defs><path class="cls-1" d="M84.11,112.41a.43.43,0,0,0-.58.12L81.88,115a.42.42,0,0,0,.7.46L84.23,113A.43.43,0,0,0,84.11,112.41Z"/><path class="cls-1" d="M76.2,105.2a.4.4,0,0,0-.57.12l-1.58,2.37a.42.42,0,1,0,.7.46l1.57-2.37A.42.42,0,0,0,76.2,105.2Z"/><path class="cls-1" d="M160.32,69.81c-4.5-10.06-19.15-10.72-24.71-1.27l-2.17,3.59a8.37,8.37,0,0,0,.7,9.75L154.38,108a7,7,0,0,0,7.7,2.17,6.9,6.9,0,0,0,4.82-6.25,71,71,0,0,0-6.58-34.1Zm5.75,34.05c-.16,5.53-7.66,7.92-11,3.6l-20.23-26.1a7.53,7.53,0,0,1-.64-8.79l2.17-3.6a13.17,13.17,0,0,1,12.12-6.31,12.91,12.91,0,0,1,11.13,7.5A70.29,70.29,0,0,1,166.07,103.86Z"/><path class="cls-1" d="M155.64,123.18,85.77,77.78a.54.54,0,0,0-.76.16.55.55,0,0,0,.16.77L155,124.11A.56.56,0,0,0,155.64,123.18Z"/><path class="cls-1" d="M90,72.94l17.73,11.53c.44.3.92-.41.46-.7L90.4,72.25A.41.41,0,0,0,90,72.94Z"/><path class="cls-1" d="M91.67,70.79l17.51,11.38a.42.42,0,0,0,.45-.7L92.12,70.1A.41.41,0,0,0,91.67,70.79Z"/><path class="cls-1" d="M93.49,68.71l17.18,11.17a.46.46,0,0,0,.23.06.41.41,0,0,0,.22-.76L93.94,68A.42.42,0,0,0,93.49,68.71Z"/><path class="cls-1" d="M95.27,66.61l16.67,10.83a.36.36,0,0,0,.22.07.42.42,0,0,0,.23-.76L95.73,65.92A.41.41,0,0,0,95.27,66.61Z"/><path class="cls-1" d="M180.22,162.87c3.25-.69,5.67,1.52,9,4.59a40.62,40.62,0,0,0,11.58,8.12c5,2.17,15.59,5.08,19.83.56,5.12-6.23-1.32-18.21-6.71-27.49-9.92-15.91-26.6-27.35-41.58-34.73,25.32-55.15-47.45-103.68-84.52-52.2L80.19,73.48a10.44,10.44,0,0,0,3.06,14.44l2.15,1.4L77,102a2.47,2.47,0,0,0-2.29,1.1l-2.8,4.23-1.81-1.2a2,2,0,0,0-2.52.34L50,126.49a10.3,10.3,0,0,0,.62,14.17c.17.57.9.89,1.31,1.2s1,.76,1.56.74l.44.17a10.57,10.57,0,0,0,3.28,6.88c.17.6.93.93,1.35,1.26s1,.8,1.64.77a10.79,10.79,0,0,0,14.1-5.11l12.13-25.13a2,2,0,0,0-.7-2.55l-1.92-1.27,3-4.45a2.58,2.58,0,0,0,.12-2.65l9.37-14.15,53.48,34.77a10,10,0,0,0,13.84-2.94c2.09-3.35,6.78-10,8.4-13.53,14.82,7.29,31.42,18.67,41.23,34.41,8,13.24,10.41,22.65,6.81,26.5s-13.29,1.67-18.89-.76a39.91,39.91,0,0,1-11.34-8c-3.4-3.12-6.09-5.58-9.76-4.79a8.33,8.33,0,0,0-5.61,4.58c-3.83,7.91,8.8,21.27,18.37,25.57,8.91,4.17,22.36,15.84,21.57,31.36C210.53,234,196.17,228.79,184,219l-.1-.06c-4.91-2.35-12.43-1.49-16.12.75a4,4,0,0,0-4.55-1.29,1,1,0,0,0-1.19-.27c-.4.19-1,.38-1.13.86-.29.55.63,1.87.85,2.49,0,0-1.46.65-1.48.66a.42.42,0,0,0-.21.55.41.41,0,0,0,.55.2l1.45-.65,0,0,.79,1.68-2,.92a.41.41,0,0,0-.21.55.42.42,0,0,0,.55.21l2.05-.93c.38.65.81,2.19,1.42,2.32.45.2,1-.15,1.38-.33h0a1,1,0,0,0,.53-1.17,4.06,4.06,0,0,0,1.61-5.06c3.76-2.27,12.51-3.32,16.76.42,12.44,9.43,26.29,13.74,30.26,2.93l0-.12c.82-16-12.87-27.88-22-32.18a43.09,43.09,0,0,1-9.7-6.61C174.83,176.85,170.29,166.31,180.22,162.87ZM86.1,89.77l.6.39-8.28,12.5a2,2,0,0,0-.6-.39Zm-1.25,19.39a2.58,2.58,0,0,0-2.39,1.14l-3,4.46L78.4,114a2,2,0,0,0-.55-2.71L76,110.12l2.8-4.23a2.45,2.45,0,0,0,.12-2.53L87.4,90.61,94.21,95Zm.74,1.1a2,2,0,0,1,.31.26c-.23.27-.55,1.17-1,.84s.22-1,.38-1.28A2.31,2.31,0,0,1,85.59,110.26Zm-7.32,10.15c-1.69,1.47-3.44,3-5.19,4.65l5-10.28,1.64,1.09C79.21,117.44,78.74,119,78.27,120.41Zm2.14-4.06,1.49,1-2.43,2C79.8,118.34,80.11,117.33,80.41,116.35ZM58,142.67a9.18,9.18,0,0,1-2.71-.31c4.54-1.28,9-10,12.65-19.25l7.65-8.72a1.23,1.23,0,0,1,1.74-.07l-5.94,12.32C65.71,132,60.38,137.88,58,142.67Zm12.36-13.9-4.15,8.59A9.36,9.36,0,0,1,59,142.59C60.89,138.94,64.75,134.26,70.36,128.77Zm4.5-18.43L77.39,112a1.13,1.13,0,0,1,.31,1.55,2,2,0,0,0-2.73.28l-6.19,7c1-2.59,1.84-5.18,2.64-7.64Q73.07,111.82,74.86,110.34Zm-3,1.41c.3-1,.59-1.9.86-2.8l1.37.91C73.41,110.46,72.67,111.09,71.9,111.75Zm5-8.1.45-.68a1.68,1.68,0,0,1,.6.39l-.46.69A.36.36,0,0,1,76.91,103.65Zm-1.53-.05a1.63,1.63,0,0,1,1-.7,1.23,1.23,0,1,0,2,1.31,1.63,1.63,0,0,1-.24,1.22l-2.68,4-2.77-1.83ZM50.17,138.88A9.47,9.47,0,0,1,50.64,127l17.53-20a1.12,1.12,0,0,1,1.45-.19l2.42,1.6c-.45,1.48-.9,2.92-1.34,4.31C61.21,121,49.51,132.5,50.17,138.88Zm3.74,2.81a2.53,2.53,0,0,1-.6-.11,9.3,9.3,0,0,1-1.66-1.12c-2.93-4.51,4.24-13.41,18.55-26.15-1,3-2,5.8-3,8.34L56.57,134.81A10.71,10.71,0,0,0,53.91,141.69Zm3.28-6.33L66.32,125c-4.17,10.21-8.18,16-11.57,16.68A9.88,9.88,0,0,1,57.19,135.36Zm-.45,12.51a9.73,9.73,0,0,1-1.93-4.78,10.22,10.22,0,0,0,2.81.42A8.59,8.59,0,0,0,56.74,147.87Zm3.85,2.9a3.09,3.09,0,0,1-.59-.12,9.26,9.26,0,0,1-1.75-1.18c-1.16-1.55-.88-3.39.27-6A10.16,10.16,0,0,0,67,137.72l5.12-10.61q2.63-2.49,5.7-5.17C71.57,140.81,65.39,151.26,60.59,150.77Zm24.7-31.18a1.18,1.18,0,0,1,.41,1.49L73.57,146.21A10,10,0,0,1,62,151.45c6.48-1.72,12.9-17.92,17-30.56q1.76-1.52,3.63-3.07Zm.8-6.88L83.27,117,80.33,115l2.82-4.25a1.78,1.78,0,0,1,1.14-.76c-1.43,1.68,1.06,3.33,2,1.36A1.76,1.76,0,0,1,86.09,112.71Zm.27-2.89a2.46,2.46,0,0,0-.66-.44l9.2-13.89.67.43Zm82,9.5-5.47,8.43a9.18,9.18,0,0,1-12.69,2.69L83.7,87.22h0a9.63,9.63,0,0,1-2.82-13.29l7.65-11.76a46.89,46.89,0,0,1,64.8-13.75A51.32,51.32,0,0,1,168.37,119.32ZM165.66,225.9l-.61.29a.22.22,0,0,1-.14,0,.19.19,0,0,1-.1-.09l-3.16-6.68a.18.18,0,0,1,0-.14c0-.12.63-.34.7-.39a.19.19,0,0,1,.25.09l3.15,6.68A.17.17,0,0,1,165.66,225.9Zm.55-1.2-2.63-5.57A3.1,3.1,0,0,1,166.21,224.7Z"/></svg>