<svg id="Layer_1" data-name="Layer 1" xmlns="http://www.w3.org/2000/svg" viewBox="0 0 270 270"><defs><style>.cls-1{fill:#efe8f2;}</style></defs><path class="cls-1" d="M167.36,133.7c-5.67-14.73-32.58-22.5-48.57-17.08-4.06,1.28-13.56,4.26-16.71,12.4h0c-2.1,5.39-1.17,11.57,5.63,14.66,2.54.92,4,.13,6.65.23a28.22,28.22,0,0,1,11,2.44c4.41,1.83,4.54,3.3,8.59,5.41a30.69,30.69,0,0,0,13.38,3.34C159.22,155.12,173.74,147.64,167.36,133.7Zm-48.24-16a41.4,41.4,0,0,1,23.63,0,16.55,16.55,0,0,0-4.07,2.17c-8.54-3-23.78-2.73-34,6.66C108.56,121,115.77,118.73,119.12,117.68Zm-16,11.84c9.58-10.48,24.68-12,34.55-8.87-5.45,4.75-6.2,12-6.25,15-.91-.51-18.49,0-19.95-.06-1.87.05-3.14.38-5.43-.63-1.92-1-3-1.84-3.51-3.48A15.64,15.64,0,0,1,103.08,129.52Zm31.36,21.27c-4-2.13-4.13-3.57-8.67-5.45a29,29,0,0,0-11.4-2.53c-2.48-.11-4.05.65-6.28-.16a9.17,9.17,0,0,1-5.87-9.28c2.13,2.89,6.25,3.76,9.23,3.3l17.53-.18c11.24,1.07,21.66,7,29.16,15.37A28.5,28.5,0,0,1,134.44,150.79Zm24.78.61a47.72,47.72,0,0,0-26.74-15.56c-.16-5.41,2.76-15.47,12.19-17.63,5.34,1.64,17.46,5.46,21.66,15.91C169.59,141.16,167.33,147.87,159.22,151.4Z"/></svg>