<svg id="Layer_1" data-name="Layer 1" xmlns="http://www.w3.org/2000/svg" viewBox="0 0 270 270"><defs><style>.cls-1{fill:#efe8f2;}</style></defs><path class="cls-1" d="M107.91,117.83c18.27,0,33.14-8.26,33.14-18.4S126.18,81,107.91,81s-33.14,8.25-33.14,18.4S89.64,117.83,107.91,117.83Zm0-1.14c-9.11,0-17.35-2.06-23.18-5.37a47.54,47.54,0,0,1,45.84.29C124.78,114.75,116.76,116.69,107.91,116.69Zm0-34.53c17.65,0,32,7.74,32,17.27,0,4.42-3.11,8.46-8.2,11.52a48.72,48.72,0,0,0-48.12-.3c-4.79-3-7.7-6.94-7.7-11.22C75.9,89.9,90.26,82.16,107.91,82.16Z"/><path class="cls-1" d="M127.89,128.59c0,10.14,14.87,18.4,33.14,18.4s33.14-8.26,33.14-18.4-14.87-18.4-33.14-18.4S127.89,118.44,127.89,128.59ZM161,145.86c-9.11,0-17.35-2.07-23.18-5.38a47.56,47.56,0,0,1,45.85.29C177.9,143.91,169.88,145.86,161,145.86Zm0-34.54c17.65,0,32,7.74,32,17.27,0,4.42-3.11,8.47-8.2,11.52a49,49,0,0,0-23.05-6.49l-1.26,0a49,49,0,0,0-23.77,6.19l0,0c-4.8-3-7.71-6.94-7.71-11.22C129,119.06,143.38,111.32,161,111.32Z"/><path class="cls-1" d="M216.54,161.75,210.38,127a15.59,15.59,0,0,0-.79-3.75,16.36,16.36,0,0,0-7.86-9.06L146.42,84.6a88.4,88.4,0,0,0-35.77-10.46C85.4,72.39,66.07,79.26,60.21,92.07l-.05.1a15.45,15.45,0,0,0-1.29,5,.66.66,0,0,0-.12.27l-5.38,32a23.25,23.25,0,0,0,12.14,24.48l61.7,32.44a83.28,83.28,0,0,0,39,9.76h.9a83.21,83.21,0,0,0,37.07-9.23,24,24,0,0,0,11.11-12.12,22.89,22.89,0,0,0,1.61-6.8A24.16,24.16,0,0,0,216.54,161.75ZM61.24,92.55C66.26,81.56,81.86,75,103,75c2.47,0,5,.09,7.59.27A87.39,87.39,0,0,1,145.89,85.6l55.3,29.6a15.24,15.24,0,0,1,7.33,8.42,14.74,14.74,0,0,1,.73,3.51c.77,10.07-9.07,20.39-23.39,24.53A86.92,86.92,0,0,1,149.8,153l-.16,0a64,64,0,0,1-20-7.17L67.51,111a14.1,14.1,0,0,1-6.27-18.4Zm154.51,75.33a21.84,21.84,0,0,1-1.52,6.46,23,23,0,0,1-10.59,11.55,81.59,81.59,0,0,1-75.9-.52L66,152.93a22.13,22.13,0,0,1-11.54-23.29l4.68-27.89A15.84,15.84,0,0,0,67,111.94l62.1,34.81A64.87,64.87,0,0,0,149.45,154l.16,0a86,86,0,0,0,15,1.32,90.62,90.62,0,0,0,21.51-2.63c12.69-3.68,22-12.11,23.9-21.09L215.43,162A22.78,22.78,0,0,1,215.75,167.88Z"/><path class="cls-1" d="M126.81,155.91,84.35,133.24a4.54,4.54,0,0,0-6.68,4l-.07,9.25a4.52,4.52,0,0,0,2.36,4l42.47,23.14a4.5,4.5,0,0,0,2.17.56,4.61,4.61,0,0,0,2.31-.63,4.5,4.5,0,0,0,2.23-3.88l.08-9.72A4.54,4.54,0,0,0,126.81,155.91Zm1.2,13.75a3.41,3.41,0,0,1-5,3L80.51,149.49a3.42,3.42,0,0,1-1.78-3l.07-9.25a3.41,3.41,0,0,1,5-3l42.47,22.68a3.4,3.4,0,0,1,1.8,3Z"/><path class="cls-1" d="M122.13,159.44,85.54,139.5a1.18,1.18,0,0,0-1.74,1v5.55a1.33,1.33,0,0,0,.7,1.17l36.91,20.12a1,1,0,0,0,.49.12,1,1,0,0,0,1-1v-5.73A1.49,1.49,0,0,0,122.13,159.44Zm-.4,6.82L85,146.26a.23.23,0,0,1-.11-.18v-5.55a.05.05,0,0,1,0,0h0l36.61,19.95a.34.34,0,0,1,.19.31Z"/><path class="cls-1" d="M104,103a.56.56,0,0,0,.56-.56V85.57A.57.57,0,0,0,104,85a.58.58,0,0,0-.57.57v16.9A.57.57,0,0,0,104,103Z"/><path class="cls-1" d="M160.63,132.66a.57.57,0,0,0,.56-.57v-16.9a.56.56,0,0,0-.56-.56.57.57,0,0,0-.57.56v16.9A.58.58,0,0,0,160.63,132.66Z"/></svg>