<svg id="Layer_1" data-name="Layer 1" xmlns="http://www.w3.org/2000/svg" viewBox="0 0 270 270"><defs><style>.cls-1{fill:#efe8f2;}</style></defs><g id="Headphones"><path class="cls-1" d="M133.25,106.25c-12-1.83-18.39,15.9-13.85,25.24,5.82,12.46,19.63,5.62,22-7C143,117.38,140.61,107.91,133.25,106.25Zm7.34,18.07c-2.31,12.09-15.1,18.36-20.43,6.84-4-8.48.87-23.73,11.29-24.27C139.47,107.09,142.29,117.18,140.59,124.32Z"/><path class="cls-1" d="M215,132.78a20,20,0,0,0-1.92-4.21,23,23,0,0,0-4.69-10c13.25-27.58,1.15-57.36-25.8-64.76A33.35,33.35,0,0,0,172.46,51c-32.15-2.6-47.6,25-48.86,43.37-23.54,3.68-31.44,33.66-13.64,49.2l4.07,3.53c14,12.37,32.19,0,37.35-18.45,3.78-12.78.43-29.46-12.13-34.45C141,81.73,150.69,60.61,172,55.13c10.25,1.17,20.43,9.18,23.89,19.13a66.67,66.67,0,0,1-2.07,37.24l0-.14c-14.33-3.09-27.56,8.24-31.39,22.31-3.78,13.06.65,28.57,12.93,34.43l-2.92,4.67a3.07,3.07,0,0,0,.63,4c-9.29,13.67-22.88,28.54-39.84,36.06C119,218.88,109.34,220,106,215.86s.2-13.39,3.39-18.6a40.13,40.13,0,0,1,9.46-10.12c3.56-2.93,6.38-5.25,6.11-9a8.31,8.31,0,0,0-3.76-6.19C114,167.05,99,177.71,93.36,186.58c-5.37,8.24-18.79,19.93-34,17-9.76-5.24-2.64-18.74,8.74-29.48l.08-.09c2.9-4.33,3.23-11.82,1.62-15.73A3.61,3.61,0,0,0,70.89,154l-4.06-9.64a2,2,0,0,0-2.58-1l-1.51-3.68a1.57,1.57,0,0,0-2-.85l-.59.24a1.57,1.57,0,0,0-.85,2l1.55,3.76a2,2,0,0,0-.68,2.36l4.06,9.64A3.65,3.65,0,0,0,69,158.71c1.58,4.15,1.25,12.44-2.91,16.07C55,185.78,48.84,198.89,59,204.34l.12,0c15.7,3,29.4-8.85,34.93-17.31,5.33-8.48,19.81-18.91,26.76-14.4a7.56,7.56,0,0,1,3.37,5.55c.24,3.31-2.3,5.4-5.8,8.29a40.25,40.25,0,0,0-9.65,10.33c-4.51,7.28-9.75,22.54,4.19,22.32,5,0,11.94-1.87,20.64-5.58C150.68,206,164.39,191,173.77,177.2a3.08,3.08,0,0,0,3.88-1.17l3.8-6.07c6.84,1,13.42-1.08,19.21-5.78C212.2,159.87,219,144.29,215,132.78ZM65,144c.74,0,1.08.67,1.28,1.26l-5.11,2.26-.28-.66a1.13,1.13,0,0,1,.61-1.48A31.65,31.65,0,0,1,65,144Zm-3.46.45-1-2.39,1.92-.82,1,2.41Zm-1.12-4.65c.31-.11.8-.42,1.14-.24s.47.62.6.91l-1.92.82C60,140.75,59.75,140.09,60.44,139.78Zm6,18.21A2.81,2.81,0,0,1,65,156.48l-3.46-8.22L66.63,146l3.49,8.3A2.82,2.82,0,0,1,66.49,158Zm143.93-34.77a24.06,24.06,0,0,1,1.37,3.47,16.56,16.56,0,0,0-2.08-2.18,26.84,26.84,0,0,0-2.31-3.93c.21-.4.42-.81.62-1.22A23.68,23.68,0,0,1,210.42,123.22Zm-3.46-1.8c.42.62.82,1.25,1.19,1.92a13.75,13.75,0,0,0-1.71-1C206.62,122.05,206.79,121.73,207,121.42Zm-1.6-51c10,14,10.14,34.25.32,51.58a15.94,15.94,0,0,0-12.3,0c7.85-16.22,10.26-32,6.87-48.11a32.35,32.35,0,0,0-9.59-15,30,30,0,0,0-3.51-2.68A41.64,41.64,0,0,1,205.36,70.43Zm-23.46,93c-19.36-9.84-11.42-40,8.38-43.84-.14.42-.78,1-.22,1.39l2.69,1.29c-11.16,4.55-17.61,19.86-13.76,31.14,2,6.09,6.26,10.37,12,11.63A18.24,18.24,0,0,1,181.9,163.43Zm-80.3-47.1a27,27,0,0,1,22.89-21.25c-16,7.28-23.51,33.37-13.64,48.19A28,28,0,0,1,101.6,116.33ZM150,106.82a34.48,34.48,0,0,1,.6,21.63c-5.14,18.11-22.16,29.32-35.25,18.73a8,8,0,0,0-.73-.67c-13.68-13.22-6.87-41.62,9-50C133.89,90.51,145.81,95.31,150,106.82Zm8.73-46.44c-14.78,10.11-19.08,26.7-20.25,33.55a17.73,17.73,0,0,0-9.93-.32,2.54,2.54,0,0,0-.61.07c.6-4.29,4.35-24.73,22-34.09,2.77-1.46,10.83-5.73,20.08-4.74A44.17,44.17,0,0,0,158.71,60.38ZM198.26,94a67,67,0,0,0-1.6-20C193,63.65,182.58,55.49,172,54.29c-10.28-1.87-19.45,3-22.46,4.57-18.23,9.72-22,30.66-22.46,35l-2.65.44c1.46-18.74,16.93-44.91,47.94-42.4,11.65.94,23.57,9.87,27.07,22.26,3.31,15.83,1,31.31-6.67,47.25l-2-.94A66.41,66.41,0,0,0,198.26,94Zm-32.94,63.16c-10.57-19.14,5-49.43,28.23-45a64.27,64.27,0,0,1-2.8,6.5c-19.54,3.11-28.94,31.72-11.94,43.93l-3,4.81A22.89,22.89,0,0,1,165.32,157.15Zm11.62,18.44a2.25,2.25,0,0,1-4.08-.68,2.18,2.18,0,0,1,.28-1.69l6.35-10.16a18.18,18.18,0,0,0,4.09,1.92Zm5-6.4,2.49-4a18.57,18.57,0,0,0,9.62.19,15.77,15.77,0,0,0,4.24-.47A23.13,23.13,0,0,1,181.93,169.19Zm31.57-19.75c-3.54,9.86-14.37,18-24.39,14.17-4.39-1.69-7.7-5.4-9.33-10.45-3.5-10.11,1.82-23.93,11.19-29.08,5.82-3.45,13-3.4,18.08,1l0,0h0C215.77,130.87,216.76,141.06,213.5,149.44Z"/><path class="cls-1" d="M205.15,137.26a8,8,0,0,0-12.08,2.61c-3.7,5.67-.82,12.55,5.16,13.31C205.88,155.85,212.09,140.68,205.15,137.26Zm-11.41,12.55c-2-2.51-2-6.32,0-9.53,1-2.24,5-5.31,9.12-3.39-5.83.4-10.17,10.39-6.49,14.91A6.94,6.94,0,0,1,193.74,149.81Zm12.66-2.53c-4.37,9.43-13.51,5.45-9.57-4.18C201,133.87,210.35,137.37,206.4,147.28Z"/><path class="cls-1" d="M132.27,118.88l2.77-3.73a.41.41,0,0,0-.66-.49l-2.63,3.52-1.6-2.15,2.17-2.91c.33-.42-.35-.93-.67-.49l-2,2.7-2-2.7a.42.42,0,0,0-.67.49l2.16,2.91-1.6,2.15-2.62-3.52c-.32-.44-1,.07-.67.49l2.77,3.73-1.6,2.15-3.23-4.34c-.31-.44-1,.07-.66.5l3.38,4.53-3.38,4.54c-.33.43.35.94.66.5l3.23-4.34,1.61,2.15-2.78,3.72a.42.42,0,0,0,.67.5l2.62-3.53,1.6,2.15L127,130.32a.42.42,0,0,0,.67.5l2-2.71,2,2.71a.42.42,0,0,0,.67-.5l-2.17-2.91,1.6-2.15,2.63,3.53c.31.44,1-.07.66-.5l-2.77-3.72,1.6-2.15,3.23,4.34a.42.42,0,0,0,.67-.5l-3.38-4.54,3.38-4.53a.42.42,0,0,0-.67-.5L133.87,121Zm-2.64-2.15,1.6,2.15-1.6,2.15-1.6-2.15Zm-3.72,5,1.6-2.15,1.6,2.15-1.6,2.15Zm3.72,5-1.6-2.15,1.6-2.15,1.6,2.15Zm2.12-2.85-1.6-2.15,1.6-2.15,1.6,2.15Z"/></g></svg>