<svg id="Layer_1" data-name="Layer 1" xmlns="http://www.w3.org/2000/svg" viewBox="0 0 270 270"><defs><style>.cls-1{fill:#efe8f2;}</style></defs><path class="cls-1" d="M195.62,95.75a.56.56,0,0,0-.25-.33L151.53,70,157,54a2,2,0,0,0-.09-1.55,2,2,0,0,0-1.16-1,2,2,0,0,0-1.55.09,2,2,0,0,0-1,1.16L148,67.89l-4.17-2.42-.13,0a6.37,6.37,0,0,0-4.95.64l-28.58,16.5-.06,0-9.45-5.25a2,2,0,0,0-2.74.79,2,2,0,0,0-.18,1.53,2,2,0,0,0,1,1.21L106,85,79.83,100.06A17.17,17.17,0,0,0,71.26,115l.34,67.58a6.51,6.51,0,0,0,2.46,5.06l50.05,29.52a.48.48,0,0,0,.2.07,6.92,6.92,0,0,0,.84.57,6.4,6.4,0,0,0,6.48,0L187,185.66a23.76,23.76,0,0,0,11.79-20.49V101.3A6.43,6.43,0,0,0,195.62,95.75ZM98.86,78.67a.9.9,0,0,1,1.24-.35L123,91a.93.93,0,0,1,.43.54.91.91,0,0,1-1.32,1L99.21,79.92a1,1,0,0,1-.44-.55A1,1,0,0,1,98.86,78.67Zm44.45-12.2L147.6,69l-4.79,13.91a18.05,18.05,0,0,0-8.75-2.33H134a18.57,18.57,0,0,0-14.46,7.29l-8.29-4.61L139.27,67A5.3,5.3,0,0,1,143.31,66.47ZM134,81.65h.1c9,0,16.88,7.52,17.64,16.77a5.43,5.43,0,0,1-1.62,4.27,23.18,23.18,0,0,1-12.22,6.5c-8.92,1.59-16-2.83-19.4-5.6a5.4,5.4,0,0,1-2-4.37,18.18,18.18,0,0,1,1.88-7.43l3.23,1.79a2,2,0,0,0,1,.26,2,2,0,0,0,1.95-2.58,2,2,0,0,0-1-1.21l-3-1.67A17.44,17.44,0,0,1,134,81.65Zm-26.83,3.93,10.2,5.67a19.24,19.24,0,0,0-2,7.93,6.53,6.53,0,0,0,2.45,5.27c2.85,2.31,8.76,6.19,16.32,6.19a22.12,22.12,0,0,0,4-.36,24.27,24.27,0,0,0,12.82-6.81,6.54,6.54,0,0,0,1.93-5.15,19.76,19.76,0,0,0-6.56-13L151.16,71,192.09,94.8a6.52,6.52,0,0,0-3.08.88l-58.9,34a17.15,17.15,0,0,0-8.56,14.92l.33,67.59a6.67,6.67,0,0,0,.61,2.72l-47.81-28.2a5.29,5.29,0,0,1-2-4.14L72.37,115a16.06,16.06,0,0,1,8-14Zm23.54,45.06,58.89-34a5.32,5.32,0,0,1,5.38,0,5.33,5.33,0,0,1,2.69,4.67v63.87a22.67,22.67,0,0,1-11.24,19.53l-55.31,32.11a5.38,5.38,0,0,1-8.09-4.63l-.34-67.58A16,16,0,0,1,130.67,130.64Zm25.3-77-10.64,30.9a17.29,17.29,0,0,0-1.55-1.1l10.47-30.39h0a.88.88,0,0,1,.46-.52.9.9,0,0,1,.7,0,.92.92,0,0,1,.52.47A.87.87,0,0,1,156,53.66Z"/><path class="cls-1" d="M109.92,130.28l9.6,5.58a.57.57,0,0,0,.28.08.55.55,0,0,0,.53-.7.53.53,0,0,0-.25-.34l-9.61-5.57a.51.51,0,0,0-.42-.06.54.54,0,0,0-.33.26.51.51,0,0,0-.06.42A.54.54,0,0,0,109.92,130.28Z"/><path class="cls-1" d="M76.39,109.72a.57.57,0,0,0-.34.25.56.56,0,0,0,0,.42.53.53,0,0,0,.26.34l30.81,17.9a.57.57,0,0,0,.28.08.55.55,0,0,0,.53-.7.53.53,0,0,0-.25-.34l-30.82-17.9A.56.56,0,0,0,76.39,109.72Z"/><path class="cls-1" d="M129,211.36a5.93,5.93,0,0,0,2.89.77,5.85,5.85,0,0,0,2.92-.79l49-28.47a21.14,21.14,0,0,0,10.49-18.22V108a5.82,5.82,0,0,0-8.72-5l-52.22,30.15a15.28,15.28,0,0,0-7.63,13.28l.3,59.93A5.75,5.75,0,0,0,129,211.36Zm-2.12-65A14.15,14.15,0,0,1,134,134.09l52.22-30.15a4.71,4.71,0,0,1,7.06,4.08v56.63a20,20,0,0,1-9.93,17.26l-49.05,28.47a4.7,4.7,0,0,1-7.07-4Z"/><path class="cls-1" d="M131.85,194.3a1.27,1.27,0,0,0,.62.16,2.08,2.08,0,0,0,1-.32L139,191a4.85,4.85,0,0,0,2.2-3.81l0-7.85,5.12-3c7.07-4.08,12.81-14.09,12.79-22.31a15.14,15.14,0,0,0-.18-2.33c-.47-3-1.86-5.13-4-6.17-2.55-1.22-5.87-.79-9.34,1.21l-12.24,7.07a4.85,4.85,0,0,0-2.2,3.81l.1,35.17A1.62,1.62,0,0,0,131.85,194.3Zm8.26-6.65a2.77,2.77,0,0,1-1.26,2.18L133.37,193a.69.69,0,0,1-1.15-.65l-.1-35.18a2.77,2.77,0,0,1,1.26-2.18l12.24-7.07a11.64,11.64,0,0,1,5.71-1.75,6.62,6.62,0,0,1,2.86.62c2,.94,3.22,2.87,3.64,5.59a14.89,14.89,0,0,1,.17,2.15,24.27,24.27,0,0,1-3.49,11.78h0a23.88,23.88,0,0,1-8.37,8.91l-5.58,3.23a1,1,0,0,0-.34.35,1,1,0,0,0-.13.46Z"/><path class="cls-1" d="M140.41,170.78a.5.5,0,0,0,.25-.07l5.54-3.2a10.86,10.86,0,0,0,3.8-4,10.73,10.73,0,0,0,1.56-5.26c0-1.69-.58-2.95-1.63-3.53a3.88,3.88,0,0,0-3.89.38l-5.54,3.2a1.27,1.27,0,0,0-.34.35,1,1,0,0,0-.13.46l0,11.23a.42.42,0,0,0,.18.37A.33.33,0,0,0,140.41,170.78Zm.68-11.57,5.07-2.93a3.09,3.09,0,0,1,3.08-.32,3,3,0,0,1,1.26,2.79,9.57,9.57,0,0,1-4.43,7.61l-4.95,2.86Z"/><path class="cls-1" d="M164,175.73a1.23,1.23,0,0,0,.63.16,2.15,2.15,0,0,0,1-.32l14.47-8.36a23.94,23.94,0,0,0,9.68-11.91,18.3,18.3,0,0,0,1.32-6.48c0-3.41-1.36-5.94-3.7-7a20,20,0,0,0,2-8.08,9.92,9.92,0,0,0-.79-4,5.5,5.5,0,0,0-3.35-3.12c-2-.66-4.58-.19-7.18,1.31l-12.65,7.31a5,5,0,0,0-2.25,3.89l.1,35.07A1.64,1.64,0,0,0,164,175.73Zm22.3-33.57a.68.68,0,0,0-.06.58.31.31,0,0,0,.19.2c2.28.78,3.65,3.16,3.66,6.36a16.78,16.78,0,0,1-1.2,5.86h0a21.81,21.81,0,0,1-8.86,10.9l-14.47,8.36a.87.87,0,0,1-.85.1.86.86,0,0,1-.35-.78l-.1-35.06a2.89,2.89,0,0,1,1.31-2.27l12.65-7.31a9.8,9.8,0,0,1,4.77-1.46,5.57,5.57,0,0,1,1.71.26,4.81,4.81,0,0,1,2.95,2.76,8.73,8.73,0,0,1,.71,3.58A18.85,18.85,0,0,1,186.28,142.16Z"/><path class="cls-1" d="M181.16,151.36a2.49,2.49,0,0,0-2.49.21l-6,3.46a.93.93,0,0,0-.33.35.91.91,0,0,0-.14.46l0,6.8a.37.37,0,0,0,.18.36.29.29,0,0,0,.16,0,.5.5,0,0,0,.25-.07l6-3.46a7.49,7.49,0,0,0,3.41-5.92A2.45,2.45,0,0,0,181.16,151.36Zm-2.43,1.26.08.09a1.68,1.68,0,0,1,1.63-.15,1.61,1.61,0,0,1,.72,1.51,5.45,5.45,0,0,1-2.47,4.29l-5.41,3.12,0-5.57,5.53-3.19-.06-.1Z"/><path class="cls-1" d="M172.36,147.6a.29.29,0,0,0,.16,0,.44.44,0,0,0,.24-.07l4.32-2.5a6.83,6.83,0,0,0,2.42-2.54,6.92,6.92,0,0,0,1-3.37,2.48,2.48,0,0,0-1.05-2.27,2.51,2.51,0,0,0-2.5.24l-4.32,2.5a.86.86,0,0,0-.33.35.84.84,0,0,0-.13.46l0,6.79A.37.37,0,0,0,172.36,147.6Zm.86-7.09,3.84-2.22a1.69,1.69,0,0,1,1.69-.18,1.65,1.65,0,0,1,.68,1.53,5.42,5.42,0,0,1-2.47,4.28l-3.73,2.16Z"/></svg>