<svg id="Layer_1" data-name="Layer 1" xmlns="http://www.w3.org/2000/svg" viewBox="0 0 270 270"><defs><style>.cls-1{fill:#efe8f2;}</style></defs><path class="cls-1" d="M169.37,116c-5.44-6.84-16.64-8.78-24.5-6a24.3,24.3,0,0,0-12.63,10.32l-1.23-.45c-3.83-1.63-17-6.45-26.13-.1-3.61,2.29-8.83,7.82-4.23,13.6v7.16c0,2.7,1.7,4.67,2.95,6.11,3.28,3.79,7.58,5.18,16.16,8A61,61,0,0,0,130,157l24.72,4.19.31,0a1.84,1.84,0,0,0,1.56-.86l8.44-13.3a23.39,23.39,0,0,0,4.28-11.76v-4.81C171.72,125,171.8,119.71,169.37,116Zm-13.69,44.11a1.07,1.07,0,0,1-.78.2l-24.73-4.19A60.39,60.39,0,0,1,120,153.83c-8.43-2.73-12.67-4.1-15.8-7.72-1.22-1.41-2.74-3.16-2.74-5.56v-6.11c3.74,4.55,8,5.83,17.48,8.93a62.51,62.51,0,0,0,10.82,2.48l25.69,4.35a1.69,1.69,0,0,0,.55,0Zm12.84-24.89a22.42,22.42,0,0,1-4.15,11.31l-7.81,12.32.3-8.88a2.49,2.49,0,0,0,1.09-.92l8.7-13.72a32.53,32.53,0,0,0,1.87-3.15Zm-2.56-.34-8.72,13.73a1.61,1.61,0,0,1-1.63.73L129.91,145a60.43,60.43,0,0,1-10.7-2.45c-8.88-2.88-13.34-4.32-16.65-8.14a13.36,13.36,0,0,1-1.08-1.25v0h0c-4-5.24-.39-9.81,3.9-12.68,7.14-5.45,20.06-2.28,25.36.19l1.9.7a22.72,22.72,0,0,1,31.07-8.87C172.36,116.51,172,125.72,166,134.92Z"/><path class="cls-1" d="M156.37,111.33c-4.91-.22-8.79-1.33-15.35,2.6a18.81,18.81,0,0,0-7,8.24.51.51,0,0,1-.68.26h0c-6.76-3.46-20.2-5.8-30.07,1.2-4.74,4.38-.09,10.08,6.66,13.05a158.07,158.07,0,0,0,44.83,9.7,2.45,2.45,0,0,0,2.12-1.21l10.76-18.5C170.22,119.6,165.42,111.59,156.37,111.33Zm-54.09,15.39a4.57,4.57,0,0,1,1.52-2.43c9.47-6.47,21.09-4.89,29.71-1v13.41c-4.72-2.27-15.4-5.5-24.88-1.58C104.32,132.84,101.71,129.47,102.28,126.72Zm53.91,18a1.65,1.65,0,0,1-1.52.8,158.2,158.2,0,0,1-44.4-9.64l-.61-.28c9.29-3.4,18.89-.33,23.37,1.8a1.35,1.35,0,0,0,1.8-.68c3-7.48,11.41-11.57,18.49-10.56,1,.12,2,.19,3,.22a12.08,12.08,0,0,1,8.42,3.6Zm10.73-18.42-1.72,2.94a13,13,0,0,0-8.83-3.69c-1,0-2-.1-3-.21-7-1-15.69,2.87-19.07,10.45V123.05a1.31,1.31,0,0,0,.49-.55,17.81,17.81,0,0,1,6.64-7.87c6.37-3.81,10.05-2.67,14.88-2.47C164.76,112.39,169.23,119.78,166.92,126.33Z"/></svg>