<svg id="Layer_1" data-name="Layer 1" xmlns="http://www.w3.org/2000/svg" viewBox="0 0 270 270"><defs><style>.cls-1{fill:#efe8f2;}</style></defs><g id="Podcast_Mic" data-name="Podcast Mic"><path class="cls-1" d="M268.28,253.32l-36.65-37.19h0A1380.11,1380.11,0,0,0,164.32,78.27a181.43,181.43,0,0,0-35.75-45.54c-13.9-12.71-26.33-19.85-35-20.09C85.49,11.8,73.36,15,72.22,27.21a2.48,2.48,0,0,0-2.51,2.48v9c-4.19-.42-8.49.77-8.64,5.71V75.3c-1.23.27-2.46.58-3.66.94a1.89,1.89,0,0,0-2,1.88v6.31c.22,2.64,3.81,2,5.69,2.59v4.65a2,2,0,0,0-2.33,2c.16.5-.42,6.54.41,6.63L56.94,124c-1.67,6.08,3.25,14,11.28,13.17h8.5a10.85,10.85,0,0,0,8.72-3,11.19,11.19,0,0,0,3-9.79l-2.67-24.14c.8-.08.25-6.16.4-6.63,0-1.57-1.55-2.18-2.9-2V87c1.82-.52,5.31,0,5.3-2.68.15-.08,6.32.2,6.19-.19L200.47,191.41l-4.66,4.68,2.44,2.43-6.37,6.37a2.49,2.49,0,0,0,0,3.53c-10.53,8.92-19.14-4.18-27-9.87a32.35,32.35,0,0,0-24.29-8.19l-88.49,7.43c-19,2-36.9-14.25-36.7-33.36a2.87,2.87,0,0,0,2.44-2.83v-6.8c15.39,1.74,14.91-72.64.68-72.1H11.77c-14.27-.44-14.54,73.23.37,72.1v6.8a2.87,2.87,0,0,0,2.46,2.83c-.19,19.61,18.14,36.28,37.64,34.23l88.49-7.43a31.46,31.46,0,0,1,23.65,8c8,6,17.28,19.26,28.14,9.82A2.47,2.47,0,0,0,196,209l6.39-6.39,2.42,2.42,4.58-4.6,55.52,56.34C267,259,270.49,255.53,268.28,253.32ZM18.59,83.57c12.85.51,15.4,76.88-4.38,70.36,11.12-6.58,11.11-63.79,0-70.36Zm-6.82,70.36c-13.13-.47-13.12-69.91,0-70.36C24.9,84,24.89,153.48,11.77,153.93ZM13,161.6v-6.8h4v6.8C17.07,164.2,13,164.2,13,161.6ZM70.58,29.69c0-1.31,1.31-1.76,2.42-1.61a1.61,1.61,0,0,1,1.6,1.61v9h-4ZM61.94,44.38c.15-4.47,4.12-5.16,7.77-4.84v.07h5.76v-.07c3.36-.41,6.86,1,6.9,4.84V76.7a106.45,106.45,0,0,1-20.43,0Zm-.87,31.81v.47l-1.32-.16Zm26.48,48.36c1.3,5.74-3.63,12.67-10.78,11.76H68.18a10.19,10.19,0,0,1-7.84-2.72c-3.86-3.82-2.6-9.15-2.54-9.44L60,100.4H84.88Zm-3.39-32a1.11,1.11,0,0,1,1.11,1.11v5.88l-25.66.07V93.65a1.1,1.1,0,0,1,1.11-1.11ZM61.94,91.2V87.13a72.08,72.08,0,0,0,20.43,0V91.2Zm25.73-6.77a1,1,0,0,1-.8,1,73.49,73.49,0,0,1-29.8,0,1,1,0,0,1-.82-1V78.12a1,1,0,0,1,1.16-1,110.94,110.94,0,0,0,13.75,1c5.36.38,11-1,16.17-.72C88,77.54,87.52,83.91,87.67,84.43Zm-4.43-7.82v-.33l.92.22Zm5.6,6.81,0-5h5.1l0,5Zm5.73-5.76h0a.41.41,0,0,0-.22-.07H88.46a1.87,1.87,0,0,0-1.95-1.36c-1.08-.32-2.18-.61-3.27-.85v-31c0-4.24-4-6.22-7.77-5.71v-9a2.48,2.48,0,0,0-2.37-2.47C74.23,15.8,85.62,12.65,93.55,13.51c8.46.23,20.69,7.29,34.43,19.86a180.46,180.46,0,0,1,35.58,45.32A1377.11,1377.11,0,0,1,230,214.49C229.39,214.48,95.4,76.71,94.57,77.66ZM94.84,83l0,0,0-4.45L203.27,188.6l-2.18,2.19ZM195.33,208.35c-.91,1-2.17.32-2.84-.57a1.62,1.62,0,0,1,0-2.27l6.38-6.38,2.85,2.84Zm9.43-4.58L203,202l0,0-4.08-4.07,0,0L197,196.09l4-4.06,7.64,7.75Zm-3.06-12.36,2-2,7.72,7.67-2.06,2.07Zm65.39,65.08a1.47,1.47,0,0,1-1.61-.36L210,199.79l2.18-2.2,55.53,56.34A1.6,1.6,0,0,1,267.09,256.49Z"/><path class="cls-1" d="M82.09,111a.52.52,0,0,0-.73.11l-4,5.44-2-2.69,3.48-4.67a.53.53,0,0,0-.84-.63l-3.29,4.42-2-2.7,2.72-3.64a.53.53,0,0,0-.84-.63L72,109.37,69.46,106a.53.53,0,0,0-.84.63l2.72,3.64-2,2.7L66,108.52a.53.53,0,0,0-.84.63l3.48,4.67-2,2.69-4.06-5.44c-.39-.55-1.25.09-.83.62l4.24,5.7-4.24,5.69a.52.52,0,0,0,.83.62l4.06-5.44,2,2.7-3.48,4.67a.52.52,0,0,0,.84.62l3.29-4.42,2,2.7-2.72,3.65a.52.52,0,0,0,.84.62L72,125.4l2.53,3.4a.52.52,0,0,0,.84-.62l-2.72-3.65,2-2.7,3.29,4.42a.52.52,0,0,0,.84-.62L75.3,121l2-2.7,4,5.44a.52.52,0,0,0,.84-.62L78,117.39l4.24-5.7A.53.53,0,0,0,82.09,111Zm-10.1.16,2,2.7-2,2.69-2-2.69Zm-4.67,6.27,2-2.7,2,2.7-2,2.69ZM72,123.66,70,121l2-2.7,2,2.7Zm2.66-3.58-2-2.69,2-2.7,2,2.7Z"/><path class="cls-1" d="M92.54,79.21c-.38.12-3-.36-2.91.43-.11.8,2.54.31,2.91.44A.44.44,0,0,0,92.54,79.21Z"/><path class="cls-1" d="M92.54,81.12c-.38.12-3-.36-2.91.43-.11.8,2.54.32,2.91.44A.44.44,0,0,0,92.54,81.12Z"/></g></svg>