<svg id="Layer_1" data-name="Layer 1" xmlns="http://www.w3.org/2000/svg" viewBox="0 0 430 337"><defs><style>.cls-1{fill:#fff;}</style></defs><path class="cls-1" d="M145.87,81.52c-1-9.56-8-15.57-17.35-16.67a40.82,40.82,0,0,0-5.64-.1c-1-.12-36.13,5.81-38,6l-10.48,57,35-5.69,1.68-.34,2.67-14.52h0l25.44-4.14h0C143.58,97,146.57,89.14,145.87,81.52Z"/><path class="cls-1" d="M222.09,97.63l-1.27-6.09-1.95-5.69-2.6-5.27L213,75.76C205,65.54,192.3,49.54,184.21,39.33l3.22,4.82,2.6,5.27L192,55.11l1.28,6.09.56,6.45-.17,6.79-.94,7.11c-2.61,13.93-9.57,27.84-18,39.14-14.57,19.2-35.26,34.76-58.09,42.6-10.3,3.79-39.44,7.54-50.49,9.54h0l-9.7,52.74h0L0,234.75c.1,0,28.75,36.49,28.9,36.42L85.28,262h0L95,209.26h0c11.25-2,40.16-5.76,50.49-9.54a130.88,130.88,0,0,0,21.92-10.16C198.09,171,226.62,135.39,222.09,97.63Z"/><path class="cls-1" d="M340.38,119c-.89,8.78-7.68,16.1-15.36,19.83a29.58,29.58,0,0,1-4.8,1.73c-6.83,1.31-32.41,5.29-39.66,6.53l6.33-34.46,37.82-6.15,1.73-.2a18.75,18.75,0,0,1,4.79.35A11.42,11.42,0,0,1,340.38,119Zm3.78-76.46c-.9,8.78-7.68,16.1-15.37,19.83A30.44,30.44,0,0,1,324,64.11l-1.85.38-27.22,4.42,6.34-34.45c3.88-.41,29.1-5.37,32.42-4.58C340.43,30.66,344.74,35.74,344.16,42.55Z"/><path class="cls-1" d="M429.52,54l-1.06-4.87-1.6-4.58-2.13-4.25c-5-7.66-26-33.19-31.46-40.34l2.63,3.91L398,8.16l1.61,4.58,1.06,4.87.49,5.15-.11,5.39-.73,5.63L399,39.44c-3.48,11.83-10.8,23.22-19,32.35l.06,0h0a54.24,54.24,0,0,1,4.88,3.91l3.63,4,.25.33-.25-.33,3,4.44L394,89l1.46,4.39.95,4.66.43,4.9-.12,5.12-.7,5.32-1.34,5.67A83.46,83.46,0,0,1,388.37,134c-9.55,16.91-24.83,31-42,39.91a99.11,99.11,0,0,1-18,6.84L322.23,182l-106,17.24c.21.08,28.64,36.54,29,36.41L351.06,218.4l6.13-1.27a95.77,95.77,0,0,0,23.74-10c24-14.47,47.89-42.9,44.28-72.6-1.89-12.32-7.85-18.42-15.18-27.7C422.52,92.62,432.3,73.41,429.52,54ZM389.81,81.26c.23.29.46.57.63.8Zm.94,1.18.06.07Z"/><path class="cls-1" d="M55.24,289.63l-7.87,43.55-7.52,1.23.67-3.67a16.43,16.43,0,0,1-10.26,6.09C22.46,338.11,17.35,332,19,322.74S28.4,305.27,36.2,304c4.25-.69,7,.48,8.61,3l2.92-16.11ZM42.67,318.86c.94-5.23-1.85-8.21-6.46-7.45s-8.73,4.87-9.67,10.1,1.85,8.2,6.5,7.44S41.72,324.08,42.67,318.86Z"/><path class="cls-1" d="M72.28,322.87a11.72,11.72,0,0,0,7.08-4.18l5.39,2.74a21.75,21.75,0,0,1-13.9,8.74c-9.78,1.6-14.66-4.54-13-13.81s9.2-17.44,18.34-18.94c8.62-1.42,13.42,4.86,11.77,14a23.86,23.86,0,0,1-.89,3.35l-22,3.6C65.43,322.3,68.32,323.52,72.28,322.87ZM81,309.73c-.12-4.33-2.94-5.61-6.08-5.1a11.35,11.35,0,0,0-8.76,7.54Z"/><path class="cls-1" d="M115.16,313.23c-1.22,6.72-7.28,10.86-13.51,11.88-5.82,1-9.66-.95-10.89-5.4l7.23-5c.36,2.42,2.07,3.59,5,3.11,2.38-.39,4.17-1.53,4.5-3.33.82-4.54-14.65.41-12.67-10.54,1.14-6.34,6.85-10.72,12.85-11.71,4.71-.77,8.37.86,9.87,4.78l-7.08,4.79c-.51-1.85-1.93-2.77-4.09-2.41-1.86.3-3.53,1.42-3.83,3.1C101.68,307.12,117.22,301.79,115.16,313.23Z"/><path class="cls-1" d="M126.3,290l7.51-1.24-5.62,31.11-7.51,1.23Zm.69-8.51a7.51,7.51,0,0,1,5.5-5.73c2.56-.42,4.24,1.54,3.76,4.21a7.44,7.44,0,0,1-5.55,5.68C128.2,286.1,126.5,284.21,127,281.53Z"/><path class="cls-1" d="M172.65,282.43,167.3,312a21.58,21.58,0,0,1-17.88,17.3c-6.23,1-10.78-.71-12.43-5.32l7.12-5c.78,2.22,2.35,3.83,6.84,3.1a10.56,10.56,0,0,0,9-8.91l.61-3.36a16.33,16.33,0,0,1-10.18,6.26c-8.26,1.36-13.2-4.77-11.62-13.54s9.11-17,17.38-18.31c4.14-.68,6.95.61,8.46,3.2l.7-3.86Zm-10.06,16.26c.89-4.92-1.91-7.9-6.62-7.13a12.28,12.28,0,0,0-9.68,9.8c-.9,5,1.89,8,6.61,7.19A12.32,12.32,0,0,0,162.59,298.69Z"/><path class="cls-1" d="M206.81,288.47l-3.45,19.1-7.51,1.23,3.27-18.1c.77-4.23-1.23-6-4.61-5.46-3.66.6-6.82,3.35-7.8,8.76l-3,16.8L176.17,312l5.62-31.1,7.51-1.24-.63,3.49a14.43,14.43,0,0,1,9.46-5.78C204.31,276.38,208.31,280.19,206.81,288.47Z"/><path class="cls-1" d="M252.57,290.67c-1.21,6.72-7.27,10.86-13.5,11.88-5.82.95-9.66-.95-10.89-5.4l7.23-5c.36,2.42,2.07,3.59,5,3.11,2.38-.39,4.17-1.53,4.5-3.33.82-4.55-14.65.41-12.68-10.54,1.15-6.34,6.86-10.72,12.86-11.71,4.71-.77,8.37.86,9.87,4.78l-7.08,4.78c-.51-1.84-1.93-2.76-4.09-2.4-1.86.3-3.53,1.42-3.83,3.1C239.1,284.56,254.64,279.23,252.57,290.67Z"/><path class="cls-1" d="M271.52,273.68l-2.34,12.94c-.6,3.36,1.66,3.05,6,2.09L273.88,296c-10.77,3-13.73.26-12.21-8.14L264,274.91l-5.06.83,1.39-7.71,5.07-.83,1.13-6.28,7.95-3.66L272.92,266l6.58-1.09-1.4,7.72Z"/><path class="cls-1" d="M314.32,259.17l-5.62,31.1-7.52,1.24.63-3.49a14.43,14.43,0,0,1-9.46,5.78c-6.17,1-10.17-2.8-8.68-11.07l3.45-19.1,7.52-1.23-3.28,18.1c-.76,4.23,1.23,6,4.61,5.46,3.67-.6,6.82-3.35,7.8-8.76l3-16.8Z"/><path class="cls-1" d="M355.35,240.36l-7.87,43.55L340,285.14l.67-3.67a16.47,16.47,0,0,1-10.26,6.09c-7.8,1.28-12.91-4.82-11.24-14.09s9.38-17.48,17.18-18.76c4.25-.69,7,.48,8.61,3l2.92-16.12Zm-12.57,29.23c.94-5.23-1.85-8.21-6.45-7.46s-8.74,4.88-9.68,10.11,1.85,8.2,6.5,7.44S341.83,274.81,342.78,269.59Z"/><path class="cls-1" d="M362.3,251.29l7.51-1.23-5.62,31.1-7.51,1.24Zm.69-8.5a7.49,7.49,0,0,1,5.5-5.73c2.56-.42,4.24,1.53,3.76,4.21A7.46,7.46,0,0,1,366.7,247C364.19,247.36,362.5,245.46,363,242.79Z"/><path class="cls-1" d="M374.68,264.35c1.68-9.27,9.79-17.54,18.35-19s14.13,4.62,12.46,13.89-9.84,17.55-18.4,19S373,273.62,374.68,264.35Zm23.3-3.83c.91-5-1.89-8-6.37-7.28s-8.5,4.84-9.41,9.88,1.88,8,6.3,7.29S397.06,265.56,398,260.52Z"/></svg>